<svg version="1.0" xmlns="http://www.w3.org/2000/svg"
 width="668px" style="transform:scale(1,1.001);" height="375.75px" viewBox="0 0 320.000000 180.000000"
 preserveAspectRatio="xMidYMid meet">
<g transform="translate(0.000000,180.000000) scale(0.100000,-0.100000)"
fill="#000000" stroke="none">
<path d="M0 905 l0 -895 653 0 652 0 1 498 c0 439 2 506 18 574 10 42 24 83 33 89 8 7
21 25 28 40 10 18 25 29 49 33 20 4 40 14 45 24 5 9 29 24 53 32 41 15 43 18
46 59 2 24 -1 47 -5 50 -17 11 -60 96 -67 130 -7 40 23 118 51 128 10 3 33 19
51 35 28 24 41 28 92 28 50 0 61 -4 77 -23 10 -13 28 -29 41 -36 29 -16 62
-82 62 -126 0 -21 -13 -60 -32 -95 -28 -52 -30 -64 -22 -97 5 -23 18 -42 32
-49 13 -6 32 -21 42 -32 10 -11 34 -25 53 -31 20 -7 39 -22 45 -36 7 -14 16
-25 21 -25 5 0 16 -21 25 -47 19 -56 22 -337 5 -491 -15 -138 -61 -304 -108
-392 -4 -8 -16 -49 -26 -90 -10 -41 -24 -82 -31 -91 -8 -8 -14 -25 -14 -37 l0
-22 665 0 665 0 0 895 0 895 -1600 0 -1600 0 0 -895z"/>
</g>
</svg>
