<svg version="1.0" xmlns="http://www.w3.org/2000/svg"
 width="668px" style="transform:scale(1,1.001);" height="375.75px" viewBox="0 0 320.000000 180.000000"
 preserveAspectRatio="xMidYMid meet">
<g transform="translate(0.000000,180.000000) scale(0.100000,-0.100000)"
fill="#000000" stroke="none">
<path d="M0 905 l0 -895 1600 0 1600 0 0 895 0 895 -1600 0 -1600 0 0 -895z m1577 673
c30 -33 35 -57 23 -118 -13 -66 8 -109 57 -122 41 -11 127 -106 161 -177 20
-45 23 -60 16 -90 l-9 -36 -61 3 c-41 2 -64 -2 -71 -10 -14 -19 -33 -113 -33
-167 0 -67 43 -281 78 -386 36 -108 83 -294 89 -352 4 -34 1 -43 -15 -52 -40
-21 -69 9 -92 94 -21 83 -71 195 -130 295 -31 52 -62 111 -70 130 -32 82 -60
82 -96 3 -43 -99 -47 -134 -23 -206 36 -105 49 -166 49 -222 0 -53 -1 -56 -41
-80 -27 -17 -51 -25 -72 -23 l-32 3 0 105 c-1 95 -4 112 -33 181 -51 120 -47
213 21 474 14 55 21 116 23 197 2 114 1 117 -25 142 -19 19 -44 28 -91 35 -79
11 -149 37 -172 63 -36 41 -8 168 36 165 29 -1 44 -14 62 -53 20 -41 45 -49
126 -40 60 6 133 38 142 62 3 7 1 28 -5 46 -15 54 -11 103 12 132 18 23 27 26
88 26 57 0 71 -3 88 -22z"/>
</g>
</svg>
