<svg version="1.0" xmlns="http://www.w3.org/2000/svg"
 width="668px" style="transform:scale(1,1.001);" height="375.75px" viewBox="0 0 320.000000 180.000000"
 preserveAspectRatio="xMidYMid meet">
<g transform="translate(0.000000,180.000000) scale(0.100000,-0.100000)"
fill="#000000" stroke="none">
<path d="M0 905 l0 -895 1600 0 1600 0 0 895 0 895 -1600 0 -1600 0 0 -895z m1856 798
c27 -18 51 -43 63 -69 18 -37 19 -46 7 -95 -7 -30 -18 -64 -24 -76 -30 -55 2
-133 55 -133 13 0 34 -11 47 -25 13 -14 29 -25 35 -25 15 0 88 -79 107 -115
33 -64 56 -156 52 -204 -5 -54 -60 -157 -88 -166 -26 -8 -106 -87 -126 -125
-15 -28 -18 -53 -17 -120 3 -99 -13 -205 -34 -226 -12 -11 -52 -14 -203 -14
l-190 0 -17 27 c-13 20 -19 56 -24 137 -5 96 -9 117 -32 156 -15 25 -32 62
-38 84 -6 21 -20 48 -32 60 -13 11 -36 41 -52 66 -26 41 -29 53 -29 130 0 73
3 91 24 125 41 67 117 156 150 176 17 11 33 26 36 34 3 8 21 19 40 25 37 13
74 57 74 89 0 11 -9 43 -20 71 -37 94 -18 163 59 211 60 39 117 39 177 2z m37
-1569 c34 -46 13 -54 -144 -50 -147 3 -178 11 -148 42 19 18 34 19 114 11 43
-5 69 -3 90 7 44 21 68 18 88 -10z"/>
</g>
</svg>
