<svg version="1.0" xmlns="http://www.w3.org/2000/svg"
 width="668px" style="transform:scale(1,1.001);" height="375.75px" viewBox="0 0 320.000000 180.000000"
 preserveAspectRatio="xMidYMid meet">
<g transform="translate(0.000000,180.000000) scale(0.100000,-0.100000)"
fill="#000000" stroke="none">
<path d="M0 905 l0 -895 525 0 525 0 0 59 c0 51 5 66 34 109 19 27 38 66 42 87 4 21 19
52 34 69 16 17 32 49 35 70 4 21 20 53 36 70 59 68 59 198 0 281 -18 26 -31
59 -36 95 -4 30 -18 73 -30 95 -13 22 -33 69 -44 104 -11 35 -25 69 -30 75
-15 20 -51 145 -51 180 0 35 -24 118 -86 301 -20 59 -34 121 -34 148 l0 47
-460 0 -460 0 0 -895z"/>
<path d="M1280 1766 c0 -25 10 -44 40 -77 24 -27 40 -54 40 -69 0 -23 9 -39 62 -119 10
-14 18 -33 18 -42 0 -9 18 -41 40 -72 22 -30 40 -60 40 -65 0 -6 20 -28 45
-50 40 -35 56 -42 131 -56 83 -15 88 -15 130 4 24 10 44 25 45 32 3 36 -3 88
-15 128 -26 87 -39 216 -32 320 l6 100 -275 0 -275 0 0 -34z"/>
<path d="M2740 1777 c0 -13 11 -34 25 -47 14 -14 35 -56 51 -104 14 -45 29 -85 34 -91
19 -26 20 -85 2 -127 -11 -24 -25 -60 -31 -80 -7 -21 -32 -59 -56 -85 -56 -60
-49 -54 -121 -114 -54 -44 -65 -59 -88 -122 -33 -92 -35 -173 -5 -211 12 -15
28 -48 35 -74 8 -25 27 -60 43 -77 16 -16 32 -44 35 -61 4 -17 22 -45 40 -62
20 -19 36 -46 40 -67 4 -21 19 -47 36 -61 18 -17 31 -40 35 -65 4 -22 18 -50
34 -66 32 -32 71 -148 71 -212 l0 -41 140 0 140 0 0 895 0 895 -230 0 -230 0
0 -23z"/>
</g>
</svg>
