<svg version="1.0" xmlns="http://www.w3.org/2000/svg"
 width="668px" style="transform:scale(1,1.001);" height="375.75px" viewBox="0 0 320.000000 180.000000"
 preserveAspectRatio="xMidYMid meet">
<g transform="translate(0.000000,180.000000) scale(0.100000,-0.100000)"
fill="#000000" stroke="none">
<path d="M0 905 l0 -895 1600 0 1600 0 0 895 0 895 -825 0 -825 0 0 -21 c0 -12 17 -36
38 -54 l37 -34 -2 -116 -3 -116 28 -12 c15 -7 38 -19 52 -29 14 -9 40 -19 59
-23 71 -15 138 -110 186 -265 14 -47 31 -100 37 -119 10 -34 30 -254 31 -346
0 -27 -5 -90 -12 -140 -13 -95 -27 -118 -67 -113 -13 2 -29 -7 -41 -21 -25
-31 -54 -22 -76 24 -20 41 -21 72 -6 112 14 37 14 276 0 300 -10 17 -10 17
-11 -3 0 -12 -7 -37 -15 -56 -34 -82 -48 -180 -41 -286 10 -175 -11 -191 -241
-175 -76 5 -194 6 -263 2 -103 -6 -129 -4 -148 8 -25 15 -25 17 -6 124 5 29
-1 48 -26 98 -29 55 -33 73 -37 169 -7 137 10 210 72 321 14 24 25 49 25 54 0
6 21 47 47 91 47 82 117 166 139 166 7 0 24 14 38 30 22 26 24 34 14 60 -5 17
-20 38 -31 48 -35 27 -74 85 -81 117 -8 37 24 86 82 125 25 17 38 35 40 53 l3
27 -685 0 -686 0 0 -895z"/>
<path d="M1179 748 c-15 -28 -16 -105 -2 -119 16 -16 53 38 53 77 0 64 -27 86 -51 42z"/>
</g>
</svg>
