<svg version="1.0" xmlns="http://www.w3.org/2000/svg"
 width="668px" style="transform:scale(1,1.001);" height="375.75px" viewBox="0 0 320.000000 180.000000"
 preserveAspectRatio="xMidYMid meet">
<g transform="translate(0.000000,180.000000) scale(0.100000,-0.100000)"
fill="#000000" stroke="none">
<path d="M0 905 l0 -895 1600 0 1600 0 0 895 0 895 -1600 0 -1600 0 0 -895z m1741 785
c15 -11 38 -22 52 -25 14 -4 42 -27 61 -53 35 -43 36 -49 36 -126 0 -64 -5
-92 -23 -131 -35 -74 -39 -116 -16 -154 10 -17 22 -31 27 -31 4 0 25 -16 45
-35 20 -19 43 -35 50 -35 8 0 24 -11 37 -25 13 -14 29 -25 37 -25 17 0 84 -66
110 -110 29 -48 70 -227 77 -336 3 -51 10 -104 16 -118 5 -15 10 -56 10 -90 0
-102 11 -99 -312 -95 -150 2 -385 2 -523 0 -274 -4 -328 3 -339 42 -10 39 -6
121 9 171 8 26 17 78 21 115 6 62 40 169 69 216 7 11 15 31 19 45 3 14 23 42
43 63 49 50 172 147 186 147 6 0 28 17 49 37 58 57 53 92 -33 219 -43 64 -59
133 -44 189 10 36 58 95 94 114 14 7 35 22 46 31 37 34 149 33 196 0z"/>
</g>
</svg>
