<svg version="1.0" xmlns="http://www.w3.org/2000/svg"
 width="668px" style="transform:scale(1,1.001);" height="375.75px" viewBox="0 0 320.000000 180.000000"
 preserveAspectRatio="xMidYMid meet">
<g transform="translate(0.000000,180.000000) scale(0.100000,-0.100000)"
fill="#000000" stroke="none">
<path d="M0 1595 l0 -205 29 0 c26 0 30 4 33 33 3 30 5 32 43 31 21 -1 41 -7 43 -14 8
-24 115 -136 150 -157 56 -34 123 -31 188 10 78 48 107 68 134 93 14 12 36 25
50 29 14 4 35 16 47 27 23 22 117 48 171 48 18 0 42 4 52 10 37 20 156 23 266
6 60 -8 135 -18 167 -22 55 -5 63 -10 117 -62 31 -31 65 -73 75 -92 10 -19 28
-48 41 -63 13 -16 24 -34 24 -40 0 -6 12 -28 26 -49 23 -33 27 -48 27 -118 0
-70 -4 -85 -27 -118 -14 -21 -26 -41 -26 -45 0 -4 -16 -31 -35 -60 -19 -28
-35 -55 -35 -60 0 -5 -12 -24 -26 -42 -38 -50 -46 -96 -23 -134 10 -17 23 -31
28 -31 8 0 105 -87 136 -121 6 -6 22 -23 36 -38 15 -15 42 -58 60 -96 33 -67
34 -75 34 -187 l0 -118 697 0 698 0 0 895 0 895 -1600 0 -1600 0 0 -205z"/>
<path d="M0 660 l0 -650 70 0 c67 0 70 1 70 23 0 15 -9 29 -26 37 -23 13 -25 19 -20 60
3 25 10 124 15 220 6 96 17 213 26 259 17 98 12 134 -37 237 l-32 69 -4 198
-4 197 -29 0 -29 0 0 -650z"/>
</g>
</svg>
