<svg version="1.0" xmlns="http://www.w3.org/2000/svg"
 width="668px" style="transform:scale(1,1.001);" height="375.75px" viewBox="0 0 320.000000 180.000000"
 preserveAspectRatio="xMidYMid meet">
<g transform="translate(0.000000,180.000000) scale(0.100000,-0.100000)"
fill="#000000" stroke="none">
<path d="M0 905 l0 -895 624 0 624 0 0 23 c0 12 7 42 17 67 21 56 15 95 -26 186 -74
166 -92 261 -90 481 2 151 1 163 -18 182 -12 12 -34 21 -50 21 -37 0 -92 20
-86 30 3 5 -3 11 -13 14 -12 4 -23 23 -31 54 -34 134 -35 165 -5 245 8 20 18
55 23 77 8 38 7 41 -18 54 -18 10 -30 28 -39 60 -12 40 -12 51 3 90 22 58 93
106 156 106 69 -1 99 -35 99 -114 0 -34 6 -50 22 -66 23 -21 63 -27 73 -10 3
6 23 10 43 10 20 0 91 7 157 16 114 15 123 15 195 -3 87 -22 100 -38 100 -119
0 -120 -59 -213 -138 -216 -23 -1 -45 2 -48 5 -15 14 -34 111 -24 117 16 10
-5 57 -28 64 -21 7 -73 -9 -70 -21 0 -5 -2 -16 -7 -26 -8 -19 9 -72 34 -101
12 -13 17 -43 18 -115 1 -53 7 -135 13 -183 10 -73 9 -100 -5 -167 -18 -88
-17 -157 5 -479 13 -191 8 -232 -25 -232 -9 0 -15 -9 -15 -25 l0 -25 865 0
865 0 0 895 0 895 -1600 0 -1600 0 0 -895z"/>
</g>
</svg>
