<svg version="1.0" xmlns="http://www.w3.org/2000/svg"
 width="668px" style="transform:scale(1,1.001);" height="375.75px" viewBox="0 0 320.000000 180.000000"
 preserveAspectRatio="xMidYMid meet">
<g transform="translate(0.000000,180.000000) scale(0.100000,-0.100000)"
fill="#000000" stroke="none">
<path d="M0 905 l0 -895 546 0 547 0 -7 60 c-7 62 -2 98 41 309 22 107 24 131 14 175
-6 28 -14 87 -17 131 -7 90 -27 178 -48 209 -7 12 -26 28 -41 36 -25 13 -28
13 -41 -5 -8 -11 -19 -37 -25 -58 -14 -51 -46 -64 -106 -41 -53 20 -63 37 -63
102 0 55 28 102 60 102 20 0 33 14 37 40 2 17 15 42 70 142 47 85 53 116 24
142 -10 9 -26 36 -35 60 -15 38 -15 46 -2 78 8 19 33 51 55 71 49 44 95 49
144 15 41 -30 44 -33 51 -81 5 -26 18 -51 40 -73 30 -30 40 -34 90 -34 38 0
59 -5 68 -15 42 -51 115 -102 155 -108 30 -5 42 -14 57 -41 15 -29 17 -38 6
-51 -7 -8 -10 -25 -7 -37 13 -49 -35 -63 -78 -24 -15 14 -41 28 -58 31 -18 4
-39 13 -47 21 -10 8 -21 10 -29 5 -23 -15 4 -214 45 -336 37 -110 61 -189 74
-250 5 -22 14 -61 21 -87 11 -42 10 -53 -6 -90 -10 -24 -33 -61 -50 -83 -17
-22 -41 -56 -52 -75 -25 -43 -73 -184 -73 -216 l0 -24 920 0 920 0 0 895 0
895 -1600 0 -1600 0 0 -895z"/>
<path d="M1330 445 c0 -22 4 -34 10 -30 6 3 10 17 10 30 0 13 -4 27 -10 30 -6 4 -10 -8
-10 -30z"/>
</g>
</svg>
