<svg version="1.0" xmlns="http://www.w3.org/2000/svg"
 width="668px" style="transform:scale(1,1.001);" height="375.75px" viewBox="0 0 320.000000 180.000000"
 preserveAspectRatio="xMidYMid meet">
<g transform="translate(0.000000,180.000000) scale(0.100000,-0.100000)"
fill="#000000" stroke="none">
<path d="M0 905 l0 -895 561 0 562 0 -7 47 c-10 84 -8 704 4 803 12 107 8 152 -20 198
-25 41 -60 42 -113 5 -36 -25 -41 -26 -65 -12 -14 8 -29 25 -33 39 -28 102 22
359 73 376 32 10 87 -5 99 -27 8 -16 13 -18 25 -8 10 8 14 37 14 113 0 76 4
110 18 136 l17 35 78 3 c51 2 84 -1 94 -9 29 -25 42 -76 36 -148 -6 -68 -5
-69 23 -84 16 -8 38 -25 49 -37 11 -12 29 -26 41 -30 27 -11 34 -54 27 -169
-4 -59 -2 -100 7 -122 6 -19 16 -104 20 -189 5 -85 14 -233 20 -328 9 -127 9
-216 1 -341 -6 -93 -11 -187 -11 -210 l0 -41 840 0 840 0 0 895 0 895 -1600 0
-1600 0 0 -895z"/>
<path d="M1289 583 c-15 -41 -38 -202 -49 -345 -5 -70 -12 -150 -16 -178 l-7 -50 103 0
102 0 -6 43 c-3 23 -8 85 -11 137 -18 290 -78 493 -116 393z"/>
</g>
</svg>
