<svg version="1.0" xmlns="http://www.w3.org/2000/svg"
 width="668px" style="transform:scale(1,1.001);" height="375.75px" viewBox="0 0 320.000000 180.000000"
 preserveAspectRatio="xMidYMid meet">
<g transform="translate(0.000000,180.000000) scale(0.100000,-0.100000)"
fill="#000000" stroke="none">
<path d="M0 905 l0 -895 676 0 677 0 -9 43 c-5 23 -9 168 -9 322 0 185 -5 295 -13 325
-6 25 -12 78 -12 118 0 78 -14 98 -47 71 -20 -17 -73 -127 -73 -152 0 -26 -41
-77 -61 -77 -9 0 -28 18 -41 41 -21 36 -23 48 -17 96 4 30 14 62 22 71 8 10
18 27 21 38 4 12 21 38 39 57 18 19 39 44 47 57 8 12 32 45 53 73 20 28 37 54
37 57 0 16 57 69 80 75 14 5 40 19 58 33 29 22 32 29 32 80 0 89 47 142 125
142 53 0 82 -16 101 -55 15 -32 15 -41 3 -77 -17 -53 -17 -107 2 -118 49 -28
102 -82 140 -141 24 -38 52 -71 62 -74 9 -4 29 -17 45 -29 15 -13 44 -29 65
-36 30 -9 42 -21 54 -48 25 -59 -4 -163 -49 -178 -23 -7 -58 13 -58 33 0 14
-96 114 -159 166 -24 19 -64 37 -85 37 -26 0 -56 -40 -56 -76 0 -32 49 -150
76 -184 19 -23 74 -195 74 -230 0 -17 -16 -76 -35 -131 -45 -130 -45 -143 6
-190 39 -36 41 -40 30 -70 -6 -18 -11 -40 -11 -50 0 -18 26 -19 705 -19 l705
0 0 895 0 895 -1600 0 -1600 0 0 -895z"/>
<path d="M1502 638 c-5 -7 -12 -53 -15 -103 -4 -49 -14 -126 -23 -170 -9 -44 -18 -142
-21 -218 l-5 -137 121 0 121 0 0 25 c0 20 -5 25 -24 25 -33 0 -86 46 -86 75 0
12 7 42 15 65 8 23 15 58 15 77 0 19 7 48 16 65 28 54 20 133 -21 213 -33 64
-58 95 -76 95 -3 0 -11 -6 -17 -12z"/>
</g>
</svg>
