<svg version="1.0" xmlns="http://www.w3.org/2000/svg"
 width="668px" style="transform:scale(1,1.001);" height="375.75px" viewBox="0 0 320.000000 180.000000"
 preserveAspectRatio="xMidYMid meet">
<g transform="translate(0.000000,180.000000) scale(0.100000,-0.100000)"
fill="#000000" stroke="none">
<path d="M0 905 l0 -895 703 0 702 0 2 148 c2 114 7 162 22 212 25 83 48 147 66 187 10
20 15 65 15 130 1 86 4 106 30 168 56 130 63 255 21 348 -48 105 -8 227 114
347 92 91 151 120 244 120 61 0 85 -5 135 -29 59 -28 62 -31 75 -79 14 -56 4
-138 -24 -191 -8 -17 -15 -52 -15 -79 0 -45 4 -52 53 -103 50 -51 69 -76 82
-109 4 -8 13 -27 21 -42 8 -14 14 -42 14 -60 0 -19 9 -61 20 -93 24 -71 30
-208 10 -245 -7 -14 -25 -38 -40 -53 -24 -24 -38 -29 -105 -36 -73 -7 -80 -9
-112 -45 l-35 -38 4 -176 c1 -98 -1 -201 -6 -229 l-9 -53 607 0 606 0 0 895 0
895 -1600 0 -1600 0 0 -895z"/>
<path d="M1793 1403 c9 -2 23 -2 30 0 6 3 -1 5 -18 5 -16 0 -22 -2 -12 -5z"/>
<path d="M1670 84 c-14 -7 -33 -15 -42 -18 -11 -3 -18 -15 -18 -31 0 -25 1 -25 75 -25
73 0 75 1 75 24 0 17 -10 30 -32 43 -28 16 -37 17 -58 7z"/>
</g>
</svg>
