<svg version="1.0" xmlns="http://www.w3.org/2000/svg"
 width="668px" style="transform:scale(1,1.001);" height="375.75px" viewBox="0 0 320.000000 180.000000"
 preserveAspectRatio="xMidYMid meet">
<g transform="translate(0.000000,180.000000) scale(0.100000,-0.100000)"
fill="#000000" stroke="none">
<path d="M0 905 l0 -895 1600 0 1600 0 0 895 0 895 -1600 0 -1600 0 0 -895z m1462 686
c33 -29 33 -31 31 -110 -3 -74 -1 -82 22 -105 14 -14 51 -33 83 -41 31 -9 67
-21 80 -28 49 -24 111 -111 177 -247 15 -30 36 -64 46 -76 10 -11 19 -25 19
-32 0 -6 11 -28 25 -48 14 -20 25 -42 25 -49 0 -6 9 -20 20 -30 11 -10 20 -24
20 -31 0 -14 73 -94 87 -94 4 -1 26 -16 47 -35 l39 -35 -23 -25 c-17 -19 -26
-22 -36 -14 -10 8 -17 7 -29 -4 -8 -9 -15 -20 -15 -26 0 -14 -44 -25 -74 -17
-14 3 -43 32 -70 68 -103 142 -110 149 -136 146 l-25 -3 -6 -195 c-5 -186 -6
-197 -32 -246 -14 -28 -33 -54 -41 -57 -11 -4 -12 -14 -5 -44 20 -87 -1 -108
-83 -84 -39 12 -40 13 -19 27 12 9 30 32 40 52 19 37 19 37 -5 82 -13 25 -23
56 -24 70 -1 54 -11 71 -39 68 -22 -3 -28 -10 -37 -48 -13 -53 -49 -80 -107
-80 -87 0 -134 45 -124 120 2 19 10 82 16 140 6 58 16 134 21 169 6 45 6 69
-2 78 -17 21 -28 15 -44 -22 -8 -19 -29 -59 -47 -88 -19 -28 -37 -59 -40 -67
-4 -8 -20 -35 -36 -60 -16 -25 -44 -74 -63 -109 -49 -94 -100 -103 -134 -23
-14 34 -14 41 1 92 10 30 26 67 36 82 11 14 19 33 19 41 0 8 20 39 43 69 62
75 75 110 80 215 3 70 9 99 26 126 11 19 21 41 21 49 0 17 33 64 85 120 49 53
49 81 -1 128 -22 20 -47 41 -57 46 -23 13 -39 79 -27 109 11 28 70 75 96 76
10 0 35 6 54 13 57 22 87 19 122 -13z m-14 -1438 c35 -9 7 -23 -45 -23 -40 0
-52 8 -36 23 8 9 50 9 81 0z"/>
</g>
</svg>
