<svg version="1.0" xmlns="http://www.w3.org/2000/svg"
 width="668px" style="transform:scale(1,1.001);" height="375.75px" viewBox="0 0 320.000000 180.000000"
 preserveAspectRatio="xMidYMid meet">
<g transform="translate(0.000000,180.000000) scale(0.100000,-0.100000)"
fill="#000000" stroke="none">
<path d="M0 905 l0 -895 425 0 425 0 0 34 c0 29 9 42 53 81 28 26 69 58 89 71 20 13 45
35 55 50 10 14 30 41 45 59 16 18 28 35 28 38 0 3 21 36 47 74 l48 68 2 109
c1 67 10 137 22 185 10 42 22 95 26 117 7 47 43 87 119 131 42 24 51 35 63 76
30 104 85 157 160 157 102 0 187 -109 138 -174 -22 -29 -19 -50 18 -112 17
-30 38 -65 44 -77 27 -47 5 -232 -35 -304 -32 -58 -9 -106 78 -162 94 -60 196
-163 204 -207 9 -44 -8 -106 -39 -142 -14 -17 -25 -39 -25 -51 l0 -21 605 0
605 0 0 895 0 895 -1600 0 -1600 0 0 -895z"/>
<path d="M1530 255 c-25 -14 -50 -25 -57 -25 -7 0 -33 -16 -59 -35 -49 -37 -53 -39
-129 -35 -42 1 -57 -4 -92 -29 -23 -17 -63 -40 -88 -52 -35 -16 -45 -27 -45
-45 l0 -24 393 0 394 0 1 77 c0 95 -12 117 -75 137 -27 8 -66 24 -88 35 -51
27 -99 26 -155 -4z"/>
</g>
</svg>
