<svg version="1.0" xmlns="http://www.w3.org/2000/svg"
 width="668px" style="transform:scale(1,1.001);" height="375.75px" viewBox="0 0 320.000000 180.000000"
 preserveAspectRatio="xMidYMid meet">
<g transform="translate(0.000000,180.000000) scale(0.100000,-0.100000)"
fill="#000000" stroke="none">
<path d="M0 905 l0 -895 640 0 640 0 0 23 c-1 14 -13 29 -33 42 -18 11 -42 40 -55 65
-20 39 -23 56 -19 125 4 99 26 143 97 204 82 69 90 89 90 211 0 64 -6 124 -15
154 -20 64 -19 139 1 184 15 34 117 141 151 160 21 12 18 93 -6 193 -29 119
-27 168 7 229 15 27 31 50 36 50 4 0 24 14 44 31 34 30 39 31 98 26 49 -3 70
-11 94 -31 18 -14 39 -26 48 -26 24 0 97 -79 111 -119 23 -69 8 -144 -39 -196
-65 -73 -73 -123 -28 -170 68 -70 112 -121 132 -153 13 -20 39 -56 59 -79 19
-24 45 -72 57 -108 19 -59 20 -71 10 -132 -6 -38 -15 -111 -21 -163 -12 -129
-37 -264 -54 -297 -8 -16 -15 -37 -15 -48 0 -25 -55 -114 -75 -121 -8 -4 -15
-17 -15 -30 l0 -24 630 0 630 0 0 895 0 895 -1600 0 -1600 0 0 -895z"/>
</g>
</svg>
