<svg version="1.0" xmlns="http://www.w3.org/2000/svg"
 width="668px" style="transform:scale(1,1.001);" height="375.75px" viewBox="0 0 320.000000 180.000000"
 preserveAspectRatio="xMidYMid meet">
<g transform="translate(0.000000,180.000000) scale(0.100000,-0.100000)"
fill="#000000" stroke="none">
<path d="M0 905 l0 -895 766 0 767 0 -7 67 c-12 115 -36 244 -60 323 -13 41 -30 112
-39 156 -10 52 -25 96 -42 123 -27 40 -27 43 -23 163 4 113 8 131 42 218 40
101 71 144 123 166 18 8 40 26 50 40 16 24 16 28 -1 59 -22 40 -16 65 28 117
30 37 33 38 99 38 63 0 70 -2 105 -34 37 -34 37 -35 37 -113 0 -72 3 -82 33
-124 60 -88 40 -182 -75 -337 -27 -36 -30 -47 -22 -75 22 -84 29 -136 46 -322
10 -110 17 -260 17 -332 l0 -133 678 0 678 0 0 895 0 895 -1600 0 -1600 0 0
-895z"/>
<path d="M1657 300 c-4 -58 -9 -147 -13 -198 l-6 -92 46 0 c30 0 46 4 46 13 0 45 -43
325 -54 350 -12 30 -13 26 -19 -73z"/>
</g>
</svg>
