<svg version="1.0" xmlns="http://www.w3.org/2000/svg"
 width="668px" style="transform:scale(1,1.001);" height="375.75px" viewBox="0 0 320.000000 180.000000"
 preserveAspectRatio="xMidYMid meet">
<g transform="translate(0.000000,180.000000) scale(0.100000,-0.100000)"
fill="#000000" stroke="none">
<path d="M0 905 l0 -895 1600 0 1600 0 0 895 0 895 -1600 0 -1600 0 0 -895z m1525 769
c11 -8 38 -19 60 -25 47 -13 90 -58 105 -111 13 -46 -4 -156 -31 -208 -27 -50
-25 -105 6 -135 13 -14 31 -25 39 -25 8 0 27 -11 43 -24 15 -13 44 -28 65 -35
20 -7 39 -18 41 -25 3 -7 18 -16 34 -20 15 -4 51 -32 80 -62 40 -43 54 -67 62
-106 6 -27 16 -58 21 -68 6 -10 15 -53 21 -94 5 -42 17 -88 24 -103 8 -16 15
-41 15 -58 0 -16 9 -60 21 -96 15 -46 20 -77 15 -102 -12 -63 -21 -67 -174
-68 -613 -3 -855 -2 -905 4 -54 8 -59 11 -82 51 -29 49 -32 99 -11 172 8 27
18 76 21 109 4 33 16 74 26 91 11 17 19 42 19 55 0 36 45 94 172 222 142 142
143 145 72 282 -25 49 -52 98 -60 109 -8 13 -14 45 -14 84 l0 64 53 49 c28 27
56 49 60 49 5 0 20 9 34 20 32 25 137 28 168 4z"/>
</g>
</svg>
