<svg version="1.0" xmlns="http://www.w3.org/2000/svg"
 width="668px" style="transform:scale(1,1.001);" height="375.75px" viewBox="0 0 320.000000 180.000000"
 preserveAspectRatio="xMidYMid meet">
<g transform="translate(0.000000,180.000000) scale(0.100000,-0.100000)"
fill="#000000" stroke="none">
<path d="M0 905 l0 -895 781 0 781 0 -7 68 c-3 37 -11 87 -17 112 -14 61 -14 362 0 430
22 109 33 177 43 270 20 194 27 255 34 272 9 23 -38 94 -68 102 -32 8 -57 73
-57 152 0 69 29 181 56 220 10 14 26 37 35 51 9 13 32 32 50 41 24 12 35 25
37 45 l3 27 -835 0 -836 0 0 -895z"/>
<path d="M1890 1780 c0 -11 9 -37 20 -57 15 -28 20 -57 20 -109 0 -97 13 -131 55 -143
39 -10 95 -63 121 -112 23 -44 31 -183 15 -258 -15 -70 -77 -253 -103 -304
-14 -29 -23 -82 -34 -210 -8 -95 -19 -215 -24 -267 -5 -52 -12 -143 -14 -203
l-4 -107 629 0 629 0 0 895 0 895 -655 0 c-649 0 -655 0 -655 -20z"/>
</g>
</svg>
