<svg version="1.0" xmlns="http://www.w3.org/2000/svg"
 width="668px" style="transform:scale(1,1.001);" height="375.75px" viewBox="0 0 320.000000 180.000000"
 preserveAspectRatio="xMidYMid meet">
<g transform="translate(0.000000,180.000000) scale(0.100000,-0.100000)"
fill="#000000" stroke="none">
<path d="M0 905 l0 -895 1600 0 1600 0 0 895 0 895 -1600 0 -1600 0 0 -895z m1649 739
c86 -29 144 -76 162 -132 15 -46 4 -123 -27 -189 -43 -91 -43 -114 5 -166 23
-25 55 -50 71 -57 17 -7 30 -17 30 -22 0 -5 15 -15 33 -23 39 -16 127 -97 164
-152 15 -21 30 -56 33 -78 4 -22 15 -67 24 -100 9 -32 16 -82 16 -110 0 -27 7
-77 15 -110 8 -33 14 -75 15 -93 0 -39 -23 -87 -45 -96 -28 -10 -1061 -7
-1089 4 -15 5 -32 24 -40 45 -13 31 -13 45 -1 113 8 42 18 104 24 137 11 69
43 165 66 197 8 13 15 29 15 36 0 12 33 60 58 84 34 35 202 168 211 168 6 0
18 11 27 25 20 31 13 88 -14 119 -11 12 -32 48 -47 81 -14 33 -33 72 -41 87
-20 38 -17 73 10 116 32 50 71 85 131 115 64 33 100 33 194 1z"/>
</g>
</svg>
