<svg version="1.0" xmlns="http://www.w3.org/2000/svg"
 width="668px" style="transform:scale(1,1.001);" height="375.75px" viewBox="0 0 320.000000 180.000000"
 preserveAspectRatio="xMidYMid meet">
<g transform="translate(0.000000,180.000000) scale(0.100000,-0.100000)"
fill="#000000" stroke="none">
<path d="M0 905 l0 -895 706 0 707 0 -9 37 c-5 21 -9 96 -10 168 0 72 -2 139 -2 150 -1
12 -24 44 -51 72 -45 48 -49 58 -60 130 -7 43 -17 98 -23 123 -37 170 -39 155
32 305 21 44 41 91 45 105 21 70 140 209 202 236 54 24 61 104 13 159 -24 26
-50 91 -50 122 0 33 23 83 54 115 14 15 26 36 26 48 0 20 -1 20 -790 20 l-790
0 0 -895z"/>
<path d="M1790 1780 c0 -11 13 -39 30 -61 42 -59 47 -99 21 -174 -11 -35 -21 -78 -21
-98 0 -29 5 -37 30 -47 16 -7 36 -23 45 -36 8 -13 24 -24 35 -24 11 0 28 -8
38 -18 53 -57 100 -127 122 -182 7 -19 17 -40 22 -47 11 -14 27 -99 35 -180 7
-79 -7 -119 -61 -175 -24 -25 -60 -81 -82 -124 -36 -75 -38 -85 -45 -209 -4
-72 -16 -172 -28 -225 -12 -52 -25 -112 -28 -132 l-6 -38 652 0 651 0 0 895 0
895 -705 0 c-699 0 -705 0 -705 -20z"/>
</g>
</svg>
