<svg version="1.0" xmlns="http://www.w3.org/2000/svg"
 width="668px" style="transform:scale(1,1.001);" height="375.75px" viewBox="0 0 320.000000 180.000000"
 preserveAspectRatio="xMidYMid meet">
<g transform="translate(0.000000,180.000000) scale(0.100000,-0.100000)"
fill="#000000" stroke="none">
<path d="M0 905 l0 -895 615 0 615 0 0 24 c0 13 -7 29 -15 36 -24 20 -66 121 -82 200
-9 41 -16 129 -17 195 l-1 120 -29 3 c-18 2 -34 -3 -47 -16 -12 -13 -38 -23
-74 -27 -54 -7 -58 -6 -86 23 -17 17 -39 34 -49 37 -15 5 -130 218 -130 242 0
4 -16 40 -36 80 -27 53 -50 82 -87 110 -52 40 -104 91 -148 146 -47 58 -64
228 -30 304 17 37 26 44 72 57 101 30 250 12 309 -38 17 -14 36 -26 41 -26 16
0 136 -126 156 -163 23 -43 23 -141 0 -185 -10 -17 -35 -43 -57 -57 -36 -23
-40 -29 -40 -68 0 -51 31 -107 60 -107 11 0 37 19 57 41 21 23 47 52 59 64 30
32 34 48 43 150 7 75 13 97 37 133 19 29 38 45 57 49 35 7 47 35 47 108 0 49
4 59 43 107 33 40 55 57 92 70 62 21 138 23 154 4 7 -8 24 -17 39 -21 37 -9
101 -81 119 -132 8 -23 21 -47 29 -54 8 -7 14 -30 14 -59 0 -49 -25 -93 -72
-128 -11 -8 -18 -26 -18 -47 0 -29 6 -37 41 -57 31 -17 49 -38 71 -82 30 -59
30 -60 23 -175 -4 -64 -8 -172 -9 -241 -1 -117 1 -129 27 -190 16 -36 34 -77
40 -92 8 -19 8 -51 -1 -120 -6 -51 -14 -121 -18 -155 l-6 -63 696 0 696 0 0
895 0 895 -1600 0 -1600 0 0 -895z"/>
</g>
</svg>
