<svg version="1.0" xmlns="http://www.w3.org/2000/svg"
 width="668px" style="transform:scale(1,1.001);" height="375.75px" viewBox="0 0 320.000000 180.000000"
 preserveAspectRatio="xMidYMid meet">
<g transform="translate(0.000000,180.000000) scale(0.100000,-0.100000)"
fill="#000000" stroke="none">
<path d="M0 905 l0 -895 1600 0 1600 0 0 895 0 895 -1600 0 -1600 0 0 -895z m1671 767
c13 -11 37 -22 52 -26 29 -7 81 -58 105 -103 20 -37 -7 -184 -42 -235 -9 -13
-16 -42 -16 -69 l0 -47 91 -59 c50 -32 106 -70 124 -86 18 -15 37 -27 43 -27
6 0 25 -19 43 -42 50 -63 88 -177 89 -269 0 -26 7 -62 15 -82 8 -19 20 -87 26
-151 17 -163 19 -161 -148 -169 -159 -9 -764 -7 -896 2 -123 8 -127 11 -127
130 1 47 5 106 10 131 6 25 15 72 21 105 6 33 20 74 30 91 11 17 19 40 19 50
0 35 108 171 164 205 17 10 50 36 75 58 25 22 57 49 71 59 20 16 25 29 25 64
0 29 -6 51 -17 62 -10 10 -18 23 -18 30 0 7 -9 21 -19 30 -11 10 -23 32 -27
50 -3 17 -13 40 -20 51 -19 27 -17 95 4 127 27 42 73 81 127 110 64 33 159 38
196 10z"/>
</g>
</svg>
