<svg version="1.0" xmlns="http://www.w3.org/2000/svg"
 width="668px" style="transform:scale(1,1.001);" height="375.75px" viewBox="0 0 320.000000 180.000000"
 preserveAspectRatio="xMidYMid meet">
<g transform="translate(0.000000,180.000000) scale(0.100000,-0.100000)"
fill="#000000" stroke="none">
<path d="M0 905 l0 -895 720 0 720 0 0 38 c0 20 -5 85 -12 144 -12 114 -12 115 47 218
19 32 19 123 1 159 -27 51 -38 54 -160 52 -138 -2 -156 7 -163 85 -4 38 1 62
22 108 l26 58 58 -4 c38 -3 68 -11 88 -26 22 -15 46 -22 80 -22 43 0 50 3 70
34 11 18 27 67 34 108 20 120 0 164 -130 292 -10 9 -36 36 -67 69 -41 43 -58
89 -58 157 0 56 4 71 27 101 35 46 137 99 204 106 46 5 61 2 119 -28 92 -47
112 -80 124 -207 6 -64 13 -98 22 -101 18 -6 77 -70 94 -103 8 -16 18 -28 23
-28 13 0 79 -105 96 -152 22 -61 62 -215 69 -269 7 -44 35 -130 56 -167 5 -9
19 -44 30 -77 26 -76 28 -279 4 -405 -9 -47 -18 -97 -21 -113 l-5 -27 541 0
541 0 0 895 0 895 -1600 0 -1600 0 0 -895z"/>
</g>
</svg>
