<svg version="1.0" xmlns="http://www.w3.org/2000/svg"
 width="668px" style="transform:scale(1,1.001);" height="375.75px" viewBox="0 0 320.000000 180.000000"
 preserveAspectRatio="xMidYMid meet">
<g transform="translate(0.000000,180.000000) scale(0.100000,-0.100000)"
fill="#000000" stroke="none">
<path d="M0 905 l0 -895 1600 0 1600 0 0 895 0 895 -1600 0 -1600 0 0 -895z m1807 689
c39 -29 57 -86 42 -133 -6 -20 -16 -40 -23 -46 -6 -5 -22 -27 -34 -48 -22 -37
-22 -39 -5 -68 15 -25 83 -78 118 -90 29 -11 125 -72 125 -80 0 -5 11 -15 25
-21 14 -6 25 -15 25 -21 0 -5 11 -22 25 -39 14 -16 25 -37 25 -47 0 -9 7 -27
16 -39 21 -31 22 -114 0 -146 -23 -36 -95 -39 -132 -5 -12 11 -34 21 -50 22
-25 2 -32 -4 -49 -38 -17 -35 -20 -60 -19 -185 0 -103 5 -162 17 -203 9 -32
13 -65 10 -73 -11 -30 -53 -34 -285 -27 -184 5 -233 9 -245 21 -12 12 -13 33
-8 106 7 115 -24 430 -46 451 -12 12 -24 12 -84 -1 -38 -8 -84 -21 -102 -29
-17 -8 -46 -18 -65 -21 -36 -7 -67 -38 -98 -95 -21 -41 -62 -56 -82 -31 -7 8
-14 46 -16 84 -4 69 -4 70 33 108 21 22 51 42 66 45 15 3 34 14 44 25 9 10 31
21 49 24 31 6 81 45 172 134 18 17 38 32 45 32 6 0 24 11 41 25 16 14 38 25
48 25 11 0 31 11 46 25 15 14 37 25 50 25 26 0 62 34 70 66 3 12 -4 40 -15 62
-15 29 -21 60 -21 106 l0 64 53 31 c47 28 59 31 129 28 59 -2 83 -7 105 -23z"/>
</g>
</svg>
