<svg version="1.0" xmlns="http://www.w3.org/2000/svg"
 width="668px" style="transform:scale(1,1.001);" height="375.75px" viewBox="0 0 320.000000 180.000000"
 preserveAspectRatio="xMidYMid meet">
<g transform="translate(0.000000,180.000000) scale(0.100000,-0.100000)"
fill="#000000" stroke="none">
<path d="M0 905 l0 -895 550 0 c547 0 550 0 550 20 0 12 -9 34 -21 49 -19 27 -21 39
-17 172 4 142 4 145 41 222 20 42 41 77 46 77 5 0 14 13 21 29 9 24 9 33 -3
53 -20 31 -29 80 -21 112 5 20 22 35 64 56 32 16 67 42 79 58 27 38 66 167 81
262 6 41 23 100 37 132 37 83 30 122 -39 201 -94 108 -98 117 -77 190 14 53
72 88 156 95 61 5 63 4 97 -30 21 -21 39 -52 45 -79 14 -54 28 -82 91 -184 60
-96 68 -121 76 -250 5 -83 3 -115 -14 -185 -11 -47 -25 -120 -31 -164 -8 -66
-15 -84 -41 -115 -17 -20 -43 -61 -57 -91 -15 -30 -41 -76 -59 -102 -40 -57
-54 -88 -89 -207 -25 -87 -27 -101 -20 -207 l7 -114 874 0 874 0 0 895 0 895
-1600 0 -1600 0 0 -895z"/>
</g>
</svg>
