<svg version="1.0" xmlns="http://www.w3.org/2000/svg"
 width="668px" style="transform:scale(1,1.001);" height="375.75px" viewBox="0 0 320.000000 180.000000"
 preserveAspectRatio="xMidYMid meet">
<g transform="translate(0.000000,180.000000) scale(0.100000,-0.100000)"
fill="#000000" stroke="none">
<path d="M0 905 l0 -895 895 0 895 0 0 55 c0 55 11 89 50 154 23 37 68 163 81 226 4 22
14 69 23 105 8 36 17 134 19 218 l4 153 -59 72 c-32 40 -61 82 -64 94 -9 33
30 88 84 119 61 35 121 36 182 3 42 -22 46 -29 60 -85 18 -75 31 -92 79 -100
104 -20 211 -122 245 -236 10 -35 27 -89 37 -121 24 -73 24 -121 -1 -176 -11
-24 -20 -55 -20 -70 -1 -42 -35 -107 -88 -164 -99 -107 -102 -112 -102 -183
l0 -64 440 0 440 0 0 895 0 895 -1600 0 -1600 0 0 -895z"/>
<path d="M2055 98 c-38 -28 -45 -38 -45 -65 0 -22 4 -23 65 -23 58 0 65 2 65 19 0 21
-38 91 -48 91 -4 0 -20 -10 -37 -22z"/>
</g>
</svg>
