<svg version="1.0" xmlns="http://www.w3.org/2000/svg"
 width="668px" style="transform:scale(1,1.001);" height="375.75px" viewBox="0 0 320.000000 180.000000"
 preserveAspectRatio="xMidYMid meet">
<g transform="translate(0.000000,180.000000) scale(0.100000,-0.100000)"
fill="#000000" stroke="none">
<path d="M0 905 l0 -895 780 0 c765 0 780 0 780 19 0 11 -7 49 -15 86 -9 36 -22 103
-30 148 -8 46 -27 112 -43 147 -16 36 -37 108 -47 160 -9 52 -18 104 -21 116
-2 11 -15 37 -29 58 -45 67 -43 231 6 327 20 40 82 99 104 99 7 0 26 10 42 23
15 13 36 26 45 30 10 3 20 18 23 32 3 14 7 35 10 48 5 24 19 40 71 82 38 30
73 32 107 5 14 -11 32 -20 41 -20 8 0 23 -11 32 -25 16 -24 16 -48 -2 -162 -5
-34 -2 -47 18 -73 20 -27 23 -43 23 -118 0 -105 -47 -314 -78 -349 -23 -26
-24 -49 -9 -158 6 -50 8 -155 5 -277 l-6 -198 696 0 697 0 0 895 0 895 -1600
0 -1600 0 0 -895z"/>
<path d="M1667 285 c-4 -22 -7 -93 -7 -157 l0 -118 31 0 32 0 -7 48 c-34 231 -42 268
-49 227z"/>
</g>
</svg>
