<svg version="1.0" xmlns="http://www.w3.org/2000/svg"
 width="668px" style="transform:scale(1,1.001);" height="375.75px" viewBox="0 0 320.000000 180.000000"
 preserveAspectRatio="xMidYMid meet">
<g transform="translate(0.000000,180.000000) scale(0.100000,-0.100000)"
fill="#000000" stroke="none">
<path d="M0 905 l0 -895 558 0 557 0 -1 267 c-2 201 -6 294 -19 371 -12 72 -15 119 -9
160 4 31 6 66 5 77 -2 21 -57 75 -77 75 -17 0 -41 -32 -48 -66 -5 -24 -2 -34
15 -50 30 -27 50 -77 43 -111 -9 -47 -79 -67 -216 -64 -32 1 -40 6 -54 33 -30
57 -7 135 86 293 16 28 36 73 45 101 8 28 23 62 33 75 47 63 52 110 22 199
l-20 60 21 42 c67 140 202 116 236 -41 16 -77 26 -91 64 -91 63 0 142 -72 196
-179 38 -75 38 -77 39 -201 1 -124 13 -277 34 -420 7 -49 9 -155 4 -302 l-7
-228 847 0 846 0 0 895 0 895 -1600 0 -1600 0 0 -895z"/>
<path d="M1280 594 c-7 -8 -17 -58 -21 -112 -5 -53 -13 -126 -18 -162 -5 -36 -12 -120
-15 -188 l-6 -122 96 0 95 0 -5 53 c-3 28 -8 102 -11 162 -6 133 -31 288 -54
333 -20 43 -45 57 -61 36z"/>
</g>
</svg>
