<svg version="1.0" xmlns="http://www.w3.org/2000/svg"
 width="668px" style="transform:scale(1,1.001);" height="375.75px" viewBox="0 0 320.000000 180.000000"
 preserveAspectRatio="xMidYMid meet">
<g transform="translate(0.000000,180.000000) scale(0.100000,-0.100000)"
fill="#000000" stroke="none">
<path d="M0 905 l0 -895 520 0 520 0 0 71 c0 102 49 278 121 436 15 34 35 84 43 110 16
50 42 127 53 153 65 159 85 258 62 301 -44 83 -21 212 57 315 27 37 123 94
158 94 32 0 48 22 57 82 5 28 12 55 16 59 12 12 143 30 167 23 11 -3 31 -16
44 -27 31 -28 29 -96 -3 -162 -25 -51 -33 -113 -16 -130 15 -16 41 -129 41
-177 0 -62 -35 -181 -57 -193 -10 -5 -35 -27 -56 -47 -42 -40 -43 -62 -5 -125
10 -17 25 -64 33 -105 8 -40 22 -102 30 -138 29 -122 73 -381 82 -478 l5 -62
664 0 664 0 0 895 0 895 -1600 0 -1600 0 0 -895z"/>
<path d="M1418 653 c-25 -32 -55 -80 -68 -108 -12 -27 -30 -59 -40 -70 -9 -11 -27 -49
-40 -85 -13 -36 -52 -125 -87 -199 -34 -73 -63 -144 -63 -157 l0 -24 330 0
c280 0 330 2 330 14 0 8 -17 68 -39 133 -21 65 -44 143 -51 173 -6 30 -36 107
-66 170 -96 204 -96 205 -130 208 -26 3 -36 -4 -76 -55z"/>
</g>
</svg>
