<svg version="1.0" xmlns="http://www.w3.org/2000/svg"
 width="668px" style="transform:scale(1,1.001);" height="375.75px" viewBox="0 0 320.000000 180.000000"
 preserveAspectRatio="xMidYMid meet">
<g transform="translate(0.000000,180.000000) scale(0.100000,-0.100000)"
fill="#000000" stroke="none">
<path d="M0 905 l0 -895 925 0 925 0 0 21 c0 11 -5 40 -11 64 -8 32 -8 60 0 102 22 120
62 245 106 330 65 126 84 210 85 366 0 71 -5 137 -10 147 -6 11 -27 24 -48 31
-49 14 -108 67 -127 112 -14 34 -14 37 6 56 12 11 36 23 53 26 58 12 66 16 66
35 0 10 -10 35 -22 55 -14 24 -21 53 -20 82 0 40 6 51 43 89 l43 44 83 0 c83
0 83 0 103 -32 11 -18 22 -53 25 -78 12 -91 17 -99 88 -172 118 -120 149 -199
162 -399 8 -128 -4 -175 -51 -206 -17 -10 -25 -28 -29 -61 -11 -89 -19 -114
-91 -277 -55 -125 -60 -155 -48 -274 l7 -61 468 0 469 0 0 895 0 895 -1600 0
-1600 0 0 -895z"/>
</g>
</svg>
