<svg version="1.0" xmlns="http://www.w3.org/2000/svg"
 width="668px" style="transform:scale(1,1.001);" height="375.75px" viewBox="0 0 320.000000 180.000000"
 preserveAspectRatio="xMidYMid meet">
<g transform="translate(0.000000,180.000000) scale(0.100000,-0.100000)"
fill="#000000" stroke="none">
<path d="M0 905 l0 -895 716 0 716 0 -5 33 c-3 17 -10 52 -16 77 -15 67 -13 294 4 370
16 71 20 150 8 150 -18 -1 -33 -18 -59 -72 -16 -31 -50 -88 -76 -126 -26 -39
-50 -83 -54 -99 -17 -66 -43 -111 -75 -127 -43 -21 -48 -21 -60 12 -19 49 7
171 53 249 22 37 56 109 75 158 20 50 39 95 43 100 6 9 21 57 65 210 11 39 32
79 61 114 24 29 44 61 44 71 0 9 -9 43 -21 76 -25 71 -21 121 14 173 44 66
111 65 175 -1 29 -31 34 -43 39 -109 6 -69 8 -76 42 -106 20 -18 46 -32 59
-33 12 0 38 -15 57 -32 49 -46 74 -124 81 -256 6 -101 5 -109 -20 -154 -24
-46 -25 -54 -26 -235 -1 -179 -11 -340 -26 -411 l-6 -32 696 0 696 0 0 895 0
895 -1600 0 -1600 0 0 -895z"/>
<path d="M1599 273 c-11 -29 -15 -66 -24 -186 l-5 -77 46 0 47 0 -7 42 c-3 24 -8 72
-11 108 -7 85 -14 120 -26 120 -6 0 -7 5 -4 10 3 6 4 10 0 10 -3 0 -10 -12
-16 -27z"/>
</g>
</svg>
