<svg version="1.0" xmlns="http://www.w3.org/2000/svg"
 width="668px" style="transform:scale(1,1.001);" height="375.75px" viewBox="0 0 320.000000 180.000000"
 preserveAspectRatio="xMidYMid meet">
<g transform="translate(0.000000,180.000000) scale(0.100000,-0.100000)"
fill="#000000" stroke="none">
<path d="M0 905 l0 -895 530 0 530 0 0 58 c0 47 6 65 30 101 16 24 32 60 36 80 3 20 20
61 36 91 21 37 33 77 40 129 10 83 16 100 29 80 6 -9 9 2 9 31 0 35 -6 52 -29
79 -20 23 -32 51 -36 83 -4 26 -18 65 -32 85 -15 21 -34 64 -44 95 -9 32 -28
71 -42 88 -19 23 -27 46 -32 97 -9 100 -14 119 -40 158 -18 25 -27 59 -35 122
-9 69 -17 94 -41 128 -29 40 -30 44 -30 163 l-1 122 -439 0 -439 0 0 -895z"/>
<path d="M1200 1771 c0 -40 25 -107 50 -133 12 -13 28 -38 35 -55 8 -18 27 -50 43 -70
16 -21 33 -51 36 -67 4 -16 22 -47 40 -68 19 -21 36 -51 39 -66 8 -39 94 -123
137 -133 50 -12 258 -11 281 1 27 15 25 81 -6 205 -40 162 -32 312 18 354 10
7 17 24 17 37 l0 24 -345 0 -345 0 0 -29z"/>
<path d="M2720 1780 c0 -23 22 -62 57 -101 13 -14 32 -53 43 -85 10 -32 25 -77 34 -99
22 -58 20 -91 -11 -175 -26 -68 -37 -84 -135 -181 -92 -92 -109 -115 -122
-160 -32 -105 -10 -274 42 -333 16 -19 33 -48 36 -63 4 -16 22 -44 40 -61 20
-18 36 -46 40 -65 3 -19 19 -45 35 -59 17 -16 33 -44 40 -74 7 -27 24 -64 38
-83 33 -43 53 -110 53 -178 l0 -53 145 0 145 0 0 895 0 895 -240 0 c-235 0
-240 0 -240 -20z"/>
</g>
</svg>
