<svg version="1.0" xmlns="http://www.w3.org/2000/svg"
 width="668px" style="transform:scale(1,1.001);" height="375.75px" viewBox="0 0 320.000000 180.000000"
 preserveAspectRatio="xMidYMid meet">
<g transform="translate(0.000000,180.000000) scale(0.100000,-0.100000)"
fill="#000000" stroke="none">
<path d="M0 905 l0 -895 1600 0 1600 0 0 895 0 895 -1600 0 -1600 0 0 -895z m1664 712
c78 -29 147 -83 187 -146 35 -55 39 -133 10 -197 -10 -23 -22 -56 -26 -74 -4
-18 -18 -53 -31 -78 -39 -74 -29 -133 33 -188 20 -18 52 -35 71 -39 20 -4 54
-15 76 -25 23 -10 55 -21 71 -25 71 -16 170 -107 181 -166 4 -19 15 -50 25
-70 10 -20 23 -83 30 -142 15 -129 6 -152 -63 -161 -36 -5 -551 -2 -1145 7
-152 2 -158 6 -157 106 0 38 8 88 16 112 9 24 19 56 22 71 10 45 71 127 122
163 27 19 54 35 60 35 6 0 22 8 35 18 13 11 46 26 73 35 27 9 64 29 84 43 l35
27 -6 74 c-4 59 -10 79 -31 104 -14 17 -26 37 -26 44 0 7 -7 20 -15 29 -9 8
-22 30 -30 48 -9 18 -24 45 -36 59 -28 35 -39 92 -27 137 6 27 31 58 86 111
42 40 88 78 102 83 84 35 98 38 151 33 31 -2 86 -15 123 -28z"/>
</g>
</svg>
