<svg version="1.0" xmlns="http://www.w3.org/2000/svg"
 width="668px" style="transform:scale(1,1.001);" height="375.75px" viewBox="0 0 320.000000 180.000000"
 preserveAspectRatio="xMidYMid meet">
<g transform="translate(0.000000,180.000000) scale(0.100000,-0.100000)"
fill="#000000" stroke="none">
<path d="M0 905 l0 -895 1600 0 1600 0 0 895 0 895 -1600 0 -1600 0 0 -895z m1851 805
c85 -26 120 -68 122 -145 1 -41 -6 -67 -28 -110 -38 -75 -30 -100 43 -136 133
-65 238 -216 249 -361 4 -47 1 -65 -18 -95 -33 -55 -70 -93 -106 -108 -18 -8
-33 -19 -33 -24 0 -6 -13 -17 -29 -26 -19 -9 -35 -30 -47 -60 -15 -40 -16 -55
-5 -130 13 -94 5 -146 -28 -181 -18 -20 -29 -21 -215 -19 -140 1 -200 5 -209
14 -7 7 -14 55 -18 121 -5 97 -9 116 -37 169 -34 65 -51 164 -53 301 -1 102
-16 140 -66 166 -41 22 -72 31 -132 39 -18 2 -41 11 -51 20 -23 21 -34 89 -19
118 15 28 148 155 172 163 9 3 17 9 17 14 0 23 124 59 202 60 45 0 73 32 83
93 13 75 47 112 120 130 11 3 21 5 21 6 1 0 30 -8 65 -19z"/>
</g>
</svg>
