<svg version="1.0" xmlns="http://www.w3.org/2000/svg"
 width="668px" style="transform:scale(1,1.001);" height="375.75px" viewBox="0 0 320.000000 180.000000"
 preserveAspectRatio="xMidYMid meet">
<g transform="translate(0.000000,180.000000) scale(0.100000,-0.100000)"
fill="#000000" stroke="none">
<path d="M0 905 l0 -895 775 0 c766 0 775 0 775 20 0 34 -43 152 -57 157 -22 9 -28 -5
-28 -60 0 -48 -2 -52 -25 -55 -60 -9 -160 47 -160 90 0 23 37 98 48 98 10 0
44 26 96 72 40 36 41 37 39 100 -1 51 -12 87 -53 188 -29 69 -55 143 -60 165
-4 22 -19 64 -35 93 -38 75 -41 178 -6 239 23 40 24 46 13 94 -17 72 -15 85
16 119 30 34 79 47 137 36 39 -8 53 -29 64 -100 5 -34 12 -41 64 -69 38 -19
62 -39 69 -56 25 -66 48 -240 48 -363 0 -129 -19 -238 -80 -467 -19 -70 -19
-80 -5 -174 8 -55 15 -106 15 -114 0 -11 139 -13 775 -13 l775 0 0 895 0 895
-1600 0 -1600 0 0 -895z"/>
</g>
</svg>
