<svg version="1.0" xmlns="http://www.w3.org/2000/svg"
 width="668px" style="transform:scale(1,1.001);" height="375.75px" viewBox="0 0 320.000000 180.000000"
 preserveAspectRatio="xMidYMid meet">
<g transform="translate(0.000000,180.000000) scale(0.100000,-0.100000)"
fill="#000000" stroke="none">
<path d="M0 905 l0 -895 370 0 370 0 0 28 c0 15 -6 34 -12 41 -18 17 -16 198 2 231 44
82 139 180 239 248 91 61 221 183 221 207 0 8 15 32 34 52 18 21 40 54 49 74
10 25 23 38 43 43 15 4 38 16 51 26 13 10 48 26 76 36 29 9 62 22 74 30 16 10
39 11 100 4 128 -14 143 10 86 139 -12 29 -23 58 -23 63 0 5 -10 22 -21 38
-15 20 -23 48 -26 97 -4 59 -2 72 19 103 12 19 30 48 37 63 8 15 48 61 89 102
60 60 84 77 138 96 54 19 64 26 64 46 l0 23 -990 0 -990 0 0 -895z"/>
<path d="M2220 1776 c0 -20 10 -26 84 -50 46 -14 91 -35 101 -46 9 -10 31 -22 47 -25
30 -7 108 -78 108 -98 0 -6 15 -26 32 -44 l33 -34 0 -149 0 -149 -32 -33 c-18
-18 -39 -52 -47 -76 -9 -24 -25 -55 -36 -69 -27 -34 -26 -88 4 -165 13 -35 31
-88 40 -119 11 -38 25 -62 41 -73 33 -21 205 -195 205 -206 0 -5 14 -25 30
-43 17 -19 41 -65 56 -102 14 -38 34 -79 45 -93 26 -34 26 -103 -1 -127 -11
-10 -20 -29 -20 -42 l0 -23 145 0 145 0 0 895 0 895 -490 0 -490 0 0 -24z"/>
</g>
</svg>
