<svg version="1.0" xmlns="http://www.w3.org/2000/svg"
 width="668px" style="transform:scale(1,1.001);" height="375.75px" viewBox="0 0 320.000000 180.000000"
 preserveAspectRatio="xMidYMid meet">
<g transform="translate(0.000000,180.000000) scale(0.100000,-0.100000)"
fill="#000000" stroke="none">
<path d="M0 905 l0 -895 770 0 770 0 0 23 c0 28 -54 168 -66 169 -5 1 -16 -10 -24 -25
-12 -22 -13 -32 -2 -59 16 -44 4 -50 -88 -42 -89 7 -104 20 -95 79 8 50 27 81
68 105 18 10 35 22 39 27 4 4 21 23 38 41 16 18 33 44 36 58 12 48 -5 132 -41
196 -34 63 -40 90 -62 298 -4 40 -13 65 -35 93 -29 37 -30 43 -26 106 3 37 11
78 19 91 9 16 14 56 14 112 0 109 12 125 99 134 51 4 62 2 82 -17 14 -13 28
-43 34 -75 11 -54 44 -94 77 -94 7 0 32 -19 54 -42 40 -42 41 -44 34 -93 -5
-27 -7 -115 -6 -195 3 -192 -15 -417 -40 -515 -31 -116 -33 -172 -13 -262 10
-43 17 -86 15 -95 -2 -17 40 -18 773 -18 l776 0 0 895 0 895 -1600 0 -1600 0
0 -895z"/>
</g>
</svg>
