<svg version="1.0" xmlns="http://www.w3.org/2000/svg"
 width="668px" style="transform:scale(1,1.001);" height="375.75px" viewBox="0 0 320.000000 180.000000"
 preserveAspectRatio="xMidYMid meet">
<g transform="translate(0.000000,180.000000) scale(0.100000,-0.100000)"
fill="#000000" stroke="none">
<path d="M0 905 l0 -895 695 0 695 0 0 34 c0 19 9 74 19 123 18 82 38 198 48 285 4 28
-6 60 -43 145 -27 59 -48 114 -46 120 2 7 -1 13 -6 13 -14 0 -36 -60 -34 -89
4 -42 -19 -114 -46 -143 -20 -22 -31 -26 -56 -21 -17 3 -35 11 -41 18 -5 6
-23 18 -39 26 -32 15 -51 57 -42 93 3 13 26 50 52 82 53 69 99 154 126 239 12
36 32 71 49 87 32 29 36 59 14 98 -36 62 -3 154 59 165 82 16 136 -28 136
-110 0 -47 7 -60 38 -70 49 -15 91 -51 115 -100 24 -48 37 -110 58 -280 17
-144 30 -208 62 -317 39 -135 35 -150 -43 -181 l-55 -22 0 -60 c0 -58 -1 -60
-27 -63 -27 -3 -128 42 -128 57 0 5 -7 12 -16 15 -19 7 -53 -64 -54 -111 l0
-33 855 0 855 0 0 895 0 895 -1600 0 -1600 0 0 -895z"/>
<path d="M1592 385 c-22 -49 -12 -82 22 -69 20 8 29 39 22 70 -8 31 -30 31 -44 -1z"/>
</g>
</svg>
