<svg version="1.0" xmlns="http://www.w3.org/2000/svg"
 width="668px" style="transform:scale(1,1.001);" height="375.75px" viewBox="0 0 320.000000 180.000000"
 preserveAspectRatio="xMidYMid meet">
<g transform="translate(0.000000,180.000000) scale(0.100000,-0.100000)"
fill="#000000" stroke="none">
<path d="M0 905 l0 -895 330 0 c326 0 330 0 330 20 0 12 -11 31 -26 43 -19 17 -26 35
-31 77 -7 73 17 121 150 298 31 42 73 101 93 129 19 29 39 53 45 53 5 0 17 17
26 38 8 20 28 53 44 73 16 20 33 49 39 64 6 15 26 53 45 86 18 32 43 87 53
123 29 97 83 156 186 205 102 49 122 71 129 140 7 59 26 87 87 126 19 13 66
49 104 81 38 33 92 72 120 88 49 28 57 29 176 30 119 1 129 -1 203 -31 44 -18
92 -44 109 -58 16 -14 34 -25 38 -25 5 0 30 -19 54 -42 47 -45 78 -112 97
-213 6 -27 17 -82 26 -121 11 -50 13 -87 8 -120 -12 -75 -5 -352 11 -431 2
-11 53 -71 113 -132 85 -86 110 -118 115 -146 4 -20 14 -39 22 -42 29 -11 44
-60 44 -141 0 -71 -2 -81 -25 -102 -14 -13 -25 -34 -25 -47 l0 -23 255 0 255
0 0 895 0 895 -1600 0 -1600 0 0 -895z"/>
<path d="M1180 35 c0 -16 6 -25 15 -25 9 0 15 9 15 25 0 16 -6 25 -15 25 -9 0 -15 -9
-15 -25z"/>
</g>
</svg>
