<svg version="1.0" xmlns="http://www.w3.org/2000/svg"
 width="668px" style="transform:scale(1,1.001);" height="375.75px" viewBox="0 0 320.000000 180.000000"
 preserveAspectRatio="xMidYMid meet">
<g transform="translate(0.000000,180.000000) scale(0.100000,-0.100000)"
fill="#000000" stroke="none">
<path d="M0 905 l0 -895 1600 0 1600 0 0 895 0 895 -1600 0 -1600 0 0 -895z m1770 787
c14 -10 39 -24 55 -31 17 -6 42 -28 58 -48 25 -33 27 -43 27 -127 -1 -76 -5
-99 -25 -141 -15 -30 -25 -68 -25 -94 0 -42 4 -49 58 -98 31 -29 64 -53 73
-53 8 0 28 -13 44 -30 16 -16 34 -30 42 -30 13 0 83 -66 83 -79 0 -4 9 -16 19
-25 11 -10 23 -32 26 -50 4 -17 13 -51 21 -76 7 -25 18 -104 23 -177 5 -72 14
-140 20 -151 6 -12 11 -52 11 -91 0 -62 -3 -72 -23 -86 -20 -13 -92 -14 -576
-7 -531 7 -553 8 -567 26 -19 26 -18 139 1 213 8 31 15 74 15 95 0 33 31 120
88 248 22 50 69 102 126 140 21 14 53 37 71 53 18 15 37 27 42 27 16 0 80 74
86 99 3 14 0 36 -7 50 -26 53 -42 81 -70 128 -31 50 -43 117 -32 175 6 32 18
44 134 135 15 11 39 23 52 26 42 9 124 -3 150 -21z"/>
</g>
</svg>
