<svg version="1.0" xmlns="http://www.w3.org/2000/svg"
 width="668px" style="transform:scale(1,1.001);" height="375.75px" viewBox="0 0 320.000000 180.000000"
 preserveAspectRatio="xMidYMid meet">
<g transform="translate(0.000000,180.000000) scale(0.100000,-0.100000)"
fill="#000000" stroke="none">
<path d="M0 905 l0 -895 678 0 677 0 2 103 c2 94 0 107 -27 162 -48 101 -55 160 -37
305 9 69 23 150 32 180 22 75 14 108 -40 185 -37 51 -53 65 -73 66 -218 9
-238 4 -274 -61 -29 -52 -57 -67 -103 -56 -40 10 -56 46 -57 126 -1 87 8 95
105 105 37 3 87 13 110 21 23 8 71 19 107 24 54 7 70 14 92 39 l28 31 -30 47
c-20 31 -30 60 -30 85 0 34 4 41 48 68 35 22 59 30 94 30 42 0 50 -4 72 -33
21 -27 26 -45 26 -91 l0 -57 64 -29 c36 -17 87 -34 113 -39 48 -10 70 -16 108
-31 78 -30 75 -27 75 -73 0 -51 -13 -67 -55 -67 -35 0 -65 -26 -65 -56 0 -10
7 -37 15 -59 11 -31 14 -104 15 -330 1 -217 4 -305 15 -350 19 -78 19 -149 1
-164 -34 -28 -106 43 -106 104 0 15 -13 68 -29 118 -16 51 -34 118 -40 151
-18 101 -43 112 -67 30 -19 -65 -15 -103 20 -234 31 -114 32 -149 6 -183 -11
-14 -20 -35 -20 -46 l0 -21 875 0 875 0 0 895 0 895 -1600 0 -1600 0 0 -895z"/>
</g>
</svg>
