<svg version="1.0" xmlns="http://www.w3.org/2000/svg"
 width="668px" style="transform:scale(1,1.001);" height="375.75px" viewBox="0 0 320.000000 180.000000"
 preserveAspectRatio="xMidYMid meet">
<g transform="translate(0.000000,180.000000) scale(0.100000,-0.100000)"
fill="#000000" stroke="none">
<path d="M0 905 l0 -895 1600 0 1600 0 0 895 0 895 -1600 0 -1600 0 0 -895z m1805 746
c100 -22 148 -49 222 -125 40 -43 76 -90 83 -111 14 -44 6 -100 -21 -133 -10
-14 -19 -32 -19 -42 0 -9 -13 -34 -30 -55 -16 -21 -30 -43 -30 -49 0 -7 -11
-27 -25 -46 -33 -44 -34 -106 -3 -146 34 -44 55 -60 148 -111 94 -52 185 -135
196 -179 4 -16 15 -38 25 -50 11 -11 26 -47 34 -79 9 -32 21 -65 27 -72 18
-22 14 -111 -5 -131 -27 -26 -362 -36 -920 -27 -406 6 -470 9 -484 23 -21 22
-13 129 15 175 11 19 23 48 27 65 3 17 13 36 21 43 9 7 24 29 34 48 29 58 73
91 207 155 28 14 54 30 58 35 3 6 25 16 48 22 23 6 55 22 72 36 33 28 74 97
75 128 0 21 -29 102 -66 180 -13 28 -24 59 -24 70 0 11 -10 38 -21 60 -54 100
-16 168 156 282 64 42 117 51 200 34z"/>
</g>
</svg>
