<svg version="1.0" xmlns="http://www.w3.org/2000/svg"
 width="668px" style="transform:scale(1,1.001);" height="375.75px" viewBox="0 0 320.000000 180.000000"
 preserveAspectRatio="xMidYMid meet">
<g transform="translate(0.000000,180.000000) scale(0.100000,-0.100000)"
fill="#000000" stroke="none">
<path d="M0 905 l0 -895 1600 0 1600 0 0 895 0 895 -1600 0 -1600 0 0 -895z m1748 778
c17 -12 42 -25 56 -29 14 -3 26 -10 26 -14 0 -5 12 -23 28 -41 25 -30 27 -40
26 -113 0 -57 -6 -91 -18 -115 -33 -62 -44 -113 -32 -147 13 -36 35 -56 161
-142 121 -84 181 -161 190 -246 4 -34 14 -81 21 -105 7 -25 16 -76 19 -115 4
-39 13 -105 22 -146 17 -88 9 -139 -26 -156 -35 -18 -1089 -7 -1118 12 -29 18
-39 88 -24 157 7 29 19 90 26 137 8 47 22 103 31 125 72 176 106 225 216 307
39 29 81 59 94 66 13 7 33 27 45 44 20 28 21 35 11 74 -6 24 -29 69 -49 101
-48 74 -73 129 -73 159 0 55 57 131 140 185 41 27 51 30 122 27 60 -2 83 -8
106 -25z"/>
</g>
</svg>
