<svg version="1.0" xmlns="http://www.w3.org/2000/svg"
 width="668px" style="transform:scale(1,1.001);" height="375.75px" viewBox="0 0 320.000000 180.000000"
 preserveAspectRatio="xMidYMid meet">
<g transform="translate(0.000000,180.000000) scale(0.100000,-0.100000)"
fill="#000000" stroke="none">
<path d="M0 905 l0 -895 520 0 520 0 0 44 c0 49 27 175 67 306 22 75 38 118 73 195 22
49 100 257 100 268 0 7 12 35 26 62 37 75 41 133 15 196 -23 52 -28 112 -16
171 13 60 66 152 112 196 40 37 50 42 93 42 41 0 52 4 69 26 12 15 21 38 21
53 0 14 4 32 8 39 15 23 71 32 126 20 71 -15 81 -21 94 -65 9 -31 8 -47 -4
-83 -9 -25 -19 -49 -24 -55 -22 -27 -21 -81 4 -142 37 -89 41 -129 21 -219
-17 -72 -22 -82 -71 -130 -30 -29 -54 -61 -54 -71 0 -11 11 -41 24 -66 14 -25
28 -63 32 -84 3 -21 17 -81 31 -133 13 -52 28 -124 34 -160 20 -137 41 -297
46 -352 l5 -58 664 0 664 0 0 895 0 895 -1600 0 -1600 0 0 -895z"/>
<path d="M1445 677 c-64 -69 -141 -208 -191 -347 -15 -41 -49 -121 -76 -178 -26 -57
-48 -112 -48 -123 0 -18 9 -19 325 -19 319 0 325 0 325 20 0 11 -4 28 -9 38
-15 28 -49 141 -71 237 -23 98 -41 157 -51 165 -4 3 -23 41 -43 85 -20 44 -41
87 -46 95 -6 8 -14 25 -20 38 -14 33 -58 29 -95 -11z"/>
</g>
</svg>
