<svg version="1.0" xmlns="http://www.w3.org/2000/svg"
 width="668px" style="transform:scale(1,1.001);" height="375.75px" viewBox="0 0 320.000000 180.000000"
 preserveAspectRatio="xMidYMid meet">
<g transform="translate(0.000000,180.000000) scale(0.100000,-0.100000)"
fill="#000000" stroke="none">
<path d="M0 905 l0 -895 435 0 435 0 0 49 c0 38 6 56 25 79 14 17 34 59 45 94 11 36 29
73 40 83 10 9 26 41 34 69 9 29 26 62 40 75 13 12 27 38 31 57 3 19 19 49 34
67 16 17 32 48 36 67 4 19 19 57 33 83 30 57 26 103 -12 148 -14 17 -26 36
-26 42 0 7 -13 29 -30 49 -16 20 -39 56 -49 81 -11 25 -24 48 -30 51 -6 4 -21
39 -33 79 -12 40 -30 83 -40 97 -14 19 -21 55 -28 141 -5 66 -20 152 -35 202
-14 48 -25 107 -25 132 l0 45 -440 0 -440 0 0 -895z"/>
<path d="M1300 1776 c0 -13 8 -41 18 -62 25 -53 102 -174 112 -174 4 0 17 -22 29 -49
24 -57 34 -66 50 -47 10 12 17 52 40 229 4 31 13 63 19 69 7 7 12 22 12 35 0
23 -1 23 -140 23 l-140 0 0 -24z"/>
<path d="M2600 1776 c0 -14 5 -28 11 -32 6 -3 24 -34 40 -68 50 -106 36 -192 -47 -290
-18 -21 -31 -42 -29 -47 3 -4 -8 -16 -25 -25 -16 -10 -30 -24 -30 -30 0 -6
-33 -43 -73 -83 -69 -67 -73 -73 -69 -108 3 -21 11 -47 18 -58 18 -26 18 -103
-1 -139 -26 -49 -19 -89 30 -171 24 -42 49 -95 55 -118 6 -23 27 -81 46 -128
19 -48 34 -94 34 -103 0 -9 11 -37 24 -63 92 -181 106 -216 106 -259 l0 -44
255 0 255 0 0 895 0 895 -300 0 -300 0 0 -24z"/>
</g>
</svg>
