<svg version="1.0" xmlns="http://www.w3.org/2000/svg"
 width="668px" style="transform:scale(1,1.001);" height="375.75px" viewBox="0 0 320.000000 180.000000"
 preserveAspectRatio="xMidYMid meet">
<g transform="translate(0.000000,180.000000) scale(0.100000,-0.100000)"
fill="#000000" stroke="none">
<path d="M0 905 l0 -895 551 0 551 0 -6 32 c-13 65 -26 693 -17 811 5 65 7 127 4 137
-7 27 -71 67 -127 80 -104 23 -220 202 -172 265 15 19 17 19 26 3 16 -26 91
-112 106 -121 32 -18 57 17 70 98 6 41 15 56 70 109 l63 61 -29 59 c-17 32
-30 72 -30 89 0 32 44 117 60 117 6 0 10 11 10 25 l0 25 -565 0 -565 0 0 -895z"/>
<path d="M1270 1781 c0 -10 11 -39 25 -62 18 -33 25 -59 25 -102 0 -70 11 -93 47 -101
16 -4 39 -15 53 -26 14 -11 35 -28 47 -37 13 -10 34 -50 48 -91 28 -80 45
-106 117 -185 68 -74 83 -155 36 -195 -12 -9 -20 -6 -40 16 -14 15 -30 37 -36
48 -16 31 -100 43 -119 18 -15 -20 -11 -128 13 -331 8 -67 14 -209 14 -316 0
-106 3 -242 7 -300 l6 -107 844 0 843 0 0 895 0 895 -965 0 c-941 0 -965 0
-965 -19z"/>
<path d="M1287 608 c-9 -12 -19 -57 -22 -98 -4 -41 -13 -111 -20 -155 -7 -44 -16 -140
-19 -212 l-6 -133 96 0 97 0 -8 43 c-4 23 -10 67 -14 97 -4 30 -13 82 -19 115
-7 33 -16 101 -21 150 -8 83 -33 200 -45 212 -2 3 -11 -6 -19 -19z"/>
</g>
</svg>
