<svg version="1.0" xmlns="http://www.w3.org/2000/svg"
 width="668px" style="transform:scale(1,1.001);" height="375.75px" viewBox="0 0 320.000000 180.000000"
 preserveAspectRatio="xMidYMid meet">
<g transform="translate(0.000000,180.000000) scale(0.100000,-0.100000)"
fill="#000000" stroke="none">
<path d="M0 905 l0 -895 1600 0 1600 0 0 895 0 895 -1600 0 -1600 0 0 -895z m1610 758
c32 -15 73 -47 98 -75 39 -45 42 -53 42 -107 0 -46 -7 -73 -34 -127 -18 -38
-36 -77 -40 -87 -9 -28 21 -77 57 -92 18 -7 40 -22 50 -33 10 -11 30 -22 45
-25 15 -3 40 -17 55 -31 16 -14 33 -26 40 -26 7 0 27 -15 44 -33 69 -69 83
-93 93 -164 5 -37 16 -93 25 -123 8 -30 15 -67 15 -83 0 -15 7 -44 16 -65 24
-55 43 -199 32 -239 -7 -26 -16 -34 -46 -42 -65 -18 -686 -25 -887 -10 -172
12 -181 14 -203 38 -24 26 -24 28 -17 156 4 72 14 148 22 170 8 22 19 60 25
85 22 95 77 166 247 324 29 27 57 61 63 75 10 27 2 111 -10 111 -13 0 -62 106
-82 178 -18 63 -19 76 -7 105 29 67 82 110 182 149 35 13 117 -1 175 -29z"/>
</g>
</svg>
