<svg version="1.0" xmlns="http://www.w3.org/2000/svg"
 width="668px" style="transform:scale(1,1.001);" height="375.75px" viewBox="0 0 320.000000 180.000000"
 preserveAspectRatio="xMidYMid meet">
<g transform="translate(0.000000,180.000000) scale(0.100000,-0.100000)"
fill="#000000" stroke="none">
<path d="M0 905 l0 -895 605 0 605 0 0 24 c0 13 -7 30 -16 37 -35 29 -54 97 -54 192 -1
159 -43 340 -89 378 -14 11 -51 18 -123 23 -70 5 -111 12 -128 24 -14 9 -34
21 -45 27 -28 15 -55 73 -55 120 0 22 9 72 20 110 11 38 20 83 20 100 0 16 9
52 19 80 11 27 25 64 31 81 6 17 25 46 42 64 16 18 45 55 62 80 67 97 105 121
142 89 11 -9 31 -19 45 -23 28 -6 45 13 99 109 13 22 44 55 70 73 41 28 54 32
112 32 55 0 71 -4 95 -24 15 -13 38 -26 50 -30 38 -12 90 -86 102 -147 15 -73
4 -124 -43 -184 l-36 -47 22 -30 c11 -17 37 -37 56 -45 57 -24 117 -89 152
-164 17 -38 35 -71 40 -74 5 -3 14 -25 21 -48 6 -23 17 -49 24 -57 7 -8 19
-44 27 -80 18 -79 6 -126 -38 -152 -16 -9 -35 -22 -41 -28 -20 -17 -16 -94 6
-132 32 -55 43 -142 28 -223 -8 -39 -19 -80 -25 -92 -7 -12 -12 -31 -12 -42
l0 -21 705 0 705 0 0 895 0 895 -1600 0 -1600 0 0 -895z"/>
<path d="M1073 1258 c-16 -18 -38 -46 -46 -63 -19 -34 -69 -167 -65 -171 2 -1 14 -5 28
-9 20 -5 35 1 63 23 20 16 33 33 29 37 -4 5 0 6 10 2 9 -3 24 1 35 9 10 9 11
12 3 8 -8 -4 -2 5 13 19 19 19 26 34 23 47 -3 11 -9 29 -12 41 -3 12 -7 32 -9
46 -2 22 -19 42 -36 43 -3 0 -19 -15 -36 -32z"/>
</g>
</svg>
