<svg version="1.0" xmlns="http://www.w3.org/2000/svg"
 width="668px" style="transform:scale(1,1.001);" height="375.75px" viewBox="0 0 320.000000 180.000000"
 preserveAspectRatio="xMidYMid meet">
<g transform="translate(0.000000,180.000000) scale(0.100000,-0.100000)"
fill="#000000" stroke="none">
<path d="M0 905 l0 -895 611 0 611 0 -7 38 c-4 20 -9 102 -12 182 l-4 146 36 108 c20
59 35 115 33 123 -2 10 -17 17 -38 19 -46 5 -71 35 -63 77 9 49 22 68 58 82
48 21 94 63 110 101 19 45 85 368 85 414 0 46 -17 97 -42 122 -10 10 -18 27
-18 38 0 10 -6 23 -13 27 -20 12 -49 92 -42 117 16 56 30 77 68 102 33 22 54
28 99 29 54 0 60 -2 98 -40 36 -36 41 -48 48 -105 7 -54 16 -78 56 -139 63
-96 76 -141 83 -281 4 -101 1 -132 -25 -261 -18 -85 -41 -167 -56 -197 -14
-28 -35 -75 -46 -104 -11 -30 -40 -75 -66 -103 -99 -107 -143 -255 -111 -375
8 -30 12 -70 10 -88 l-5 -32 871 0 871 0 0 895 0 895 -1600 0 -1600 0 0 -895z"/>
</g>
</svg>
