<svg version="1.0" xmlns="http://www.w3.org/2000/svg"
 width="668px" style="transform:scale(1,1.001);" height="375.75px" viewBox="0 0 320.000000 180.000000"
 preserveAspectRatio="xMidYMid meet">
<g transform="translate(0.000000,180.000000) scale(0.100000,-0.100000)"
fill="#000000" stroke="none">
<path d="M0 905 l0 -895 610 0 c699 0 639 -10 575 99 -19 32 -35 67 -35 76 0 10 -11 54
-26 99 -14 44 -32 102 -40 127 -7 26 -14 70 -14 99 0 60 -25 104 -65 114 -14
4 -49 0 -77 -9 -81 -24 -144 -20 -208 14 -44 24 -57 36 -63 63 -5 18 -17 60
-27 94 -11 34 -22 85 -26 115 -4 30 -13 68 -21 86 -8 21 -13 79 -14 170 0 76
-4 165 -8 198 -10 70 -3 86 47 120 47 32 122 35 151 6 33 -33 51 -77 57 -140
6 -52 3 -66 -18 -108 -36 -68 -40 -94 -24 -149 55 -191 77 -217 144 -171 21
15 43 27 49 27 6 0 20 10 30 23 24 29 78 69 130 96 71 36 83 78 47 174 -22 59
-18 151 12 240 22 65 31 80 57 93 18 9 42 25 54 36 16 15 35 20 82 19 34 0 71
-3 83 -7 39 -12 117 -80 150 -129 30 -45 33 -57 33 -125 0 -69 -3 -79 -34
-121 l-33 -47 42 -38 c23 -22 48 -42 55 -46 6 -4 25 -26 40 -48 l29 -41 6
-262 c5 -220 9 -267 23 -292 9 -16 17 -35 17 -40 0 -6 11 -27 25 -47 29 -43
33 -103 11 -166 -8 -22 -18 -77 -22 -121 l-7 -81 702 0 701 0 0 895 0 895
-1600 0 -1600 0 0 -895z"/>
</g>
</svg>
