<svg version="1.0" xmlns="http://www.w3.org/2000/svg"
 width="668px" style="transform:scale(1,1.001);" height="375.75px" viewBox="0 0 320.000000 180.000000"
 preserveAspectRatio="xMidYMid meet">
<g transform="translate(0.000000,180.000000) scale(0.100000,-0.100000)"
fill="#000000" stroke="none">
<path d="M0 905 l0 -895 675 0 675 0 0 23 c0 13 -4 27 -10 33 -6 6 -6 22 0 44 19 66 12
114 -21 160 -64 89 -94 160 -94 226 0 39 6 69 17 86 9 14 20 43 24 64 3 21 13
50 20 64 25 46 50 125 46 146 -2 12 -29 49 -60 83 -54 57 -60 61 -102 61 -70
-1 -114 -15 -158 -50 -43 -34 -54 -61 -38 -97 12 -30 -10 -83 -36 -83 -29 0
-69 31 -85 65 -8 16 -21 41 -29 55 -18 31 -14 125 7 146 9 8 41 19 73 24 32 5
68 16 80 23 11 8 37 17 57 21 20 3 45 16 55 27 11 12 35 29 54 39 19 10 43 27
54 39 18 19 18 23 1 90 -15 62 -15 72 -1 98 23 45 41 55 102 57 51 1 58 -2 79
-28 14 -18 26 -51 30 -80 10 -68 19 -83 57 -91 37 -8 110 -37 148 -60 14 -8
44 -23 68 -34 23 -11 42 -24 42 -28 0 -5 15 -17 33 -28 72 -42 122 -109 176
-238 24 -57 19 -103 -12 -111 -26 -7 -72 34 -92 81 -15 35 -117 143 -155 163
-39 21 -45 0 -25 -94 19 -90 18 -113 -10 -291 -18 -114 -14 -166 21 -275 14
-41 31 -95 39 -120 29 -88 -19 -155 -85 -120 -13 7 -20 26 -25 67 -4 36 -22
88 -46 138 -42 85 -79 187 -79 215 0 29 -24 42 -45 26 -15 -11 -20 -30 -23
-83 -4 -65 -1 -75 37 -150 48 -96 64 -177 45 -222 -7 -17 -18 -31 -24 -31 -5
0 -10 -11 -10 -25 l0 -25 875 0 875 0 0 895 0 895 -1600 0 -1600 0 0 -895z"/>
</g>
</svg>
