<svg version="1.0" xmlns="http://www.w3.org/2000/svg"
 width="668px" style="transform:scale(1,1.001);" height="375.75px" viewBox="0 0 320.000000 180.000000"
 preserveAspectRatio="xMidYMid meet">
<g transform="translate(0.000000,180.000000) scale(0.100000,-0.100000)"
fill="#000000" stroke="none">
<path d="M0 905 l0 -895 533 0 532 0 3 158 c1 86 7 184 12 217 6 33 15 94 21 135 6 41
19 98 30 127 16 45 17 61 8 110 -11 58 -32 123 -52 158 -6 11 -13 75 -15 141
-4 105 -1 132 18 195 34 112 97 218 175 293 19 19 26 31 18 33 -7 3 -13 17
-13 31 0 15 -9 41 -20 59 -10 18 -22 55 -26 83 l-7 50 -608 0 -609 0 0 -895z"/>
<path d="M1565 1763 c4 -21 8 -50 10 -64 5 -71 41 -109 101 -109 14 0 34 -11 47 -26 12
-14 31 -30 43 -34 40 -16 99 -208 123 -405 16 -129 13 -294 -6 -337 -17 -40
-26 -44 -66 -29 -24 10 -25 8 -42 -67 -10 -42 -21 -93 -26 -112 -5 -19 -12
-107 -14 -195 -3 -88 -7 -208 -9 -267 l-5 -108 740 0 739 0 0 895 0 895 -821
0 -822 0 8 -37z"/>
<path d="M1422 623 c-42 -45 -136 -226 -151 -293 -5 -25 -13 -67 -16 -95 -4 -27 -18
-82 -31 -122 -38 -112 -53 -103 176 -103 194 0 200 1 200 20 0 12 -6 31 -14
43 -8 12 -17 56 -21 97 -3 41 -10 100 -15 130 -5 30 -14 102 -20 159 -13 131
-25 178 -51 192 -18 9 -26 5 -57 -28z"/>
</g>
</svg>
