<svg version="1.0" xmlns="http://www.w3.org/2000/svg"
 width="668px" style="transform:scale(1,1.001);" height="375.75px" viewBox="0 0 320.000000 180.000000"
 preserveAspectRatio="xMidYMid meet">
<g transform="translate(0.000000,180.000000) scale(0.100000,-0.100000)"
fill="#000000" stroke="none">
<path d="M0 905 l0 -895 1600 0 1600 0 0 895 0 895 -1600 0 -1600 0 0 -895z m1639 739
c82 -28 132 -66 158 -122 21 -44 13 -110 -26 -207 -17 -42 -31 -84 -31 -94 0
-28 52 -88 93 -107 20 -9 37 -21 37 -26 0 -5 15 -15 33 -23 18 -7 61 -40 97
-73 75 -68 115 -140 125 -222 4 -30 13 -77 20 -105 7 -27 19 -103 26 -167 10
-94 10 -122 -1 -147 -7 -17 -18 -34 -24 -38 -6 -4 -248 -9 -538 -10 -589 -4
-578 -5 -597 61 -10 40 0 184 19 261 51 206 107 298 230 380 19 13 55 41 80
64 24 23 52 43 61 46 33 11 33 61 1 114 -50 81 -102 202 -102 238 0 64 51 126
143 174 66 35 102 35 196 3z"/>
</g>
</svg>
