<svg version="1.0" xmlns="http://www.w3.org/2000/svg"
 width="668px" style="transform:scale(1,1.001);" height="375.75px" viewBox="0 0 320.000000 180.000000"
 preserveAspectRatio="xMidYMid meet">
<g transform="translate(0.000000,180.000000) scale(0.100000,-0.100000)"
fill="#000000" stroke="none">
<path d="M0 905 l0 -895 1600 0 1600 0 0 895 0 895 -1600 0 -1600 0 0 -895z m1665 756
c22 -11 44 -21 50 -21 19 0 82 -74 94 -110 15 -45 -3 -162 -32 -203 -11 -17
-20 -47 -21 -77 -1 -55 24 -92 81 -116 17 -8 34 -18 38 -24 3 -6 23 -19 43
-29 55 -29 158 -126 172 -163 7 -18 21 -54 31 -80 10 -26 19 -65 19 -88 0 -22
9 -78 19 -123 11 -45 25 -124 31 -175 10 -81 10 -96 -4 -117 -9 -14 -26 -27
-39 -29 -38 -8 -887 -13 -996 -6 -133 8 -131 5 -131 167 0 128 19 226 61 319
11 23 19 46 19 52 0 25 119 159 170 193 44 29 133 113 151 142 17 28 16 30
-17 89 -106 188 -117 259 -48 330 22 21 64 52 94 69 47 25 64 28 115 25 36 -2
76 -12 100 -25z"/>
</g>
</svg>
