<svg version="1.0" xmlns="http://www.w3.org/2000/svg"
 width="668px" style="transform:scale(1,1.001);" height="375.75px" viewBox="0 0 320.000000 180.000000"
 preserveAspectRatio="xMidYMid meet">
<g transform="translate(0.000000,180.000000) scale(0.100000,-0.100000)"
fill="#000000" stroke="none">
<path d="M0 905 l0 -895 1600 0 1600 0 0 895 0 895 -1600 0 -1600 0 0 -895z m1786 806
c5 -6 33 -23 63 -39 32 -17 67 -46 84 -70 27 -37 30 -49 29 -107 -2 -50 -10
-80 -37 -138 -19 -41 -35 -85 -35 -100 0 -28 36 -97 51 -97 4 0 24 -13 42 -30
19 -17 39 -30 45 -30 6 0 17 -9 24 -19 8 -11 26 -25 40 -32 15 -6 49 -39 76
-73 63 -79 88 -157 96 -296 4 -58 13 -127 21 -154 8 -27 15 -80 15 -118 0 -60
-3 -72 -25 -93 l-24 -25 -233 6 c-128 4 -369 7 -535 8 -289 1 -303 2 -330 22
-34 25 -40 67 -25 164 6 36 15 92 20 125 14 83 36 145 90 252 35 70 59 104 98
138 29 25 60 45 68 45 9 0 23 11 32 25 9 14 26 28 38 31 12 3 40 23 62 46 35
36 39 46 38 89 0 29 -7 56 -16 66 -9 10 -30 49 -48 87 -24 52 -32 84 -33 127
0 51 3 61 38 103 20 25 43 46 49 46 7 0 27 11 46 25 28 21 45 25 100 25 36 0
70 -4 76 -9z"/>
</g>
</svg>
