<svg version="1.0" xmlns="http://www.w3.org/2000/svg"
 width="668px" style="transform:scale(1,1.001);" height="375.75px" viewBox="0 0 320.000000 180.000000"
 preserveAspectRatio="xMidYMid meet">
<g transform="translate(0.000000,180.000000) scale(0.100000,-0.100000)"
fill="#000000" stroke="none">
<path d="M0 905 l0 -895 1600 0 1600 0 0 895 0 895 -645 0 -645 0 0 -23 c0 -13 8 -31
18 -41 38 -34 44 -86 22 -180 -12 -48 -18 -92 -14 -99 24 -39 61 -77 76 -77
10 0 32 -13 50 -29 18 -15 42 -33 54 -39 26 -14 88 -140 103 -210 6 -29 11
-85 11 -124 0 -79 -20 -124 -66 -149 -19 -9 -40 -41 -68 -99 l-41 -85 -5 -148
-5 -149 -30 -25 c-26 -21 -37 -23 -80 -18 -130 15 -257 17 -300 5 -36 -10 -51
-10 -75 0 -44 18 -50 37 -50 144 0 90 -2 99 -35 159 -19 35 -35 75 -35 88 -1
38 -35 99 -85 154 -57 61 -77 105 -78 170 -1 59 19 101 72 154 20 20 52 60 71
89 18 29 37 52 41 52 4 0 20 11 36 24 16 13 48 29 72 36 54 14 109 49 117 74
4 12 -8 38 -35 78 -31 45 -41 69 -41 99 0 42 18 87 44 108 9 8 16 24 16 37 l0
24 -835 0 -835 0 0 -895z m1743 -756 c89 -18 73 -30 -58 -44 -45 -5 -65 -3
-80 8 -16 13 -17 17 -6 31 16 19 65 21 144 5z"/>
</g>
</svg>
