<svg version="1.0" xmlns="http://www.w3.org/2000/svg"
 width="668px" style="transform:scale(1,1.001);" height="375.75px" viewBox="0 0 320.000000 180.000000"
 preserveAspectRatio="xMidYMid meet">
<g transform="translate(0.000000,180.000000) scale(0.100000,-0.100000)"
fill="#000000" stroke="none">
<path d="M0 905 l0 -895 540 0 540 0 0 118 c0 64 6 169 14 232 8 63 20 187 25 275 6 88
18 201 26 250 12 64 15 116 10 181 -7 100 -14 118 -41 112 -29 -5 -47 -55 -54
-143 -6 -83 -18 -118 -48 -134 -22 -12 -52 4 -52 26 0 9 -8 25 -17 36 -22 24
-23 98 -2 147 52 125 151 298 190 330 3 3 11 14 17 26 6 11 29 26 51 32 51 16
91 63 91 108 0 45 23 100 48 113 12 6 47 11 79 11 54 0 62 -3 89 -32 69 -74
97 -160 69 -212 -20 -38 -19 -64 5 -104 12 -19 25 -57 31 -85 5 -29 21 -75 36
-104 19 -39 24 -61 20 -88 -8 -48 -18 -60 -84 -90 -30 -14 -56 -32 -59 -40 -3
-7 6 -60 19 -117 14 -56 30 -139 37 -183 6 -44 22 -141 35 -215 35 -202 55
-349 55 -402 l0 -48 765 0 765 0 0 895 0 895 -1600 0 -1600 0 0 -895z"/>
<path d="M1316 688 c-22 -34 -66 -199 -87 -323 -26 -154 -49 -306 -49 -332 l0 -23 200
0 c153 0 200 3 200 13 0 37 -84 359 -125 477 -70 203 -102 246 -139 188z"/>
</g>
</svg>
