<svg version="1.0" xmlns="http://www.w3.org/2000/svg"
 width="668px" style="transform:scale(1,1.001);" height="375.75px" viewBox="0 0 320.000000 180.000000"
 preserveAspectRatio="xMidYMid meet">
<g transform="translate(0.000000,180.000000) scale(0.100000,-0.100000)"
fill="#000000" stroke="none">
<path d="M0 905 l0 -895 300 0 c288 0 300 1 300 19 0 10 -16 35 -35 54 -49 49 -47 79
16 182 28 47 56 88 63 92 7 5 25 26 39 48 14 22 53 69 86 105 33 35 65 76 71
91 6 14 23 32 36 40 14 7 31 27 39 44 7 16 26 45 43 64 17 18 34 47 37 63 4
16 20 44 36 63 16 18 39 55 51 81 11 27 31 63 43 79 13 17 28 46 34 66 9 29
23 42 78 73 37 20 77 39 90 42 43 11 92 79 138 191 33 79 137 140 290 169 92
17 98 17 168 -1 116 -29 293 -134 330 -196 26 -42 39 -181 25 -277 -9 -64 -18
-94 -45 -134 -29 -47 -33 -60 -33 -123 0 -38 5 -86 10 -105 15 -52 83 -125
143 -154 57 -27 229 -195 242 -237 4 -13 20 -35 35 -50 18 -19 29 -43 34 -75
10 -78 7 -131 -9 -144 -8 -7 -15 -25 -15 -41 l0 -29 280 0 280 0 0 895 0 895
-1600 0 -1600 0 0 -895z"/>
</g>
</svg>
