<svg version="1.0" xmlns="http://www.w3.org/2000/svg"
 width="668px" style="transform:scale(1,1.001);" height="375.75px" viewBox="0 0 320.000000 180.000000"
 preserveAspectRatio="xMidYMid meet">
<g transform="translate(0.000000,180.000000) scale(0.100000,-0.100000)"
fill="#000000" stroke="none">
<path d="M0 905 l0 -895 715 0 715 0 0 23 c0 13 -10 59 -22 103 -18 68 -21 107 -22 275
-1 135 3 200 11 210 25 31 28 159 2 143 -22 -13 -88 -127 -109 -186 -12 -34
-27 -70 -35 -78 -7 -8 -19 -32 -26 -53 -9 -27 -21 -39 -39 -44 -14 -3 -40 -14
-57 -25 l-33 -20 -10 26 c-5 14 -9 63 -9 108 1 93 25 162 64 180 29 13 120
151 149 226 13 33 27 90 30 128 9 80 32 133 83 180 28 27 34 38 28 56 -41 131
-43 154 -15 208 l20 40 75 0 75 0 20 -39 c11 -22 22 -69 25 -106 7 -87 17
-103 64 -111 64 -10 117 -73 147 -175 36 -120 35 -180 -3 -254 l-30 -60 -7
-245 c-8 -271 -16 -341 -52 -416 -13 -28 -24 -61 -24 -72 l0 -22 735 0 735 0
0 895 0 895 -1600 0 -1600 0 0 -895z"/>
<path d="M1565 393 c-20 -37 -23 -100 -15 -310 l3 -73 32 0 31 0 3 183 c2 229 -11 280
-54 200z"/>
</g>
</svg>
