<svg version="1.0" xmlns="http://www.w3.org/2000/svg"
 width="668px" style="transform:scale(1,1.001);" height="375.75px" viewBox="0 0 320.000000 180.000000"
 preserveAspectRatio="xMidYMid meet">
<g transform="translate(0.000000,180.000000) scale(0.100000,-0.100000)"
fill="#000000" stroke="none">
<path d="M0 905 l0 -895 660 0 660 0 0 45 c0 25 12 84 26 132 14 49 26 113 27 143 0 30
4 120 9 200 10 162 2 202 -47 234 -50 33 -56 69 -54 289 3 230 7 221 -92 232
-66 8 -79 21 -79 78 0 21 7 41 19 51 28 26 234 69 292 62 56 -8 64 0 72 74 8
70 30 90 97 90 69 0 99 -14 115 -55 20 -47 19 -90 -5 -159 l-21 -58 29 -51
c16 -29 32 -63 36 -77 9 -33 26 -223 33 -375 5 -104 3 -126 -13 -160 -13 -27
-27 -41 -42 -43 -42 -6 -52 14 -53 102 -1 89 -19 182 -34 180 -32 -4 -43 -90
-25 -197 6 -37 6 -77 0 -105 -5 -26 -16 -90 -25 -142 -19 -110 -53 -208 -103
-299 -33 -60 -46 -98 -59 -164 l-5 -27 891 0 891 0 0 895 0 895 -1600 0 -1600
0 0 -895z"/>
</g>
</svg>
