<svg version="1.0" xmlns="http://www.w3.org/2000/svg"
 width="668px" style="transform:scale(1,1.001);" height="375.75px" viewBox="0 0 320.000000 180.000000"
 preserveAspectRatio="xMidYMid meet">
<g transform="translate(0.000000,180.000000) scale(0.100000,-0.100000)"
fill="#000000" stroke="none">
<path d="M0 905 l0 -895 1600 0 1600 0 0 895 0 895 -1600 0 -1600 0 0 -895z m1310 716
c19 -10 51 -23 71 -30 53 -17 146 -112 155 -157 11 -57 -2 -180 -24 -227 -25
-53 -35 -108 -26 -152 5 -27 16 -41 55 -66 28 -17 76 -37 107 -45 31 -7 75
-19 97 -28 22 -8 48 -15 58 -16 55 -1 219 -145 236 -208 6 -19 17 -42 25 -51
9 -9 22 -46 29 -82 8 -35 21 -76 31 -91 23 -36 25 -122 2 -147 -16 -18 -47
-19 -689 -25 -370 -3 -692 -9 -717 -12 -75 -9 -85 6 -83 116 2 72 6 98 22 123
11 18 27 47 35 65 31 68 266 272 313 272 5 0 19 14 32 31 21 29 22 32 8 74 -9
24 -40 73 -71 109 -31 37 -56 70 -56 74 0 4 -24 32 -54 62 -46 45 -56 62 -61
100 -8 59 2 82 70 159 71 81 108 106 209 141 98 34 177 38 226 11z"/>
</g>
</svg>
