<svg version="1.0" xmlns="http://www.w3.org/2000/svg"
 width="668px" style="transform:scale(1,1.001);" height="375.75px" viewBox="0 0 320.000000 180.000000"
 preserveAspectRatio="xMidYMid meet">
<g transform="translate(0.000000,180.000000) scale(0.100000,-0.100000)"
fill="#000000" stroke="none">
<path d="M0 905 l0 -895 1600 0 1600 0 0 895 0 895 -1600 0 -1600 0 0 -895z m1827 735
c32 -11 64 -20 72 -20 26 0 115 -67 159 -119 49 -58 72 -106 72 -151 0 -38
-41 -120 -89 -180 -36 -45 -52 -70 -79 -122 -27 -54 17 -123 115 -183 76 -46
78 -48 160 -120 50 -45 77 -90 136 -226 33 -75 40 -111 32 -159 -11 -65 3 -64
-720 -57 -352 3 -648 9 -658 13 -24 9 -32 51 -19 93 30 99 54 154 97 217 66
97 105 128 280 219 98 51 127 75 153 127 27 55 28 88 3 136 -60 116 -106 299
-90 357 11 39 63 105 84 105 7 0 19 7 26 16 22 27 131 73 172 74 21 0 63 -9
94 -20z m-87 -1507 l115 -7 -90 -7 c-136 -10 -588 -10 -604 0 -11 7 -6 12 20
19 36 10 357 7 559 -5z"/>
</g>
</svg>
