<svg version="1.0" xmlns="http://www.w3.org/2000/svg"
 width="668px" style="transform:scale(1,1.001);" height="375.75px" viewBox="0 0 320.000000 180.000000"
 preserveAspectRatio="xMidYMid meet">
<g transform="translate(0.000000,180.000000) scale(0.100000,-0.100000)"
fill="#000000" stroke="none">
<path d="M0 905 l0 -895 544 0 544 0 0 99 c0 54 7 145 16 202 8 57 20 167 26 244 6 77
18 201 27 275 8 74 15 162 15 195 1 90 -27 298 -43 323 -17 27 -90 57 -121 48
-57 -14 -85 -43 -114 -116 -32 -83 -65 -109 -91 -75 -37 49 31 252 97 293 14
8 36 22 50 32 25 16 158 56 174 52 4 -2 5 28 1 66 -6 66 -6 69 19 85 22 15 37
16 116 7 61 -7 97 -7 110 0 26 14 103 13 122 -2 29 -23 58 -82 58 -118 0 -19
-9 -48 -20 -65 -32 -48 -26 -83 20 -123 51 -43 66 -72 73 -142 5 -55 64 -197
91 -219 7 -6 21 -29 31 -51 14 -31 16 -49 9 -82 -14 -65 -34 -61 -115 21 -38
39 -74 71 -79 71 -27 0 -29 -50 -5 -153 13 -58 26 -154 30 -214 7 -125 29
-313 50 -426 8 -42 15 -111 15 -152 l0 -75 775 0 775 0 0 895 0 895 -1600 0
-1600 0 0 -895z"/>
<path d="M1333 673 c-9 -21 -22 -60 -29 -88 -7 -27 -23 -84 -34 -125 -12 -41 -28 -109
-35 -150 -7 -41 -18 -86 -23 -100 -5 -14 -12 -64 -16 -113 l-7 -87 172 0 171
0 -7 76 c-8 84 -28 206 -45 274 -6 25 -20 82 -31 128 -11 45 -31 113 -45 150
-13 37 -24 68 -24 69 0 2 -7 3 -16 3 -8 0 -22 -17 -31 -37z"/>
</g>
</svg>
