<svg version="1.0" xmlns="http://www.w3.org/2000/svg"
 width="668px" style="transform:scale(1,1.001);" height="375.75px" viewBox="0 0 320.000000 180.000000"
 preserveAspectRatio="xMidYMid meet">
<g transform="translate(0.000000,180.000000) scale(0.100000,-0.100000)"
fill="#000000" stroke="none">
<path d="M0 905 l0 -895 651 0 652 0 -9 48 c-10 59 -9 233 6 578 11 281 7 327 -29 339
-47 15 -91 -28 -120 -119 -13 -43 -20 -51 -43 -54 -22 -3 -29 2 -34 23 -3 14
-3 48 0 76 5 40 4 49 -8 49 -9 0 -23 -11 -32 -25 -22 -33 -34 -32 -34 5 0 24
12 44 53 85 28 29 63 67 77 84 14 17 34 40 44 51 10 11 27 41 36 67 33 91 48
118 90 163 48 51 49 80 5 132 -35 41 -35 114 -1 151 49 53 150 44 179 -16 9
-18 19 -58 22 -90 7 -67 20 -83 75 -92 26 -4 47 -16 61 -33 21 -27 22 -30 15
-355 -8 -403 -17 -498 -62 -647 -78 -252 -78 -256 -14 -323 27 -28 40 -50 40
-69 l0 -28 790 0 790 0 0 895 0 895 -1600 0 -1600 0 0 -895z"/>
<path d="M1100 984 c0 -8 5 -12 10 -9 6 3 10 10 10 16 0 5 -4 9 -10 9 -5 0 -10 -7 -10
-16z"/>
</g>
</svg>
