<svg version="1.0" xmlns="http://www.w3.org/2000/svg"
 width="668px" style="transform:scale(1,1.001);" height="375.75px" viewBox="0 0 320.000000 180.000000"
 preserveAspectRatio="xMidYMid meet">
<g transform="translate(0.000000,180.000000) scale(0.100000,-0.100000)"
fill="#000000" stroke="none">
<path d="M0 905 l0 -895 641 0 641 0 -4 28 c-3 15 -8 34 -12 43 -4 9 3 25 18 42 46 50
146 27 146 -33 0 -11 -7 -23 -15 -26 -8 -4 -15 -17 -15 -30 l0 -24 155 0 c151
0 155 1 155 21 0 11 -10 29 -22 39 -19 15 -21 22 -13 46 9 24 17 30 47 32 23
2 52 -5 77 -18 40 -20 41 -22 41 -70 l0 -50 680 0 680 0 0 895 0 895 -1600 0
-1600 0 0 -895z m1638 654 c42 -38 44 -42 39 -87 -3 -26 -9 -64 -15 -85 -10
-36 -9 -38 32 -71 22 -18 58 -39 79 -46 27 -8 43 -22 57 -49 54 -106 95 -294
80 -368 -19 -99 -39 -170 -61 -218 -21 -44 -24 -65 -24 -168 l0 -119 -29 -25
c-28 -24 -33 -25 -105 -17 -111 13 -238 9 -305 -9 -112 -31 -134 24 -75 187
35 99 36 145 0 162 -33 17 -71 2 -121 -47 -58 -56 -74 -50 -80 31 -3 36 -12
74 -19 86 -8 12 -11 31 -8 46 6 23 13 26 62 30 39 3 63 11 77 25 21 22 58 138
58 185 0 48 45 131 103 191 82 83 86 117 22 206 -33 45 -34 49 -22 86 6 21 28
56 48 77 34 36 39 38 100 38 61 0 66 -2 107 -41z"/>
</g>
</svg>
