<svg version="1.0" xmlns="http://www.w3.org/2000/svg"
 width="668px" style="transform:scale(1,1.001);" height="375.75px" viewBox="0 0 320.000000 180.000000"
 preserveAspectRatio="xMidYMid meet">
<g transform="translate(0.000000,180.000000) scale(0.100000,-0.100000)"
fill="#000000" stroke="none">
<path d="M0 905 l0 -895 875 0 c873 0 875 0 875 20 0 58 -59 198 -193 454 -10 19 -23
66 -28 103 -6 37 -19 93 -29 123 -10 30 -21 89 -25 130 -4 41 -14 111 -22 155
-17 86 -13 247 7 299 12 31 85 106 104 106 11 0 59 52 79 86 3 6 13 46 22 90
25 117 21 114 120 114 82 0 85 -1 115 -32 86 -90 86 -160 -1 -242 -43 -41 -50
-52 -44 -74 3 -15 18 -39 32 -54 19 -19 35 -60 55 -135 57 -211 58 -244 11
-387 -30 -91 -31 -85 52 -281 52 -125 75 -208 75 -279 0 -60 -19 -126 -36
-126 -31 0 -64 -24 -64 -47 l0 -23 610 0 610 0 0 895 0 895 -1600 0 -1600 0 0
-895z"/>
</g>
</svg>
