<svg version="1.0" xmlns="http://www.w3.org/2000/svg"
 width="668px" style="transform:scale(1,1.001);" height="375.75px" viewBox="0 0 320.000000 180.000000"
 preserveAspectRatio="xMidYMid meet">
<g transform="translate(0.000000,180.000000) scale(0.100000,-0.100000)"
fill="#000000" stroke="none">
<path d="M0 905 l0 -895 1600 0 1600 0 0 895 0 895 -1600 0 -1600 0 0 -895z m1495 756
c22 -10 51 -20 65 -24 14 -3 40 -25 58 -49 l34 -43 -4 -105 c-2 -79 -7 -111
-21 -130 -9 -13 -17 -33 -17 -43 0 -25 55 -75 105 -97 22 -10 46 -24 53 -33 8
-9 26 -19 42 -22 15 -3 36 -15 46 -26 9 -10 25 -19 34 -19 9 0 38 -21 64 -46
55 -53 102 -149 112 -227 3 -28 14 -78 25 -110 10 -31 19 -70 19 -85 0 -15 9
-53 20 -85 26 -73 27 -166 2 -197 -17 -21 -29 -23 -153 -28 -74 -3 -163 -5
-199 -4 -36 0 -166 1 -290 2 -152 1 -248 6 -295 15 -38 8 -90 15 -115 15 -54
0 -65 7 -80 45 -17 45 -3 248 21 304 10 24 19 57 19 74 0 39 75 151 155 232
93 93 135 149 135 179 0 30 -17 60 -71 126 -55 69 -89 139 -89 187 0 58 76
157 135 175 22 7 51 18 65 25 35 18 78 16 125 -6z"/>
</g>
</svg>
