<svg version="1.0" xmlns="http://www.w3.org/2000/svg"
 width="668px" style="transform:scale(1,1.001);" height="375.75px" viewBox="0 0 320.000000 180.000000"
 preserveAspectRatio="xMidYMid meet">
<g transform="translate(0.000000,180.000000) scale(0.100000,-0.100000)"
fill="#000000" stroke="none">
<path d="M0 905 l0 -895 936 0 937 0 -8 47 c-11 63 -11 327 0 426 6 60 15 88 37 122 16
24 38 47 48 50 10 3 44 37 74 74 62 76 71 117 39 173 -17 28 -20 29 -71 24
-62 -6 -90 7 -121 60 -35 60 -29 92 30 144 28 25 58 53 67 64 9 10 43 44 74
75 72 72 86 103 57 132 -32 32 -49 92 -38 132 12 44 77 104 123 112 69 13 148
-32 167 -97 5 -18 7 -56 3 -83 -7 -64 13 -92 82 -115 44 -15 52 -23 79 -74
l29 -58 -1 -207 c-1 -196 -2 -209 -27 -269 -14 -35 -28 -91 -31 -125 -4 -34
-22 -141 -40 -237 -29 -150 -33 -189 -28 -273 l6 -97 388 0 389 0 0 895 0 895
-1600 0 -1600 0 0 -895z"/>
<path d="M2117 431 l-42 -40 3 -70 c6 -125 5 -235 -3 -273 l-7 -38 101 0 c100 0 101 0
101 24 0 13 -6 29 -13 35 -24 19 -35 82 -42 231 -9 187 -21 203 -98 131z"/>
<path d="M2002 87 c-17 -73 -16 -77 18 -77 25 0 30 4 30 24 0 14 -4 28 -10 31 -5 3 -10
16 -10 28 0 48 -16 45 -28 -6z"/>
</g>
</svg>
