<svg version="1.0" xmlns="http://www.w3.org/2000/svg"
 width="668px" style="transform:scale(1,1.001);" height="375.75px" viewBox="0 0 320.000000 180.000000"
 preserveAspectRatio="xMidYMid meet">
<g transform="translate(0.000000,180.000000) scale(0.100000,-0.100000)"
fill="#000000" stroke="none">
<path d="M0 905 l0 -895 661 0 661 0 -6 32 c-4 18 -10 83 -15 143 -8 121 -18 148 -60
170 -40 20 -44 48 -25 182 10 65 18 172 19 238 1 138 17 200 68 267 18 24 46
49 62 57 17 8 33 19 37 25 4 6 26 20 50 31 60 28 67 61 39 189 -38 174 -24
234 74 315 39 32 42 33 112 29 59 -4 77 -10 103 -31 17 -15 38 -27 45 -27 8 0
24 -13 37 -30 12 -16 29 -32 37 -35 17 -5 51 -88 51 -123 0 -35 -31 -95 -76
-146 -61 -70 -61 -105 1 -166 90 -88 115 -115 115 -122 0 -4 22 -33 48 -65 78
-94 83 -118 73 -388 -9 -235 -17 -283 -55 -315 -9 -7 -16 -18 -16 -24 0 -20
-63 -131 -82 -144 -10 -7 -18 -24 -18 -38 l0 -24 630 0 630 0 0 895 0 895
-1600 0 -1600 0 0 -895z"/>
</g>
</svg>
