<svg version="1.0" xmlns="http://www.w3.org/2000/svg"
 width="668px" style="transform:scale(1,1.001);" height="375.75px" viewBox="0 0 320.000000 180.000000"
 preserveAspectRatio="xMidYMid meet">
<g transform="translate(0.000000,180.000000) scale(0.100000,-0.100000)"
fill="#000000" stroke="none">
<path d="M0 905 l0 -895 920 0 919 0 -2 58 c-3 80 44 227 133 417 76 161 74 154 61 258
-7 51 -14 112 -17 136 -6 48 -43 95 -68 85 -8 -3 -27 -30 -42 -60 -41 -82 -90
-86 -120 -8 -15 39 -15 56 -6 142 10 87 37 185 64 235 5 10 21 22 36 28 24 9
30 6 64 -30 40 -44 48 -47 97 -30 29 10 31 14 25 42 -3 17 -21 49 -38 70 -26
32 -31 47 -29 85 1 41 7 52 47 89 42 40 48 43 103 43 79 0 128 -15 153 -48 22
-27 23 -72 5 -173 -5 -25 -2 -46 9 -68 16 -29 20 -31 74 -31 102 0 130 -9 154
-48 17 -28 21 -51 22 -126 1 -137 -11 -202 -51 -263 -42 -64 -53 -101 -53
-178 0 -54 -12 -133 -54 -351 -8 -45 -11 -109 -8 -173 l5 -101 398 0 399 0 0
895 0 895 -1600 0 -1600 0 0 -895z"/>
<path d="M2103 188 c-34 -57 -68 -110 -77 -117 -9 -7 -16 -24 -16 -37 0 -24 0 -24 120
-24 114 0 120 1 120 20 0 12 -9 34 -21 49 -14 19 -25 58 -33 109 -6 45 -16 86
-22 92 -8 8 -28 -17 -71 -92z"/>
</g>
</svg>
