<svg version="1.0" xmlns="http://www.w3.org/2000/svg"
 width="668px" style="transform:scale(1,1.001);" height="375.75px" viewBox="0 0 320.000000 180.000000"
 preserveAspectRatio="xMidYMid meet">
<g transform="translate(0.000000,180.000000) scale(0.100000,-0.100000)"
fill="#000000" stroke="none">
<path d="M0 905 l0 -895 543 0 542 0 1 98 c1 53 8 135 17 182 9 47 19 112 22 145 22
211 37 329 50 395 26 136 28 161 15 229 -9 49 -10 80 -2 116 14 64 -5 101 -61
116 -21 5 -47 19 -58 30 -11 11 -40 22 -65 26 -36 5 -48 11 -59 34 -8 15 -15
41 -15 57 0 38 84 206 112 227 58 40 125 -4 154 -100 16 -57 26 -69 62 -78 37
-9 52 17 52 89 0 128 46 182 144 170 62 -8 69 -12 90 -53 22 -44 20 -99 -4
-130 -36 -45 -25 -96 23 -113 18 -6 44 -28 60 -49 22 -32 28 -54 33 -118 7
-93 26 -166 59 -229 37 -70 32 -164 -9 -164 -5 0 -36 28 -68 61 -54 57 -61 61
-75 46 -15 -15 -15 -23 1 -104 10 -48 19 -97 21 -109 5 -24 35 -406 40 -509 2
-38 6 -114 10 -167 l8 -98 778 0 779 0 0 895 0 895 -1600 0 -1600 0 0 -895z"/>
<path d="M1347 678 c-25 -54 -89 -277 -103 -358 -7 -41 -20 -109 -28 -150 -9 -41 -18
-94 -22 -117 l-7 -43 168 0 167 0 -6 83 c-19 236 -29 298 -75 476 -37 142 -64
173 -94 109z"/>
</g>
</svg>
