<svg version="1.0" xmlns="http://www.w3.org/2000/svg"
 width="668px" style="transform:scale(1,1.001);" height="375.75px" viewBox="0 0 320.000000 180.000000"
 preserveAspectRatio="xMidYMid meet">
<g transform="translate(0.000000,180.000000) scale(0.100000,-0.100000)"
fill="#000000" stroke="none">
<path d="M0 905 l0 -895 546 0 546 0 -5 33 c-3 17 -11 57 -17 87 -7 32 -10 86 -6 130 3
41 10 132 15 202 6 70 17 140 24 155 8 16 18 54 21 85 4 32 12 60 17 63 5 4
21 32 36 63 28 59 151 192 178 192 8 0 22 11 30 24 9 14 29 29 45 35 40 13 89
70 90 102 0 15 -9 38 -20 52 -11 14 -20 30 -20 35 0 5 -7 15 -15 22 -8 7 -20
31 -26 54 -5 22 -17 55 -25 73 -27 59 -19 91 34 142 86 81 116 96 203 96 60 0
81 -4 97 -18 11 -10 35 -22 53 -28 19 -5 54 -28 79 -50 42 -39 44 -43 45 -97
0 -55 -25 -132 -69 -217 -10 -19 -14 -41 -10 -60 8 -38 51 -92 86 -106 15 -6
34 -22 43 -35 8 -13 22 -24 31 -24 21 0 128 -113 161 -169 23 -41 27 -61 34
-181 4 -80 14 -153 23 -179 9 -24 16 -76 16 -115 1 -39 5 -91 11 -116 21 -91
22 -157 5 -181 -9 -13 -16 -34 -16 -46 l0 -23 480 0 480 0 0 895 0 895 -1600
0 -1600 0 0 -895z"/>
</g>
</svg>
