<svg version="1.0" xmlns="http://www.w3.org/2000/svg"
 width="668px" style="transform:scale(1,1.001);" height="375.75px" viewBox="0 0 320.000000 180.000000"
 preserveAspectRatio="xMidYMid meet">
<g transform="translate(0.000000,180.000000) scale(0.100000,-0.100000)"
fill="#000000" stroke="none">
<path d="M0 905 l0 -895 1600 0 1600 0 0 895 0 895 -1600 0 -1600 0 0 -895z m1685 785
c3 -5 32 -19 64 -30 43 -16 66 -32 89 -63 29 -37 32 -47 32 -111 0 -64 -24
-153 -59 -217 -18 -33 49 -127 104 -145 11 -4 35 -20 53 -35 18 -16 38 -29 44
-29 22 0 110 -105 135 -160 13 -30 28 -86 32 -125 5 -38 15 -92 24 -120 17
-55 40 -219 38 -275 -1 -19 -10 -43 -20 -54 -18 -18 -45 -19 -545 -23 -359 -3
-538 -1 -565 7 -56 15 -76 53 -67 132 3 33 10 67 16 78 5 10 13 51 16 92 4 40
14 89 22 108 8 19 20 53 26 75 22 76 99 174 196 250 25 19 54 43 65 54 11 10
30 24 42 30 13 6 30 25 38 41 19 36 9 78 -35 155 -74 129 -86 176 -57 231 17
33 90 104 108 104 6 0 22 9 36 20 20 16 41 20 94 20 37 0 70 -4 74 -10z"/>
</g>
</svg>
