<svg version="1.0" xmlns="http://www.w3.org/2000/svg"
 width="668px" style="transform:scale(1,1.001);" height="375.75px" viewBox="0 0 320.000000 180.000000"
 preserveAspectRatio="xMidYMid meet">
<g transform="translate(0.000000,180.000000) scale(0.100000,-0.100000)"
fill="#000000" stroke="none">
<path d="M0 905 l0 -895 1600 0 1600 0 0 895 0 895 -1600 0 -1600 0 0 -895z m1380 745
c56 -17 97 -77 105 -155 10 -93 37 -121 130 -135 38 -6 83 -17 100 -25 16 -8
49 -19 72 -26 23 -7 40 -16 37 -21 -3 -4 10 -15 30 -23 19 -8 46 -25 59 -37
14 -13 31 -28 39 -35 7 -6 22 -23 33 -37 11 -15 30 -39 43 -53 12 -14 22 -31
22 -38 0 -6 18 -47 40 -90 22 -43 40 -88 40 -99 1 -12 9 -39 20 -61 19 -40 26
-111 12 -131 -4 -6 -19 -14 -33 -17 -23 -6 -31 -1 -55 31 -15 20 -34 41 -41
45 -7 4 -13 22 -13 40 -1 58 -42 133 -112 206 -38 39 -68 75 -68 81 0 7 -14
10 -32 8 l-33 -3 -2 -80 c-1 -44 -5 -156 -8 -248 -6 -139 -4 -188 10 -283 18
-114 18 -115 -2 -142 -14 -19 -31 -28 -57 -30 -47 -4 -82 18 -104 66 -9 20
-26 45 -37 54 -19 16 -21 15 -42 -32 -32 -73 -105 -99 -191 -69 -52 18 -59 60
-40 248 10 99 12 176 7 207 -4 27 -5 83 -2 125 5 65 3 77 -11 82 -23 9 -83
-53 -121 -123 -15 -30 -51 -75 -80 -100 -41 -36 -59 -64 -95 -143 -39 -85 -47
-96 -65 -91 -37 12 -47 26 -42 63 11 83 63 228 93 261 29 32 60 76 73 105 7
17 17 38 22 47 5 9 12 36 15 60 9 56 57 142 89 156 14 6 24 17 23 23 -2 7 14
16 34 22 28 7 39 16 47 40 10 26 8 34 -11 55 -13 13 -35 30 -50 38 -56 29 -73
105 -39 172 43 83 110 115 191 92z"/>
</g>
</svg>
