<svg version="1.0" xmlns="http://www.w3.org/2000/svg"
 width="668px" style="transform:scale(1,1.001);" height="375.75px" viewBox="0 0 320.000000 180.000000"
 preserveAspectRatio="xMidYMid meet">
<g transform="translate(0.000000,180.000000) scale(0.100000,-0.100000)"
fill="#000000" stroke="none">
<path d="M0 905 l0 -895 654 0 654 0 1 148 c1 81 8 212 16 292 16 163 18 203 13 415 -2
125 -5 150 -18 150 -25 0 -37 -59 -28 -128 7 -49 6 -70 -6 -99 -19 -45 -39
-48 -80 -11 -26 22 -31 34 -34 86 -7 96 25 257 74 371 44 105 67 134 158 205
53 41 56 46 56 87 0 49 18 96 50 133 24 28 104 41 138 22 44 -24 64 -105 43
-178 -8 -28 -5 -38 19 -72 16 -21 34 -42 39 -46 25 -15 41 -80 42 -169 0 -82
3 -96 29 -141 75 -131 100 -186 100 -224 0 -29 -5 -43 -19 -50 -22 -12 -36 -2
-74 54 -14 22 -49 64 -77 93 -27 29 -50 56 -50 61 0 16 -33 22 -47 8 -11 -11
-10 -30 3 -117 9 -58 17 -168 18 -245 l1 -140 -58 -155 c-56 -154 -66 -193
-48 -205 21 -13 71 -98 71 -121 l0 -24 780 0 780 0 0 895 0 895 -1600 0 -1600
0 0 -895z"/>
<path d="M1440 35 c0 -22 4 -25 40 -25 36 0 40 3 40 25 0 23 -4 25 -40 25 -36 0 -40 -2
-40 -25z"/>
</g>
</svg>
