<svg version="1.0" xmlns="http://www.w3.org/2000/svg"
 width="668px" style="transform:scale(1,1.001);" height="375.75px" viewBox="0 0 320.000000 180.000000"
 preserveAspectRatio="xMidYMid meet">
<g transform="translate(0.000000,180.000000) scale(0.100000,-0.100000)"
fill="#000000" stroke="none">
<path d="M0 905 l0 -895 755 0 755 0 0 24 c0 14 -5 37 -11 53 -6 15 -10 74 -10 129 1
83 -3 116 -24 180 -13 44 -25 90 -26 104 -1 50 -23 90 -59 108 -34 17 -35 18
-35 77 1 103 23 235 62 363 37 121 39 124 91 167 29 24 58 45 65 48 13 5 11 9
-37 76 -27 39 -28 43 -15 78 10 26 23 39 44 46 17 5 42 18 57 28 41 30 110 25
149 -9 28 -25 32 -37 39 -102 11 -97 18 -118 41 -125 11 -4 32 -24 46 -46 41
-62 37 -137 -12 -234 -21 -42 -51 -89 -68 -105 -31 -30 -33 -57 -9 -125 14
-40 35 -325 39 -552 l4 -183 680 0 679 0 0 895 0 895 -1600 0 -1600 0 0 -895z"/>
<path d="M1660 321 c0 -22 -9 -85 -20 -141 -11 -56 -20 -117 -20 -136 l0 -34 50 0 c28
0 50 4 50 10 0 10 -14 118 -32 248 -12 89 -28 119 -28 53z"/>
</g>
</svg>
