<svg version="1.0" xmlns="http://www.w3.org/2000/svg"
 width="668px" style="transform:scale(1,1.001);" height="375.75px" viewBox="0 0 320.000000 180.000000"
 preserveAspectRatio="xMidYMid meet">
<g transform="translate(0.000000,180.000000) scale(0.100000,-0.100000)"
fill="#000000" stroke="none">
<path d="M0 905 l0 -895 615 0 615 0 0 21 c0 20 -15 123 -40 274 -53 322 -60 378 -60
486 0 125 -11 175 -40 184 -10 3 -35 19 -55 35 -21 17 -44 30 -51 30 -27 0
-38 44 -37 146 2 104 18 168 53 209 44 51 43 59 -10 111 -42 42 -50 55 -50 88
0 73 90 136 195 136 68 0 84 -19 115 -136 15 -60 40 -68 192 -59 104 5 135 3
198 -13 99 -26 120 -52 110 -140 -4 -33 -15 -68 -24 -78 -9 -11 -27 -32 -39
-47 -20 -25 -31 -30 -87 -34 -81 -5 -122 16 -140 74 -16 48 -22 55 -43 47 -22
-8 -21 -32 3 -94 11 -28 20 -64 20 -80 0 -16 14 -97 31 -181 l31 -152 -7 -291
c-9 -365 -10 -338 15 -394 16 -36 20 -58 15 -95 l-7 -47 841 0 841 0 0 895 0
895 -1600 0 -1600 0 0 -895z"/>
<path d="M1327 559 c-12 -44 -7 -135 10 -190 l16 -54 9 35 c10 43 0 162 -17 203 -12 29
-12 29 -18 6z"/>
<path d="M1347 63 c-4 -3 -7 -17 -7 -30 0 -20 5 -23 40 -23 36 0 40 3 40 24 0 13 -7 27
-16 30 -21 8 -49 8 -57 -1z"/>
</g>
</svg>
