<svg version="1.0" xmlns="http://www.w3.org/2000/svg"
 width="668px" style="transform:scale(1,1.001);" height="375.75px" viewBox="0 0 320.000000 180.000000"
 preserveAspectRatio="xMidYMid meet">
<g transform="translate(0.000000,180.000000) scale(0.100000,-0.100000)"
fill="#000000" stroke="none">
<path d="M0 905 l0 -895 899 0 899 0 -2 63 c-1 54 3 69 32 115 17 29 52 96 77 149 25
53 57 112 71 130 14 19 23 40 20 48 -7 20 -53 30 -71 15 -24 -20 -92 -23 -99
-5 -7 18 11 107 29 149 12 26 11 32 -2 41 -14 11 -13 19 16 79 22 43 36 93 43
144 11 84 23 112 65 162 15 18 29 41 30 52 3 20 -18 66 -50 110 -41 55 4 155
90 201 73 38 192 16 214 -40 7 -17 8 -56 5 -98 -4 -38 -7 -78 -7 -89 0 -24 27
-53 57 -60 49 -13 114 -93 135 -167 7 -24 16 -49 20 -54 4 -6 13 -60 19 -120
6 -60 13 -112 16 -117 3 -4 5 -36 5 -71 0 -93 -36 -256 -71 -326 -46 -90 -51
-116 -44 -218 l7 -93 398 0 399 0 0 895 0 895 -1600 0 -1600 0 0 -895z"/>
<path d="M2088 164 c-69 -75 -88 -101 -88 -124 l0 -30 120 0 c116 0 120 1 120 22 0 12
-7 29 -16 39 -11 12 -18 45 -21 103 -4 54 -10 86 -17 85 -6 0 -50 -43 -98 -95z"/>
</g>
</svg>
