<svg version="1.0" xmlns="http://www.w3.org/2000/svg"
 width="668px" style="transform:scale(1,1.001);" height="375.75px" viewBox="0 0 320.000000 180.000000"
 preserveAspectRatio="xMidYMid meet">
<g transform="translate(0.000000,180.000000) scale(0.100000,-0.100000)"
fill="#000000" stroke="none">
<path d="M0 905 l0 -895 780 0 780 0 0 33 c0 17 -7 57 -15 87 -9 30 -22 93 -30 139 -9
46 -26 107 -39 135 -26 57 -50 144 -61 221 -9 57 -21 85 -37 85 -24 0 -37 37
-37 105 -1 69 19 211 34 250 10 26 66 85 80 85 6 0 35 16 65 35 48 31 55 40
67 87 16 62 25 74 74 99 45 22 72 24 88 6 6 -8 28 -19 50 -25 48 -15 54 -34
45 -146 -6 -77 -5 -84 20 -120 14 -21 28 -54 32 -73 8 -41 -1 -183 -17 -263
-22 -113 -28 -129 -61 -146 -30 -15 -30 -17 -22 -62 5 -26 9 -132 10 -237 1
-104 2 -214 3 -242 l1 -53 695 0 695 0 0 895 0 895 -1600 0 -1600 0 0 -895z"/>
<path d="M1667 296 c-4 -10 -7 -78 -7 -152 l0 -134 25 0 25 0 -6 82 c-10 123 -29 226
-37 204z"/>
</g>
</svg>
