<svg version="1.0" xmlns="http://www.w3.org/2000/svg"
 width="668px" style="transform:scale(1,1.001);" height="375.75px" viewBox="0 0 320.000000 180.000000"
 preserveAspectRatio="xMidYMid meet">
<g transform="translate(0.000000,180.000000) scale(0.100000,-0.100000)"
fill="#000000" stroke="none">
<path d="M0 905 l0 -895 565 0 565 0 0 24 c0 14 -10 30 -24 39 -19 13 -26 30 -35 89 -7
40 -17 102 -23 138 -5 36 -8 88 -5 115 12 101 28 201 39 230 5 17 18 55 27 86
9 31 21 62 27 70 6 8 15 25 19 39 12 40 83 118 144 157 31 20 71 50 89 65 18
15 39 28 47 28 8 0 26 18 40 39 l26 39 -41 88 c-23 49 -51 109 -63 133 -14 28
-21 63 -21 97 0 51 2 55 43 91 42 36 79 59 131 83 38 18 137 6 202 -24 61 -29
106 -73 128 -125 17 -41 2 -128 -36 -208 -13 -28 -24 -67 -24 -85 0 -43 31
-93 72 -117 63 -37 113 -77 184 -147 64 -64 74 -79 93 -144 12 -40 26 -122 32
-184 5 -61 14 -129 19 -151 5 -22 10 -118 10 -212 l0 -172 -31 -17 c-25 -13
-45 -14 -103 -8 -86 9 -675 6 -893 -5 -7 -1 -13 -12 -13 -26 l0 -25 1005 0
1005 0 0 895 0 895 -1600 0 -1600 0 0 -895z"/>
</g>
</svg>
