<svg version="1.0" xmlns="http://www.w3.org/2000/svg"
 width="668px" style="transform:scale(1,1.001);" height="375.75px" viewBox="0 0 320.000000 180.000000"
 preserveAspectRatio="xMidYMid meet">
<g transform="translate(0.000000,180.000000) scale(0.100000,-0.100000)"
fill="#000000" stroke="none">
<path d="M0 905 l0 -895 630 0 630 0 0 21 c0 12 -12 35 -26 52 -24 29 -25 35 -19 99 7
65 5 71 -33 151 -22 45 -50 109 -62 142 -12 33 -31 81 -41 107 -12 30 -19 71
-19 113 0 58 5 76 40 144 22 43 40 89 40 102 0 14 -14 47 -31 74 -17 27 -35
59 -40 72 -15 40 -29 267 -19 303 10 36 66 100 87 100 7 0 27 9 45 20 43 26
122 27 163 2 17 -10 44 -22 60 -26 43 -10 93 -71 112 -135 18 -64 9 -110 -38
-178 -29 -42 -36 -63 -20 -63 4 0 26 -12 47 -27 21 -14 57 -30 78 -35 21 -5
51 -17 65 -27 14 -10 45 -22 69 -26 23 -4 48 -14 55 -24 6 -9 23 -24 37 -33
14 -9 73 -64 132 -122 59 -58 112 -106 118 -106 16 0 60 -77 60 -105 0 -50
-79 -185 -108 -185 -17 0 -44 -92 -55 -184 -10 -83 -10 -90 8 -100 32 -19 81
-76 65 -76 -5 0 -10 -11 -10 -25 l0 -25 590 0 590 0 0 895 0 895 -1600 0
-1600 0 0 -895z"/>
</g>
</svg>
