<svg version="1.0" xmlns="http://www.w3.org/2000/svg"
 width="668px" style="transform:scale(1,1.001);" height="375.75px" viewBox="0 0 320.000000 180.000000"
 preserveAspectRatio="xMidYMid meet">
<g transform="translate(0.000000,180.000000) scale(0.100000,-0.100000)"
fill="#000000" stroke="none">
<path d="M0 905 l0 -895 1600 0 1600 0 0 895 0 895 -1600 0 -1600 0 0 -895z m1821 805
c10 -6 19 -17 19 -24 0 -8 7 -17 15 -20 9 -3 23 -22 31 -42 18 -42 13 -82 -16
-146 -11 -24 -20 -54 -20 -69 0 -28 51 -82 89 -94 31 -9 88 -70 107 -115 45
-104 37 -282 -16 -374 -88 -155 -93 -170 -101 -326 -4 -80 -8 -148 -8 -152 -1
-4 -8 -13 -16 -21 -11 -12 -53 -15 -217 -15 -111 0 -210 4 -220 9 -16 9 -18
25 -18 148 0 93 -5 154 -15 187 -19 64 -19 86 4 176 16 61 18 88 11 144 -5 38
-9 105 -10 149 0 102 16 130 133 233 44 38 46 62 17 148 -27 76 -20 119 27
173 l36 41 74 0 c41 0 83 -5 94 -10z"/>
</g>
</svg>
