<svg version="1.0" xmlns="http://www.w3.org/2000/svg"
 width="668px" style="transform:scale(1,1.001);" height="375.75px" viewBox="0 0 320.000000 180.000000"
 preserveAspectRatio="xMidYMid meet">
<g transform="translate(0.000000,180.000000) scale(0.100000,-0.100000)"
fill="#000000" stroke="none">
<path d="M0 905 l0 -895 590 0 590 0 0 53 c0 28 6 68 13 87 25 67 137 285 192 375 61
98 95 193 95 261 0 24 8 67 18 96 84 242 83 233 23 308 -28 34 -55 78 -62 98
-20 60 -5 153 37 232 20 39 40 70 45 70 5 0 16 14 25 31 l16 31 81 -2 c112 -3
109 -4 153 31 46 36 71 34 133 -8 71 -49 89 -118 61 -234 -18 -75 -6 -115 51
-171 27 -26 53 -48 57 -48 14 0 44 -62 58 -118 17 -71 17 -331 1 -386 -15 -47
-43 -70 -126 -99 -102 -35 -99 -27 -103 -340 l-3 -267 628 0 627 0 0 895 0
895 -1600 0 -1600 0 0 -895z"/>
<path d="M1658 1458 c-32 -11 -35 -24 -12 -56 20 -29 46 -28 81 3 l28 25 -24 20 c-26
22 -33 23 -73 8z"/>
<path d="M1591 308 c-12 -13 -58 -68 -101 -123 -44 -54 -91 -106 -105 -114 -15 -9 -25
-25 -25 -38 l0 -23 180 0 c203 0 190 -6 170 82 -5 24 -16 81 -25 128 -19 109
-47 135 -94 88z"/>
</g>
</svg>
