<svg version="1.0" xmlns="http://www.w3.org/2000/svg"
 width="668px" style="transform:scale(1,1.001);" height="375.75px" viewBox="0 0 320.000000 180.000000"
 preserveAspectRatio="xMidYMid meet">
<g transform="translate(0.000000,180.000000) scale(0.100000,-0.100000)"
fill="#000000" stroke="none">
<path d="M0 905 l0 -895 419 0 c407 0 419 1 414 19 -3 11 3 27 14 38 30 28 76 63 85 63
31 0 144 107 189 180 9 14 38 50 66 80 50 54 73 105 73 161 0 23 33 106 59
149 5 8 22 40 36 70 15 30 45 72 66 92 22 21 39 44 39 51 0 8 7 20 15 27 9 7
22 27 31 45 12 25 26 36 69 50 52 18 57 18 110 1 30 -9 79 -18 108 -20 60 -3
102 -26 111 -61 12 -49 -50 -175 -110 -222 -45 -36 -60 -64 -75 -144 -14 -80
-2 -109 68 -165 173 -137 203 -196 180 -356 l-8 -58 620 0 621 0 0 895 0 895
-1600 0 -1600 0 0 -895z"/>
<path d="M1446 251 c-3 -5 -22 -12 -42 -16 -22 -4 -67 -30 -113 -65 -42 -33 -96 -70
-121 -83 -34 -18 -46 -30 -48 -50 l-3 -27 340 0 341 0 0 23 c0 38 -21 101 -39
114 -9 7 -38 13 -66 13 -27 0 -60 6 -72 13 -12 6 -51 29 -86 50 -68 39 -82 43
-91 28z"/>
</g>
</svg>
