<svg version="1.0" xmlns="http://www.w3.org/2000/svg"
 width="668px" style="transform:scale(1,1.001);" height="375.75px" viewBox="0 0 320.000000 180.000000"
 preserveAspectRatio="xMidYMid meet">
<g transform="translate(0.000000,180.000000) scale(0.100000,-0.100000)"
fill="#000000" stroke="none">
<path d="M0 905 l0 -895 450 0 450 0 0 38 c1 60 29 111 143 249 26 32 62 85 78 117 35
71 96 173 118 201 29 36 48 79 60 133 14 66 14 97 0 145 -12 45 -39 49 -93 12
-57 -39 -81 -41 -101 -11 -12 18 -15 35 -10 58 12 54 31 81 87 123 29 22 75
64 103 93 27 29 54 52 59 52 5 0 38 15 72 32 71 36 68 28 64 154 -2 76 15 126
45 138 55 21 181 -4 242 -47 63 -44 72 -76 45 -150 -27 -71 -19 -106 27 -122
51 -17 81 -61 81 -117 0 -41 -4 -50 -27 -64 -65 -40 -108 -70 -115 -79 -4 -5
-8 -33 -8 -62 0 -29 -8 -74 -17 -100 -9 -26 -17 -75 -16 -108 0 -61 14 -92
106 -255 30 -51 38 -68 62 -127 24 -57 24 -201 1 -235 -9 -12 -16 -33 -16 -45
l0 -23 655 0 655 0 0 895 0 895 -1600 0 -1600 0 0 -895z"/>
<path d="M1410 409 c-25 -19 -48 -39 -52 -45 -4 -6 -75 -79 -158 -161 -99 -100 -150
-158 -150 -172 l0 -21 355 0 c332 0 355 1 355 18 -1 60 -22 167 -39 199 -11
21 -41 61 -66 88 -25 28 -60 65 -77 84 -24 27 -39 35 -77 38 -40 4 -52 0 -91
-28z"/>
</g>
</svg>
