<svg version="1.0" xmlns="http://www.w3.org/2000/svg"
 width="668px" style="transform:scale(1,1.001);" height="375.75px" viewBox="0 0 320.000000 180.000000"
 preserveAspectRatio="xMidYMid meet">
<g transform="translate(0.000000,180.000000) scale(0.100000,-0.100000)"
fill="#000000" stroke="none">
<path d="M0 905 l0 -895 1600 0 1600 0 0 895 0 895 -1600 0 -1600 0 0 -895z m1620 770
c19 -14 39 -25 45 -25 17 0 70 -70 83 -110 14 -42 -5 -174 -31 -214 -25 -38
-21 -77 12 -114 17 -17 36 -32 44 -32 8 0 26 -10 40 -22 14 -13 47 -36 74 -53
69 -42 130 -90 157 -122 26 -32 61 -142 71 -223 3 -30 13 -75 20 -100 15 -45
33 -165 42 -270 4 -47 1 -58 -17 -75 -20 -18 -43 -19 -548 -18 -338 1 -537 5
-554 11 -40 16 -52 66 -45 197 4 64 13 126 22 147 8 21 15 48 15 60 0 13 8 39
18 58 11 19 22 48 26 65 4 16 24 50 44 75 48 59 164 170 178 170 6 0 25 18 42
39 51 64 40 110 -58 247 -33 46 -35 54 -35 126 0 74 1 77 36 111 20 19 51 43
69 53 18 11 42 25 54 31 11 7 53 13 92 13 59 0 75 -4 104 -25z"/>
</g>
</svg>
