<svg version="1.0" xmlns="http://www.w3.org/2000/svg"
 width="668px" style="transform:scale(1,1.001);" height="375.75px" viewBox="0 0 320.000000 180.000000"
 preserveAspectRatio="xMidYMid meet">
<g transform="translate(0.000000,180.000000) scale(0.100000,-0.100000)"
fill="#000000" stroke="none">
<path d="M0 905 l0 -895 1600 0 1600 0 0 895 0 895 -1600 0 -1600 0 0 -895z m1772 494
c37 -19 133 -83 136 -90 2 -4 17 -29 35 -55 28 -43 31 -54 30 -118 -1 -48 -9
-86 -23 -118 -12 -28 -23 -80 -27 -127 l-6 -80 41 -40 c39 -39 218 -141 246
-141 7 0 21 -9 31 -20 10 -11 22 -20 27 -20 33 0 218 -171 238 -220 29 -69 70
-65 -691 -65 l-684 0 -22 22 c-14 13 -23 34 -23 52 0 38 68 169 91 176 11 4
24 15 29 26 6 10 17 19 26 19 8 0 17 7 20 15 4 8 12 15 19 15 7 0 24 9 38 20
14 11 39 23 56 26 57 12 92 84 55 115 -8 7 -24 29 -34 48 -11 20 -51 70 -90
111 -67 72 -70 77 -70 124 0 40 7 61 42 115 95 150 163 205 279 221 80 11 200
6 231 -11z"/>
</g>
</svg>
