<svg version="1.0" xmlns="http://www.w3.org/2000/svg"
 width="668px" style="transform:scale(1,1.001);" height="375.75px" viewBox="0 0 320.000000 180.000000"
 preserveAspectRatio="xMidYMid meet">
<g transform="translate(0.000000,180.000000) scale(0.100000,-0.100000)"
fill="#000000" stroke="none">
<path d="M0 905 l0 -895 1600 0 1600 0 0 895 0 895 -1600 0 -1600 0 0 -895z m1928 729
c77 -22 128 -70 137 -130 3 -25 1 -95 -6 -157 -19 -170 -18 -172 119 -307 186
-184 210 -225 223 -390 5 -58 13 -143 18 -190 10 -95 0 -128 -46 -149 -16 -7
-185 -11 -521 -11 -552 0 -544 -1 -587 67 -20 31 -59 53 -97 53 -11 0 -34 11
-52 25 -18 14 -40 25 -50 25 -9 0 -21 12 -26 26 -6 15 -19 38 -30 52 -27 33
-25 68 4 95 13 12 26 32 30 44 9 27 113 107 180 139 59 27 125 75 126 90 0 6
10 20 23 32 12 11 28 27 34 34 38 40 62 57 94 67 20 7 45 21 54 31 10 11 29
20 41 20 13 0 44 15 68 33 66 47 62 82 -19 167 -57 61 -71 105 -55 180 17 82
70 132 160 153 86 20 111 20 178 1z"/>
</g>
</svg>
