<svg version="1.0" xmlns="http://www.w3.org/2000/svg"
 width="668px" style="transform:scale(1,1.001);" height="375.75px" viewBox="0 0 320.000000 180.000000"
 preserveAspectRatio="xMidYMid meet">
<g transform="translate(0.000000,180.000000) scale(0.100000,-0.100000)"
fill="#000000" stroke="none">
<path d="M0 905 l0 -895 1600 0 1600 0 0 895 0 895 -1600 0 -1600 0 0 -895z m1400 805
c65 -46 110 -94 116 -125 7 -37 -10 -84 -37 -102 -25 -18 -50 -68 -43 -86 3
-8 42 -26 87 -42 85 -28 116 -52 158 -125 11 -19 31 -53 44 -75 13 -22 27 -47
32 -55 4 -8 22 -34 40 -58 37 -49 44 -107 18 -154 -8 -16 -21 -38 -27 -51 -7
-13 -27 -41 -44 -62 -17 -22 -39 -64 -48 -93 -15 -45 -16 -60 -6 -102 9 -37 9
-58 1 -81 -6 -18 -11 -51 -11 -74 0 -65 -11 -104 -29 -110 -10 -3 -146 -6
-304 -7 -304 -1 -317 1 -317 46 0 11 14 81 32 154 42 172 41 175 -103 235 -27
12 -38 23 -47 55 -18 58 -15 99 13 203 14 52 30 108 34 125 5 18 21 49 37 69
30 40 149 145 164 145 22 0 26 65 8 130 -26 92 -31 125 -24 154 7 27 69 93
101 107 36 16 118 5 155 -21z"/>
</g>
</svg>
