<svg version="1.0" xmlns="http://www.w3.org/2000/svg"
 width="668px" style="transform:scale(1,1.001);" height="375.75px" viewBox="0 0 320.000000 180.000000"
 preserveAspectRatio="xMidYMid meet">
<g transform="translate(0.000000,180.000000) scale(0.100000,-0.100000)"
fill="#000000" stroke="none">
<path d="M0 905 l0 -895 736 0 736 0 -7 66 c-4 36 -11 79 -16 97 -5 18 -9 55 -9 83 0
42 -17 148 -45 281 -4 19 -11 21 -50 20 -50 -2 -65 10 -65 53 0 24 35 195 64
315 8 33 24 105 37 160 20 93 25 103 68 146 25 25 53 48 61 51 13 4 13 10 1
49 -7 24 -15 65 -18 90 -4 43 -2 48 34 82 40 38 99 55 147 43 41 -10 67 -58
70 -130 3 -68 27 -122 59 -132 37 -12 97 -76 107 -114 14 -50 2 -99 -57 -247
l-47 -118 0 -215 c0 -118 4 -297 8 -397 l9 -183 688 0 689 0 0 895 0 895
-1600 0 -1600 0 0 -895z"/>
<path d="M1616 389 c-2 -8 -12 -81 -21 -164 -10 -82 -20 -165 -23 -182 l-4 -33 67 0 68
0 -7 42 c-4 24 -11 80 -16 125 -13 124 -52 253 -64 212z"/>
</g>
</svg>
