<svg version="1.0" xmlns="http://www.w3.org/2000/svg"
 width="668px" style="transform:scale(1,1.001);" height="375.75px" viewBox="0 0 320.000000 180.000000"
 preserveAspectRatio="xMidYMid meet">
<g transform="translate(0.000000,180.000000) scale(0.100000,-0.100000)"
fill="#000000" stroke="none">
<path d="M0 905 l0 -895 1600 0 1600 0 0 895 0 895 -1600 0 -1600 0 0 -895z m1733 726
c45 -11 88 -28 101 -40 12 -11 29 -21 37 -21 24 0 90 -79 106 -126 8 -25 13
-59 10 -77 -18 -117 -30 -165 -47 -189 -11 -15 -20 -33 -20 -40 0 -7 -9 -26
-20 -43 -26 -40 -25 -77 4 -124 33 -52 78 -87 121 -95 19 -4 52 -18 72 -32 20
-13 47 -24 61 -24 13 0 39 -12 57 -27 18 -16 45 -36 59 -46 38 -26 88 -105 97
-153 11 -56 -6 -210 -26 -240 -38 -58 -12 -56 -649 -55 -404 0 -592 4 -608 12
-60 27 -74 111 -39 242 22 86 74 161 119 172 14 3 34 17 44 31 11 13 28 24 38
24 10 0 31 11 47 24 15 12 40 27 54 32 15 5 44 24 65 43 34 30 38 40 42 90 4
58 -17 131 -37 131 -6 0 -11 6 -11 14 0 8 -11 27 -24 43 -13 15 -27 43 -30 60
-4 18 -14 36 -21 40 -16 10 -55 97 -55 124 0 34 36 92 92 146 81 80 110 103
132 108 12 2 30 6 41 8 46 10 115 6 188 -12z m-82 -1492 c46 -6 100 -16 119
-22 l35 -11 -30 -7 c-42 -9 -596 -9 -620 0 -35 14 38 44 89 37 22 -3 66 -2 96
3 80 12 215 13 311 0z"/>
</g>
</svg>
