<svg version="1.0" xmlns="http://www.w3.org/2000/svg"
 width="668px" style="transform:scale(1,1.001);" height="375.75px" viewBox="0 0 320.000000 180.000000"
 preserveAspectRatio="xMidYMid meet">
<g transform="translate(0.000000,180.000000) scale(0.100000,-0.100000)"
fill="#000000" stroke="none">
<path d="M0 905 l0 -895 1600 0 1600 0 0 895 0 895 -1600 0 -1600 0 0 -895z m1685 720
c28 -14 55 -25 60 -25 22 0 133 -117 151 -158 17 -41 17 -47 1 -107 -9 -35
-17 -74 -17 -88 0 -13 -9 -35 -19 -49 -11 -13 -24 -42 -30 -65 -6 -23 -16 -45
-21 -48 -18 -11 -10 -65 14 -103 33 -51 61 -73 115 -87 25 -7 60 -20 76 -29
17 -9 42 -16 57 -16 36 0 168 -110 168 -140 0 -8 11 -35 24 -60 13 -25 26 -68
30 -97 4 -28 13 -68 21 -87 16 -37 20 -104 7 -122 -23 -36 -51 -38 -467 -41
-225 -2 -489 1 -585 7 -116 7 -192 8 -225 1 -61 -12 -104 8 -117 54 -17 62 46
270 103 344 21 27 109 91 125 91 5 0 25 11 44 25 19 14 43 25 53 25 25 0 123
65 137 90 5 10 10 33 10 51 0 32 -15 62 -146 290 -66 114 -61 134 60 254 85
84 151 115 246 115 59 -1 86 -6 125 -25z"/>
</g>
</svg>
