<svg version="1.0" xmlns="http://www.w3.org/2000/svg"
 width="668px" style="transform:scale(1,1.001);" height="375.75px" viewBox="0 0 320.000000 180.000000"
 preserveAspectRatio="xMidYMid meet">
<g transform="translate(0.000000,180.000000) scale(0.100000,-0.100000)"
fill="#000000" stroke="none">
<path d="M0 905 l0 -895 675 0 675 0 0 53 c0 28 4 58 9 66 13 20 91 25 131 9 21 -9 45
-11 60 -7 42 12 117 10 128 -4 6 -7 14 -36 18 -65 l7 -52 748 0 749 0 0 895 0
895 -1600 0 -1600 0 0 -895z m1556 698 c37 -41 38 -51 19 -179 -8 -49 11 -74
55 -74 16 0 42 -11 58 -25 17 -14 35 -25 41 -25 34 0 142 -150 165 -229 30
-104 9 -177 -56 -196 -20 -5 -40 -13 -43 -17 -21 -21 -37 -141 -43 -313 -6
-158 -10 -196 -25 -218 l-17 -26 -194 -1 c-243 0 -232 -7 -229 153 2 115 -9
157 -41 157 -8 0 -26 14 -41 32 -25 30 -27 36 -19 88 4 30 7 104 6 165 -3 123
17 238 49 278 10 14 19 29 19 34 0 5 23 32 50 60 29 30 50 60 50 73 0 12 -16
50 -35 84 -45 80 -45 117 -3 165 40 46 49 49 131 50 66 1 69 0 103 -36z"/>
</g>
</svg>
