<svg version="1.0" xmlns="http://www.w3.org/2000/svg"
 width="668px" style="transform:scale(1,1.001);" height="375.75px" viewBox="0 0 320.000000 180.000000"
 preserveAspectRatio="xMidYMid meet">
<g transform="translate(0.000000,180.000000) scale(0.100000,-0.100000)"
fill="#000000" stroke="none">
<path d="M0 905 l0 -895 1600 0 1600 0 0 895 0 895 -1600 0 -1600 0 0 -895z m1773 761
c12 -7 34 -16 48 -20 15 -3 43 -24 64 -47 l37 -42 -4 -107 c-3 -78 -9 -115
-21 -134 -36 -54 -10 -116 71 -179 27 -20 52 -37 56 -37 24 0 214 -169 215
-191 1 -9 10 -41 20 -72 13 -38 21 -98 26 -194 4 -76 11 -165 16 -199 10 -71
-1 -115 -34 -133 -13 -7 -80 -12 -172 -13 -197 -3 -931 11 -972 17 -42 7 -83
56 -83 98 1 46 26 146 43 165 14 18 91 155 142 256 34 67 166 206 223 235 20
11 57 37 81 60 40 37 43 44 38 77 -3 20 -12 41 -20 48 -7 6 -21 22 -30 36 -9
14 -31 45 -49 70 -25 36 -33 57 -36 105 -4 60 -3 62 42 118 36 44 56 59 89 68
23 6 47 15 52 19 29 23 119 21 158 -4z"/>
</g>
</svg>
