<svg version="1.0" xmlns="http://www.w3.org/2000/svg"
 width="668px" style="transform:scale(1,1.001);" height="375.75px" viewBox="0 0 320.000000 180.000000"
 preserveAspectRatio="xMidYMid meet">
<g transform="translate(0.000000,180.000000) scale(0.100000,-0.100000)"
fill="#000000" stroke="none">
<path d="M0 905 l0 -895 940 0 940 0 0 25 0 24 -142 3 -143 3 3 25 c5 49 23 55 160 56
140 2 193 -7 223 -37 26 -26 20 -43 -14 -47 -21 -3 -27 -9 -27 -28 l0 -24 630
0 630 0 0 895 0 895 -630 0 -630 0 0 -23 c0 -16 12 -29 43 -46 53 -29 97 -97
97 -151 0 -29 -9 -50 -39 -88 -44 -55 -61 -113 -39 -130 7 -6 29 -24 48 -40
19 -16 48 -35 64 -43 77 -37 166 -232 174 -380 6 -123 -21 -168 -115 -193 -55
-15 -131 -59 -140 -82 -3 -8 0 -64 7 -123 13 -117 5 -173 -28 -189 -9 -5 -120
-8 -246 -7 -276 2 -266 -3 -266 129 -1 79 -5 98 -49 201 -11 28 -34 96 -51
152 -29 98 -33 104 -95 164 -77 74 -105 126 -105 195 0 63 25 103 81 130 83
41 154 72 179 79 14 4 35 17 48 28 18 17 39 21 110 25 48 2 93 9 101 15 10 9
11 24 5 67 -4 30 -8 86 -7 123 0 65 2 70 37 106 20 20 36 47 36 59 l0 22 -895
0 -895 0 0 -895z"/>
</g>
</svg>
