<svg version="1.0" xmlns="http://www.w3.org/2000/svg"
 width="668px" style="transform:scale(1,1.001);" height="375.75px" viewBox="0 0 320.000000 180.000000"
 preserveAspectRatio="xMidYMid meet">
<g transform="translate(0.000000,180.000000) scale(0.100000,-0.100000)"
fill="#000000" stroke="none">
<path d="M0 905 l0 -895 1600 0 1600 0 0 895 0 895 -926 0 -926 0 7 -32 c10 -46 7 -116
-6 -140 -6 -11 -13 -56 -16 -99 -6 -76 -5 -79 26 -118 l33 -41 71 0 c40 -1
101 -7 137 -15 59 -12 67 -12 85 3 31 27 35 34 35 81 0 26 10 66 26 98 22 48
32 58 82 81 l56 25 66 -22 c36 -13 75 -29 87 -37 56 -35 82 -159 48 -225 -9
-16 -33 -40 -55 -54 -32 -20 -40 -31 -40 -54 0 -24 8 -34 48 -58 26 -15 57
-32 69 -38 32 -15 106 -110 152 -197 39 -72 41 -81 41 -160 0 -64 -4 -90 -19
-114 -23 -37 -127 -94 -172 -94 -77 0 -102 -46 -93 -170 5 -62 3 -94 -5 -103
-9 -12 -51 -13 -224 -10 -116 2 -222 6 -234 9 -24 5 -26 11 -58 159 -9 44 -23
103 -31 131 -8 29 -16 128 -19 235 -4 101 -10 199 -15 217 -10 38 -69 121 -86
122 -6 0 -29 16 -50 36 -21 19 -50 45 -63 57 -13 12 -33 42 -45 67 -18 40 -20
61 -18 199 3 172 11 204 55 209 21 3 27 9 27 28 l0 24 -625 0 -625 0 0 -895z"/>
</g>
</svg>
