<svg version="1.0" xmlns="http://www.w3.org/2000/svg"
 width="668px" style="transform:scale(1,1.001);" height="375.75px" viewBox="0 0 320.000000 180.000000"
 preserveAspectRatio="xMidYMid meet">
<g transform="translate(0.000000,180.000000) scale(0.100000,-0.100000)"
fill="#000000" stroke="none">
<path d="M0 905 l0 -895 663 0 662 0 1 163 c0 120 5 180 18 232 28 109 8 305 -35 351
l-23 25 -17 -23 c-10 -13 -38 -45 -63 -72 -47 -49 -50 -57 -61 -138 -5 -41
-10 -48 -37 -57 -50 -18 -108 4 -108 40 0 12 -7 19 -18 19 -25 0 -50 29 -58
67 -10 49 28 103 72 103 13 0 32 9 41 20 10 11 21 20 25 20 12 0 118 102 118
113 0 4 12 33 26 63 20 41 24 63 19 87 -4 18 -9 57 -12 87 -4 46 -1 59 17 78
17 18 31 22 86 22 l64 0 16 -37 c39 -91 36 -89 144 -137 18 -8 41 -44 84 -131
32 -66 62 -128 67 -138 19 -35 34 -175 33 -297 -2 -139 -15 -206 -43 -215 -33
-10 -41 -47 -21 -92 32 -71 -8 -93 -95 -52 -52 24 -85 61 -85 94 0 13 15 46
34 74 49 72 51 84 25 152 -18 51 -24 58 -35 47 -16 -16 -41 -103 -60 -208 -22
-124 -39 -198 -46 -206 -5 -4 -8 -18 -8 -31 l0 -23 905 0 905 0 0 895 0 895
-1600 0 -1600 0 0 -895z"/>
</g>
</svg>
