<svg version="1.0" xmlns="http://www.w3.org/2000/svg"
 width="668px" style="transform:scale(1,1.001);" height="375.75px" viewBox="0 0 320.000000 180.000000"
 preserveAspectRatio="xMidYMid meet">
<g transform="translate(0.000000,180.000000) scale(0.100000,-0.100000)"
fill="#000000" stroke="none">
<path d="M0 905 l0 -895 756 0 757 0 -7 53 c-7 56 -28 81 -58 71 -33 -10 -58 5 -58 35
0 41 -40 95 -73 99 -33 4 -67 45 -67 82 0 76 43 262 73 315 7 12 12 73 13 145
1 139 7 157 65 208 33 29 37 37 36 82 -1 71 27 100 98 100 45 0 54 -3 74 -30
15 -21 23 -48 25 -83 2 -42 9 -61 39 -100 57 -74 61 -104 48 -322 -19 -305
-25 -356 -45 -371 -13 -9 -17 -23 -15 -53 3 -31 -2 -47 -20 -67 -25 -29 -40
-78 -41 -131 l0 -33 800 0 800 0 0 895 0 895 -1600 0 -1600 0 0 -895z"/>
<path d="M1611 433 c0 -6 -4 -20 -7 -30 -5 -14 -4 -15 5 -7 7 7 11 20 8 30 -3 11 -5 14
-6 7z"/>
<path d="M1620 340 c0 -11 4 -20 9 -20 5 0 7 9 4 20 -3 11 -7 20 -9 20 -2 0 -4 -9 -4
-20z"/>
</g>
</svg>
