<svg version="1.0" xmlns="http://www.w3.org/2000/svg"
 width="668px" style="transform:scale(1,1.001);" height="375.75px" viewBox="0 0 320.000000 180.000000"
 preserveAspectRatio="xMidYMid meet">
<g transform="translate(0.000000,180.000000) scale(0.100000,-0.100000)"
fill="#000000" stroke="none">
<path d="M0 905 l0 -895 604 0 603 0 6 53 c4 36 21 79 56 142 27 50 61 115 76 145 213
436 204 412 185 472 -8 24 -24 66 -37 95 -13 28 -23 56 -23 60 0 5 -13 22 -30
38 -29 28 -30 28 -67 12 -21 -9 -48 -19 -61 -22 -19 -6 -93 -75 -113 -107 -12
-19 -39 4 -39 33 0 35 25 99 38 99 5 0 12 16 15 36 6 33 1 42 -45 95 l-51 59
1 77 c0 59 5 82 20 102 43 57 76 31 85 -66 7 -77 27 -103 81 -103 49 1 114 35
122 64 3 14 12 26 20 26 8 0 14 3 14 8 -1 17 -40 56 -71 71 -64 31 -57 121 13
157 18 9 38 23 46 30 7 8 22 14 32 14 11 0 28 9 39 21 10 11 37 23 59 26 36 5
44 2 86 -37 39 -36 47 -51 57 -101 18 -90 71 -149 134 -149 54 0 157 -67 248
-162 119 -124 130 -153 75 -206 l-31 -31 -62 34 c-34 19 -64 35 -67 35 -2 0
-3 -27 -1 -60 2 -38 -2 -70 -11 -87 -10 -21 -13 -61 -11 -164 3 -136 15 -193
71 -339 7 -19 16 -51 20 -70 10 -52 66 -154 108 -195 10 -10 16 -33 16 -61 l0
-44 495 0 495 0 0 895 0 895 -1600 0 -1600 0 0 -895z"/>
<path d="M1613 322 c-45 -48 -104 -114 -131 -147 -28 -33 -64 -74 -81 -92 -17 -17 -31
-41 -31 -52 0 -21 2 -21 330 -21 328 0 330 0 330 21 0 20 -35 74 -48 74 -15 0
-32 17 -32 30 0 15 -37 73 -64 100 -9 9 -16 23 -16 31 0 8 -4 14 -10 14 -5 0
-16 12 -24 28 -8 15 -30 44 -49 65 -54 58 -76 52 -174 -51z"/>
</g>
</svg>
