<svg version="1.0" xmlns="http://www.w3.org/2000/svg"
 width="668px" style="transform:scale(1,1.001);" height="375.75px" viewBox="0 0 320.000000 180.000000"
 preserveAspectRatio="xMidYMid meet">
<g transform="translate(0.000000,180.000000) scale(0.100000,-0.100000)"
fill="#000000" stroke="none">
<path d="M0 905 l0 -895 740 0 740 0 0 98 c0 67 -6 119 -20 167 -11 38 -20 86 -20 105
0 19 -14 73 -31 120 -19 53 -34 121 -41 180 -16 156 -21 462 -9 553 14 100 52
182 96 204 16 9 34 22 38 29 4 8 21 21 37 29 33 17 70 81 70 120 0 14 5 46 11
71 10 40 15 45 52 55 60 16 162 3 189 -24 27 -29 58 -96 58 -128 0 -45 -27
-96 -54 -103 -14 -3 -37 -22 -51 -41 -22 -28 -25 -40 -20 -67 4 -18 16 -39 26
-45 33 -24 92 -255 92 -363 -1 -57 -8 -79 -48 -145 -13 -22 -27 -47 -31 -55
-4 -8 -19 -25 -32 -38 -26 -25 -27 -47 -2 -152 5 -25 17 -100 24 -166 17 -143
9 -229 -29 -312 -47 -102 -125 -92 695 -92 l720 0 0 895 0 895 -1600 0 -1600
0 0 -895z"/>
</g>
</svg>
