<svg version="1.0" xmlns="http://www.w3.org/2000/svg"
 width="668px" style="transform:scale(1,1.001);" height="375.75px" viewBox="0 0 320.000000 180.000000"
 preserveAspectRatio="xMidYMid meet">
<g transform="translate(0.000000,180.000000) scale(0.100000,-0.100000)"
fill="#000000" stroke="none">
<path d="M0 905 l0 -895 600 0 c598 0 600 0 600 20 0 12 -12 31 -26 43 -42 37 -55 108
-64 347 -4 118 -13 233 -19 255 -14 52 -82 125 -115 125 -42 0 -73 21 -92 61
-15 34 -16 49 -6 119 6 44 18 93 27 110 8 16 15 35 15 41 0 7 6 20 14 28 8 9
26 45 41 81 36 86 65 124 118 149 45 22 68 55 82 121 19 90 94 150 187 150 29
-1 64 -7 78 -15 14 -8 35 -14 48 -15 66 -1 162 -154 149 -237 -10 -57 -47
-119 -81 -135 -26 -11 -31 -19 -31 -48 0 -31 4 -36 34 -46 18 -6 41 -20 50
-31 9 -11 33 -26 53 -33 40 -12 158 -121 158 -145 0 -7 4 -15 8 -17 5 -2 28
-41 51 -88 24 -47 50 -89 57 -93 8 -4 14 -14 14 -21 0 -8 11 -21 24 -29 34
-23 56 -77 56 -140 0 -77 -13 -104 -57 -124 -85 -36 -106 -49 -113 -68 -10
-27 -40 -222 -40 -261 0 -17 -7 -37 -15 -44 -8 -7 -15 -23 -15 -36 l0 -24 705
0 705 0 0 895 0 895 -1600 0 -1600 0 0 -895z"/>
</g>
</svg>
