<svg version="1.0" xmlns="http://www.w3.org/2000/svg"
 width="668px" style="transform:scale(1,1.001);" height="375.75px" viewBox="0 0 320.000000 180.000000"
 preserveAspectRatio="xMidYMid meet">
<g transform="translate(0.000000,180.000000) scale(0.100000,-0.100000)"
fill="#000000" stroke="none">
<path d="M0 905 l0 -895 1600 0 1600 0 0 895 0 895 -1600 0 -1600 0 0 -895z m1843 800
c66 -31 97 -75 97 -139 0 -23 -4 -46 -9 -51 -4 -6 -16 -33 -26 -61 -23 -65 -8
-103 45 -117 19 -5 46 -19 60 -32 14 -12 35 -26 48 -30 12 -3 22 -11 22 -16 0
-6 12 -22 26 -36 67 -67 117 -220 97 -296 -17 -61 -61 -124 -94 -136 -16 -5
-29 -16 -29 -23 0 -8 -13 -21 -29 -31 -16 -9 -40 -34 -52 -54 -21 -33 -23 -50
-24 -163 -1 -103 -4 -132 -20 -165 l-20 -40 -175 -3 c-96 -1 -185 0 -197 3
-34 8 -45 40 -53 155 -6 86 -12 114 -34 157 -25 48 -27 58 -24 160 3 103 2
108 -18 111 -11 2 -27 -4 -34 -13 -19 -23 -57 -18 -76 10 -9 14 -24 25 -34 25
-25 0 -30 19 -30 115 0 105 32 202 84 253 34 35 36 36 145 43 60 4 115 10 121
14 5 3 17 22 24 40 13 30 12 41 -5 97 -36 118 -18 178 68 222 61 32 78 32 146
1z m49 -1562 c23 -21 23 -40 0 -52 -22 -12 -290 -2 -298 11 -3 5 2 18 13 30
16 18 26 20 98 15 44 -3 89 -2 100 3 32 14 67 11 87 -7z"/>
</g>
</svg>
