<svg version="1.0" xmlns="http://www.w3.org/2000/svg"
 width="668px" style="transform:scale(1,1.001);" height="375.75px" viewBox="0 0 320.000000 180.000000"
 preserveAspectRatio="xMidYMid meet">
<g transform="translate(0.000000,180.000000) scale(0.100000,-0.100000)"
fill="#000000" stroke="none">
<path d="M0 905 l0 -895 1600 0 1600 0 0 895 0 895 -1600 0 -1600 0 0 -895z m1677 453
c40 -27 51 -60 33 -102 -17 -42 -15 -79 6 -91 9 -5 49 -40 87 -77 64 -62 110
-88 155 -88 6 0 21 -9 31 -19 11 -11 33 -27 50 -35 23 -12 31 -26 39 -60 10
-47 3 -108 -15 -141 -10 -17 -13 -15 -32 23 -12 23 -21 47 -21 54 0 16 -54 54
-100 69 -19 7 -44 20 -56 30 -11 11 -27 19 -35 19 -9 0 -37 7 -62 16 -40 13
-55 14 -97 4 -90 -21 -122 -90 -84 -178 9 -20 20 -53 24 -72 5 -19 15 -55 24
-80 46 -137 55 -217 29 -256 -13 -20 -18 -47 -18 -94 0 -58 4 -70 28 -99 20
-24 27 -42 25 -65 -3 -28 -7 -31 -39 -34 -27 -2 -48 5 -83 28 l-46 32 2 176 3
177 -30 58 c-16 32 -40 68 -53 80 -33 31 -42 11 -42 -102 0 -97 -22 -242 -46
-299 -8 -18 -14 -44 -14 -58 0 -61 -55 -112 -107 -99 -34 8 -39 46 -13 122 20
59 22 87 23 262 0 121 -4 218 -12 253 l-12 58 -24 -18 c-13 -9 -33 -41 -45
-70 -26 -62 -45 -75 -97 -64 -37 8 -38 9 -41 53 -3 42 0 48 53 104 30 33 55
64 55 70 0 5 35 51 78 102 42 51 91 114 108 140 19 30 53 63 92 88 58 38 62
43 68 88 16 111 118 157 211 95z"/>
</g>
</svg>
