<svg version="1.0" xmlns="http://www.w3.org/2000/svg"
 width="668px" style="transform:scale(1,1.001);" height="375.75px" viewBox="0 0 320.000000 180.000000"
 preserveAspectRatio="xMidYMid meet">
<g transform="translate(0.000000,180.000000) scale(0.100000,-0.100000)"
fill="#000000" stroke="none">
<path d="M0 905 l0 -895 1600 0 1600 0 0 895 0 895 -1600 0 -1600 0 0 -895z m1765 785
c11 -10 31 -21 45 -25 34 -8 80 -67 91 -115 11 -51 -4 -164 -30 -220 -11 -25
-21 -58 -21 -75 0 -37 32 -91 58 -99 11 -4 27 -18 36 -31 9 -14 25 -25 36 -25
11 0 33 -13 50 -30 17 -16 36 -30 42 -30 12 0 88 -74 88 -86 0 -4 7 -15 15
-24 29 -32 65 -178 65 -264 0 -45 7 -108 15 -141 8 -33 14 -93 15 -132 0 -113
48 -105 -590 -97 -482 7 -544 9 -562 24 -29 23 -35 101 -15 187 9 37 19 97 23
133 4 36 15 81 25 100 11 19 19 38 19 43 0 17 52 121 76 153 28 36 173 150
208 164 31 11 86 79 86 105 0 21 -32 87 -83 170 -30 48 -45 131 -33 179 7 27
78 106 96 106 6 0 20 10 32 22 11 11 35 25 52 29 48 13 138 1 161 -21z"/>
</g>
</svg>
