<svg version="1.0" xmlns="http://www.w3.org/2000/svg"
 width="668px" style="transform:scale(1,1.001);" height="375.75px" viewBox="0 0 320.000000 180.000000"
 preserveAspectRatio="xMidYMid meet">
<g transform="translate(0.000000,180.000000) scale(0.100000,-0.100000)"
fill="#000000" stroke="none">
<path d="M0 905 l0 -895 1600 0 1600 0 0 895 0 895 -1600 0 -1600 0 0 -895z m1630 770
c19 -14 39 -25 44 -25 16 0 65 -65 78 -102 14 -40 -6 -180 -33 -224 -11 -17
-19 -39 -19 -48 0 -24 60 -96 80 -96 10 0 23 -7 30 -15 15 -18 87 -68 130 -90
42 -22 140 -122 140 -143 0 -10 9 -43 20 -75 11 -31 20 -75 20 -97 0 -22 9
-66 20 -97 11 -32 20 -80 20 -109 0 -28 7 -73 15 -100 22 -72 19 -102 -12
-132 l-28 -27 -430 1 c-478 1 -646 11 -673 38 -15 14 -17 35 -15 145 2 87 8
140 18 164 8 20 15 47 15 59 0 13 11 46 25 73 13 28 25 56 25 63 1 35 154 208
210 237 42 22 90 82 90 113 0 15 -7 38 -15 52 -8 14 -19 35 -24 47 -6 13 -28
45 -50 73 -67 84 -68 184 -3 245 39 35 99 78 123 88 8 3 48 6 90 6 65 1 80 -2
109 -24z"/>
</g>
</svg>
