<svg version="1.0" xmlns="http://www.w3.org/2000/svg"
 width="668px" style="transform:scale(1,1.001);" height="375.75px" viewBox="0 0 320.000000 180.000000"
 preserveAspectRatio="xMidYMid meet">
<g transform="translate(0.000000,180.000000) scale(0.100000,-0.100000)"
fill="#000000" stroke="none">
<path d="M0 905 l0 -895 700 0 700 0 0 25 c0 33 -31 45 -84 33 -22 -5 -45 -7 -53 -4
-32 13 0 136 48 182 16 16 50 70 75 119 44 85 46 93 40 149 -4 37 -20 88 -42
135 -45 95 -63 175 -70 321 -4 93 -10 124 -30 165 -27 57 -39 130 -26 165 5
14 23 28 43 35 l34 12 -4 110 c-2 70 1 118 8 132 13 23 50 28 69 9 9 -9 21 -8
51 2 22 7 47 10 56 6 26 -10 48 -76 51 -151 2 -45 7 -73 16 -77 7 -4 34 -16
59 -27 66 -29 73 -69 40 -227 -29 -140 -40 -236 -46 -419 -3 -93 -12 -215 -20
-269 -10 -72 -12 -119 -5 -171 11 -89 15 -99 47 -116 24 -13 25 -16 19 -76
l-7 -63 766 0 765 0 0 895 0 895 -1600 0 -1600 0 0 -895z"/>
<path d="M1441 237 c-24 -30 -23 -71 3 -106 19 -25 26 -47 26 -78 l0 -43 45 0 c35 0 45
4 45 17 0 20 -37 145 -56 191 -15 34 -43 43 -63 19z"/>
</g>
</svg>
