<svg version="1.0" xmlns="http://www.w3.org/2000/svg"
 width="668px" style="transform:scale(1,1.001);" height="375.75px" viewBox="0 0 320.000000 180.000000"
 preserveAspectRatio="xMidYMid meet">
<g transform="translate(0.000000,180.000000) scale(0.100000,-0.100000)"
fill="#000000" stroke="none">
<path d="M0 905 l0 -895 1600 0 1600 0 0 895 0 895 -1600 0 -1600 0 0 -895z m1810 725
c95 -17 140 -30 140 -39 0 -5 15 -18 34 -29 19 -11 56 -49 81 -84 44 -60 46
-65 42 -118 -4 -50 -33 -122 -91 -230 -28 -51 -34 -87 -23 -139 8 -45 16 -55
58 -85 26 -19 67 -40 91 -46 23 -7 54 -20 69 -30 14 -10 38 -22 55 -26 34 -8
102 -78 111 -114 4 -14 17 -47 30 -75 12 -27 23 -59 23 -70 0 -12 9 -39 21
-60 43 -84 34 -188 -18 -201 -13 -4 -43 -2 -66 4 -39 10 -488 21 -1055 26
-187 2 -235 5 -242 16 -5 8 -7 17 -5 21 3 3 10 51 16 105 6 55 17 113 24 129
7 17 21 53 30 80 22 68 69 119 128 139 26 9 52 16 58 16 6 0 22 8 35 19 13 10
44 22 70 26 55 8 130 58 143 95 12 36 -5 129 -29 155 -10 11 -23 40 -29 63 -5
24 -18 54 -29 65 -11 12 -23 33 -27 47 -4 14 -16 36 -26 49 -11 13 -19 39 -19
58 0 29 12 45 89 122 73 73 99 92 147 108 33 11 68 19 79 17 11 -1 49 -8 85
-14z"/>
</g>
</svg>
