<svg version="1.0" xmlns="http://www.w3.org/2000/svg"
 width="668px" style="transform:scale(1,1.001);" height="375.75px" viewBox="0 0 320.000000 180.000000"
 preserveAspectRatio="xMidYMid meet">
<g transform="translate(0.000000,180.000000) scale(0.100000,-0.100000)"
fill="#000000" stroke="none">
<path d="M0 905 l0 -895 520 0 520 0 0 35 c0 18 7 59 14 90 8 30 20 110 26 178 6 67 18
135 26 151 8 16 14 39 14 52 0 12 15 44 33 72 59 86 117 202 115 228 -1 13
-10 27 -20 30 -9 3 -27 21 -39 40 -19 31 -21 44 -15 109 4 40 18 101 32 136
14 35 30 78 35 95 14 46 51 76 109 85 28 4 64 17 80 29 36 26 127 38 159 21
33 -18 43 -56 42 -158 -1 -60 4 -103 13 -125 8 -18 22 -50 31 -71 28 -65 31
-139 6 -189 -28 -58 -27 -79 8 -147 68 -129 117 -272 131 -376 4 -33 17 -96
28 -140 12 -44 22 -95 22 -112 l0 -33 655 0 655 0 0 895 0 895 -1600 0 -1600
0 0 -895z"/>
<path d="M1438 584 c-12 -7 -34 -19 -48 -26 -13 -7 -52 -40 -86 -73 -61 -60 -104 -142
-104 -198 0 -12 -5 -38 -11 -57 -10 -32 -31 -123 -46 -193 l-5 -27 322 0 322
0 -7 58 c-3 31 -27 118 -52 192 -48 144 -70 179 -171 276 -60 59 -80 67 -114
48z"/>
</g>
</svg>
