<svg version="1.0" xmlns="http://www.w3.org/2000/svg"
 width="668px" style="transform:scale(1,1.001);" height="375.75px" viewBox="0 0 320.000000 180.000000"
 preserveAspectRatio="xMidYMid meet">
<g transform="translate(0.000000,180.000000) scale(0.100000,-0.100000)"
fill="#000000" stroke="none">
<path d="M0 905 l0 -895 1600 0 1600 0 0 895 0 895 -1600 0 -1600 0 0 -895z m1502 761
c14 -8 41 -19 60 -25 19 -6 52 -29 74 -52 l39 -40 0 -92 c0 -72 -4 -98 -17
-117 -10 -13 -18 -41 -18 -62 0 -33 6 -42 51 -78 28 -22 57 -40 65 -40 8 0 24
-11 36 -25 12 -14 29 -25 39 -25 10 0 31 -11 47 -25 17 -14 35 -25 40 -25 18
0 70 -50 102 -96 20 -30 33 -66 39 -107 5 -34 17 -84 25 -112 9 -27 16 -65 16
-83 0 -18 9 -57 19 -87 11 -30 22 -91 26 -137 6 -75 5 -86 -13 -108 l-20 -25
-414 -3 c-227 -2 -464 1 -527 6 -111 9 -115 10 -143 41 -24 27 -28 40 -28 89
0 32 6 81 14 108 8 27 17 74 21 104 4 30 13 66 20 80 7 14 16 40 20 59 8 38
48 100 98 153 19 21 37 41 39 45 1 5 26 25 54 47 94 70 99 124 20 218 -79 94
-116 160 -116 208 0 37 27 89 72 140 27 29 44 39 81 44 27 4 62 14 80 21 41
18 65 18 99 1z"/>
</g>
</svg>
