<svg version="1.0" xmlns="http://www.w3.org/2000/svg"
 width="668px" style="transform:scale(1,1.001);" height="375.75px" viewBox="0 0 320.000000 180.000000"
 preserveAspectRatio="xMidYMid meet">
<g transform="translate(0.000000,180.000000) scale(0.100000,-0.100000)"
fill="#000000" stroke="none">
<path d="M0 905 l0 -895 1600 0 1600 0 0 895 0 895 -675 0 -675 0 0 -22 c0 -13 8 -36
17 -53 19 -35 21 -137 3 -190 -13 -40 -72 -95 -101 -95 -45 0 -79 -34 -124
-121 -60 -115 -60 -152 -4 -257 23 -42 54 -93 69 -112 64 -84 100 -157 100
-203 0 -59 -20 -72 -96 -63 -30 3 -78 9 -106 12 -48 5 -56 3 -81 -20 -15 -14
-39 -26 -52 -26 -30 0 -86 -53 -104 -98 -17 -40 -35 -37 -39 8 -2 18 -10 40
-19 48 -13 14 -14 38 -9 171 4 86 7 170 8 186 1 17 -5 66 -13 110 -8 47 -13
128 -11 195 4 150 2 157 -51 171 -23 6 -47 15 -54 21 -7 5 -32 16 -55 22 -57
17 -95 71 -104 146 -6 51 -4 57 25 90 17 19 31 45 31 58 l0 22 -540 0 -540 0
0 -895z"/>
<path d="M1185 1789 c4 -6 -1 -31 -10 -55 -20 -52 -15 -79 20 -116 29 -32 74 -37 115
-13 14 8 37 14 52 15 35 0 78 20 78 35 0 7 -7 29 -15 48 -8 20 -15 50 -15 67
l0 30 -116 0 c-80 0 -113 -3 -109 -11z"/>
<path d="M1670 1766 c0 -18 -7 -50 -15 -71 -19 -45 -12 -56 50 -74 42 -12 47 -12 60 5
18 24 18 49 0 101 -8 23 -12 49 -9 58 5 12 -3 15 -40 15 -46 0 -46 0 -46 -34z"/>
</g>
</svg>
