<svg version="1.0" xmlns="http://www.w3.org/2000/svg"
 width="668px" style="transform:scale(1,1.001);" height="375.75px" viewBox="0 0 320.000000 180.000000"
 preserveAspectRatio="xMidYMid meet">
<g transform="translate(0.000000,180.000000) scale(0.100000,-0.100000)"
fill="#000000" stroke="none">
<path d="M0 905 l0 -895 528 0 528 0 2 176 c2 97 5 181 9 187 3 5 12 51 19 101 20 148
34 202 95 371 66 185 77 225 57 224 -26 -2 -76 -76 -103 -153 -43 -127 -67
-150 -106 -103 -36 43 -17 163 47 288 15 30 37 86 50 125 12 39 38 102 57 140
19 38 37 86 40 106 8 51 59 123 97 136 l30 11 0 90 0 91 -675 0 -675 0 0 -895z"/>
<path d="M1620 1783 c0 -10 9 -49 19 -86 18 -65 40 -96 70 -97 7 0 34 -20 59 -46 l46
-45 8 -167 c9 -193 18 -263 42 -312 20 -41 61 -101 80 -115 7 -6 17 -25 20
-43 l8 -32 -59 -1 c-32 -1 -67 0 -78 1 -24 2 -72 45 -91 83 -25 46 -38 33 -31
-30 6 -58 59 -278 77 -320 25 -60 65 -374 62 -495 l-2 -68 675 0 675 0 0 895
0 895 -790 0 c-746 0 -790 -1 -790 -17z"/>
<path d="M1420 712 c-19 -21 -44 -56 -54 -77 -10 -22 -23 -47 -27 -55 -5 -8 -14 -26
-20 -40 -6 -14 -16 -32 -23 -40 -8 -8 -17 -33 -21 -55 -4 -22 -10 -44 -15 -50
-4 -5 -13 -37 -20 -70 -7 -33 -16 -67 -21 -77 -5 -9 -13 -51 -19 -95 -5 -43
-13 -93 -16 -110 l-6 -33 272 0 272 0 -5 28 c-18 103 -69 338 -77 353 -6 10
-10 25 -10 34 0 8 -25 66 -55 129 -30 62 -55 117 -55 122 0 9 -55 74 -62 74
-2 0 -19 -17 -38 -38z"/>
</g>
</svg>
