<svg version="1.0" xmlns="http://www.w3.org/2000/svg"
 width="668px" style="transform:scale(1,1.001);" height="375.75px" viewBox="0 0 320.000000 180.000000"
 preserveAspectRatio="xMidYMid meet">
<g transform="translate(0.000000,180.000000) scale(0.100000,-0.100000)"
fill="#000000" stroke="none">
<path d="M0 905 l0 -895 360 0 360 0 0 25 c0 14 -5 25 -10 25 -6 0 -19 15 -30 32 -38
63 -22 171 40 263 15 22 36 54 46 71 11 17 39 59 64 92 89 121 125 175 137
204 7 17 29 57 49 89 19 32 46 89 59 126 52 148 91 204 164 236 29 13 119 99
146 140 9 14 30 29 45 32 32 7 80 60 102 113 22 53 109 156 168 199 56 40 161
93 186 93 8 0 14 10 14 25 l0 25 -950 0 -950 0 0 -895z"/>
<path d="M2130 1775 c0 -15 6 -25 14 -25 17 0 144 -60 216 -103 39 -23 63 -47 85 -84
16 -28 39 -63 50 -79 15 -22 21 -48 24 -116 4 -105 -1 -127 -34 -166 -14 -17
-31 -45 -37 -64 -6 -18 -24 -49 -40 -68 -34 -42 -40 -116 -10 -143 33 -30 75
-32 118 -3 22 14 58 32 81 40 l43 15 6 -26 c4 -14 2 -34 -5 -45 -6 -10 -9 -23
-7 -27 3 -5 -4 -17 -15 -27 -40 -37 -50 -68 -38 -126 26 -128 43 -161 135
-252 24 -23 44 -55 49 -74 4 -19 20 -49 36 -67 54 -62 62 -210 13 -256 -13
-12 -24 -33 -24 -46 l0 -23 205 0 205 0 0 895 0 895 -535 0 -535 0 0 -25z"/>
<path d="M1514 1236 c-10 -25 1 -185 13 -197 14 -14 75 -21 91 -11 10 7 11 23 2 78 -13
81 -20 108 -27 100 -3 -3 -21 6 -39 21 -30 22 -35 23 -40 9z"/>
<path d="M1143 63 c-27 -4 -33 -9 -33 -29 0 -24 1 -24 95 -24 94 0 95 0 95 24 0 13 -7
27 -16 30 -16 6 -86 6 -141 -1z"/>
</g>
</svg>
