<svg version="1.0" xmlns="http://www.w3.org/2000/svg"
 width="668px" style="transform:scale(1,1.001);" height="375.75px" viewBox="0 0 320.000000 180.000000"
 preserveAspectRatio="xMidYMid meet">
<g transform="translate(0.000000,180.000000) scale(0.100000,-0.100000)"
fill="#000000" stroke="none">
<path d="M0 905 l0 -895 615 0 615 0 0 50 c0 47 2 51 40 75 49 31 57 31 90 0 24 -23 26
-32 22 -75 l-5 -50 193 0 193 0 -6 50 c-12 96 29 125 108 79 39 -23 55 -52 55
-100 l0 -29 640 0 640 0 0 895 0 895 -1600 0 -1600 0 0 -895z m1666 754 c81
-21 112 -91 83 -190 -10 -31 -9 -44 5 -72 18 -38 32 -47 79 -47 27 0 46 -15
131 -102 l99 -102 -6 -75 c-5 -79 -38 -163 -92 -239 -14 -19 -39 -71 -56 -115
-31 -81 -32 -83 -20 -162 25 -163 25 -198 3 -225 -18 -23 -27 -25 -99 -25 -55
0 -87 5 -108 17 -77 44 -74 43 -124 24 -63 -24 -231 -58 -257 -52 -41 11 -45
82 -8 152 123 228 130 247 109 297 -16 38 -23 42 -97 52 -29 4 -60 17 -83 35
-20 16 -44 32 -54 35 -9 3 -36 34 -59 69 -49 75 -57 134 -22 171 34 36 61 22
95 -47 27 -56 35 -63 80 -80 87 -32 105 -16 105 95 0 75 24 121 94 184 31 27
61 63 67 81 12 34 -1 61 -58 123 -62 68 -28 161 68 190 68 21 71 21 125 8z"/>
</g>
</svg>
