<svg version="1.0" xmlns="http://www.w3.org/2000/svg"
 width="668px" style="transform:scale(1,1.001);" height="375.75px" viewBox="0 0 320.000000 180.000000"
 preserveAspectRatio="xMidYMid meet">
<g transform="translate(0.000000,180.000000) scale(0.100000,-0.100000)"
fill="#000000" stroke="none">
<path d="M0 905 l0 -895 1600 0 1600 0 0 895 0 895 -1600 0 -1600 0 0 -895z m1809 714
c61 -45 81 -60 100 -82 9 -10 29 -32 44 -49 28 -29 29 -33 25 -111 -2 -70 -7
-87 -29 -117 -15 -19 -29 -47 -33 -62 -3 -14 -17 -40 -31 -56 -32 -39 -36
-126 -6 -164 21 -26 127 -82 176 -93 35 -8 126 -51 169 -80 66 -45 175 -163
185 -202 6 -21 21 -53 35 -71 13 -18 27 -48 30 -67 4 -19 16 -55 27 -80 19
-43 19 -48 4 -71 -21 -32 -60 -47 -99 -38 -17 4 -87 6 -155 5 -68 -1 -149 3
-180 9 -43 7 -541 16 -1153 20 -9 0 -23 7 -31 15 -16 16 -12 44 17 120 8 22
15 51 16 65 0 35 69 169 111 217 19 22 69 59 112 84 43 24 108 61 145 82 36
21 76 40 89 43 24 6 63 64 63 93 0 26 -45 124 -64 140 -9 8 -19 31 -22 53 -4
21 -19 54 -35 74 -19 24 -30 52 -34 87 -10 83 -7 88 151 216 69 56 86 61 228
56 93 -3 101 -5 145 -36z"/>
</g>
</svg>
