<svg version="1.0" xmlns="http://www.w3.org/2000/svg"
 width="668px" style="transform:scale(1,1.001);" height="375.75px" viewBox="0 0 320.000000 180.000000"
 preserveAspectRatio="xMidYMid meet">
<g transform="translate(0.000000,180.000000) scale(0.100000,-0.100000)"
fill="#000000" stroke="none">
<path d="M0 905 l0 -895 795 0 795 0 0 21 c0 11 -9 28 -19 37 -39 34 -52 108 -53 301
l-1 181 -38 50 c-21 28 -40 67 -44 90 -4 22 -23 65 -44 97 -81 126 -90 197
-39 300 17 35 41 72 53 81 12 10 25 28 29 40 10 30 115 138 143 146 12 4 36
24 52 45 28 35 30 41 20 72 -7 19 -19 43 -29 54 -9 11 -24 38 -34 61 -14 33
-16 48 -7 80 6 22 17 48 25 59 9 11 16 32 16 48 l0 27 -810 0 -810 0 0 -895z"/>
<path d="M1870 1779 c0 -12 11 -34 25 -51 29 -34 33 -92 13 -177 -11 -48 -10 -52 17
-87 15 -20 43 -43 62 -51 44 -18 99 -70 112 -107 6 -15 11 -61 11 -103 0 -65
-5 -86 -35 -153 -19 -43 -35 -87 -35 -98 0 -12 9 -64 21 -116 20 -91 20 -99 5
-159 -10 -38 -16 -106 -16 -168 0 -70 -8 -147 -25 -234 -14 -72 -25 -140 -25
-151 0 -12 -9 -33 -20 -47 -11 -14 -20 -35 -20 -46 l0 -21 620 0 620 0 0 895
0 895 -665 0 -665 0 0 -21z"/>
</g>
</svg>
