<svg version="1.0" xmlns="http://www.w3.org/2000/svg"
 width="668px" style="transform:scale(1,1.001);" height="375.75px" viewBox="0 0 320.000000 180.000000"
 preserveAspectRatio="xMidYMid meet">
<g transform="translate(0.000000,180.000000) scale(0.100000,-0.100000)"
fill="#000000" stroke="none">
<path d="M0 905 l0 -895 1600 0 1600 0 0 895 0 895 -1600 0 -1600 0 0 -895z m1580 791
c14 -8 43 -23 65 -34 22 -11 56 -36 75 -56 35 -37 35 -38 35 -124 0 -80 -3
-92 -33 -143 -17 -31 -32 -68 -32 -83 0 -32 61 -94 102 -103 15 -3 37 -16 49
-29 12 -13 31 -24 40 -24 10 0 32 -13 49 -30 17 -16 37 -30 45 -30 12 0 69
-62 88 -96 4 -6 18 -72 32 -145 14 -74 35 -170 45 -214 11 -44 22 -116 26
-160 6 -69 4 -83 -12 -102 l-19 -23 -541 -2 c-512 -3 -543 -2 -562 15 -11 10
-23 33 -26 52 -9 48 11 281 28 313 7 15 16 44 20 65 17 94 100 203 262 345 49
43 49 44 49 105 0 55 -5 70 -43 134 -50 84 -68 163 -53 220 11 39 73 113 95
113 7 0 27 11 46 25 27 20 46 25 89 25 31 0 67 -7 81 -14z"/>
</g>
</svg>
