<svg version="1.0" xmlns="http://www.w3.org/2000/svg"
 width="668px" style="transform:scale(1,1.001);" height="375.75px" viewBox="0 0 320.000000 180.000000"
 preserveAspectRatio="xMidYMid meet">
<g transform="translate(0.000000,180.000000) scale(0.100000,-0.100000)"
fill="#000000" stroke="none">
<path d="M0 905 l0 -895 1600 0 1600 0 0 895 0 895 -1600 0 -1600 0 0 -895z m1581 618
c47 -40 50 -44 48 -103 -1 -31 1 -62 5 -69 4 -6 27 -11 52 -11 32 0 49 -6 62
-20 9 -12 37 -31 60 -43 62 -31 85 -84 66 -154 -6 -20 -13 -23 -58 -23 -100 0
-99 4 -104 -445 -3 -324 -2 -376 12 -409 20 -49 21 -129 1 -146 -9 -8 -27 -10
-47 -6 -41 8 -63 53 -73 146 -9 89 -42 236 -64 285 -33 75 -72 82 -91 17 -23
-81 -22 -107 3 -182 64 -195 68 -221 34 -264 -20 -24 -33 -30 -81 -34 -47 -4
-59 -1 -71 14 -11 16 -10 26 6 69 10 27 19 58 19 67 0 10 -18 62 -40 117 -56
140 -54 230 10 401 15 41 34 91 41 110 14 40 24 178 15 226 -6 28 -11 32 -44
36 -46 6 -89 -8 -122 -38 -29 -27 -70 -39 -104 -30 -41 10 -57 100 -25 141 4
6 9 26 11 45 l3 35 116 6 c141 8 153 11 178 52 18 30 19 36 6 72 -21 59 -18
90 11 124 23 28 31 31 85 31 41 0 65 -5 80 -17z"/>
<path d="M1148 1193 c6 -2 18 -2 25 0 6 3 1 5 -13 5 -14 0 -19 -2 -12 -5z"/>
</g>
</svg>
