<svg version="1.0" xmlns="http://www.w3.org/2000/svg"
 width="668px" style="transform:scale(1,1.001);" height="375.75px" viewBox="0 0 320.000000 180.000000"
 preserveAspectRatio="xMidYMid meet">
<g transform="translate(0.000000,180.000000) scale(0.100000,-0.100000)"
fill="#000000" stroke="none">
<path d="M0 905 l0 -895 795 0 795 0 0 24 c0 13 -7 29 -14 36 -24 19 -37 108 -35 236 1
65 0 129 -2 142 -4 28 -31 29 -84 2 -22 -11 -45 -20 -53 -20 -7 0 -11 -4 -7
-9 3 -6 -3 -14 -12 -20 -15 -8 -18 -22 -16 -83 1 -40 9 -107 17 -148 20 -99
16 -102 -106 -105 -113 -2 -128 6 -129 74 0 25 -4 66 -9 91 -41 215 -48 295
-31 328 5 9 12 25 15 34 3 10 20 20 40 23 20 4 41 17 50 30 11 17 29 25 68 30
29 4 69 13 88 21 19 7 60 20 92 29 31 9 61 21 66 28 17 22 23 66 10 76 -7 5
-32 27 -56 48 -42 37 -43 40 -49 115 -5 72 0 126 29 300 12 74 6 99 -43 173
-14 22 -29 53 -33 68 -10 40 9 97 44 135 29 30 36 32 96 32 62 0 66 -2 97 -36
41 -46 56 -86 56 -151 1 -64 14 -99 39 -107 18 -6 62 -67 95 -131 31 -62 57
-155 62 -227 4 -40 13 -115 22 -166 23 -139 5 -288 -43 -359 -28 -42 -81 -188
-99 -273 -7 -36 -13 -104 -13 -152 l-1 -88 730 0 729 0 0 895 0 895 -1600 0
-1600 0 0 -895z"/>
</g>
</svg>
