<svg version="1.0" xmlns="http://www.w3.org/2000/svg"
 width="668px" style="transform:scale(1,1.001);" height="375.75px" viewBox="0 0 320.000000 180.000000"
 preserveAspectRatio="xMidYMid meet">
<g transform="translate(0.000000,180.000000) scale(0.100000,-0.100000)"
fill="#000000" stroke="none">
<path d="M0 905 l0 -895 1600 0 1600 0 0 895 0 895 -1600 0 -1600 0 0 -895z m1633 765
c67 -38 107 -79 116 -121 12 -51 -7 -188 -30 -220 -10 -15 -19 -37 -19 -49 0
-26 56 -100 74 -100 11 0 53 -29 102 -69 6 -5 26 -17 45 -26 30 -16 81 -52
101 -73 38 -38 58 -69 58 -87 0 -13 7 -40 16 -61 9 -22 21 -74 25 -117 5 -43
16 -94 24 -114 8 -19 15 -56 15 -82 0 -25 7 -75 16 -111 8 -36 12 -76 9 -89
-13 -53 -1 -52 -467 -53 -523 -1 -668 5 -685 29 -18 24 -18 273 0 316 8 18 17
49 21 71 4 21 16 55 27 75 10 20 19 42 19 49 0 7 13 32 29 55 35 51 170 187
186 187 6 0 25 16 43 35 39 40 49 89 28 125 -8 14 -20 35 -25 47 -6 13 -28 45
-50 73 -67 84 -68 184 -3 245 39 35 99 78 123 88 8 3 44 6 82 6 57 1 75 -3
120 -29z"/>
</g>
</svg>
