<svg version="1.0" xmlns="http://www.w3.org/2000/svg"
 width="668px" style="transform:scale(1,1.001);" height="375.75px" viewBox="0 0 320.000000 180.000000"
 preserveAspectRatio="xMidYMid meet">
<g transform="translate(0.000000,180.000000) scale(0.100000,-0.100000)"
fill="#000000" stroke="none">
<path d="M0 905 l0 -895 1600 0 1600 0 0 895 0 895 -1600 0 -1600 0 0 -895z m1735 775
c33 -16 65 -30 72 -30 6 0 26 -21 43 -46 39 -59 48 -122 25 -184 -49 -135 -57
-162 -50 -187 6 -26 91 -113 110 -113 6 0 25 -13 43 -30 18 -16 39 -30 47 -30
20 0 125 -120 131 -150 3 -14 12 -40 20 -58 7 -18 18 -73 24 -123 6 -50 15
-100 21 -111 14 -27 31 -214 24 -260 -6 -31 -12 -39 -38 -46 -18 -6 -258 -11
-554 -12 -458 -1 -525 0 -552 14 -17 9 -35 25 -41 35 -14 28 -12 126 3 164 8
18 17 66 21 107 4 41 14 85 21 97 8 12 17 40 21 62 4 22 17 55 30 73 13 17 24
38 24 45 0 17 114 133 165 167 126 84 151 115 142 173 -4 20 -18 52 -32 72
-14 21 -25 42 -25 49 0 7 -4 12 -9 12 -11 0 -51 97 -52 130 -3 47 64 138 119
159 17 8 32 17 32 21 0 14 53 28 105 29 37 1 67 -7 110 -29z"/>
</g>
</svg>
