<svg version="1.0" xmlns="http://www.w3.org/2000/svg"
 width="668px" style="transform:scale(1,1.001);" height="375.75px" viewBox="0 0 320.000000 180.000000"
 preserveAspectRatio="xMidYMid meet">
<g transform="translate(0.000000,180.000000) scale(0.100000,-0.100000)"
fill="#000000" stroke="none">
<path d="M0 905 l0 -895 543 0 542 0 1 123 c1 121 22 254 48 307 7 14 16 42 19 64 7 42
33 113 84 223 29 63 34 87 43 209 7 76 12 141 13 144 4 14 -35 90 -47 90 -7 0
-25 -9 -39 -20 -33 -26 -83 -26 -97 -1 -5 11 -10 59 -10 108 -1 126 -20 207
-63 273 -28 40 -37 65 -37 95 0 57 10 67 60 63 40 -3 46 -7 68 -47 13 -24 28
-70 32 -102 8 -59 38 -108 82 -137 21 -14 55 -3 104 34 38 30 42 50 19 114
-24 69 -20 107 17 142 42 39 74 51 118 43 79 -15 148 -107 135 -179 -12 -60
31 -116 89 -116 14 0 41 -13 59 -30 34 -29 78 -39 103 -22 7 4 26 32 42 62 44
79 81 79 102 -2 9 -32 7 -54 -9 -118 -12 -44 -21 -99 -21 -122 0 -53 -29 -103
-65 -112 -21 -5 -37 0 -66 19 -22 14 -39 30 -39 35 0 15 -51 33 -63 21 -5 -5
-15 -42 -23 -82 -7 -41 -18 -96 -24 -124 -12 -58 -5 -115 21 -167 11 -21 19
-45 19 -55 0 -10 13 -43 30 -73 16 -30 34 -66 40 -80 16 -38 25 -60 53 -120
38 -83 67 -179 67 -224 0 -23 5 -61 11 -86 6 -25 11 -69 10 -97 l-2 -53 616 0
615 0 0 895 0 895 -1600 0 -1600 0 0 -895z"/>
<path d="M1463 566 c-49 -34 -88 -93 -166 -251 -38 -78 -48 -104 -58 -160 -6 -32 -17
-68 -25 -79 -8 -11 -14 -31 -14 -43 l0 -23 315 0 c307 0 315 1 315 20 0 10 -6
34 -14 52 -8 18 -20 58 -26 88 -31 135 -95 257 -170 324 -17 14 -30 30 -30 34
0 9 -77 62 -88 62 -4 -1 -22 -11 -39 -24z"/>
</g>
</svg>
