<svg version="1.0" xmlns="http://www.w3.org/2000/svg"
 width="668px" style="transform:scale(1,1.001);" height="375.75px" viewBox="0 0 320.000000 180.000000"
 preserveAspectRatio="xMidYMid meet">
<g transform="translate(0.000000,180.000000) scale(0.100000,-0.100000)"
fill="#000000" stroke="none">
<path d="M0 905 l0 -895 590 0 c587 0 590 0 590 20 0 12 -8 32 -17 47 -27 41 -22 119
12 179 16 27 34 60 42 74 8 14 30 45 49 70 50 65 74 119 74 168 0 52 -12 53
-64 6 -76 -68 -106 -20 -55 88 17 37 20 51 11 60 -9 9 -20 3 -46 -25 -18 -20
-39 -37 -45 -37 -16 0 -24 26 -17 53 6 26 120 146 156 165 25 13 80 89 80 111
0 6 4 19 9 29 5 9 19 42 31 72 13 30 36 82 51 114 16 33 29 65 29 71 0 13 -47
107 -75 149 -13 20 -19 47 -19 83 0 51 2 56 44 93 72 64 122 65 196 2 49 -41
65 -88 57 -169 -5 -48 -3 -56 30 -102 94 -130 133 -276 117 -436 -5 -49 -14
-163 -19 -253 -9 -156 -11 -166 -42 -220 -17 -31 -39 -66 -49 -77 -10 -11 -30
-62 -44 -113 -22 -76 -25 -104 -20 -157 l7 -65 768 0 769 0 0 895 0 895 -1600
0 -1600 0 0 -895z"/>
<path d="M1373 158 c-13 -17 -43 -107 -43 -130 0 -16 9 -18 75 -18 83 0 85 2 64 69 -28
88 -30 91 -59 91 -15 0 -32 -6 -37 -12z"/>
</g>
</svg>
