<svg version="1.0" xmlns="http://www.w3.org/2000/svg"
 width="668px" style="transform:scale(1,1.001);" height="375.75px" viewBox="0 0 320.000000 180.000000"
 preserveAspectRatio="xMidYMid meet">
<g transform="translate(0.000000,180.000000) scale(0.100000,-0.100000)"
fill="#000000" stroke="none">
<path d="M0 905 l0 -895 650 0 650 0 0 28 c0 16 6 51 14 78 8 27 16 85 19 129 3 44 20
136 37 205 30 121 31 126 16 185 -8 33 -18 81 -21 107 -4 26 -13 55 -20 64
-11 16 -14 16 -44 -5 -17 -12 -31 -28 -31 -34 0 -7 -8 -17 -17 -23 -10 -6 -28
-32 -41 -58 -27 -54 -52 -61 -52 -14 0 17 6 39 13 47 36 43 90 211 68 211 -5
0 -36 -27 -68 -59 -47 -47 -63 -57 -76 -49 -9 5 -17 18 -17 29 0 31 28 89 43
89 22 0 70 68 116 165 24 50 58 119 75 155 17 35 53 87 81 115 l50 50 5 98 c6
113 9 117 91 117 85 0 92 -9 97 -126 l4 -99 51 -48 51 -48 8 -172 c5 -95 12
-183 17 -197 27 -71 20 -218 -10 -213 -31 6 -43 -38 -47 -172 -3 -139 -5 -147
-64 -273 -44 -94 -45 -132 -1 -168 18 -15 27 -35 30 -68 l6 -46 758 0 759 0 0
895 0 895 -1600 0 -1600 0 0 -895z"/>
<path d="M1453 63 c-7 -2 -13 -16 -13 -29 0 -23 2 -24 75 -24 73 0 75 1 75 25 0 23 -3
25 -49 25 -27 0 -55 2 -63 4 -7 3 -19 2 -25 -1z"/>
</g>
</svg>
