<svg version="1.0" xmlns="http://www.w3.org/2000/svg"
 width="668px" style="transform:scale(1,1.001);" height="375.75px" viewBox="0 0 320.000000 180.000000"
 preserveAspectRatio="xMidYMid meet">
<g transform="translate(0.000000,180.000000) scale(0.100000,-0.100000)"
fill="#000000" stroke="none">
<path d="M0 905 l0 -895 1600 0 1600 0 0 895 0 895 -1600 0 -1600 0 0 -895z m1832 755
c41 -42 48 -56 48 -89 0 -21 -11 -63 -25 -93 -14 -29 -25 -63 -25 -76 0 -28
38 -68 83 -87 37 -16 78 -57 101 -102 36 -72 11 -297 -50 -440 -37 -86 -38
-92 -44 -253 -4 -91 -11 -172 -14 -182 -4 -9 -17 -19 -29 -22 -38 -9 -388 -6
-407 4 -15 8 -18 30 -24 157 -4 81 -14 172 -23 201 -14 51 -14 58 8 132 21 73
21 84 11 179 -15 126 -15 192 -1 228 13 35 72 97 122 129 31 20 37 30 37 58 0
19 -9 55 -20 81 -55 128 7 224 144 225 59 0 61 -1 108 -50z"/>
</g>
</svg>
