<svg version="1.0" xmlns="http://www.w3.org/2000/svg"
 width="668px" style="transform:scale(1,1.001);" height="375.75px" viewBox="0 0 320.000000 180.000000"
 preserveAspectRatio="xMidYMid meet">
<g transform="translate(0.000000,180.000000) scale(0.100000,-0.100000)"
fill="#000000" stroke="none">
<path d="M0 905 l0 -895 1600 0 1600 0 0 895 0 895 -1600 0 -1600 0 0 -895z m1947 707
c116 -32 189 -95 228 -197 l22 -60 -24 -75 c-13 -41 -30 -82 -38 -90 -7 -8
-20 -31 -30 -50 -9 -19 -25 -51 -36 -70 -22 -40 -24 -94 -6 -129 14 -28 84
-72 143 -91 53 -17 137 -64 167 -94 36 -36 93 -154 100 -210 4 -26 14 -69 23
-95 21 -57 13 -115 -19 -135 -18 -12 -103 -16 -432 -21 -225 -3 -437 -6 -470
-7 -118 -2 -420 9 -437 16 -10 5 -20 17 -23 27 -12 36 7 153 32 209 14 30 35
75 46 100 21 46 120 150 142 150 7 0 24 9 38 20 15 12 57 31 95 44 91 31 126
50 152 83 19 24 21 36 16 88 -3 34 -16 81 -31 109 -14 27 -25 59 -25 71 0 12
-9 34 -21 49 -24 30 -61 153 -49 161 5 3 11 18 15 33 7 32 112 123 189 164 60
32 114 32 233 0z"/>
</g>
</svg>
