<svg version="1.0" xmlns="http://www.w3.org/2000/svg"
 width="668px" style="transform:scale(1,1.001);" height="375.75px" viewBox="0 0 320.000000 180.000000"
 preserveAspectRatio="xMidYMid meet">
<g transform="translate(0.000000,180.000000) scale(0.100000,-0.100000)"
fill="#000000" stroke="none">
<path d="M0 905 l0 -895 479 0 479 0 4 58 c3 45 13 73 48 132 24 41 54 89 66 105 12 17
45 80 73 140 29 61 61 126 72 145 74 129 74 128 73 340 -1 130 -5 203 -13 218
-13 25 -47 29 -70 8 -9 -8 -38 -21 -64 -27 -41 -12 -49 -11 -63 3 -36 36 15
129 89 163 12 6 42 22 67 36 25 15 68 29 97 32 77 9 93 20 93 67 0 22 -5 60
-12 85 -16 59 5 123 47 144 41 20 160 -1 196 -35 14 -13 30 -24 35 -24 21 0
44 -37 44 -69 0 -17 -7 -48 -16 -69 -19 -44 -21 -97 -4 -117 7 -8 30 -20 52
-25 23 -7 57 -29 83 -54 77 -77 69 -142 -27 -211 -42 -31 -47 -39 -58 -92 -6
-32 -16 -72 -21 -88 -21 -70 -8 -227 22 -260 5 -5 9 -17 9 -26 0 -10 6 -24 14
-32 8 -7 28 -42 45 -78 17 -35 35 -71 40 -79 5 -8 17 -35 27 -59 25 -59 25
-218 0 -255 -9 -14 -16 -37 -16 -51 l0 -25 655 0 655 0 0 895 0 895 -1600 0
-1600 0 0 -895z"/>
<path d="M1417 428 c-21 -24 -61 -72 -89 -108 -57 -72 -71 -89 -120 -140 -71 -75 -108
-126 -108 -147 l0 -23 331 0 331 0 -6 32 c-4 18 -11 67 -15 108 -6 66 -13 84
-53 145 -25 39 -67 94 -93 123 -44 49 -50 52 -94 52 -43 0 -51 -4 -84 -42z"/>
</g>
</svg>
