<svg version="1.0" xmlns="http://www.w3.org/2000/svg"
 width="668px" style="transform:scale(1,1.001);" height="375.75px" viewBox="0 0 320.000000 180.000000"
 preserveAspectRatio="xMidYMid meet">
<g transform="translate(0.000000,180.000000) scale(0.100000,-0.100000)"
fill="#000000" stroke="none">
<path d="M0 905 l0 -895 625 0 625 0 0 23 c0 12 -7 31 -15 41 -21 27 -19 45 11 102 14
27 28 74 30 104 6 61 -11 104 -77 191 -19 25 -45 69 -58 99 -13 30 -32 75 -43
98 -25 55 -20 92 22 161 18 29 32 63 32 76 1 13 -16 51 -37 84 -47 79 -74 189
-77 312 -2 89 0 98 25 130 15 20 52 48 82 63 48 25 63 28 129 24 51 -2 80 -9
93 -20 10 -9 29 -19 43 -23 37 -9 80 -68 97 -132 13 -49 12 -59 -3 -101 -10
-26 -23 -54 -31 -63 -20 -24 -28 -79 -11 -79 8 0 29 -11 47 -24 18 -14 52 -28
74 -32 23 -3 53 -15 67 -24 14 -10 42 -21 63 -25 25 -5 54 -24 91 -59 30 -28
63 -58 73 -67 10 -9 36 -37 58 -63 22 -25 63 -69 91 -97 59 -58 81 -113 70
-181 -7 -45 -52 -166 -67 -183 -19 -20 -9 -67 25 -108 58 -72 76 -118 69 -176
l-6 -51 542 0 541 0 0 895 0 895 -1600 0 -1600 0 0 -895z"/>
</g>
</svg>
