<svg version="1.0" xmlns="http://www.w3.org/2000/svg"
 width="668px" style="transform:scale(1,1.001);" height="375.75px" viewBox="0 0 320.000000 180.000000"
 preserveAspectRatio="xMidYMid meet">
<g transform="translate(0.000000,180.000000) scale(0.100000,-0.100000)"
fill="#000000" stroke="none">
<path d="M0 905 l0 -895 640 0 640 0 0 25 c0 14 -4 25 -9 25 -16 0 -23 32 -37 160 -8
69 -20 157 -27 195 -11 60 -16 70 -35 73 -14 2 -32 -7 -49 -26 -44 -46 -159
-139 -181 -146 -28 -9 -69 -74 -76 -121 -14 -84 -18 -95 -47 -116 -25 -18 -34
-19 -63 -9 -63 21 -77 120 -30 219 80 170 118 235 184 311 80 92 110 138 178
272 62 122 76 143 122 177 29 22 67 42 85 45 34 7 68 42 112 116 22 37 23 95
2 170 -14 55 -11 97 13 153 40 98 94 137 185 137 47 0 66 -6 103 -30 59 -39
130 -102 130 -116 0 -6 9 -21 20 -34 19 -22 25 -54 20 -109 -3 -35 -55 -103
-98 -126 -29 -16 -38 -27 -40 -51 -3 -27 4 -38 48 -75 97 -83 130 -119 165
-186 19 -36 35 -80 35 -97 0 -18 7 -56 16 -86 10 -37 17 -114 21 -232 5 -173
5 -178 -23 -265 -28 -87 -71 -166 -106 -191 -10 -7 -18 -24 -18 -38 l0 -24
660 0 660 0 0 895 0 895 -1600 0 -1600 0 0 -895z"/>
</g>
</svg>
