<svg version="1.0" xmlns="http://www.w3.org/2000/svg"
 width="668px" style="transform:scale(1,1.001);" height="375.75px" viewBox="0 0 320.000000 180.000000"
 preserveAspectRatio="xMidYMid meet">
<g transform="translate(0.000000,180.000000) scale(0.100000,-0.100000)"
fill="#000000" stroke="none">
<path d="M0 905 l0 -895 1600 0 1600 0 0 895 0 895 -1600 0 -1600 0 0 -895z m1897 722
c94 -44 158 -102 197 -178 28 -53 12 -114 -69 -260 -25 -46 -53 -104 -61 -131
-15 -45 -15 -49 9 -101 25 -55 76 -99 150 -131 69 -30 197 -176 197 -226 0
-11 9 -42 20 -70 38 -97 15 -197 -50 -216 -14 -4 -284 -7 -600 -5 -534 2 -577
4 -600 20 -36 26 -46 62 -33 119 47 203 69 236 228 348 17 11 69 39 116 62 94
45 125 74 135 130 9 45 -11 147 -37 188 -10 17 -19 40 -19 50 0 11 -9 33 -20
51 -34 56 -53 139 -41 176 19 57 170 187 232 200 54 12 198 -3 246 -26z"/>
</g>
</svg>
