<svg version="1.0" xmlns="http://www.w3.org/2000/svg"
 width="668px" style="transform:scale(1,1.001);" height="375.75px" viewBox="0 0 320.000000 180.000000"
 preserveAspectRatio="xMidYMid meet">
<g transform="translate(0.000000,180.000000) scale(0.100000,-0.100000)"
fill="#000000" stroke="none">
<path d="M0 905 l0 -895 754 0 753 0 7 49 c4 28 13 62 21 78 8 15 15 34 15 41 0 7 16
35 35 62 19 27 35 56 35 65 0 8 9 19 19 25 11 5 22 22 26 37 3 16 18 49 33 75
15 25 41 70 58 100 17 29 43 84 59 121 l29 69 -17 81 c-9 45 -19 114 -23 152
-10 103 -14 109 -81 128 -79 23 -172 62 -190 80 -8 8 -17 37 -19 63 -3 27 -9
85 -15 129 -14 95 -1 176 38 243 21 36 30 42 57 42 39 0 76 -31 76 -64 0 -13
-7 -39 -15 -59 -41 -98 -34 -206 15 -222 57 -18 190 45 175 83 -4 9 -19 50
-33 90 l-25 73 21 29 c12 16 22 34 22 39 0 25 50 43 106 39 51 -4 58 -8 99
-54 43 -48 44 -51 45 -119 0 -63 3 -74 28 -101 25 -28 35 -31 107 -37 64 -5
83 -10 97 -26 11 -14 28 -21 52 -21 l36 0 0 49 c0 28 -4 52 -9 56 -5 3 -15 22
-22 42 -7 21 -18 44 -26 51 -8 9 -13 29 -11 50 2 28 10 38 37 53 20 11 41 15
53 10 18 -6 53 -78 77 -156 5 -16 23 -66 40 -110 45 -117 40 -186 -17 -232
-10 -8 -48 -13 -101 -13 -47 0 -91 -4 -98 -8 -33 -21 -43 -93 -49 -361 -6
-228 -5 -274 9 -316 8 -28 18 -91 22 -141 3 -51 13 -113 21 -140 8 -26 14 -64
14 -86 l0 -38 430 0 430 0 0 895 0 895 -1600 0 -1600 0 0 -895z"/>
<path d="M1950 350 c0 -5 -54 -65 -120 -132 -67 -68 -130 -132 -140 -143 -11 -12 -20
-31 -20 -43 l0 -22 235 0 c232 0 235 0 235 21 0 11 -9 32 -20 46 -11 14 -22
41 -26 62 -4 20 -10 41 -15 47 -5 6 -13 34 -20 62 -6 29 -14 52 -19 52 -5 0
-12 10 -16 23 -4 12 -12 25 -18 29 -16 11 -56 10 -56 -2z"/>
</g>
</svg>
