<svg version="1.0" xmlns="http://www.w3.org/2000/svg"
 width="668px" style="transform:scale(1,1.001);" height="375.75px" viewBox="0 0 320.000000 180.000000"
 preserveAspectRatio="xMidYMid meet">
<g transform="translate(0.000000,180.000000) scale(0.100000,-0.100000)"
fill="#000000" stroke="none">
<path d="M0 905 l0 -895 586 0 586 0 -7 32 c-4 18 -9 118 -10 221 -2 104 -6 200 -10
214 -6 24 -9 25 -65 21 -36 -3 -66 -11 -78 -21 -10 -9 -49 -24 -87 -32 -39 -9
-77 -23 -86 -31 -9 -8 -34 -20 -55 -25 -22 -6 -51 -24 -66 -40 -15 -16 -33
-29 -41 -29 -8 0 -20 -7 -27 -15 -7 -8 -33 -24 -58 -35 -26 -12 -53 -27 -62
-34 -8 -7 -32 -17 -54 -20 -21 -4 -48 -18 -61 -32 -12 -13 -29 -24 -37 -24 -9
0 -35 -7 -58 -15 -76 -27 -131 5 -202 116 -22 35 -14 131 14 156 18 16 20 16
48 -1 34 -20 149 -32 204 -22 21 4 46 18 58 31 11 13 33 27 49 30 15 4 45 20
65 36 20 16 44 29 53 29 19 0 130 69 149 93 7 9 30 18 51 22 23 4 50 18 66 35
15 16 40 32 55 35 16 3 35 14 44 24 9 10 50 35 91 56 l75 38 50 102 c49 100
54 128 25 139 -24 9 -98 -23 -160 -69 -70 -53 -91 -61 -110 -45 -22 18 -19 90
5 120 11 14 20 30 20 37 0 19 51 73 85 91 65 34 131 76 158 101 15 14 58 46
94 71 88 60 93 68 65 125 -26 53 -29 129 -8 179 12 28 20 34 57 39 42 5 105
-2 141 -18 37 -15 52 -57 56 -155 l4 -95 47 -53 c45 -52 77 -100 102 -152 21
-42 15 -168 -9 -221 -12 -26 -26 -68 -32 -95 -6 -27 -17 -55 -24 -64 -7 -8
-20 -35 -30 -60 -12 -31 -34 -59 -71 -90 -30 -25 -57 -54 -61 -65 -3 -11 -16
-42 -29 -70 -39 -85 -85 -213 -85 -238 0 -13 -12 -46 -26 -73 -15 -27 -30 -76
-35 -109 -5 -33 -11 -79 -15 -102 l-7 -43 932 0 931 0 0 895 0 895 -1600 0
-1600 0 0 -895z"/>
</g>
</svg>
