<svg version="1.0" xmlns="http://www.w3.org/2000/svg"
 width="668px" style="transform:scale(1,1.001);" height="375.75px" viewBox="0 0 320.000000 180.000000"
 preserveAspectRatio="xMidYMid meet">
<g transform="translate(0.000000,180.000000) scale(0.100000,-0.100000)"
fill="#000000" stroke="none">
<path d="M0 905 l0 -895 1600 0 1600 0 0 895 0 895 -1600 0 -1600 0 0 -895z m1645 699
c100 -49 200 -143 210 -198 9 -46 -8 -115 -39 -161 -14 -20 -32 -59 -42 -88
-9 -29 -26 -69 -37 -90 -17 -32 -18 -42 -7 -68 14 -32 76 -89 97 -89 38 0 238
-75 303 -114 82 -49 136 -97 285 -258 157 -169 193 -177 250 -55 48 104 72
127 134 127 80 0 84 -10 79 -162 -5 -127 -5 -128 18 -128 12 0 24 -5 26 -11 3
-9 9 -9 25 0 12 6 31 11 42 11 17 0 21 -6 21 -36 0 -52 -15 -73 -59 -80 -21
-3 -56 -17 -77 -30 -123 -75 -231 -99 -405 -90 -63 4 -131 11 -150 16 -19 6
-97 13 -174 16 -118 5 -280 26 -292 38 -2 2 20 15 49 29 84 42 121 68 112 77
-22 22 -219 33 -624 33 -457 1 -786 -6 -836 -18 -27 -6 -33 -4 -39 14 -10 33
11 51 60 51 32 0 51 7 80 30 21 16 42 30 46 30 5 0 16 15 25 33 9 17 26 38 37
46 11 8 33 43 49 78 16 35 36 67 46 70 9 4 25 17 35 29 27 35 145 115 197 135
229 87 306 204 205 312 -19 20 -35 43 -35 50 0 6 -20 40 -44 75 -48 69 -65
139 -46 201 15 53 187 199 250 212 70 15 141 3 225 -37z"/>
<path d="M680 380 c-8 -5 -11 -12 -8 -16 4 -3 14 1 23 10 18 17 9 21 -15 6z"/>
</g>
</svg>
