<svg version="1.0" xmlns="http://www.w3.org/2000/svg"
 width="668px" style="transform:scale(1,1.001);" height="375.75px" viewBox="0 0 320.000000 180.000000"
 preserveAspectRatio="xMidYMid meet">
<g transform="translate(0.000000,180.000000) scale(0.100000,-0.100000)"
fill="#000000" stroke="none">
<path d="M0 905 l0 -895 644 0 643 0 6 222 c4 150 11 247 22 297 17 77 14 131 -10 211
-8 25 -17 83 -20 130 -4 47 -15 109 -26 138 -11 32 -19 81 -20 125 -1 96 -7
111 -58 162 -34 34 -54 46 -88 51 -24 3 -58 18 -78 34 -19 15 -54 32 -78 38
-36 10 -45 17 -61 52 -17 38 -17 42 -1 66 9 14 23 28 31 31 22 8 91 -16 119
-43 44 -41 111 -55 221 -48 54 4 107 11 116 15 13 7 16 23 15 76 0 64 1 68 33
95 39 32 84 37 130 13 37 -19 43 -40 44 -149 1 -76 4 -90 20 -100 11 -6 34
-23 51 -38 18 -16 40 -28 48 -28 28 0 48 -12 57 -35 5 -13 21 -26 37 -29 15
-4 39 -18 53 -31 20 -18 41 -24 105 -30 89 -8 111 -16 120 -44 3 -10 17 -22
31 -25 30 -8 41 -31 24 -51 -25 -30 -272 -14 -325 21 -12 8 -52 17 -88 21
l-65 6 -36 -39 c-42 -46 -39 -19 -40 -374 -1 -263 -2 -278 -24 -335 -16 -41
-25 -91 -29 -156 l-6 -95 37 -31 c32 -26 37 -35 38 -76 l1 -47 803 0 804 0 0
895 0 895 -1600 0 -1600 0 0 -895z"/>
</g>
</svg>
