<svg version="1.0" xmlns="http://www.w3.org/2000/svg"
 width="668px" style="transform:scale(1,1.001);" height="375.75px" viewBox="0 0 320.000000 180.000000"
 preserveAspectRatio="xMidYMid meet">
<g transform="translate(0.000000,180.000000) scale(0.100000,-0.100000)"
fill="#000000" stroke="none">
<path d="M0 905 l0 -895 1600 0 1600 0 0 895 0 895 -1600 0 -1600 0 0 -895z m1625 420
c22 -21 25 -33 25 -96 0 -68 2 -73 38 -118 21 -25 49 -72 63 -104 16 -40 32
-63 51 -73 15 -8 28 -19 28 -24 0 -5 24 -25 53 -44 29 -19 63 -46 76 -60 66
-70 9 -249 -86 -270 -61 -14 -103 47 -69 99 9 13 16 42 16 63 0 36 -6 44 -84
115 -91 83 -123 95 -150 55 -19 -26 -21 -79 -5 -95 6 -6 16 -20 23 -32 6 -11
40 -62 74 -113 63 -91 64 -94 57 -142 -3 -28 -13 -61 -20 -75 -28 -51 -75
-160 -75 -174 0 -8 11 -31 25 -51 26 -38 29 -53 19 -80 -7 -17 -49 -22 -58 -7
-4 5 -24 12 -45 16 -40 7 -111 58 -111 79 0 6 27 65 60 129 34 67 60 131 60
148 0 24 -13 44 -59 91 -33 33 -66 58 -73 56 -8 -3 -15 -28 -19 -64 -3 -39
-18 -86 -44 -139 -21 -44 -51 -107 -66 -140 -16 -33 -32 -89 -36 -125 -7 -57
-11 -66 -33 -73 -15 -5 -36 -5 -52 2 -26 10 -28 15 -28 63 0 64 16 124 63 243
60 150 62 167 32 264 -14 47 -25 101 -25 121 0 20 -6 45 -14 55 -12 17 -16 15
-48 -29 -30 -42 -49 -88 -76 -186 -5 -15 -16 -26 -29 -28 -18 -3 -24 4 -32 35
-6 21 -11 42 -11 47 0 5 -7 14 -15 20 -12 9 -12 15 -1 41 8 17 17 37 20 45 10
26 28 51 116 163 47 59 99 125 115 146 38 50 82 85 120 98 27 9 31 15 38 63 8
58 34 96 71 103 60 12 97 7 121 -18z"/>
</g>
</svg>
