<svg version="1.0" xmlns="http://www.w3.org/2000/svg"
 width="668px" style="transform:scale(1,1.001);" height="375.75px" viewBox="0 0 320.000000 180.000000"
 preserveAspectRatio="xMidYMid meet">
<g transform="translate(0.000000,180.000000) scale(0.100000,-0.100000)"
fill="#000000" stroke="none">
<path d="M0 905 l0 -895 800 0 800 0 0 25 c0 20 -5 25 -23 25 -35 0 -62 35 -61 79 1 27
12 51 38 85 20 26 38 60 41 74 3 15 14 57 25 93 11 36 20 79 20 95 0 55 -129
214 -185 228 -38 10 -83 -23 -131 -97 -48 -75 -119 -220 -129 -265 -3 -18 -15
-37 -26 -42 -10 -6 -19 -15 -19 -20 0 -6 -10 -32 -22 -60 -17 -39 -27 -50 -45
-50 -21 0 -23 4 -23 48 0 67 21 140 75 267 26 61 57 144 70 185 13 41 28 89
33 105 15 47 39 134 52 196 11 48 10 70 -5 145 -9 49 -28 113 -41 142 -35 74
-17 123 50 138 17 4 41 17 53 30 21 22 29 24 130 24 l109 0 36 49 c31 42 42
49 80 54 23 3 63 2 87 -2 40 -5 47 -11 68 -50 34 -65 31 -99 -16 -147 -38 -40
-38 -41 -43 -140 -6 -112 -27 -170 -86 -243 -32 -39 -36 -51 -36 -96 1 -28 8
-62 16 -76 9 -13 37 -77 63 -142 42 -104 47 -123 40 -160 -5 -23 -9 -90 -11
-149 -1 -58 -7 -115 -13 -126 -6 -12 -11 -50 -11 -87 0 -61 -2 -66 -26 -75
-14 -6 -39 -10 -55 -10 -24 0 -29 -4 -29 -25 l0 -25 775 0 775 0 0 895 0 895
-1600 0 -1600 0 0 -895z"/>
</g>
</svg>
