<svg version="1.0" xmlns="http://www.w3.org/2000/svg"
 width="668px" style="transform:scale(1,1.001);" height="375.75px" viewBox="0 0 320.000000 180.000000"
 preserveAspectRatio="xMidYMid meet">
<g transform="translate(0.000000,180.000000) scale(0.100000,-0.100000)"
fill="#000000" stroke="none">
<path d="M0 905 l0 -895 1600 0 1600 0 0 895 0 895 -1600 0 -1600 0 0 -895z m1751 580
c137 -46 167 -105 178 -356 6 -150 7 -157 34 -188 15 -18 27 -38 27 -45 0 -21
62 -73 130 -110 36 -19 87 -47 113 -61 44 -24 157 -130 157 -147 0 -4 11 -18
24 -32 30 -33 52 -134 40 -179 -19 -63 -2 -62 -694 -63 -696 -1 -684 -2 -696
61 -8 44 0 95 21 138 9 18 20 53 25 79 7 36 20 58 58 97 27 28 54 51 59 51 6
0 20 9 33 20 13 11 35 23 49 27 14 3 42 14 61 25 19 10 45 18 58 18 13 0 34
12 48 27 l24 26 -37 31 c-20 17 -46 36 -58 41 -30 14 -112 74 -151 111 -29 27
-34 39 -34 77 0 28 7 53 18 68 11 13 23 38 29 54 10 30 45 88 80 133 36 46
206 119 283 121 25 1 79 -10 121 -24z"/>
</g>
</svg>
