<svg version="1.0" xmlns="http://www.w3.org/2000/svg"
 width="668px" style="transform:scale(1,1.001);" height="375.75px" viewBox="0 0 320.000000 180.000000"
 preserveAspectRatio="xMidYMid meet">
<g transform="translate(0.000000,180.000000) scale(0.100000,-0.100000)"
fill="#000000" stroke="none">
<path d="M0 905 l0 -895 710 0 710 0 0 24 c0 31 -23 39 -98 34 -56 -3 -56 -3 -66 29
-13 47 15 116 58 141 18 11 43 39 55 63 13 24 26 46 30 49 17 14 41 76 41 108
0 20 -20 86 -45 147 -33 82 -50 144 -65 236 -11 68 -27 138 -36 155 -10 20
-17 66 -19 130 -3 98 -2 99 29 139 29 37 31 47 34 133 3 73 7 94 20 101 10 5
55 6 102 2 l85 -6 3 -75 c3 -86 18 -110 81 -128 53 -16 65 -59 52 -179 -24
-208 -31 -322 -26 -373 8 -69 -19 -320 -41 -380 -22 -62 -14 -140 25 -227 17
-39 31 -83 31 -97 l0 -26 765 0 765 0 0 895 0 895 -1600 0 -1600 0 0 -895z"/>
<path d="M1457 213 c-16 -27 -17 -74 -2 -96 11 -18 14 -36 9 -66 l-7 -41 47 0 c43 0 46
2 46 26 0 14 -11 40 -25 58 -14 18 -25 37 -25 42 0 5 -5 26 -11 47 -9 35 -22
47 -32 30z"/>
</g>
</svg>
