<svg version="1.0" xmlns="http://www.w3.org/2000/svg"
 width="668px" style="transform:scale(1,1.001);" height="375.75px" viewBox="0 0 320.000000 180.000000"
 preserveAspectRatio="xMidYMid meet">
<g transform="translate(0.000000,180.000000) scale(0.100000,-0.100000)"
fill="#000000" stroke="none">
<path d="M0 905 l0 -895 510 0 511 0 -1 38 c-1 20 3 64 9 97 6 33 11 108 11 166 0 80 5
120 21 167 11 34 25 62 30 62 5 0 9 6 9 14 0 7 25 38 56 67 31 30 71 68 89 86
65 62 81 107 51 142 -40 47 -37 142 6 203 59 82 108 127 146 133 17 3 48 7 67
10 19 3 35 10 35 15 0 6 7 10 15 10 8 0 25 18 37 41 16 27 32 42 51 46 15 3
30 10 33 14 3 5 20 9 38 9 52 0 115 -62 122 -120 5 -39 1 -51 -25 -91 -29 -44
-30 -49 -21 -98 6 -31 6 -78 1 -118 -9 -73 -39 -185 -51 -193 -20 -14 -40 -71
-31 -87 64 -117 116 -272 127 -378 3 -38 15 -92 25 -120 11 -27 19 -65 19 -82
l0 -33 655 0 655 0 0 895 0 895 -1600 0 -1600 0 0 -895z"/>
<path d="M1373 527 c-23 -7 -50 -20 -60 -29 -10 -9 -30 -20 -45 -23 -39 -10 -88 -69
-88 -105 0 -16 -6 -49 -14 -72 -8 -24 -17 -79 -20 -123 -4 -44 -9 -99 -12
-123 l-6 -42 326 0 c372 0 336 -11 312 100 -15 67 -21 88 -64 204 -21 57 -37
82 -91 134 -92 91 -137 106 -238 79z"/>
</g>
</svg>
