<svg version="1.0" xmlns="http://www.w3.org/2000/svg"
 width="668px" style="transform:scale(1,1.001);" height="375.75px" viewBox="0 0 320.000000 180.000000"
 preserveAspectRatio="xMidYMid meet">
<g transform="translate(0.000000,180.000000) scale(0.100000,-0.100000)"
fill="#000000" stroke="none">
<path d="M0 905 l0 -895 420 0 c370 0 419 2 414 15 -8 21 20 62 48 70 36 11 150 108
183 155 17 24 53 68 80 99 93 103 89 97 96 182 3 50 11 85 21 96 9 10 19 39
22 65 9 58 46 130 97 183 24 26 45 62 59 105 28 87 65 120 135 120 42 0 57 -5
88 -31 20 -17 37 -36 37 -42 0 -12 43 -82 79 -129 12 -14 21 -30 21 -35 0 -4
12 -30 25 -58 14 -27 25 -61 25 -74 0 -14 9 -34 20 -46 30 -32 37 -90 15 -115
-25 -27 -33 -26 -94 20 -29 22 -59 40 -66 40 -7 0 -18 -13 -24 -29 -21 -49 0
-99 61 -147 29 -23 64 -45 78 -49 22 -7 51 -27 147 -103 12 -9 34 -41 48 -69
25 -51 26 -53 9 -88 -9 -19 -31 -48 -50 -65 -19 -16 -34 -39 -34 -50 0 -20 4
-20 620 -20 l620 0 0 895 0 895 -1600 0 -1600 0 0 -895z"/>
<path d="M1441 255 c-18 -8 -42 -15 -53 -15 -10 0 -33 -10 -51 -22 -38 -27 -130 -100
-137 -109 -3 -4 -26 -17 -52 -29 -38 -17 -48 -27 -48 -46 l0 -24 370 0 371 0
-6 63 c-11 115 -13 121 -48 140 -19 12 -66 22 -117 27 -47 5 -98 13 -113 19
-38 15 -75 13 -116 -4z"/>
</g>
</svg>
