<svg version="1.0" xmlns="http://www.w3.org/2000/svg"
 width="668px" style="transform:scale(1,1.001);" height="375.75px" viewBox="0 0 320.000000 180.000000"
 preserveAspectRatio="xMidYMid meet">
<g transform="translate(0.000000,180.000000) scale(0.100000,-0.100000)"
fill="#000000" stroke="none">
<path d="M0 905 l0 -895 630 0 630 0 0 25 c0 14 -4 25 -10 25 -16 0 -12 19 16 75 26 50
26 53 10 86 -9 19 -39 62 -66 96 -52 65 -70 99 -70 137 0 53 36 133 105 236
41 61 78 122 81 136 8 30 -21 110 -42 118 -18 7 -66 -16 -107 -50 -16 -13 -34
-24 -41 -24 -27 0 -86 -94 -86 -137 0 -25 -19 -43 -46 -43 -13 0 -26 -5 -29
-11 -39 -62 -111 183 -75 252 13 23 92 65 142 74 24 5 51 22 84 56 26 27 52
49 56 49 11 0 93 57 108 75 10 13 8 25 -14 74 -32 72 -33 92 -2 128 22 26 30
28 88 26 68 -2 152 -32 162 -59 10 -26 7 -59 -9 -105 l-16 -44 35 -30 c19 -16
54 -46 78 -66 23 -20 50 -52 60 -70 9 -19 30 -63 47 -99 17 -36 45 -88 61
-117 30 -53 50 -146 53 -248 2 -45 -1 -51 -25 -63 -21 -10 -28 -20 -28 -41 0
-36 -21 -53 -57 -49 l-28 3 -5 122 c-3 77 -10 127 -18 135 -20 20 -31 -1 -43
-84 -9 -62 -8 -103 5 -215 25 -220 30 -309 17 -317 -6 -4 -11 -18 -11 -32 l0
-24 780 0 780 0 0 895 0 895 -1600 0 -1600 0 0 -895z"/>
<path d="M1377 540 c-65 -72 -66 -84 -17 -171 23 -41 48 -88 55 -105 7 -17 34 -45 59
-63 51 -34 66 -38 66 -18 0 19 -49 208 -62 241 -6 16 -14 59 -17 95 -8 85 -23
88 -84 21z"/>
<path d="M1491 89 c-25 -5 -49 -13 -55 -19 -5 -5 -27 -10 -48 -10 -34 0 -38 -3 -38 -25
l0 -25 120 0 c116 0 120 1 120 21 0 17 -44 73 -53 68 -1 -1 -22 -5 -46 -10z"/>
</g>
</svg>
