<svg version="1.0" xmlns="http://www.w3.org/2000/svg"
 width="668px" style="transform:scale(1,1.001);" height="375.75px" viewBox="0 0 320.000000 180.000000"
 preserveAspectRatio="xMidYMid meet">
<g transform="translate(0.000000,180.000000) scale(0.100000,-0.100000)"
fill="#000000" stroke="none">
<path d="M0 905 l0 -895 650 0 650 0 0 50 c0 32 11 77 30 125 17 42 30 83 30 93 0 10 9
44 21 77 25 71 21 88 -36 180 -65 106 -84 142 -78 149 4 3 -1 6 -10 6 -21 0
-90 -70 -125 -125 -27 -43 -40 -55 -60 -55 -24 0 -24 28 1 88 l24 60 -27 -20
c-16 -11 -30 -32 -33 -47 -3 -14 -13 -43 -22 -64 -13 -32 -18 -37 -30 -27 -21
18 -19 65 7 138 23 64 35 79 198 226 30 28 71 71 90 97 19 25 59 69 88 97 46
44 52 55 52 90 0 76 66 123 141 101 48 -13 73 -53 74 -116 1 -44 6 -57 37 -91
48 -53 53 -83 29 -162 -44 -145 -50 -293 -16 -389 8 -24 15 -67 15 -95 0 -46
-6 -60 -45 -116 -52 -73 -56 -103 -19 -141 20 -21 28 -42 32 -79 l5 -50 763 0
764 0 0 895 0 895 -1600 0 -1600 0 0 -895z"/>
<path d="M1424 113 c-3 -10 -10 -28 -15 -41 -23 -57 -16 -62 76 -62 84 0 85 0 85 25 0
21 -7 27 -46 37 -31 9 -50 20 -57 35 -12 27 -35 30 -43 6z"/>
</g>
</svg>
