<svg version="1.0" xmlns="http://www.w3.org/2000/svg"
 width="668px" style="transform:scale(1,1.001);" height="375.75px" viewBox="0 0 320.000000 180.000000"
 preserveAspectRatio="xMidYMid meet">
<g transform="translate(0.000000,180.000000) scale(0.100000,-0.100000)"
fill="#000000" stroke="none">
<path d="M0 905 l0 -895 1600 0 1600 0 0 895 0 895 -1600 0 -1600 0 0 -895z m1996 718
c96 -40 126 -81 131 -182 4 -59 0 -89 -16 -135 -12 -33 -21 -68 -21 -78 0 -42
51 -118 125 -184 84 -75 131 -139 144 -193 13 -53 38 -219 56 -366 15 -125 15
-130 -3 -155 -17 -23 -27 -25 -103 -28 -243 -10 -654 -2 -677 12 -5 3 -89 7
-187 10 -206 5 -208 5 -265 102 -30 50 -35 68 -34 116 2 74 31 131 141 267
153 191 147 186 259 241 23 11 47 26 54 35 6 8 27 17 46 21 19 3 52 19 74 35
49 36 53 72 14 115 -66 71 -84 105 -84 161 0 90 54 174 123 191 24 6 57 18 73
27 41 21 74 19 150 -12z"/>
</g>
</svg>
