<svg version="1.0" xmlns="http://www.w3.org/2000/svg"
 width="668px" style="transform:scale(1,1.001);" height="375.75px" viewBox="0 0 320.000000 180.000000"
 preserveAspectRatio="xMidYMid meet">
<g transform="translate(0.000000,180.000000) scale(0.100000,-0.100000)"
fill="#000000" stroke="none">
<path d="M0 905 l0 -895 665 0 665 0 0 24 c0 14 -5 28 -11 31 -6 4 -7 14 -3 24 3 9 8
165 9 346 2 210 7 345 14 372 10 37 9 48 -8 80 -10 21 -31 51 -45 66 -28 30
-39 31 -146 12 -50 -9 -180 -75 -180 -90 0 -16 -48 -75 -61 -75 -5 0 -23 13
-40 28 -29 26 -32 34 -32 86 0 75 26 104 101 113 31 3 65 15 84 29 17 13 44
24 58 24 14 0 41 11 60 25 19 14 39 25 45 25 7 0 20 9 30 20 14 16 16 29 11
72 -19 142 -20 132 12 166 26 28 37 32 81 32 37 0 56 -5 70 -19 28 -28 48 -69
56 -118 6 -37 11 -43 43 -54 20 -7 43 -20 50 -31 7 -10 18 -18 24 -18 6 0 52
-41 101 -90 l90 -91 -7 -56 c-4 -31 -10 -61 -14 -67 -25 -35 -33 -88 -23 -158
5 -40 13 -126 17 -190 l7 -116 -32 -61 c-36 -70 -36 -73 -15 -137 28 -88 -15
-134 -78 -84 -14 10 -38 44 -54 74 l-29 55 19 63 c26 91 31 173 13 217 -9 20
-18 48 -21 63 -10 44 -44 38 -51 -9 -3 -21 -13 -72 -21 -114 -9 -47 -14 -139
-14 -242 0 -100 -4 -168 -10 -172 -6 -3 -10 -17 -10 -31 l0 -24 890 0 890 0 0
895 0 895 -1600 0 -1600 0 0 -895z"/>
</g>
</svg>
