<svg version="1.0" xmlns="http://www.w3.org/2000/svg"
 width="668px" style="transform:scale(1,1.001);" height="375.75px" viewBox="0 0 320.000000 180.000000"
 preserveAspectRatio="xMidYMid meet">
<g transform="translate(0.000000,180.000000) scale(0.100000,-0.100000)"
fill="#000000" stroke="none">
<path d="M0 905 l0 -895 654 0 653 0 -1 107 c0 60 5 194 13 300 17 242 13 342 -19 403
-19 37 -25 71 -33 185 -6 77 -11 181 -11 230 0 78 3 95 24 130 14 22 33 48 43
58 17 17 18 29 12 107 -6 77 -4 92 14 127 24 47 35 53 104 53 63 0 72 -5 92
-53 12 -30 13 -49 6 -99 -6 -33 -8 -64 -6 -68 3 -4 21 -11 41 -14 52 -10 64
-46 63 -195 -1 -66 2 -125 6 -132 11 -17 36 -515 29 -579 -3 -30 -26 -118 -51
-195 -52 -158 -56 -206 -25 -259 12 -21 22 -53 22 -72 l0 -34 785 0 785 0 0
895 0 895 -1600 0 -1600 0 0 -895z"/>
<path d="M1507 624 c-3 -6 -13 -53 -21 -105 -9 -52 -22 -125 -31 -164 -17 -81 -18 -95
-7 -95 22 0 48 98 72 262 9 63 1 124 -13 102z"/>
<path d="M1416 74 c-3 -8 -6 -27 -6 -40 0 -22 3 -24 55 -24 51 0 55 2 55 24 0 17 -8 27
-27 34 -57 22 -70 23 -77 6z"/>
</g>
</svg>
