<svg version="1.0" xmlns="http://www.w3.org/2000/svg"
 width="668px" style="transform:scale(1,1.001);" height="375.75px" viewBox="0 0 320.000000 180.000000"
 preserveAspectRatio="xMidYMid meet">
<g transform="translate(0.000000,180.000000) scale(0.100000,-0.100000)"
fill="#000000" stroke="none">
<path d="M0 905 l0 -895 655 0 655 0 0 118 c0 64 7 191 15 282 15 172 19 309 9 347 -5
18 -11 21 -37 16 -23 -3 -40 1 -60 18 l-29 22 4 136 c3 125 7 146 42 257 45
142 77 184 195 255 24 14 26 22 31 95 8 123 41 155 145 139 36 -5 47 -12 60
-38 18 -34 21 -127 6 -155 -9 -16 6 -41 62 -102 41 -44 48 -67 78 -275 6 -38
19 -114 30 -169 24 -124 24 -125 -6 -160 -14 -16 -25 -33 -25 -38 0 -4 -7 -8
-15 -8 -19 0 -28 24 -45 115 -16 89 -69 195 -97 195 -19 0 -36 -59 -29 -103 3
-23 12 -87 21 -142 8 -55 15 -139 15 -187 0 -81 -4 -98 -50 -225 -70 -191 -75
-217 -44 -269 14 -23 31 -48 39 -54 8 -7 15 -25 15 -41 l0 -29 780 0 780 0 0
895 0 895 -1600 0 -1600 0 0 -895z"/>
<path d="M1450 35 c0 -16 6 -25 15 -25 9 0 15 9 15 25 0 16 -6 25 -15 25 -9 0 -15 -9
-15 -25z"/>
</g>
</svg>
