<svg version="1.0" xmlns="http://www.w3.org/2000/svg"
 width="668px" style="transform:scale(1,1.001);" height="375.75px" viewBox="0 0 320.000000 180.000000"
 preserveAspectRatio="xMidYMid meet">
<g transform="translate(0.000000,180.000000) scale(0.100000,-0.100000)"
fill="#000000" stroke="none">
<path d="M0 905 l0 -895 701 0 702 0 -7 43 c-4 23 -12 65 -18 92 -6 28 -12 96 -15 153
-4 100 -3 105 28 170 42 87 39 73 49 262 11 190 20 250 50 339 29 82 23 189
-15 306 -33 98 -43 211 -24 257 7 18 31 51 53 73 l41 40 100 3 101 4 42 -35
c23 -19 45 -37 49 -39 19 -8 64 -80 74 -120 10 -40 9 -49 -25 -126 -20 -46
-36 -97 -36 -114 0 -31 27 -85 63 -125 25 -28 34 -44 99 -173 l53 -105 0 -100
c0 -60 -7 -126 -17 -165 -19 -75 -38 -205 -39 -270 -4 -189 -11 -230 -45 -282
-19 -27 -34 -59 -34 -69 0 -18 18 -19 635 -19 l635 0 0 895 0 895 -1600 0
-1600 0 0 -895z"/>
</g>
</svg>
