<svg version="1.0" xmlns="http://www.w3.org/2000/svg"
 width="668px" style="transform:scale(1,1.001);" height="375.75px" viewBox="0 0 320.000000 180.000000"
 preserveAspectRatio="xMidYMid meet">
<g transform="translate(0.000000,180.000000) scale(0.100000,-0.100000)"
fill="#000000" stroke="none">
<path d="M0 905 l0 -895 1600 0 1600 0 0 895 0 895 -1600 0 -1600 0 0 -895z m1852 661
c24 -8 65 -18 91 -22 28 -4 60 -16 77 -30 15 -13 31 -24 34 -24 11 0 75 -68
96 -102 37 -61 21 -158 -49 -291 -16 -31 -37 -67 -46 -79 -24 -35 -20 -112 9
-142 13 -15 27 -26 32 -26 5 0 38 -14 74 -32 36 -17 76 -36 89 -42 13 -6 53
-36 90 -66 89 -75 131 -156 131 -251 0 -96 -13 -125 -64 -144 -39 -15 -75 -16
-385 -5 -187 6 -345 9 -350 6 -18 -11 -453 -14 -485 -4 -67 23 -76 40 -76 155
0 92 3 109 26 154 15 27 38 56 53 63 14 8 58 35 96 60 39 25 75 46 81 46 6 0
17 7 24 14 6 8 34 22 61 31 71 24 134 61 154 92 22 33 15 69 -30 138 -19 31
-35 61 -35 68 0 7 -11 33 -25 58 -37 70 -49 130 -36 172 15 44 111 134 189
179 71 40 109 45 174 24z"/>
</g>
</svg>
