<svg version="1.0" xmlns="http://www.w3.org/2000/svg"
 width="668px" style="transform:scale(1,1.001);" height="375.75px" viewBox="0 0 320.000000 180.000000"
 preserveAspectRatio="xMidYMid meet">
<g transform="translate(0.000000,180.000000) scale(0.100000,-0.100000)"
fill="#000000" stroke="none">
<path d="M0 905 l0 -895 671 0 671 0 -6 38 c-9 52 -10 73 -2 107 5 23 1 37 -17 60 -23
28 -29 30 -123 36 -55 3 -124 14 -154 23 -30 8 -75 16 -100 16 -25 0 -56 7
-70 15 -14 8 -47 25 -75 39 -79 39 -110 73 -134 145 -25 77 -26 111 -6 177 8
27 17 90 21 139 4 50 12 104 20 120 8 20 15 103 20 240 3 116 10 220 15 232
11 31 168 108 238 117 59 8 107 28 113 48 3 8 12 1 24 -17 24 -37 26 -171 2
-207 -14 -22 -14 -24 8 -41 21 -16 24 -26 24 -82 0 -52 -4 -68 -24 -92 -27
-32 -37 -70 -38 -143 0 -56 20 -88 74 -116 23 -12 36 -11 120 15 52 15 105 35
118 44 14 8 54 21 88 27 35 6 76 16 90 23 15 6 80 13 144 16 102 5 120 9 139
27 20 21 20 23 6 102 -11 57 -24 92 -46 122 -39 54 -50 130 -27 196 28 83 278
314 339 314 11 0 17 8 17 25 l0 25 -1070 0 -1070 0 0 -895z"/>
<path d="M2340 1777 c0 -21 10 -27 93 -52 50 -15 103 -37 117 -49 14 -12 38 -28 53 -36
16 -8 33 -22 38 -31 4 -9 24 -26 44 -38 21 -12 35 -28 35 -40 0 -11 13 -35 29
-53 46 -54 51 -71 51 -181 0 -104 0 -105 -35 -153 -19 -27 -41 -64 -49 -81 -8
-18 -25 -43 -37 -55 -43 -45 -74 -128 -72 -193 2 -96 37 -211 77 -255 19 -21
37 -46 40 -57 3 -11 19 -29 36 -41 16 -12 42 -43 57 -69 15 -27 35 -55 45 -63
9 -8 36 -59 58 -114 38 -89 41 -103 35 -152 l-6 -54 125 0 126 0 0 895 0 895
-430 0 -430 0 0 -23z"/>
</g>
</svg>
