<svg version="1.0" xmlns="http://www.w3.org/2000/svg"
 width="668px" style="transform:scale(1,1.001);" height="375.75px" viewBox="0 0 320.000000 180.000000"
 preserveAspectRatio="xMidYMid meet">
<g transform="translate(0.000000,180.000000) scale(0.100000,-0.100000)"
fill="#000000" stroke="none">
<path d="M0 905 l0 -895 614 0 614 0 5 53 c2 28 9 70 15 93 8 28 8 60 2 100 -6 32 -10
76 -10 96 0 23 -11 56 -31 89 -28 48 -30 58 -26 118 6 86 24 219 32 231 3 5
10 43 14 84 14 125 138 346 194 346 29 0 47 30 47 78 0 61 32 109 78 118 46 9
107 -11 132 -44 22 -28 23 -40 5 -157 -5 -33 -2 -46 19 -75 35 -47 56 -94 56
-123 0 -30 26 -96 48 -121 10 -10 34 -27 54 -37 66 -33 118 -101 118 -151 0
-27 -35 -88 -50 -88 -5 0 -10 -7 -10 -16 0 -11 -8 -14 -32 -12 -30 3 -33 6
-31 33 2 20 -6 38 -24 57 -14 15 -31 37 -37 50 -6 13 -27 30 -46 39 -43 21
-69 49 -95 103 -23 47 -44 52 -63 14 -13 -27 -8 -89 18 -258 18 -113 23 -290
11 -370 -9 -58 -9 -95 0 -162 l13 -88 783 0 783 0 0 895 0 895 -1600 0 -1600
0 0 -895z"/>
<path d="M1405 638 c-2 -7 -5 -65 -8 -129 -2 -63 -9 -124 -15 -135 -6 -11 -16 -78 -23
-150 -7 -71 -18 -138 -26 -149 -7 -11 -13 -30 -13 -42 0 -22 3 -23 101 -23
l101 0 -5 137 c-8 239 -28 372 -71 476 -11 28 -34 36 -41 15z"/>
</g>
</svg>
