<svg version="1.0" xmlns="http://www.w3.org/2000/svg"
 width="668px" style="transform:scale(1,1.001);" height="375.75px" viewBox="0 0 320.000000 180.000000"
 preserveAspectRatio="xMidYMid meet">
<g transform="translate(0.000000,180.000000) scale(0.100000,-0.100000)"
fill="#000000" stroke="none">
<path d="M0 905 l0 -895 583 0 583 0 1 40 c1 22 9 66 17 97 8 32 22 96 31 143 9 47 26
106 37 133 25 59 21 116 -15 189 -75 153 -117 265 -117 310 0 16 -7 45 -15 64
l-15 36 -62 -6 c-35 -3 -81 -8 -103 -11 -87 -12 -144 54 -129 151 5 38 12 47
53 74 26 16 60 30 74 30 18 0 40 15 72 46 25 25 45 49 45 53 0 4 12 18 26 32
21 19 25 30 20 57 -2 18 -14 44 -25 59 -45 56 -15 164 49 177 48 9 109 7 130
-4 22 -12 40 -67 40 -123 0 -50 13 -73 69 -125 37 -35 58 -46 108 -56 84 -18
122 -52 108 -96 -6 -18 -16 -20 -100 -20 -129 0 -129 0 -94 -250 26 -191 40
-260 81 -400 7 -25 13 -74 13 -110 0 -58 -6 -76 -52 -170 -43 -86 -54 -120
-62 -190 -6 -46 -11 -95 -11 -107 l0 -23 930 0 930 0 0 895 0 895 -1600 0
-1600 0 0 -895z"/>
</g>
</svg>
