<svg version="1.0" xmlns="http://www.w3.org/2000/svg"
 width="668px" style="transform:scale(1,1.001);" height="375.75px" viewBox="0 0 320.000000 180.000000"
 preserveAspectRatio="xMidYMid meet">
<g transform="translate(0.000000,180.000000) scale(0.100000,-0.100000)"
fill="#000000" stroke="none">
<path d="M0 905 l0 -895 595 0 595 0 0 23 c0 12 -7 31 -15 41 -8 11 -15 36 -15 56 0 45
44 200 74 260 13 25 33 65 45 89 24 46 24 86 2 181 -9 41 -8 46 12 60 11 8 36
30 55 48 29 29 32 37 24 60 -5 15 -15 26 -21 24 -7 -1 -47 -5 -89 -9 -82 -7
-79 -5 -161 -103 -21 -24 -21 -25 -36 -6 -36 47 -8 123 65 183 39 32 62 43 86
43 38 0 44 14 15 30 -46 24 -101 6 -101 -32 0 -13 -8 -18 -30 -18 -33 0 -34 2
-21 28 5 9 12 25 15 35 3 9 13 17 23 17 10 0 41 11 69 24 32 15 55 21 61 15 5
-5 32 -12 60 -16 57 -6 48 -16 111 113 51 105 57 128 44 171 -6 21 -32 71 -58
111 -42 67 -46 77 -41 120 4 35 12 52 34 70 15 12 39 32 51 42 35 30 86 25
142 -11 58 -37 69 -60 76 -153 5 -63 10 -78 49 -136 63 -95 88 -187 88 -330 1
-71 -4 -126 -12 -145 -17 -41 -51 -248 -51 -316 0 -43 -7 -70 -31 -115 -30
-59 -99 -256 -99 -284 0 -8 9 -39 20 -68 11 -29 20 -63 20 -77 l0 -25 775 0
775 0 0 895 0 895 -1600 0 -1600 0 0 -895z"/>
<path d="M1361 81 c-12 -16 -21 -39 -21 -50 0 -19 6 -21 60 -21 57 0 60 1 60 25 0 14
-4 25 -8 25 -5 0 -14 11 -20 25 -15 33 -46 32 -71 -4z"/>
</g>
</svg>
