<svg version="1.0" xmlns="http://www.w3.org/2000/svg"
 width="668px" style="transform:scale(1,1.001);" height="375.75px" viewBox="0 0 320.000000 180.000000"
 preserveAspectRatio="xMidYMid meet">
<g transform="translate(0.000000,180.000000) scale(0.100000,-0.100000)"
fill="#000000" stroke="none">
<path d="M0 905 l0 -895 1600 0 1600 0 0 895 0 895 -1600 0 -1600 0 0 -895z m1663 751
c68 -28 118 -72 143 -128 21 -46 15 -77 -37 -207 -20 -50 -28 -84 -24 -101 7
-28 52 -73 95 -95 43 -22 115 -72 130 -90 7 -8 18 -15 24 -15 16 0 86 -85 86
-105 0 -9 7 -29 15 -46 9 -16 20 -66 26 -111 5 -45 15 -91 21 -102 6 -12 15
-57 20 -101 23 -218 23 -201 -3 -227 l-24 -24 -519 -2 c-538 -2 -576 0 -596
38 -15 29 -12 232 4 282 8 24 17 63 21 88 4 25 11 50 16 56 5 6 15 29 23 52 8
23 20 47 25 54 33 42 127 144 136 147 12 5 66 49 122 101 66 62 66 70 -12 220
-54 105 -58 117 -53 165 5 40 13 54 49 88 24 23 67 54 94 69 42 23 59 27 105
23 30 -3 81 -15 113 -29z"/>
</g>
</svg>
