<svg version="1.0" xmlns="http://www.w3.org/2000/svg"
 width="668px" style="transform:scale(1,1.001);" height="375.75px" viewBox="0 0 320.000000 180.000000"
 preserveAspectRatio="xMidYMid meet">
<g transform="translate(0.000000,180.000000) scale(0.100000,-0.100000)"
fill="#000000" stroke="none">
<path d="M0 905 l0 -895 631 0 632 0 -6 36 c-4 23 -1 47 8 65 8 15 15 36 15 47 0 30
-23 70 -47 81 -12 6 -25 22 -29 37 -11 44 4 344 21 407 8 32 15 68 15 80 0 12
17 58 39 102 21 44 42 91 46 105 13 43 69 121 90 126 27 7 62 60 70 107 9 46
34 79 76 99 29 15 34 14 75 -6 59 -28 73 -69 51 -147 -18 -58 -17 -61 35 -135
15 -22 35 -71 44 -109 15 -63 22 -76 74 -127 67 -66 120 -153 120 -194 -1 -45
-24 -79 -54 -79 -14 -1 -26 3 -26 7 0 4 -9 17 -20 28 -14 14 -28 18 -45 14
-19 -5 -25 -2 -25 11 0 9 5 13 11 9 22 -13 -10 31 -61 86 -29 30 -59 71 -67
91 -15 39 -33 52 -58 43 -17 -7 -19 -15 -39 -109 -25 -121 -30 -233 -13 -300
9 -33 19 -131 23 -217 l7 -158 803 0 804 0 0 895 0 895 -1600 0 -1600 0 0
-895z"/>
<path d="M1384 365 c-11 -29 4 -82 35 -125 l31 -43 -1 39 c-2 68 -22 138 -42 142 -9 2
-20 -4 -23 -13z"/>
<path d="M1445 151 c-8 -33 -33 -55 -97 -84 -19 -8 -28 -19 -28 -34 0 -22 3 -23 96 -23
l97 0 -6 35 c-3 19 -17 59 -30 88 l-25 52 -7 -34z"/>
</g>
</svg>
