<svg version="1.0" xmlns="http://www.w3.org/2000/svg"
 width="668px" style="transform:scale(1,1.001);" height="375.75px" viewBox="0 0 320.000000 180.000000"
 preserveAspectRatio="xMidYMid meet">
<g transform="translate(0.000000,180.000000) scale(0.100000,-0.100000)"
fill="#000000" stroke="none">
<path d="M0 905 l0 -895 1600 0 1600 0 0 895 0 895 -812 0 -813 0 0 -129 c0 -124 1
-130 25 -156 14 -15 42 -36 62 -46 21 -10 42 -28 48 -38 5 -11 18 -22 29 -26
24 -7 71 11 71 28 0 7 13 20 29 30 26 15 30 15 35 1 12 -31 -72 -144 -107
-144 -30 0 -101 -139 -117 -230 -15 -86 -35 -424 -34 -580 1 -120 22 -240 52
-297 16 -29 -10 -78 -49 -92 -45 -15 -62 2 -78 81 -25 122 -53 155 -86 105
-28 -43 -30 -110 -5 -162 23 -47 23 -47 3 -67 -18 -17 -25 -18 -59 -9 -28 8
-47 8 -70 -1 -51 -18 -67 -6 -61 50 7 69 19 109 65 208 58 127 82 207 89 299
5 75 3 82 -21 115 -32 44 -54 93 -66 145 -13 54 -12 181 1 265 10 64 9 73 -11
113 -17 34 -34 50 -78 73 -65 33 -68 37 -82 83 -5 19 -21 47 -36 62 -22 23
-27 37 -27 82 0 58 7 77 27 77 12 0 46 -81 46 -111 0 -10 17 -20 50 -28 30 -8
50 -18 50 -27 0 -16 55 -20 65 -4 3 6 0 10 -7 10 -8 0 -6 5 5 11 19 11 24 64
6 75 -18 11 -6 150 15 172 9 10 16 28 16 40 l0 22 -685 0 -685 0 0 -895z"/>
</g>
</svg>
