<svg version="1.0" xmlns="http://www.w3.org/2000/svg"
 width="668px" style="transform:scale(1,1.001);" height="375.75px" viewBox="0 0 320.000000 180.000000"
 preserveAspectRatio="xMidYMid meet">
<g transform="translate(0.000000,180.000000) scale(0.100000,-0.100000)"
fill="#000000" stroke="none">
<path d="M0 905 l0 -895 575 0 575 0 0 53 c0 54 10 108 34 192 37 127 70 271 91 403 18
105 17 116 -14 238 -6 22 -17 54 -26 70 -8 16 -15 48 -15 72 0 24 -7 71 -15
105 -8 34 -17 82 -20 107 -6 47 -19 72 -80 150 -19 25 -38 52 -41 60 -4 8 -15
33 -25 56 -11 22 -19 50 -19 62 0 12 -9 44 -20 72 -24 61 -24 60 -5 60 9 0 24
-13 33 -30 9 -16 23 -30 30 -30 6 0 12 -4 12 -10 0 -5 9 -14 20 -20 19 -10 19
-8 14 34 -4 25 -4 56 0 70 6 23 9 24 26 14 11 -7 33 -42 49 -78 69 -153 149
-176 135 -38 -5 47 -2 73 10 102 9 21 16 47 16 57 0 18 -21 19 -670 19 l-670
0 0 -895z"/>
<path d="M1540 1775 c0 -13 9 -32 19 -42 22 -20 41 -64 41 -93 0 -10 -12 -33 -26 -50
-17 -20 -27 -44 -28 -67 -1 -34 1 -36 45 -47 26 -7 61 -24 79 -39 17 -15 37
-27 44 -27 11 0 46 -47 127 -174 15 -22 30 -60 34 -82 6 -38 3 -44 -35 -87
-23 -25 -51 -47 -63 -49 -31 -5 -62 -53 -61 -96 1 -39 68 -177 105 -218 11
-11 19 -23 19 -27 0 -4 18 -33 40 -64 22 -32 40 -61 40 -65 0 -4 14 -27 30
-51 54 -80 72 -161 67 -300 -3 -67 -8 -137 -12 -155 l-7 -32 601 0 601 0 0
895 0 895 -830 0 -830 0 0 -25z"/>
<path d="M1535 560 c-21 -8 -68 -93 -81 -145 -17 -74 -125 -303 -155 -331 -10 -9 -19
-30 -19 -46 l0 -28 291 0 291 0 -7 32 c-3 18 -10 85 -14 148 -4 70 -13 125
-21 140 -18 29 -204 216 -231 230 -21 12 -27 12 -54 0z"/>
</g>
</svg>
