<svg version="1.0" xmlns="http://www.w3.org/2000/svg"
 width="668px" style="transform:scale(1,1.001);" height="375.75px" viewBox="0 0 320.000000 180.000000"
 preserveAspectRatio="xMidYMid meet">
<g transform="translate(0.000000,180.000000) scale(0.100000,-0.100000)"
fill="#000000" stroke="none">
<path d="M0 905 l0 -895 640 0 640 0 0 24 c0 30 -57 81 -99 91 -17 4 -31 9 -31 12 0 16
44 63 59 63 20 0 41 39 41 75 0 13 -16 55 -35 94 -26 52 -35 82 -35 120 0 52
2 60 58 181 97 212 96 238 -6 243 -45 2 -55 -2 -84 -29 -47 -45 -87 -62 -137
-60 -52 3 -71 23 -71 77 0 53 13 81 57 125 44 44 63 77 63 109 0 28 -36 75
-57 75 -22 0 -82 67 -105 117 -15 35 -17 50 -9 80 20 73 34 83 111 83 66 0 70
-1 92 -32 13 -18 32 -51 43 -73 11 -22 29 -41 40 -44 11 -2 33 -14 48 -27 16
-13 38 -24 49 -24 31 0 101 -59 206 -175 75 -82 85 -111 80 -223 -5 -81 -11
-108 -36 -162 -33 -68 -51 -145 -77 -319 -19 -131 -19 -202 0 -265 8 -27 15
-69 15 -93 l0 -43 870 0 870 0 0 895 0 895 -1600 0 -1600 0 0 -895z"/>
</g>
</svg>
