<svg version="1.0" xmlns="http://www.w3.org/2000/svg"
 width="668px" style="transform:scale(1,1.001);" height="375.75px" viewBox="0 0 320.000000 180.000000"
 preserveAspectRatio="xMidYMid meet">
<g transform="translate(0.000000,180.000000) scale(0.100000,-0.100000)"
fill="#000000" stroke="none">
<path d="M0 905 l0 -895 535 0 536 0 -2 58 c-2 45 3 67 24 106 15 27 27 56 27 66 0 9
11 31 25 50 14 19 25 40 25 47 0 7 14 39 30 70 17 31 30 68 30 82 0 15 11 42
25 61 14 19 25 48 25 65 0 17 10 49 21 70 28 52 38 126 28 200 -6 42 -4 88 6
150 27 166 20 181 -97 194 -78 9 -127 32 -148 70 -7 14 -3 25 19 49 43 49 86
62 207 62 l106 0 39 39 c26 26 39 48 39 65 0 15 5 46 11 70 15 59 93 127 154
133 61 7 112 -12 132 -50 30 -59 32 -90 7 -163 -12 -37 -21 -71 -18 -75 2 -4
26 -15 53 -24 27 -9 55 -22 61 -30 7 -8 28 -17 49 -21 20 -3 52 -17 72 -30 21
-14 63 -29 100 -35 35 -6 83 -19 107 -29 24 -11 65 -22 92 -26 28 -4 64 -17
82 -30 27 -20 44 -24 108 -24 93 0 120 -15 120 -66 0 -21 -8 -42 -21 -55 -31
-31 -139 -24 -189 11 -33 24 -44 25 -220 31 -145 4 -194 9 -226 23 -41 18 -42
18 -77 -5 -38 -25 -47 -50 -47 -123 0 -27 -11 -62 -31 -100 -28 -53 -31 -66
-26 -118 3 -32 14 -73 25 -92 11 -18 23 -56 27 -84 4 -28 16 -68 27 -89 11
-21 26 -69 35 -108 8 -38 21 -77 28 -85 8 -9 22 -58 30 -110 20 -112 19 -104
10 -157 l-8 -43 617 0 616 0 0 895 0 895 -1600 0 -1600 0 0 -895z"/>
<path d="M1507 485 c-15 -14 -33 -37 -40 -53 -18 -40 -66 -116 -112 -174 -22 -27 -49
-64 -60 -82 -11 -18 -26 -39 -32 -47 -46 -53 -63 -80 -63 -98 0 -21 1 -21 321
-21 l322 0 -5 49 c-3 27 -14 61 -25 77 -11 16 -26 46 -32 67 -7 20 -16 37 -21
37 -4 0 -18 17 -30 38 -12 20 -28 41 -36 45 -8 4 -14 12 -14 18 0 5 -15 32
-34 60 -19 27 -38 58 -41 68 -4 14 -56 45 -69 41 -1 0 -14 -12 -29 -25z"/>
</g>
</svg>
