<svg version="1.0" xmlns="http://www.w3.org/2000/svg"
 width="668px" style="transform:scale(1,1.001);" height="375.75px" viewBox="0 0 320.000000 180.000000"
 preserveAspectRatio="xMidYMid meet">
<g transform="translate(0.000000,180.000000) scale(0.100000,-0.100000)"
fill="#000000" stroke="none">
<path d="M0 905 l0 -895 1600 0 1600 0 0 895 0 895 -1600 0 -1600 0 0 -895z m1667 778
c15 -10 39 -24 53 -30 14 -6 39 -29 55 -53 42 -60 46 -135 11 -218 -17 -40
-26 -80 -26 -115 0 -47 4 -57 33 -83 33 -32 77 -63 182 -129 129 -82 168 -145
183 -301 5 -54 20 -163 32 -241 24 -152 22 -186 -13 -205 -29 -15 -1077 -12
-1112 4 -14 6 -25 23 -29 40 -9 45 -6 177 4 223 5 22 16 69 24 105 9 36 24 83
36 105 11 21 20 45 20 52 0 17 59 103 71 103 5 0 9 6 9 13 0 7 30 36 68 64 37
29 81 65 97 80 17 16 42 37 58 46 49 32 35 78 -73 237 -27 40 -43 99 -37 137
7 43 65 130 92 139 11 3 28 13 37 21 41 37 175 40 225 6z"/>
</g>
</svg>
