<svg version="1.0" xmlns="http://www.w3.org/2000/svg"
 width="668px" style="transform:scale(1,1.001);" height="375.75px" viewBox="0 0 320.000000 180.000000"
 preserveAspectRatio="xMidYMid meet">
<g transform="translate(0.000000,180.000000) scale(0.100000,-0.100000)"
fill="#000000" stroke="none">
<path d="M0 905 l0 -895 529 0 528 0 8 152 c13 283 23 392 56 590 40 236 40 236 -54
348 -7 8 -12 43 -12 85 1 62 5 78 40 143 22 42 59 92 85 115 25 23 63 70 83
103 40 67 50 74 105 74 77 0 101 -23 117 -110 10 -58 35 -107 61 -118 77 -36
82 -237 9 -382 -14 -27 -25 -60 -25 -73 0 -22 24 -71 72 -145 26 -42 53 -102
68 -155 12 -47 11 -121 -6 -368 -5 -70 -3 -92 11 -119 11 -20 17 -55 17 -87
l0 -53 754 0 754 0 0 895 0 895 -1600 0 -1600 0 0 -895z"/>
<path d="M1344 696 c-12 -9 -31 -39 -43 -68 -13 -29 -35 -79 -51 -111 -30 -58 -43 -118
-55 -242 -4 -38 -13 -103 -21 -143 -8 -41 -14 -85 -14 -98 l0 -24 245 0 c243
0 245 0 245 21 0 14 -26 46 -70 87 -38 36 -70 72 -70 81 0 9 -18 37 -40 61
-44 49 -45 75 -5 120 32 37 55 93 55 137 0 33 -10 52 -56 111 -30 40 -59 72
-64 72 -5 0 -14 2 -22 5 -7 3 -23 -1 -34 -9z"/>
<path d="M1534 346 c-8 -48 1 -68 15 -33 14 35 14 67 1 67 -5 0 -12 -16 -16 -34z"/>
</g>
</svg>
