<svg version="1.0" xmlns="http://www.w3.org/2000/svg"
 width="668px" style="transform:scale(1,1.001);" height="375.75px" viewBox="0 0 320.000000 180.000000"
 preserveAspectRatio="xMidYMid meet">
<g transform="translate(0.000000,180.000000) scale(0.100000,-0.100000)"
fill="#000000" stroke="none">
<path d="M0 905 l0 -895 1600 0 1600 0 0 895 0 895 -1600 0 -1600 0 0 -895z m1651 723
c72 -39 107 -75 148 -153 36 -69 37 -85 12 -140 -10 -22 -21 -58 -25 -80 -4
-22 -16 -54 -27 -72 -26 -41 -35 -123 -19 -162 14 -35 100 -95 149 -104 19 -4
42 -14 51 -22 9 -8 37 -19 63 -24 33 -6 63 -22 109 -61 35 -29 67 -60 72 -69
5 -9 16 -23 26 -31 33 -28 64 -198 58 -309 -4 -56 -8 -67 -33 -89 l-29 -25
-151 9 c-82 5 -364 9 -625 9 -441 0 -478 1 -503 18 -46 30 -60 93 -32 146 8
16 19 56 24 89 7 44 19 74 43 105 31 42 147 127 263 193 75 43 94 69 95 130 0
38 -5 55 -20 69 -11 10 -20 23 -20 30 0 7 -9 20 -21 31 -11 10 -27 32 -35 49
-27 57 -65 120 -79 131 -7 5 -21 29 -30 52 -16 38 -16 45 0 92 13 39 32 64 88
116 40 36 83 70 97 76 87 37 96 38 193 33 86 -5 106 -9 158 -37z"/>
</g>
</svg>
