<svg version="1.0" xmlns="http://www.w3.org/2000/svg"
 width="668px" style="transform:scale(1,1.001);" height="375.75px" viewBox="0 0 320.000000 180.000000"
 preserveAspectRatio="xMidYMid meet">
<g transform="translate(0.000000,180.000000) scale(0.100000,-0.100000)"
fill="#000000" stroke="none">
<path d="M0 905 l0 -895 576 0 577 0 -7 41 c-6 37 -3 45 30 81 34 38 36 44 30 88 -3 26
-18 76 -32 111 -37 91 -37 181 0 274 15 39 34 88 43 110 8 22 23 54 34 72 27
43 17 79 -27 98 -40 17 -54 13 -74 -19 -8 -13 -37 -58 -65 -99 -27 -42 -69
-110 -93 -151 -30 -53 -51 -77 -73 -86 -26 -11 -32 -11 -40 1 -17 27 -9 80 24
147 19 37 40 83 47 102 7 19 24 60 37 90 32 70 47 115 73 218 l21 82 -22 38
c-13 20 -34 52 -46 71 -38 55 -30 124 20 179 17 18 31 22 76 22 51 -1 95 -18
97 -38 3 -35 18 -99 26 -109 6 -7 20 -13 32 -13 36 0 130 -27 134 -39 2 -6 10
-11 19 -11 20 0 132 -98 149 -132 20 -38 18 -203 -4 -308 -18 -92 -49 -152
-108 -215 -97 -105 -110 -141 -73 -210 11 -22 32 -69 46 -105 13 -36 38 -96
54 -133 25 -56 29 -76 23 -112 l-6 -45 851 0 851 0 0 895 0 895 -1600 0 -1600
0 0 -895z"/>
</g>
</svg>
