<svg version="1.0" xmlns="http://www.w3.org/2000/svg"
 width="668px" style="transform:scale(1,1.001);" height="375.75px" viewBox="0 0 320.000000 180.000000"
 preserveAspectRatio="xMidYMid meet">
<g transform="translate(0.000000,180.000000) scale(0.100000,-0.100000)"
fill="#000000" stroke="none">
<path d="M0 905 l0 -895 1600 0 1600 0 0 895 0 895 -1600 0 -1600 0 0 -895z m1976 689
c82 -30 121 -64 135 -118 13 -47 4 -141 -16 -173 -8 -11 -19 -42 -26 -67 -10
-40 -9 -50 11 -91 12 -25 25 -45 29 -45 4 0 27 -18 52 -40 24 -22 47 -40 51
-40 3 0 25 -22 48 -50 38 -46 42 -55 50 -132 9 -86 43 -181 73 -207 10 -7 17
-18 17 -23 0 -5 9 -21 20 -36 15 -20 20 -46 21 -102 4 -119 -15 -139 -139
-152 -221 -23 -971 -13 -1060 14 -19 6 -38 21 -47 37 -15 29 -45 198 -45 251
0 47 35 106 106 177 35 36 66 74 70 85 11 35 64 107 97 132 46 35 122 72 212
105 109 39 115 56 53 143 -61 84 -79 129 -68 166 21 76 65 127 138 163 74 36
130 36 218 3z"/>
</g>
</svg>
