<svg version="1.0" xmlns="http://www.w3.org/2000/svg"
 width="668px" style="transform:scale(1,1.001);" height="375.75px" viewBox="0 0 320.000000 180.000000"
 preserveAspectRatio="xMidYMid meet">
<g transform="translate(0.000000,180.000000) scale(0.100000,-0.100000)"
fill="#000000" stroke="none">
<path d="M0 905 l0 -895 561 0 561 0 -5 28 c-3 15 -10 47 -16 72 -10 47 -32 603 -29
750 1 70 -3 98 -26 160 -15 41 -33 100 -41 130 -19 75 -49 141 -77 167 -24 22
-77 39 -160 49 -39 4 -48 9 -48 25 0 13 -7 19 -22 20 -13 0 -40 6 -60 12 -35
11 -36 13 -22 32 12 16 17 17 23 7 4 -8 27 -16 50 -19 22 -3 41 -8 41 -12 1
-22 18 -31 44 -21 22 8 25 13 17 29 -14 26 -65 45 -105 38 -23 -4 -43 1 -64
13 -17 10 -49 24 -71 30 -33 9 -41 16 -51 48 -7 20 -21 44 -33 53 -21 17 -16
39 9 39 8 0 40 -11 72 -24 37 -15 88 -26 147 -31 72 -5 98 -12 130 -32 41 -27
146 -42 200 -29 26 7 26 7 19 79 -5 58 -3 80 10 105 9 17 16 40 16 52 0 20 -2
20 -535 20 l-535 0 0 -895z"/>
<path d="M1260 1779 c0 -11 6 -30 12 -42 7 -12 15 -58 18 -102 l5 -80 50 -27 c28 -16
66 -35 85 -44 19 -9 50 -30 68 -47 l33 -32 153 3 c129 2 155 0 166 -13 11 -13
10 -21 -8 -45 -12 -16 -22 -42 -22 -58 0 -48 -20 -56 -151 -60 -98 -4 -123 -2
-144 12 -35 23 -47 20 -73 -19 -18 -26 -22 -41 -17 -65 4 -18 8 -89 9 -158 2
-70 9 -183 16 -252 16 -156 9 -283 -19 -346 -12 -26 -21 -58 -21 -72 0 -14 -5
-51 -11 -81 -11 -51 -10 -62 15 -129 14 -40 26 -82 26 -93 0 -19 16 -19 875
-19 l875 0 0 895 0 895 -970 0 -970 0 0 -21z"/>
</g>
</svg>
