<svg version="1.0" xmlns="http://www.w3.org/2000/svg"
 width="668px" style="transform:scale(1,1.001);" height="375.75px" viewBox="0 0 320.000000 180.000000"
 preserveAspectRatio="xMidYMid meet">
<g transform="translate(0.000000,180.000000) scale(0.100000,-0.100000)"
fill="#000000" stroke="none">
<path d="M0 905 l0 -895 1600 0 1600 0 0 895 0 895 -1600 0 -1600 0 0 -895z m1754 715
c29 -17 62 -40 72 -51 27 -30 23 -94 -10 -161 -41 -84 -33 -97 110 -168 62
-30 100 -86 160 -235 51 -127 35 -194 -58 -245 -26 -14 -59 -41 -75 -59 l-28
-35 0 -155 c0 -86 -4 -162 -9 -169 -4 -7 -19 -17 -33 -23 -29 -11 -408 -16
-439 -5 -36 12 -47 56 -39 157 8 105 -2 231 -20 255 -11 16 -15 15 -43 -14
-24 -25 -32 -42 -36 -89 -16 -153 -36 -193 -97 -193 -36 0 -47 31 -39 110 4
45 3 69 -6 77 -9 10 -15 6 -24 -18 -7 -16 -22 -36 -33 -44 -59 -41 -63 49 -6
156 10 20 19 46 19 58 0 11 5 21 10 21 6 0 16 13 23 28 7 15 18 34 25 42 45
53 93 123 117 170 57 116 76 141 144 189 33 22 63 41 68 41 5 0 20 11 33 25
29 31 30 73 1 135 -11 25 -21 65 -21 89 0 39 5 49 41 83 71 67 112 73 193 28z"/>
</g>
</svg>
