<svg version="1.0" xmlns="http://www.w3.org/2000/svg"
 width="668px" style="transform:scale(1,1.001);" height="375.75px" viewBox="0 0 320.000000 180.000000"
 preserveAspectRatio="xMidYMid meet">
<g transform="translate(0.000000,180.000000) scale(0.100000,-0.100000)"
fill="#000000" stroke="none">
<path d="M0 905 l0 -895 1600 0 1600 0 0 895 0 895 -1600 0 -1600 0 0 -895z m1672 456
c15 -5 35 -22 44 -37 15 -23 16 -33 6 -81 -13 -64 -9 -74 50 -143 71 -83 109
-117 139 -125 31 -8 79 -53 102 -94 18 -34 21 -92 7 -126 l-9 -20 -1 20 c-2
17 -3 16 -9 -5 l-7 -24 -18 21 c-10 11 -31 35 -46 51 -15 17 -30 38 -33 47 -4
8 -12 15 -20 15 -7 0 -24 11 -37 25 -13 14 -31 25 -41 25 -10 0 -25 10 -33 22
-9 12 -21 23 -28 25 -71 16 -67 17 -114 -31 -45 -45 -46 -47 -40 -93 9 -76 23
-145 35 -183 8 -23 11 -106 9 -247 -3 -206 -2 -212 20 -242 23 -31 29 -75 12
-86 -5 -3 -31 -8 -57 -12 -78 -9 -80 -4 -86 237 -6 220 -19 287 -66 333 -19
20 -22 20 -37 5 -14 -14 -15 -32 -6 -154 6 -77 16 -151 22 -165 10 -23 9 -38
-10 -95 -26 -80 -62 -124 -101 -124 -40 0 -51 20 -40 71 15 63 12 177 -4 224
-8 22 -18 69 -21 103 -6 54 -11 65 -30 74 -14 7 -24 20 -24 32 -1 19 -2 19
-11 4 -13 -22 -55 -23 -63 -2 -12 31 -5 54 44 150 28 54 50 109 50 123 0 32
41 121 63 139 9 8 33 43 52 79 23 40 47 69 63 76 79 34 98 53 111 112 20 87
72 111 163 76z"/>
</g>
</svg>
