<svg version="1.0" xmlns="http://www.w3.org/2000/svg"
 width="668px" style="transform:scale(1,1.001);" height="375.75px" viewBox="0 0 320.000000 180.000000"
 preserveAspectRatio="xMidYMid meet">
<g transform="translate(0.000000,180.000000) scale(0.100000,-0.100000)"
fill="#000000" stroke="none">
<path d="M0 905 l0 -895 543 0 544 0 6 153 c3 83 11 168 17 187 5 19 14 104 20 188 5
84 12 158 16 163 3 5 10 52 15 104 4 52 16 118 25 146 15 45 15 60 5 113 -7
33 -18 104 -24 156 -7 54 -19 107 -28 121 -25 37 -99 74 -132 65 -34 -8 -105
-80 -113 -113 -8 -31 -47 -47 -76 -32 -17 9 -20 18 -15 55 6 53 72 174 105
190 12 6 33 21 46 33 12 12 42 27 67 34 44 13 44 13 59 80 21 92 32 101 115
92 60 -6 67 -9 76 -33 5 -15 14 -35 19 -44 6 -10 10 -25 10 -33 0 -26 17 -16
23 13 3 15 16 43 29 62 21 31 29 35 76 38 65 4 85 -7 111 -61 26 -53 27 -87 2
-118 -10 -13 -21 -41 -25 -62 -7 -35 -5 -38 28 -58 49 -28 76 -77 87 -155 9
-68 60 -187 101 -237 18 -22 23 -41 23 -87 0 -75 -14 -92 -52 -64 -16 12 -37
34 -48 51 -11 17 -37 43 -59 58 -31 23 -40 25 -47 14 -13 -20 -11 -55 7 -129
18 -77 29 -173 44 -375 6 -82 20 -212 30 -288 11 -75 20 -157 20 -182 l0 -45
775 0 775 0 0 895 0 895 -1600 0 -1600 0 0 -895z"/>
<path d="M1311 583 c-62 -200 -119 -454 -120 -545 l-1 -28 170 0 c94 0 170 3 170 8 -1
60 -57 390 -83 492 -40 151 -59 200 -77 200 -15 0 -27 -25 -59 -127z"/>
</g>
</svg>
