<svg version="1.0" xmlns="http://www.w3.org/2000/svg"
 width="668px" style="transform:scale(1,1.001);" height="375.75px" viewBox="0 0 320.000000 180.000000"
 preserveAspectRatio="xMidYMid meet">
<g transform="translate(0.000000,180.000000) scale(0.100000,-0.100000)"
fill="#000000" stroke="none">
<path d="M0 905 l0 -895 1600 0 1600 0 0 895 0 895 -1600 0 -1600 0 0 -895z m1744 540
c39 -14 88 -41 114 -62 47 -40 55 -50 72 -93 6 -14 18 -36 26 -50 19 -31 12
-124 -10 -149 -9 -10 -20 -39 -25 -65 -5 -26 -16 -55 -26 -66 -10 -11 -20 -39
-22 -63 -5 -43 -4 -44 38 -69 24 -14 54 -29 66 -32 28 -9 131 -69 223 -129 43
-29 120 -105 120 -120 0 -5 12 -33 26 -64 35 -73 26 -126 -25 -160 l-35 -23
-630 1 c-502 2 -637 5 -658 16 -38 19 -44 63 -19 142 12 35 21 71 21 80 0 45
88 141 162 176 18 9 51 26 73 40 22 13 63 30 91 39 67 21 88 45 81 92 -4 20
-15 46 -25 58 -11 12 -23 34 -26 50 -4 17 -17 40 -29 52 -64 65 -87 122 -73
178 3 14 45 65 94 114 78 80 94 91 152 110 88 28 159 27 244 -3z"/>
</g>
</svg>
