<svg version="1.0" xmlns="http://www.w3.org/2000/svg"
 width="668px" style="transform:scale(1,1.001);" height="375.75px" viewBox="0 0 320.000000 180.000000"
 preserveAspectRatio="xMidYMid meet">
<g transform="translate(0.000000,180.000000) scale(0.100000,-0.100000)"
fill="#000000" stroke="none">
<path d="M0 905 l0 -895 1600 0 1600 0 0 895 0 895 -1600 0 -1600 0 0 -895z m1956 779
c62 -43 109 -125 98 -171 -9 -36 -46 -95 -72 -114 -11 -7 -22 -25 -25 -39 -5
-21 1 -32 40 -63 25 -20 53 -37 62 -37 19 0 128 -104 142 -134 5 -12 13 -28
18 -36 40 -64 66 -172 57 -238 -7 -53 -54 -117 -93 -127 -15 -3 -55 -20 -88
-36 -97 -47 -105 -73 -79 -257 10 -67 -2 -109 -34 -120 -15 -5 -114 -7 -229
-4 -162 4 -205 8 -215 19 -7 9 -15 61 -19 117 -6 97 -12 117 -56 201 -12 22
-18 74 -24 200 -11 248 -16 259 -147 322 -110 53 -135 83 -126 148 4 22 13 50
20 62 19 30 175 193 185 193 4 0 25 12 46 26 45 30 86 27 118 -10 11 -13 27
-26 36 -29 24 -8 33 -71 15 -100 -14 -21 -14 -25 0 -45 19 -27 45 -28 69 -2
14 16 15 24 7 50 -11 30 -8 44 32 155 6 16 26 47 44 67 33 37 37 38 100 38 59
0 71 -4 118 -36z"/>
</g>
</svg>
