<svg version="1.0" xmlns="http://www.w3.org/2000/svg"
 width="668px" style="transform:scale(1,1.001);" height="375.75px" viewBox="0 0 320.000000 180.000000"
 preserveAspectRatio="xMidYMid meet">
<g transform="translate(0.000000,180.000000) scale(0.100000,-0.100000)"
fill="#000000" stroke="none">
<path d="M0 905 l0 -895 750 0 750 0 0 79 c0 44 -4 83 -10 86 -5 3 -24 -8 -41 -25 -36
-34 -51 -37 -72 -15 -12 11 -13 23 -6 56 13 59 3 98 -27 105 -13 3 -34 20 -47
38 -21 29 -22 41 -22 196 1 238 11 346 35 384 20 32 38 67 64 126 19 46 52 80
76 80 22 0 58 43 66 79 20 98 88 130 154 74 44 -37 54 -67 39 -126 -11 -47
-10 -51 18 -91 17 -23 33 -60 37 -81 11 -57 32 -92 96 -163 60 -65 73 -96 63
-155 -7 -44 -27 -54 -42 -21 -6 13 -15 24 -21 24 -5 0 -10 5 -10 11 0 12 -55
69 -67 69 -10 0 -52 53 -78 98 -25 41 -43 40 -77 -4 -33 -43 -43 -109 -40
-254 1 -58 1 -210 1 -338 l0 -232 806 0 805 0 0 895 0 895 -1600 0 -1600 0 0
-895z"/>
</g>
</svg>
