<svg version="1.0" xmlns="http://www.w3.org/2000/svg"
 width="668px" style="transform:scale(1,1.001);" height="375.75px" viewBox="0 0 320.000000 180.000000"
 preserveAspectRatio="xMidYMid meet">
<g transform="translate(0.000000,180.000000) scale(0.100000,-0.100000)"
fill="#000000" stroke="none">
<path d="M0 905 l0 -895 1600 0 1600 0 0 895 0 895 -1600 0 -1600 0 0 -895z m1610 775
c14 -10 34 -20 46 -24 11 -3 40 -32 62 -62 34 -45 42 -65 42 -98 -1 -42 -26
-129 -54 -181 -9 -16 -16 -38 -16 -48 0 -29 41 -76 77 -88 18 -6 33 -15 33
-20 0 -5 19 -19 43 -30 93 -43 212 -149 223 -197 3 -15 12 -43 19 -62 7 -19
16 -66 20 -105 4 -38 14 -84 22 -103 8 -19 18 -70 23 -114 5 -44 15 -95 21
-113 17 -46 -2 -112 -34 -120 -75 -19 -841 -25 -996 -8 -128 14 -131 18 -131
169 0 74 5 126 14 147 7 18 16 54 20 81 4 27 16 65 27 85 10 20 19 42 19 49 0
13 38 68 70 102 60 65 84 88 112 110 74 59 108 102 108 139 0 38 -34 108 -87
185 -37 53 -51 126 -34 177 17 51 131 138 196 150 55 9 125 0 155 -21z"/>
</g>
</svg>
