<svg version="1.0" xmlns="http://www.w3.org/2000/svg"
 width="668px" style="transform:scale(1,1.001);" height="375.75px" viewBox="0 0 320.000000 180.000000"
 preserveAspectRatio="xMidYMid meet">
<g transform="translate(0.000000,180.000000) scale(0.100000,-0.100000)"
fill="#000000" stroke="none">
<path d="M0 905 l0 -895 530 0 530 0 -2 63 c-2 52 2 71 24 108 14 24 29 61 33 81 4 20
16 44 26 54 10 9 19 24 19 33 0 9 14 43 30 76 16 33 30 67 30 76 0 10 13 49
30 87 16 39 30 78 30 86 0 8 9 30 20 48 23 40 27 111 11 189 -8 39 -9 74 -2
115 16 100 -14 129 -135 136 -29 1 -51 5 -49 7 3 2 -7 12 -20 23 -32 25 -32
54 0 111 27 48 45 56 165 72 50 7 146 42 171 62 8 7 23 13 31 13 13 0 17 17
20 93 3 87 5 96 33 130 39 47 81 61 166 55 59 -5 73 -10 112 -42 46 -38 57
-63 57 -137 0 -29 -7 -46 -30 -69 -45 -46 -28 -79 53 -106 29 -9 66 -27 84
-40 18 -14 47 -27 65 -31 18 -3 42 -14 54 -24 23 -21 103 -39 174 -39 36 0 58
-7 91 -30 43 -29 47 -30 165 -30 102 0 123 -3 128 -16 8 -22 7 -77 -2 -90 -18
-26 -227 -49 -241 -26 -5 8 -203 43 -251 44 -8 0 -61 6 -118 13 -134 17 -167
9 -176 -43 -3 -20 -6 -47 -6 -60 0 -13 -16 -57 -36 -97 -29 -59 -35 -82 -31
-112 11 -72 38 -175 56 -211 10 -21 23 -59 30 -86 7 -27 21 -66 31 -86 11 -21
22 -58 26 -82 3 -23 16 -59 27 -78 18 -29 21 -51 22 -137 l0 -103 612 0 613 0
0 895 0 895 -1600 0 -1600 0 0 -895z"/>
<path d="M1487 467 c-18 -18 -47 -59 -65 -89 -19 -31 -56 -80 -83 -108 -27 -28 -49 -55
-49 -59 0 -5 -7 -14 -16 -22 -8 -7 -26 -34 -39 -59 -13 -25 -31 -52 -39 -59
-9 -8 -16 -24 -16 -37 l0 -24 330 0 c324 0 330 0 330 20 0 11 -9 37 -20 57
-11 21 -20 45 -20 54 0 9 -8 27 -18 40 -10 13 -26 43 -36 66 -10 23 -29 52
-42 64 -13 12 -24 28 -24 34 0 7 -9 20 -21 31 -12 10 -30 36 -40 56 -21 41
-54 68 -82 68 -11 0 -33 -15 -50 -33z"/>
</g>
</svg>
