<svg version="1.0" xmlns="http://www.w3.org/2000/svg"
 width="668px" style="transform:scale(1,1.001);" height="375.75px" viewBox="0 0 320.000000 180.000000"
 preserveAspectRatio="xMidYMid meet">
<g transform="translate(0.000000,180.000000) scale(0.100000,-0.100000)"
fill="#000000" stroke="none">
<path d="M0 905 l0 -895 635 0 636 0 -2 48 c-2 48 21 143 47 195 8 16 14 36 14 45 0 23
44 115 73 155 62 83 80 136 86 257 4 63 11 124 18 135 26 46 73 187 73 220 0
36 -23 104 -39 115 -4 3 -18 26 -29 53 -21 47 -21 48 -2 105 41 132 165 261
268 282 31 7 77 18 101 26 57 18 115 18 130 0 6 -8 24 -19 40 -25 30 -13 71
-85 71 -124 -1 -12 -10 -47 -21 -77 -51 -139 -48 -158 38 -249 74 -77 99 -135
118 -272 30 -214 30 -223 6 -272 -24 -50 -63 -72 -146 -82 -78 -10 -113 -24
-122 -48 -4 -12 -7 -127 -8 -254 l0 -233 608 0 607 0 0 895 0 895 -1600 0
-1600 0 0 -895z"/>
<path d="M1740 1401 c0 -13 25 -20 49 -14 33 9 24 23 -14 23 -19 0 -35 -4 -35 -9z"/>
<path d="M1650 260 c-16 -17 -44 -59 -64 -93 -19 -34 -46 -74 -60 -89 -14 -15 -26 -36
-26 -48 0 -19 6 -20 135 -20 l135 0 0 24 c0 14 -4 27 -9 31 -10 6 -31 75 -50
168 -7 31 -17 57 -23 57 -5 0 -23 -14 -38 -30z"/>
</g>
</svg>
