<svg version="1.0" xmlns="http://www.w3.org/2000/svg"
 width="668px" style="transform:scale(1,1.001);" height="375.75px" viewBox="0 0 320.000000 180.000000"
 preserveAspectRatio="xMidYMid meet">
<g transform="translate(0.000000,180.000000) scale(0.100000,-0.100000)"
fill="#000000" stroke="none">
<path d="M0 905 l0 -895 536 0 537 0 -5 45 c-7 56 2 95 47 220 50 136 82 240 90 288 4
22 24 72 44 111 l36 71 -2 147 c-2 117 -5 152 -18 172 -19 29 -59 37 -95 20
-40 -19 -87 5 -95 49 -6 31 -1 44 47 111 83 120 91 130 131 169 l37 37 -6 103
-6 102 34 39 c29 34 41 40 93 47 87 12 128 3 166 -37 32 -33 34 -40 39 -121 5
-86 6 -88 39 -110 18 -12 55 -26 82 -29 41 -6 54 -13 86 -51 71 -84 118 -130
140 -137 12 -4 32 -20 43 -35 11 -16 31 -32 46 -35 14 -4 50 -32 79 -62 48
-49 61 -56 112 -65 126 -23 127 -23 141 -52 7 -15 10 -36 7 -47 -5 -17 -15
-20 -61 -20 -41 0 -54 -4 -54 -15 0 -22 -39 -38 -77 -32 -19 3 -56 24 -86 49
-28 25 -95 68 -147 98 -52 29 -104 61 -115 70 -16 14 -76 40 -91 40 -2 0 -1
-6 2 -14 3 -8 1 -17 -4 -20 -5 -3 -6 -26 -1 -53 4 -26 8 -101 8 -167 1 -98 4
-124 20 -150 10 -17 22 -45 26 -63 8 -39 104 -266 180 -428 22 -47 45 -148 45
-199 l0 -46 585 0 585 0 0 895 0 895 -1600 0 -1600 0 0 -895z"/>
<path d="M1495 553 c-23 -5 -44 -36 -100 -148 -22 -44 -48 -89 -57 -99 -10 -11 -18 -25
-18 -31 0 -7 -9 -20 -20 -30 -11 -10 -20 -23 -20 -28 0 -6 -18 -45 -40 -88
-67 -130 -97 -119 310 -119 l350 0 0 23 c0 13 -9 32 -19 41 -11 10 -23 32 -26
50 -10 44 -79 153 -177 276 -46 58 -90 115 -98 127 -16 23 -51 34 -85 26z"/>
</g>
</svg>
