<svg version="1.0" xmlns="http://www.w3.org/2000/svg"
 width="668px" style="transform:scale(1,1.001);" height="375.75px" viewBox="0 0 320.000000 180.000000"
 preserveAspectRatio="xMidYMid meet">
<g transform="translate(0.000000,180.000000) scale(0.100000,-0.100000)"
fill="#000000" stroke="none">
<path d="M0 905 l0 -895 1600 0 1600 0 0 895 0 895 -1600 0 -1600 0 0 -895z m1985 681
c19 -8 54 -18 79 -21 79 -12 229 -143 242 -212 9 -48 -2 -102 -26 -136 -12
-15 -28 -47 -36 -69 -8 -23 -18 -45 -23 -48 -17 -11 -71 -135 -71 -163 0 -49
53 -121 108 -146 51 -24 124 -65 168 -96 39 -27 154 -147 154 -161 0 -6 14
-28 30 -49 21 -27 30 -49 30 -75 0 -20 11 -58 24 -83 14 -25 28 -66 31 -90 10
-67 -1 -70 -209 -65 -191 5 -253 20 -243 58 7 26 2 28 -93 45 -137 24 -359 36
-633 34 -283 -2 -312 2 -323 46 -8 32 2 113 16 130 6 7 15 38 21 70 9 48 18
65 49 94 46 43 102 79 135 87 13 3 31 14 41 25 9 10 36 24 58 30 23 6 48 17
57 25 8 7 31 19 50 26 57 19 108 67 120 112 13 49 -2 104 -37 137 -14 13 -24
34 -24 50 0 15 -11 41 -25 57 -14 17 -25 36 -25 44 0 7 -9 30 -19 50 -16 29
-18 43 -10 72 18 64 127 161 233 207 71 31 104 34 151 15z"/>
</g>
</svg>
