<svg version="1.0" xmlns="http://www.w3.org/2000/svg"
 width="668px" style="transform:scale(1,1.001);" height="375.75px" viewBox="0 0 320.000000 180.000000"
 preserveAspectRatio="xMidYMid meet">
<g transform="translate(0.000000,180.000000) scale(0.100000,-0.100000)"
fill="#000000" stroke="none">
<path d="M0 905 l0 -895 556 0 555 0 -3 32 c-2 26 -9 33 -38 43 -34 12 -35 14 -32 56 2
24 11 57 20 74 14 24 18 66 20 211 5 238 -13 574 -33 638 -8 27 -22 94 -30
148 -8 54 -23 115 -34 136 -50 94 -101 222 -101 257 0 33 51 122 76 134 16 7
24 19 24 36 l0 25 -490 0 -490 0 0 -895z"/>
<path d="M1220 1776 c0 -20 8 -27 50 -41 40 -13 57 -26 76 -56 25 -41 48 -48 86 -28 47
25 79 -7 94 -94 3 -20 14 -47 24 -60 45 -58 64 -154 37 -191 -9 -12 -37 -22
-83 -30 -61 -10 -70 -14 -83 -41 -22 -45 -30 -158 -30 -426 l-1 -247 -29 -72
c-16 -39 -37 -81 -47 -91 -10 -11 -31 -52 -47 -92 -25 -61 -30 -90 -34 -184
l-5 -113 986 0 986 0 0 895 0 895 -990 0 -990 0 0 -24z"/>
<path d="M1059 1644 c-18 -22 1 -78 29 -82 20 -3 22 1 22 41 0 36 -4 46 -20 50 -10 3
-25 -1 -31 -9z"/>
<path d="M1370 1526 c0 -9 0 -19 -1 -23 0 -4 4 -9 10 -11 14 -5 14 35 1 43 -5 3 -10 -1
-10 -9z"/>
</g>
</svg>
