<svg version="1.0" xmlns="http://www.w3.org/2000/svg"
 width="668px" style="transform:scale(1,1.001);" height="375.75px" viewBox="0 0 320.000000 180.000000"
 preserveAspectRatio="xMidYMid meet">
<g transform="translate(0.000000,180.000000) scale(0.100000,-0.100000)"
fill="#000000" stroke="none">
<path d="M0 905 l0 -895 1600 0 1600 0 0 895 0 895 -1600 0 -1600 0 0 -895z m1403 741
c15 -19 27 -42 27 -50 0 -22 22 -68 43 -88 9 -10 17 -22 17 -27 0 -4 19 -21
43 -37 32 -22 59 -30 112 -35 93 -9 142 -23 169 -48 12 -12 29 -21 37 -21 17
0 98 -75 124 -115 17 -25 20 -52 23 -163 4 -130 3 -133 -26 -195 -46 -94 -81
-123 -119 -99 -12 7 -18 67 -15 135 1 23 6 36 12 32 25 -15 0 135 -28 168 -14
16 -16 16 -34 0 -15 -13 -17 -25 -12 -62 4 -30 -2 -81 -15 -145 -20 -96 -20
-105 -6 -260 8 -89 21 -184 28 -213 12 -44 12 -57 0 -85 -17 -39 -29 -48 -70
-48 -46 0 -89 40 -104 99 -7 27 -20 59 -29 71 -15 21 -18 21 -33 5 -9 -9 -19
-27 -22 -41 -3 -13 -7 -36 -10 -50 -9 -43 -49 -71 -112 -79 -53 -6 -57 -5 -87
24 l-31 32 2 117 c1 64 6 146 11 180 6 45 5 89 -5 150 -8 48 -12 110 -9 138 3
28 3 54 0 57 -4 3 -26 -20 -50 -51 -24 -31 -49 -64 -56 -72 -7 -8 -18 -28 -24
-45 -25 -66 -34 -91 -39 -116 -8 -45 -36 -45 -72 -2 -24 27 -33 48 -33 74 0
37 52 181 75 209 18 22 55 110 55 131 0 11 13 58 30 105 32 94 32 106 -7 189
-29 64 -29 94 2 136 14 19 34 49 46 67 12 18 33 35 48 38 14 3 35 9 46 14 42
18 69 11 98 -24z"/>
</g>
</svg>
