<svg version="1.0" xmlns="http://www.w3.org/2000/svg"
 width="668px" style="transform:scale(1,1.001);" height="375.75px" viewBox="0 0 320.000000 180.000000"
 preserveAspectRatio="xMidYMid meet">
<g transform="translate(0.000000,180.000000) scale(0.100000,-0.100000)"
fill="#000000" stroke="none">
<path d="M0 905 l0 -895 1056 0 c944 0 1056 2 1050 15 -3 9 6 45 19 81 14 37 25 77 25
90 0 25 -52 80 -85 90 -11 4 -33 17 -50 29 -16 13 -40 26 -52 29 -12 4 -23 16
-25 28 -2 12 -12 22 -22 24 -10 1 -23 9 -27 16 -14 21 -29 80 -29 114 0 40 51
120 82 127 14 4 30 18 36 32 6 14 15 25 20 25 5 0 23 22 40 49 27 41 32 58 32
110 0 34 -4 61 -8 61 -5 0 -18 -11 -30 -25 -18 -21 -31 -25 -75 -25 -71 0 -89
19 -91 94 0 64 22 112 67 141 17 11 48 46 70 78 22 32 57 77 78 99 46 50 50
85 15 116 -49 42 -41 161 13 188 12 6 33 21 46 34 33 31 90 23 144 -20 52 -42
62 -69 59 -165 -3 -76 -2 -80 21 -90 142 -58 143 -62 146 -343 2 -179 -1 -236
-13 -267 -14 -41 -29 -121 -58 -320 -8 -60 -20 -132 -25 -158 -5 -26 -9 -95
-9 -152 l0 -105 390 0 390 0 0 895 0 895 -1600 0 -1600 0 0 -895z"/>
<path d="M2220 35 c0 -16 6 -25 15 -25 9 0 15 9 15 25 0 16 -6 25 -15 25 -9 0 -15 -9
-15 -25z"/>
</g>
</svg>
