<svg version="1.0" xmlns="http://www.w3.org/2000/svg"
 width="668px" style="transform:scale(1,1.001);" height="375.75px" viewBox="0 0 320.000000 180.000000"
 preserveAspectRatio="xMidYMid meet">
<g transform="translate(0.000000,180.000000) scale(0.100000,-0.100000)"
fill="#000000" stroke="none">
<path d="M0 905 l0 -895 580 0 580 0 0 55 c0 55 31 156 56 185 27 30 64 76 106 130 42
54 52 72 99 180 13 30 37 70 54 88 36 42 44 123 15 152 -33 33 -43 121 -37
325 5 174 4 193 -13 225 -58 106 -63 135 -36 188 28 55 71 82 131 82 45 0 59
-5 94 -32 50 -41 65 -86 56 -173 -6 -56 -5 -67 16 -96 13 -19 32 -40 42 -47 9
-7 17 -17 17 -22 0 -5 14 -32 31 -61 16 -28 41 -85 55 -127 24 -71 26 -87 27
-317 2 -208 0 -245 -14 -261 -61 -73 -115 -235 -123 -372 l-6 -102 735 0 735
0 0 895 0 895 -1600 0 -1600 0 0 -895z"/>
<path d="M1453 164 c-7 -3 -13 -10 -13 -16 0 -6 -20 -30 -45 -54 -26 -24 -45 -51 -45
-63 0 -20 5 -21 100 -21 l100 0 -1 28 c0 15 -8 50 -18 77 -14 40 -22 50 -42
52 -13 1 -30 -1 -36 -3z"/>
</g>
</svg>
