<svg version="1.0" xmlns="http://www.w3.org/2000/svg"
 width="668px" style="transform:scale(1,1.001);" height="375.75px" viewBox="0 0 320.000000 180.000000"
 preserveAspectRatio="xMidYMid meet">
<g transform="translate(0.000000,180.000000) scale(0.100000,-0.100000)"
fill="#000000" stroke="none">
<path d="M0 905 l0 -895 1600 0 1600 0 0 895 0 895 -1600 0 -1600 0 0 -895z m1883 701
c89 -29 138 -64 202 -143 39 -48 45 -61 45 -102 0 -32 -8 -64 -25 -95 -14 -26
-25 -55 -25 -64 0 -10 -7 -27 -15 -40 -9 -12 -30 -48 -46 -79 -24 -45 -30 -66
-26 -97 10 -75 57 -113 248 -201 107 -49 238 -181 239 -241 0 -12 7 -39 16
-60 24 -58 14 -131 -22 -162 l-29 -25 -404 6 c-222 4 -500 7 -617 7 l-214 0
-31 28 c-53 48 -53 129 0 243 23 49 40 70 87 107 78 61 108 82 119 82 7 0 24
11 39 25 15 14 33 25 40 25 8 0 19 6 25 14 7 8 27 21 45 30 27 13 34 24 44 66
15 65 1 134 -33 166 -14 13 -25 32 -25 42 0 11 -8 30 -18 43 -35 48 -85 161
-84 190 0 17 8 41 17 55 30 46 158 165 204 189 58 31 131 29 244 -9z"/>
</g>
</svg>
