<svg version="1.0" xmlns="http://www.w3.org/2000/svg"
 width="668px" style="transform:scale(1,1.001);" height="375.75px" viewBox="0 0 320.000000 180.000000"
 preserveAspectRatio="xMidYMid meet">
<g transform="translate(0.000000,180.000000) scale(0.100000,-0.100000)"
fill="#000000" stroke="none">
<path d="M0 905 l0 -895 720 0 720 0 0 34 c0 34 30 107 75 181 14 22 30 51 37 65 7 14
20 36 30 49 10 13 18 31 18 40 0 9 13 41 30 71 16 30 37 71 46 90 9 19 20 37
24 40 9 6 49 113 57 153 3 15 -2 58 -11 95 -9 37 -18 101 -22 142 -5 63 -10
80 -35 109 -25 30 -36 36 -90 42 -47 5 -68 13 -91 36 -57 53 -68 92 -68 249 0
133 2 144 25 187 27 48 65 67 92 46 42 -36 55 -116 27 -170 -8 -17 -18 -52
-21 -78 -5 -47 -5 -48 28 -60 18 -6 48 -9 66 -6 18 3 49 7 68 10 29 5 38 13
50 42 14 32 14 38 0 53 -8 9 -15 21 -15 27 0 5 -9 21 -21 34 -31 36 -22 105
20 139 78 64 89 70 138 70 57 0 62 -3 94 -55 21 -35 24 -52 24 -135 0 -52 4
-101 8 -107 21 -33 96 -62 195 -77 99 -15 103 -15 122 4 18 18 18 21 4 57 -9
20 -31 55 -49 78 -40 49 -48 75 -35 109 15 39 36 42 81 10 41 -28 89 -110 89
-151 0 -11 4 -23 9 -28 5 -6 23 -36 40 -68 34 -63 42 -148 18 -181 -8 -11 -51
-26 -119 -42 -144 -34 -153 -43 -161 -160 -3 -49 -10 -102 -16 -117 -16 -41
-14 -239 3 -306 8 -31 20 -110 26 -175 8 -80 21 -149 41 -207 16 -48 29 -99
29 -113 l0 -26 450 0 450 0 0 895 0 895 -1600 0 -1600 0 0 -895z"/>
<path d="M1870 358 c-6 -7 -21 -28 -35 -46 -28 -41 -87 -105 -112 -124 -10 -7 -36 -36
-57 -65 -22 -29 -45 -54 -53 -57 -7 -3 -13 -17 -13 -31 l0 -25 255 0 255 0 0
22 c0 12 -6 29 -14 37 -20 22 -96 172 -96 188 0 17 -41 95 -55 105 -16 12 -63
9 -75 -4z"/>
</g>
</svg>
