<svg version="1.0" xmlns="http://www.w3.org/2000/svg"
 width="668px" style="transform:scale(1,1.001);" height="375.75px" viewBox="0 0 320.000000 180.000000"
 preserveAspectRatio="xMidYMid meet">
<g transform="translate(0.000000,180.000000) scale(0.100000,-0.100000)"
fill="#000000" stroke="none">
<path d="M0 905 l0 -895 695 0 c661 0 695 1 695 18 0 10 9 35 20 57 11 22 20 48 20 58
0 11 -20 79 -45 153 -41 120 -45 142 -45 226 0 92 13 180 45 312 13 56 14 71
3 78 -9 5 -23 -4 -45 -29 -18 -21 -33 -43 -33 -50 0 -21 -74 -91 -104 -99 -24
-6 -33 -3 -49 17 -15 19 -18 33 -12 69 3 25 10 68 14 97 4 29 10 56 14 60 4 4
29 10 54 13 37 4 51 12 74 40 24 29 30 50 38 125 9 75 16 96 43 135 17 25 38
49 45 53 19 11 16 28 -12 81 -16 29 -25 63 -25 91 0 39 3 45 36 64 52 31 132
29 168 -4 26 -24 27 -30 25 -98 -3 -82 15 -123 60 -133 14 -3 31 -7 38 -9 20
-6 72 -92 104 -171 40 -99 37 -150 -11 -197 -57 -56 -58 -61 -62 -337 -4 -252
-4 -256 -32 -330 -41 -108 -45 -155 -13 -188 33 -36 50 -70 43 -88 -5 -12 98
-14 724 -14 l730 0 0 895 0 895 -1600 0 -1600 0 0 -895z"/>
<path d="M1512 577 c-6 -7 -15 -40 -21 -72 -9 -58 0 -131 37 -304 12 -56 28 -47 46 23
23 94 20 216 -7 295 -23 67 -36 81 -55 58z"/>
<path d="M1547 64 c-4 -4 -7 -18 -7 -31 0 -18 5 -23 26 -23 22 0 25 4 22 27 -3 27 -26
41 -41 27z"/>
</g>
</svg>
