<svg version="1.0" xmlns="http://www.w3.org/2000/svg"
 width="668px" style="transform:scale(1,1.001);" height="375.75px" viewBox="0 0 320.000000 180.000000"
 preserveAspectRatio="xMidYMid meet">
<g transform="translate(0.000000,180.000000) scale(0.100000,-0.100000)"
fill="#000000" stroke="none">
<path d="M0 905 l0 -895 785 0 785 0 0 29 c0 16 -11 62 -24 102 -13 41 -31 111 -40 156
-9 45 -29 112 -45 150 -16 37 -32 84 -36 103 -3 19 -11 47 -17 62 -9 23 -13
26 -29 17 -26 -13 -36 -5 -49 39 -16 58 -11 147 13 273 18 92 29 122 52 152
17 20 36 37 42 37 7 0 30 16 50 35 20 19 40 35 44 35 3 0 9 22 13 50 5 39 14
57 43 85 33 32 41 35 99 35 42 0 66 -4 71 -14 4 -7 18 -18 30 -24 32 -18 47
-74 34 -127 -15 -58 -14 -91 2 -107 8 -7 27 -34 42 -58 27 -42 29 -55 41 -230
6 -102 15 -202 19 -222 6 -30 4 -39 -9 -44 -30 -11 -61 5 -86 46 -14 22 -27
40 -31 40 -3 0 -5 -114 -4 -253 1 -208 4 -260 18 -300 10 -27 15 -53 12 -58
-4 -5 263 -9 684 -9 l691 0 0 895 0 895 -1600 0 -1600 0 0 -895z"/>
<path d="M1677 84 c-4 -4 -7 -22 -7 -41 0 -26 4 -33 20 -33 14 0 20 7 20 23 0 27 -22
61 -33 51z"/>
</g>
</svg>
