<svg version="1.0" xmlns="http://www.w3.org/2000/svg"
 width="668px" style="transform:scale(1,1.001);" height="375.75px" viewBox="0 0 320.000000 180.000000"
 preserveAspectRatio="xMidYMid meet">
<g transform="translate(0.000000,180.000000) scale(0.100000,-0.100000)"
fill="#000000" stroke="none">
<path d="M0 905 l0 -895 1600 0 1600 0 0 895 0 895 -1600 0 -1600 0 0 -895z m1540 503
c11 -18 20 -45 20 -59 0 -63 11 -88 44 -99 18 -6 48 -27 68 -48 54 -55 148
-264 148 -327 0 -19 5 -57 11 -86 13 -60 0 -163 -27 -217 -12 -25 -14 -47 -9
-91 8 -72 -6 -126 -43 -167 -48 -53 -57 -85 -37 -143 20 -61 13 -91 -21 -91
-36 0 -76 23 -112 66 -46 53 -50 79 -20 112 34 37 65 91 72 127 8 39 -9 128
-31 161 -15 23 -18 24 -28 10 -7 -9 -16 -12 -20 -8 -4 4 -5 -6 -2 -23 3 -16
-3 -64 -14 -105 -10 -41 -19 -106 -19 -143 0 -37 -7 -84 -15 -104 -8 -19 -15
-46 -15 -59 0 -12 -7 -30 -16 -38 -15 -16 -84 -23 -85 -8 0 4 -1 162 -3 352
-1 218 -7 367 -14 405 -7 33 -15 75 -18 93 -5 32 -5 32 -34 17 -16 -8 -35 -23
-42 -32 -7 -10 -22 -23 -33 -29 -11 -6 -28 -26 -37 -44 -33 -64 -104 -109
-150 -94 -30 9 -48 59 -51 137 -3 102 14 127 86 127 41 0 58 5 81 25 16 14 32
25 36 25 4 0 27 26 51 58 23 31 55 68 70 82 26 23 28 31 31 116 4 118 16 134
100 134 55 0 59 -2 78 -32z"/>
<path d="M1560 580 c0 -5 7 -7 15 -4 8 4 15 8 15 10 0 2 -7 4 -15 4 -8 0 -15 -4 -15
-10z"/>
</g>
</svg>
