<svg version="1.0" xmlns="http://www.w3.org/2000/svg"
 width="668px" style="transform:scale(1,1.001);" height="375.75px" viewBox="0 0 320.000000 180.000000"
 preserveAspectRatio="xMidYMid meet">
<g transform="translate(0.000000,180.000000) scale(0.100000,-0.100000)"
fill="#000000" stroke="none">
<path d="M0 905 l0 -895 1600 0 1600 0 0 895 0 895 -1600 0 -1600 0 0 -895z m1751 718
c104 -33 159 -70 211 -141 40 -54 42 -60 42 -124 -1 -48 -6 -74 -17 -86 -9
-10 -20 -34 -23 -53 -4 -19 -17 -50 -30 -69 -13 -19 -30 -54 -38 -78 -14 -39
-14 -47 2 -90 14 -37 26 -51 57 -67 22 -12 51 -28 65 -37 14 -9 44 -19 67 -23
23 -4 53 -14 65 -24 13 -9 35 -22 49 -28 31 -13 114 -108 124 -143 4 -14 18
-45 31 -70 13 -25 24 -52 24 -60 0 -9 9 -33 20 -55 19 -38 25 -74 22 -126 -4
-51 -6 -51 -737 -47 -651 4 -678 5 -691 23 -8 10 -14 30 -14 44 0 48 30 186
43 196 7 6 18 28 25 50 6 23 35 66 65 100 43 47 73 69 143 103 181 87 199 98
213 126 19 40 6 127 -24 160 -13 14 -26 39 -30 56 -4 17 -13 34 -20 37 -8 2
-19 21 -26 41 -6 21 -21 47 -32 59 -13 15 -22 41 -25 76 -4 49 -2 56 33 97 20
25 41 46 46 48 4 2 26 21 48 42 93 91 175 108 312 63z"/>
</g>
</svg>
