<svg version="1.0" xmlns="http://www.w3.org/2000/svg"
 width="668px" style="transform:scale(1,1.001);" height="375.75px" viewBox="0 0 320.000000 180.000000"
 preserveAspectRatio="xMidYMid meet">
<g transform="translate(0.000000,180.000000) scale(0.100000,-0.100000)"
fill="#000000" stroke="none">
<path d="M0 905 l0 -895 1600 0 1600 0 0 895 0 895 -1600 0 -1600 0 0 -895z m1742 753
c106 -81 132 -146 93 -232 -30 -65 -31 -86 -7 -116 14 -18 32 -23 87 -28 55
-4 90 -15 159 -48 49 -24 94 -40 100 -37 36 23 55 49 60 88 8 49 26 70 56 62
18 -5 20 0 20 52 0 32 -5 72 -11 90 -10 28 -9 34 7 46 28 21 73 9 114 -31 34
-33 35 -37 38 -118 4 -83 3 -85 -44 -182 -26 -54 -65 -117 -86 -140 -33 -36
-47 -43 -91 -49 -65 -8 -226 -41 -249 -50 -24 -9 -57 -67 -90 -155 -27 -71
-29 -86 -34 -270 -4 -156 -8 -198 -20 -210 -12 -12 -50 -15 -212 -16 -235 -1
-259 2 -277 30 -16 25 -3 114 22 153 13 19 15 42 10 121 -3 54 -11 118 -17
142 -5 25 -15 71 -21 103 -8 43 -18 65 -42 88 -48 45 -75 56 -161 62 -43 3
-83 10 -88 15 -6 6 -8 56 -6 115 2 84 7 109 21 125 10 11 23 37 28 58 6 22 28
59 48 84 21 25 43 55 50 67 13 26 64 56 101 60 19 3 28 -3 38 -24 6 -15 12
-33 12 -39 0 -17 -37 -80 -73 -126 -25 -31 -28 -40 -17 -53 13 -16 40 -21 40
-7 0 4 41 8 92 9 86 2 93 3 119 30 l29 28 -20 63 c-49 157 3 292 112 292 34 0
53 -9 110 -52z"/>
</g>
</svg>
