<svg version="1.0" xmlns="http://www.w3.org/2000/svg"
 width="668px" style="transform:scale(1,1.001);" height="375.75px" viewBox="0 0 320.000000 180.000000"
 preserveAspectRatio="xMidYMid meet">
<g transform="translate(0.000000,180.000000) scale(0.100000,-0.100000)"
fill="#000000" stroke="none">
<path d="M0 905 l0 -895 706 0 705 0 -6 83 c-4 45 -13 104 -21 131 -8 27 -14 72 -14
100 1 51 6 69 55 184 21 52 28 87 36 208 5 79 16 175 23 212 8 37 17 126 21
198 7 125 6 133 -20 205 -43 122 -67 202 -72 246 -7 59 34 127 93 155 34 15
44 26 44 44 l0 24 -775 0 -775 0 0 -895z"/>
<path d="M1730 1777 c0 -15 9 -26 29 -35 117 -52 170 -174 120 -275 -11 -23 -23 -67
-26 -97 -5 -50 -3 -59 21 -87 14 -17 26 -34 26 -38 0 -4 15 -29 34 -55 32 -44
60 -99 97 -190 21 -51 18 -234 -5 -345 -13 -60 -21 -156 -25 -285 -7 -189 -8
-197 -35 -248 -15 -29 -32 -55 -37 -58 -5 -3 -9 -16 -9 -30 l0 -24 640 0 640
0 0 895 0 895 -735 0 -735 0 0 -23z"/>
</g>
</svg>
