<svg version="1.0" xmlns="http://www.w3.org/2000/svg"
 width="668px" style="transform:scale(1,1.001);" height="375.75px" viewBox="0 0 320.000000 180.000000"
 preserveAspectRatio="xMidYMid meet">
<g transform="translate(0.000000,180.000000) scale(0.100000,-0.100000)"
fill="#000000" stroke="none">
<path d="M0 905 l0 -895 1600 0 1600 0 0 895 0 895 -1600 0 -1600 0 0 -895z m1874 815
c46 -7 67 -17 93 -42 18 -17 33 -37 33 -44 0 -6 7 -17 15 -24 33 -28 10 -117
-50 -189 -35 -41 -28 -85 18 -106 90 -43 196 -141 234 -217 35 -70 56 -161 51
-218 -4 -41 -12 -58 -39 -86 -19 -19 -45 -41 -59 -49 -14 -7 -46 -24 -72 -38
-26 -14 -60 -39 -74 -57 -27 -31 -27 -33 -20 -139 3 -59 3 -122 0 -140 -8 -39
-57 -74 -89 -64 -11 3 -93 5 -183 5 -161 -2 -163 -2 -187 23 -23 22 -25 32
-25 118 0 79 -4 101 -25 143 -47 94 -55 131 -55 248 0 153 -13 222 -47 258
-14 15 -36 31 -47 34 -12 3 -53 21 -93 40 -65 31 -74 38 -84 73 -13 45 -1 76
53 129 57 57 153 130 181 137 15 4 31 13 35 20 21 36 92 45 147 19 19 -9 41
-14 50 -12 9 1 27 29 40 62 33 82 68 114 135 125 3 1 32 -3 64 -9z"/>
</g>
</svg>
