<svg version="1.0" xmlns="http://www.w3.org/2000/svg"
 width="668px" style="transform:scale(1,1.001);" height="375.75px" viewBox="0 0 320.000000 180.000000"
 preserveAspectRatio="xMidYMid meet">
<g transform="translate(0.000000,180.000000) scale(0.100000,-0.100000)"
fill="#000000" stroke="none">
<path d="M0 905 l0 -895 705 0 705 0 0 23 c0 13 -5 28 -11 34 -8 8 -8 39 0 115 37 350
37 338 13 429 -12 46 -26 111 -32 144 -24 153 -21 148 -64 114 -26 -20 -38
-43 -85 -151 -21 -50 -65 -97 -91 -98 -23 0 -80 56 -80 79 0 12 -4 21 -9 21
-24 0 -41 34 -41 78 1 64 31 101 94 113 25 5 60 18 76 31 39 28 100 106 100
127 0 9 17 34 37 56 37 40 37 41 39 132 1 57 6 99 14 108 9 11 32 15 80 15 67
0 68 0 84 -34 9 -19 16 -57 16 -85 0 -52 0 -52 44 -71 46 -19 126 -93 126
-115 0 -7 19 -59 42 -116 50 -125 87 -338 64 -374 -22 -34 -26 -67 -17 -145
10 -94 1 -122 -52 -158 -58 -38 -70 -66 -50 -111 23 -53 27 -87 11 -94 -21 -8
-114 28 -149 57 -17 14 -34 26 -38 26 -9 0 -61 -113 -61 -134 0 -15 79 -16
865 -16 l865 0 0 895 0 895 -1600 0 -1600 0 0 -895z"/>
<path d="M1582 467 c-6 -24 -14 -69 -18 -101 -7 -57 -7 -58 17 -54 16 2 31 16 44 40 18
34 18 40 4 94 -8 32 -20 59 -26 61 -6 2 -15 -16 -21 -40z"/>
</g>
</svg>
