<svg version="1.0" xmlns="http://www.w3.org/2000/svg"
 width="668px" style="transform:scale(1,1.001);" height="375.75px" viewBox="0 0 320.000000 180.000000"
 preserveAspectRatio="xMidYMid meet">
<g transform="translate(0.000000,180.000000) scale(0.100000,-0.100000)"
fill="#000000" stroke="none">
<path d="M0 905 l0 -895 561 0 562 0 -6 59 c-17 157 45 481 124 656 17 37 25 79 30 160
4 66 14 126 24 150 14 32 15 46 6 77 -7 21 -21 46 -32 57 -33 30 -35 80 -5
144 14 32 30 57 35 57 5 0 12 9 16 19 3 12 23 26 48 34 38 13 42 17 39 43 -2
16 -9 36 -17 44 -23 27 -45 78 -45 106 0 14 14 44 31 65 l31 39 73 0 c67 0
125 -14 125 -29 0 -3 11 -19 25 -35 29 -33 32 -71 10 -122 -13 -32 -13 -39 1
-65 9 -19 32 -37 59 -49 65 -28 98 -85 93 -160 -2 -35 -12 -67 -24 -86 -32
-46 -44 -91 -44 -173 -1 -42 -5 -96 -9 -120 -9 -46 1 -98 37 -201 24 -68 69
-179 82 -202 6 -10 10 -24 10 -33 0 -8 16 -48 35 -88 39 -84 73 -193 88 -284
l11 -63 613 0 613 0 0 895 0 895 -1600 0 -1600 0 0 -895z"/>
<path d="M1443 523 c-28 -32 -52 -75 -79 -148 -10 -27 -31 -72 -46 -98 -27 -46 -65
-165 -75 -234 l-5 -33 296 0 296 0 0 29 c0 17 -4 32 -9 35 -5 3 -20 27 -34 53
-30 59 -74 131 -117 193 -6 8 -26 40 -44 70 -51 81 -119 159 -139 160 -10 0
-29 -12 -44 -27z"/>
</g>
</svg>
