<svg version="1.0" xmlns="http://www.w3.org/2000/svg"
 width="668px" style="transform:scale(1,1.001);" height="375.75px" viewBox="0 0 320.000000 180.000000"
 preserveAspectRatio="xMidYMid meet">
<g transform="translate(0.000000,180.000000) scale(0.100000,-0.100000)"
fill="#000000" stroke="none">
<path d="M0 905 l0 -895 625 0 625 0 0 23 c0 13 -7 32 -15 43 -23 30 -18 58 21 130 32
57 37 75 37 133 0 73 -15 111 -68 174 -44 51 -97 180 -98 238 -1 31 7 57 23
84 30 48 32 116 4 148 -36 39 -53 75 -60 119 -4 24 -15 65 -26 92 -12 31 -20
78 -21 126 -1 75 0 77 37 123 21 26 45 47 53 47 8 0 29 10 46 23 47 33 172 38
206 8 14 -12 35 -24 47 -27 31 -8 72 -63 89 -121 13 -41 12 -56 0 -110 -8 -35
-21 -79 -30 -99 -16 -38 -13 -54 11 -54 8 0 23 -9 35 -21 13 -13 43 -24 81
-30 34 -6 72 -18 84 -28 13 -10 41 -22 61 -26 27 -5 52 -21 88 -58 28 -29 70
-71 95 -94 104 -96 151 -151 176 -207 24 -53 26 -66 20 -141 -3 -46 -10 -94
-15 -108 -17 -44 -14 -139 5 -187 12 -31 17 -69 17 -122 l-2 -78 525 0 524 0
0 895 0 895 -1600 0 -1600 0 0 -895z"/>
</g>
</svg>
