<svg version="1.0" xmlns="http://www.w3.org/2000/svg"
 width="668px" style="transform:scale(1,1.001);" height="375.75px" viewBox="0 0 320.000000 180.000000"
 preserveAspectRatio="xMidYMid meet">
<g transform="translate(0.000000,180.000000) scale(0.100000,-0.100000)"
fill="#000000" stroke="none">
<path d="M0 905 l0 -895 1600 0 1600 0 0 895 0 895 -1600 0 -1600 0 0 -895z m1408 779
c32 -9 52 -54 52 -119 0 -69 11 -91 53 -109 43 -17 93 -76 107 -123 6 -21 16
-68 22 -104 10 -60 9 -75 -10 -145 -20 -74 -21 -91 -13 -269 5 -104 16 -226
24 -270 8 -44 20 -123 27 -175 6 -52 16 -123 22 -157 13 -81 6 -104 -38 -126
-40 -20 -58 -13 -68 26 -10 41 -36 230 -36 263 0 17 -12 69 -26 115 -14 46
-32 118 -41 159 -23 107 -40 124 -69 69 -25 -49 -46 -130 -46 -174 1 -48 24
-151 57 -256 19 -60 22 -84 15 -115 -8 -35 -31 -64 -52 -64 -5 0 -22 -9 -37
-21 -65 -48 -103 3 -62 82 26 49 28 102 7 154 -8 22 -27 83 -41 135 -33 126
-33 231 0 378 40 175 31 279 -16 191 -13 -24 -26 -53 -29 -63 -7 -25 -62 -41
-90 -26 -17 9 -20 21 -20 78 0 89 16 181 35 202 8 9 12 19 9 22 -9 10 31 80
75 129 48 55 56 97 24 131 -28 31 -44 83 -36 119 7 36 13 40 83 55 65 14 87
16 118 8z"/>
</g>
</svg>
