<svg version="1.0" xmlns="http://www.w3.org/2000/svg"
 width="668px" style="transform:scale(1,1.001);" height="375.75px" viewBox="0 0 320.000000 180.000000"
 preserveAspectRatio="xMidYMid meet">
<g transform="translate(0.000000,180.000000) scale(0.100000,-0.100000)"
fill="#000000" stroke="none">
<path d="M0 905 l0 -895 1600 0 1600 0 0 895 0 895 -1600 0 -1600 0 0 -895z m1370 679
c44 -9 70 -54 70 -121 0 -47 4 -56 49 -109 58 -68 81 -131 81 -225 0 -51 -6
-83 -25 -125 -14 -31 -25 -67 -25 -81 0 -29 23 -75 60 -123 66 -84 105 -229
80 -294 -6 -17 -33 -52 -60 -79 -58 -58 -74 -102 -59 -162 22 -84 22 -85 5
-91 -12 -5 -28 5 -50 30 -19 20 -38 36 -42 37 -44 4 -56 8 -74 24 -35 31 -17
106 22 93 12 -4 78 65 78 82 0 13 -23 28 -60 38 -19 6 -26 11 -16 11 32 2 66
41 66 76 0 23 -11 41 -43 73 -23 23 -50 42 -58 42 -27 0 -56 -42 -108 -155
-41 -89 -52 -128 -61 -200 -29 -233 -33 -249 -63 -259 -19 -7 -33 -7 -45 1
-26 16 -22 370 6 548 51 324 52 322 -19 423 -36 51 -39 61 -39 122 0 106 43
209 116 280 25 25 55 62 65 83 28 55 78 75 149 61z"/>
</g>
</svg>
