<svg version="1.0" xmlns="http://www.w3.org/2000/svg"
 width="668px" style="transform:scale(1,1.001);" height="375.75px" viewBox="0 0 320.000000 180.000000"
 preserveAspectRatio="xMidYMid meet">
<g transform="translate(0.000000,180.000000) scale(0.100000,-0.100000)"
fill="#000000" stroke="none">
<path d="M0 905 l0 -895 1600 0 1600 0 0 895 0 895 -1600 0 -1600 0 0 -895z m1525 765
c17 -11 40 -20 52 -20 13 0 41 -18 65 -41 l43 -42 -1 -92 c0 -69 -5 -100 -17
-118 -9 -14 -21 -45 -26 -68 -12 -52 6 -94 47 -112 15 -6 41 -21 57 -33 17
-12 41 -25 55 -29 14 -4 34 -15 45 -25 11 -10 31 -21 45 -25 14 -4 48 -32 77
-62 40 -42 54 -65 62 -104 6 -28 16 -59 21 -70 6 -10 15 -52 20 -94 5 -41 16
-88 25 -105 8 -16 15 -42 15 -58 0 -16 9 -58 21 -93 24 -76 19 -143 -12 -159
-12 -7 -151 -12 -362 -15 -453 -5 -448 -5 -552 5 -49 5 -113 10 -142 10 -51 0
-53 1 -78 43 -29 51 -33 109 -11 182 8 26 18 73 22 104 3 31 15 70 25 87 11
17 19 42 19 55 0 37 55 113 130 182 119 110 160 160 160 193 0 33 -58 156
-102 215 -19 25 -23 44 -23 100 l0 69 53 50 c30 28 58 50 64 50 5 0 21 9 35
20 35 28 126 28 168 0z"/>
</g>
</svg>
