<svg version="1.0" xmlns="http://www.w3.org/2000/svg"
 width="668px" style="transform:scale(1,1.001);" height="375.75px" viewBox="0 0 320.000000 180.000000"
 preserveAspectRatio="xMidYMid meet">
<g transform="translate(0.000000,180.000000) scale(0.100000,-0.100000)"
fill="#000000" stroke="none">
<path d="M0 905 l0 -895 520 0 521 0 -7 73 c-4 52 -2 84 9 117 8 25 18 61 22 80 4 19
11 41 15 50 22 44 40 92 40 106 0 15 10 38 71 172 16 35 29 69 29 75 0 7 6 23
13 37 38 75 73 216 63 253 -3 12 -10 63 -16 113 -14 134 -5 154 108 242 37 28
55 34 113 39 65 6 72 8 104 45 43 47 70 58 139 58 94 0 114 -8 126 -48 10 -37
-2 -112 -18 -112 -10 0 -42 -71 -42 -94 0 -10 5 -27 11 -38 9 -16 9 -43 -1
-105 -13 -88 -38 -147 -91 -213 -36 -45 -35 -67 11 -165 82 -177 93 -221 111
-450 5 -72 12 -154 15 -182 l6 -53 664 0 664 0 0 895 0 895 -1600 0 -1600 0 0
-895z"/>
<path d="M1395 603 c-19 -21 -35 -42 -35 -47 0 -6 -18 -31 -40 -58 -37 -43 -120 -200
-120 -226 0 -6 -8 -25 -17 -44 -9 -18 -22 -45 -30 -60 -7 -14 -13 -37 -13 -50
0 -13 -7 -33 -15 -44 -8 -10 -15 -29 -15 -41 l0 -23 320 0 320 0 -6 83 c-3 45
-12 102 -19 127 -7 25 -16 68 -20 95 -13 102 -33 149 -86 204 -8 9 -30 37 -48
63 -34 48 -53 58 -109 58 -25 0 -41 -9 -67 -37z"/>
</g>
</svg>
