<svg version="1.0" xmlns="http://www.w3.org/2000/svg"
 width="668px" style="transform:scale(1,1.001);" height="375.75px" viewBox="0 0 320.000000 180.000000"
 preserveAspectRatio="xMidYMid meet">
<g transform="translate(0.000000,180.000000) scale(0.100000,-0.100000)"
fill="#000000" stroke="none">
<path d="M0 905 l0 -895 570 0 570 0 0 28 c0 15 15 50 33 78 45 68 43 136 -7 304 -29
97 -36 135 -32 170 8 56 77 263 112 333 15 31 18 67 8 116 -8 36 -26 40 -46 9
-18 -26 -110 -42 -148 -24 -56 25 -79 139 -40 201 18 29 27 34 77 40 76 9 75
9 127 75 25 32 56 60 68 64 13 3 33 21 46 40 19 28 21 38 13 55 -25 45 -4 159
33 183 14 10 108 10 121 0 6 -4 22 -22 35 -41 18 -26 23 -48 25 -105 2 -81 7
-98 47 -146 16 -19 34 -41 40 -49 17 -21 37 -83 37 -116 1 -47 -23 -124 -59
-194 -38 -72 -39 -89 -26 -291 5 -89 16 -157 38 -235 47 -168 68 -280 75 -393
l6 -102 739 0 738 0 0 895 0 895 -1600 0 -1600 0 0 -895z"/>
<path d="M1335 647 c-34 -53 -40 -72 -43 -131 -5 -71 5 -119 53 -266 27 -83 32 -144 13
-157 -7 -4 -29 -13 -48 -18 -27 -8 -36 -16 -38 -38 l-3 -27 180 0 c205 0 194
-6 166 86 -8 27 -15 58 -15 68 0 19 -28 117 -70 246 -10 30 -34 92 -54 137
-20 45 -36 86 -36 93 0 24 -31 70 -48 70 -10 -1 -34 -27 -57 -63z"/>
</g>
</svg>
