<svg version="1.0" xmlns="http://www.w3.org/2000/svg"
 width="668px" style="transform:scale(1,1.001);" height="375.75px" viewBox="0 0 320.000000 180.000000"
 preserveAspectRatio="xMidYMid meet">
<g transform="translate(0.000000,180.000000) scale(0.100000,-0.100000)"
fill="#000000" stroke="none">
<path d="M0 905 l0 -895 524 0 524 0 4 48 c3 26 12 74 20 107 9 33 24 98 34 145 15 73
84 269 129 365 7 17 23 59 35 95 12 36 33 91 46 122 31 75 31 125 -3 196 -40
84 -36 129 18 236 55 111 116 166 183 166 46 0 67 15 85 62 6 15 24 34 41 43
28 15 36 15 83 1 29 -9 57 -19 63 -23 41 -29 45 -119 9 -178 -31 -51 -31 -74
2 -138 21 -41 26 -66 26 -119 0 -100 -19 -151 -75 -213 -26 -29 -48 -58 -48
-64 0 -6 14 -38 30 -71 17 -33 30 -69 30 -81 0 -12 7 -44 16 -73 31 -98 36
-118 45 -174 5 -32 13 -104 19 -162 6 -58 15 -130 20 -160 5 -30 7 -72 4 -93
l-7 -37 672 0 671 0 0 895 0 895 -1600 0 -1600 0 0 -895z"/>
<path d="M1454 668 c-67 -59 -160 -225 -190 -338 -19 -73 -92 -257 -105 -266 -5 -3 -9
-16 -9 -30 l0 -24 315 0 c353 0 326 -7 301 78 -23 77 -45 161 -67 259 -13 59
-32 112 -55 150 -20 32 -45 81 -57 108 -44 104 -71 117 -133 63z"/>
</g>
</svg>
