<svg version="1.0" xmlns="http://www.w3.org/2000/svg"
 width="668px" style="transform:scale(1,1.001);" height="375.75px" viewBox="0 0 320.000000 180.000000"
 preserveAspectRatio="xMidYMid meet">
<g transform="translate(0.000000,180.000000) scale(0.100000,-0.100000)"
fill="#000000" stroke="none">
<path d="M0 905 l0 -895 540 0 540 0 0 93 c0 50 4 118 10 150 5 32 14 136 21 230 6 95
18 237 26 317 9 80 15 172 15 205 -3 154 -10 284 -17 295 -12 20 -68 -1 -106
-40 -35 -36 -68 -117 -69 -167 -1 -27 -56 -87 -73 -80 -8 3 -18 19 -22 36 -4
17 -13 31 -21 31 -13 0 -20 42 -14 95 4 38 98 184 147 228 20 18 46 42 58 55
12 12 49 31 80 42 32 11 65 29 73 41 8 11 24 24 37 29 20 7 23 17 27 74 5 89
15 95 141 96 98 0 98 0 128 -32 16 -18 32 -43 34 -55 3 -13 7 -34 10 -47 3
-16 -3 -34 -19 -53 -13 -15 -27 -43 -31 -61 -6 -30 -2 -39 36 -85 42 -49 44
-55 50 -132 5 -55 17 -105 38 -159 26 -64 31 -86 24 -114 -11 -48 -40 -64 -60
-34 -17 24 -82 32 -84 10 -3 -30 4 -67 21 -128 11 -36 22 -92 25 -125 8 -75
32 -228 51 -320 27 -131 44 -258 44 -327 l0 -68 770 0 770 0 0 895 0 895
-1600 0 -1600 0 0 -895z"/>
<path d="M1317 688 c-14 -22 -29 -70 -60 -193 -16 -63 -43 -220 -57 -340 -5 -38 -12
-87 -16 -108 l-7 -37 192 0 c136 0 191 3 191 11 0 28 -42 258 -55 299 -102
333 -125 390 -162 390 -7 0 -19 -10 -26 -22z"/>
</g>
</svg>
