<svg version="1.0" xmlns="http://www.w3.org/2000/svg"
 width="668px" style="transform:scale(1,1.001);" height="375.75px" viewBox="0 0 320.000000 180.000000"
 preserveAspectRatio="xMidYMid meet">
<g transform="translate(0.000000,180.000000) scale(0.100000,-0.100000)"
fill="#000000" stroke="none">
<path d="M0 905 l0 -895 915 0 c823 0 915 2 915 16 0 8 -7 38 -16 65 l-16 49 73 146
c41 81 91 164 112 187 55 59 93 117 100 152 9 45 -12 217 -29 236 -11 12 -27
15 -64 11 -72 -7 -91 2 -134 58 -21 27 -46 50 -55 50 -26 0 -41 21 -41 57 0
43 35 63 82 45 24 -9 38 -8 64 3 19 8 34 18 34 24 0 22 -24 61 -41 66 -11 4
-21 21 -27 48 -15 74 14 148 66 168 15 6 35 17 44 26 52 47 154 -8 184 -100
19 -60 31 -77 51 -77 14 0 36 -16 126 -93 43 -37 110 -163 133 -252 21 -83 30
-237 16 -283 -7 -20 -21 -71 -33 -112 -12 -41 -28 -82 -35 -91 -8 -8 -14 -18
-14 -21 0 -4 -21 -42 -46 -85 -60 -101 -66 -122 -58 -216 l6 -77 444 0 444 0
0 895 0 895 -1600 0 -1600 0 0 -895z"/>
<path d="M2046 159 c-22 -25 -26 -41 -26 -90 l0 -59 55 0 c64 0 64 -1 39 109 -18 80
-29 86 -68 40z"/>
</g>
</svg>
