<svg version="1.0" xmlns="http://www.w3.org/2000/svg"
 width="668px" style="transform:scale(1,1.001);" height="375.75px" viewBox="0 0 320.000000 180.000000"
 preserveAspectRatio="xMidYMid meet">
<g transform="translate(0.000000,180.000000) scale(0.100000,-0.100000)"
fill="#000000" stroke="none">
<path d="M0 905 l0 -895 1600 0 1600 0 0 895 0 895 -1600 0 -1600 0 0 -895z m1561 553
c15 -24 19 -48 18 -88 -4 -98 -2 -102 58 -145 30 -22 59 -49 64 -60 5 -11 18
-33 29 -50 11 -16 22 -36 25 -42 3 -7 7 -19 10 -25 3 -7 19 -35 35 -63 41 -69
75 -140 95 -203 16 -49 16 -55 1 -71 -9 -10 -20 -36 -23 -57 -12 -78 -36 -94
-72 -48 -15 19 -21 42 -22 78 0 61 -28 140 -51 144 -22 4 -31 -56 -32 -203 0
-76 5 -127 17 -164 9 -30 17 -70 17 -88 0 -19 7 -47 15 -64 9 -17 17 -60 18
-100 2 -60 -1 -73 -17 -85 -33 -24 -56 -17 -72 21 -7 19 -14 45 -14 57 0 13
-10 48 -21 78 -12 30 -28 78 -35 105 -7 28 -25 82 -38 120 -14 39 -26 84 -26
100 0 17 -4 36 -9 44 -13 20 -48 -4 -85 -58 -24 -35 -28 -48 -23 -87 5 -44 62
-169 96 -209 24 -28 41 -71 41 -105 0 -37 -42 -63 -128 -79 -55 -11 -67 -10
-88 4 -31 20 -30 32 7 88 30 46 31 48 16 85 -9 21 -25 54 -36 73 -36 60 -71
139 -71 160 0 56 41 172 79 221 10 13 21 30 24 38 4 8 18 35 32 59 14 24 25
54 25 65 0 36 -32 112 -52 125 -26 16 -75 5 -88 -20 -6 -10 -18 -19 -26 -19
-26 0 -46 -65 -39 -128 10 -83 -3 -109 -58 -117 -48 -7 -80 4 -96 33 -5 10
-13 68 -17 129 -6 104 -5 113 15 141 15 22 33 32 61 37 29 5 49 18 79 50 22
24 60 53 83 63 24 11 55 31 71 44 l27 23 -16 60 c-17 65 -20 111 -9 144 6 19
14 21 96 21 l89 0 21 -32z"/>
</g>
</svg>
