<svg version="1.0" xmlns="http://www.w3.org/2000/svg"
 width="668px" style="transform:scale(1,1.001);" height="375.75px" viewBox="0 0 320.000000 180.000000"
 preserveAspectRatio="xMidYMid meet">
<g transform="translate(0.000000,180.000000) scale(0.100000,-0.100000)"
fill="#000000" stroke="none">
<path d="M0 905 l0 -895 1600 0 1600 0 0 895 0 895 -1600 0 -1600 0 0 -895z m1495 761
c11 -7 34 -17 51 -20 35 -8 88 -67 106 -117 12 -34 0 -125 -29 -227 -14 -51
-14 -53 9 -81 13 -16 42 -37 64 -45 23 -9 50 -26 59 -36 10 -11 26 -20 36 -20
10 0 31 -11 47 -25 17 -14 38 -25 48 -25 10 0 42 -25 70 -56 59 -63 86 -127
108 -251 8 -44 18 -89 24 -99 5 -11 13 -41 16 -67 4 -26 14 -64 23 -85 19 -44
22 -158 5 -189 -7 -12 -24 -23 -39 -26 -16 -2 -226 -4 -468 -3 -590 1 -634 8
-649 104 -9 53 19 278 38 307 9 13 16 33 16 44 0 51 73 164 138 211 17 13 32
30 32 37 0 8 8 17 17 20 19 8 59 51 86 95 24 41 21 77 -13 123 -16 22 -35 50
-41 63 -7 12 -16 22 -20 22 -14 0 -69 127 -69 158 0 16 9 37 20 47 11 10 20
23 20 29 0 20 75 83 112 95 21 7 40 17 43 22 9 14 118 11 140 -5z"/>
</g>
</svg>
