<svg version="1.0" xmlns="http://www.w3.org/2000/svg"
 width="668px" style="transform:scale(1,1.001);" height="375.75px" viewBox="0 0 320.000000 180.000000"
 preserveAspectRatio="xMidYMid meet">
<g transform="translate(0.000000,180.000000) scale(0.100000,-0.100000)"
fill="#000000" stroke="none">
<path d="M0 905 l0 -895 744 0 744 0 4 50 c4 67 2 70 -41 70 -47 0 -61 14 -61 62 0 31
-5 40 -30 53 -16 8 -38 15 -49 15 -67 0 -66 118 5 404 19 76 34 164 34 196 0
76 15 116 60 156 30 28 39 43 44 84 12 94 92 130 166 75 43 -31 53 -56 44
-111 -5 -37 -2 -48 33 -99 l38 -58 4 -181 c8 -330 7 -409 -6 -413 -7 -3 -13
10 -15 33 -3 43 -28 60 -28 20 0 -13 -5 -28 -10 -31 -16 -10 -30 40 -31 108
-1 85 -12 157 -24 160 -10 2 -32 -36 -42 -76 -14 -52 9 -276 30 -289 7 -4 7
-8 1 -8 -7 0 -11 -40 -12 -110 l-3 -110 801 0 800 0 0 895 0 895 -1600 0
-1600 0 0 -895z"/>
</g>
</svg>
