<svg version="1.0" xmlns="http://www.w3.org/2000/svg"
 width="668px" style="transform:scale(1,1.001);" height="375.75px" viewBox="0 0 320.000000 180.000000"
 preserveAspectRatio="xMidYMid meet">
<g transform="translate(0.000000,180.000000) scale(0.100000,-0.100000)"
fill="#000000" stroke="none">
<path d="M0 905 l0 -895 580 0 580 0 0 80 c0 52 6 97 19 132 10 29 24 87 31 128 6 41
18 97 26 124 18 65 28 267 16 341 -35 205 -35 207 -24 256 6 26 25 77 43 114
23 49 28 70 20 78 -6 6 -11 20 -11 31 0 12 -6 39 -14 61 -15 45 -13 172 3 188
6 6 42 10 79 9 56 -2 74 2 95 18 32 25 82 27 92 3 16 -40 39 -162 40 -220 2
-65 15 -93 45 -93 24 0 95 -88 104 -130 5 -19 12 -83 17 -142 28 -331 36 -398
58 -501 26 -115 24 -286 -5 -444 l-6 -33 706 0 706 0 0 895 0 895 -1600 0
-1600 0 0 -895z"/>
<path d="M1482 395 c-10 -13 -25 -46 -31 -72 -15 -61 -48 -123 -77 -145 -30 -24 -64
-97 -64 -136 l0 -32 161 0 161 0 -6 32 c-4 18 -13 87 -20 153 -13 121 -16 133
-43 193 -17 40 -53 43 -81 7z"/>
</g>
</svg>
