<svg version="1.0" xmlns="http://www.w3.org/2000/svg"
 width="668px" style="transform:scale(1,1.001);" height="375.75px" viewBox="0 0 320.000000 180.000000"
 preserveAspectRatio="xMidYMid meet">
<g transform="translate(0.000000,180.000000) scale(0.100000,-0.100000)"
fill="#000000" stroke="none">
<path d="M0 905 l0 -895 670 0 670 0 0 24 c0 13 -7 26 -15 30 -11 4 -15 22 -14 73 1 75
2 84 49 353 30 173 31 191 21 275 -13 103 -26 175 -47 258 -9 32 -14 86 -13
120 2 51 0 63 -14 65 -10 2 -21 -7 -28 -22 -12 -26 -59 -44 -80 -30 -9 5 -7
11 6 20 10 7 19 25 21 40 1 15 7 31 13 37 19 19 12 31 -8 13 -25 -22 -142 -32
-199 -17 -40 11 -42 13 -42 51 0 46 11 51 91 49 82 -3 120 9 162 52 20 21 37
43 37 48 0 19 81 95 112 105 42 14 58 65 40 132 -7 24 -12 60 -12 79 l0 35
-710 0 -710 0 0 -895z m1147 199 c-3 -3 -12 -4 -19 -1 -8 3 -5 6 6 6 11 1 17
-2 13 -5z"/>
<path d="M1670 1753 c0 -27 -4 -64 -10 -83 -14 -52 0 -102 33 -118 40 -19 74 -70 97
-146 25 -80 24 -112 -5 -109 -11 1 -23 -3 -26 -9 -8 -12 1 -99 11 -113 5 -5
11 -28 15 -49 9 -43 -3 -43 -39 2 -13 17 -26 22 -50 20 l-31 -3 3 -55 c3 -58
15 -126 38 -225 8 -33 18 -95 24 -137 10 -82 1 -127 -37 -185 -72 -109 -113
-206 -113 -271 0 -43 20 -122 31 -122 5 0 9 -7 9 -16 0 -13 -7 -15 -37 -9 -21
4 -45 13 -54 21 -17 15 -64 20 -55 5 3 -5 -1 -11 -9 -15 -8 -3 -15 -15 -15
-26 0 -11 -9 -29 -20 -40 -11 -11 -20 -29 -20 -40 0 -20 7 -20 895 -20 l895 0
0 895 0 895 -765 0 -765 0 0 -47z"/>
</g>
</svg>
