<svg version="1.0" xmlns="http://www.w3.org/2000/svg"
 width="668px" style="transform:scale(1,1.001);" height="375.75px" viewBox="0 0 320.000000 180.000000"
 preserveAspectRatio="xMidYMid meet">
<g transform="translate(0.000000,180.000000) scale(0.100000,-0.100000)"
fill="#000000" stroke="none">
<path d="M0 905 l0 -895 1600 0 1600 0 0 895 0 895 -1600 0 -1600 0 0 -895z m1330 801
c0 -13 7 -29 14 -36 8 -6 22 -31 31 -55 16 -42 16 -44 -9 -97 -30 -62 -33 -93
-11 -114 8 -8 18 -22 23 -30 7 -12 29 -16 88 -19 43 -1 108 -6 144 -10 86 -9
98 0 111 89 15 111 40 151 115 189 57 29 67 28 165 -16 49 -21 59 -31 82 -77
21 -42 25 -62 20 -94 -8 -56 -28 -93 -61 -113 -77 -48 -65 -101 34 -151 64
-32 126 -112 187 -237 25 -51 30 -73 31 -147 1 -73 -2 -91 -20 -115 -23 -32
-82 -64 -164 -90 -30 -9 -63 -23 -72 -31 -25 -21 -32 -71 -18 -136 9 -44 9
-61 -2 -83 l-13 -28 -227 2 c-125 0 -232 4 -238 8 -17 11 -30 51 -47 144 -8
47 -22 101 -30 120 -13 28 -17 87 -22 268 l-6 232 -45 46 c-24 25 -50 45 -57
45 -7 0 -26 12 -42 28 -17 15 -41 36 -54 47 -66 55 -80 144 -52 324 9 53 18
111 21 129 5 32 5 32 64 32 56 0 60 -1 60 -24z"/>
</g>
</svg>
