<svg version="1.0" xmlns="http://www.w3.org/2000/svg"
 width="668px" style="transform:scale(1,1.001);" height="375.75px" viewBox="0 0 320.000000 180.000000"
 preserveAspectRatio="xMidYMid meet">
<g transform="translate(0.000000,180.000000) scale(0.100000,-0.100000)"
fill="#000000" stroke="none">
<path d="M0 905 l0 -895 726 0 727 0 -7 43 c-3 23 -9 92 -12 152 -3 61 -8 113 -12 117
-11 10 -64 12 -95 3 -36 -10 -62 13 -93 83 -31 70 -24 108 20 117 17 4 50 18
73 31 23 13 50 24 60 24 26 0 56 23 59 46 13 91 26 163 43 243 12 52 21 105
21 117 0 52 -41 116 -133 209 -121 120 -137 147 -137 232 0 113 65 187 187
213 86 18 136 8 199 -40 62 -47 78 -86 72 -174 -6 -74 5 -110 37 -124 14 -7
25 -18 25 -27 0 -8 13 -21 28 -29 15 -8 33 -26 40 -40 6 -14 17 -26 24 -26 19
-1 114 -114 134 -160 51 -114 75 -276 81 -541 5 -193 4 -208 -16 -252 -11 -25
-26 -49 -32 -53 -18 -10 -59 -106 -59 -136 l0 -28 620 0 620 0 0 895 0 895
-1600 0 -1600 0 0 -895z"/>
</g>
</svg>
