<svg version="1.0" xmlns="http://www.w3.org/2000/svg"
 width="668px" style="transform:scale(1,1.001);" height="375.75px" viewBox="0 0 320.000000 180.000000"
 preserveAspectRatio="xMidYMid meet">
<g transform="translate(0.000000,180.000000) scale(0.100000,-0.100000)"
fill="#000000" stroke="none">
<path d="M0 905 l0 -895 1600 0 1600 0 0 895 0 895 -1600 0 -1600 0 0 -895z m1710 760
c14 -8 36 -14 49 -15 35 0 95 -68 111 -125 15 -54 2 -149 -29 -221 -17 -37
-17 -43 -3 -70 15 -30 89 -104 103 -104 5 0 24 -14 42 -30 19 -17 39 -30 45
-30 5 0 29 -15 52 -32 116 -90 160 -172 160 -303 1 -44 6 -127 12 -185 17
-151 15 -198 -8 -221 -28 -27 -228 -43 -389 -29 -66 5 -256 10 -422 10 -294 0
-304 1 -324 21 -17 17 -20 29 -16 62 19 164 31 238 48 277 10 25 21 56 25 70
3 14 12 32 19 40 7 8 15 27 19 42 11 46 61 111 128 165 35 29 72 61 83 72 12
11 32 25 45 31 29 13 60 62 60 95 0 33 -27 92 -45 98 -8 4 -15 13 -15 20 0 8
-9 22 -20 32 -11 10 -20 22 -20 27 0 6 -9 21 -20 35 -14 19 -20 41 -20 79 0
42 5 58 20 71 11 10 20 22 20 28 0 19 70 75 93 75 12 1 33 7 47 15 14 8 48 14
75 14 28 0 61 -6 75 -14z"/>
</g>
</svg>
