<svg version="1.0" xmlns="http://www.w3.org/2000/svg"
 width="668px" style="transform:scale(1,1.001);" height="375.75px" viewBox="0 0 320.000000 180.000000"
 preserveAspectRatio="xMidYMid meet">
<g transform="translate(0.000000,180.000000) scale(0.100000,-0.100000)"
fill="#000000" stroke="none">
<path d="M0 905 l0 -895 561 0 561 0 -8 33 c-4 17 -9 136 -11 262 -4 374 -14 573 -29
586 -7 6 -27 9 -45 7 -26 -2 -37 -11 -54 -43 -12 -22 -39 -67 -60 -100 -21
-32 -38 -66 -38 -75 1 -8 -5 -37 -13 -64 -17 -60 -17 -56 0 -56 13 0 26 -20
26 -40 0 -10 -50 -22 -104 -25 -35 -2 -39 1 -52 31 -8 18 -14 62 -14 96 0 53
6 74 35 128 19 36 40 77 46 93 6 15 15 27 20 27 5 0 9 5 9 10 0 6 9 23 20 38
11 15 26 57 33 94 8 37 26 87 41 112 29 50 33 89 11 126 -58 103 -60 145 -7
201 51 55 97 62 152 24 24 -17 42 -38 45 -54 22 -110 44 -131 140 -131 59 0
60 0 111 -55 78 -82 107 -137 100 -188 -17 -116 -17 -167 -2 -241 9 -43 16
-109 16 -147 0 -39 7 -105 16 -147 13 -60 15 -101 9 -187 -9 -132 -9 -182 0
-258 l7 -57 839 0 839 0 0 895 0 895 -1600 0 -1600 0 0 -895z"/>
<path d="M1272 557 c-6 -7 -16 -59 -22 -117 -6 -57 -14 -108 -16 -112 -3 -4 -9 -63 -14
-130 -6 -68 -13 -138 -16 -155 l-6 -33 107 0 108 0 -6 38 c-4 20 -9 80 -12
132 -10 162 -48 331 -83 373 -18 20 -26 21 -40 4z"/>
</g>
</svg>
