<svg version="1.0" xmlns="http://www.w3.org/2000/svg"
 width="668px" style="transform:scale(1,1.001);" height="375.75px" viewBox="0 0 320.000000 180.000000"
 preserveAspectRatio="xMidYMid meet">
<g transform="translate(0.000000,180.000000) scale(0.100000,-0.100000)"
fill="#000000" stroke="none">
<path d="M0 905 l0 -895 544 0 545 0 0 65 c0 36 2 73 5 83 3 9 15 130 26 267 11 138 31
309 45 380 13 72 26 178 30 238 5 98 4 107 -12 107 -10 0 -24 -9 -30 -20 -24
-37 -133 -34 -133 4 0 8 -12 23 -27 34 -37 27 -54 88 -36 125 16 31 16 31 51
13 21 -11 40 -12 75 -5 62 11 64 13 70 51 3 24 -1 39 -15 55 -11 12 -17 26
-13 32 8 14 58 14 72 0 5 -5 22 -7 36 -4 26 7 26 8 24 98 -2 85 0 95 26 135
26 41 29 42 80 42 60 0 66 -3 90 -48 19 -38 22 -81 7 -132 -10 -34 -8 -36 31
-69 23 -19 55 -42 72 -50 40 -21 57 -79 60 -201 1 -98 1 -99 -53 -200 -21 -39
-25 -95 -10 -135 6 -15 24 -111 41 -214 30 -179 31 -194 25 -386 -4 -110 -9
-215 -12 -233 l-6 -32 796 0 796 0 0 895 0 895 -1600 0 -1600 0 0 -895z"/>
<path d="M1341 658 c-54 -116 -94 -257 -117 -407 -12 -86 -26 -175 -30 -198 l-7 -43
162 0 162 0 -5 73 c-3 39 -8 140 -11 222 -5 126 -10 163 -32 230 -27 82 -68
155 -90 162 -7 3 -21 -15 -32 -39z"/>
</g>
</svg>
