<svg version="1.0" xmlns="http://www.w3.org/2000/svg"
 width="668px" style="transform:scale(1,1.001);" height="375.75px" viewBox="0 0 320.000000 180.000000"
 preserveAspectRatio="xMidYMid meet">
<g transform="translate(0.000000,180.000000) scale(0.100000,-0.100000)"
fill="#000000" stroke="none">
<path d="M0 905 l0 -895 1600 0 1600 0 0 895 0 895 -1600 0 -1600 0 0 -895z m1948 719
c70 -28 110 -53 167 -109 l40 -38 3 -101 c3 -86 0 -106 -17 -136 -11 -19 -29
-55 -41 -80 -12 -25 -30 -52 -41 -60 -14 -11 -20 -28 -21 -61 -1 -67 9 -88 45
-97 45 -13 64 7 73 77 3 31 11 62 16 68 11 13 55 8 73 -9 6 -5 13 -57 16 -115
l6 -106 49 -41 c83 -69 134 -129 145 -171 12 -42 21 -64 44 -105 13 -24 41
-123 52 -187 4 -26 0 -34 -21 -48 -14 -9 -36 -17 -48 -17 -13 0 -102 3 -198 6
-96 2 -413 7 -705 10 l-530 6 -19 23 c-17 20 -18 35 -13 192 6 155 5 174 -13
213 -11 24 -29 55 -40 69 -21 28 -26 67 -11 106 15 38 73 67 137 67 52 0 57
-2 94 -42 22 -24 40 -50 40 -58 0 -9 7 -26 16 -38 21 -30 80 -29 144 3 27 14
59 25 70 25 37 0 138 63 157 97 16 30 16 35 -1 90 -16 53 -59 155 -108 260
-31 67 -34 107 -9 147 31 49 105 112 176 150 94 49 165 52 273 10z"/>
</g>
</svg>
