<svg version="1.0" xmlns="http://www.w3.org/2000/svg"
 width="668px" style="transform:scale(1,1.001);" height="375.75px" viewBox="0 0 320.000000 180.000000"
 preserveAspectRatio="xMidYMid meet">
<g transform="translate(0.000000,180.000000) scale(0.100000,-0.100000)"
fill="#000000" stroke="none">
<path d="M0 905 l0 -895 1600 0 1600 0 0 895 0 895 -1600 0 -1600 0 0 -895z m1702 736
c69 -9 83 -17 170 -91 51 -43 103 -149 94 -191 -3 -16 -31 -81 -62 -144 -68
-140 -75 -178 -43 -234 12 -23 30 -41 38 -41 9 0 43 -12 76 -26 33 -14 78 -30
100 -35 22 -5 51 -18 65 -28 14 -10 39 -25 56 -34 81 -42 181 -170 203 -260 6
-27 20 -65 31 -85 29 -54 27 -132 -4 -161 -21 -20 -36 -22 -152 -26 -71 -3
-165 0 -209 6 -45 6 -311 12 -611 14 -384 2 -538 6 -554 15 -19 10 -21 18 -17
58 2 26 10 67 16 92 6 25 16 65 22 90 6 25 16 52 23 60 7 8 17 28 20 45 12 49
146 157 266 214 25 12 56 28 70 36 14 8 32 15 41 15 16 0 79 63 79 78 -1 4 -9
25 -20 47 -11 22 -20 45 -20 50 0 6 -14 30 -30 54 -17 24 -30 53 -30 64 0 12
-12 39 -27 60 -22 31 -28 54 -31 107 -4 66 -3 69 32 107 20 22 55 53 78 69 24
15 53 36 64 47 37 32 146 43 266 28z"/>
</g>
</svg>
