<svg version="1.0" xmlns="http://www.w3.org/2000/svg"
 width="668px" style="transform:scale(1,1.001);" height="375.75px" viewBox="0 0 320.000000 180.000000"
 preserveAspectRatio="xMidYMid meet">
<g transform="translate(0.000000,180.000000) scale(0.100000,-0.100000)"
fill="#000000" stroke="none">
<path d="M0 905 l0 -895 505 0 505 0 0 63 c1 34 5 96 11 137 5 41 16 125 24 185 15 120
30 184 51 230 8 17 25 59 37 95 12 36 27 72 32 80 20 31 55 145 55 177 0 19
-10 58 -22 86 -34 77 -32 201 5 279 17 37 34 59 49 63 13 4 32 16 44 27 12 10
43 24 70 31 41 10 52 18 66 47 10 19 18 54 18 78 0 48 21 96 45 106 26 9 126
7 167 -4 28 -8 39 -18 51 -47 13 -33 13 -43 0 -77 -7 -22 -22 -50 -32 -61 -10
-11 -26 -34 -36 -51 -17 -31 -17 -32 9 -90 15 -33 30 -82 33 -110 7 -67 -20
-186 -57 -245 -51 -84 -54 -135 -13 -229 6 -14 21 -58 32 -97 50 -172 65 -221
87 -268 24 -53 48 -120 69 -195 7 -25 24 -74 37 -110 13 -36 22 -73 20 -82 -3
-17 34 -18 667 -18 l671 0 0 895 0 895 -1600 0 -1600 0 0 -895z"/>
<path d="M1359 672 c-16 -7 -60 -57 -104 -119 -34 -48 -56 -105 -65 -173 -11 -83 -34
-187 -60 -270 -34 -111 -66 -100 305 -100 297 0 325 1 325 17 0 21 -43 129
-74 186 -12 23 -50 92 -83 152 -33 61 -81 151 -107 200 -26 50 -54 96 -63 103
-18 13 -48 15 -74 4z"/>
</g>
</svg>
