<svg version="1.0" xmlns="http://www.w3.org/2000/svg"
 width="668px" style="transform:scale(1,1.001);" height="375.75px" viewBox="0 0 320.000000 180.000000"
 preserveAspectRatio="xMidYMid meet">
<g transform="translate(0.000000,180.000000) scale(0.100000,-0.100000)"
fill="#000000" stroke="none">
<path d="M0 905 l0 -895 919 0 919 0 -1 98 c-1 65 4 113 15 147 8 28 24 79 34 115 10
36 35 94 55 130 21 36 51 103 68 149 29 79 31 95 31 217 0 113 -3 135 -19 155
-10 13 -36 56 -56 94 -21 39 -44 79 -51 90 -20 28 -17 75 6 113 11 18 20 47
20 65 0 51 18 102 45 127 22 20 36 24 100 24 70 1 76 -1 105 -30 31 -30 49
-82 50 -136 0 -32 38 -95 63 -103 9 -4 17 -11 17 -16 0 -5 17 -26 38 -47 67
-67 92 -138 113 -327 14 -132 8 -175 -31 -215 -30 -30 -33 -40 -45 -115 -4
-22 -22 -73 -41 -113 -19 -40 -34 -77 -34 -82 0 -6 -9 -29 -20 -53 -29 -64
-37 -115 -32 -205 l5 -82 463 0 464 0 0 895 0 895 -1600 0 -1600 0 0 -895z"/>
<path d="M2046 159 c-2 -8 -7 -44 -10 -82 l-7 -67 27 0 27 0 -7 72 c-6 71 -20 107 -30
77z"/>
</g>
</svg>
