<svg version="1.0" xmlns="http://www.w3.org/2000/svg"
 width="668px" style="transform:scale(1,1.001);" height="375.75px" viewBox="0 0 320.000000 180.000000"
 preserveAspectRatio="xMidYMid meet">
<g transform="translate(0.000000,180.000000) scale(0.100000,-0.100000)"
fill="#000000" stroke="none">
<path d="M0 905 l0 -895 1600 0 1600 0 0 895 0 895 -1600 0 -1600 0 0 -895z m1573 743
c70 -31 95 -52 118 -103 23 -50 24 -100 3 -162 -9 -26 -17 -72 -18 -101 -1
-47 2 -55 29 -77 17 -13 46 -32 65 -41 19 -9 48 -28 63 -40 16 -13 37 -24 47
-24 9 0 23 -7 31 -16 7 -8 26 -22 43 -31 72 -37 127 -132 141 -239 4 -32 13
-73 20 -90 7 -17 16 -60 19 -95 4 -35 14 -97 23 -137 17 -80 13 -135 -12 -162
-19 -21 -117 -28 -530 -35 -341 -7 -538 9 -567 45 -27 33 -32 84 -19 189 24
195 101 369 197 446 108 86 144 129 144 172 0 27 -34 85 -91 155 -66 83 -82
115 -81 163 2 41 27 85 80 143 23 24 40 32 64 32 18 0 49 9 68 20 43 24 85 21
163 -12z"/>
</g>
</svg>
