<svg version="1.0" xmlns="http://www.w3.org/2000/svg"
 width="668px" style="transform:scale(1,1.001);" height="375.75px" viewBox="0 0 320.000000 180.000000"
 preserveAspectRatio="xMidYMid meet">
<g transform="translate(0.000000,180.000000) scale(0.100000,-0.100000)"
fill="#000000" stroke="none">
<path d="M0 905 l0 -895 546 0 545 0 -6 78 c-6 80 3 166 30 287 9 39 20 97 23 131 4 34
13 68 20 77 17 20 8 37 -16 30 -31 -8 -43 18 -31 62 6 22 9 64 7 94 -6 64 14
125 55 171 26 29 28 36 26 118 -2 65 3 99 16 132 23 56 91 150 109 150 7 0 24
17 37 38 l26 38 -20 60 c-27 84 -19 130 30 171 31 27 47 33 84 33 39 0 54 -6
97 -40 69 -55 79 -88 47 -148 -35 -65 -32 -93 10 -131 20 -17 45 -31 55 -31
27 0 101 -76 127 -130 32 -66 41 -121 43 -250 2 -200 3 -192 -30 -222 -37 -32
-73 -124 -59 -150 5 -9 9 -25 9 -36 0 -10 9 -45 21 -78 49 -142 61 -207 63
-331 l1 -123 668 0 667 0 0 895 0 895 -1600 0 -1600 0 0 -895z"/>
<path d="M1693 830 c0 -60 10 -78 22 -40 7 22 -3 88 -15 95 -4 3 -8 -22 -7 -55z"/>
<path d="M1422 483 c-45 -40 -222 -400 -222 -453 0 -20 5 -20 270 -20 312 0 285 -13
249 118 -21 76 -78 202 -105 233 -8 8 -14 20 -14 26 0 5 -9 18 -20 28 -11 10
-20 24 -20 30 0 14 -73 65 -93 65 -7 0 -27 -12 -45 -27z"/>
</g>
</svg>
