<svg version="1.0" xmlns="http://www.w3.org/2000/svg"
 width="668px" style="transform:scale(1,1.001);" height="375.75px" viewBox="0 0 320.000000 180.000000"
 preserveAspectRatio="xMidYMid meet">
<g transform="translate(0.000000,180.000000) scale(0.100000,-0.100000)"
fill="#000000" stroke="none">
<path d="M0 905 l0 -895 894 0 894 0 4 68 c2 49 11 82 31 121 24 46 52 123 70 196 2 11
15 56 27 100 12 44 28 105 36 135 16 66 18 290 3 322 -6 13 -28 37 -49 53 -50
40 -73 80 -72 126 2 45 29 77 92 109 60 31 114 30 166 -3 39 -24 74 -82 74
-121 0 -18 56 -66 78 -66 9 0 43 -14 75 -29 88 -44 164 -151 183 -258 3 -21
15 -64 25 -95 24 -73 24 -114 -1 -163 -11 -21 -23 -54 -26 -72 -13 -72 -34
-109 -105 -185 -41 -44 -77 -88 -81 -97 -4 -9 -7 -44 -7 -78 l-1 -63 445 0
445 0 0 895 0 895 -1600 0 -1600 0 0 -895z"/>
<path d="M2042 96 c-20 -20 -32 -42 -32 -59 0 -26 2 -27 55 -27 54 0 55 0 55 29 0 38
-15 77 -32 83 -7 3 -28 -9 -46 -26z"/>
</g>
</svg>
