<svg version="1.0" xmlns="http://www.w3.org/2000/svg"
 width="668px" style="transform:scale(1,1.001);" height="375.75px" viewBox="0 0 320.000000 180.000000"
 preserveAspectRatio="xMidYMid meet">
<g transform="translate(0.000000,180.000000) scale(0.100000,-0.100000)"
fill="#000000" stroke="none">
<path d="M0 905 l0 -895 920 0 920 0 0 24 c0 14 -9 40 -19 58 -11 18 -36 82 -55 142
-20 61 -47 128 -60 150 -13 23 -36 77 -52 121 -15 44 -35 91 -44 105 -31 48
-50 102 -59 163 -5 34 -17 89 -26 122 -22 82 -45 212 -45 257 0 65 29 129 84
188 60 63 86 104 112 175 10 28 34 70 53 94 l35 43 63 -4 c54 -3 68 -8 89 -31
14 -15 29 -27 35 -27 5 0 18 -15 29 -32 28 -46 27 -122 -1 -146 -11 -9 -32
-32 -46 -50 l-25 -33 42 -50 c27 -32 53 -79 72 -132 16 -45 36 -99 44 -121 20
-54 18 -149 -6 -237 -32 -121 -25 -152 56 -254 42 -53 120 -208 135 -268 11
-45 8 -148 -7 -224 l-6 -33 481 0 481 0 0 895 0 895 -1600 0 -1600 0 0 -895z"/>
<path d="M2017 254 c-12 -12 -8 -66 8 -113 15 -43 13 -81 -6 -81 -5 0 -9 -11 -9 -25 0
-24 3 -25 60 -25 56 0 60 2 60 23 0 16 -9 26 -30 34 -28 11 -30 15 -30 65 0
38 -7 64 -23 91 -13 21 -26 35 -30 31z"/>
</g>
</svg>
