<svg version="1.0" xmlns="http://www.w3.org/2000/svg"
 width="668px" style="transform:scale(1,1.001);" height="375.75px" viewBox="0 0 320.000000 180.000000"
 preserveAspectRatio="xMidYMid meet">
<g transform="translate(0.000000,180.000000) scale(0.100000,-0.100000)"
fill="#000000" stroke="none">
<path d="M0 905 l0 -895 1600 0 1600 0 0 895 0 895 -770 0 c-749 0 -770 -1 -770 -19 0
-10 14 -34 32 -52 35 -38 67 -103 68 -136 0 -39 -32 -147 -51 -171 -10 -13
-22 -40 -25 -61 -4 -20 -14 -51 -21 -70 -13 -31 -13 -38 3 -70 20 -41 88 -90
152 -109 24 -7 57 -22 75 -32 18 -11 40 -20 49 -20 24 0 127 -98 134 -129 4
-14 15 -42 25 -62 11 -23 22 -78 28 -150 6 -63 14 -128 19 -145 15 -48 24
-186 14 -218 -4 -16 -19 -38 -33 -47 -23 -17 -58 -18 -620 -9 -547 7 -599 10
-635 27 -51 23 -76 72 -71 133 17 192 32 278 54 319 13 24 23 50 23 58 0 19
119 139 146 147 12 4 34 17 49 30 15 13 41 27 56 30 16 3 47 22 70 43 41 37
41 38 36 93 -5 54 -59 183 -91 219 -9 10 -19 33 -22 52 -4 19 -16 44 -27 57
-15 15 -22 40 -25 82 l-4 59 50 51 c27 27 55 50 61 50 6 0 11 11 11 25 l0 25
-595 0 -595 0 0 -895z"/>
</g>
</svg>
