<svg version="1.0" xmlns="http://www.w3.org/2000/svg"
 width="668px" style="transform:scale(1,1.001);" height="375.75px" viewBox="0 0 320.000000 180.000000"
 preserveAspectRatio="xMidYMid meet">
<g transform="translate(0.000000,180.000000) scale(0.100000,-0.100000)"
fill="#000000" stroke="none">
<path d="M0 905 l0 -895 635 0 635 0 0 22 c0 12 -9 32 -21 44 -11 12 -23 41 -26 63 -5
36 -1 49 30 94 88 128 88 197 0 349 -18 31 -33 61 -33 66 0 5 -14 40 -31 77
-21 47 -29 76 -24 94 7 29 65 121 75 121 4 0 10 15 14 32 5 24 1 40 -14 60
-11 15 -20 31 -20 36 0 5 -6 15 -14 21 -8 7 -17 28 -21 49 -4 20 -13 48 -20
62 -19 35 -45 132 -45 169 0 40 24 99 53 129 40 43 121 82 184 88 56 6 64 4
127 -31 85 -47 120 -101 120 -184 0 -31 -5 -69 -11 -86 -7 -16 -17 -49 -24
-73 -12 -42 -12 -43 20 -73 22 -20 48 -32 78 -36 25 -3 57 -16 72 -29 15 -12
43 -25 62 -29 19 -4 48 -16 63 -28 43 -32 166 -156 166 -166 0 -5 7 -14 15
-21 8 -7 30 -37 47 -67 18 -30 43 -71 55 -91 17 -28 23 -53 23 -102 0 -81 -27
-263 -47 -312 -10 -23 -13 -49 -9 -70 17 -82 18 -110 5 -119 -8 -5 -69 -9
-136 -9 l-123 0 0 -25 0 -25 670 0 670 0 0 895 0 895 -1600 0 -1600 0 0 -895z"/>
</g>
</svg>
