<svg version="1.0" xmlns="http://www.w3.org/2000/svg"
 width="668px" style="transform:scale(1,1.001);" height="375.75px" viewBox="0 0 320.000000 180.000000"
 preserveAspectRatio="xMidYMid meet">
<g transform="translate(0.000000,180.000000) scale(0.100000,-0.100000)"
fill="#000000" stroke="none">
<path d="M0 905 l0 -895 521 0 522 0 -6 41 c-4 29 2 68 18 123 14 45 34 115 45 156 26
90 57 171 122 307 26 57 48 109 48 116 0 7 7 23 16 36 17 23 17 53 -2 237 -7
67 6 102 56 161 15 17 29 35 31 40 2 4 21 21 42 36 29 22 54 30 105 35 l67 7
24 45 c27 51 79 90 121 90 15 0 47 -12 69 -27 33 -21 41 -33 42 -57 2 -59 -2
-81 -22 -108 -37 -52 -39 -72 -17 -130 15 -40 19 -66 14 -106 -6 -52 -52 -160
-82 -193 -27 -29 -16 -79 42 -192 61 -121 83 -216 84 -358 0 -42 3 -117 6
-167 l7 -92 663 0 664 0 0 895 0 895 -1600 0 -1600 0 0 -895z"/>
<path d="M1423 588 c-22 -18 -48 -45 -57 -60 -9 -15 -29 -39 -46 -54 -16 -15 -43 -58
-60 -94 -40 -88 -120 -319 -120 -347 l0 -23 315 0 316 0 -6 68 c-9 98 -56 324
-72 343 -7 8 -13 19 -13 23 0 4 -19 27 -42 50 -24 23 -58 59 -76 79 -47 55
-85 59 -139 15z"/>
</g>
</svg>
