<svg version="1.0" xmlns="http://www.w3.org/2000/svg"
 width="668px" style="transform:scale(1,1.001);" height="375.75px" viewBox="0 0 320.000000 180.000000"
 preserveAspectRatio="xMidYMid meet">
<g transform="translate(0.000000,180.000000) scale(0.100000,-0.100000)"
fill="#000000" stroke="none">
<path d="M0 905 l0 -895 720 0 721 0 -5 63 c-19 231 -21 209 26 304 68 141 65 242 -12
317 -38 37 -110 66 -164 66 -33 0 -92 33 -106 60 -15 27 -12 111 5 140 7 14
21 40 29 58 12 27 20 32 48 32 27 0 45 -11 88 -52 48 -46 83 -67 140 -84 33
-9 51 21 51 87 1 89 -24 140 -109 224 -38 39 -73 80 -76 93 -4 12 -11 22 -16
22 -5 0 -20 19 -32 43 -16 31 -22 58 -21 104 1 56 4 65 39 108 22 25 50 48 64
51 14 3 43 14 65 24 48 24 112 26 142 5 12 -8 38 -18 58 -23 28 -5 45 -18 69
-51 28 -38 32 -52 36 -132 5 -81 9 -93 33 -117 31 -31 98 -114 143 -178 38
-54 93 -196 119 -304 17 -72 39 -132 75 -203 32 -63 58 -146 69 -217 9 -66 -6
-226 -30 -311 -11 -41 -23 -86 -26 -102 l-5 -27 531 0 531 0 0 895 0 895
-1600 0 -1600 0 0 -895z"/>
<path d="M1990 45 c0 -28 4 -35 20 -35 23 0 28 38 8 58 -20 20 -28 14 -28 -23z"/>
</g>
</svg>
