<svg version="1.0" xmlns="http://www.w3.org/2000/svg"
 width="668px" style="transform:scale(1,1.001);" height="375.75px" viewBox="0 0 320.000000 180.000000"
 preserveAspectRatio="xMidYMid meet">
<g transform="translate(0.000000,180.000000) scale(0.100000,-0.100000)"
fill="#000000" stroke="none">
<path d="M0 905 l0 -895 1600 0 1600 0 0 895 0 895 -1600 0 -1600 0 0 -895z m1720 547
c99 -31 161 -86 204 -177 23 -48 27 -67 23 -107 -4 -27 -13 -58 -22 -70 -8
-13 -15 -32 -15 -43 0 -11 -13 -47 -30 -80 -16 -33 -30 -68 -30 -78 0 -25 18
-57 33 -57 7 0 35 -12 62 -25 28 -14 56 -25 63 -25 7 0 26 -9 42 -20 17 -11
43 -29 60 -40 16 -11 34 -20 39 -20 5 0 43 -33 84 -72 66 -65 76 -81 97 -144
26 -82 22 -133 -14 -169 -18 -18 -38 -24 -104 -29 -45 -4 -85 -5 -90 -2 -4 3
-259 7 -565 10 -386 4 -564 9 -579 17 -19 10 -20 17 -16 98 3 47 12 102 21
123 15 36 92 121 132 145 11 7 36 23 55 36 68 44 108 65 138 72 44 9 82 45 82
77 0 29 -53 132 -107 211 -77 110 -71 139 45 257 78 79 94 90 152 108 82 25
169 27 240 4z"/>
</g>
</svg>
