<svg version="1.0" xmlns="http://www.w3.org/2000/svg"
 width="668px" style="transform:scale(1,1.001);" height="375.75px" viewBox="0 0 320.000000 180.000000"
 preserveAspectRatio="xMidYMid meet">
<g transform="translate(0.000000,180.000000) scale(0.100000,-0.100000)"
fill="#000000" stroke="none">
<path d="M0 905 l0 -895 704 0 703 0 6 82 c3 46 3 110 0 143 -4 52 -1 66 21 105 66 114
66 114 66 280 0 149 -23 347 -49 425 -55 167 -71 227 -71 265 -1 25 -7 72 -15
105 -32 131 -8 233 62 261 21 9 47 25 59 35 32 29 167 29 198 0 12 -11 36 -25
52 -31 18 -6 43 -29 59 -53 26 -39 28 -48 27 -142 l-2 -100 38 -50 c20 -28 54
-75 74 -106 34 -51 43 -69 81 -159 23 -55 47 -129 47 -147 0 -21 15 -70 51
-163 64 -165 74 -254 43 -372 -22 -85 -71 -186 -100 -205 -36 -23 -114 -128
-114 -152 l0 -21 630 0 630 0 0 895 0 895 -1600 0 -1600 0 0 -895z"/>
</g>
</svg>
