<svg version="1.0" xmlns="http://www.w3.org/2000/svg"
 width="668px" style="transform:scale(1,1.001);" height="375.75px" viewBox="0 0 320.000000 180.000000"
 preserveAspectRatio="xMidYMid meet">
<g transform="translate(0.000000,180.000000) scale(0.100000,-0.100000)"
fill="#000000" stroke="none">
<path d="M0 905 l0 -895 670 0 670 0 0 22 c0 12 -6 29 -13 37 -22 25 -87 191 -93 236
-4 24 0 58 10 85 18 53 21 151 5 229 -12 59 0 169 36 326 9 39 20 97 25 130
12 93 43 162 89 202 48 41 51 61 16 122 -32 56 -32 91 2 133 39 47 41 48 114
48 65 0 68 -1 103 -40 32 -36 36 -46 36 -94 0 -48 4 -59 33 -89 17 -19 43 -38
57 -42 40 -12 107 -75 127 -119 25 -57 25 -238 -1 -316 -23 -71 -54 -136 -70
-149 -38 -32 -42 -151 -20 -598 l6 -123 699 0 699 0 0 895 0 895 -1600 0
-1600 0 0 -895z"/>
<path d="M1526 502 c-2 -4 -22 -51 -45 -104 -45 -105 -48 -132 -26 -223 8 -33 15 -84
15 -112 l0 -53 105 0 c100 0 105 1 105 21 0 19 -26 132 -88 393 -13 54 -22 71
-39 77 -12 4 -24 5 -27 1z"/>
</g>
</svg>
