<svg version="1.0" xmlns="http://www.w3.org/2000/svg"
 width="668px" style="transform:scale(1,1.001);" height="375.75px" viewBox="0 0 320.000000 180.000000"
 preserveAspectRatio="xMidYMid meet">
<g transform="translate(0.000000,180.000000) scale(0.100000,-0.100000)"
fill="#000000" stroke="none">
<path d="M0 905 l0 -895 1600 0 1600 0 0 895 0 895 -1600 0 -1600 0 0 -895z m1585 756
c22 -10 51 -21 65 -24 27 -8 93 -65 109 -96 6 -11 11 -39 11 -64 0 -46 -43
-204 -60 -221 -20 -20 -9 -55 28 -90 36 -36 64 -54 149 -96 94 -46 181 -158
193 -247 7 -55 17 -111 57 -313 21 -101 19 -159 -6 -183 -16 -16 -45 -18 -292
-22 -610 -9 -813 -4 -845 19 -29 22 -33 80 -13 212 19 133 55 251 96 323 31
53 131 156 161 165 12 4 22 11 22 15 0 5 24 27 54 50 86 66 91 111 24 207 -41
59 -78 147 -78 183 1 14 9 40 18 57 21 38 89 99 122 109 14 4 34 14 45 21 27
19 92 17 140 -5z"/>
</g>
</svg>
