<svg version="1.0" xmlns="http://www.w3.org/2000/svg"
 width="668px" style="transform:scale(1,1.001);" height="375.75px" viewBox="0 0 320.000000 180.000000"
 preserveAspectRatio="xMidYMid meet">
<g transform="translate(0.000000,180.000000) scale(0.100000,-0.100000)"
fill="#000000" stroke="none">
<path d="M0 905 l0 -895 930 0 930 0 0 22 c0 12 -6 29 -14 37 -45 51 -35 139 29 265 19
39 35 75 35 82 0 7 37 61 81 121 94 125 106 154 90 232 -16 80 -35 105 -74 97
-17 -4 -40 -15 -52 -25 -11 -11 -40 -25 -65 -31 -25 -7 -53 -19 -62 -27 -10
-9 -41 -18 -68 -21 -43 -4 -55 -1 -75 18 -18 17 -42 24 -100 30 -42 4 -80 11
-85 16 -4 5 -11 23 -15 41 -5 27 -2 37 18 57 38 38 69 41 138 16 66 -24 106
-21 134 10 9 10 31 22 49 26 17 3 40 14 51 24 11 10 29 20 40 24 25 8 65 76
65 112 0 18 -12 37 -37 60 -48 44 -73 83 -73 116 0 36 39 94 72 108 15 7 34
20 44 31 13 15 31 19 79 19 56 0 64 -3 91 -32 17 -18 41 -58 53 -88 26 -62 44
-80 79 -80 30 0 113 -53 139 -88 45 -61 52 -89 62 -234 6 -78 15 -158 22 -176
13 -38 0 -103 -31 -162 -11 -19 -33 -71 -50 -115 -17 -44 -38 -94 -48 -112
-88 -163 -98 -188 -106 -295 l-6 -78 465 0 465 0 0 895 0 895 -1600 0 -1600 0
0 -895z"/>
<path d="M2045 190 c-3 -6 -9 -35 -12 -66 -3 -30 -10 -57 -14 -60 -5 -3 -9 -16 -9 -30
0 -23 3 -24 65 -24 59 0 65 2 65 21 0 11 -9 28 -20 37 -13 11 -23 36 -28 72
-5 39 -12 56 -24 58 -9 2 -19 -2 -23 -8z"/>
</g>
</svg>
