<svg version="1.0" xmlns="http://www.w3.org/2000/svg"
 width="668px" style="transform:scale(1,1.001);" height="375.75px" viewBox="0 0 320.000000 180.000000"
 preserveAspectRatio="xMidYMid meet">
<g transform="translate(0.000000,180.000000) scale(0.100000,-0.100000)"
fill="#000000" stroke="none">
<path d="M0 905 l0 -895 644 0 644 0 5 78 c3 42 10 100 17 127 13 56 6 296 -10 325 -23
43 -42 177 -37 260 12 175 25 248 53 297 34 60 106 123 142 123 17 1 44 16 71
39 l44 39 -45 84 c-60 113 -64 143 -28 197 29 43 75 81 120 102 39 17 127 6
150 -19 11 -11 29 -23 40 -27 12 -4 26 -16 31 -28 5 -12 16 -33 24 -47 22 -38
18 -81 -14 -146 -46 -93 -47 -113 -8 -155 23 -25 45 -38 73 -42 22 -4 49 -16
60 -28 10 -12 29 -25 42 -30 36 -14 74 -108 83 -205 4 -46 10 -87 13 -93 12
-19 8 -126 -7 -181 -23 -86 -53 -148 -115 -239 l-57 -83 -1 -127 c0 -75 -5
-135 -12 -148 -7 -12 -12 -33 -12 -47 l0 -26 645 0 645 0 0 895 0 895 -1600 0
-1600 0 0 -895z"/>
</g>
</svg>
