<svg version="1.0" xmlns="http://www.w3.org/2000/svg"
 width="668px" style="transform:scale(1,1.001);" height="375.75px" viewBox="0 0 320.000000 180.000000"
 preserveAspectRatio="xMidYMid meet">
<g transform="translate(0.000000,180.000000) scale(0.100000,-0.100000)"
fill="#000000" stroke="none">
<path d="M0 905 l0 -895 420 0 420 0 0 30 c0 33 30 67 85 97 17 9 43 27 59 40 29 25 41
38 126 153 25 33 65 85 89 116 l44 56 9 147 c12 183 40 277 92 305 56 30 96
72 96 101 0 38 46 111 86 136 45 27 107 20 153 -19 30 -25 33 -32 40 -114 8
-81 11 -90 49 -138 23 -29 44 -68 48 -87 11 -60 -2 -231 -20 -258 -9 -13 -16
-40 -16 -59 0 -28 8 -41 46 -75 26 -23 51 -41 57 -41 8 0 83 -58 128 -100 9
-8 26 -34 37 -57 21 -39 21 -43 5 -90 -8 -26 -26 -59 -39 -74 -13 -14 -24 -35
-24 -47 l0 -22 605 0 605 0 0 895 0 895 -1600 0 -1600 0 0 -895z"/>
<path d="M1575 263 c-10 -3 -30 -12 -42 -21 -18 -11 -41 -14 -98 -9 -86 6 -104 -1 -207
-81 -37 -28 -88 -62 -113 -74 -34 -17 -45 -28 -45 -45 l0 -23 385 0 385 0 0
83 c0 95 -5 104 -80 130 -25 9 -63 23 -85 31 -41 15 -65 18 -100 9z"/>
</g>
</svg>
