<svg version="1.0" xmlns="http://www.w3.org/2000/svg"
 width="668px" style="transform:scale(1,1.001);" height="375.75px" viewBox="0 0 320.000000 180.000000"
 preserveAspectRatio="xMidYMid meet">
<g transform="translate(0.000000,180.000000) scale(0.100000,-0.100000)"
fill="#000000" stroke="none">
<path d="M0 905 l0 -895 691 0 692 0 -8 37 c-8 42 -11 77 -24 308 -5 88 -17 185 -25
215 -9 30 -16 74 -16 99 0 57 -19 121 -37 121 -37 0 -83 -83 -83 -150 0 -116
-85 -184 -161 -129 -28 20 -29 22 -29 111 l0 91 74 72 c61 59 79 84 101 141
15 38 34 76 41 85 23 25 16 51 -21 85 -49 44 -49 92 -1 140 30 30 40 34 88 34
46 0 58 -4 80 -27 14 -16 30 -44 37 -63 17 -50 49 -80 86 -80 18 0 43 -8 56
-18 13 -10 37 -23 52 -30 33 -14 40 -20 121 -97 51 -49 74 -82 126 -187 56
-109 63 -130 55 -154 -13 -36 -40 -52 -62 -38 -9 5 -34 50 -55 99 -24 57 -53
104 -77 129 -39 38 -39 38 -51 16 -9 -17 -9 -73 0 -243 7 -122 10 -244 8 -272
-3 -50 -3 -50 -56 -76 -62 -30 -75 -45 -61 -71 6 -11 9 -33 7 -51 -2 -26 -8
-33 -28 -35 -60 -6 -70 -12 -70 -37 l0 -25 875 0 875 0 0 895 0 895 -1600 0
-1600 0 0 -895z"/>
</g>
</svg>
