<svg version="1.0" xmlns="http://www.w3.org/2000/svg"
 width="668px" style="transform:scale(1,1.001);" height="375.75px" viewBox="0 0 320.000000 180.000000"
 preserveAspectRatio="xMidYMid meet">
<g transform="translate(0.000000,180.000000) scale(0.100000,-0.100000)"
fill="#000000" stroke="none">
<path d="M0 905 l0 -895 673 0 673 0 11 65 c8 47 25 88 65 155 62 105 71 123 91 170 8
19 33 73 55 120 76 159 89 214 68 295 -9 32 -17 91 -17 130 -2 111 -8 127 -55
150 -23 11 -48 26 -56 33 -9 7 -39 19 -67 28 -38 11 -54 22 -61 39 -5 13 -9
102 -9 197 0 142 3 179 17 207 21 43 42 56 76 47 42 -10 62 -66 46 -133 -6
-29 -16 -55 -21 -58 -5 -4 -9 -25 -9 -49 0 -51 33 -88 66 -74 10 4 40 17 66
27 47 20 48 21 36 48 -6 15 -22 40 -35 54 -29 31 -45 85 -38 120 9 39 42 65
114 89 l63 21 55 -23 c89 -37 132 -118 102 -195 -15 -39 7 -102 39 -114 13 -5
52 -9 87 -9 54 0 68 -4 94 -26 95 -80 194 -21 132 80 -24 38 -29 131 -10 184
10 29 12 30 36 19 30 -14 70 -98 84 -177 5 -30 19 -87 30 -126 16 -52 20 -84
15 -116 -11 -75 -19 -81 -137 -89 -123 -8 -133 -11 -149 -50 -7 -16 -16 -29
-20 -29 -4 0 -11 -12 -14 -26 -11 -41 -8 -301 3 -369 6 -33 17 -111 25 -173 9
-62 20 -120 24 -130 5 -9 12 -41 15 -71 4 -32 20 -81 42 -122 19 -37 35 -79
35 -93 l0 -26 480 0 480 0 0 895 0 895 -1600 0 -1600 0 0 -895z"/>
<path d="M1779 368 c-11 -13 -50 -54 -86 -93 -36 -38 -77 -86 -92 -105 -14 -19 -45 -53
-68 -77 -24 -23 -43 -51 -43 -62 0 -21 4 -21 290 -21 l290 0 0 24 c0 13 -6 26
-14 29 -12 5 -79 112 -144 231 -24 44 -78 96 -99 96 -8 0 -23 -10 -34 -22z"/>
</g>
</svg>
