<svg version="1.0" xmlns="http://www.w3.org/2000/svg"
 width="668px" style="transform:scale(1,1.001);" height="375.75px" viewBox="0 0 320.000000 180.000000"
 preserveAspectRatio="xMidYMid meet">
<g transform="translate(0.000000,180.000000) scale(0.100000,-0.100000)"
fill="#000000" stroke="none">
<path d="M0 905 l0 -895 895 0 895 0 0 64 c0 35 9 92 19 127 40 132 65 266 67 355 1 50
7 107 13 125 6 19 15 78 21 131 9 86 15 114 46 193 25 65 10 118 -45 168 -47
42 -40 86 26 155 7 7 19 22 27 34 12 16 32 22 105 30 120 14 156 7 170 -34 6
-17 11 -73 11 -125 0 -91 1 -94 26 -105 47 -22 125 -102 160 -164 19 -34 43
-99 53 -145 11 -46 27 -111 35 -143 15 -58 14 -64 -13 -186 -27 -121 -37 -147
-81 -215 -46 -71 -52 -96 -45 -182 l7 -83 404 0 404 0 0 895 0 895 -1600 0
-1600 0 0 -895z"/>
<path d="M2140 203 c-19 -19 -47 -41 -61 -48 -38 -20 -79 -79 -79 -114 l0 -31 100 0
100 0 -7 93 c-3 50 -9 102 -12 114 -6 20 -7 20 -41 -14z"/>
</g>
</svg>
