<svg version="1.0" xmlns="http://www.w3.org/2000/svg"
 width="668px" style="transform:scale(1,1.001);" height="375.75px" viewBox="0 0 320.000000 180.000000"
 preserveAspectRatio="xMidYMid meet">
<g transform="translate(0.000000,180.000000) scale(0.100000,-0.100000)"
fill="#000000" stroke="none">
<path d="M0 905 l0 -895 1600 0 1600 0 0 895 0 895 -1600 0 -1600 0 0 -895z m1537 601
c24 -21 28 -32 31 -95 4 -66 6 -72 33 -88 16 -10 29 -21 29 -25 0 -4 18 -13
40 -19 21 -7 51 -25 66 -40 15 -16 38 -29 50 -29 39 0 57 -28 50 -78 -5 -37
-1 -54 23 -101 52 -100 62 -134 59 -191 -3 -51 -5 -55 -29 -58 -21 -2 -31 4
-48 33 -11 20 -21 53 -21 73 0 37 -30 114 -47 125 -6 4 -18 1 -28 -6 -14 -11
-18 -40 -26 -198 -5 -101 -6 -218 -3 -259 6 -72 35 -196 55 -232 5 -10 9 -44
9 -77 0 -44 -5 -65 -21 -85 -19 -25 -22 -25 -50 -11 -17 10 -31 26 -34 43 -18
90 -41 154 -71 207 -52 89 -53 90 -64 142 -15 67 -30 103 -45 103 -21 0 -64
-58 -71 -95 -10 -56 5 -132 46 -220 56 -123 63 -170 31 -199 -12 -11 -44 -18
-99 -23 -79 -6 -82 -5 -90 18 -7 19 -4 31 16 58 36 46 33 81 -16 182 -39 79
-42 92 -42 166 0 102 21 172 88 291 29 51 52 104 52 120 0 33 -34 138 -51 158
-12 15 -96 19 -116 6 -7 -4 -24 -34 -38 -65 -20 -47 -32 -61 -61 -73 -42 -18
-84 -11 -110 17 -35 39 -12 236 29 240 6 1 44 2 82 3 56 1 76 6 98 22 15 12
47 25 71 28 62 10 70 23 63 104 -7 89 1 113 43 134 48 24 84 22 117 -6z"/>
</g>
</svg>
