<svg version="1.0" xmlns="http://www.w3.org/2000/svg"
 width="668px" style="transform:scale(1,1.001);" height="375.75px" viewBox="0 0 320.000000 180.000000"
 preserveAspectRatio="xMidYMid meet">
<g transform="translate(0.000000,180.000000) scale(0.100000,-0.100000)"
fill="#000000" stroke="none">
<path d="M0 905 l0 -895 600 0 600 0 0 24 c0 18 -6 26 -21 28 -12 2 -27 11 -33 22 -9
15 -7 20 9 30 10 6 32 23 47 38 39 37 39 106 -2 211 -33 87 -38 156 -15 201 8
15 15 36 15 45 0 9 4 21 8 27 18 20 73 175 70 197 -2 15 -14 25 -36 33 -17 5
-37 15 -44 22 -7 7 -26 12 -43 12 -24 0 -33 -6 -43 -30 -15 -32 -3 -70 22 -70
18 0 46 -76 46 -123 0 -46 -22 -58 -53 -29 -21 20 -32 21 -125 18 -62 -3 -109
-9 -118 -17 -27 -23 -37 3 -24 63 7 29 16 72 21 96 9 46 33 85 84 140 44 47
85 129 85 170 0 28 -7 41 -39 68 -52 45 -81 103 -81 163 0 68 17 81 112 81 83
0 96 -8 117 -70 17 -51 39 -80 62 -80 63 0 262 -118 301 -179 59 -90 62 -108
45 -240 -15 -119 -16 -122 -58 -174 -24 -28 -53 -62 -64 -73 -11 -12 -35 -42
-52 -66 -28 -37 -33 -54 -33 -98 0 -54 23 -142 67 -258 13 -35 26 -90 30 -123
l6 -59 868 0 869 0 0 895 0 895 -1600 0 -1600 0 0 -895z"/>
</g>
</svg>
