<svg version="1.0" xmlns="http://www.w3.org/2000/svg"
 width="668px" style="transform:scale(1,1.001);" height="375.75px" viewBox="0 0 320.000000 180.000000"
 preserveAspectRatio="xMidYMid meet">
<g transform="translate(0.000000,180.000000) scale(0.100000,-0.100000)"
fill="#000000" stroke="none">
<path d="M0 905 l0 -895 915 0 c848 0 915 1 915 17 0 9 -11 44 -25 78 -33 83 -115 367
-125 431 -4 28 -20 70 -35 94 -46 73 -64 128 -71 213 -6 88 -27 156 -74 246
-26 48 -30 67 -30 134 0 47 6 92 14 110 8 18 26 64 39 102 49 139 84 195 123
195 35 0 75 18 100 45 18 20 33 25 69 25 44 0 105 -25 105 -42 0 -4 7 -8 15
-8 8 0 29 -19 46 -42 l31 -43 -7 -107 -7 -107 36 -6 c20 -4 36 -10 36 -14 0
-4 21 -35 48 -69 85 -110 101 -134 118 -178 24 -64 5 -174 -42 -241 -55 -79
-75 -129 -68 -174 4 -21 10 -39 14 -39 12 0 75 -110 128 -225 109 -239 107
-234 106 -317 l-1 -78 413 0 414 0 0 895 0 895 -1600 0 -1600 0 0 -895z"/>
<path d="M2014 299 c-3 -6 -2 -50 2 -97 5 -48 7 -111 6 -139 l-4 -53 96 0 c91 0 96 1
96 21 0 12 -10 31 -21 43 -12 12 -52 69 -90 129 -38 59 -71 107 -73 107 -3 0
-8 -5 -12 -11z"/>
</g>
</svg>
