<svg version="1.0" xmlns="http://www.w3.org/2000/svg"
 width="668px" style="transform:scale(1,1.001);" height="375.75px" viewBox="0 0 320.000000 180.000000"
 preserveAspectRatio="xMidYMid meet">
<g transform="translate(0.000000,180.000000) scale(0.100000,-0.100000)"
fill="#000000" stroke="none">
<path d="M0 905 l0 -895 691 0 691 0 -6 113 c-19 349 -21 370 -45 417 -33 62 -51 134
-51 205 0 69 -19 105 -54 105 -33 0 -85 -57 -97 -106 -11 -42 -38 -64 -79 -64
-31 0 -80 34 -87 60 -12 42 -7 112 8 124 20 16 39 53 39 75 0 25 21 31 97 29
l63 -2 50 52 c27 28 50 55 50 59 0 4 -7 26 -14 48 -15 42 -11 89 8 103 17 13
130 52 151 52 10 0 38 -10 63 -22 l44 -23 -5 -54 c-7 -65 3 -86 48 -106 74
-30 100 -59 117 -132 10 -37 33 -134 54 -215 36 -147 40 -218 12 -218 -18 0
-68 51 -68 69 0 9 -7 25 -15 35 -8 11 -15 29 -15 40 0 18 -2 18 -14 6 -11 -12
-11 -42 -3 -162 9 -133 9 -149 -6 -166 -9 -10 -17 -22 -17 -27 0 -4 -7 -13
-16 -19 -21 -16 -21 -79 0 -111 19 -29 21 -66 4 -83 -17 -17 -53 -15 -68 3
-31 37 -60 9 -60 -57 l0 -28 865 0 865 0 0 895 0 895 -1600 0 -1600 0 0 -895z"/>
</g>
</svg>
