<svg version="1.0" xmlns="http://www.w3.org/2000/svg"
 width="668px" style="transform:scale(1,1.001);" height="375.75px" viewBox="0 0 320.000000 180.000000"
 preserveAspectRatio="xMidYMid meet">
<g transform="translate(0.000000,180.000000) scale(0.100000,-0.100000)"
fill="#000000" stroke="none">
<path d="M0 905 l0 -895 585 0 585 0 0 70 c0 41 6 82 14 98 8 15 19 60 25 100 6 41 18
87 26 103 9 16 18 57 21 91 3 35 14 102 25 149 30 128 17 297 -36 459 -8 25
-21 79 -29 120 -17 88 -29 114 -84 178 -23 26 -55 65 -72 87 -17 22 -44 56
-61 75 -84 97 -149 201 -149 240 0 20 -9 20 -425 20 l-425 0 0 -895z"/>
<path d="M980 1774 c0 -25 43 -74 96 -109 33 -21 58 -43 96 -83 52 -53 73 -64 103 -50
32 15 38 39 27 113 -6 34 -6 71 -1 89 20 69 26 66 -156 66 l-165 0 0 -26z"/>
<path d="M1614 1758 c11 -79 8 -124 -8 -157 -18 -34 -9 -61 19 -61 7 0 23 -8 36 -19 14
-10 42 -24 64 -30 21 -6 48 -19 59 -30 62 -60 126 -135 126 -148 0 -6 9 -21
19 -34 10 -14 25 -45 32 -69 7 -25 18 -52 24 -60 14 -18 28 -150 16 -150 -5 0
-11 19 -15 43 -4 23 -16 51 -26 62 -10 11 -29 31 -42 45 l-22 24 -14 -49 c-21
-80 -24 -83 -36 -45 -15 48 -79 170 -89 170 -4 0 -13 -13 -18 -30 -6 -16 -15
-28 -19 -25 -4 3 -1 -16 7 -43 9 -28 16 -91 17 -157 1 -98 4 -116 29 -166 15
-31 27 -62 27 -68 0 -7 9 -24 20 -38 11 -14 20 -32 20 -40 0 -12 39 -98 61
-133 5 -8 17 -31 25 -50 9 -19 25 -45 35 -59 10 -13 19 -31 19 -40 0 -9 12
-41 26 -71 14 -30 37 -78 50 -106 13 -28 24 -58 24 -66 0 -8 7 -23 15 -34 10
-13 13 -33 8 -66 l-6 -48 552 0 551 0 0 895 0 895 -796 0 -796 0 6 -42z"/>
<path d="M1548 560 c-14 -10 -30 -38 -37 -61 -7 -23 -19 -52 -26 -63 -7 -12 -18 -40
-24 -62 -10 -37 -56 -143 -80 -184 -5 -8 -23 -44 -40 -79 -54 -110 -80 -101
299 -101 l330 0 0 27 c0 14 -11 41 -25 59 -14 18 -25 36 -25 40 0 4 -12 26
-27 48 -14 23 -38 59 -52 81 -14 22 -53 75 -86 119 -33 43 -65 86 -70 95 -17
27 -69 78 -91 90 -18 8 -27 7 -46 -9z"/>
</g>
</svg>
