<svg version="1.0" xmlns="http://www.w3.org/2000/svg"
 width="668px" style="transform:scale(1,1.001);" height="375.75px" viewBox="0 0 320.000000 180.000000"
 preserveAspectRatio="xMidYMid meet">
<g transform="translate(0.000000,180.000000) scale(0.100000,-0.100000)"
fill="#000000" stroke="none">
<path d="M0 905 l0 -895 1600 0 1600 0 0 895 0 895 -1600 0 -1600 0 0 -895z m1569 720
c108 -35 191 -100 241 -192 15 -28 21 -50 17 -70 -9 -45 -53 -165 -76 -208
-14 -28 -21 -58 -21 -98 0 -54 3 -62 34 -93 25 -25 43 -34 68 -34 52 0 58 13
58 117 0 81 2 94 19 103 31 16 73 12 96 -10 16 -15 40 -22 81 -25 42 -3 63
-10 74 -24 8 -10 25 -22 37 -26 16 -4 26 -19 34 -48 6 -23 17 -53 24 -67 20
-40 33 -91 40 -160 5 -43 15 -78 31 -103 14 -20 30 -69 38 -107 8 -45 21 -79
35 -94 18 -19 22 -33 19 -72 -3 -48 -4 -49 -43 -58 -22 -4 -51 -14 -65 -21
-18 -10 -102 -16 -290 -21 -341 -8 -298 -8 -783 -1 -390 7 -421 8 -457 27
l-39 20 -4 112 c-5 113 -22 315 -32 374 -3 18 -17 49 -31 69 -14 21 -29 60
-35 88 -12 67 0 79 82 83 52 1 72 -3 112 -25 75 -40 93 -61 101 -117 21 -147
51 -187 122 -164 64 21 183 80 214 106 34 29 54 84 47 129 -3 19 -23 59 -44
90 -21 32 -47 74 -58 95 -11 21 -28 47 -38 58 -10 11 -25 44 -32 73 -19 69 -4
104 78 187 71 72 78 77 167 109 81 28 82 28 179 -2z"/>
</g>
</svg>
