<svg version="1.0" xmlns="http://www.w3.org/2000/svg"
 width="668px" style="transform:scale(1,1.001);" height="375.75px" viewBox="0 0 320.000000 180.000000"
 preserveAspectRatio="xMidYMid meet">
<g transform="translate(0.000000,180.000000) scale(0.100000,-0.100000)"
fill="#000000" stroke="none">
<path d="M0 905 l0 -895 561 0 560 0 -6 52 c-3 29 -1 197 7 373 7 176 11 373 10 437 -3
111 -2 119 25 170 16 29 41 85 56 125 27 69 28 75 16 130 -20 87 -13 131 28
181 19 23 40 42 47 42 7 0 25 13 40 29 16 16 39 32 51 35 14 4 34 25 51 53 15
27 40 63 56 81 15 18 28 44 28 57 l0 25 -765 0 -765 0 0 -895z"/>
<path d="M1710 1777 c0 -13 9 -32 21 -43 32 -28 49 -68 49 -112 0 -41 -22 -106 -40
-117 -5 -3 -19 -25 -29 -48 -17 -38 -18 -45 -5 -76 8 -19 16 -36 17 -37 1 -1
12 -7 25 -13 12 -6 22 -18 22 -25 0 -8 7 -19 16 -27 8 -7 22 -25 30 -41 19
-37 47 -259 41 -324 -8 -83 -54 -154 -100 -154 -13 0 -33 -11 -46 -24 -12 -12
-39 -28 -61 -35 -22 -6 -43 -17 -47 -24 -4 -6 -11 -111 -14 -232 -6 -232 -16
-293 -56 -357 -12 -21 -23 -47 -23 -58 0 -20 4 -20 845 -20 l845 0 0 895 0
895 -745 0 -745 0 0 -23z"/>
</g>
</svg>
