<svg version="1.0" xmlns="http://www.w3.org/2000/svg"
 width="668px" style="transform:scale(1,1.001);" height="375.75px" viewBox="0 0 320.000000 180.000000"
 preserveAspectRatio="xMidYMid meet">
<g transform="translate(0.000000,180.000000) scale(0.100000,-0.100000)"
fill="#000000" stroke="none">
<path d="M0 905 l0 -895 660 0 660 0 0 24 c0 13 9 46 21 72 l20 48 -25 71 c-25 69 -32
94 -62 225 -17 72 -21 237 -9 343 6 55 5 67 -7 67 -22 0 -138 -118 -138 -142
0 -37 -31 -88 -54 -88 -35 0 -48 16 -50 58 0 32 7 48 37 85 20 25 37 53 37 63
0 17 81 123 105 136 7 4 23 36 36 70 30 82 56 126 79 133 21 7 31 56 20 96 -8
27 4 118 18 130 8 8 68 13 123 11 45 -2 51 -14 58 -106 5 -55 10 -71 26 -80
11 -6 33 -21 48 -33 16 -13 35 -23 44 -23 8 0 28 -11 45 -25 16 -14 38 -25 49
-25 54 0 117 -137 91 -195 -12 -25 -59 -45 -71 -29 -8 12 -78 44 -95 44 -7 0
-20 -8 -29 -18 -23 -25 -23 -207 -1 -334 10 -56 14 -130 12 -189 -3 -86 -6
-100 -26 -122 -31 -33 -39 -92 -18 -140 25 -61 15 -69 -73 -65 l-76 3 -3 -33
-3 -32 875 0 876 0 0 895 0 895 -1600 0 -1600 0 0 -895z"/>
<path d="M1422 547 c-14 -69 10 -296 33 -304 6 -2 21 26 34 62 18 50 21 76 16 108 -11
63 -48 170 -62 174 -6 2 -15 -14 -21 -40z"/>
</g>
</svg>
