<svg version="1.0" xmlns="http://www.w3.org/2000/svg"
 width="668px" style="transform:scale(1,1.001);" height="375.75px" viewBox="0 0 320.000000 180.000000"
 preserveAspectRatio="xMidYMid meet">
<g transform="translate(0.000000,180.000000) scale(0.100000,-0.100000)"
fill="#000000" stroke="none">
<path d="M0 905 l0 -895 515 0 c507 0 515 0 515 20 0 11 11 63 25 116 14 53 25 122 25
153 0 31 7 81 16 111 8 30 19 73 23 95 4 22 28 81 53 130 112 223 115 235 59
287 -25 23 -31 38 -36 93 -4 36 -5 78 -2 93 8 38 96 222 107 222 4 0 21 11 37
24 17 14 46 25 76 28 26 3 56 13 67 23 25 22 95 31 124 15 36 -19 46 -52 46
-148 0 -49 4 -92 9 -97 4 -6 20 -47 35 -93 32 -101 34 -174 6 -220 -26 -42
-25 -102 1 -147 12 -19 35 -70 51 -113 28 -70 37 -99 70 -201 6 -19 14 -60 18
-90 4 -31 17 -98 29 -150 11 -52 21 -107 21 -123 l0 -28 655 0 655 0 0 895 0
895 -1600 0 -1600 0 0 -895z"/>
<path d="M1430 613 c-20 -7 -146 -139 -175 -184 -28 -44 -48 -108 -85 -274 -6 -27 -15
-64 -21 -81 -21 -69 -43 -64 311 -64 l320 0 0 23 c-1 63 -76 316 -113 381 -7
12 -45 63 -86 114 -65 82 -77 92 -105 91 -17 0 -38 -3 -46 -6z"/>
</g>
</svg>
