<svg version="1.0" xmlns="http://www.w3.org/2000/svg"
 width="668px" style="transform:scale(1,1.001);" height="375.75px" viewBox="0 0 320.000000 180.000000"
 preserveAspectRatio="xMidYMid meet">
<g transform="translate(0.000000,180.000000) scale(0.100000,-0.100000)"
fill="#000000" stroke="none">
<path d="M0 905 l0 -895 586 0 585 0 -6 54 c-8 63 15 154 46 182 11 9 19 21 19 27 0 9
34 55 65 88 8 9 15 20 15 24 0 5 10 20 23 34 13 15 32 46 42 71 36 90 73 160
84 160 19 0 19 33 1 102 -26 98 -28 340 -3 445 l16 72 -38 82 c-48 103 -50
153 -7 213 30 41 30 41 102 44 71 3 73 2 106 -32 47 -49 57 -79 49 -158 -7
-74 0 -94 45 -143 39 -41 95 -148 115 -219 13 -47 17 -109 18 -301 l2 -243
-48 -92 c-78 -150 -88 -183 -94 -302 l-6 -108 742 0 741 0 0 895 0 895 -1600
0 -1600 0 0 -895z"/>
<path d="M1410 120 c-42 -41 -60 -67 -60 -85 l0 -25 96 0 96 0 -5 28 c-18 93 -39 142
-62 142 -3 0 -33 -27 -65 -60z"/>
</g>
</svg>
