<svg version="1.0" xmlns="http://www.w3.org/2000/svg"
 width="668px" style="transform:scale(1,1.001);" height="375.75px" viewBox="0 0 320.000000 180.000000"
 preserveAspectRatio="xMidYMid meet">
<g transform="translate(0.000000,180.000000) scale(0.100000,-0.100000)"
fill="#000000" stroke="none">
<path d="M0 905 l0 -895 620 0 620 0 0 33 c0 17 8 48 18 67 14 29 24 36 57 41 22 4 56
2 75 -5 38 -12 41 -25 24 -104 l-6 -32 221 0 221 0 0 25 c0 21 -5 25 -30 25
-35 0 -38 10 -11 34 16 15 25 16 59 7 22 -6 45 -18 52 -26 11 -13 8 -15 -19
-15 -26 0 -31 -4 -31 -25 l0 -25 665 0 665 0 0 895 0 895 -1600 0 -1600 0 0
-895z m1701 672 c39 -24 54 -76 54 -188 0 -100 2 -109 24 -133 14 -14 30 -26
37 -26 7 0 18 -9 24 -21 7 -11 25 -25 41 -31 16 -5 34 -19 40 -29 7 -14 21
-19 52 -19 54 0 73 -14 86 -65 17 -61 13 -135 -9 -201 -32 -93 -60 -134 -124
-178 -82 -57 -86 -77 -41 -196 38 -101 43 -140 19 -164 -18 -18 -20 -18 -289
-20 -167 -1 -206 -4 -238 -18 -28 -13 -44 -15 -57 -8 -27 15 -36 73 -17 118 8
20 23 57 33 81 26 62 23 209 -4 231 -106 87 -100 77 -118 182 -15 83 -16 105
-5 155 26 119 64 159 171 181 129 26 140 30 140 58 0 15 -12 36 -29 52 -69 63
-73 151 -11 211 32 30 43 35 100 45 33 5 100 -4 121 -17z"/>
</g>
</svg>
