<svg version="1.0" xmlns="http://www.w3.org/2000/svg"
 width="668px" style="transform:scale(1,1.001);" height="375.75px" viewBox="0 0 320.000000 180.000000"
 preserveAspectRatio="xMidYMid meet">
<g transform="translate(0.000000,180.000000) scale(0.100000,-0.100000)"
fill="#000000" stroke="none">
<path d="M0 905 l0 -895 795 0 c898 0 815 -9 771 84 -33 71 -51 199 -49 341 2 102 -1
123 -16 140 -29 34 -49 70 -70 129 -10 30 -33 75 -50 98 -45 63 -79 136 -86
190 -9 59 28 145 86 203 23 22 47 52 55 68 8 15 18 27 23 27 5 0 19 11 32 25
13 14 56 41 96 61 40 20 77 42 84 50 15 18 -4 67 -39 99 -38 35 -54 91 -40
140 6 22 22 51 35 66 13 14 23 35 23 47 l0 22 -825 0 -825 0 0 -895z"/>
<path d="M1890 1770 c0 -16 5 -30 11 -30 19 0 41 -71 36 -114 -3 -23 -9 -65 -13 -93 -9
-69 3 -87 110 -157 106 -71 110 -81 111 -248 l0 -127 -32 -33 c-39 -41 -61
-94 -44 -111 16 -16 14 -157 -4 -207 -10 -29 -15 -82 -15 -164 0 -88 -5 -141
-19 -191 -10 -39 -22 -97 -26 -130 -4 -33 -13 -70 -21 -82 -8 -12 -14 -34 -14
-48 l0 -25 615 0 615 0 0 895 0 895 -655 0 -655 0 0 -30z"/>
</g>
</svg>
