<svg version="1.0" xmlns="http://www.w3.org/2000/svg"
 width="668px" style="transform:scale(1,1.001);" height="375.75px" viewBox="0 0 320.000000 180.000000"
 preserveAspectRatio="xMidYMid meet">
<g transform="translate(0.000000,180.000000) scale(0.100000,-0.100000)"
fill="#000000" stroke="none">
<path d="M0 905 l0 -895 1056 0 1057 0 -8 37 c-4 21 -7 49 -6 63 10 181 11 260 4 260
-15 0 -30 -15 -36 -35 -3 -11 -17 -54 -31 -95 -15 -41 -26 -86 -26 -100 0 -53
-20 -65 -110 -64 -60 1 -86 5 -97 17 -21 21 -21 109 0 202 8 39 23 113 32 165
20 114 50 227 65 245 6 8 14 38 17 68 8 82 -18 133 -134 264 -24 27 -43 55
-43 63 0 9 10 36 23 60 17 36 29 47 59 55 21 6 43 17 50 26 28 35 90 72 248
149 32 15 49 72 50 163 0 77 3 94 26 133 30 51 51 59 142 58 l63 -1 70 -74
c65 -69 69 -76 64 -109 -5 -25 -24 -53 -68 -97 l-61 -63 16 -34 c12 -23 28
-38 51 -45 45 -15 82 -73 107 -167 26 -97 26 -168 0 -201 -11 -14 -20 -39 -20
-55 0 -31 -38 -78 -64 -78 -20 0 -87 -60 -80 -71 3 -5 1 -9 -4 -9 -18 0 -42
-79 -43 -138 0 -31 -4 -79 -9 -107 -25 -152 -49 -330 -54 -402 l-5 -83 449 0
450 0 0 895 0 895 -1600 0 -1600 0 0 -895z"/>
</g>
</svg>
