<svg version="1.0" xmlns="http://www.w3.org/2000/svg"
 width="668px" style="transform:scale(1,1.001);" height="375.75px" viewBox="0 0 320.000000 180.000000"
 preserveAspectRatio="xMidYMid meet">
<g transform="translate(0.000000,180.000000) scale(0.100000,-0.100000)"
fill="#000000" stroke="none">
<path d="M0 905 l0 -895 624 0 625 0 0 67 c0 50 -5 73 -17 86 -25 28 -20 240 9 372 25
115 34 175 48 297 5 47 15 97 22 110 22 42 53 78 65 78 23 0 43 40 35 68 -11
37 4 84 35 113 20 19 36 24 79 24 44 0 56 -4 74 -25 30 -36 35 -66 22 -123
-12 -54 -13 -51 53 -147 l30 -42 0 -338 c-1 -378 -1 -383 -68 -395 -32 -6 -34
-9 -40 -58 -3 -29 -6 -60 -6 -69 0 -17 45 -18 805 -18 l805 0 0 895 0 895
-1600 0 -1600 0 0 -895z"/>
<path d="M1400 98 c-36 -21 -71 -38 -77 -38 -7 0 -13 -11 -13 -25 l0 -25 100 0 c99 0
100 0 100 24 0 26 -25 92 -37 99 -5 2 -37 -13 -73 -35z"/>
</g>
</svg>
