<svg version="1.0" xmlns="http://www.w3.org/2000/svg"
 width="668px" style="transform:scale(1,1.001);" height="375.75px" viewBox="0 0 320.000000 180.000000"
 preserveAspectRatio="xMidYMid meet">
<g transform="translate(0.000000,180.000000) scale(0.100000,-0.100000)"
fill="#000000" stroke="none">
<path d="M0 905 l0 -895 563 0 563 0 1 132 c0 113 6 160 36 308 20 96 48 209 63 250 23
65 25 85 20 150 -5 59 -2 90 14 145 34 117 22 175 -34 175 -41 0 -56 29 -56
106 1 89 21 165 46 175 10 4 29 21 42 37 19 27 22 44 22 119 0 70 4 95 20 121
11 18 20 41 20 52 0 20 -9 20 -660 20 l-660 0 0 -895z"/>
<path d="M1520 1776 c0 -15 7 -27 18 -30 30 -10 57 -93 54 -168 -3 -83 10 -100 110
-132 20 -6 48 -67 48 -104 0 -14 -14 -50 -31 -81 -34 -60 -35 -66 -27 -286 4
-109 7 -126 35 -185 135 -282 177 -373 202 -441 45 -123 64 -205 64 -271 l-1
-68 604 0 604 0 0 895 0 895 -840 0 -840 0 0 -24z"/>
<path d="M1472 563 c-22 -8 -63 -83 -91 -163 -15 -42 -39 -98 -55 -125 -26 -47 -62
-161 -73 -232 l-5 -33 326 0 c320 0 326 0 326 20 0 11 -10 37 -23 58 -13 20
-34 60 -48 87 -22 48 -43 79 -88 135 -12 14 -46 57 -76 95 -121 152 -150 175
-193 158z"/>
</g>
</svg>
