<svg version="1.0" xmlns="http://www.w3.org/2000/svg"
 width="668px" style="transform:scale(1,1.001);" height="375.75px" viewBox="0 0 320.000000 180.000000"
 preserveAspectRatio="xMidYMid meet">
<g transform="translate(0.000000,180.000000) scale(0.100000,-0.100000)"
fill="#000000" stroke="none">
<path d="M0 905 l0 -895 553 0 552 0 -2 287 c-1 159 -6 312 -12 342 -6 29 -11 78 -11
107 l0 54 -54 36 c-32 21 -59 48 -67 66 -7 16 -23 34 -36 39 -20 7 -23 15 -23
62 0 51 34 206 60 271 6 17 19 35 29 42 9 7 25 31 35 53 18 38 18 43 2 90 -20
63 -20 113 0 154 23 44 29 47 110 47 101 0 107 -6 112 -124 l4 -97 32 -13 c36
-15 87 -61 104 -93 7 -12 19 -59 28 -105 8 -46 24 -116 35 -155 11 -40 24
-105 29 -145 5 -40 17 -120 26 -178 19 -114 26 -543 11 -673 l-8 -67 846 0
845 0 0 895 0 895 -1600 0 -1600 0 0 -895z"/>
<path d="M1285 648 c-13 -39 -52 -373 -61 -521 l-6 -117 101 0 c55 0 101 4 101 9 0 104
-42 446 -65 536 -23 86 -57 131 -70 93z"/>
</g>
</svg>
