<svg version="1.0" xmlns="http://www.w3.org/2000/svg"
 width="668px" style="transform:scale(1,1.001);" height="375.75px" viewBox="0 0 320.000000 180.000000"
 preserveAspectRatio="xMidYMid meet">
<g transform="translate(0.000000,180.000000) scale(0.100000,-0.100000)"
fill="#000000" stroke="none">
<path d="M0 905 l0 -895 543 0 543 0 1 118 c1 128 11 178 93 438 18 56 9 154 -20 219
-30 67 -42 147 -43 284 -1 154 0 159 52 241 16 25 30 52 30 61 1 9 12 24 26
33 14 9 25 23 25 30 0 7 7 19 15 26 22 19 18 55 -10 89 -29 34 -34 78 -22 184
l9 67 -621 0 -621 0 0 -895z"/>
<path d="M1540 1782 c0 -11 9 -54 20 -97 11 -43 20 -90 20 -105 0 -29 27 -60 53 -60 8
0 24 -11 35 -25 11 -14 34 -30 51 -36 19 -7 31 -18 31 -29 0 -10 6 -23 14 -29
8 -6 16 -24 19 -39 3 -15 11 -52 17 -82 15 -67 8 -382 -8 -423 -31 -75 -71
-500 -70 -729 l1 -118 739 0 738 0 0 895 0 895 -830 0 c-799 0 -830 -1 -830
-18z"/>
<path d="M1391 391 c-17 -16 -31 -34 -31 -40 0 -6 -17 -48 -38 -93 -22 -46 -42 -95 -45
-109 -4 -14 -18 -42 -32 -63 -14 -20 -25 -46 -25 -56 0 -19 8 -20 185 -20
l185 0 0 23 c0 12 -7 31 -15 41 -10 13 -15 43 -15 85 0 74 -14 173 -31 212
-22 54 -91 64 -138 20z"/>
</g>
</svg>
