<svg version="1.0" xmlns="http://www.w3.org/2000/svg"
 width="668px" style="transform:scale(1,1.001);" height="375.75px" viewBox="0 0 320.000000 180.000000"
 preserveAspectRatio="xMidYMid meet">
<g transform="translate(0.000000,180.000000) scale(0.100000,-0.100000)"
fill="#000000" stroke="none">
<path d="M0 905 l0 -895 660 0 660 0 0 42 c0 23 9 81 19 128 22 95 42 219 49 298 3 42
-2 66 -28 129 -18 42 -42 93 -55 112 -41 66 -58 163 -51 286 3 61 11 128 16
150 11 48 -4 65 -57 65 -25 0 -33 4 -33 18 0 40 25 56 94 60 46 3 70 9 79 21
6 9 19 17 27 19 8 2 20 12 27 22 7 10 26 21 42 25 32 7 51 43 51 98 0 17 11
49 25 72 19 34 32 44 60 49 52 10 103 -3 125 -31 28 -35 28 -143 1 -193 -53
-96 -52 -93 -40 -239 11 -130 13 -140 54 -222 75 -150 69 -178 -27 -131 -52
26 -61 36 -125 140 -33 53 -69 2 -58 -83 3 -27 17 -95 31 -149 31 -126 31
-203 0 -309 -31 -106 -40 -168 -32 -212 6 -28 15 -39 46 -55 40 -20 44 -29 40
-82 l-2 -28 801 0 801 0 0 895 0 895 -1600 0 -1600 0 0 -895z"/>
</g>
</svg>
