<svg version="1.0" xmlns="http://www.w3.org/2000/svg"
 width="668px" style="transform:scale(1,1.001);" height="375.75px" viewBox="0 0 320.000000 180.000000"
 preserveAspectRatio="xMidYMid meet">
<g transform="translate(0.000000,180.000000) scale(0.100000,-0.100000)"
fill="#000000" stroke="none">
<path d="M0 905 l0 -895 1600 0 1600 0 0 895 0 895 -1600 0 -1600 0 0 -895z m1686 736
c21 -12 45 -21 53 -21 7 0 24 -10 36 -22 13 -13 33 -30 46 -39 20 -14 24 -26
27 -91 3 -58 0 -85 -15 -119 -57 -130 -56 -125 -43 -150 20 -38 71 -93 99
-107 14 -6 44 -26 66 -43 22 -16 54 -39 70 -49 32 -20 93 -95 120 -146 8 -16
15 -46 15 -66 0 -20 7 -65 14 -100 8 -35 19 -119 25 -188 10 -137 2 -172 -42
-189 -12 -5 -258 -9 -545 -10 l-523 -2 -29 30 c-26 25 -30 37 -30 83 0 30 6
77 14 104 8 27 17 76 21 109 4 33 15 74 24 91 10 16 21 46 25 66 3 20 13 41
21 48 8 7 15 18 15 24 0 16 118 136 163 166 21 14 48 33 60 43 12 10 37 27 55
37 30 19 38 36 34 83 -1 10 -21 52 -44 95 -46 83 -78 158 -78 183 0 54 73 137
159 181 65 33 123 33 187 -1z"/>
</g>
</svg>
