<svg version="1.0" xmlns="http://www.w3.org/2000/svg"
 width="668px" style="transform:scale(1,1.001);" height="375.75px" viewBox="0 0 320.000000 180.000000"
 preserveAspectRatio="xMidYMid meet">
<g transform="translate(0.000000,180.000000) scale(0.100000,-0.100000)"
fill="#000000" stroke="none">
<path d="M0 905 l0 -895 644 0 644 0 6 63 c6 51 2 78 -19 152 -14 50 -34 101 -43 115
-64 96 -69 181 -21 347 42 147 49 183 43 219 -5 26 -11 33 -39 37 -42 7 -104
-7 -148 -33 -27 -16 -49 -20 -89 -18 l-53 3 3 44 c3 55 11 65 62 80 46 14 50
28 20 83 -10 20 -22 60 -25 90 -9 67 -30 115 -55 123 -32 10 -50 57 -50 128 0
96 13 109 114 105 l80 -3 30 -56 c17 -31 37 -63 44 -71 13 -16 104 -30 205
-33 66 -2 72 -7 81 -73 4 -32 15 -56 36 -77 25 -26 32 -43 39 -106 6 -41 15
-88 22 -105 20 -51 17 -182 -7 -244 -29 -74 -36 -131 -40 -344 -2 -99 -6 -236
-8 -303 l-4 -123 864 0 864 0 0 895 0 895 -1600 0 -1600 0 0 -895z"/>
</g>
</svg>
