<svg version="1.0" xmlns="http://www.w3.org/2000/svg"
 width="668px" style="transform:scale(1,1.001);" height="375.75px" viewBox="0 0 320.000000 180.000000"
 preserveAspectRatio="xMidYMid meet">
<g transform="translate(0.000000,180.000000) scale(0.100000,-0.100000)"
fill="#000000" stroke="none">
<path d="M0 905 l0 -895 930 0 930 0 0 23 c0 12 -7 31 -15 41 -21 27 -18 100 5 166 11
30 31 89 46 130 14 41 38 91 54 111 15 19 49 75 74 125 37 71 46 99 46 139 0
49 -25 198 -36 216 -9 15 -61 10 -75 -7 -10 -13 -28 -15 -85 -12 -62 3 -75 7
-93 28 -27 32 -26 38 4 46 37 9 31 39 -15 84 -22 22 -40 46 -40 54 0 8 -2 20
-5 28 -2 7 3 24 13 36 18 23 20 23 54 9 20 -8 39 -24 43 -36 10 -32 74 -48
122 -30 54 21 57 56 8 105 -61 60 -72 126 -32 184 17 26 38 39 91 57 l69 23
50 -28 c52 -28 68 -55 82 -134 3 -22 17 -47 33 -62 15 -13 52 -47 82 -75 94
-85 121 -158 140 -390 12 -143 9 -173 -25 -241 -13 -25 -28 -66 -35 -90 -7
-25 -28 -79 -47 -120 -81 -174 -88 -200 -85 -317 l2 -63 455 0 455 0 0 895 0
895 -1600 0 -1600 0 0 -895z"/>
<path d="M2055 174 c-8 -20 -15 -65 -15 -100 l0 -64 50 0 c45 0 50 2 50 22 0 12 -7 29
-15 38 -9 9 -19 43 -23 75 -4 32 -12 60 -19 62 -7 3 -19 -12 -28 -33z"/>
</g>
</svg>
