<svg version="1.0" xmlns="http://www.w3.org/2000/svg"
 width="668px" style="transform:scale(1,1.001);" height="375.75px" viewBox="0 0 320.000000 180.000000"
 preserveAspectRatio="xMidYMid meet">
<g transform="translate(0.000000,180.000000) scale(0.100000,-0.100000)"
fill="#000000" stroke="none">
<path d="M0 905 l0 -895 654 0 655 0 -1 77 c-1 95 7 183 34 378 19 136 20 164 10 320
-11 175 -24 235 -48 235 -22 0 -27 -44 -20 -159 8 -120 0 -139 -50 -127 -38
10 -64 74 -64 162 0 83 30 254 60 345 22 65 76 159 92 159 16 0 96 81 101 103
3 12 11 48 17 80 10 51 16 61 51 84 51 34 116 29 160 -13 25 -24 29 -35 29
-83 0 -31 -4 -62 -9 -70 -11 -17 4 -51 42 -95 42 -48 52 -105 52 -287 0 -126
-3 -170 -14 -182 -19 -24 -35 -21 -51 8 -26 49 -33 15 -24 -119 16 -228 11
-290 -26 -381 -52 -130 -80 -216 -80 -252 0 -31 36 -103 60 -118 5 -3 10 -19
10 -36 l0 -29 780 0 780 0 0 895 0 895 -1600 0 -1600 0 0 -895z"/>
<path d="M1437 64 c-4 -4 -7 -18 -7 -31 0 -20 5 -23 40 -23 36 0 40 3 40 25 0 18 -5 25
-19 25 -11 0 -26 2 -33 5 -8 3 -17 2 -21 -1z"/>
</g>
</svg>
