<svg version="1.0" xmlns="http://www.w3.org/2000/svg"
 width="668px" style="transform:scale(1,1.001);" height="375.75px" viewBox="0 0 320.000000 180.000000"
 preserveAspectRatio="xMidYMid meet">
<g transform="translate(0.000000,180.000000) scale(0.100000,-0.100000)"
fill="#000000" stroke="none">
<path d="M0 905 l0 -895 705 0 c609 0 705 2 705 15 0 20 -18 108 -37 182 -23 91 -14
176 27 250 31 56 32 64 50 283 10 124 26 250 35 280 44 149 44 161 -10 349
-37 130 -46 232 -24 274 6 12 31 41 56 65 l45 42 103 0 c102 0 105 -1 135 -30
17 -16 35 -30 40 -30 5 0 23 -21 41 -47 44 -66 49 -121 16 -193 -47 -105 -51
-144 -16 -192 10 -15 19 -31 19 -36 0 -5 7 -15 16 -23 26 -22 80 -110 115
-189 41 -93 49 -189 25 -288 -34 -144 -46 -240 -46 -393 0 -148 -1 -159 -26
-205 -14 -27 -32 -54 -40 -60 -8 -6 -14 -21 -14 -33 l0 -21 640 0 640 0 0 895
0 895 -1600 0 -1600 0 0 -895z"/>
</g>
</svg>
