<svg version="1.0" xmlns="http://www.w3.org/2000/svg"
 width="668px" style="transform:scale(1,1.001);" height="375.75px" viewBox="0 0 320.000000 180.000000"
 preserveAspectRatio="xMidYMid meet">
<g transform="translate(0.000000,180.000000) scale(0.100000,-0.100000)"
fill="#000000" stroke="none">
<path d="M0 905 l0 -895 669 0 669 0 -2 128 c-1 99 -5 135 -19 162 -30 58 -59 242 -62
383 -1 100 1 127 12 127 7 0 13 4 13 9 0 14 -29 34 -42 28 -15 -5 -68 -100
-68 -121 0 -8 -11 -27 -24 -43 -21 -25 -25 -26 -41 -13 -26 22 -45 73 -45 124
0 41 6 52 71 128 39 46 88 100 109 120 21 20 51 60 67 89 29 54 91 113 146
139 31 15 32 16 37 98 5 69 9 86 25 95 62 37 139 29 185 -18 34 -36 34 -32 14
-161 -5 -38 -4 -42 23 -52 15 -6 43 -14 61 -17 18 -4 36 -15 42 -24 5 -10 24
-21 42 -25 17 -3 42 -15 53 -26 13 -12 46 -24 80 -30 57 -9 120 -46 132 -77
10 -26 -18 -122 -44 -153 -75 -90 -183 -77 -183 23 0 73 -14 96 -60 102 -3 0
-9 3 -15 6 -5 4 -28 10 -50 13 -54 9 -102 -12 -144 -64 -39 -49 -43 -87 -17
-163 9 -26 16 -70 16 -98 0 -27 7 -66 16 -87 25 -59 30 -219 9 -284 -22 -67
-21 -95 4 -164 12 -30 21 -77 21 -104 l0 -50 750 0 750 0 0 895 0 895 -1600 0
-1600 0 0 -895z"/>
<path d="M1440 639 c-14 -26 -8 -252 10 -395 12 -90 11 -107 -3 -152 -28 -83 -29 -82
68 -82 83 0 85 1 85 24 0 13 -10 30 -22 38 -22 15 -23 21 -25 193 -1 118 -5
180 -13 185 -6 4 -16 38 -21 76 -18 115 -52 164 -79 113z"/>
</g>
</svg>
