<svg version="1.0" xmlns="http://www.w3.org/2000/svg"
 width="668px" style="transform:scale(1,1.001);" height="375.75px" viewBox="0 0 320.000000 180.000000"
 preserveAspectRatio="xMidYMid meet">
<g transform="translate(0.000000,180.000000) scale(0.100000,-0.100000)"
fill="#000000" stroke="none">
<path d="M0 905 l0 -895 1600 0 1600 0 0 895 0 895 -1600 0 -1600 0 0 -895z m1688 777
c75 -36 118 -76 133 -120 16 -49 5 -164 -19 -205 -46 -76 -33 -160 32 -198 19
-11 37 -26 39 -34 3 -7 19 -16 36 -20 17 -4 36 -15 41 -25 5 -10 22 -23 37
-28 25 -9 60 -40 115 -99 37 -41 66 -157 67 -274 1 -37 10 -94 21 -129 13 -41
20 -90 20 -141 0 -70 -2 -80 -23 -93 -27 -18 -147 -21 -687 -17 -435 4 -444 5
-456 66 -8 44 3 196 17 233 6 15 15 54 20 87 6 33 16 69 23 80 7 11 17 36 21
55 12 61 80 148 165 211 25 19 54 42 65 52 11 9 39 33 63 53 53 46 55 76 8
147 -100 155 -112 213 -60 305 24 45 39 59 94 87 86 45 146 46 228 7z"/>
</g>
</svg>
