<svg version="1.0" xmlns="http://www.w3.org/2000/svg"
 width="668px" style="transform:scale(1,1.001);" height="375.75px" viewBox="0 0 320.000000 180.000000"
 preserveAspectRatio="xMidYMid meet">
<g transform="translate(0.000000,180.000000) scale(0.100000,-0.100000)"
fill="#000000" stroke="none">
<path d="M0 905 l0 -895 615 0 615 0 0 25 c0 15 -6 25 -15 25 -18 0 -59 64 -74 116 -7
21 -18 122 -26 224 -8 102 -21 213 -28 247 -18 82 -67 143 -128 160 -50 13
-99 58 -103 95 -1 13 -6 30 -10 37 -5 7 -12 59 -16 115 -5 55 -15 117 -23 136
-8 19 -20 81 -25 138 -6 61 -17 113 -26 127 -9 14 -16 33 -16 44 0 18 2 19 26
6 31 -16 78 -71 88 -102 6 -20 53 -59 61 -51 2 2 7 53 11 112 6 86 11 113 26
128 10 10 22 18 27 18 36 0 85 -217 76 -340 -8 -112 1 -144 43 -148 24 -2 39
4 66 30 35 33 35 33 25 88 -5 30 -11 111 -12 180 -2 118 -1 127 23 163 18 27
40 43 80 58 54 21 57 21 148 6 83 -14 98 -20 126 -49 54 -56 86 -121 86 -173
0 -54 -41 -137 -77 -156 -18 -9 -23 -21 -23 -48 1 -39 23 -61 108 -102 51 -24
127 -73 160 -103 30 -26 87 -113 97 -146 4 -14 16 -31 27 -38 10 -7 16 -17 13
-22 -3 -5 8 -18 25 -30 16 -12 30 -28 30 -35 0 -8 14 -22 30 -30 17 -9 35 -28
41 -42 16 -42 13 -163 -5 -223 -12 -40 -16 -89 -15 -185 1 -109 -1 -130 -14
-133 -24 -5 -84 55 -103 103 -9 25 -22 45 -28 45 -16 0 -54 -81 -62 -133 -4
-23 -13 -54 -20 -69 -8 -15 -14 -36 -14 -48 0 -20 1 -20 695 -20 l695 0 0 895
0 895 -1600 0 -1600 0 0 -895z"/>
</g>
</svg>
