<svg version="1.0" xmlns="http://www.w3.org/2000/svg"
 width="668px" style="transform:scale(1,1.001);" height="375.75px" viewBox="0 0 320.000000 180.000000"
 preserveAspectRatio="xMidYMid meet">
<g transform="translate(0.000000,180.000000) scale(0.100000,-0.100000)"
fill="#000000" stroke="none">
<path d="M0 905 l0 -895 630 0 631 0 -7 62 c-4 35 -15 76 -26 93 -41 67 -12 348 62 610
10 39 22 91 25 116 6 49 56 129 81 129 17 0 47 57 40 77 -10 26 13 91 41 112
41 33 103 28 147 -11 41 -36 45 -64 21 -123 -17 -40 -13 -69 16 -100 10 -11
27 -42 39 -68 18 -41 20 -63 18 -169 -3 -104 0 -129 16 -162 21 -45 42 -176
32 -202 -6 -16 -10 -15 -34 11 l-27 30 -3 -73 c-2 -39 -6 -72 -11 -72 -17 0
-50 91 -65 185 -15 93 -28 128 -38 108 -2 -4 -13 -34 -23 -65 -17 -51 -18 -64
-7 -110 7 -29 20 -126 30 -215 l16 -163 798 0 798 0 0 895 0 895 -1600 0
-1600 0 0 -895z"/>
<path d="M1450 132 c0 -13 -116 -72 -140 -72 -15 0 -20 -7 -20 -25 l0 -25 110 0 c100 0
110 2 110 18 0 35 -32 112 -46 112 -8 0 -14 -4 -14 -8z"/>
</g>
</svg>
