<svg version="1.0" xmlns="http://www.w3.org/2000/svg"
 width="668px" style="transform:scale(1,1.001);" height="375.75px" viewBox="0 0 320.000000 180.000000"
 preserveAspectRatio="xMidYMid meet">
<g transform="translate(0.000000,180.000000) scale(0.100000,-0.100000)"
fill="#000000" stroke="none">
<path d="M0 905 l0 -895 901 0 901 0 -7 58 c-7 64 6 110 49 166 13 17 39 62 59 100 20
38 60 95 88 126 73 82 84 107 64 152 -8 20 -19 39 -24 42 -10 6 -111 -71 -111
-85 0 -5 -7 -9 -14 -9 -8 0 -27 -11 -42 -25 -34 -32 -56 -33 -50 -3 15 71 16
101 6 113 -13 16 14 76 59 127 38 45 49 67 71 151 28 104 26 115 -25 170 -42
45 -45 52 -45 103 0 41 6 62 22 85 28 37 118 89 156 89 56 0 118 -68 140 -154
6 -21 17 -33 37 -39 49 -16 149 -107 199 -179 35 -52 54 -97 82 -190 42 -141
41 -170 -5 -244 -17 -28 -31 -61 -31 -72 0 -31 -38 -128 -56 -143 -9 -7 -20
-22 -25 -34 -14 -28 -30 -55 -59 -95 -21 -30 -26 -48 -28 -122 l-4 -88 446 0
446 0 0 895 0 895 -1600 0 -1600 0 0 -895z"/>
<path d="M2063 158 c-25 -12 -53 -74 -53 -118 l0 -30 65 0 c64 0 65 0 64 28 -1 36 -31
125 -44 128 -5 1 -20 -2 -32 -8z"/>
</g>
</svg>
