<svg version="1.0" xmlns="http://www.w3.org/2000/svg"
 width="668px" style="transform:scale(1,1.001);" height="375.75px" viewBox="0 0 320.000000 180.000000"
 preserveAspectRatio="xMidYMid meet">
<g transform="translate(0.000000,180.000000) scale(0.100000,-0.100000)"
fill="#000000" stroke="none">
<path d="M0 905 l0 -895 1600 0 1600 0 0 895 0 895 -1600 0 -1600 0 0 -895z m1579 745
c24 -11 49 -20 57 -20 25 0 93 -80 100 -117 9 -49 -13 -170 -38 -211 -24 -39
-20 -109 7 -125 9 -5 31 -21 48 -36 18 -16 42 -31 53 -35 12 -4 29 -15 39 -26
10 -11 26 -20 36 -20 51 0 189 -162 189 -222 0 -15 7 -47 14 -70 8 -24 20 -81
25 -127 6 -46 16 -90 22 -97 6 -8 14 -54 17 -103 7 -138 23 -131 -306 -131
-148 0 -317 -5 -376 -11 -82 -8 -139 -8 -234 2 -70 7 -138 12 -152 11 -14 0
-42 4 -62 9 -53 14 -66 58 -50 178 7 49 12 104 12 122 0 19 9 49 20 67 11 18
20 39 20 48 0 34 87 191 112 202 17 8 224 185 231 199 14 24 -2 82 -37 132
-46 65 -86 157 -86 198 0 43 19 79 63 121 80 78 188 102 276 62z"/>
</g>
</svg>
