<svg version="1.0" xmlns="http://www.w3.org/2000/svg"
 width="668px" style="transform:scale(1,1.001);" height="375.75px" viewBox="0 0 320.000000 180.000000"
 preserveAspectRatio="xMidYMid meet">
<g transform="translate(0.000000,180.000000) scale(0.100000,-0.100000)"
fill="#000000" stroke="none">
<path d="M0 905 l0 -895 653 0 652 0 1 113 c1 61 9 197 19 302 19 213 16 267 -19 305
-53 56 -80 206 -74 411 4 163 16 202 86 275 35 36 40 47 46 108 4 37 14 85 22
106 17 42 66 80 103 80 28 0 81 -27 103 -52 19 -22 33 -97 25 -129 -4 -13 2
-28 16 -42 35 -35 58 -89 59 -137 1 -25 -5 -117 -12 -206 -12 -142 -12 -182 3
-350 20 -216 17 -241 -39 -399 -60 -168 -68 -205 -54 -245 7 -19 21 -46 31
-59 11 -13 19 -37 19 -52 l0 -29 780 0 780 0 0 895 0 895 -1600 0 -1600 0 0
-895z"/>
<path d="M1505 583 c-4 -21 -15 -84 -26 -139 -10 -56 -19 -117 -18 -135 0 -33 1 -33 10
-9 38 92 72 301 51 314 -7 4 -13 -8 -17 -31z"/>
<path d="M1420 70 c-5 -10 -10 -28 -10 -39 0 -19 6 -21 65 -21 62 0 65 1 65 25 0 20 -7
26 -42 35 -24 6 -49 13 -55 15 -7 2 -17 -4 -23 -15z"/>
</g>
</svg>
