<svg version="1.0" xmlns="http://www.w3.org/2000/svg"
 width="668px" style="transform:scale(1,1.001);" height="375.75px" viewBox="0 0 320.000000 180.000000"
 preserveAspectRatio="xMidYMid meet">
<g transform="translate(0.000000,180.000000) scale(0.100000,-0.100000)"
fill="#000000" stroke="none">
<path d="M0 905 l0 -895 935 0 935 0 0 25 c0 13 -7 28 -16 33 -11 6 -18 27 -22 61 -4
50 17 127 74 259 8 18 14 38 14 43 0 6 15 32 34 58 18 25 41 60 50 76 9 17 30
48 46 70 36 50 38 110 7 205 -25 75 -39 82 -117 56 -27 -9 -80 -16 -118 -16
-60 0 -71 3 -92 25 -14 14 -40 28 -61 31 -51 8 -92 52 -83 88 3 14 11 26 18
26 15 -1 71 -52 79 -73 7 -18 34 -22 56 -8 7 5 11 14 7 19 -9 15 15 52 34 52
8 0 29 9 45 20 17 11 44 20 62 20 24 0 42 10 68 35 46 47 46 81 0 142 -30 40
-35 53 -35 101 0 53 2 57 47 99 46 42 50 43 113 43 61 0 66 -2 91 -33 27 -34
44 -73 54 -123 5 -24 20 -41 63 -70 150 -101 181 -180 209 -535 5 -62 3 -70
-36 -143 -23 -43 -41 -87 -41 -98 0 -10 -32 -85 -71 -165 l-71 -146 8 -71 c4
-39 7 -79 5 -88 -2 -17 25 -18 453 -18 l456 0 0 895 0 895 -1600 0 -1600 0 0
-895z"/>
<path d="M2056 178 c-11 -15 -16 -46 -16 -95 l0 -73 45 0 c51 0 57 14 30 66 -8 16 -15
40 -15 54 0 35 -11 70 -21 70 -4 0 -15 -10 -23 -22z"/>
</g>
</svg>
