<svg version="1.0" xmlns="http://www.w3.org/2000/svg"
 width="668px" style="transform:scale(1,1.001);" height="375.75px" viewBox="0 0 320.000000 180.000000"
 preserveAspectRatio="xMidYMid meet">
<g transform="translate(0.000000,180.000000) scale(0.100000,-0.100000)"
fill="#000000" stroke="none">
<path d="M0 905 l0 -895 1600 0 1600 0 0 895 0 895 -1600 0 -1600 0 0 -895z m1892 721
c24 -8 63 -20 88 -26 86 -23 172 -105 196 -189 26 -87 10 -145 -81 -295 -72
-119 -57 -190 50 -244 34 -18 68 -32 74 -32 7 0 25 -8 39 -19 15 -10 43 -26
62 -34 48 -22 99 -71 117 -115 8 -20 21 -44 28 -52 7 -8 17 -37 24 -63 6 -27
20 -65 31 -85 22 -40 26 -96 10 -137 l-10 -27 -694 4 c-551 4 -698 7 -710 17
-33 28 -12 129 55 266 44 89 128 177 189 196 19 6 42 18 51 25 8 8 31 19 50
25 61 20 134 61 153 87 30 39 27 135 -6 198 -14 27 -28 66 -32 87 -4 21 -18
54 -32 75 -23 32 -25 45 -22 104 3 62 6 68 43 105 130 126 224 163 327 129z"/>
</g>
</svg>
