<svg version="1.0" xmlns="http://www.w3.org/2000/svg"
 width="668px" style="transform:scale(1,1.001);" height="375.75px" viewBox="0 0 320.000000 180.000000"
 preserveAspectRatio="xMidYMid meet">
<g transform="translate(0.000000,180.000000) scale(0.100000,-0.100000)"
fill="#000000" stroke="none">
<path d="M0 905 l0 -895 625 0 625 0 0 23 c0 12 -7 31 -15 41 -21 28 -19 44 15 111 51
103 40 169 -44 279 -36 47 -86 145 -86 168 0 8 -6 22 -13 33 -31 45 -28 80 14
161 45 86 44 104 -7 172 -39 50 -74 196 -75 309 -1 106 9 127 91 179 38 25 57
30 129 33 71 3 87 0 110 -17 14 -10 36 -22 48 -26 28 -9 76 -70 91 -115 19
-54 14 -87 -24 -168 -34 -72 -35 -78 -18 -90 10 -7 23 -13 29 -13 7 0 20 -9
29 -19 9 -10 36 -22 60 -25 23 -4 64 -18 91 -31 26 -14 57 -25 67 -25 24 0
327 -304 344 -347 27 -64 14 -176 -34 -284 -17 -39 -18 -50 -7 -75 12 -30 55
-97 77 -124 8 -9 12 -40 12 -82 l-2 -68 534 0 534 0 0 895 0 895 -1600 0
-1600 0 0 -895z"/>
</g>
</svg>
