<svg version="1.0" xmlns="http://www.w3.org/2000/svg"
 width="668px" style="transform:scale(1,1.001);" height="375.75px" viewBox="0 0 320.000000 180.000000"
 preserveAspectRatio="xMidYMid meet">
<g transform="translate(0.000000,180.000000) scale(0.100000,-0.100000)"
fill="#000000" stroke="none">
<path d="M0 905 l0 -895 1600 0 1600 0 0 895 0 895 -781 0 -780 0 3 -27 c2 -23 12 -32
57 -49 29 -12 72 -40 95 -63 40 -40 41 -43 41 -109 0 -66 -30 -163 -62 -203
-7 -8 -13 -34 -13 -57 0 -36 4 -44 29 -57 17 -8 36 -23 43 -33 8 -11 31 -21
55 -24 63 -9 164 -92 202 -166 25 -49 59 -213 71 -336 10 -112 -1 -247 -24
-280 -71 -103 -85 -106 -495 -101 -377 6 -402 8 -465 43 -92 50 -91 50 -88
315 2 172 6 236 16 251 7 12 18 37 25 56 22 67 95 130 246 210 69 36 81 64 55
123 -11 26 -25 49 -30 52 -5 3 -17 32 -26 63 -9 31 -21 63 -26 70 -6 6 -10 41
-10 77 0 59 2 68 32 102 18 21 57 51 87 67 41 22 53 34 53 52 l0 24 -755 0
-755 0 0 -895z m1987 -775 c19 -59 -11 -70 -133 -49 l-63 11 52 39 c43 33 59
39 92 37 36 -3 41 -7 52 -38z m-622 -9 c42 -22 80 -27 90 -12 13 22 89 23 140
2 l50 -20 -137 -3 c-300 -6 -298 -6 -258 45 23 29 41 27 115 -12z"/>
</g>
</svg>
