<svg version="1.0" xmlns="http://www.w3.org/2000/svg"
 width="668px" style="transform:scale(1,1.001);" height="375.75px" viewBox="0 0 320.000000 180.000000"
 preserveAspectRatio="xMidYMid meet">
<g transform="translate(0.000000,180.000000) scale(0.100000,-0.100000)"
fill="#000000" stroke="none">
<path d="M0 905 l0 -895 1600 0 1600 0 0 895 0 895 -1600 0 -1600 0 0 -895z m1855 734
c33 -6 72 -21 87 -32 14 -12 38 -30 53 -40 14 -10 44 -41 65 -69 36 -45 40
-55 40 -107 0 -43 -7 -71 -25 -105 -14 -26 -25 -53 -25 -60 0 -6 -11 -27 -25
-46 -14 -19 -25 -41 -25 -49 0 -9 -9 -27 -20 -41 -13 -16 -20 -41 -20 -71 0
-63 45 -115 152 -171 138 -74 188 -133 243 -288 31 -87 36 -111 33 -162 -3
-43 -8 -54 -31 -72 -28 -21 -31 -21 -655 -17 -510 2 -631 6 -649 17 -18 11
-21 21 -18 61 5 83 25 177 43 203 9 14 26 45 38 70 23 49 44 70 119 121 57 38
160 89 181 89 26 0 94 50 114 83 11 18 20 48 20 68 0 40 -40 154 -99 282 -23
49 -41 101 -41 116 0 58 88 150 204 213 37 20 152 24 241 7z"/>
</g>
</svg>
