<svg version="1.0" xmlns="http://www.w3.org/2000/svg"
 width="668px" style="transform:scale(1,1.001);" height="375.75px" viewBox="0 0 320.000000 180.000000"
 preserveAspectRatio="xMidYMid meet">
<g transform="translate(0.000000,180.000000) scale(0.100000,-0.100000)"
fill="#000000" stroke="none">
<path d="M0 905 l0 -895 595 0 c592 0 595 0 595 20 0 12 -6 31 -14 43 -7 12 -16 59 -19
104 -7 93 -27 143 -58 143 -49 0 -116 -24 -142 -51 -15 -16 -32 -29 -36 -29
-4 0 -13 -24 -20 -53 -14 -64 -35 -97 -62 -97 -51 0 -129 70 -129 116 0 24 22
73 79 174 17 30 40 72 51 93 11 20 25 37 30 37 6 0 10 5 10 10 0 6 34 51 75
101 41 49 75 95 75 101 0 7 9 30 19 52 11 23 27 60 35 84 9 23 23 61 32 85 22
61 88 124 150 142 56 17 68 27 107 97 26 45 27 52 27 196 0 165 -2 159 79 245
34 36 37 37 109 37 81 0 89 -4 183 -90 34 -31 56 -62 70 -100 32 -85 33 -93 6
-152 -21 -45 -32 -57 -65 -70 -31 -12 -41 -22 -47 -47 -5 -26 -2 -37 22 -65
15 -18 40 -41 56 -50 15 -10 27 -23 27 -31 0 -8 8 -20 17 -27 32 -24 64 -78
88 -151 20 -59 26 -104 32 -242 14 -294 -15 -471 -89 -550 -15 -17 -28 -41
-28 -53 l0 -22 670 0 670 0 0 895 0 895 -1600 0 -1600 0 0 -895z"/>
</g>
</svg>
