<svg version="1.0" xmlns="http://www.w3.org/2000/svg"
 width="668px" style="transform:scale(1,1.001);" height="375.75px" viewBox="0 0 320.000000 180.000000"
 preserveAspectRatio="xMidYMid meet">
<g transform="translate(0.000000,180.000000) scale(0.100000,-0.100000)"
fill="#000000" stroke="none">
<path d="M0 905 l0 -895 653 0 653 0 27 278 c16 159 25 294 21 317 -4 22 -20 55 -35 73
-30 34 -32 40 -49 136 -30 174 12 482 70 523 11 8 20 20 20 27 0 8 17 21 39
29 21 9 41 24 44 34 4 10 12 26 19 35 10 14 9 20 -5 36 -29 32 -22 97 14 142
29 36 36 39 95 45 50 6 69 4 88 -9 30 -19 41 -77 28 -153 -11 -62 6 -106 48
-128 40 -21 62 -84 69 -200 11 -160 -34 -405 -75 -405 -7 0 -17 -7 -22 -16
-10 -17 -5 -48 28 -168 19 -69 21 -85 10 -120 -7 -23 -18 -48 -25 -56 -7 -8
-29 -49 -51 -90 -21 -41 -46 -86 -56 -99 -28 -37 -23 -92 12 -136 31 -38 34
-46 31 -77 -2 -17 41 -18 773 -18 l776 0 0 895 0 895 -1600 0 -1600 0 0 -895z"/>
<path d="M1650 945 c0 -25 4 -45 9 -45 12 0 21 41 14 68 -9 38 -23 24 -23 -23z"/>
<path d="M1520 547 c0 -75 3 -98 13 -95 31 11 33 133 2 174 -13 17 -14 9 -15 -79z"/>
<path d="M1453 73 c-7 -2 -13 -18 -13 -34 0 -29 0 -29 60 -29 57 0 60 1 60 24 0 20 -7
26 -32 31 -18 4 -40 8 -48 10 -8 2 -21 1 -27 -2z"/>
</g>
</svg>
