<svg version="1.0" xmlns="http://www.w3.org/2000/svg"
 width="668px" style="transform:scale(1,1.001);" height="375.75px" viewBox="0 0 320.000000 180.000000"
 preserveAspectRatio="xMidYMid meet">
<g transform="translate(0.000000,180.000000) scale(0.100000,-0.100000)"
fill="#000000" stroke="none">
<path d="M0 905 l0 -895 701 0 701 0 -4 178 -3 177 38 79 c40 86 52 147 61 316 4 58 10
123 16 145 14 57 12 139 -4 220 -37 189 -61 276 -92 341 -37 77 -42 123 -20
175 19 42 80 109 100 109 10 0 16 9 16 25 l0 25 -755 0 -755 0 0 -895z"/>
<path d="M1760 1776 c0 -15 12 -35 33 -53 79 -67 97 -142 62 -252 -18 -52 -18 -54 5
-100 12 -25 35 -65 51 -89 82 -122 124 -256 139 -447 6 -77 14 -170 17 -206 6
-76 -6 -125 -44 -169 -22 -26 -26 -43 -32 -138 -7 -99 -11 -113 -49 -187 -23
-44 -42 -90 -42 -102 l0 -23 650 0 650 0 0 895 0 895 -720 0 -720 0 0 -24z"/>
</g>
</svg>
