<svg version="1.0" xmlns="http://www.w3.org/2000/svg"
 width="668px" style="transform:scale(1,1.001);" height="375.75px" viewBox="0 0 320.000000 180.000000"
 preserveAspectRatio="xMidYMid meet">
<g transform="translate(0.000000,180.000000) scale(0.100000,-0.100000)"
fill="#000000" stroke="none">
<path d="M0 905 l0 -895 645 0 645 0 0 21 c0 12 -7 27 -16 34 -15 10 -14 17 10 68 32
67 31 70 -54 155 -66 66 -80 93 -80 154 0 57 17 101 66 178 77 120 94 156 94
204 0 34 -5 48 -19 56 -17 8 -26 1 -70 -53 -28 -34 -71 -85 -95 -113 -31 -36
-47 -67 -56 -105 -13 -57 -34 -99 -50 -99 -5 0 -16 13 -25 30 -12 23 -14 48
-9 115 4 47 11 85 15 85 5 0 9 9 9 20 0 11 9 28 19 37 23 19 19 33 -10 33 -21
0 -59 -53 -59 -82 0 -9 -5 -20 -10 -23 -18 -11 -12 102 6 117 8 7 29 25 45 41
16 15 34 27 40 27 20 0 84 60 134 124 32 42 61 69 82 76 17 6 39 23 48 37 16
24 16 30 1 87 -30 110 -30 113 -5 127 15 8 58 14 111 14 82 0 88 -2 116 -28
40 -39 46 -75 21 -132 -23 -53 -24 -51 53 -125 38 -36 93 -142 101 -195 3 -16
12 -55 21 -85 9 -30 18 -91 22 -135 3 -44 10 -103 15 -132 10 -50 2 -87 -21
-103 -4 -3 -16 -21 -27 -40 -13 -23 -28 -36 -45 -38 -31 -4 -35 -19 -44 -173
-6 -92 -10 -112 -26 -120 -10 -5 -18 -21 -18 -34 l0 -25 810 0 810 0 0 895 0
895 -1600 0 -1600 0 0 -895z"/>
<path d="M1400 528 c-23 -24 -48 -56 -57 -72 -14 -27 -13 -32 8 -70 48 -86 104 -156
126 -156 22 0 27 50 13 129 -7 42 -15 96 -17 121 -5 64 -12 90 -23 90 -5 0
-28 -19 -50 -42z"/>
<path d="M1445 70 c-11 -5 -41 -9 -67 -9 -44 -1 -48 -3 -48 -26 0 -25 0 -25 95 -25 90
0 95 1 95 21 0 22 -26 49 -45 48 -5 0 -19 -4 -30 -9z"/>
</g>
</svg>
