<svg version="1.0" xmlns="http://www.w3.org/2000/svg"
 width="668px" style="transform:scale(1,1.001);" height="375.75px" viewBox="0 0 320.000000 180.000000"
 preserveAspectRatio="xMidYMid meet">
<g transform="translate(0.000000,180.000000) scale(0.100000,-0.100000)"
fill="#000000" stroke="none">
<path d="M0 905 l0 -895 1600 0 1600 0 0 895 0 895 -1600 0 -1600 0 0 -895z m1595 716
c22 -11 44 -21 50 -21 18 0 99 -64 145 -114 l45 -49 0 -76 c0 -70 -3 -80 -37
-136 -21 -33 -38 -67 -38 -75 0 -8 -9 -32 -20 -53 -29 -54 -26 -95 10 -139 25
-31 45 -41 118 -64 196 -60 316 -118 388 -188 40 -39 89 -76 102 -76 5 0 17 9
26 19 16 18 16 22 2 50 -9 16 -16 40 -16 52 0 11 -12 35 -26 52 -22 27 -25 38
-21 80 2 26 9 53 14 58 18 18 91 22 138 9 62 -17 75 -39 75 -126 l0 -72 31 -6
c17 -3 46 -6 64 -6 28 0 33 -4 39 -31 8 -43 7 -314 -3 -369 -4 -27 -18 -56
-33 -73 -14 -15 -31 -42 -38 -60 -23 -64 -20 -62 -131 -65 -195 -7 -459 24
-459 53 0 3 9 14 21 26 28 28 20 41 -32 57 -84 26 -741 41 -1139 25 -288 -11
-316 -10 -337 10 -11 9 -34 22 -51 28 -38 13 -39 19 -47 209 -11 281 -28 376
-79 442 -32 43 -36 102 -7 118 30 15 85 12 133 -9 48 -21 72 -44 83 -81 4 -14
19 -37 32 -52 21 -22 27 -43 37 -127 11 -87 16 -105 39 -129 29 -31 47 -79 47
-128 0 -34 31 -74 58 -74 24 1 59 30 85 72 51 83 126 149 231 203 139 71 175
96 200 140 33 55 35 123 6 150 -11 10 -20 23 -20 30 0 6 -17 36 -38 66 -21 30
-46 74 -56 98 -9 24 -24 54 -32 65 -32 46 -6 103 93 197 62 59 119 97 168 110
48 13 137 3 180 -20z"/>
</g>
</svg>
