<svg version="1.0" xmlns="http://www.w3.org/2000/svg"
 width="668px" style="transform:scale(1,1.001);" height="375.75px" viewBox="0 0 320.000000 180.000000"
 preserveAspectRatio="xMidYMid meet">
<g transform="translate(0.000000,180.000000) scale(0.100000,-0.100000)"
fill="#000000" stroke="none">
<path d="M0 905 l0 -895 1600 0 1600 0 0 895 0 895 -1600 0 -1600 0 0 -895z m1709 702
c71 -42 80 -71 46 -144 -27 -56 -34 -136 -12 -150 6 -4 35 -13 62 -20 69 -16
147 -44 165 -59 26 -22 148 -82 182 -89 18 -4 42 -14 53 -21 11 -7 44 -16 74
-20 39 -5 61 -14 82 -35 17 -16 35 -29 42 -29 7 0 18 -9 25 -20 7 -11 19 -20
26 -20 20 0 29 -16 21 -40 -7 -22 -53 -28 -72 -9 -7 7 -27 7 -69 0 -96 -18
-222 -14 -272 9 -73 33 -114 10 -126 -70 -4 -25 -15 -63 -26 -85 -10 -22 -21
-51 -25 -65 -4 -14 -16 -36 -26 -49 -26 -33 -26 -134 1 -201 55 -140 2 -200
-158 -179 -43 5 -132 7 -203 3 l-127 -6 -17 26 c-13 19 -16 37 -11 68 9 61 17
347 10 373 -6 26 -42 45 -86 45 -16 0 -62 8 -100 17 -65 16 -75 16 -132 1 -55
-15 -63 -15 -78 -1 -23 21 -23 50 2 90 34 56 58 65 169 64 54 -1 106 2 115 5
22 8 51 62 65 121 10 39 21 57 56 86 24 20 55 42 69 48 14 7 28 20 31 31 4 10
11 18 16 18 22 0 20 34 -6 98 -15 37 -31 75 -36 84 -21 41 3 95 58 133 58 39
140 36 212 -8z"/>
</g>
</svg>
