<svg version="1.0" xmlns="http://www.w3.org/2000/svg"
 width="668px" style="transform:scale(1,1.001);" height="375.75px" viewBox="0 0 320.000000 180.000000"
 preserveAspectRatio="xMidYMid meet">
<g transform="translate(0.000000,180.000000) scale(0.100000,-0.100000)"
fill="#000000" stroke="none">
<path d="M0 905 l0 -895 655 0 655 0 0 23 c0 13 11 57 25 97 14 41 28 106 30 145 3 38
11 111 16 160 13 104 3 151 -52 258 -18 34 -38 74 -46 89 -22 42 -38 219 -25
266 52 178 51 179 -35 184 -53 3 -59 6 -80 37 -27 40 -31 112 -8 131 11 9 54
12 153 11 76 -1 145 1 154 4 21 8 42 68 33 95 -8 26 13 90 38 113 24 22 163
25 191 4 30 -22 35 -150 7 -212 -26 -60 -26 -63 4 -135 15 -36 29 -95 35 -152
5 -51 20 -144 31 -206 29 -148 22 -198 -34 -227 -38 -20 -38 -20 -53 0 -10 14
-13 35 -8 81 7 70 -5 115 -41 157 -28 31 -33 32 -70 13 -51 -27 -57 -62 -26
-148 38 -103 54 -183 54 -278 1 -92 0 -98 -41 -179 -50 -102 -57 -166 -19
-180 32 -13 50 -37 42 -60 -3 -10 -1 -22 5 -26 5 -3 10 -19 10 -36 l0 -29 800
0 800 0 0 895 0 895 -1600 0 -1600 0 0 -895z"/>
</g>
</svg>
