<svg version="1.0" xmlns="http://www.w3.org/2000/svg"
 width="668px" style="transform:scale(1,1.001);" height="375.75px" viewBox="0 0 320.000000 180.000000"
 preserveAspectRatio="xMidYMid meet">
<g transform="translate(0.000000,180.000000) scale(0.100000,-0.100000)"
fill="#000000" stroke="none">
<path d="M0 905 l0 -895 918 0 918 0 0 112 c0 98 4 126 31 211 17 54 50 128 72 165 75
125 84 183 56 375 -20 134 -31 143 -199 167 -38 6 -75 15 -83 21 -36 31 8 134
65 153 15 4 62 12 105 15 51 5 82 13 88 22 13 20 11 50 -6 79 -32 57 -46 96
-40 118 3 12 25 43 50 67 l44 45 79 0 80 0 35 -39 c44 -49 57 -90 56 -171 -2
-97 -1 -99 61 -175 83 -101 107 -153 149 -322 32 -125 30 -144 -27 -201 -41
-41 -50 -58 -64 -118 -20 -85 -53 -175 -100 -274 -30 -62 -37 -90 -41 -163
l-6 -87 479 0 480 0 0 895 0 895 -1600 0 -1600 0 0 -895z"/>
</g>
</svg>
