<svg version="1.0" xmlns="http://www.w3.org/2000/svg"
 width="668px" style="transform:scale(1,1.001);" height="375.75px" viewBox="0 0 320.000000 180.000000"
 preserveAspectRatio="xMidYMid meet">
<g transform="translate(0.000000,180.000000) scale(0.100000,-0.100000)"
fill="#000000" stroke="none">
<path d="M0 905 l0 -895 615 0 615 0 0 25 c0 16 -6 25 -15 25 -28 0 -35 50 -35 261 l0
209 -26 10 c-16 7 -64 7 -136 0 -91 -8 -118 -14 -147 -34 -20 -13 -55 -27 -78
-30 -23 -3 -58 -17 -77 -30 -19 -13 -63 -29 -98 -35 -35 -7 -85 -20 -113 -30
-70 -26 -166 -35 -209 -21 -38 12 -36 7 -70 155 -27 115 -19 145 35 145 18 0
50 -18 95 -56 64 -52 70 -55 108 -48 23 3 48 12 56 19 18 15 106 45 131 45 10
0 45 13 77 30 33 16 71 30 85 30 14 0 30 6 34 14 4 8 25 24 45 36 46 26 105
84 113 109 3 10 15 27 27 37 15 13 19 14 14 4 -4 -9 -1 -8 7 3 38 46 86 103
121 145 21 26 45 62 53 82 8 19 21 42 29 51 8 9 23 46 33 83 10 37 28 77 39
89 47 52 50 129 7 177 -60 67 -68 117 -30 189 22 44 108 63 185 41 58 -16 89
-66 97 -156 5 -67 10 -82 39 -118 18 -22 54 -70 80 -105 l47 -63 0 -104 c0
-90 -4 -110 -26 -156 -16 -32 -31 -89 -38 -143 -15 -101 -26 -124 -95 -197
-27 -28 -61 -74 -76 -102 -117 -225 -149 -344 -126 -472 7 -40 6 -42 -22 -54
-21 -9 -30 -19 -30 -36 l0 -24 930 0 930 0 0 895 0 895 -1600 0 -1600 0 0
-895z"/>
</g>
</svg>
