<svg version="1.0" xmlns="http://www.w3.org/2000/svg"
 width="668px" style="transform:scale(1,1.001);" height="375.75px" viewBox="0 0 320.000000 180.000000"
 preserveAspectRatio="xMidYMid meet">
<g transform="translate(0.000000,180.000000) scale(0.100000,-0.100000)"
fill="#000000" stroke="none">
<path d="M0 905 l0 -895 721 0 721 0 -6 32 c-3 18 -9 51 -12 73 -9 65 -13 72 -27 46
-16 -31 -121 -68 -143 -50 -18 15 -17 47 1 79 18 32 19 84 1 146 -8 27 -20 92
-27 144 -6 52 -15 100 -18 107 -4 8 -25 -5 -60 -38 -47 -44 -56 -48 -64 -34
-10 18 -7 45 17 180 32 182 37 217 46 341 8 100 15 135 34 173 30 60 29 115
-4 159 -39 53 -34 165 9 175 9 1 31 0 50 -4 18 -4 57 -5 86 -2 64 7 68 2 76
-95 3 -45 11 -77 19 -82 7 -5 34 -11 59 -15 82 -12 134 -92 156 -235 4 -25 19
-65 34 -90 32 -52 44 -94 36 -121 -8 -24 -27 -24 -49 0 -18 19 -65 18 -67 -3
0 -6 -2 -58 -3 -116 -2 -58 -8 -199 -15 -315 -6 -116 -13 -265 -15 -332 l-4
-123 824 0 824 0 0 895 0 895 -1600 0 -1600 0 0 -895z"/>
<path d="M1390 606 c-6 -16 -16 -61 -22 -100 -10 -63 -8 -84 11 -176 32 -151 35 -156
42 -65 3 44 10 116 14 161 9 90 1 162 -20 190 -13 18 -14 18 -25 -10z"/>
</g>
</svg>
