<svg version="1.0" xmlns="http://www.w3.org/2000/svg"
 width="668px" style="transform:scale(1,1.001);" height="375.75px" viewBox="0 0 320.000000 180.000000"
 preserveAspectRatio="xMidYMid meet">
<g transform="translate(0.000000,180.000000) scale(0.100000,-0.100000)"
fill="#000000" stroke="none">
<path d="M0 905 l0 -895 535 0 535 0 0 63 c0 35 6 110 14 168 8 57 20 212 25 344 14
317 29 479 48 540 21 66 58 130 88 149 13 8 28 31 34 49 10 29 8 42 -9 81 -29
68 -26 114 10 164 30 42 31 42 93 42 61 0 64 -1 101 -41 36 -40 38 -44 35
-103 -3 -74 8 -126 27 -126 19 0 98 -79 118 -119 11 -21 21 -77 27 -159 6 -73
20 -163 34 -212 50 -180 59 -247 46 -340 -10 -68 -9 -100 0 -150 14 -71 16
-203 4 -293 l-7 -57 721 0 721 0 0 895 0 895 -1600 0 -1600 0 0 -895z"/>
<path d="M1399 478 c-36 -49 -109 -162 -109 -170 0 -5 -14 -37 -30 -72 -33 -68 -60
-161 -60 -201 l0 -25 216 0 216 0 -6 63 c-10 92 -24 143 -67 233 -22 45 -39
84 -39 88 0 4 -12 32 -27 62 -32 65 -57 71 -94 22z"/>
</g>
</svg>
