<svg version="1.0" xmlns="http://www.w3.org/2000/svg"
 width="668px" style="transform:scale(1,1.001);" height="375.75px" viewBox="0 0 320.000000 180.000000"
 preserveAspectRatio="xMidYMid meet">
<g transform="translate(0.000000,180.000000) scale(0.100000,-0.100000)"
fill="#000000" stroke="none">
<path d="M0 905 l0 -895 1600 0 1600 0 0 895 0 895 -1600 0 -1600 0 0 -895z m1840 791
c18 -14 37 -26 44 -26 17 0 70 -58 91 -99 25 -49 4 -181 -39 -245 -13 -19 -20
-45 -20 -79 0 -43 4 -53 30 -73 16 -13 43 -35 59 -49 17 -14 45 -38 64 -53 61
-49 151 -135 151 -144 0 -5 8 -28 19 -51 11 -26 21 -79 26 -140 4 -53 13 -121
21 -150 7 -28 14 -98 14 -153 0 -152 8 -147 -221 -145 -101 1 -305 7 -454 13
-148 6 -317 12 -374 13 -100 2 -105 3 -128 29 -27 31 -30 78 -9 146 7 25 17
77 21 115 4 39 13 84 20 100 8 17 19 49 25 72 19 76 58 147 110 206 28 31 58
57 66 57 7 0 26 14 41 30 14 17 33 30 41 30 25 0 162 116 162 137 0 9 -17 50
-39 92 -68 134 -74 151 -74 196 0 36 6 52 38 90 21 26 45 49 54 52 9 3 30 16
46 28 44 32 54 35 122 31 49 -3 69 -9 93 -30z"/>
</g>
</svg>
