<svg version="1.0" xmlns="http://www.w3.org/2000/svg"
 width="668px" style="transform:scale(1,1.001);" height="375.75px" viewBox="0 0 320.000000 180.000000"
 preserveAspectRatio="xMidYMid meet">
<g transform="translate(0.000000,180.000000) scale(0.100000,-0.100000)"
fill="#000000" stroke="none">
<path d="M0 905 l0 -895 670 0 670 0 0 114 c0 89 -5 128 -21 178 -19 57 -21 91 -25 352
-2 159 -7 293 -11 297 -5 5 -27 3 -50 -3 -50 -12 -115 -72 -164 -152 -37 -60
-57 -68 -89 -36 -44 44 -17 97 111 222 45 43 85 78 90 78 5 0 45 36 91 79 56
54 104 91 155 116 l73 37 0 48 c0 56 22 115 49 130 11 5 42 10 69 10 45 0 51
-3 80 -39 35 -44 41 -85 17 -117 -18 -24 -19 -68 -2 -83 8 -6 29 -14 48 -17
19 -4 47 -18 62 -31 16 -12 37 -23 46 -23 10 0 31 -10 46 -22 22 -17 47 -23
114 -28 119 -9 131 -17 131 -86 0 -100 -52 -164 -134 -164 -40 0 -70 31 -80
83 -8 44 -38 59 -122 65 l-71 4 -50 -43 c-66 -58 -77 -87 -58 -159 17 -69 48
-156 69 -195 9 -16 16 -37 16 -46 0 -9 6 -22 14 -28 20 -17 31 -113 18 -159
-6 -20 -22 -68 -36 -107 -31 -85 -32 -101 -5 -144 17 -27 19 -43 14 -82 l-7
-49 736 0 736 0 0 895 0 895 -1600 0 -1600 0 0 -895z"/>
<path d="M1466 615 c-16 -12 -18 -34 -22 -242 -2 -125 -6 -258 -9 -295 l-6 -68 100 0
c94 0 101 1 101 20 0 10 -11 30 -25 44 l-25 25 7 173 6 174 -48 92 c-26 50
-51 92 -54 92 -3 0 -14 -7 -25 -15z"/>
</g>
</svg>
