<svg version="1.0" xmlns="http://www.w3.org/2000/svg"
 width="668px" style="transform:scale(1,1.001);" height="375.75px" viewBox="0 0 320.000000 180.000000"
 preserveAspectRatio="xMidYMid meet">
<g transform="translate(0.000000,180.000000) scale(0.100000,-0.100000)"
fill="#000000" stroke="none">
<path d="M0 905 l0 -895 1600 0 1600 0 0 895 0 895 -1600 0 -1600 0 0 -895z m1617 741
c98 -25 134 -49 167 -113 24 -48 20 -97 -19 -209 -28 -80 -33 -107 -25 -125
15 -37 42 -64 89 -90 117 -65 102 -54 183 -131 55 -54 97 -137 104 -210 4 -29
15 -82 25 -117 10 -35 19 -85 19 -113 0 -27 5 -69 11 -94 14 -54 -1 -120 -29
-128 -28 -9 -1065 -11 -1090 -3 -32 12 -52 58 -52 120 0 67 43 281 64 322 9
17 16 36 16 43 0 48 92 148 239 262 39 30 78 61 86 68 17 15 20 63 6 78 -5 5
-34 55 -65 112 -78 143 -76 183 12 273 30 31 119 76 152 78 8 0 56 -10 107
-23z"/>
</g>
</svg>
