<svg version="1.0" xmlns="http://www.w3.org/2000/svg"
 width="668px" style="transform:scale(1,1.001);" height="375.75px" viewBox="0 0 320.000000 180.000000"
 preserveAspectRatio="xMidYMid meet">
<g transform="translate(0.000000,180.000000) scale(0.100000,-0.100000)"
fill="#000000" stroke="none">
<path d="M0 905 l0 -895 610 0 610 0 0 23 c0 13 -7 39 -16 57 -11 21 -18 67 -21 129 -6
149 -1 142 -116 171 -37 10 -56 10 -92 0 -64 -18 -121 -8 -154 27 -49 51 -74
112 -79 195 -7 123 3 177 43 221 l34 37 108 0 c111 0 133 7 133 40 0 54 88
154 146 165 66 12 115 124 114 260 -2 139 31 217 116 275 60 40 130 42 178 5
18 -14 38 -25 43 -25 23 0 77 -69 109 -137 50 -105 44 -181 -16 -221 -19 -13
-41 -37 -48 -53 -12 -29 -11 -33 24 -72 21 -23 41 -44 44 -47 18 -13 61 -94
71 -132 29 -118 29 -132 -2 -278 -12 -58 -5 -215 10 -234 17 -22 41 -111 41
-151 0 -28 -14 -71 -40 -129 -66 -142 -149 -126 655 -126 l695 0 0 895 0 895
-1600 0 -1600 0 0 -895z"/>
</g>
</svg>
