<svg version="1.0" xmlns="http://www.w3.org/2000/svg"
 width="668px" style="transform:scale(1,1.001);" height="375.75px" viewBox="0 0 320.000000 180.000000"
 preserveAspectRatio="xMidYMid meet">
<g transform="translate(0.000000,180.000000) scale(0.100000,-0.100000)"
fill="#000000" stroke="none">
<path d="M0 905 l0 -895 725 0 725 0 0 24 c0 13 -7 26 -15 30 -10 3 -13 15 -10 36 3 16
7 44 10 60 3 22 -1 36 -15 50 -11 11 -19 23 -17 28 3 11 -84 19 -118 10 -39
-10 -115 -10 -115 0 0 4 4 12 10 18 5 5 14 51 20 103 6 51 17 106 25 122 12
22 14 50 9 126 -9 147 9 285 46 345 17 27 30 55 30 64 0 21 -29 74 -40 74 -6
0 -16 11 -22 25 -6 14 -17 25 -24 25 -7 0 -16 10 -20 23 -4 12 -22 41 -41 64
-40 48 -63 116 -63 183 0 55 47 140 78 140 11 0 32 10 48 23 24 18 41 22 105
22 66 0 81 -3 101 -22 14 -13 29 -23 35 -23 31 0 65 -89 78 -204 8 -72 44
-123 92 -132 17 -3 46 -17 64 -30 18 -13 38 -24 45 -24 27 0 174 -133 174
-157 0 -7 9 -39 19 -70 11 -32 22 -80 26 -108 4 -27 13 -62 21 -77 8 -15 14
-36 14 -47 0 -11 9 -35 20 -53 11 -18 20 -39 20 -46 0 -7 8 -32 19 -55 38 -87
46 -231 15 -297 -17 -36 -44 -183 -44 -239 0 -8 155 -11 585 -11 l585 0 0 895
0 895 -1600 0 -1600 0 0 -895z"/>
</g>
</svg>
