<svg version="1.0" xmlns="http://www.w3.org/2000/svg"
 width="668px" style="transform:scale(1,1.001);" height="375.75px" viewBox="0 0 320.000000 180.000000"
 preserveAspectRatio="xMidYMid meet">
<g transform="translate(0.000000,180.000000) scale(0.100000,-0.100000)"
fill="#000000" stroke="none">
<path d="M0 905 l0 -895 550 0 550 0 0 39 c0 95 21 453 31 516 5 38 23 108 38 155 60
179 66 208 52 253 -24 82 -31 133 -25 177 13 98 55 212 86 232 7 4 22 8 34 8
24 0 84 59 84 82 0 8 -7 33 -16 54 -20 48 -14 122 12 141 27 20 154 17 180 -5
37 -32 46 -77 28 -149 -18 -73 -13 -108 19 -124 43 -22 76 -62 97 -118 12 -31
31 -78 41 -104 15 -37 19 -67 17 -129 l-3 -82 -31 -7 c-46 -9 -123 -48 -133
-68 -6 -9 -5 -35 0 -61 5 -25 14 -85 19 -135 11 -98 22 -150 51 -235 32 -96
52 -221 52 -332 l1 -108 733 0 733 0 0 895 0 895 -1600 0 -1600 0 0 -895z"/>
<path d="M1388 658 c-15 -12 -32 -39 -100 -163 -12 -22 -32 -92 -45 -155 -38 -189 -53
-263 -59 -297 l-7 -33 232 0 c178 0 231 3 231 13 -1 73 -25 203 -50 279 -35
102 -159 360 -175 365 -6 2 -18 -2 -27 -9z"/>
</g>
</svg>
