<svg version="1.0" xmlns="http://www.w3.org/2000/svg"
 width="668px" style="transform:scale(1,1.001);" height="375.75px" viewBox="0 0 320.000000 180.000000"
 preserveAspectRatio="xMidYMid meet">
<g transform="translate(0.000000,180.000000) scale(0.100000,-0.100000)"
fill="#000000" stroke="none">
<path d="M0 905 l0 -895 920 0 c918 0 920 0 920 20 0 12 -11 42 -24 68 -13 26 -38 87
-56 137 -18 50 -48 120 -66 156 -19 36 -45 94 -58 130 -13 35 -38 91 -55 125
-20 39 -35 88 -41 135 -5 41 -17 99 -26 129 -31 109 -34 126 -34 225 0 77 5
110 20 143 10 23 23 42 29 42 15 0 86 71 114 115 14 22 31 60 37 85 6 25 23
64 36 87 19 34 30 42 57 45 93 9 170 -31 207 -107 29 -59 18 -103 -36 -156
-24 -24 -44 -48 -44 -54 0 -6 18 -32 39 -58 38 -46 85 -167 116 -297 11 -47 0
-150 -24 -238 -17 -60 -5 -98 60 -187 42 -59 55 -83 108 -197 39 -83 41 -93
41 -182 0 -71 -4 -98 -15 -110 -8 -8 -15 -24 -15 -35 0 -21 1 -21 495 -21
l495 0 0 895 0 895 -1600 0 -1600 0 0 -895z"/>
<path d="M2010 35 c0 -22 4 -25 40 -25 36 0 40 3 40 25 0 23 -4 25 -40 25 -36 0 -40 -2
-40 -25z"/>
</g>
</svg>
