<svg version="1.0" xmlns="http://www.w3.org/2000/svg"
 width="668px" style="transform:scale(1,1.001);" height="375.75px" viewBox="0 0 320.000000 180.000000"
 preserveAspectRatio="xMidYMid meet">
<g transform="translate(0.000000,180.000000) scale(0.100000,-0.100000)"
fill="#000000" stroke="none">
<path d="M0 905 l0 -895 765 0 c860 0 785 -8 744 77 -23 47 -28 125 -19 325 l5 117 -28
29 c-21 22 -32 48 -42 103 -8 41 -23 99 -34 129 -32 87 -24 123 87 365 49 106
90 178 103 183 28 11 -4 133 -44 165 -7 7 -22 33 -31 59 -22 61 -9 117 40 166
19 19 34 43 34 53 0 19 -21 19 -790 19 l-790 0 0 -895z"/>
<path d="M1760 1777 c0 -13 16 -39 39 -61 47 -46 58 -94 36 -156 -29 -83 -8 -142 60
-166 22 -7 42 -19 44 -25 2 -7 14 -22 26 -33 23 -22 41 -58 68 -136 11 -29 21
-116 28 -245 15 -254 14 -290 -11 -325 -11 -15 -20 -32 -20 -38 0 -5 -7 -15
-15 -22 -12 -10 -15 -36 -15 -112 0 -84 -5 -119 -32 -207 -37 -126 -63 -191
-78 -191 -5 0 -10 -11 -10 -25 l0 -25 660 0 660 0 0 895 0 895 -720 0 -720 0
0 -23z"/>
</g>
</svg>
