<svg version="1.0" xmlns="http://www.w3.org/2000/svg"
 width="668px" style="transform:scale(1,1.001);" height="375.75px" viewBox="0 0 320.000000 180.000000"
 preserveAspectRatio="xMidYMid meet">
<g transform="translate(0.000000,180.000000) scale(0.100000,-0.100000)"
fill="#000000" stroke="none">
<path d="M0 905 l0 -895 560 0 560 0 0 49 c0 27 7 68 16 92 24 67 13 132 -41 254 -17
39 -31 370 -16 379 6 4 14 21 20 39 5 18 12 39 15 48 5 11 -9 36 -41 74 -43
54 -48 65 -51 119 -5 86 19 186 71 296 25 52 61 129 80 170 19 41 54 106 76
145 23 38 41 82 41 97 l0 28 -645 0 -645 0 0 -895z"/>
<path d="M1600 1776 c0 -20 12 -28 82 -57 108 -44 143 -80 190 -196 65 -156 87 -273 90
-463 1 -91 -1 -175 -6 -187 -10 -31 -67 -41 -102 -19 -23 16 -24 21 -17 64 22
135 -3 341 -44 356 -23 9 -29 -1 -42 -62 -15 -73 -14 -190 4 -297 29 -176 14
-427 -41 -680 -14 -66 -28 -144 -31 -172 l-5 -53 761 0 761 0 0 895 0 895
-800 0 -800 0 0 -24z"/>
<path d="M1211 1211 c-32 -32 -49 -64 -55 -106 -7 -44 4 -71 27 -62 25 9 68 95 70 139
2 48 -13 58 -42 29z"/>
<path d="M1391 821 c-26 -27 -54 -58 -62 -68 -8 -11 -29 -39 -46 -63 -42 -55 -42 -83 3
-204 32 -88 35 -101 26 -144 -6 -26 -10 -70 -9 -99 1 -40 -6 -64 -28 -105 -16
-29 -35 -59 -42 -66 -7 -7 -13 -24 -13 -38 l0 -24 190 0 c187 0 190 0 190 21
0 12 -11 30 -25 41 -30 23 -32 55 -11 173 22 126 30 319 16 408 -19 128 -70
217 -123 217 -10 0 -40 -22 -66 -49z"/>
</g>
</svg>
