<svg version="1.0" xmlns="http://www.w3.org/2000/svg"
 width="668px" style="transform:scale(1,1.001);" height="375.75px" viewBox="0 0 320.000000 180.000000"
 preserveAspectRatio="xMidYMid meet">
<g transform="translate(0.000000,180.000000) scale(0.100000,-0.100000)"
fill="#000000" stroke="none">
<path d="M0 905 l0 -895 1600 0 1600 0 0 895 0 895 -1600 0 -1600 0 0 -895z m1308 775
c23 -10 58 -22 76 -26 24 -4 52 -24 92 -64 31 -32 61 -65 66 -75 25 -44 5
-242 -31 -313 -12 -23 -21 -59 -21 -81 0 -57 52 -104 132 -121 33 -7 69 -21
81 -30 12 -9 46 -20 76 -23 55 -7 94 -27 179 -97 23 -19 42 -38 42 -42 0 -5
14 -27 30 -50 17 -22 30 -48 30 -57 0 -9 9 -35 20 -56 11 -22 28 -67 36 -100
9 -32 22 -71 30 -87 22 -42 18 -111 -7 -134 -20 -18 -43 -19 -503 -19 -514 0
-868 -17 -919 -42 -23 -12 -28 -19 -23 -39 6 -21 3 -24 -24 -24 -34 0 -34 0
-19 32 8 19 6 34 -10 72 -13 29 -21 69 -21 104 0 68 38 188 75 236 14 18 25
36 25 39 0 6 68 73 122 121 33 29 119 85 141 92 37 11 77 55 77 86 0 28 -54
122 -84 147 -9 7 -16 18 -16 23 0 6 -25 38 -55 73 -43 48 -57 73 -64 111 -11
56 3 142 24 150 7 3 19 18 25 34 14 34 131 127 169 136 14 4 51 15 81 25 70
24 114 23 168 -1z"/>
</g>
</svg>
