<svg version="1.0" xmlns="http://www.w3.org/2000/svg"
 width="668px" style="transform:scale(1,1.001);" height="375.75px" viewBox="0 0 320.000000 180.000000"
 preserveAspectRatio="xMidYMid meet">
<g transform="translate(0.000000,180.000000) scale(0.100000,-0.100000)"
fill="#000000" stroke="none">
<path d="M0 905 l0 -895 1600 0 1600 0 0 895 0 895 -1600 0 -1600 0 0 -895z m1844 729
c94 -19 160 -56 211 -119 89 -108 87 -200 -8 -338 -56 -83 -74 -144 -58 -195
15 -44 52 -71 153 -112 149 -61 192 -99 236 -210 24 -60 62 -217 62 -254 0
-44 -21 -84 -50 -96 -36 -15 -1311 -5 -1341 10 -23 13 -38 67 -28 100 30 94
42 127 50 140 5 8 19 35 31 60 53 113 177 213 323 260 54 18 111 55 131 85 20
31 14 107 -11 135 -9 10 -19 38 -21 62 -3 24 -14 61 -24 83 -45 94 -70 159
-70 178 0 31 35 76 108 137 66 56 132 86 191 89 19 0 70 -6 115 -15z"/>
</g>
</svg>
