<svg version="1.0" xmlns="http://www.w3.org/2000/svg"
 width="668px" style="transform:scale(1,1.001);" height="375.75px" viewBox="0 0 320.000000 180.000000"
 preserveAspectRatio="xMidYMid meet">
<g transform="translate(0.000000,180.000000) scale(0.100000,-0.100000)"
fill="#000000" stroke="none">
<path d="M0 905 l0 -895 669 0 669 0 6 63 c3 34 8 81 11 104 6 33 0 59 -25 129 -30 81
-33 98 -32 199 1 82 7 128 23 180 55 182 61 211 61 294 -1 46 -5 88 -10 93 -9
9 -76 -22 -107 -52 -12 -11 -38 -23 -58 -27 -47 -7 -124 29 -139 66 -11 30 -5
98 11 114 6 6 45 14 86 18 53 5 83 14 101 28 15 12 35 21 46 21 10 0 39 19 63
41 49 45 59 85 30 126 -16 22 -23 102 -11 122 22 34 156 70 156 41 0 -5 11
-10 24 -10 13 0 35 -9 50 -21 28 -22 34 -65 17 -126 -11 -39 -1 -50 58 -59 29
-5 47 -14 58 -30 8 -13 20 -24 27 -24 6 -1 28 -20 49 -45 45 -53 57 -111 34
-168 -15 -36 -18 -37 -66 -37 -27 0 -53 -5 -57 -11 -14 -23 -33 -289 -34 -464
0 -99 -5 -216 -11 -260 -10 -78 -9 -82 19 -150 27 -63 28 -71 14 -82 -26 -21
-88 -16 -112 9 -24 26 -27 38 -34 133 -16 203 -40 319 -72 346 -12 10 -19 9
-36 -9 -32 -31 -36 -145 -10 -242 41 -154 46 -197 28 -225 -10 -14 -24 -29
-32 -32 -8 -3 -14 -16 -14 -29 l0 -24 875 0 875 0 0 895 0 895 -1600 0 -1600
0 0 -895z"/>
</g>
</svg>
