<svg version="1.0" xmlns="http://www.w3.org/2000/svg"
 width="668px" style="transform:scale(1,1.001);" height="375.75px" viewBox="0 0 320.000000 180.000000"
 preserveAspectRatio="xMidYMid meet">
<g transform="translate(0.000000,180.000000) scale(0.100000,-0.100000)"
fill="#000000" stroke="none">
<path d="M0 905 l0 -895 744 0 744 0 7 64 c10 89 -7 108 -55 66 -27 -23 -25 -23 -52 -9
-18 10 -19 17 -13 69 6 51 4 61 -14 79 -12 12 -27 21 -34 21 -7 0 -22 15 -32
33 -18 28 -20 50 -20 187 1 237 14 366 39 399 12 14 27 40 35 56 40 93 59 121
95 139 40 20 76 68 76 102 0 12 9 33 21 48 17 21 29 26 68 26 39 0 52 -5 73
-27 30 -31 35 -58 24 -124 -7 -41 -5 -50 23 -91 17 -25 31 -52 31 -60 0 -43
36 -109 94 -172 66 -70 79 -100 67 -159 -8 -38 -24 -44 -40 -15 -9 17 -10 18
-5 3 12 -42 14 -81 3 -107 -16 -39 -25 -35 -33 13 -3 22 -18 58 -31 79 -14 22
-25 44 -25 49 0 6 -8 15 -18 20 -10 5 -35 41 -56 80 -42 76 -52 79 -94 27 -27
-35 -48 -211 -36 -308 4 -40 8 -166 7 -280 l-2 -208 804 0 805 0 0 895 0 895
-1600 0 -1600 0 0 -895z"/>
</g>
</svg>
