<svg version="1.0" xmlns="http://www.w3.org/2000/svg"
 width="668px" style="transform:scale(1,1.001);" height="375.75px" viewBox="0 0 320.000000 180.000000"
 preserveAspectRatio="xMidYMid meet">
<g transform="translate(0.000000,180.000000) scale(0.100000,-0.100000)"
fill="#000000" stroke="none">
<path d="M0 905 l0 -895 650 0 650 0 0 29 c0 15 14 54 31 86 27 50 30 65 25 109 -16
138 -27 548 -17 670 8 105 7 135 -4 163 -8 18 -16 33 -20 33 -3 0 -22 -9 -42
-20 -20 -10 -56 -22 -79 -26 -29 -4 -48 -14 -58 -29 -9 -14 -30 -25 -53 -29
-21 -4 -47 -10 -58 -12 -14 -3 -33 5 -55 25 -32 27 -35 35 -35 84 0 84 8 88
141 86 l113 -3 60 57 c33 31 66 57 75 57 8 0 26 16 40 36 19 29 23 42 15 61
-16 43 -11 128 9 146 23 21 96 31 137 19 37 -10 52 -40 64 -128 7 -46 16 -72
27 -79 110 -66 198 -197 231 -345 26 -115 26 -132 -1 -163 -23 -28 -24 -29
-55 -13 -17 9 -31 23 -31 30 0 8 -7 27 -15 42 -8 16 -15 37 -15 46 0 27 -11
48 -26 48 -16 0 -20 -55 -5 -64 5 -4 12 -29 16 -58 4 -29 11 -59 16 -68 4 -8
18 -60 31 -115 29 -128 30 -254 2 -305 -16 -29 -19 -55 -19 -158 0 -105 -3
-125 -17 -133 -22 -12 -38 -4 -67 33 -35 43 -42 105 -29 235 14 132 3 193 -56
311 -26 53 -50 55 -72 4 -14 -31 -18 -86 -22 -349 l-4 -313 861 0 861 0 0 895
0 895 -1600 0 -1600 0 0 -895z"/>
</g>
</svg>
