<svg version="1.0" xmlns="http://www.w3.org/2000/svg"
 width="668px" style="transform:scale(1,1.001);" height="375.75px" viewBox="0 0 320.000000 180.000000"
 preserveAspectRatio="xMidYMid meet">
<g transform="translate(0.000000,180.000000) scale(0.100000,-0.100000)"
fill="#000000" stroke="none">
<path d="M0 905 l0 -895 1600 0 1600 0 0 895 0 895 -1600 0 -1600 0 0 -895z m1655 750
c53 -19 117 -72 141 -117 22 -42 17 -88 -22 -189 -45 -118 -45 -142 4 -185 20
-18 46 -36 57 -40 32 -10 145 -95 189 -141 42 -46 86 -156 86 -218 0 -18 9
-61 19 -96 11 -35 23 -98 26 -139 4 -41 11 -86 16 -98 11 -29 -5 -94 -26 -112
-11 -9 -112 -14 -388 -18 -540 -7 -712 -1 -741 27 -15 16 -20 172 -7 241 26
144 64 253 110 321 28 42 98 111 157 154 59 44 104 88 123 120 l20 35 -64 125
c-65 127 -74 160 -54 211 12 32 75 89 133 121 50 27 142 26 221 -2z"/>
</g>
</svg>
