<svg version="1.0" xmlns="http://www.w3.org/2000/svg"
 width="668px" style="transform:scale(1,1.001);" height="375.75px" viewBox="0 0 320.000000 180.000000"
 preserveAspectRatio="xMidYMid meet">
<g transform="translate(0.000000,180.000000) scale(0.100000,-0.100000)"
fill="#000000" stroke="none">
<path d="M0 905 l0 -895 1600 0 1600 0 0 895 0 895 -1600 0 -1600 0 0 -895z m1622 768
c76 -41 137 -117 138 -173 0 -32 -33 -146 -54 -185 -9 -16 -16 -36 -16 -44 0
-24 40 -80 63 -87 12 -4 35 -17 50 -30 16 -13 34 -24 42 -24 7 0 18 -7 26 -16
7 -8 30 -24 50 -35 21 -10 60 -41 87 -69 55 -56 83 -128 97 -245 4 -33 13 -75
21 -93 7 -19 16 -64 20 -100 3 -37 13 -90 21 -119 18 -60 12 -112 -16 -138
-18 -15 -59 -17 -413 -22 -216 -3 -458 -1 -537 4 -139 9 -145 10 -167 37 -22
25 -24 36 -24 134 0 59 5 125 11 147 6 22 17 65 24 95 7 30 20 69 29 85 9 17
16 35 16 41 0 25 113 155 190 219 44 37 85 75 90 85 25 47 -1 129 -72 225 -63
85 -62 180 1 240 37 35 97 78 122 88 8 3 44 6 81 6 56 1 77 -4 120 -26z"/>
</g>
</svg>
