<svg version="1.0" xmlns="http://www.w3.org/2000/svg"
 width="668px" style="transform:scale(1,1.001);" height="375.75px" viewBox="0 0 320.000000 180.000000"
 preserveAspectRatio="xMidYMid meet">
<g transform="translate(0.000000,180.000000) scale(0.100000,-0.100000)"
fill="#000000" stroke="none">
<path d="M0 905 l0 -895 635 0 635 0 0 23 c0 13 11 46 25 73 34 66 32 100 -11 175 -19
34 -40 85 -46 113 -14 67 -3 243 22 349 24 97 25 146 6 173 -14 19 -15 19 -38
-2 -13 -12 -33 -25 -45 -29 -13 -3 -37 -26 -53 -51 -36 -51 -76 -67 -97 -39
-27 38 -3 128 40 144 42 16 141 126 160 178 19 51 41 81 72 99 18 10 20 21 17
101 l-4 90 33 27 c27 23 39 26 82 24 46 -3 54 -7 74 -37 18 -26 23 -48 23 -97
0 -57 2 -64 31 -88 17 -14 36 -26 42 -26 7 0 35 -20 63 -44 94 -83 151 -253
92 -275 -26 -9 -64 -1 -101 23 -20 14 -27 15 -33 4 -11 -16 -7 -252 6 -373 15
-138 12 -200 -9 -248 -29 -64 -31 -83 -14 -142 20 -71 14 -85 -37 -85 -33 0
-48 6 -72 30 -34 34 -34 35 -6 207 10 61 9 82 -6 144 -33 138 -65 165 -91 77
-22 -76 -19 -123 19 -256 28 -97 33 -126 26 -158 -5 -21 -16 -44 -24 -50 -9
-6 -16 -21 -16 -33 l0 -21 900 0 900 0 0 895 0 895 -1600 0 -1600 0 0 -895z"/>
</g>
</svg>
