<svg version="1.0" xmlns="http://www.w3.org/2000/svg"
 width="668px" style="transform:scale(1,1.001);" height="375.75px" viewBox="0 0 320.000000 180.000000"
 preserveAspectRatio="xMidYMid meet">
<g transform="translate(0.000000,180.000000) scale(0.100000,-0.100000)"
fill="#000000" stroke="none">
<path d="M0 905 l0 -895 1600 0 1600 0 0 895 0 895 -1600 0 -1600 0 0 -895z m1540 763
c19 -10 43 -18 54 -18 24 0 82 -62 101 -107 12 -28 12 -43 -1 -105 -8 -40 -24
-91 -35 -114 -10 -22 -19 -50 -19 -63 0 -35 27 -78 54 -85 13 -3 37 -17 53
-30 15 -13 43 -27 61 -31 18 -3 37 -15 42 -26 6 -10 20 -19 32 -19 27 0 136
-112 144 -148 3 -15 14 -54 24 -87 10 -33 22 -87 28 -120 5 -33 14 -73 20 -90
6 -16 15 -55 21 -85 6 -30 16 -73 22 -95 15 -50 5 -111 -20 -125 -11 -5 -165
-12 -357 -16 -430 -8 -410 -8 -596 7 l-158 12 -19 32 c-31 53 -33 85 -11 193
11 57 20 112 20 123 0 11 9 37 20 59 11 22 20 50 20 62 0 37 53 104 175 225
151 149 150 132 26 364 -29 56 -33 71 -29 120 4 54 7 60 54 103 27 25 53 45
58 46 5 0 18 7 28 17 38 35 124 35 188 1z"/>
</g>
</svg>
