<svg version="1.0" xmlns="http://www.w3.org/2000/svg"
 width="668px" style="transform:scale(1,1.001);" height="375.75px" viewBox="0 0 320.000000 180.000000"
 preserveAspectRatio="xMidYMid meet">
<g transform="translate(0.000000,180.000000) scale(0.100000,-0.100000)"
fill="#000000" stroke="none">
<path d="M0 905 l0 -895 670 0 670 0 0 93 c0 50 -4 97 -8 103 -4 6 -28 20 -54 32 -79
34 -79 34 -73 308 5 263 11 329 30 359 6 11 24 55 39 98 38 109 45 123 94 197
25 36 55 69 71 76 15 6 40 23 54 38 14 14 35 26 45 26 49 0 66 68 32 130 -43
79 -60 116 -60 136 0 37 22 88 51 119 16 17 29 41 29 53 l0 22 -795 0 -795 0
0 -895z"/>
<path d="M1800 1776 c0 -13 7 -29 16 -37 21 -17 64 -103 64 -128 0 -11 -10 -44 -23 -73
-38 -85 -40 -102 -16 -147 16 -32 29 -43 59 -51 21 -6 45 -21 54 -35 9 -14 23
-25 31 -25 30 0 115 -167 115 -228 0 -10 5 -23 10 -28 18 -18 31 -179 21 -244
-10 -64 -23 -88 -86 -165 -59 -71 -83 -137 -95 -252 -8 -90 -30 -241 -46 -321
l-6 -32 651 0 651 0 0 895 0 895 -700 0 -700 0 0 -24z"/>
</g>
</svg>
