<svg version="1.0" xmlns="http://www.w3.org/2000/svg"
 width="668px" style="transform:scale(1,1.001);" height="375.75px" viewBox="0 0 320.000000 180.000000"
 preserveAspectRatio="xMidYMid meet">
<g transform="translate(0.000000,180.000000) scale(0.100000,-0.100000)"
fill="#000000" stroke="none">
<path d="M0 905 l0 -895 610 0 610 0 0 22 c0 26 -14 73 -45 148 -17 40 -25 86 -30 169
-4 70 -14 135 -26 170 -11 31 -29 87 -41 124 -17 54 -28 71 -50 83 -15 8 -28
21 -28 29 0 8 -3 15 -7 16 -66 7 -89 16 -119 46 -14 14 -31 22 -40 19 -8 -3
-13 -2 -10 3 3 4 -13 18 -35 30 -22 13 -47 34 -55 47 -9 13 -23 24 -31 24 -8
0 -24 11 -35 25 -11 14 -26 25 -33 25 -17 0 -98 82 -140 141 -16 23 -34 48
-40 55 -5 7 -7 16 -3 19 10 11 90 -13 112 -34 28 -26 90 -20 82 8 -10 38 -17
134 -11 161 9 41 26 38 62 -12 17 -24 71 -85 120 -137 l90 -93 84 4 c67 3 96
10 144 34 54 26 60 33 63 63 2 19 -1 53 -7 75 -5 23 -13 88 -16 146 l-7 105
33 49 c27 40 43 52 79 63 180 52 370 -60 370 -220 0 -41 -38 -114 -80 -152
-55 -50 -9 -101 176 -196 91 -47 184 -121 184 -147 0 -7 16 -28 35 -48 19 -19
35 -38 35 -42 0 -4 25 -27 54 -52 30 -24 65 -63 77 -85 13 -22 28 -45 34 -52
15 -14 31 -97 45 -223 12 -105 24 -153 45 -170 7 -6 21 -42 30 -81 14 -55 15
-76 6 -95 -6 -14 -11 -34 -11 -44 0 -20 10 -20 460 -20 l460 0 0 895 0 895
-1600 0 -1600 0 0 -895z"/>
<path d="M1913 509 c-8 -8 -10 -35 -6 -78 4 -50 0 -83 -15 -136 -12 -40 -23 -116 -26
-177 l-6 -108 125 0 125 0 0 25 c0 15 -9 31 -24 40 -30 20 -34 30 -46 117 -6
38 -19 90 -31 115 -11 25 -23 71 -26 102 -8 97 -35 135 -70 100z"/>
</g>
</svg>
