<svg version="1.0" xmlns="http://www.w3.org/2000/svg"
 width="668px" style="transform:scale(1,1.001);" height="375.75px" viewBox="0 0 320.000000 180.000000"
 preserveAspectRatio="xMidYMid meet">
<g transform="translate(0.000000,180.000000) scale(0.100000,-0.100000)"
fill="#000000" stroke="none">
<path d="M0 905 l0 -895 1600 0 1600 0 0 895 0 895 -1600 0 -1600 0 0 -895z m1597 735
c21 -11 42 -20 48 -20 17 0 65 -61 82 -101 11 -29 12 -46 4 -76 -6 -21 -11
-49 -11 -63 0 -14 -9 -43 -20 -65 -11 -22 -20 -58 -20 -82 0 -34 5 -45 26 -60
15 -10 36 -28 48 -40 12 -12 34 -25 49 -28 15 -4 32 -15 37 -25 5 -10 21 -21
35 -24 67 -17 185 -150 185 -209 0 -13 7 -44 16 -68 9 -24 20 -80 24 -125 4
-45 15 -95 24 -112 18 -35 22 -186 6 -212 -19 -30 -1038 -34 -1138 -4 -7 2
-20 20 -28 40 -13 32 -13 49 2 167 10 81 24 145 35 167 11 19 19 41 19 48 0
28 60 139 92 170 69 66 175 156 210 178 59 37 56 102 -7 179 -19 24 -35 48
-35 54 0 6 -12 34 -26 62 -48 91 -20 167 86 235 25 16 56 32 70 36 43 12 146
0 187 -22z"/>
</g>
</svg>
