<svg version="1.0" xmlns="http://www.w3.org/2000/svg"
 width="668px" style="transform:scale(1,1.001);" height="375.75px" viewBox="0 0 320.000000 180.000000"
 preserveAspectRatio="xMidYMid meet">
<g transform="translate(0.000000,180.000000) scale(0.100000,-0.100000)"
fill="#000000" stroke="none">
<path d="M0 905 l0 -895 605 0 606 0 -6 62 c-4 35 -13 106 -21 158 -16 105 -39 337 -57
561 -9 109 -16 151 -30 170 -9 13 -27 39 -40 56 -12 18 -36 38 -54 44 -36 12
-53 51 -53 122 0 50 27 142 45 157 8 7 15 16 15 21 0 4 11 25 25 45 14 20 25
45 25 54 0 30 -27 71 -59 91 -25 15 -31 25 -31 55 0 55 29 88 97 107 107 30
130 29 167 -4 32 -27 35 -36 41 -105 8 -81 18 -94 74 -94 16 0 32 -4 35 -9 3
-4 47 -12 98 -16 51 -4 107 -13 124 -20 74 -31 84 -205 12 -205 -11 0 -38 -14
-61 -32 -24 -19 -56 -34 -81 -38 -40 -5 -41 -6 -44 -45 -3 -43 11 -115 54
-265 35 -126 44 -318 20 -470 -28 -185 -29 -221 -12 -270 9 -25 16 -64 16 -87
l0 -43 845 0 845 0 0 895 0 895 -1600 0 -1600 0 0 -895z"/>
<path d="M1323 598 c-4 -7 -8 -142 -9 -301 l0 -287 21 0 c21 0 22 4 22 117 1 65 4 180
8 257 9 167 -10 263 -42 214z"/>
</g>
</svg>
