<svg version="1.0" xmlns="http://www.w3.org/2000/svg"
 width="668px" style="transform:scale(1,1.001);" height="375.75px" viewBox="0 0 320.000000 180.000000"
 preserveAspectRatio="xMidYMid meet">
<g transform="translate(0.000000,180.000000) scale(0.100000,-0.100000)"
fill="#000000" stroke="none">
<path d="M0 905 l0 -895 1600 0 1600 0 0 895 0 895 -1600 0 -1600 0 0 -895z m1336 699
c90 -34 138 -70 185 -141 45 -68 49 -110 19 -181 -29 -70 -51 -215 -39 -252
12 -33 90 -90 123 -90 32 0 173 -48 244 -84 34 -17 78 -47 97 -66 49 -51 105
-139 111 -174 3 -17 17 -58 31 -91 34 -77 43 -184 18 -205 -14 -11 -125 -14
-668 -15 -359 -1 -680 -5 -713 -9 -55 -8 -64 -6 -83 13 -33 33 -29 114 10 204
35 79 73 133 134 187 22 19 49 44 60 55 26 27 118 85 134 85 16 0 71 60 71 78
0 19 -46 105 -67 124 -10 9 -31 35 -48 58 -16 22 -55 68 -85 101 -88 96 -86
139 14 255 75 88 134 127 215 143 31 6 63 16 71 21 27 17 96 11 166 -16z"/>
</g>
</svg>
