<svg version="1.0" xmlns="http://www.w3.org/2000/svg"
 width="668px" style="transform:scale(1,1.001);" height="375.75px" viewBox="0 0 320.000000 180.000000"
 preserveAspectRatio="xMidYMid meet">
<g transform="translate(0.000000,180.000000) scale(0.100000,-0.100000)"
fill="#000000" stroke="none">
<path d="M0 905 l0 -895 1600 0 1600 0 0 895 0 895 -1600 0 -1600 0 0 -895z m1847 655
c73 -12 126 -44 200 -122 38 -41 52 -65 58 -96 9 -55 -2 -117 -31 -172 -13
-25 -24 -50 -24 -56 0 -6 -7 -17 -16 -25 -19 -16 -64 -103 -64 -124 0 -9 9
-33 20 -55 14 -28 29 -42 57 -51 21 -6 49 -20 62 -30 13 -11 29 -19 36 -19 20
0 128 -60 158 -89 38 -34 97 -123 97 -145 0 -9 9 -42 20 -73 30 -86 27 -128
-13 -168 l-33 -33 -609 5 c-336 3 -626 9 -646 14 -20 5 -44 18 -54 29 -17 19
-18 27 -7 78 6 31 15 89 18 128 6 66 10 75 44 110 58 59 72 71 110 88 19 9 64
34 100 55 36 22 79 43 95 46 45 10 98 50 119 89 19 35 19 36 -4 95 -12 33 -28
65 -35 71 -8 6 -17 26 -21 43 -3 18 -17 52 -30 77 -17 31 -24 61 -24 99 0 54
1 55 60 110 142 132 189 148 357 121z"/>
</g>
</svg>
