<svg version="1.0" xmlns="http://www.w3.org/2000/svg"
 width="668px" style="transform:scale(1,1.001);" height="375.75px" viewBox="0 0 320.000000 180.000000"
 preserveAspectRatio="xMidYMid meet">
<g transform="translate(0.000000,180.000000) scale(0.100000,-0.100000)"
fill="#000000" stroke="none">
<path d="M0 905 l0 -895 1600 0 1600 0 0 895 0 895 -1600 0 -1600 0 0 -895z m1776 796
c15 -11 35 -21 46 -21 28 0 87 -65 104 -114 14 -39 13 -52 -1 -120 -8 -42 -24
-93 -35 -114 -31 -57 -26 -95 18 -144 20 -23 60 -56 87 -73 148 -95 218 -179
229 -275 4 -30 13 -89 21 -130 12 -68 29 -197 42 -320 3 -35 0 -51 -14 -69
l-18 -22 -415 0 c-396 1 -649 7 -697 17 -38 8 -56 58 -50 140 3 40 10 81 16
91 5 11 13 55 17 99 4 48 14 92 25 112 11 18 19 38 19 44 0 6 13 39 29 73 37
78 101 143 214 219 98 66 137 106 137 141 0 26 -26 90 -47 115 -40 50 -66 117
-66 174 0 58 0 59 49 102 27 24 69 58 94 75 41 28 50 30 107 26 42 -3 70 -11
89 -26z"/>
</g>
</svg>
