<svg version="1.0" xmlns="http://www.w3.org/2000/svg"
 width="668px" style="transform:scale(1,1.001);" height="375.75px" viewBox="0 0 320.000000 180.000000"
 preserveAspectRatio="xMidYMid meet">
<g transform="translate(0.000000,180.000000) scale(0.100000,-0.100000)"
fill="#000000" stroke="none">
<path d="M0 905 l0 -895 509 0 509 0 5 48 c3 26 10 76 16 112 5 36 15 108 20 160 14
125 58 270 109 356 23 39 42 73 42 77 0 3 14 28 30 54 17 26 30 57 30 68 0 23
-41 75 -59 75 -16 0 -61 77 -61 104 0 73 142 276 193 276 29 0 83 40 137 103
38 42 46 47 84 47 33 0 51 -7 79 -31 48 -41 54 -76 26 -151 -20 -54 -21 -65
-10 -102 26 -90 52 -214 53 -258 1 -35 -5 -56 -24 -85 -43 -64 -43 -80 9 -184
25 -52 52 -114 59 -139 7 -25 22 -70 34 -100 12 -30 26 -73 30 -95 5 -22 13
-53 19 -68 6 -16 11 -39 11 -53 0 -14 11 -51 25 -84 14 -33 25 -75 25 -95 l0
-35 650 0 650 0 0 895 0 895 -1600 0 -1600 0 0 -895z"/>
<path d="M1385 605 c-16 -14 -45 -38 -63 -53 -18 -15 -52 -56 -77 -92 -36 -52 -48 -80
-59 -140 -27 -142 -38 -195 -52 -235 -28 -81 -55 -75 326 -75 317 0 340 1 340
18 0 9 -16 60 -36 112 -19 52 -41 113 -49 135 -35 105 -103 211 -208 323 -38
40 -79 42 -122 7z"/>
</g>
</svg>
