<svg version="1.0" xmlns="http://www.w3.org/2000/svg"
 width="668px" style="transform:scale(1,1.001);" height="375.75px" viewBox="0 0 320.000000 180.000000"
 preserveAspectRatio="xMidYMid meet">
<g transform="translate(0.000000,180.000000) scale(0.100000,-0.100000)"
fill="#000000" stroke="none">
<path d="M0 905 l0 -895 900 0 899 0 -2 68 c-2 63 1 74 32 123 19 30 53 86 75 124 23
39 65 93 94 120 30 28 65 69 79 93 25 42 25 45 13 105 -8 34 -21 81 -31 105
-17 38 -21 42 -55 42 -20 0 -49 -8 -65 -17 -27 -16 -29 -16 -48 1 -42 38 -31
123 25 195 47 60 44 91 -13 153 -36 38 -42 106 -15 150 35 56 79 82 147 86 96
5 145 -41 145 -136 0 -34 28 -71 71 -92 102 -53 180 -166 255 -373 56 -153 56
-175 4 -234 -22 -25 -40 -55 -40 -67 -1 -33 -33 -97 -84 -164 -63 -83 -76
-118 -76 -207 l0 -75 445 0 445 0 0 895 0 895 -1600 0 -1600 0 0 -895z"/>
<path d="M2035 125 c-15 -19 -29 -52 -32 -75 l-6 -40 73 0 72 0 -5 27 c-21 105 -28 123
-52 123 -16 0 -33 -12 -50 -35z"/>
</g>
</svg>
