<svg version="1.0" xmlns="http://www.w3.org/2000/svg"
 width="668px" style="transform:scale(1,1.001);" height="375.75px" viewBox="0 0 320.000000 180.000000"
 preserveAspectRatio="xMidYMid meet">
<g transform="translate(0.000000,180.000000) scale(0.100000,-0.100000)"
fill="#000000" stroke="none">
<path d="M0 905 l0 -895 630 0 630 0 0 24 c0 13 -7 26 -15 29 -33 13 -78 111 -115 252
-10 39 -32 111 -50 160 -29 81 -33 102 -34 205 l-1 115 43 65 c55 85 57 113
15 194 -19 38 -27 74 -34 155 -5 58 -12 114 -15 123 -16 52 38 136 120 186 47
28 174 32 200 7 8 -9 30 -22 48 -30 64 -26 118 -109 118 -180 0 -40 -23 -97
-57 -142 -27 -35 -25 -59 4 -70 10 -3 29 -15 42 -25 13 -10 34 -18 46 -18 12
0 47 -13 78 -30 31 -17 70 -30 85 -30 17 0 45 -12 67 -30 21 -16 44 -30 51
-30 7 0 18 -9 24 -20 6 -11 22 -25 35 -32 14 -8 46 -32 72 -55 27 -23 73 -62
104 -88 94 -76 88 -129 -31 -259 -82 -89 -89 -104 -115 -261 -4 -22 -18 -72
-31 -111 -13 -39 -24 -78 -24 -87 0 -16 49 -17 655 -17 l655 0 0 895 0 895
-1600 0 -1600 0 0 -895z"/>
</g>
</svg>
