<svg version="1.0" xmlns="http://www.w3.org/2000/svg"
 width="668px" style="transform:scale(1,1.001);" height="375.75px" viewBox="0 0 320.000000 180.000000"
 preserveAspectRatio="xMidYMid meet">
<g transform="translate(0.000000,180.000000) scale(0.100000,-0.100000)"
fill="#000000" stroke="none">
<path d="M0 905 l0 -895 610 0 610 0 0 30 c0 18 12 47 30 72 38 53 38 84 -2 139 -88
120 -83 108 -83 194 1 74 4 86 45 165 109 212 116 236 85 290 -8 14 -15 34
-15 45 0 11 -11 33 -25 49 -19 24 -33 30 -79 34 -80 6 -100 -2 -140 -58 -42
-59 -74 -71 -121 -45 -58 30 -92 153 -60 214 23 46 50 55 121 40 73 -15 84
-15 159 1 33 7 70 14 82 16 30 5 37 36 22 93 -13 53 -8 88 18 120 22 27 88 37
123 19 32 -17 70 -92 70 -139 0 -30 6 -41 34 -63 19 -14 56 -30 82 -36 27 -6
81 -22 121 -36 81 -29 104 -51 223 -206 26 -34 59 -132 60 -176 0 -38 -15 -47
-66 -38 -32 7 -38 13 -69 79 -40 88 -107 167 -140 167 -30 0 -32 -7 -40 -170
-4 -74 -13 -162 -22 -195 -22 -86 -21 -249 1 -300 10 -23 20 -77 23 -125 5
-72 3 -88 -11 -99 -13 -11 -24 -12 -44 -5 -23 8 -32 23 -55 94 -16 46 -41 100
-56 120 -43 54 -51 74 -51 132 0 58 -17 101 -41 106 -21 4 -69 -86 -69 -131 0
-23 15 -65 41 -113 68 -130 85 -199 54 -224 -8 -7 -15 -23 -15 -36 l0 -24 895
0 895 0 0 895 0 895 -1600 0 -1600 0 0 -895z"/>
</g>
</svg>
