<svg version="1.0" xmlns="http://www.w3.org/2000/svg"
 width="668px" style="transform:scale(1,1.001);" height="375.75px" viewBox="0 0 320.000000 180.000000"
 preserveAspectRatio="xMidYMid meet">
<g transform="translate(0.000000,180.000000) scale(0.100000,-0.100000)"
fill="#000000" stroke="none">
<path d="M0 905 l0 -895 920 0 920 0 0 25 c0 20 -5 25 -25 25 -17 0 -29 9 -40 30 -8 16
-15 34 -15 40 0 12 -73 171 -125 271 -45 86 -121 317 -130 394 -4 33 -18 107
-32 165 -21 88 -24 121 -20 200 6 111 25 163 67 185 16 8 33 21 37 28 4 7 20
20 34 29 34 22 67 89 80 165 6 33 19 75 30 92 18 30 22 31 84 31 58 0 68 -3
101 -32 57 -50 94 -107 94 -143 0 -34 -41 -95 -83 -124 -44 -30 -44 -54 2
-106 15 -17 35 -60 45 -95 10 -36 27 -91 38 -123 27 -79 26 -211 -2 -292 -11
-32 -20 -67 -20 -77 0 -22 34 -104 93 -225 67 -138 87 -198 87 -265 0 -62 -9
-88 -43 -125 -18 -20 -30 -23 -99 -23 -77 0 -78 0 -78 -25 l0 -25 640 0 640 0
0 895 0 895 -1600 0 -1600 0 0 -895z"/>
</g>
</svg>
