<svg version="1.0" xmlns="http://www.w3.org/2000/svg"
 width="668px" style="transform:scale(1,1.001);" height="375.75px" viewBox="0 0 320.000000 180.000000"
 preserveAspectRatio="xMidYMid meet">
<g transform="translate(0.000000,180.000000) scale(0.100000,-0.100000)"
fill="#000000" stroke="none">
<path d="M0 905 l0 -895 1600 0 1600 0 0 895 0 895 -1600 0 -1600 0 0 -895z m1585 756
c70 -22 139 -51 156 -67 11 -10 29 -22 42 -28 37 -19 87 -113 87 -165 0 -41
-40 -183 -62 -221 -60 -104 -56 -151 19 -218 26 -23 59 -45 73 -49 14 -3 41
-14 60 -23 19 -10 55 -23 80 -30 28 -7 67 -31 105 -63 88 -77 112 -106 136
-170 18 -49 21 -71 16 -145 -7 -110 -20 -146 -63 -173 -34 -21 -38 -21 -192
-9 -113 9 -278 11 -592 5 -378 -6 -441 -5 -472 8 -65 27 -72 72 -37 224 21 90
23 94 83 154 33 34 75 68 92 75 17 7 36 20 44 28 7 9 18 16 25 16 7 0 29 14
50 30 21 17 44 30 51 30 27 0 64 65 64 112 0 38 -10 60 -75 161 -41 65 -75
121 -75 126 0 5 -11 22 -24 38 -60 72 -44 140 56 236 40 38 83 76 95 84 54 36
193 54 258 34z"/>
</g>
</svg>
