<svg version="1.0" xmlns="http://www.w3.org/2000/svg"
 width="668px" style="transform:scale(1,1.001);" height="375.75px" viewBox="0 0 320.000000 180.000000"
 preserveAspectRatio="xMidYMid meet">
<g transform="translate(0.000000,180.000000) scale(0.100000,-0.100000)"
fill="#000000" stroke="none">
<path d="M0 905 l0 -895 930 0 c929 0 930 0 930 20 0 12 -7 31 -15 44 -28 42 -18 168
16 218 11 14 19 30 19 36 0 24 61 135 115 210 101 139 109 165 81 245 -29 80
-65 95 -128 52 -20 -14 -45 -25 -55 -25 -10 0 -43 -9 -73 -20 -65 -24 -107
-25 -130 -5 -9 9 -53 22 -96 30 -91 17 -114 36 -114 96 0 28 5 41 19 49 31 16
81 12 116 -10 18 -11 52 -23 76 -26 36 -5 50 -1 80 19 20 13 53 30 73 37 20 6
36 15 36 20 0 4 13 13 30 20 35 15 80 86 80 128 0 22 -9 38 -31 57 -36 30 -69
88 -69 122 0 43 44 96 105 127 100 50 163 20 212 -99 28 -66 31 -71 74 -84 68
-21 121 -62 155 -118 31 -52 31 -51 75 -365 12 -85 6 -117 -41 -203 -16 -27
-31 -61 -34 -75 -4 -14 -40 -92 -81 -175 -71 -145 -74 -153 -79 -237 l-5 -88
464 0 465 0 0 895 0 895 -1600 0 -1600 0 0 -895z"/>
<path d="M2056 173 c-3 -3 -6 -20 -6 -37 -1 -17 -7 -42 -15 -56 -8 -14 -14 -35 -15 -47
0 -21 5 -23 50 -23 45 0 50 2 50 23 0 12 -9 36 -20 52 -11 17 -20 42 -20 57 0
27 -12 43 -24 31z"/>
</g>
</svg>
