<svg version="1.0" xmlns="http://www.w3.org/2000/svg"
 width="668px" style="transform:scale(1,1.001);" height="375.75px" viewBox="0 0 320.000000 180.000000"
 preserveAspectRatio="xMidYMid meet">
<g transform="translate(0.000000,180.000000) scale(0.100000,-0.100000)"
fill="#000000" stroke="none">
<path d="M0 905 l0 -895 1600 0 1600 0 0 895 0 895 -1600 0 -1600 0 0 -895z m1707 693
c32 -23 51 -47 63 -78 l18 -45 110 0 111 0 35 -34 c45 -43 62 -91 44 -120 -15
-25 -37 -26 -107 -5 -49 14 -54 14 -84 -3 -27 -16 -32 -26 -35 -62 -2 -24 3
-78 12 -120 8 -42 18 -119 21 -171 4 -52 13 -130 21 -173 l16 -78 -36 -52
c-28 -41 -36 -62 -36 -97 0 -55 -23 -147 -49 -198 -17 -33 -26 -40 -71 -50
-63 -15 -224 -16 -251 -2 -26 14 -24 48 6 150 32 105 32 153 1 211 -34 64 -33
188 4 374 28 141 22 240 -22 373 -33 101 -18 156 57 204 44 28 113 18 172 -24z
m-267 -783 c0 -19 -33 -27 -100 -23 -70 4 -79 25 -13 31 106 8 113 7 113 -8z"/>
</g>
</svg>
