<svg version="1.0" xmlns="http://www.w3.org/2000/svg"
 width="668px" style="transform:scale(1,1.001);" height="375.75px" viewBox="0 0 320.000000 180.000000"
 preserveAspectRatio="xMidYMid meet">
<g transform="translate(0.000000,180.000000) scale(0.100000,-0.100000)"
fill="#000000" stroke="none">
<path d="M0 905 l0 -895 514 0 513 0 6 56 c4 42 24 93 86 216 77 152 81 164 81 227 0
36 6 76 13 88 40 71 77 148 77 162 0 9 8 24 18 32 9 9 28 30 42 48 14 17 32
31 41 31 21 0 39 42 49 115 8 50 14 64 42 88 44 37 124 38 195 2 68 -33 79
-58 64 -135 l-12 -60 40 -57 c37 -51 41 -62 41 -116 0 -32 -6 -73 -14 -90 -21
-51 -38 -118 -43 -175 -5 -49 -2 -59 30 -105 19 -29 53 -86 76 -128 35 -66 41
-85 41 -138 l0 -61 650 0 650 0 0 895 0 895 -1600 0 -1600 0 0 -895z"/>
<path d="M1456 228 c-3 -18 -7 -75 -10 -125 l-6 -93 150 0 c146 0 150 1 150 21 0 26
-68 116 -95 125 -11 4 -31 18 -45 32 -14 14 -39 31 -57 38 -17 8 -34 18 -38
24 -3 5 -15 10 -25 10 -14 0 -20 -9 -24 -32z"/>
<path d="M1284 127 c-65 -50 -84 -71 -84 -94 0 -22 3 -23 75 -23 l75 0 0 28 c0 34 -18
100 -29 107 -5 2 -22 -5 -37 -18z"/>
</g>
</svg>
