<svg version="1.0" xmlns="http://www.w3.org/2000/svg"
 width="668px" style="transform:scale(1,1.001);" height="375.75px" viewBox="0 0 320.000000 180.000000"
 preserveAspectRatio="xMidYMid meet">
<g transform="translate(0.000000,180.000000) scale(0.100000,-0.100000)"
fill="#000000" stroke="none">
<path d="M0 905 l0 -895 1600 0 1600 0 0 895 0 895 -1600 0 -1600 0 0 -895z m1808 661
c88 -14 95 -17 151 -64 32 -26 73 -64 90 -84 29 -34 31 -40 31 -117 0 -71 -3
-87 -25 -119 -14 -20 -25 -42 -25 -49 0 -6 -10 -24 -22 -40 -43 -53 -61 -99
-54 -137 7 -39 55 -96 81 -96 9 0 38 -11 64 -24 25 -14 67 -35 93 -46 52 -24
148 -104 148 -124 0 -7 9 -23 20 -36 11 -13 25 -42 31 -64 5 -23 17 -58 25
-79 23 -62 18 -112 -15 -149 l-29 -33 -634 3 c-348 2 -648 6 -666 9 -37 6 -76
49 -66 72 3 9 12 57 19 106 16 107 53 188 95 210 39 20 118 74 125 85 3 5 18
11 35 15 16 3 40 15 52 25 13 10 42 23 64 29 50 14 104 53 126 92 18 33 11 78
-17 109 -8 9 -15 20 -15 24 0 4 -11 24 -25 44 -14 20 -25 51 -25 68 0 17 -10
44 -22 59 -12 16 -23 47 -26 77 -5 54 -15 41 131 175 45 41 114 71 167 72 14
0 67 -6 118 -13z"/>
</g>
</svg>
