<svg version="1.0" xmlns="http://www.w3.org/2000/svg"
 width="668px" style="transform:scale(1,1.001);" height="375.75px" viewBox="0 0 320.000000 180.000000"
 preserveAspectRatio="xMidYMid meet">
<g transform="translate(0.000000,180.000000) scale(0.100000,-0.100000)"
fill="#000000" stroke="none">
<path d="M0 905 l0 -895 551 0 550 0 -6 78 c-4 49 -1 122 9 204 20 156 20 203 1 343 -8
61 -15 136 -15 167 0 112 -32 144 -83 82 -18 -21 -39 -46 -47 -54 -21 -21 -53
-70 -66 -101 -12 -27 -93 -99 -111 -99 -26 0 -20 57 12 127 18 39 36 86 40
102 4 17 11 33 16 36 5 4 9 15 9 25 0 10 6 25 13 32 6 7 14 22 15 33 9 48 56
171 78 204 27 39 32 101 11 123 -7 7 -25 30 -39 52 -23 33 -25 42 -16 70 6 17
17 38 24 47 8 8 14 21 14 27 0 16 38 39 77 47 46 9 99 -19 123 -66 11 -21 20
-44 20 -52 0 -27 36 -46 99 -53 70 -8 99 -23 171 -91 74 -70 127 -113 139
-113 14 0 15 -76 1 -85 -6 -3 -10 -16 -10 -29 0 -13 -8 -30 -18 -40 -18 -15
-20 -15 -43 2 -26 19 -74 42 -89 42 -13 0 -13 -94 -1 -134 5 -17 14 -51 20
-76 22 -88 71 -286 81 -321 20 -74 13 -121 -30 -190 -69 -110 -108 -206 -127
-312 l-5 -27 916 0 916 0 0 895 0 895 -1600 0 -1600 0 0 -895z"/>
<path d="M1306 532 c-9 -16 -19 -232 -10 -232 16 0 52 64 59 102 13 69 -25 169 -49 130z"/>
<path d="M1290 259 c0 -6 -7 -9 -15 -5 -11 4 -15 -2 -16 -19 -1 -14 -2 -30 -3 -37 -1
-6 5 -13 12 -15 7 -3 12 4 12 19 0 13 7 34 16 46 8 12 10 22 5 22 -6 0 -11 -5
-11 -11z"/>
</g>
</svg>
