<svg version="1.0" xmlns="http://www.w3.org/2000/svg"
 width="668px" style="transform:scale(1,1.001);" height="375.75px" viewBox="0 0 320.000000 180.000000"
 preserveAspectRatio="xMidYMid meet">
<g transform="translate(0.000000,180.000000) scale(0.100000,-0.100000)"
fill="#000000" stroke="none">
<path d="M0 905 l0 -895 696 0 696 0 -5 33 c-3 17 -10 64 -16 102 -5 39 -17 93 -25 120
-9 28 -16 77 -16 110 -1 33 -5 80 -11 105 -5 25 -14 74 -20 110 -6 36 -13 75
-15 88 -8 40 -31 23 -79 -58 -26 -44 -51 -82 -55 -85 -5 -3 -18 -24 -29 -48
-11 -23 -30 -48 -42 -56 -20 -12 -24 -11 -36 5 -12 16 -12 35 3 131 3 18 23
56 45 85 52 70 103 175 129 268 11 42 33 90 49 110 39 48 44 71 26 113 -8 20
-15 56 -15 80 0 63 37 97 106 97 64 0 96 -30 121 -115 17 -53 22 -60 53 -68
19 -5 42 -15 50 -22 8 -7 29 -16 46 -19 17 -4 42 -18 54 -32 13 -13 29 -24 36
-24 6 0 17 -7 24 -15 7 -8 29 -18 50 -21 47 -8 51 -11 73 -55 15 -29 17 -41 8
-58 -13 -24 -19 -25 -70 -12 -97 25 -171 33 -186 21 -18 -15 -21 -163 -6 -251
6 -30 15 -88 22 -129 6 -41 15 -97 20 -125 13 -72 3 -117 -37 -160 -30 -34
-34 -43 -34 -95 0 -68 -14 -85 -64 -77 -51 8 -76 -1 -76 -29 l0 -24 865 0 865
0 0 895 0 895 -1600 0 -1600 0 0 -895z"/>
<path d="M1487 413 c-4 -3 -7 -25 -7 -48 0 -47 16 -71 37 -54 16 14 17 50 1 84 -11 25
-19 30 -31 18z"/>
</g>
</svg>
