<svg version="1.0" xmlns="http://www.w3.org/2000/svg"
 width="668px" style="transform:scale(1,1.001);" height="375.75px" viewBox="0 0 320.000000 180.000000"
 preserveAspectRatio="xMidYMid meet">
<g transform="translate(0.000000,180.000000) scale(0.100000,-0.100000)"
fill="#000000" stroke="none">
<path d="M0 905 l0 -895 625 0 625 0 0 39 c0 53 8 69 41 86 43 23 85 19 112 -11 20 -22
24 -33 19 -70 l-5 -44 147 0 146 0 0 24 c0 13 -7 29 -15 36 -21 18 -19 33 10
60 20 19 31 22 66 17 65 -9 93 -35 97 -91 l3 -46 665 0 664 0 0 895 0 895
-1600 0 -1600 0 0 -895z m1646 693 c52 -30 62 -73 48 -191 l-6 -57 73 -35
c106 -50 132 -91 168 -272 26 -130 12 -205 -63 -327 -25 -42 -30 -60 -30 -115
0 -36 6 -102 13 -147 13 -73 12 -82 -3 -107 -10 -14 -32 -31 -51 -37 -32 -11
-37 -10 -206 26 -14 3 -69 -6 -121 -20 -117 -32 -163 -33 -178 -7 -19 37 -10
90 30 181 23 49 43 111 47 138 8 72 -1 76 -152 69 -163 -9 -166 -6 -141 118 2
11 5 35 5 53 1 25 5 32 21 32 11 0 30 -11 42 -25 32 -37 76 -34 121 10 21 20
37 41 37 48 2 99 60 253 105 277 14 7 36 30 49 51 29 42 26 59 -18 146 -14 29
-26 64 -26 78 0 31 30 93 56 117 35 31 124 29 180 -4z"/>
</g>
</svg>
