<svg version="1.0" xmlns="http://www.w3.org/2000/svg"
 width="668px" style="transform:scale(1,1.001);" height="375.75px" viewBox="0 0 320.000000 180.000000"
 preserveAspectRatio="xMidYMid meet">
<g transform="translate(0.000000,180.000000) scale(0.100000,-0.100000)"
fill="#000000" stroke="none">
<path d="M0 905 l0 -895 1600 0 1600 0 0 895 0 895 -795 0 -795 0 0 -21 c0 -11 21 -46
48 -76 l47 -56 0 -81 c0 -68 -5 -90 -27 -139 -16 -32 -28 -61 -28 -66 0 -5
-11 -29 -25 -52 -30 -53 -32 -98 -5 -129 11 -13 20 -27 20 -31 0 -5 12 -12 28
-15 15 -4 40 -18 55 -31 19 -15 41 -23 66 -23 27 0 49 -9 76 -30 21 -16 47
-30 58 -30 29 0 121 -101 157 -171 17 -34 33 -87 39 -130 6 -41 17 -92 25
-114 10 -26 15 -79 16 -151 0 -162 35 -149 -394 -150 -193 0 -378 -4 -411 -7
-33 -4 -177 -1 -319 6 l-259 13 -29 34 c-24 30 -28 43 -28 96 0 34 6 77 14 95
7 19 17 64 21 101 4 46 12 71 26 84 10 9 19 27 19 39 0 24 56 97 105 137 35
29 158 108 197 128 54 26 73 57 72 115 0 41 -6 62 -27 92 -15 22 -27 46 -27
55 0 8 -9 26 -19 40 -11 13 -38 60 -61 104 -23 43 -48 86 -56 95 -30 33 -17
73 44 136 31 33 67 65 80 72 14 7 22 21 22 36 l0 25 -565 0 -565 0 0 -895z"/>
</g>
</svg>
