<svg version="1.0" xmlns="http://www.w3.org/2000/svg"
 width="668px" style="transform:scale(1,1.001);" height="375.75px" viewBox="0 0 320.000000 180.000000"
 preserveAspectRatio="xMidYMid meet">
<g transform="translate(0.000000,180.000000) scale(0.100000,-0.100000)"
fill="#000000" stroke="none">
<path d="M0 905 l0 -895 1600 0 1600 0 0 895 0 895 -1600 0 -1600 0 0 -895z m1975 683
c44 -19 77 -40 81 -50 3 -10 9 -18 14 -18 13 0 30 -59 30 -107 0 -25 -12 -74
-26 -109 -14 -36 -26 -86 -27 -111 0 -49 13 -66 114 -143 119 -92 136 -120
153 -243 8 -51 23 -112 35 -134 11 -23 21 -49 21 -58 0 -8 9 -41 20 -72 25
-72 25 -88 -3 -142 -37 -74 -53 -81 -207 -86 -277 -10 -836 -3 -927 11 -20 3
-40 16 -58 40 -23 30 -28 50 -37 144 -16 169 -12 184 82 278 49 48 87 97 99
125 35 81 55 96 241 188 19 9 50 20 67 24 34 7 63 37 63 66 0 8 -19 42 -42 75
-62 89 -70 114 -57 174 14 64 52 109 121 143 95 47 144 48 243 5z"/>
</g>
</svg>
