<svg version="1.0" xmlns="http://www.w3.org/2000/svg"
 width="668px" style="transform:scale(1,1.001);" height="375.75px" viewBox="0 0 320.000000 180.000000"
 preserveAspectRatio="xMidYMid meet">
<g transform="translate(0.000000,180.000000) scale(0.100000,-0.100000)"
fill="#000000" stroke="none">
<path d="M0 905 l0 -895 560 0 c557 0 560 0 560 20 0 12 -8 33 -17 47 -16 24 -19 74
-27 468 l-8 440 -39 116 c-21 64 -39 126 -39 137 0 52 -45 108 -168 210 -55
45 -102 93 -102 103 0 6 -9 29 -20 51 -24 50 -26 84 -4 96 10 5 18 28 21 55
l6 47 -362 0 -361 0 0 -895z"/>
<path d="M790 1777 c0 -13 9 -32 19 -41 10 -10 22 -34 26 -54 7 -40 52 -94 97 -118 34
-18 102 -18 117 0 8 10 8 21 1 40 -15 40 -12 109 5 132 8 10 15 29 15 42 0 22
-1 22 -140 22 l-140 0 0 -23z"/>
<path d="M1275 1768 c5 -18 8 -69 9 -114 1 -51 6 -87 14 -97 21 -24 112 -67 144 -67 17
0 38 -9 51 -23 12 -13 39 -27 59 -30 49 -8 91 26 127 103 15 30 37 70 51 88
42 56 83 35 83 -44 0 -24 4 -44 8 -44 14 0 19 -34 9 -64 -6 -18 -22 -39 -38
-48 -15 -10 -44 -33 -64 -53 -20 -19 -46 -35 -58 -35 -12 0 -19 -4 -15 -10 10
-16 -51 -40 -102 -40 -74 0 -92 -9 -114 -52 -18 -36 -21 -59 -20 -207 0 -91 5
-200 11 -241 22 -151 23 -204 6 -276 -10 -38 -26 -81 -37 -96 -10 -15 -19 -36
-19 -47 0 -11 -5 -23 -11 -26 -17 -11 -59 -116 -59 -149 1 -17 7 -42 15 -56
19 -33 19 -69 0 -76 -8 -4 -15 -17 -15 -30 l0 -24 945 0 945 0 0 895 0 895
-966 0 -966 0 7 -32z"/>
</g>
</svg>
