<svg version="1.0" xmlns="http://www.w3.org/2000/svg"
 width="668px" style="transform:scale(1,1.001);" height="375.75px" viewBox="0 0 320.000000 180.000000"
 preserveAspectRatio="xMidYMid meet">
<g transform="translate(0.000000,180.000000) scale(0.100000,-0.100000)"
fill="#000000" stroke="none">
<path d="M0 905 l0 -895 1600 0 1600 0 0 895 0 895 -1600 0 -1600 0 0 -895z m1854 730
c12 -7 34 -16 50 -19 37 -9 117 -75 167 -139 48 -60 52 -109 15 -181 -13 -27
-27 -60 -31 -74 -3 -14 -17 -39 -31 -55 -13 -16 -24 -33 -24 -39 0 -5 -9 -21
-20 -35 -31 -39 -27 -110 8 -156 15 -20 39 -41 54 -47 15 -7 41 -22 59 -35 17
-13 45 -27 61 -30 35 -8 158 -126 158 -152 0 -11 11 -34 24 -52 13 -18 27 -48
30 -66 4 -19 16 -54 26 -77 33 -74 24 -140 -22 -164 -26 -13 -114 -15 -694
-13 -767 3 -700 -7 -692 103 4 39 14 78 25 98 11 18 23 48 27 67 3 18 18 49
33 68 41 53 135 143 148 143 7 0 25 11 41 25 16 14 39 25 50 25 12 0 33 9 47
20 14 11 31 20 39 20 34 1 99 42 127 81 36 49 39 84 12 137 -10 20 -21 50 -25
66 -4 16 -16 41 -27 54 -10 14 -19 34 -19 46 0 12 -11 42 -25 68 -36 68 -34
123 8 177 33 45 176 145 218 154 39 8 160 -3 183 -18z"/>
</g>
</svg>
