<svg version="1.0" xmlns="http://www.w3.org/2000/svg"
 width="668px" style="transform:scale(1,1.001);" height="375.75px" viewBox="0 0 320.000000 180.000000"
 preserveAspectRatio="xMidYMid meet">
<g transform="translate(0.000000,180.000000) scale(0.100000,-0.100000)"
fill="#000000" stroke="none">
<path d="M0 905 l0 -895 1600 0 1600 0 0 895 0 895 -765 0 -765 0 0 -48 c0 -26 -4 -62
-9 -80 -13 -43 4 -89 38 -107 15 -7 33 -21 40 -29 17 -20 61 -21 87 -1 29 22
41 18 53 -16 18 -52 -1 -105 -44 -120 -29 -11 -35 -18 -35 -41 0 -31 -18 -36
-67 -17 -25 9 -31 7 -55 -20 -29 -33 -32 -46 -28 -164 2 -85 24 -159 89 -310
28 -65 51 -131 51 -146 0 -18 -11 -38 -32 -59 -18 -17 -40 -39 -49 -48 -9 -9
-27 -26 -40 -39 -53 -51 -135 -139 -151 -164 -12 -17 -18 -46 -18 -81 0 -60
-5 -71 -35 -88 -11 -6 -29 -36 -41 -69 -16 -46 -25 -59 -44 -61 -36 -6 -50 23
-50 98 0 41 -5 73 -15 87 -22 31 -28 90 -16 172 8 60 16 81 41 110 17 20 37
50 45 68 8 17 19 34 25 38 25 15 12 83 -52 280 -29 89 -32 114 -38 368 0 4
-18 7 -40 7 -32 0 -47 -6 -66 -27 -20 -22 -36 -28 -83 -31 -32 -2 -67 0 -77 6
-17 10 -17 11 9 21 16 6 33 9 38 6 5 -3 21 1 36 9 l28 15 -25 9 c-14 5 -24 13
-22 18 2 5 -5 11 -15 13 -10 2 -29 12 -42 22 -13 11 -30 19 -37 19 -48 0 -76
167 -34 205 28 25 48 12 62 -40 16 -61 64 -99 121 -97 23 1 43 6 46 11 3 4 20
16 38 25 18 9 37 25 43 35 6 11 26 22 49 26 24 4 49 18 67 36 27 28 27 30 16
80 -7 28 -12 66 -12 85 l0 34 -710 0 -710 0 0 -895z"/>
</g>
</svg>
