<svg version="1.0" xmlns="http://www.w3.org/2000/svg"
 width="668px" style="transform:scale(1,1.001);" height="375.75px" viewBox="0 0 320.000000 180.000000"
 preserveAspectRatio="xMidYMid meet">
<g transform="translate(0.000000,180.000000) scale(0.100000,-0.100000)"
fill="#000000" stroke="none">
<path d="M0 905 l0 -895 1600 0 1600 0 0 895 0 895 -1600 0 -1600 0 0 -895z m1966 726
c29 -5 51 -19 77 -47 45 -49 55 -110 37 -222 -7 -42 -15 -91 -17 -109 -8 -55
31 -115 152 -236 183 -183 201 -222 215 -463 9 -162 4 -221 -23 -242 -28 -22
-526 -30 -848 -14 -193 10 -236 27 -285 109 -26 45 -33 70 -43 167 -7 63 -11
118 -8 124 4 5 11 65 16 133 17 206 31 225 169 216 89 -5 168 12 179 39 2 7
28 20 57 28 36 11 59 25 75 47 29 38 22 56 -49 138 -75 86 -87 138 -49 212 32
64 86 112 133 120 58 9 164 10 212 0z m60 -1440 c32 -6 101 -15 152 -20 129
-14 229 -69 151 -85 -40 -8 -866 -8 -896 0 -13 4 -23 9 -23 13 0 16 130 71
190 80 131 21 343 27 426 12z"/>
</g>
</svg>
