<svg version="1.0" xmlns="http://www.w3.org/2000/svg"
 width="668px" style="transform:scale(1,1.001);" height="375.75px" viewBox="0 0 320.000000 180.000000"
 preserveAspectRatio="xMidYMid meet">
<g transform="translate(0.000000,180.000000) scale(0.100000,-0.100000)"
fill="#000000" stroke="none">
<path d="M0 905 l0 -895 635 0 635 0 0 28 c0 16 -9 35 -21 46 -31 26 -23 110 15 164 36
52 66 133 66 178 0 22 -18 74 -46 132 -87 183 -96 212 -92 268 3 29 12 63 22
76 9 12 30 41 46 63 36 49 33 81 -19 175 -32 59 -53 108 -82 195 -21 65 18
185 66 201 11 4 31 15 45 25 14 11 60 26 104 34 69 13 81 13 105 0 14 -8 42
-22 61 -30 34 -16 59 -47 87 -109 17 -38 16 -63 -6 -149 -10 -39 -21 -83 -24
-96 -8 -31 62 -97 113 -106 42 -8 90 -27 90 -37 0 -4 17 -12 38 -17 32 -9 75
-38 107 -71 6 -6 27 -28 47 -49 48 -50 163 -288 173 -357 4 -32 1 -74 -8 -115
-8 -35 -18 -86 -22 -114 -4 -27 -13 -61 -19 -75 -7 -14 -21 -56 -30 -95 -25
-102 -41 -115 -138 -115 -77 0 -78 0 -78 -25 l0 -25 665 0 665 0 0 895 0 895
-1600 0 -1600 0 0 -895z"/>
</g>
</svg>
