<svg version="1.0" xmlns="http://www.w3.org/2000/svg"
 width="668px" style="transform:scale(1,1.001);" height="375.75px" viewBox="0 0 320.000000 180.000000"
 preserveAspectRatio="xMidYMid meet">
<g transform="translate(0.000000,180.000000) scale(0.100000,-0.100000)"
fill="#000000" stroke="none">
<path d="M0 905 l0 -895 660 0 660 0 0 43 c1 23 8 60 16 82 8 22 25 115 38 207 25 190
22 225 -36 327 -62 111 -68 128 -83 228 -15 101 -15 101 10 171 41 114 34 135
-42 125 -47 -6 -56 3 -73 74 -9 42 -9 57 2 80 13 27 16 28 78 26 89 -2 233 16
242 30 4 7 8 40 8 75 0 66 18 115 45 126 9 3 50 6 90 6 81 0 101 -11 111 -58
3 -15 7 -36 9 -46 6 -28 -13 -117 -32 -153 -15 -28 -16 -39 -4 -85 7 -29 17
-98 22 -153 8 -88 34 -190 58 -235 14 -26 23 -98 16 -130 -14 -65 -85 -56
-100 12 -11 49 -53 140 -77 165 -25 27 -45 29 -76 7 -18 -13 -22 -25 -22 -73
0 -32 9 -87 20 -122 11 -35 24 -77 29 -94 37 -116 32 -183 -20 -298 -20 -44
-33 -92 -36 -131 -5 -62 -5 -63 28 -87 61 -43 69 -53 69 -86 l0 -33 795 0 795
0 0 895 0 895 -1600 0 -1600 0 0 -895z"/>
</g>
</svg>
