<svg version="1.0" xmlns="http://www.w3.org/2000/svg"
 width="668px" style="transform:scale(1,1.001);" height="375.75px" viewBox="0 0 320.000000 180.000000"
 preserveAspectRatio="xMidYMid meet">
<g transform="translate(0.000000,180.000000) scale(0.100000,-0.100000)"
fill="#000000" stroke="none">
<path d="M0 905 l0 -895 210 0 210 0 0 29 c0 17 -4 33 -10 36 -11 7 -13 80 -4 149 6 39
15 55 64 104 80 79 107 103 139 121 49 27 106 67 120 85 7 9 19 16 25 16 9 0
84 69 146 134 8 9 25 26 38 38 96 98 172 180 172 188 0 5 14 25 30 44 29 33
30 38 28 117 -2 108 6 141 41 162 17 10 32 31 39 55 8 25 21 43 36 50 14 6 32
24 40 40 9 17 31 35 58 47 24 10 57 24 74 31 18 8 66 19 109 25 201 28 389
-60 524 -245 32 -44 33 -49 29 -119 -3 -62 -7 -78 -30 -105 -15 -18 -29 -50
-33 -74 -3 -24 -11 -65 -18 -91 -15 -64 3 -154 35 -180 33 -26 160 -108 179
-116 30 -12 169 -126 175 -144 3 -10 23 -37 44 -62 21 -24 41 -59 45 -77 4
-18 17 -51 30 -73 13 -22 24 -49 26 -60 4 -27 -9 -75 -21 -75 -6 0 -10 -11
-10 -25 l0 -25 330 0 330 0 0 895 0 895 -1600 0 -1600 0 0 -895z"/>
</g>
</svg>
