<svg version="1.0" xmlns="http://www.w3.org/2000/svg"
 width="668px" style="transform:scale(1,1.001);" height="375.75px" viewBox="0 0 320.000000 180.000000"
 preserveAspectRatio="xMidYMid meet">
<g transform="translate(0.000000,180.000000) scale(0.100000,-0.100000)"
fill="#000000" stroke="none">
<path d="M0 905 l0 -895 610 0 610 0 0 22 c0 12 -10 32 -21 44 -20 21 -43 87 -73 205
-6 25 -18 56 -27 70 -23 36 -59 137 -59 166 0 14 -5 44 -12 65 -16 55 -44 64
-132 43 -56 -14 -77 -15 -115 -5 -120 29 -118 28 -146 76 -26 44 -28 56 -34
218 -8 201 10 448 37 505 19 41 46 56 114 66 44 7 50 5 79 -24 30 -30 31 -35
26 -90 -3 -33 -16 -79 -31 -109 -14 -28 -26 -58 -26 -66 0 -8 -7 -22 -15 -30
-14 -14 -14 -19 -1 -44 8 -15 17 -68 19 -116 4 -59 10 -92 19 -97 22 -15 64
-10 89 10 13 10 41 24 61 30 21 7 45 22 55 35 10 12 44 40 76 61 33 22 66 53
74 69 14 26 13 35 -2 93 -13 49 -16 90 -13 172 4 101 6 110 36 153 25 37 43
51 87 67 68 26 78 26 148 2 69 -24 141 -82 162 -130 9 -20 20 -44 25 -53 25
-45 7 -131 -42 -199 -17 -25 18 -79 62 -94 19 -6 40 -20 45 -31 6 -10 18 -31
28 -45 24 -35 40 -222 32 -360 -8 -125 6 -194 60 -296 41 -78 43 -104 14 -234
-11 -52 -23 -106 -26 -121 l-5 -28 706 0 706 0 0 895 0 895 -1600 0 -1600 0 0
-895z"/>
</g>
</svg>
