<svg version="1.0" xmlns="http://www.w3.org/2000/svg"
 width="668px" style="transform:scale(1,1.001);" height="375.75px" viewBox="0 0 320.000000 180.000000"
 preserveAspectRatio="xMidYMid meet">
<g transform="translate(0.000000,180.000000) scale(0.100000,-0.100000)"
fill="#000000" stroke="none">
<path d="M0 905 l0 -895 643 0 644 0 8 277 c5 153 9 314 9 358 0 113 -22 318 -40 360
-8 19 -17 70 -20 112 -11 139 -60 201 -168 214 -48 6 -64 12 -79 33 -10 14
-28 26 -40 26 -30 1 -60 19 -92 58 -24 29 -26 35 -15 62 19 46 43 63 71 50 46
-21 74 -39 92 -61 13 -16 35 -25 75 -30 65 -9 248 -1 275 13 20 10 22 41 6 86
-8 23 -8 41 1 67 14 42 40 55 109 55 73 0 88 -23 93 -133 3 -88 3 -89 40 -122
20 -19 50 -37 65 -41 15 -4 48 -25 73 -48 69 -65 92 -76 159 -76 50 0 64 -4
86 -24 15 -14 31 -26 36 -28 6 -2 14 -20 18 -40 8 -35 8 -36 -23 -41 -65 -11
-190 0 -246 22 -66 25 -72 26 -116 5 -42 -20 -57 -48 -74 -135 -10 -52 -11
-79 -2 -125 7 -31 12 -116 12 -187 0 -131 -9 -182 -61 -358 -10 -36 -19 -95
-19 -130 0 -60 3 -68 31 -95 36 -34 59 -74 59 -104 0 -20 0 -20 795 -20 l795
0 0 895 0 895 -1600 0 -1600 0 0 -895z"/>
</g>
</svg>
