<svg version="1.0" xmlns="http://www.w3.org/2000/svg"
 width="668px" style="transform:scale(1,1.001);" height="375.75px" viewBox="0 0 320.000000 180.000000"
 preserveAspectRatio="xMidYMid meet">
<g transform="translate(0.000000,180.000000) scale(0.100000,-0.100000)"
fill="#000000" stroke="none">
<path d="M0 905 l0 -895 661 0 661 0 -7 32 c-4 18 -10 91 -15 163 -4 72 -8 133 -9 137
-1 3 -16 15 -35 26 -19 11 -47 40 -63 63 l-28 43 2 225 c2 204 4 230 24 285
16 44 35 73 68 103 25 23 51 42 57 43 6 0 21 11 34 25 13 14 34 25 47 25 14 0
41 16 63 38 l40 37 -29 60 c-16 33 -33 76 -39 95 -6 19 -18 55 -27 80 -21 58
-13 98 29 141 70 72 103 89 175 89 53 0 78 -6 124 -29 75 -37 93 -54 113 -107
14 -37 15 -53 5 -103 -6 -33 -25 -85 -41 -115 -17 -31 -30 -65 -30 -76 0 -25
88 -96 132 -105 37 -9 102 -47 136 -81 72 -71 134 -459 94 -591 -7 -25 -37
-71 -71 -110 -32 -38 -62 -79 -66 -93 -4 -14 -13 -32 -20 -40 -19 -23 -53
-110 -59 -155 -3 -22 -12 -45 -21 -51 -8 -6 -15 -21 -15 -33 l0 -21 655 0 655
0 0 895 0 895 -1600 0 -1600 0 0 -895z"/>
<path d="M1643 63 c-91 -4 -93 -4 -93 -28 l0 -25 155 0 155 0 0 24 c0 19 -6 24 -37 30
-21 3 -49 5 -63 4 -14 -1 -67 -4 -117 -5z"/>
</g>
</svg>
