<svg version="1.0" xmlns="http://www.w3.org/2000/svg"
 width="668px" style="transform:scale(1,1.001);" height="375.75px" viewBox="0 0 320.000000 180.000000"
 preserveAspectRatio="xMidYMid meet">
<g transform="translate(0.000000,180.000000) scale(0.100000,-0.100000)"
fill="#000000" stroke="none">
<path d="M0 905 l0 -895 509 0 509 0 7 58 c3 31 9 136 13 232 8 180 11 195 64 295 11
22 39 63 62 90 22 28 45 56 51 63 5 8 20 24 31 35 12 12 24 36 28 52 7 33 -7
51 -66 88 -58 36 -71 132 -25 175 12 11 28 27 34 34 7 7 27 24 43 38 17 14 41
35 54 47 12 12 44 27 71 34 27 7 56 17 63 23 43 34 63 59 68 85 8 40 65 75
111 68 44 -8 104 -50 119 -85 9 -23 9 -40 -3 -85 -14 -56 -13 -58 17 -126 37
-85 37 -104 4 -206 -19 -56 -38 -93 -66 -123 -45 -49 -44 -55 7 -143 18 -30
38 -73 45 -95 7 -21 21 -55 31 -74 24 -46 59 -153 59 -183 0 -13 14 -76 30
-140 17 -65 30 -126 30 -137 0 -20 9 -20 650 -20 l650 0 0 895 0 895 -1600 0
-1600 0 0 -895z"/>
<path d="M1368 571 c-33 -7 -107 -60 -151 -109 -31 -34 -59 -141 -67 -262 -5 -63 -12
-132 -15 -152 l-7 -38 336 0 c303 0 336 2 336 16 0 19 -84 270 -108 324 -18
40 -102 143 -153 188 -39 34 -105 47 -171 33z"/>
</g>
</svg>
