<svg version="1.0" xmlns="http://www.w3.org/2000/svg"
 width="668px" style="transform:scale(1,1.001);" height="375.75px" viewBox="0 0 320.000000 180.000000"
 preserveAspectRatio="xMidYMid meet">
<g transform="translate(0.000000,180.000000) scale(0.100000,-0.100000)"
fill="#000000" stroke="none">
<path d="M0 905 l0 -895 421 0 c280 0 418 3 414 10 -12 19 6 50 38 67 59 30 146 103
191 161 25 31 64 78 87 104 82 94 89 107 89 172 0 42 6 71 19 92 10 17 22 50
26 74 9 56 46 124 94 177 22 23 44 59 51 80 35 114 70 152 139 153 51 0 105
-29 125 -68 8 -15 26 -38 40 -51 14 -14 26 -31 26 -39 0 -8 10 -25 23 -37 36
-36 61 -68 74 -97 7 -16 16 -28 21 -28 5 0 14 -12 21 -26 20 -45 70 -100 112
-123 42 -24 51 -59 14 -53 -11 2 -36 6 -55 9 -19 3 -41 10 -49 17 -11 8 -15 8
-19 -3 -2 -7 -13 -22 -23 -32 -22 -22 -37 -17 -101 34 -20 16 -44 27 -54 25
-26 -5 -39 -53 -25 -98 12 -41 79 -99 151 -131 92 -41 221 -187 212 -238 -1
-9 -25 -37 -52 -62 -31 -28 -50 -54 -50 -67 l0 -22 620 0 620 0 0 895 0 895
-1600 0 -1600 0 0 -895z"/>
<path d="M1429 246 c-62 -14 -85 -28 -179 -102 -36 -28 -82 -59 -102 -69 -28 -13 -38
-23 -38 -41 l0 -24 360 0 360 0 0 59 c0 77 -15 117 -48 129 -68 26 -102 34
-162 42 -36 5 -81 11 -100 14 -19 2 -60 -1 -91 -8z"/>
</g>
</svg>
