<svg version="1.0" xmlns="http://www.w3.org/2000/svg"
 width="668px" style="transform:scale(1,1.001);" height="375.75px" viewBox="0 0 320.000000 180.000000"
 preserveAspectRatio="xMidYMid meet">
<g transform="translate(0.000000,180.000000) scale(0.100000,-0.100000)"
fill="#000000" stroke="none">
<path d="M0 905 l0 -895 1600 0 1600 0 0 895 0 895 -1600 0 -1600 0 0 -895z m1867 804
c118 -39 152 -144 85 -263 -33 -57 -33 -58 -15 -88 10 -17 32 -36 50 -42 34
-12 172 -124 173 -140 0 -5 6 -17 14 -25 33 -37 66 -147 66 -217 0 -62 -4 -75
-29 -110 -17 -22 -42 -46 -58 -54 -15 -8 -38 -23 -50 -33 -12 -11 -33 -25 -45
-31 -13 -6 -34 -31 -47 -55 -23 -43 -24 -46 -12 -140 15 -113 3 -168 -39 -187
-17 -7 -89 -9 -220 -5 l-195 6 -12 35 c-7 19 -12 73 -13 120 0 70 -4 92 -24
127 -40 69 -54 132 -61 271 -3 74 -9 147 -12 164 -9 43 -69 84 -138 93 -80 10
-120 48 -119 112 1 42 5 50 45 85 24 21 53 46 64 57 11 10 31 24 45 31 14 7
32 21 40 31 11 14 46 25 130 39 129 23 154 38 164 100 11 68 27 92 81 116 62
28 58 28 132 3z"/>
</g>
</svg>
