<svg version="1.0" xmlns="http://www.w3.org/2000/svg"
 width="668px" style="transform:scale(1,1.001);" height="375.75px" viewBox="0 0 320.000000 180.000000"
 preserveAspectRatio="xMidYMid meet">
<g transform="translate(0.000000,180.000000) scale(0.100000,-0.100000)"
fill="#000000" stroke="none">
<path d="M0 905 l0 -895 525 0 525 0 0 42 c0 27 12 67 35 115 19 41 35 76 35 79 0 3 6
20 14 37 60 133 77 186 86 271 8 90 32 195 50 228 6 10 10 25 10 34 0 19 48
84 64 84 6 0 23 12 39 25 22 20 27 32 27 70 0 50 10 77 43 113 17 18 31 22 83
22 58 0 64 -2 102 -39 32 -32 43 -51 52 -98 14 -67 24 -88 55 -123 37 -41 47
-88 51 -228 l3 -133 -30 -33 c-16 -19 -29 -38 -29 -44 0 -6 34 -76 75 -157 69
-133 75 -151 75 -205 l0 -60 655 0 655 0 0 895 0 895 -1600 0 -1600 0 0 -895z"/>
<path d="M1447 283 c-12 -12 -7 -79 9 -124 11 -31 13 -60 9 -96 l-6 -53 135 0 136 0 0
24 c0 13 -12 41 -26 62 -33 49 -139 154 -157 154 -7 0 -20 9 -30 20 -16 19
-57 27 -70 13z"/>
<path d="M1261 108 c-30 -32 -51 -62 -51 -75 0 -22 3 -23 85 -23 78 0 85 2 85 20 0 26
-47 130 -58 130 -6 0 -33 -24 -61 -52z"/>
</g>
</svg>
