<svg version="1.0" xmlns="http://www.w3.org/2000/svg"
 width="668px" style="transform:scale(1,1.001);" height="375.75px" viewBox="0 0 320.000000 180.000000"
 preserveAspectRatio="xMidYMid meet">
<g transform="translate(0.000000,180.000000) scale(0.100000,-0.100000)"
fill="#000000" stroke="none">
<path d="M0 905 l0 -895 655 0 655 0 0 30 c0 16 14 71 31 122 31 92 53 251 53 378 0 54
-38 159 -63 175 -6 3 -23 32 -38 63 -26 53 -28 66 -28 182 1 69 7 156 14 193
17 82 11 91 -60 93 -65 1 -99 32 -106 95 -4 35 0 50 18 73 20 25 26 27 63 21
60 -11 108 -6 128 12 14 12 30 15 74 10 76 -8 94 10 94 93 0 85 17 100 114
100 95 0 113 -14 122 -90 5 -46 2 -66 -20 -119 l-26 -65 34 -71 c39 -81 66
-244 73 -447 l5 -117 -41 -43 c-34 -36 -43 -41 -58 -32 -12 8 -17 22 -16 40
11 135 8 180 -17 229 -31 63 -51 67 -84 18 -32 -47 -32 -68 0 -156 22 -64 25
-88 27 -227 l2 -155 -37 -65 c-23 -42 -38 -81 -40 -109 -2 -43 -1 -45 30 -53
32 -8 33 -11 30 -51 -3 -38 -6 -42 -38 -50 -73 -19 -90 -29 -90 -53 l0 -24
870 0 870 0 0 895 0 895 -1600 0 -1600 0 0 -895z"/>
</g>
</svg>
