<svg version="1.0" xmlns="http://www.w3.org/2000/svg"
 width="668px" style="transform:scale(1,1.001);" height="375.75px" viewBox="0 0 320.000000 180.000000"
 preserveAspectRatio="xMidYMid meet">
<g transform="translate(0.000000,180.000000) scale(0.100000,-0.100000)"
fill="#000000" stroke="none">
<path d="M0 905 l0 -895 1600 0 1600 0 0 895 0 895 -1600 0 -1600 0 0 -895z m2018 659
c85 -30 145 -73 204 -147 33 -42 38 -56 38 -99 0 -35 -6 -58 -20 -75 -11 -14
-20 -33 -20 -43 0 -19 -53 -122 -81 -159 -14 -18 -19 -40 -19 -90 0 -60 3 -69
30 -98 17 -18 52 -44 78 -59 49 -28 80 -47 173 -107 57 -37 119 -99 119 -118
0 -6 11 -24 25 -41 14 -16 25 -37 25 -46 0 -9 9 -30 20 -47 24 -36 28 -140 7
-169 -15 -21 -44 -19 -137 9 -43 13 -143 19 -455 30 -220 7 -402 12 -406 10
-15 -10 -318 -7 -336 3 -39 21 -48 64 -29 150 10 42 22 84 27 92 5 8 17 26 26
40 31 49 144 131 286 210 117 64 127 76 127 158 0 57 -4 74 -25 102 -14 19
-25 39 -25 45 0 6 -11 26 -25 45 -14 19 -25 40 -25 48 0 8 -11 27 -25 44 -19
23 -25 41 -25 79 0 48 1 50 84 132 46 45 104 92 128 105 62 31 156 30 256 -4z"/>
</g>
</svg>
