<svg version="1.0" xmlns="http://www.w3.org/2000/svg"
 width="668px" style="transform:scale(1,1.001);" height="375.75px" viewBox="0 0 320.000000 180.000000"
 preserveAspectRatio="xMidYMid meet">
<g transform="translate(0.000000,180.000000) scale(0.100000,-0.100000)"
fill="#000000" stroke="none">
<path d="M0 905 l0 -895 700 0 700 0 0 30 c0 23 -6 33 -25 40 -14 5 -29 18 -33 28 -9
22 -34 57 -93 131 -51 63 -67 116 -51 174 15 54 194 265 262 308 68 44 97 187
47 236 -23 24 -25 24 -61 9 -40 -17 -125 -24 -144 -12 -17 10 -15 52 4 89 25
48 74 107 89 107 31 0 72 74 90 159 22 108 13 139 -60 216 -44 47 -55 65 -55
92 0 43 21 84 60 116 16 14 30 35 30 46 l0 21 -730 0 -730 0 0 -895z"/>
<path d="M1640 1776 c0 -13 7 -29 16 -37 28 -23 45 -68 51 -136 7 -71 21 -99 86 -166
61 -64 102 -225 113 -455 6 -112 4 -148 -10 -194 -9 -31 -16 -68 -16 -82 0
-47 -41 -131 -92 -192 -19 -22 -92 -187 -107 -242 -7 -23 -5 -59 5 -115 7 -45
14 -97 14 -114 l0 -33 750 0 750 0 0 895 0 895 -780 0 -780 0 0 -24z"/>
</g>
</svg>
