<svg version="1.0" xmlns="http://www.w3.org/2000/svg"
 width="668px" style="transform:scale(1,1.001);" height="375.75px" viewBox="0 0 320.000000 180.000000"
 preserveAspectRatio="xMidYMid meet">
<g transform="translate(0.000000,180.000000) scale(0.100000,-0.100000)"
fill="#000000" stroke="none">
<path d="M0 905 l0 -895 1600 0 1600 0 0 895 0 895 -1600 0 -1600 0 0 -895z m1595 755
c22 -11 47 -19 57 -20 25 0 101 -68 122 -108 16 -31 17 -44 8 -82 -21 -93 -44
-166 -59 -188 -8 -14 -12 -34 -9 -47 8 -32 55 -81 86 -90 14 -4 38 -18 53 -31
16 -13 34 -24 41 -24 7 0 23 -11 36 -25 13 -14 29 -25 35 -25 17 0 69 -68 92
-121 12 -26 24 -75 27 -110 4 -35 15 -102 26 -149 54 -243 56 -299 10 -327
-26 -17 -1052 -21 -1092 -5 -15 6 -32 21 -39 34 -17 31 -14 154 5 219 9 29 16
65 16 81 0 53 60 211 98 258 49 61 108 120 119 120 18 0 141 121 153 151 11
26 10 37 -11 82 -12 29 -30 61 -39 72 -39 47 -63 115 -58 167 5 44 11 55 52
95 26 24 61 49 79 55 18 7 38 18 45 25 20 19 101 15 147 -7z"/>
</g>
</svg>
