<svg version="1.0" xmlns="http://www.w3.org/2000/svg"
 width="668px" style="transform:scale(1,1.001);" height="375.75px" viewBox="0 0 320.000000 180.000000"
 preserveAspectRatio="xMidYMid meet">
<g transform="translate(0.000000,180.000000) scale(0.100000,-0.100000)"
fill="#000000" stroke="none">
<path d="M0 905 l0 -895 1600 0 1600 0 0 895 0 895 -1600 0 -1600 0 0 -895z m2139 614
c71 -54 101 -86 125 -133 29 -55 33 -95 12 -134 -8 -15 -33 -66 -55 -114 -23
-48 -46 -90 -51 -93 -13 -8 -33 -83 -32 -119 1 -49 23 -86 63 -106 21 -11 40
-24 44 -30 3 -5 13 -10 22 -10 8 0 34 -12 57 -26 22 -14 64 -40 91 -57 73 -46
139 -123 176 -207 17 -39 25 -117 21 -212 l-4 -88 -39 0 c-21 0 -39 3 -39 8 0
4 -19 23 -42 42 -28 23 -57 37 -92 43 -100 16 -358 25 -763 26 -449 1 -434 -1
-448 59 -3 16 -1 41 5 56 5 15 10 48 10 74 2 148 13 160 275 295 41 21 133 62
172 77 75 28 103 115 56 178 -12 16 -26 47 -32 69 -6 22 -19 51 -29 64 -10 13
-23 35 -30 49 -7 14 -19 36 -27 50 -8 14 -15 41 -15 61 0 32 7 43 63 93 117
105 164 133 252 148 40 7 221 -38 254 -63z"/>
</g>
</svg>
