<svg version="1.0" xmlns="http://www.w3.org/2000/svg"
 width="668px" style="transform:scale(1,1.001);" height="375.75px" viewBox="0 0 320.000000 180.000000"
 preserveAspectRatio="xMidYMid meet">
<g transform="translate(0.000000,180.000000) scale(0.100000,-0.100000)"
fill="#000000" stroke="none">
<path d="M0 905 l0 -895 538 0 538 0 13 73 c7 39 16 142 21 227 10 191 32 350 71 499
31 121 35 155 19 195 -8 23 -13 25 -57 19 -55 -6 -76 9 -86 64 -5 25 0 40 28
76 19 25 42 67 51 94 16 47 67 107 109 128 21 11 23 40 9 167 -6 54 -4 57 27
88 29 27 38 31 83 28 45 -3 53 -7 73 -37 19 -27 23 -48 23 -105 0 -70 1 -72
38 -102 20 -17 46 -36 58 -42 41 -22 48 -75 34 -249 -17 -200 -17 -267 -3
-373 29 -209 36 -324 30 -534 l-5 -216 794 0 794 0 0 895 0 895 -1600 0 -1600
0 0 -895z"/>
<path d="M1331 628 c-22 -46 -49 -110 -61 -143 -30 -87 -70 -312 -70 -400 l0 -75 154 0
154 0 -4 168 c-4 203 -10 257 -36 342 -22 71 -71 175 -88 185 -6 4 -27 -28
-49 -77z"/>
</g>
</svg>
