<svg version="1.0" xmlns="http://www.w3.org/2000/svg"
 width="668px" style="transform:scale(1,1.001);" height="375.75px" viewBox="0 0 320.000000 180.000000"
 preserveAspectRatio="xMidYMid meet">
<g transform="translate(0.000000,180.000000) scale(0.100000,-0.100000)"
fill="#000000" stroke="none">
<path d="M0 905 l0 -895 1600 0 1600 0 0 895 0 895 -1600 0 -1600 0 0 -895z m1830 790
c19 -14 42 -25 51 -25 10 0 37 -19 61 -42 l43 -41 0 -86 c0 -81 -3 -92 -39
-163 -30 -59 -37 -83 -32 -104 8 -31 81 -105 166 -169 29 -22 64 -50 77 -61
33 -30 83 -106 83 -126 0 -9 9 -54 19 -100 11 -46 25 -163 32 -261 16 -232 30
-216 -186 -216 -88 0 -336 3 -551 7 -305 5 -395 10 -407 21 -26 21 -31 75 -13
146 9 35 16 77 16 93 0 45 53 209 96 297 42 86 114 166 172 190 17 8 32 19 32
24 0 6 17 20 38 31 20 10 53 34 72 52 30 28 35 38 35 79 0 34 -6 56 -22 76
-54 69 -80 155 -75 244 2 29 71 109 94 109 8 0 29 11 48 25 27 20 46 25 95 25
49 0 68 -5 95 -25z"/>
</g>
</svg>
