<svg version="1.0" xmlns="http://www.w3.org/2000/svg"
 width="668px" style="transform:scale(1,1.001);" height="375.75px" viewBox="0 0 320.000000 180.000000"
 preserveAspectRatio="xMidYMid meet">
<g transform="translate(0.000000,180.000000) scale(0.100000,-0.100000)"
fill="#000000" stroke="none">
<path d="M0 905 l0 -895 546 0 547 0 -6 47 c-3 27 -1 68 4 93 5 25 14 76 20 114 6 38
23 108 38 155 16 47 36 113 46 146 10 33 31 87 48 120 29 59 30 64 38 265 4
113 6 214 3 225 -3 11 -18 45 -33 75 -43 84 -45 110 -11 163 16 25 38 51 49
57 25 13 28 74 6 104 -9 12 -15 42 -15 73 0 44 4 57 25 75 16 13 25 32 25 50
l0 28 -665 0 -665 0 0 -895z"/>
<path d="M1510 1779 c0 -12 17 -37 40 -58 40 -37 40 -37 43 -120 2 -73 5 -86 25 -102
29 -23 103 -34 131 -20 42 23 86 -31 63 -76 -20 -38 -23 -91 -7 -130 35 -90
35 -200 0 -243 -25 -30 -55 -100 -55 -128 0 -16 7 -49 15 -72 8 -23 15 -52 15
-64 0 -11 6 -33 14 -47 7 -15 24 -58 36 -95 13 -38 37 -98 53 -134 16 -36 33
-78 37 -95 5 -16 18 -55 30 -85 39 -97 61 -201 54 -252 l-6 -48 601 0 601 0 0
895 0 895 -845 0 -845 0 0 -21z"/>
<path d="M1488 567 c-15 -6 -39 -30 -54 -52 -25 -37 -84 -156 -84 -169 0 -3 -20 -32
-44 -64 -25 -32 -48 -72 -52 -88 -3 -16 -17 -53 -30 -82 -13 -29 -24 -64 -24
-77 l0 -25 345 0 345 0 0 24 c0 13 -11 46 -23 73 -13 26 -34 71 -46 98 -13 28
-36 69 -52 93 -16 24 -29 45 -29 48 0 3 -22 32 -50 65 -27 33 -50 63 -50 67 0
4 -17 26 -38 49 -41 47 -74 59 -114 40z"/>
</g>
</svg>
