<svg version="1.0" xmlns="http://www.w3.org/2000/svg"
 width="668px" style="transform:scale(1,1.001);" height="375.75px" viewBox="0 0 320.000000 180.000000"
 preserveAspectRatio="xMidYMid meet">
<g transform="translate(0.000000,180.000000) scale(0.100000,-0.100000)"
fill="#000000" stroke="none">
<path d="M0 905 l0 -895 531 0 531 0 -7 49 c-6 41 -2 60 19 108 14 32 30 78 37 103 6
25 15 50 19 55 14 17 68 185 76 235 4 25 20 70 35 100 59 117 62 127 56 193
-13 141 -24 224 -31 236 -5 8 -33 11 -86 9 -71 -3 -81 -1 -104 21 -41 39 -36
83 17 134 23 23 55 49 70 57 16 8 33 22 38 32 5 10 24 25 42 34 18 9 36 23 40
30 4 8 24 21 43 29 33 14 34 15 34 74 0 33 -4 63 -10 66 -18 11 -10 65 16 104
36 55 65 65 173 56 l90 -7 36 -44 c35 -42 36 -47 36 -121 0 -84 15 -123 48
-123 38 0 107 -38 156 -86 49 -48 141 -114 158 -114 5 0 25 -13 44 -30 18 -16
42 -30 52 -30 10 0 35 -13 56 -30 42 -33 60 -37 193 -43 51 -3 95 -7 98 -10
10 -10 14 -72 6 -85 -5 -7 -35 -16 -66 -19 -35 -4 -60 -11 -63 -19 -4 -10 -28
-14 -88 -14 -76 0 -85 2 -120 30 -23 18 -50 30 -69 30 -17 0 -40 7 -50 15 -10
8 -23 12 -29 8 -6 -3 -7 -2 -4 4 6 10 -73 53 -98 53 -8 0 -15 6 -15 13 0 20
-53 44 -96 43 l-39 -1 -8 -168 c-8 -181 -7 -189 47 -347 14 -41 37 -99 51
-128 14 -29 25 -56 25 -60 0 -4 11 -27 24 -52 13 -25 26 -64 30 -88 3 -24 16
-57 28 -73 19 -25 23 -46 26 -129 l4 -100 599 0 599 0 0 895 0 895 -1600 0
-1600 0 0 -895z"/>
<path d="M1491 547 c-14 -7 -57 -70 -107 -156 -45 -79 -87 -147 -91 -150 -5 -3 -15 -21
-22 -38 -8 -18 -17 -33 -21 -33 -5 0 -16 -22 -25 -50 -9 -27 -21 -52 -26 -55
-5 -4 -9 -17 -9 -31 l0 -24 335 0 335 0 0 23 c0 12 -7 31 -15 41 -8 11 -20 46
-26 79 -7 33 -22 71 -36 87 -12 15 -23 33 -23 39 0 6 -10 21 -22 33 -13 12
-30 32 -38 44 -8 12 -41 61 -73 108 -32 47 -64 86 -72 86 -7 0 -19 2 -27 5 -7
3 -24 -1 -37 -8z"/>
</g>
</svg>
