<svg version="1.0" xmlns="http://www.w3.org/2000/svg"
 width="668px" style="transform:scale(1,1.001);" height="375.75px" viewBox="0 0 320.000000 180.000000"
 preserveAspectRatio="xMidYMid meet">
<g transform="translate(0.000000,180.000000) scale(0.100000,-0.100000)"
fill="#000000" stroke="none">
<path d="M0 905 l0 -895 400 0 400 0 0 79 c0 65 4 86 26 126 14 27 29 71 35 99 5 28 20
66 33 86 14 19 28 58 31 85 4 28 20 70 35 95 15 25 30 63 33 84 4 21 15 48 26
60 48 53 53 250 7 329 -14 23 -32 75 -40 116 -9 40 -23 85 -31 98 -9 13 -22
57 -30 96 -8 40 -19 86 -26 102 -18 47 -39 183 -39 263 l0 72 -430 0 -430 0 0
-895z"/>
<path d="M1280 1776 c0 -22 62 -127 79 -134 7 -2 31 107 31 142 0 13 -11 16 -55 16 -51
0 -55 -2 -55 -24z"/>
<path d="M2410 1775 c0 -14 8 -29 20 -35 10 -6 22 -26 26 -45 3 -19 20 -55 36 -80 28
-43 30 -50 27 -129 -4 -94 4 -79 -116 -201 -38 -38 -86 -90 -108 -114 l-39
-43 -2 -196 -1 -195 25 -26 c16 -16 31 -48 40 -86 7 -33 22 -74 33 -91 10 -17
26 -69 35 -115 9 -50 23 -92 34 -104 23 -25 53 -170 51 -248 l-1 -57 365 0
365 0 0 895 0 895 -395 0 -395 0 0 -25z"/>
</g>
</svg>
