<svg version="1.0" xmlns="http://www.w3.org/2000/svg"
 width="668px" style="transform:scale(1,1.001);" height="375.75px" viewBox="0 0 320.000000 180.000000"
 preserveAspectRatio="xMidYMid meet">
<g transform="translate(0.000000,180.000000) scale(0.100000,-0.100000)"
fill="#000000" stroke="none">
<path d="M0 905 l0 -895 1600 0 1600 0 0 895 0 895 -1600 0 -1600 0 0 -895z m1592 752
c13 -8 34 -18 48 -22 35 -11 103 -73 115 -106 19 -49 -18 -229 -55 -273 -25
-31 40 -117 108 -145 17 -7 32 -17 32 -21 0 -5 15 -13 34 -20 18 -6 42 -20 51
-30 10 -11 23 -20 30 -20 13 0 61 -57 91 -110 19 -33 31 -83 83 -355 32 -165
28 -224 -15 -244 -36 -16 -1073 -16 -1109 1 -37 17 -50 70 -36 150 6 36 11 88
11 117 0 33 9 73 25 111 14 33 25 66 25 74 0 28 83 162 115 186 11 8 30 25 43
37 13 13 35 29 50 37 15 8 52 37 82 64 53 48 55 51 55 100 0 38 -5 56 -22 74
-13 14 -23 28 -23 32 0 4 -11 24 -25 44 -14 20 -25 47 -25 59 0 12 -4 24 -9
27 -4 3 -11 19 -14 35 -14 69 80 171 198 213 29 10 111 1 137 -15z"/>
</g>
</svg>
