<svg version="1.0" xmlns="http://www.w3.org/2000/svg"
 width="668px" style="transform:scale(1,1.001);" height="375.75px" viewBox="0 0 320.000000 180.000000"
 preserveAspectRatio="xMidYMid meet">
<g transform="translate(0.000000,180.000000) scale(0.100000,-0.100000)"
fill="#000000" stroke="none">
<path d="M0 905 l0 -895 543 0 542 0 1 312 c1 172 5 368 9 434 6 117 6 124 -21 190 -15
38 -35 81 -45 95 -32 46 -44 120 -31 193 23 121 50 162 135 205 26 13 35 27
51 81 10 36 24 68 30 72 6 4 41 8 78 8 62 0 68 -2 92 -31 26 -31 28 -38 30
-144 1 -52 6 -68 39 -118 69 -104 72 -216 10 -346 l-26 -53 19 -37 c10 -20 30
-52 42 -71 43 -63 95 -174 108 -227 28 -119 -40 -177 -144 -124 -20 10 -56 21
-80 24 -28 3 -49 13 -61 29 -17 20 -21 21 -34 8 -26 -27 -65 -145 -77 -231 -7
-46 -18 -120 -26 -165 -8 -44 -14 -86 -14 -92 0 -9 246 -12 1015 -12 l1015 0
0 895 0 895 -1600 0 -1600 0 0 -895z"/>
</g>
</svg>
