<svg version="1.0" xmlns="http://www.w3.org/2000/svg"
 width="668px" style="transform:scale(1,1.001);" height="375.75px" viewBox="0 0 320.000000 180.000000"
 preserveAspectRatio="xMidYMid meet">
<g transform="translate(0.000000,180.000000) scale(0.100000,-0.100000)"
fill="#000000" stroke="none">
<path d="M0 905 l0 -895 1600 0 1600 0 0 895 0 895 -1600 0 -1600 0 0 -895z m1528 747
c36 -13 64 -33 85 -58 32 -38 32 -40 31 -146 -1 -81 -5 -112 -17 -132 -10 -14
-17 -36 -17 -49 0 -31 66 -92 109 -102 17 -4 36 -15 41 -26 6 -10 19 -19 30
-19 10 0 32 -11 48 -25 17 -14 37 -25 46 -25 9 0 40 -24 69 -53 41 -41 59 -69
79 -127 15 -41 30 -97 34 -125 4 -27 13 -66 20 -85 7 -19 18 -57 23 -85 5 -27
17 -75 25 -105 25 -88 15 -170 -22 -185 -9 -4 -204 -9 -432 -11 -333 -3 -432
-1 -500 11 -47 8 -101 15 -121 15 -24 0 -42 7 -55 21 -17 19 -19 36 -17 149 2
89 8 142 19 172 9 24 20 61 26 83 6 22 14 47 19 55 5 8 18 33 30 54 11 21 53
71 93 110 81 80 156 172 156 190 0 19 -41 89 -80 136 -44 53 -90 146 -90 182
0 14 9 37 20 51 11 14 20 28 20 32 0 17 79 84 106 91 16 4 38 13 49 21 26 18
103 12 173 -15z"/>
</g>
</svg>
