<svg version="1.0" xmlns="http://www.w3.org/2000/svg"
 width="668px" style="transform:scale(1,1.001);" height="375.75px" viewBox="0 0 320.000000 180.000000"
 preserveAspectRatio="xMidYMid meet">
<g transform="translate(0.000000,180.000000) scale(0.100000,-0.100000)"
fill="#000000" stroke="none">
<path d="M0 905 l0 -895 920 0 920 0 0 23 c0 13 -9 41 -20 64 -22 46 -42 99 -71 193
-12 36 -30 79 -40 96 -11 18 -31 70 -45 115 -15 46 -32 91 -38 99 -32 39 -57
96 -66 153 -6 34 -15 80 -20 102 -27 107 -50 247 -50 306 0 81 20 133 69 179
21 20 58 76 84 128 26 52 63 112 82 135 35 41 38 42 98 42 59 0 65 -2 114 -43
88 -75 95 -138 24 -219 -23 -25 -41 -49 -41 -52 0 -4 21 -28 46 -54 42 -45 83
-115 84 -145 0 -8 6 -28 14 -45 47 -108 46 -204 0 -346 -20 -60 -1 -137 43
-172 21 -18 69 -93 120 -189 50 -94 68 -182 59 -291 l-7 -79 460 0 461 0 0
895 0 895 -1600 0 -1600 0 0 -895z"/>
<path d="M2023 141 l2 -131 68 0 c64 0 67 1 67 24 0 13 -8 30 -17 37 -9 8 -33 50 -54
94 -61 132 -68 130 -66 -24z"/>
</g>
</svg>
