<svg version="1.0" xmlns="http://www.w3.org/2000/svg"
 width="668px" style="transform:scale(1,1.001);" height="375.75px" viewBox="0 0 320.000000 180.000000"
 preserveAspectRatio="xMidYMid meet">
<g transform="translate(0.000000,180.000000) scale(0.100000,-0.100000)"
fill="#000000" stroke="none">
<path d="M0 905 l0 -895 660 0 660 0 -2 39 c0 21 8 58 20 82 34 74 69 181 80 249 19
114 25 217 14 236 -9 16 -16 8 -47 -58 -21 -43 -41 -78 -45 -78 -24 0 -32 33
-25 97 11 104 7 181 -11 220 -13 27 -16 56 -14 127 9 224 -4 322 -44 332 -13
3 -34 17 -47 30 -12 13 -28 24 -34 24 -7 0 -24 9 -38 20 -22 17 -25 27 -21 53
9 49 45 76 91 70 24 -3 60 3 97 16 70 25 111 26 160 6 35 -15 37 -15 45 7 4
13 11 40 15 60 10 55 28 68 97 68 50 0 63 -4 89 -27 27 -25 31 -35 32 -85 1
-32 -4 -63 -11 -71 -29 -36 -30 -73 -3 -129 24 -51 25 -61 27 -253 1 -110 6
-224 10 -253 5 -36 3 -63 -6 -85 -16 -40 -26 -47 -65 -47 -36 0 -44 -16 -44
-92 0 -115 -74 -321 -148 -412 -31 -39 -62 -101 -62 -126 0 -20 1 -20 885 -20
l885 0 0 895 0 895 -1600 0 -1600 0 0 -895z"/>
</g>
</svg>
