<svg version="1.0" xmlns="http://www.w3.org/2000/svg"
 width="668px" style="transform:scale(1,1.001);" height="375.75px" viewBox="0 0 320.000000 180.000000"
 preserveAspectRatio="xMidYMid meet">
<g transform="translate(0.000000,180.000000) scale(0.100000,-0.100000)"
fill="#000000" stroke="none">
<path d="M0 905 l0 -895 566 0 567 0 -8 43 c-13 76 3 316 24 353 5 11 15 44 20 74 14
76 29 130 68 238 31 85 33 102 31 190 -1 53 2 129 6 168 11 94 2 137 -38 182
-39 44 -63 106 -69 183 l-5 57 51 20 52 19 6 79 c3 44 13 93 22 111 10 18 17
41 17 53 0 20 -1 20 -655 20 l-655 0 0 -895z"/>
<path d="M1570 1778 c0 -12 7 -30 16 -39 18 -20 22 -107 9 -195 -9 -60 -5 -64 74 -79
41 -8 59 -17 75 -38 26 -35 27 -105 2 -139 -52 -73 -50 -60 -49 -246 l1 -177
31 -62 c17 -34 31 -64 31 -67 0 -3 33 -75 73 -158 104 -216 157 -388 157 -508
l0 -60 605 0 605 0 0 895 0 895 -815 0 -815 0 0 -22z"/>
<path d="M1473 567 c-27 -15 -56 -68 -84 -152 -11 -33 -40 -100 -64 -150 -23 -50 -46
-106 -50 -125 -4 -19 -14 -47 -21 -62 -8 -15 -14 -36 -14 -48 0 -20 4 -20 320
-20 l320 0 0 26 c0 15 -9 43 -19 63 -10 20 -27 54 -36 76 -50 114 -133 237
-235 346 -49 53 -83 66 -117 46z"/>
</g>
</svg>
