<svg version="1.0" xmlns="http://www.w3.org/2000/svg"
 width="668px" style="transform:scale(1,1.001);" height="375.75px" viewBox="0 0 320.000000 180.000000"
 preserveAspectRatio="xMidYMid meet">
<g transform="translate(0.000000,180.000000) scale(0.100000,-0.100000)"
fill="#000000" stroke="none">
<path d="M0 905 l0 -895 691 0 691 0 -5 43 c-12 86 -18 175 -21 302 -3 113 -7 138 -30
195 -17 41 -30 100 -36 159 -6 51 -13 97 -16 102 -3 5 -20 9 -38 9 -25 0 -43
-11 -83 -50 -45 -43 -56 -50 -92 -50 -37 0 -43 4 -66 40 -18 28 -25 53 -25 87
1 49 7 66 49 121 28 36 71 43 105 17 29 -22 43 -19 81 21 40 41 42 52 15 87
-20 25 -25 63 -14 102 10 36 70 65 149 72 68 5 73 4 88 -18 11 -15 17 -44 17
-81 0 -55 1 -58 28 -64 15 -4 33 -16 40 -26 7 -10 21 -18 31 -18 36 0 91 -54
126 -125 20 -38 42 -81 50 -95 7 -14 19 -54 25 -90 6 -36 16 -85 22 -110 21
-86 21 -124 0 -150 -20 -24 -21 -24 -41 -6 -20 18 -43 78 -56 146 -11 55 -36
104 -46 88 -5 -7 -9 -93 -9 -192 0 -160 -2 -182 -20 -211 -11 -17 -31 -37 -45
-43 -29 -13 -32 -39 -9 -83 8 -17 14 -42 12 -57 -3 -24 -7 -27 -41 -27 -44 0
-67 -23 -67 -67 l0 -28 870 0 870 0 0 895 0 895 -1600 0 -1600 0 0 -895z"/>
</g>
</svg>
