<svg version="1.0" xmlns="http://www.w3.org/2000/svg"
 width="668px" style="transform:scale(1,1.001);" height="375.75px" viewBox="0 0 320.000000 180.000000"
 preserveAspectRatio="xMidYMid meet">
<g transform="translate(0.000000,180.000000) scale(0.100000,-0.100000)"
fill="#000000" stroke="none">
<path d="M0 905 l0 -895 654 0 653 0 7 68 c4 37 11 119 16 182 4 63 14 144 21 180 11
57 10 77 -8 164 -11 55 -25 102 -31 104 -6 2 -18 -12 -28 -30 -9 -18 -32 -52
-50 -75 -19 -23 -34 -45 -34 -50 0 -5 -9 -19 -20 -31 -26 -28 -76 -30 -85 -3
-8 27 17 94 67 173 19 30 32 69 38 108 5 34 18 79 29 101 26 50 26 71 -1 118
-25 44 -20 80 17 117 20 20 34 24 79 24 63 0 76 -10 96 -71 17 -52 29 -63 92
-84 40 -14 49 -22 71 -68 51 -105 96 -265 97 -338 0 -19 9 -78 20 -129 11 -51
20 -125 20 -162 0 -68 0 -69 -31 -80 -27 -9 -30 -14 -26 -42 2 -17 7 -38 11
-47 4 -9 0 -25 -11 -37 -18 -22 -19 -22 -63 -5 -48 19 -109 75 -111 102 -3 39
5 58 37 91 22 23 34 46 34 63 0 28 -32 101 -48 111 -13 8 -38 -51 -61 -149
-12 -50 -26 -106 -31 -126 -6 -20 -10 -68 -10 -108 l0 -71 895 0 895 0 0 895
0 895 -1600 0 -1600 0 0 -895z"/>
</g>
</svg>
