<svg version="1.0" xmlns="http://www.w3.org/2000/svg"
 width="668px" style="transform:scale(1,1.001);" height="375.75px" viewBox="0 0 320.000000 180.000000"
 preserveAspectRatio="xMidYMid meet">
<g transform="translate(0.000000,180.000000) scale(0.100000,-0.100000)"
fill="#000000" stroke="none">
<path d="M0 905 l0 -895 1600 0 1600 0 0 895 0 895 -775 0 -775 0 0 -21 c0 -11 16 -41
35 -66 34 -45 35 -48 35 -139 0 -104 6 -114 78 -129 18 -4 36 -13 38 -20 3 -7
19 -19 35 -25 29 -13 89 -83 89 -106 0 -7 11 -34 25 -60 14 -26 25 -53 25 -59
0 -24 69 -75 101 -75 17 0 49 -11 72 -24 23 -13 57 -27 75 -31 29 -6 32 -10
32 -46 0 -35 -2 -39 -27 -41 -32 -2 -64 -5 -77 -7 -5 0 0 -11 12 -24 38 -40
54 -93 42 -137 -20 -75 -57 -65 -96 26 -24 58 -33 68 -73 88 -25 12 -66 35
-90 52 -114 76 -121 72 -121 -68 0 -96 -2 -103 -40 -183 l-40 -84 1 -130 c2
-147 -7 -174 -62 -185 -52 -10 -169 -6 -244 8 -38 8 -73 12 -76 10 -9 -5 -227
-25 -279 -25 -30 -1 -48 5 -57 16 -15 22 -6 73 18 101 11 11 19 24 19 28 0 5
27 41 61 81 61 72 85 108 133 196 24 44 24 48 10 88 -8 24 -17 70 -20 104 -7
65 -21 87 -59 87 -27 0 -90 -53 -120 -101 -27 -42 -56 -52 -99 -31 -27 13 -28
16 -21 55 5 23 7 71 6 107 -2 72 -7 65 84 109 28 13 54 30 58 37 4 8 14 14 20
14 19 0 82 70 97 107 6 18 21 35 31 38 11 4 32 17 47 30 15 13 47 28 70 34 39
11 42 14 42 46 0 25 -6 39 -24 50 -40 26 -76 87 -76 128 0 29 9 45 45 84 26
27 45 57 45 70 l0 23 -715 0 -715 0 0 -895z"/>
</g>
</svg>
