<svg version="1.0" xmlns="http://www.w3.org/2000/svg"
 width="668px" style="transform:scale(1,1.001);" height="375.75px" viewBox="0 0 320.000000 180.000000"
 preserveAspectRatio="xMidYMid meet">
<g transform="translate(0.000000,180.000000) scale(0.100000,-0.100000)"
fill="#000000" stroke="none">
<path d="M0 905 l0 -895 615 0 615 0 0 24 c0 20 -6 25 -39 31 -21 3 -54 3 -74 0 -25 -5
-42 -2 -61 10 -24 16 -35 17 -118 5 -107 -14 -108 -14 -108 78 0 43 6 73 20
99 29 54 27 67 -8 49 -16 -8 -35 -22 -42 -31 -18 -22 -104 -61 -154 -70 -24
-4 -50 -18 -65 -34 -33 -35 -48 -30 -61 19 -9 33 -7 44 12 77 39 68 118 163
183 221 69 62 195 196 195 208 0 6 13 31 30 55 16 24 30 56 30 70 0 16 16 46
40 75 22 27 40 52 40 56 0 4 20 19 45 34 25 14 54 39 66 55 20 28 20 31 4 91
-21 83 -36 189 -36 265 -1 74 17 109 85 166 45 37 45 37 138 37 87 0 96 -2
137 -30 24 -17 60 -49 80 -71 29 -35 36 -51 39 -98 4 -63 -3 -83 -57 -161
l-39 -55 21 -30 c25 -36 35 -43 67 -51 14 -4 41 -17 60 -29 19 -13 54 -26 77
-30 22 -3 56 -17 74 -31 18 -13 37 -24 42 -24 15 0 131 -74 145 -92 7 -10 20
-18 28 -18 8 0 26 -11 39 -24 13 -13 40 -29 59 -36 19 -6 53 -31 75 -55 40
-43 41 -47 41 -112 0 -48 -6 -79 -19 -104 -11 -20 -25 -65 -31 -100 -6 -35
-22 -82 -34 -104 -13 -22 -29 -56 -35 -76 -13 -40 -35 -53 -106 -64 -67 -11
-72 -14 -95 -63 -13 -26 -27 -55 -32 -64 -4 -10 -8 -29 -8 -43 l0 -25 660 0
660 0 0 895 0 895 -1600 0 -1600 0 0 -895z"/>
<path d="M1125 261 c-3 -21 -8 -67 -9 -101 -2 -40 -7 -65 -17 -71 -9 -6 5 -7 41 -3 30
4 56 8 58 9 1 1 -4 22 -12 46 -8 24 -13 53 -10 65 4 17 -29 94 -41 94 -2 0 -6
-18 -10 -39z"/>
</g>
</svg>
