<svg version="1.0" xmlns="http://www.w3.org/2000/svg"
 width="668px" style="transform:scale(1,1.001);" height="375.75px" viewBox="0 0 320.000000 180.000000"
 preserveAspectRatio="xMidYMid meet">
<g transform="translate(0.000000,180.000000) scale(0.100000,-0.100000)"
fill="#000000" stroke="none">
<path d="M0 905 l0 -895 720 0 720 0 0 21 c0 11 -9 32 -20 46 -18 23 -20 41 -20 172 0
156 21 276 75 421 13 36 31 117 39 182 8 64 29 158 46 208 16 51 30 97 30 102
0 19 -52 86 -75 96 -13 6 -36 32 -51 57 -24 42 -26 53 -21 115 6 71 17 99 67
173 44 66 95 107 132 107 44 0 98 36 98 66 l0 24 -870 0 -870 0 0 -895z"/>
<path d="M1890 1781 c0 -10 16 -42 35 -71 38 -57 43 -93 24 -177 -11 -47 -10 -52 16
-91 16 -25 40 -45 59 -52 35 -12 85 -68 107 -120 18 -45 18 -282 0 -360 -16
-68 -49 -119 -98 -150 -73 -46 -87 -73 -94 -180 -4 -52 -8 -160 -9 -240 -2
-131 -5 -169 -26 -293 l-6 -37 651 0 651 0 0 895 0 895 -655 0 c-637 0 -655
-1 -655 -19z"/>
<path d="M1643 1493 c-24 -9 -13 -23 17 -23 20 0 30 5 30 15 0 15 -22 19 -47 8z"/>
<path d="M1672 180 c0 -14 2 -19 5 -12 2 6 2 18 0 25 -3 6 -5 1 -5 -13z"/>
<path d="M1643 66 c-14 -6 -23 -20 -23 -33 0 -20 5 -23 40 -23 34 0 40 3 40 21 0 18
-22 51 -32 48 -2 -1 -13 -6 -25 -13z"/>
</g>
</svg>
