<svg version="1.0" xmlns="http://www.w3.org/2000/svg"
 width="668px" style="transform:scale(1,1.001);" height="375.75px" viewBox="0 0 320.000000 180.000000"
 preserveAspectRatio="xMidYMid meet">
<g transform="translate(0.000000,180.000000) scale(0.100000,-0.100000)"
fill="#000000" stroke="none">
<path d="M0 905 l0 -895 586 0 587 0 -9 43 c-5 23 -9 130 -9 237 0 107 -4 201 -9 209
-13 21 -126 9 -169 -18 -19 -12 -61 -26 -93 -33 -33 -6 -68 -19 -79 -28 -11
-10 -36 -23 -56 -29 -20 -6 -47 -23 -59 -36 -13 -14 -42 -30 -64 -36 -22 -6
-46 -19 -53 -29 -7 -10 -36 -23 -65 -30 -29 -7 -62 -21 -74 -32 -12 -10 -38
-24 -59 -29 -21 -6 -51 -20 -66 -31 -43 -32 -95 -18 -145 40 -53 62 -57 69
-65 122 -12 76 31 130 72 91 45 -42 219 -39 259 5 13 13 39 29 59 35 20 6 47
22 61 34 14 12 38 26 54 29 16 4 43 18 59 32 16 13 34 24 40 24 6 0 22 10 36
23 15 13 45 29 68 36 24 6 47 20 52 30 6 10 31 26 56 35 25 10 45 22 45 27 0
5 26 22 57 37 102 50 122 65 139 107 8 22 22 47 30 55 7 9 20 34 28 57 36 102
-54 97 -182 -9 -66 -56 -112 -46 -112 24 0 53 39 118 96 160 25 18 58 43 74
56 15 12 44 29 64 37 20 8 43 27 52 41 10 14 40 40 68 59 28 18 64 45 79 59
l29 25 -27 67 c-29 72 -30 116 -4 170 12 25 22 30 72 38 46 7 68 6 100 -5 65
-24 79 -51 82 -163 l2 -96 55 -62 c117 -134 137 -211 90 -353 -16 -49 -33
-104 -37 -122 -3 -17 -13 -37 -21 -43 -7 -7 -19 -31 -25 -54 -8 -29 -28 -57
-70 -97 -32 -30 -64 -71 -71 -90 -6 -19 -19 -44 -28 -56 -10 -13 -21 -39 -25
-59 -3 -20 -15 -48 -25 -63 -11 -14 -24 -55 -29 -91 -6 -37 -20 -77 -32 -94
-15 -20 -24 -52 -29 -100 -5 -39 -11 -90 -15 -113 l-8 -43 932 0 931 0 0 895
0 895 -1600 0 -1600 0 0 -895z"/>
</g>
</svg>
