<svg version="1.0" xmlns="http://www.w3.org/2000/svg"
 width="668px" style="transform:scale(1,1.001);" height="375.75px" viewBox="0 0 320.000000 180.000000"
 preserveAspectRatio="xMidYMid meet">
<g transform="translate(0.000000,180.000000) scale(0.100000,-0.100000)"
fill="#000000" stroke="none">
<path d="M0 905 l0 -895 320 0 320 0 0 24 c0 17 -9 27 -30 36 -30 13 -34 20 -46 82 -3
21 -12 42 -20 49 -8 6 -14 23 -14 36 0 20 3 24 18 18 26 -12 133 -23 170 -17
22 3 39 14 50 31 8 14 22 31 29 37 22 19 62 77 82 122 11 23 24 42 29 42 5 0
15 14 22 30 7 17 15 30 19 30 5 0 38 31 97 93 11 12 33 57 49 100 20 57 35 82
52 90 13 5 23 13 23 17 0 4 22 19 48 33 63 34 86 82 111 228 11 63 27 134 36
159 34 93 36 112 13 157 -12 24 -25 43 -28 43 -4 0 -24 21 -44 47 -32 41 -36
53 -36 104 0 90 16 103 133 107 58 3 103 -1 116 -7 25 -14 47 -63 67 -151 10
-42 24 -73 40 -88 39 -37 97 -122 127 -187 16 -33 35 -71 42 -85 37 -65 58
-118 60 -145 2 -37 -36 -81 -77 -90 -36 -8 -53 -41 -69 -129 -10 -60 -17 -74
-56 -115 -25 -25 -57 -71 -73 -101 -15 -30 -46 -91 -69 -134 -57 -111 -85
-200 -83 -266 0 -30 2 -88 3 -127 l2 -73 883 0 884 0 0 895 0 895 -1600 0
-1600 0 0 -895z"/>
<path d="M1155 423 c-19 -15 -61 -78 -94 -142 -19 -38 -54 -84 -83 -110 -28 -25 -66
-61 -84 -78 -18 -18 -38 -33 -44 -33 -5 0 -10 -11 -10 -25 l0 -25 205 0 205 0
0 23 c0 12 -8 34 -17 47 -15 21 -18 49 -18 185 l0 160 -25 3 c-14 1 -30 -1
-35 -5z"/>
</g>
</svg>
