<svg version="1.0" xmlns="http://www.w3.org/2000/svg"
 width="668px" style="transform:scale(1,1.001);" height="375.75px" viewBox="0 0 320.000000 180.000000"
 preserveAspectRatio="xMidYMid meet">
<g transform="translate(0.000000,180.000000) scale(0.100000,-0.100000)"
fill="#000000" stroke="none">
<path d="M0 905 l0 -895 1600 0 1600 0 0 895 0 895 -1600 0 -1600 0 0 -895z m1677 690
c48 -14 97 -34 108 -43 11 -10 32 -26 47 -35 15 -10 37 -36 49 -60 12 -23 28
-46 35 -50 23 -14 16 -84 -15 -151 -16 -33 -32 -75 -35 -92 -4 -18 -20 -43
-37 -58 -24 -21 -29 -34 -29 -70 0 -38 5 -48 39 -79 24 -22 61 -41 97 -52 33
-9 64 -21 71 -27 7 -5 34 -15 60 -22 91 -24 232 -138 279 -226 11 -19 31 -50
47 -68 15 -18 27 -42 27 -53 0 -11 15 -36 34 -55 19 -20 38 -53 45 -78 13 -52
37 -83 93 -122 24 -16 46 -33 50 -39 14 -19 9 -122 -7 -135 -11 -9 -54 -11
-161 -8 -133 4 -148 6 -163 25 -9 11 -33 23 -54 26 -33 5 -39 3 -49 -17 -15
-34 -51 -36 -458 -24 -195 5 -402 8 -460 6 -58 -1 -234 -3 -391 -3 -252 0
-289 2 -312 17 -14 10 -28 27 -32 38 -3 11 -13 20 -22 20 -22 0 -112 60 -117
79 -12 43 -15 89 -8 112 7 27 74 89 133 124 18 11 43 27 54 35 11 8 36 24 54
35 18 11 51 34 72 50 79 62 118 90 168 120 18 11 49 30 68 43 19 12 54 27 79
32 24 6 66 21 92 35 58 31 187 85 201 85 5 0 22 16 37 35 l27 36 -18 65 c-12
44 -28 77 -50 99 -17 19 -37 51 -43 73 -6 21 -25 51 -42 67 -42 40 -42 95 -1
126 17 12 35 35 42 51 6 16 26 38 43 50 17 12 36 29 42 36 5 8 35 26 65 42 71
36 134 37 246 5z"/>
<path d="M1214 280 c-148 -11 -174 -17 -174 -41 0 -23 -3 -23 132 -43 184 -28 306 -32
368 -11 41 14 68 16 119 10 36 -4 89 -6 118 -6 28 1 67 -4 86 -12 21 -9 40
-11 48 -6 8 5 23 9 35 9 11 0 42 11 70 24 27 13 66 27 87 30 109 19 -20 38
-288 42 -99 1 -250 5 -335 7 -85 3 -205 2 -266 -3z"/>
</g>
</svg>
