<svg version="1.0" xmlns="http://www.w3.org/2000/svg"
 width="668px" style="transform:scale(1,1.001);" height="375.75px" viewBox="0 0 320.000000 180.000000"
 preserveAspectRatio="xMidYMid meet">
<g transform="translate(0.000000,180.000000) scale(0.100000,-0.100000)"
fill="#000000" stroke="none">
<path d="M0 905 l0 -895 726 0 726 0 -8 68 c-4 37 -8 125 -8 197 -1 151 0 149 -98 119
l-59 -17 -42 29 c-34 24 -42 37 -44 65 -2 18 -6 53 -9 75 -8 56 15 99 57 108
17 3 68 6 113 6 44 0 86 4 91 8 6 4 12 21 13 37 2 17 13 66 24 110 11 44 23
117 25 162 8 109 -12 150 -131 266 -50 49 -98 107 -108 129 -35 79 -16 170 49
229 65 60 213 89 273 54 14 -8 36 -19 50 -25 49 -22 73 -75 80 -182 5 -89 8
-99 33 -122 15 -14 27 -30 27 -35 0 -6 14 -17 30 -26 17 -9 30 -22 30 -30 0
-8 10 -19 23 -26 46 -23 123 -139 153 -229 32 -94 57 -330 58 -545 1 -162 -1
-188 -23 -261 -19 -66 -29 -85 -52 -98 -19 -11 -29 -25 -29 -42 l0 -24 615 0
615 0 0 895 0 895 -1600 0 -1600 0 0 -895z"/>
</g>
</svg>
