<svg version="1.0" xmlns="http://www.w3.org/2000/svg"
 width="668px" style="transform:scale(1,1.001);" height="375.75px" viewBox="0 0 320.000000 180.000000"
 preserveAspectRatio="xMidYMid meet">
<g transform="translate(0.000000,180.000000) scale(0.100000,-0.100000)"
fill="#000000" stroke="none">
<path d="M0 905 l0 -895 525 0 525 0 0 28 c1 15 8 45 16 67 19 52 54 190 54 217 0 25
83 271 117 348 46 103 85 215 90 257 5 38 1 47 -38 94 -41 47 -44 55 -43 107
1 64 19 107 85 195 32 43 58 65 102 87 33 17 67 30 76 30 9 0 38 25 64 55 38
43 55 55 77 55 55 0 149 -82 150 -132 0 -7 -14 -41 -32 -75 l-33 -62 29 -84
c25 -72 28 -94 24 -155 -5 -61 -11 -82 -42 -131 -20 -33 -36 -68 -36 -78 0
-10 18 -64 41 -118 55 -136 89 -243 89 -286 0 -19 4 -60 9 -90 5 -30 13 -116
16 -191 l7 -138 664 0 664 0 0 895 0 895 -1600 0 -1600 0 0 -895z"/>
<path d="M1495 659 c-11 -4 -36 -23 -55 -42 -92 -91 -142 -179 -174 -300 -32 -120 -74
-233 -93 -248 -7 -6 -13 -22 -13 -35 l0 -24 306 0 306 0 -7 78 c-4 42 -13 100
-20 127 -8 28 -21 85 -31 128 -17 79 -27 101 -112 236 -48 76 -72 94 -107 80z"/>
</g>
</svg>
