<svg version="1.0" xmlns="http://www.w3.org/2000/svg"
 width="668px" style="transform:scale(1,1.001);" height="375.75px" viewBox="0 0 320.000000 180.000000"
 preserveAspectRatio="xMidYMid meet">
<g transform="translate(0.000000,180.000000) scale(0.100000,-0.100000)"
fill="#000000" stroke="none">
<path d="M0 905 l0 -895 1600 0 1600 0 0 895 0 895 -860 0 -860 0 0 -24 c0 -16 7 -27
19 -31 17 -5 86 -69 125 -115 28 -32 35 -59 32 -121 -1 -50 -8 -76 -29 -111
-15 -26 -27 -53 -27 -61 0 -8 -11 -39 -25 -69 -34 -74 -33 -107 8 -146 18 -18
43 -32 54 -32 12 0 34 -11 50 -24 17 -15 48 -26 81 -31 33 -4 63 -16 81 -31
16 -13 38 -24 48 -24 21 0 143 -115 143 -135 0 -7 11 -23 23 -37 16 -17 26
-43 30 -75 3 -28 15 -67 26 -89 11 -21 24 -71 30 -111 6 -39 15 -83 21 -98 17
-45 12 -100 -11 -121 -20 -18 -49 -19 -733 -22 -391 -1 -721 0 -733 3 -30 7
-43 54 -43 157 0 79 3 94 30 145 17 31 30 62 30 70 0 31 64 123 124 177 62 56
96 80 181 127 64 35 103 68 109 94 4 15 -5 45 -25 87 -54 111 -125 234 -153
266 -17 20 -21 37 -21 99 l0 76 70 64 c39 36 82 71 98 79 18 10 27 22 27 39
l0 25 -560 0 -560 0 0 -895z"/>
</g>
</svg>
