<svg version="1.0" xmlns="http://www.w3.org/2000/svg"
 width="668px" style="transform:scale(1,1.001);" height="375.75px" viewBox="0 0 320.000000 180.000000"
 preserveAspectRatio="xMidYMid meet">
<g transform="translate(0.000000,180.000000) scale(0.100000,-0.100000)"
fill="#000000" stroke="none">
<path d="M0 905 l0 -895 1600 0 1600 0 0 895 0 895 -1600 0 -1600 0 0 -895z m1820 712
c80 -29 160 -85 206 -145 31 -41 34 -51 34 -112 0 -51 -6 -78 -23 -111 -13
-24 -27 -57 -31 -73 -4 -17 -16 -43 -28 -58 -12 -18 -22 -51 -25 -86 -6 -73
17 -119 74 -147 22 -11 47 -25 54 -32 8 -6 34 -16 59 -23 25 -7 52 -18 61 -26
8 -7 31 -19 50 -25 37 -13 132 -99 153 -139 48 -90 48 -90 45 -175 -4 -80 -6
-86 -37 -117 l-32 -33 -593 -3 c-325 -2 -606 0 -624 3 -36 6 -71 48 -79 92 -3
15 -1 47 5 72 5 25 12 63 16 83 3 20 16 49 28 64 36 44 100 105 122 115 11 5
43 23 70 39 28 16 64 37 80 46 71 40 105 77 121 130 15 51 14 54 -10 101 -14
26 -34 56 -45 65 -11 9 -23 33 -26 52 -4 19 -16 42 -26 52 -10 9 -19 24 -19
31 0 8 -9 26 -20 40 -14 18 -20 41 -20 77 0 50 1 52 83 139 68 71 94 91 138
106 75 27 159 26 239 -2z"/>
</g>
</svg>
