<svg version="1.0" xmlns="http://www.w3.org/2000/svg"
 width="668px" style="transform:scale(1,1.001);" height="375.75px" viewBox="0 0 320.000000 180.000000"
 preserveAspectRatio="xMidYMid meet">
<g transform="translate(0.000000,180.000000) scale(0.100000,-0.100000)"
fill="#000000" stroke="none">
<path d="M0 905 l0 -895 1600 0 1600 0 0 895 0 895 -1600 0 -1600 0 0 -895z m1647 755
c21 -11 43 -20 49 -20 17 0 72 -65 89 -107 20 -48 19 -99 -5 -168 -32 -93 -28
-126 23 -174 23 -22 47 -41 53 -41 6 0 21 -11 34 -25 13 -14 32 -25 41 -25 10
0 32 -13 49 -30 17 -17 37 -30 45 -30 25 0 123 -121 129 -159 33 -194 44 -276
63 -471 10 -104 -72 -122 -552 -122 -338 0 -513 7 -557 24 -34 13 -53 57 -44
106 4 20 11 79 16 130 4 51 15 103 23 115 7 12 17 42 20 67 3 24 12 49 21 55
8 6 18 24 22 40 12 48 63 113 137 176 123 102 144 123 150 149 6 26 -7 50 -93
170 -64 89 -70 100 -69 145 0 47 10 67 62 125 68 74 219 110 294 70z"/>
</g>
</svg>
