<svg version="1.0" xmlns="http://www.w3.org/2000/svg"
 width="668px" style="transform:scale(1,1.001);" height="375.75px" viewBox="0 0 320.000000 180.000000"
 preserveAspectRatio="xMidYMid meet">
<g transform="translate(0.000000,180.000000) scale(0.100000,-0.100000)"
fill="#000000" stroke="none">
<path d="M0 905 l0 -895 1600 0 1600 0 0 895 0 895 -1600 0 -1600 0 0 -895z m1615 740
c98 -28 173 -111 162 -179 -12 -68 -39 -162 -53 -177 -8 -8 -14 -36 -14 -60 0
-39 4 -47 30 -62 17 -10 30 -23 30 -28 0 -5 19 -18 43 -28 23 -10 48 -26 56
-35 7 -9 19 -16 26 -16 11 0 78 -47 99 -69 39 -42 50 -58 71 -106 14 -29 25
-64 25 -77 0 -13 7 -48 15 -78 9 -30 22 -98 30 -150 8 -52 19 -115 24 -139 10
-52 -2 -107 -28 -121 -22 -11 -1041 -18 -1089 -6 -48 11 -66 53 -58 130 31
286 89 435 203 526 25 19 68 56 97 83 29 26 57 47 61 47 5 0 17 7 27 17 29 26
23 77 -19 141 -115 178 -119 240 -22 334 21 20 55 42 76 47 21 6 45 16 53 21
19 13 77 8 155 -15z"/>
</g>
</svg>
