<svg version="1.0" xmlns="http://www.w3.org/2000/svg"
 width="668px" style="transform:scale(1,1.001);" height="375.75px" viewBox="0 0 320.000000 180.000000"
 preserveAspectRatio="xMidYMid meet">
<g transform="translate(0.000000,180.000000) scale(0.100000,-0.100000)"
fill="#000000" stroke="none">
<path d="M0 905 l0 -895 1600 0 1600 0 0 895 0 895 -1600 0 -1600 0 0 -895z m1622 693
c61 -42 71 -73 52 -165 -8 -38 -12 -73 -10 -80 6 -14 99 -63 120 -63 32 0 117
-22 129 -34 6 -7 34 -18 61 -25 27 -7 62 -19 78 -27 16 -8 74 -19 129 -24 61
-5 109 -14 124 -24 13 -9 45 -20 72 -26 77 -17 111 -40 143 -97 17 -29 30 -59
30 -67 0 -33 -24 -65 -53 -72 -26 -5 -34 -1 -66 34 -20 22 -58 52 -86 66 -49
26 -54 26 -260 26 -151 0 -214 -3 -223 -12 -8 -8 -12 -53 -12 -137 0 -106 -4
-133 -21 -171 -25 -54 -27 -130 -5 -182 9 -21 16 -62 16 -92 0 -49 -3 -57 -34
-84 l-34 -30 -226 2 c-189 1 -228 3 -237 16 -18 27 -1 160 26 200 21 31 24 48
26 136 1 55 -1 105 -4 112 -5 7 -18 8 -40 1 -49 -14 -80 -11 -133 12 -40 18
-60 21 -128 16 -105 -7 -142 11 -129 63 6 27 30 54 72 82 28 19 114 23 188 9
37 -7 47 -5 78 17 27 20 35 32 35 56 0 46 17 97 40 118 11 10 20 23 20 29 0 5
16 26 36 46 36 35 36 38 31 98 -3 44 -11 72 -28 95 -18 23 -24 45 -24 80 0 44
4 53 38 84 47 43 50 44 111 45 40 1 59 -5 98 -31z"/>
</g>
</svg>
