<svg version="1.0" xmlns="http://www.w3.org/2000/svg"
 width="668px" style="transform:scale(1,1.001);" height="375.75px" viewBox="0 0 320.000000 180.000000"
 preserveAspectRatio="xMidYMid meet">
<g transform="translate(0.000000,180.000000) scale(0.100000,-0.100000)"
fill="#000000" stroke="none">
<path d="M0 905 l0 -895 1600 0 1600 0 0 895 0 895 -1600 0 -1600 0 0 -895z m1384 660
c22 -23 36 -84 33 -148 -2 -45 2 -61 20 -84 89 -113 102 -193 58 -341 l-27
-92 26 -46 c14 -26 26 -51 26 -56 0 -5 16 -29 35 -52 41 -51 82 -136 91 -192
5 -37 3 -44 -29 -77 -20 -22 -44 -37 -57 -37 -27 0 -193 54 -232 75 -14 8 -29
15 -33 15 -8 0 -65 -126 -77 -170 -5 -19 -13 -64 -18 -100 -18 -133 -26 -176
-34 -188 -4 -6 -23 -12 -42 -12 -27 0 -36 5 -42 23 -12 33 4 471 23 626 19
159 12 196 -56 299 -36 55 -42 73 -47 132 -8 109 46 259 100 276 37 11 78 56
89 97 6 23 16 48 21 55 16 19 152 16 172 -3z"/>
</g>
</svg>
