<svg version="1.0" xmlns="http://www.w3.org/2000/svg"
 width="668px" style="transform:scale(1,1.001);" height="375.75px" viewBox="0 0 320.000000 180.000000"
 preserveAspectRatio="xMidYMid meet">
<g transform="translate(0.000000,180.000000) scale(0.100000,-0.100000)"
fill="#000000" stroke="none">
<path d="M0 905 l0 -895 1600 0 1600 0 0 895 0 895 -1600 0 -1600 0 0 -895z m1509 805
c52 -35 81 -79 81 -121 0 -32 -25 -88 -47 -104 -16 -12 -33 -69 -24 -82 14
-20 86 -56 129 -65 28 -5 58 -19 75 -36 52 -49 60 -77 65 -214 4 -118 3 -129
-18 -163 -14 -23 -38 -44 -65 -55 -23 -10 -52 -31 -64 -46 -31 -39 -22 -82 49
-229 107 -222 120 -265 83 -280 -30 -11 -175 -6 -255 9 -66 13 -87 13 -155 1
-99 -18 -224 -19 -245 -3 -26 22 -27 53 -1 170 22 99 23 120 14 174 -6 34 -11
77 -11 97 0 40 -20 83 -48 102 -23 17 -81 111 -106 175 -11 28 -18 71 -18 116
0 78 19 127 73 189 34 38 60 43 114 23 29 -10 36 -8 70 17 35 27 37 31 31 69
-19 125 -18 170 6 210 32 54 78 76 158 76 56 0 71 -5 109 -30z"/>
</g>
</svg>
