<svg version="1.0" xmlns="http://www.w3.org/2000/svg"
 width="668px" style="transform:scale(1,1.001);" height="375.75px" viewBox="0 0 320.000000 180.000000"
 preserveAspectRatio="xMidYMid meet">
<g transform="translate(0.000000,180.000000) scale(0.100000,-0.100000)"
fill="#000000" stroke="none">
<path d="M0 905 l0 -895 644 0 644 0 6 128 c7 127 18 234 36 347 12 71 5 182 -16 245
-15 46 -52 241 -61 320 -3 25 -1 70 5 100 18 102 -7 154 -63 128 -36 -16 -46
1 -43 77 l3 60 49 3 c38 3 58 10 83 33 24 21 44 29 71 29 61 0 67 10 67 97 0
76 0 78 30 92 17 8 60 15 97 15 53 1 72 -3 95 -20 41 -31 41 -69 -1 -156 -20
-39 -36 -82 -36 -94 0 -12 19 -46 43 -76 53 -67 87 -115 87 -124 0 -6 64 -69
127 -124 15 -14 42 -32 58 -40 35 -17 71 -79 62 -103 -11 -29 -69 -22 -105 13
-21 20 -42 30 -62 30 -21 0 -35 8 -46 26 -10 14 -23 23 -31 20 -20 -8 -50 10
-58 33 -7 22 -17 27 -78 36 l-46 7 -11 -43 c-10 -35 -9 -79 5 -222 19 -187 16
-276 -10 -362 -14 -50 -33 -150 -42 -232 -7 -60 12 -108 52 -133 35 -21 54
-52 36 -58 -6 -2 -11 -15 -11 -28 l0 -24 810 0 810 0 0 895 0 895 -1600 0
-1600 0 0 -895z"/>
</g>
</svg>
