<svg version="1.0" xmlns="http://www.w3.org/2000/svg"
 width="668px" style="transform:scale(1,1.001);" height="375.75px" viewBox="0 0 320.000000 180.000000"
 preserveAspectRatio="xMidYMid meet">
<g transform="translate(0.000000,180.000000) scale(0.100000,-0.100000)"
fill="#000000" stroke="none">
<path d="M0 905 l0 -895 661 0 662 0 -8 38 c-4 20 -14 95 -24 167 l-16 130 -40 9 c-22
4 -61 17 -87 29 -62 26 -70 60 -39 156 12 36 21 72 21 80 0 8 7 23 17 33 11
12 19 46 23 101 8 88 24 162 46 215 21 49 83 120 112 127 14 3 38 17 54 30 15
13 41 26 58 30 22 5 36 17 49 43 19 37 19 38 -5 142 -41 185 -31 226 73 313
46 38 50 39 103 34 99 -9 241 -102 267 -174 28 -82 11 -145 -60 -224 -62 -69
-63 -98 -6 -154 120 -118 189 -201 228 -273 15 -29 34 -307 29 -432 -3 -75 -9
-105 -28 -142 -13 -27 -27 -48 -30 -48 -4 0 -24 -33 -44 -74 -21 -41 -46 -82
-57 -92 -10 -9 -19 -28 -19 -41 l0 -23 630 0 630 0 0 895 0 895 -1600 0 -1600
0 0 -895z"/>
</g>
</svg>
