<svg version="1.0" xmlns="http://www.w3.org/2000/svg"
 width="668px" style="transform:scale(1,1.001);" height="375.75px" viewBox="0 0 320.000000 180.000000"
 preserveAspectRatio="xMidYMid meet">
<g transform="translate(0.000000,180.000000) scale(0.100000,-0.100000)"
fill="#000000" stroke="none">
<path d="M0 905 l0 -895 715 0 715 0 0 23 c0 12 -10 56 -21 97 -30 103 -33 359 -6 434
17 47 25 151 13 163 -8 8 -45 -37 -52 -64 -3 -13 -10 -23 -15 -23 -5 0 -14
-11 -19 -24 -5 -13 -18 -27 -28 -30 -20 -7 -42 -85 -42 -147 0 -46 -37 -97
-78 -109 -21 -5 -44 -10 -53 -10 -28 0 -61 46 -66 93 -6 53 11 89 70 150 23
24 49 57 57 73 8 16 32 59 53 96 44 77 72 157 82 241 9 68 28 108 78 161 29
31 37 48 37 77 0 21 -4 40 -9 43 -18 12 -31 91 -20 130 17 61 49 86 109 86 46
0 54 -4 84 -37 31 -33 34 -43 38 -109 4 -78 23 -114 61 -114 28 0 103 -51 116
-78 21 -44 61 -201 61 -238 0 -20 -12 -62 -27 -93 -26 -55 -27 -62 -35 -320
-8 -272 -17 -358 -43 -397 -8 -13 -15 -35 -15 -49 l0 -25 720 0 720 0 0 895 0
895 -1600 0 -1600 0 0 -895z"/>
<path d="M1574 338 c-22 -43 -30 -155 -14 -203 7 -21 12 -57 12 -81 -1 -43 -1 -44 32
-44 l33 0 -2 148 c-3 163 -10 212 -31 212 -7 0 -21 -15 -30 -32z"/>
</g>
</svg>
