<svg version="1.0" xmlns="http://www.w3.org/2000/svg"
 width="668px" style="transform:scale(1,1.001);" height="375.75px" viewBox="0 0 320.000000 180.000000"
 preserveAspectRatio="xMidYMid meet">
<g transform="translate(0.000000,180.000000) scale(0.100000,-0.100000)"
fill="#000000" stroke="none">
<path d="M0 905 l0 -895 680 0 680 0 0 25 c0 14 -6 25 -13 25 -7 0 -21 6 -31 13 -17 13
-17 16 7 64 32 62 29 78 -39 169 -96 131 -110 182 -74 266 27 66 97 205 116
232 32 46 -2 113 -73 150 -30 15 -39 15 -98 1 -128 -29 -208 -125 -168 -200
12 -21 7 -72 -8 -81 -5 -3 -29 4 -53 15 -62 27 -79 64 -80 171 -1 72 3 91 22
122 21 33 28 37 78 44 39 4 70 17 107 42 29 19 54 39 55 44 2 4 30 29 63 54
67 51 70 61 39 142 -35 92 -1 142 97 142 90 0 114 -24 123 -124 5 -59 5 -59
45 -72 22 -8 52 -21 67 -29 14 -8 33 -15 42 -15 8 0 59 -43 112 -95 54 -52
101 -95 105 -95 7 0 71 -90 121 -169 19 -29 23 -77 8 -86 -5 -3 -10 -21 -10
-38 0 -39 -8 -52 -36 -61 -17 -5 -27 1 -48 28 -14 19 -26 40 -26 47 0 21 -57
133 -77 151 -10 10 -30 19 -44 20 -24 3 -24 2 -25 -77 0 -44 -4 -147 -9 -230
-8 -154 -2 -216 31 -372 23 -107 14 -157 -31 -161 -49 -5 -65 16 -75 90 -7 60
-27 130 -82 286 -10 29 -18 73 -18 98 0 58 -22 69 -56 28 -42 -50 -53 -87 -43
-136 12 -52 50 -119 97 -172 32 -36 34 -42 29 -88 -8 -63 -35 -108 -69 -115
-21 -4 -28 -11 -28 -29 l0 -24 895 0 895 0 0 895 0 895 -1600 0 -1600 0 0
-895z"/>
</g>
</svg>
