<svg version="1.0" xmlns="http://www.w3.org/2000/svg"
 width="668px" style="transform:scale(1,1.001);" height="375.75px" viewBox="0 0 320.000000 180.000000"
 preserveAspectRatio="xMidYMid meet">
<g transform="translate(0.000000,180.000000) scale(0.100000,-0.100000)"
fill="#000000" stroke="none">
<path d="M0 905 l0 -895 1600 0 1600 0 0 895 0 895 -1600 0 -1600 0 0 -895z m1550 300
c85 -18 105 -28 145 -70 58 -63 68 -79 82 -134 18 -69 12 -137 -22 -236 -42
-121 -32 -161 45 -183 19 -6 73 -24 120 -41 47 -17 92 -31 100 -31 9 0 40 -13
71 -29 30 -16 66 -32 80 -36 46 -15 128 -85 129 -111 0 -7 -7 -15 -15 -18 -27
-10 -1218 -7 -1228 3 -19 19 1 48 63 89 85 56 108 78 95 96 -42 58 -85 125
-95 146 -6 14 -22 43 -35 65 -29 47 -66 122 -76 150 -8 26 22 83 84 160 90
110 168 158 286 175 41 6 77 13 80 15 7 7 13 7 91 -10z"/>
</g>
</svg>
