<svg version="1.0" xmlns="http://www.w3.org/2000/svg"
 width="668px" style="transform:scale(1,1.001);" height="375.75px" viewBox="0 0 320.000000 180.000000"
 preserveAspectRatio="xMidYMid meet">
<g transform="translate(0.000000,180.000000) scale(0.100000,-0.100000)"
fill="#000000" stroke="none">
<path d="M0 905 l0 -895 543 0 543 0 13 73 c7 39 16 137 21 217 9 173 17 231 40 330 27
110 48 176 78 239 18 37 26 70 24 96 -9 164 -5 232 17 303 23 75 27 80 130
143 24 14 26 23 31 97 4 72 8 85 33 109 54 54 155 21 179 -58 9 -30 8 -47 -6
-88 -23 -72 -21 -88 24 -138 22 -25 45 -64 51 -87 13 -49 5 -170 -16 -240 -8
-27 -15 -65 -15 -85 0 -20 -7 -47 -15 -61 -46 -80 -48 -89 -35 -200 7 -58 21
-136 32 -175 19 -70 57 -353 58 -432 l0 -43 735 0 735 0 0 895 0 895 -1600 0
-1600 0 0 -895z"/>
<path d="M1354 648 c-15 -29 -38 -73 -51 -98 -32 -63 -72 -309 -71 -439 l0 -101 200 0
200 0 -6 63 c-16 156 -93 410 -174 577 -33 69 -62 68 -98 -2z"/>
</g>
</svg>
