<svg version="1.0" xmlns="http://www.w3.org/2000/svg"
 width="668px" style="transform:scale(1,1.001);" height="375.75px" viewBox="0 0 320.000000 180.000000"
 preserveAspectRatio="xMidYMid meet">
<g transform="translate(0.000000,180.000000) scale(0.100000,-0.100000)"
fill="#000000" stroke="none">
<path d="M0 905 l0 -895 510 0 510 0 0 63 c1 44 14 106 46 212 69 228 69 231 56 332 -6
48 -16 108 -21 133 -6 25 -15 108 -21 185 -5 77 -18 181 -26 231 -30 167 -9
253 86 352 35 35 56 68 65 100 12 40 20 50 48 60 50 18 61 16 147 -27 8 -4 31
-39 51 -79 19 -39 42 -79 50 -89 37 -45 53 -152 29 -197 -11 -21 -21 -26 -54
-26 -74 0 -113 -11 -126 -34 -8 -17 -9 -62 -1 -182 9 -145 13 -167 45 -250 38
-98 56 -186 56 -276 0 -71 -12 -104 -53 -145 -56 -56 -68 -70 -103 -125 -39
-60 -71 -139 -80 -198 l-7 -40 997 0 996 0 0 895 0 895 -1600 0 -1600 0 0
-895z"/>
</g>
</svg>
