<svg version="1.0" xmlns="http://www.w3.org/2000/svg"
 width="668px" style="transform:scale(1,1.001);" height="375.75px" viewBox="0 0 320.000000 180.000000"
 preserveAspectRatio="xMidYMid meet">
<g transform="translate(0.000000,180.000000) scale(0.100000,-0.100000)"
fill="#000000" stroke="none">
<path d="M0 905 l0 -895 1600 0 1600 0 0 895 0 895 -1600 0 -1600 0 0 -895z m1874 741
c99 -23 153 -107 140 -212 -4 -27 -15 -66 -25 -86 -11 -21 -19 -58 -19 -86 0
-43 6 -56 40 -100 22 -27 55 -59 73 -71 112 -71 185 -138 232 -212 31 -47 32
-54 39 -190 5 -109 11 -153 26 -187 25 -55 27 -153 5 -172 -11 -9 -83 -14
-263 -16 -136 -2 -292 -6 -346 -9 -55 -4 -181 -8 -280 -9 -175 -4 -181 -3
-217 20 -46 29 -53 48 -39 109 9 38 8 50 -2 56 -22 15 -32 4 -45 -49 -23 -90
-58 -112 -180 -112 -114 0 -138 14 -129 74 26 178 62 284 115 337 32 33 129
99 145 99 6 0 43 30 81 66 109 102 149 133 186 145 19 7 43 20 54 30 11 10 39
22 61 27 53 12 124 68 124 97 0 12 -30 60 -66 107 -57 75 -66 93 -71 140 -7
65 7 95 69 155 35 35 53 44 98 52 81 13 128 12 194 -3z"/>
</g>
</svg>
