<svg version="1.0" xmlns="http://www.w3.org/2000/svg"
 width="668px" style="transform:scale(1,1.001);" height="375.75px" viewBox="0 0 320.000000 180.000000"
 preserveAspectRatio="xMidYMid meet">
<g transform="translate(0.000000,180.000000) scale(0.100000,-0.100000)"
fill="#000000" stroke="none">
<path d="M0 905 l0 -895 745 0 745 0 0 24 c0 13 -7 27 -16 30 -8 3 -13 10 -9 15 11 18
-39 40 -107 47 l-67 7 -61 69 c-85 98 -91 139 -22 162 58 20 72 59 84 235 7
116 15 165 28 193 49 96 34 147 -88 298 -101 124 -116 156 -109 227 6 60 23
88 77 132 32 26 52 33 104 38 85 8 126 -1 172 -38 63 -50 83 -93 84 -176 0
-69 1 -73 38 -110 20 -21 57 -49 81 -63 24 -14 58 -37 76 -52 18 -16 36 -28
40 -28 4 0 18 -10 31 -22 12 -13 37 -36 54 -53 43 -42 76 -112 111 -235 5 -19
14 -44 19 -55 64 -140 112 -351 100 -431 -8 -49 -48 -132 -75 -154 -8 -7 -15
-23 -15 -36 l0 -24 590 0 590 0 0 895 0 895 -1600 0 -1600 0 0 -895z"/>
</g>
</svg>
