<svg version="1.0" xmlns="http://www.w3.org/2000/svg"
 width="668px" style="transform:scale(1,1.001);" height="375.75px" viewBox="0 0 320.000000 180.000000"
 preserveAspectRatio="xMidYMid meet">
<g transform="translate(0.000000,180.000000) scale(0.100000,-0.100000)"
fill="#000000" stroke="none">
<path d="M0 905 l0 -895 1600 0 1600 0 0 895 0 895 -1600 0 -1600 0 0 -895z m1843 735
c31 -11 63 -20 70 -20 17 0 80 -46 125 -92 89 -91 104 -170 51 -273 -17 -33
-42 -71 -54 -85 -87 -96 -85 -214 5 -260 21 -11 41 -24 45 -30 3 -5 17 -10 30
-10 27 0 75 -19 75 -31 0 -4 17 -14 38 -22 45 -18 93 -69 111 -118 7 -18 21
-52 32 -74 11 -22 24 -62 29 -90 6 -27 15 -75 21 -105 13 -68 1 -106 -37 -121
-39 -14 -1261 -8 -1335 7 -32 6 -52 45 -43 82 44 189 151 348 280 416 81 42
109 55 135 60 42 9 109 64 126 104 15 36 12 104 -6 127 -5 5 -21 48 -36 95
-15 47 -38 111 -52 144 -35 81 -28 125 28 182 24 24 48 44 55 44 6 0 17 7 25
16 7 8 38 29 68 44 68 35 133 38 214 10z"/>
</g>
</svg>
