<svg version="1.0" xmlns="http://www.w3.org/2000/svg"
 width="668px" style="transform:scale(1,1.001);" height="375.75px" viewBox="0 0 320.000000 180.000000"
 preserveAspectRatio="xMidYMid meet">
<g transform="translate(0.000000,180.000000) scale(0.100000,-0.100000)"
fill="#000000" stroke="none">
<path d="M0 905 l0 -895 1600 0 1600 0 0 895 0 895 -1600 0 -1600 0 0 -895z m1796 781
c82 -42 119 -81 127 -134 9 -56 -8 -180 -28 -202 -10 -11 -19 -43 -22 -80 l-6
-61 59 -55 c32 -30 65 -54 73 -54 18 0 71 -42 142 -113 43 -42 61 -69 69 -100
5 -23 17 -64 25 -92 8 -27 17 -99 21 -160 4 -60 13 -127 20 -149 18 -51 18
-147 0 -172 -14 -18 -29 -19 -563 -15 -385 2 -555 7 -573 15 -41 18 -47 81
-21 207 11 57 21 119 21 137 0 18 9 50 20 72 11 22 20 44 20 50 0 16 57 129
86 169 13 19 35 42 48 50 13 9 41 28 62 42 22 15 45 34 53 43 7 9 19 16 25 16
15 0 91 79 99 103 4 10 -2 34 -13 55 -11 20 -20 45 -20 55 0 10 -5 23 -10 30
-55 66 -81 143 -66 200 8 32 79 108 136 146 64 44 126 43 216 -3z"/>
</g>
</svg>
