<svg version="1.0" xmlns="http://www.w3.org/2000/svg"
 width="668px" style="transform:scale(1,1.001);" height="375.75px" viewBox="0 0 320.000000 180.000000"
 preserveAspectRatio="xMidYMid meet">
<g transform="translate(0.000000,180.000000) scale(0.100000,-0.100000)"
fill="#000000" stroke="none">
<path d="M0 905 l0 -895 720 0 c703 0 720 0 720 19 0 11 -7 32 -15 48 -8 15 -17 40 -20
56 -7 33 -36 36 -80 7 -37 -24 -83 -26 -92 -4 -3 9 1 37 11 63 20 57 21 107 2
163 -47 137 -53 233 -30 415 9 70 -2 123 -25 123 -18 0 -58 -36 -62 -55 -4
-26 -19 -55 -28 -55 -6 0 -15 -18 -21 -40 -12 -45 -33 -60 -73 -53 -35 7 -47
35 -47 106 0 63 15 89 101 178 36 36 82 98 104 139 22 40 57 91 78 113 41 43
42 48 25 111 -9 34 -9 50 1 74 25 59 60 78 136 73 39 -2 78 -53 100 -128 14
-46 21 -57 51 -69 19 -8 65 -46 102 -85 40 -42 79 -73 97 -77 39 -10 72 -70
55 -102 -14 -25 -48 -26 -75 0 -53 50 -163 88 -166 58 -1 -7 -2 -114 -3 -238
-1 -124 -8 -332 -15 -462 -13 -217 -12 -241 3 -281 9 -23 16 -55 16 -70 l0
-27 815 0 815 0 0 895 0 895 -1600 0 -1600 0 0 -895z"/>
<path d="M1380 539 c-7 -13 -13 -58 -14 -101 -1 -62 3 -81 17 -95 18 -17 19 -17 33 2
21 27 15 178 -8 202 -15 14 -17 13 -28 -8z"/>
</g>
</svg>
