<svg version="1.0" xmlns="http://www.w3.org/2000/svg"
 width="668px" style="transform:scale(1,1.001);" height="375.75px" viewBox="0 0 320.000000 180.000000"
 preserveAspectRatio="xMidYMid meet">
<g transform="translate(0.000000,180.000000) scale(0.100000,-0.100000)"
fill="#000000" stroke="none">
<path d="M0 905 l0 -895 610 0 610 0 0 25 c0 14 -4 25 -8 25 -5 0 -20 21 -34 48 -20 37
-27 68 -33 147 -4 64 -13 113 -25 135 -33 66 -60 135 -66 174 -4 22 -17 50
-30 63 -21 21 -32 23 -131 24 -162 0 -182 6 -218 59 -27 41 -30 53 -33 148 -4
84 -1 112 16 160 11 31 23 88 27 126 5 59 13 81 49 140 24 39 46 86 50 104 3
18 18 48 32 67 29 38 69 46 117 24 68 -31 61 -110 -18 -220 -29 -41 -30 -46
-33 -177 l-4 -135 55 5 c42 3 64 11 90 34 19 16 54 43 77 59 23 17 53 44 66
61 27 35 25 56 -11 154 -24 63 -15 182 19 248 37 73 100 112 180 112 53 0 69
-5 122 -38 84 -51 118 -94 133 -168 16 -76 6 -117 -43 -177 l-36 -44 39 -35
c21 -20 54 -41 72 -47 41 -14 83 -77 111 -164 10 -33 24 -67 31 -75 8 -10 12
-54 12 -127 0 -93 -3 -116 -17 -132 -13 -14 -18 -37 -18 -82 0 -53 7 -77 40
-147 49 -102 52 -156 15 -259 -13 -38 -25 -80 -25 -92 l0 -23 705 0 705 0 0
895 0 895 -1600 0 -1600 0 0 -895z"/>
</g>
</svg>
