<svg version="1.0" xmlns="http://www.w3.org/2000/svg"
 width="668px" style="transform:scale(1,1.001);" height="375.75px" viewBox="0 0 320.000000 180.000000"
 preserveAspectRatio="xMidYMid meet">
<g transform="translate(0.000000,180.000000) scale(0.100000,-0.100000)"
fill="#000000" stroke="none">
<path d="M0 905 l0 -895 651 0 652 0 -9 47 c-5 27 -7 154 -4 283 6 273 6 412 0 640 -4
168 -10 195 -49 228 -20 16 -70 15 -101 -3 -36 -20 -76 -18 -109 6 -39 29 -94
29 -125 0 -13 -13 -32 -21 -43 -19 -15 3 -19 16 -23 88 -3 51 -1 88 5 93 15
12 142 -1 175 -18 37 -19 94 -19 110 -1 6 8 28 20 48 27 20 6 44 17 52 25 8 7
37 19 64 26 66 17 77 42 43 98 -20 34 -23 48 -16 78 14 64 61 90 149 83 39 -3
70 -45 70 -95 0 -84 8 -102 66 -140 30 -20 60 -36 68 -36 19 0 81 -76 101
-123 8 -20 20 -37 25 -37 12 0 13 -49 2 -67 -4 -6 -25 -14 -47 -19 -24 -4 -53
-21 -77 -43 -54 -51 -69 -128 -61 -307 8 -166 -8 -284 -54 -424 -19 -58 -37
-133 -40 -167 l-6 -61 47 -45 c38 -37 46 -52 46 -81 l0 -36 795 0 795 0 0 895
0 895 -1600 0 -1600 0 0 -895z"/>
</g>
</svg>
