<svg version="1.0" xmlns="http://www.w3.org/2000/svg"
 width="668px" style="transform:scale(1,1.001);" height="375.75px" viewBox="0 0 320.000000 180.000000"
 preserveAspectRatio="xMidYMid meet">
<g transform="translate(0.000000,180.000000) scale(0.100000,-0.100000)"
fill="#000000" stroke="none">
<path d="M0 905 l0 -895 1600 0 1600 0 0 895 0 895 -1600 0 -1600 0 0 -895z m1850 787
c19 -12 41 -22 49 -22 23 0 89 -78 102 -119 9 -30 8 -53 -6 -115 -9 -42 -23
-82 -30 -89 -7 -8 -22 -32 -34 -55 -31 -61 -16 -89 104 -187 169 -138 198
-174 215 -270 5 -33 17 -89 25 -125 8 -36 15 -87 15 -115 0 -27 7 -81 15 -120
20 -96 19 -119 -9 -152 -23 -27 -28 -28 -133 -31 -59 -2 -128 -4 -153 -4 -25
-1 -115 3 -200 10 -85 6 -266 13 -403 15 -221 4 -249 6 -267 22 -25 22 -26 80
-5 162 8 31 15 72 15 91 0 44 50 192 97 288 35 72 105 153 155 180 12 7 31 19
42 28 12 9 48 36 82 60 35 25 66 56 73 74 13 31 5 56 -43 142 -57 99 -69 189
-32 245 23 34 134 107 176 115 49 8 109 -3 150 -28z"/>
</g>
</svg>
