<svg version="1.0" xmlns="http://www.w3.org/2000/svg"
 width="668px" style="transform:scale(1,1.001);" height="375.75px" viewBox="0 0 320.000000 180.000000"
 preserveAspectRatio="xMidYMid meet">
<g transform="translate(0.000000,180.000000) scale(0.100000,-0.100000)"
fill="#000000" stroke="none">
<path d="M0 905 l0 -895 574 0 573 0 7 57 c4 37 14 65 27 80 45 47 42 96 -15 262 -47
134 -48 204 -7 317 41 115 72 187 89 207 33 38 13 161 -27 170 -30 6 -80 -11
-112 -37 -43 -37 -71 -34 -108 13 -28 35 -31 46 -31 108 0 92 12 103 107 103
69 0 73 1 111 38 21 20 44 47 51 60 6 12 18 22 26 22 27 0 43 61 37 138 -4 65
-2 76 21 111 29 44 65 56 120 40 54 -15 79 -61 76 -146 -1 -55 3 -75 21 -105
12 -21 28 -38 36 -38 7 0 21 -15 29 -32 9 -18 24 -49 35 -68 30 -55 27 -145
-9 -233 -57 -140 -56 -133 -44 -310 11 -145 16 -175 52 -282 70 -212 102 -357
94 -428 l-6 -47 737 0 736 0 0 895 0 895 -1600 0 -1600 0 0 -895z"/>
<path d="M1351 684 c-34 -39 -64 -111 -64 -154 -1 -48 26 -147 75 -273 45 -118 25 -177
-62 -177 -42 0 -60 -14 -60 -47 l0 -23 206 0 206 0 -5 28 c-7 41 -46 169 -72
237 -13 33 -31 85 -40 115 -9 30 -32 87 -50 125 -18 39 -40 88 -49 110 -29 70
-58 89 -85 59z"/>
</g>
</svg>
