<svg version="1.0" xmlns="http://www.w3.org/2000/svg"
 width="668px" style="transform:scale(1,1.001);" height="375.75px" viewBox="0 0 320.000000 180.000000"
 preserveAspectRatio="xMidYMid meet">
<g transform="translate(0.000000,180.000000) scale(0.100000,-0.100000)"
fill="#000000" stroke="none">
<path d="M0 905 l0 -895 1600 0 1600 0 0 895 0 895 -1600 0 -1600 0 0 -895z m1755 760
c28 -13 55 -25 61 -25 7 0 28 -20 48 -44 35 -43 36 -47 36 -126 0 -61 -5 -90
-20 -120 -26 -51 -27 -124 -1 -147 55 -51 148 -121 171 -128 10 -3 25 -17 34
-30 9 -14 24 -25 34 -25 10 0 34 -20 55 -44 68 -81 75 -102 82 -221 4 -60 13
-135 21 -166 8 -31 14 -100 14 -153 0 -92 -1 -98 -26 -121 -26 -24 -32 -25
-168 -25 -78 0 -193 5 -256 10 -63 5 -250 11 -415 14 l-299 4 -19 24 c-21 25
-21 34 7 208 14 91 92 281 143 350 35 46 112 118 134 125 9 3 24 17 33 30 9
14 23 25 32 25 22 0 81 69 88 102 7 36 -11 73 -76 153 -88 109 -88 185 3 270
26 25 55 45 62 45 8 0 34 9 58 20 59 26 104 25 164 -5z"/>
</g>
</svg>
