<svg version="1.0" xmlns="http://www.w3.org/2000/svg"
 width="668px" style="transform:scale(1,1.001);" height="375.75px" viewBox="0 0 320.000000 180.000000"
 preserveAspectRatio="xMidYMid meet">
<g transform="translate(0.000000,180.000000) scale(0.100000,-0.100000)"
fill="#000000" stroke="none">
<path d="M0 905 l0 -895 780 0 780 0 0 39 c0 21 -5 53 -11 70 -11 32 -12 32 -23 10 -12
-24 -47 -41 -64 -30 -6 3 -16 58 -22 121 -6 63 -18 132 -26 153 -8 20 -14 63
-14 95 0 54 -10 119 -45 312 -22 122 -20 226 6 284 l20 47 -20 53 c-16 43 -18
61 -10 89 14 52 60 87 115 87 37 0 50 -5 78 -35 21 -21 36 -49 40 -72 11 -61
16 -73 32 -73 23 0 79 -60 106 -115 48 -96 58 -151 58 -328 0 -170 6 -206 41
-243 11 -12 21 -34 22 -50 3 -37 -25 -44 -64 -15 -15 12 -33 21 -38 21 -5 0
-21 -38 -35 -84 -14 -46 -33 -96 -41 -112 -10 -20 -15 -59 -15 -126 l0 -98
775 0 775 0 0 895 0 895 -1600 0 -1600 0 0 -895z"/>
</g>
</svg>
