<svg version="1.0" xmlns="http://www.w3.org/2000/svg"
 width="668px" style="transform:scale(1,1.001);" height="375.75px" viewBox="0 0 320.000000 180.000000"
 preserveAspectRatio="xMidYMid meet">
<g transform="translate(0.000000,180.000000) scale(0.100000,-0.100000)"
fill="#000000" stroke="none">
<path d="M0 905 l0 -895 665 0 665 0 -2 63 c-4 120 37 309 76 357 7 8 23 37 37 65 13
27 30 56 37 63 6 7 12 25 12 40 1 187 6 216 42 285 25 47 39 87 43 130 7 70
-8 152 -32 180 -22 23 -29 124 -13 173 22 67 89 150 178 221 30 24 56 35 106
43 36 6 77 15 91 20 68 26 156 -8 200 -77 24 -39 27 -51 22 -98 -3 -29 -12
-64 -20 -77 -9 -12 -20 -42 -27 -66 -15 -58 -1 -95 56 -152 62 -62 88 -110
113 -210 43 -175 53 -306 27 -344 -46 -65 -50 -68 -129 -76 -93 -11 -125 -25
-148 -65 -16 -27 -17 -48 -10 -205 5 -98 5 -185 0 -198 -5 -13 -9 -34 -9 -48
l0 -24 610 0 610 0 0 895 0 895 -1600 0 -1600 0 0 -895z"/>
<path d="M1773 1403 c9 -2 23 -2 30 0 6 3 -1 5 -18 5 -16 0 -22 -2 -12 -5z"/>
<path d="M1644 212 c-27 -67 -45 -107 -60 -134 -7 -14 -14 -36 -14 -47 0 -20 5 -21 95
-21 91 0 95 1 95 22 0 12 -7 29 -15 38 -14 15 -45 119 -45 151 0 9 -9 19 -21
22 -17 4 -24 -2 -35 -31z"/>
</g>
</svg>
