<svg version="1.0" xmlns="http://www.w3.org/2000/svg"
 width="668px" style="transform:scale(1,1.001);" height="375.75px" viewBox="0 0 320.000000 180.000000"
 preserveAspectRatio="xMidYMid meet">
<g transform="translate(0.000000,180.000000) scale(0.100000,-0.100000)"
fill="#000000" stroke="none">
<path d="M0 905 l0 -895 1600 0 1600 0 0 895 0 895 -1600 0 -1600 0 0 -895z m1904 646
c44 -11 82 -25 85 -29 4 -4 22 -19 41 -32 19 -14 45 -36 58 -50 28 -31 72
-114 72 -135 0 -28 -41 -138 -61 -163 -10 -14 -19 -31 -19 -39 0 -7 -12 -31
-26 -52 -31 -47 -41 -110 -25 -150 10 -23 35 -39 142 -89 107 -51 138 -71 184
-118 36 -37 59 -71 66 -97 6 -22 17 -50 25 -62 8 -13 14 -50 15 -94 1 -69 0
-75 -30 -105 l-31 -31 -608 4 c-334 2 -616 7 -628 11 -12 5 -31 21 -43 37 -21
25 -22 37 -19 138 3 106 4 112 36 158 18 26 38 47 44 47 11 0 44 20 119 71 15
10 38 21 52 24 14 4 33 15 42 25 10 11 40 24 69 30 35 7 63 21 89 45 32 30 37
40 37 79 0 32 -7 52 -24 73 -13 15 -27 39 -31 53 -4 14 -15 43 -25 65 -46 105
-61 153 -54 181 8 34 149 178 185 189 13 4 31 13 39 20 35 30 106 29 224 -4z"/>
</g>
</svg>
