<svg version="1.0" xmlns="http://www.w3.org/2000/svg"
 width="668px" style="transform:scale(1,1.001);" height="375.75px" viewBox="0 0 320.000000 180.000000"
 preserveAspectRatio="xMidYMid meet">
<g transform="translate(0.000000,180.000000) scale(0.100000,-0.100000)"
fill="#000000" stroke="none">
<path d="M0 905 l0 -895 696 0 696 0 -6 32 c-10 46 -34 251 -46 388 -5 63 -17 137 -25
164 -8 27 -15 70 -15 96 0 26 -3 50 -7 53 -8 9 -53 -32 -53 -47 0 -6 -7 -24
-16 -41 -9 -16 -25 -57 -36 -90 -27 -77 -65 -143 -87 -150 -25 -8 -51 4 -52
24 -3 62 5 122 22 157 10 22 19 49 19 60 0 11 7 29 15 40 8 10 15 29 15 42 0
12 8 39 19 60 10 20 29 68 41 107 13 38 31 83 42 100 24 40 23 87 -2 102 -21
14 -35 70 -26 108 8 32 72 75 111 75 48 0 100 -42 121 -97 18 -51 46 -83 73
-83 9 0 28 -6 43 -14 15 -8 41 -17 58 -21 17 -4 42 -17 55 -28 13 -12 37 -33
52 -45 67 -57 101 -90 137 -137 21 -27 48 -58 59 -68 11 -10 26 -39 33 -65 11
-45 11 -48 -14 -74 -39 -42 -58 -36 -87 26 -31 65 -148 186 -180 186 -26 0
-19 -186 15 -420 6 -41 11 -99 12 -128 1 -49 -2 -57 -40 -95 -31 -33 -41 -52
-47 -92 -9 -67 -20 -78 -66 -70 -53 9 -79 -1 -79 -31 l0 -24 875 0 875 0 0
895 0 895 -1600 0 -1600 0 0 -895z"/>
</g>
</svg>
