<svg version="1.0" xmlns="http://www.w3.org/2000/svg"
 width="668px" style="transform:scale(1,1.001);" height="375.75px" viewBox="0 0 320.000000 180.000000"
 preserveAspectRatio="xMidYMid meet">
<g transform="translate(0.000000,180.000000) scale(0.100000,-0.100000)"
fill="#000000" stroke="none">
<path d="M0 905 l0 -895 1600 0 1600 0 0 895 0 895 -1600 0 -1600 0 0 -895z m1505 755
c22 -11 46 -19 53 -20 19 0 81 -69 98 -110 17 -39 12 -114 -12 -182 -25 -71
-19 -108 23 -145 20 -18 45 -33 54 -33 10 0 28 -11 41 -24 13 -13 40 -29 61
-36 20 -6 37 -15 37 -19 0 -4 12 -13 26 -20 91 -41 165 -155 179 -276 4 -33
13 -74 20 -92 7 -17 17 -58 20 -90 4 -32 14 -70 21 -85 18 -34 28 -127 20
-171 -11 -59 -19 -60 -469 -59 -347 0 -543 9 -633 27 -12 3 -28 20 -39 44 -16
38 -17 47 -2 163 9 68 23 140 31 160 9 21 16 48 16 60 0 44 74 150 172 248
132 132 135 150 42 272 -30 40 -67 97 -81 127 -22 47 -24 58 -14 90 18 60 90
140 136 152 22 5 54 16 70 24 41 20 82 18 130 -5z"/>
</g>
</svg>
