<svg version="1.0" xmlns="http://www.w3.org/2000/svg"
 width="668px" style="transform:scale(1,1.001);" height="375.75px" viewBox="0 0 320.000000 180.000000"
 preserveAspectRatio="xMidYMid meet">
<g transform="translate(0.000000,180.000000) scale(0.100000,-0.100000)"
fill="#000000" stroke="none">
<path d="M0 905 l0 -895 520 0 520 0 0 37 c0 21 4 108 9 193 12 208 34 267 147 391 37
41 70 76 73 79 15 13 31 52 31 74 0 28 -13 55 -58 115 -55 76 -42 126 61 227
l72 71 87 13 c78 12 91 17 119 47 30 30 38 33 95 33 59 0 65 -2 99 -37 29 -30
35 -43 35 -80 0 -33 -6 -50 -23 -66 -46 -45 -57 -71 -45 -113 16 -58 6 -235
-15 -265 -25 -35 -21 -79 13 -156 17 -37 37 -81 44 -98 26 -60 47 -135 56
-202 5 -37 16 -95 25 -128 9 -33 19 -77 22 -97 l5 -38 654 0 654 0 0 895 0
895 -1600 0 -1600 0 0 -895z"/>
<path d="M1343 500 c-43 -23 -90 -54 -105 -70 -27 -29 -48 -85 -48 -128 0 -12 -7 -38
-15 -57 -8 -20 -17 -80 -21 -135 l-7 -100 318 0 318 0 -8 37 c-4 21 -10 58
-15 83 -8 45 -12 58 -57 182 -28 76 -86 149 -160 197 -64 43 -103 41 -200 -9z"/>
</g>
</svg>
