<svg version="1.0" xmlns="http://www.w3.org/2000/svg"
 width="668px" style="transform:scale(1,1.001);" height="375.75px" viewBox="0 0 320.000000 180.000000"
 preserveAspectRatio="xMidYMid meet">
<g transform="translate(0.000000,180.000000) scale(0.100000,-0.100000)"
fill="#000000" stroke="none">
<path d="M0 905 l0 -895 584 0 583 0 6 52 c3 31 22 88 45 138 22 47 51 110 65 140 14
30 37 72 51 93 14 21 26 40 26 43 0 2 15 26 34 52 55 79 77 139 86 237 8 86
24 149 57 225 8 19 17 60 20 90 4 52 2 58 -35 106 -61 79 -74 135 -52 224 14
59 66 160 82 160 5 0 22 14 38 31 26 29 34 32 105 35 64 3 84 8 114 29 47 32
92 32 146 0 30 -17 49 -38 65 -72 23 -49 23 -48 0 -173 -16 -92 -6 -120 66
-186 95 -86 107 -122 112 -345 4 -165 2 -179 -17 -218 -23 -45 -51 -61 -105
-61 -23 0 -47 -11 -80 -38 l-47 -37 8 -105 c10 -134 9 -300 -1 -367 l-9 -53
627 0 626 0 0 895 0 895 -1600 0 -1600 0 0 -895z"/>
<path d="M1661 1446 c-26 -27 -23 -54 9 -74 17 -10 27 -9 60 8 44 22 49 38 23 63 -33
29 -66 30 -92 3z"/>
<path d="M1521 219 c-45 -55 -85 -107 -88 -115 -3 -8 -18 -21 -34 -30 -20 -10 -29 -22
-29 -39 l0 -25 180 0 180 0 0 26 c0 14 -4 34 -10 44 -5 10 -13 44 -16 76 -4
33 -15 83 -26 112 -17 46 -23 52 -48 52 -23 0 -41 -16 -109 -101z"/>
</g>
</svg>
