<svg version="1.0" xmlns="http://www.w3.org/2000/svg"
 width="668px" style="transform:scale(1,1.001);" height="375.75px" viewBox="0 0 320.000000 180.000000"
 preserveAspectRatio="xMidYMid meet">
<g transform="translate(0.000000,180.000000) scale(0.100000,-0.100000)"
fill="#000000" stroke="none">
<path d="M0 905 l0 -895 730 0 730 0 0 28 c-1 15 -6 37 -13 50 l-13 23 -27 -21 c-33
-26 -92 -37 -111 -21 -11 9 -12 20 -4 49 6 20 15 43 21 51 9 10 7 16 -8 27
-10 8 -25 14 -32 14 -7 0 -22 9 -33 20 -18 18 -20 33 -20 191 0 149 3 184 26
278 14 60 35 123 47 142 11 19 29 65 39 104 20 75 59 145 87 152 25 6 58 63
66 113 11 64 72 125 116 116 42 -8 86 -45 99 -83 9 -25 8 -39 -5 -70 -24 -57
-22 -100 8 -131 34 -35 54 -85 63 -153 7 -55 22 -89 74 -169 93 -143 94 -189
4 -278 l-46 -45 -24 26 c-13 15 -30 24 -37 22 -6 -3 -22 10 -35 28 -19 28 -22
46 -22 108 2 127 -38 220 -67 157 -5 -13 -16 -48 -23 -78 -7 -30 -19 -75 -28
-100 -17 -49 -18 -79 -14 -362 l2 -188 825 0 825 0 0 895 0 895 -1600 0 -1600
0 0 -895z"/>
</g>
</svg>
