<svg version="1.0" xmlns="http://www.w3.org/2000/svg"
 width="668px" style="transform:scale(1,1.001);" height="375.75px" viewBox="0 0 320.000000 180.000000"
 preserveAspectRatio="xMidYMid meet">
<g transform="translate(0.000000,180.000000) scale(0.100000,-0.100000)"
fill="#000000" stroke="none">
<path d="M0 905 l0 -895 785 0 785 0 0 85 c0 59 -6 104 -20 144 -10 32 -24 80 -30 107
-6 27 -26 85 -44 129 -20 46 -37 107 -41 145 -4 36 -13 90 -20 120 -16 70 -13
459 4 543 14 66 56 122 108 144 18 7 33 18 33 24 0 5 11 20 25 33 17 16 32 51
49 113 36 138 32 133 130 133 l83 0 34 -42 c51 -63 58 -79 59 -131 0 -33 -5
-51 -17 -62 -10 -8 -38 -32 -62 -55 -44 -40 -44 -40 -32 -80 6 -22 16 -40 22
-40 25 0 55 -105 88 -310 10 -67 -3 -125 -54 -225 -52 -104 -53 -118 -25 -263
11 -56 23 -153 26 -215 7 -120 -3 -181 -37 -228 -10 -15 -19 -37 -19 -48 l0
-21 685 0 685 0 0 895 0 895 -1600 0 -1600 0 0 -895z"/>
</g>
</svg>
