<svg version="1.0" xmlns="http://www.w3.org/2000/svg"
 width="668px" style="transform:scale(1,1.001);" height="375.75px" viewBox="0 0 320.000000 180.000000"
 preserveAspectRatio="xMidYMid meet">
<g transform="translate(0.000000,180.000000) scale(0.100000,-0.100000)"
fill="#000000" stroke="none">
<path d="M0 905 l0 -895 560 0 560 0 0 43 c0 23 11 78 25 122 14 44 25 89 25 101 0 12
11 57 25 100 14 43 26 97 26 119 1 53 -25 167 -49 213 -24 47 -48 125 -56 181
-8 53 -30 97 -56 111 -18 9 -28 3 -79 -45 -71 -68 -96 -71 -149 -18 l-37 37 0
94 c0 85 2 95 23 112 12 10 40 21 62 25 32 5 50 19 99 73 33 37 70 79 81 94
l21 27 -36 56 c-50 78 -46 120 19 193 17 19 29 22 93 22 67 0 74 -2 89 -25 9
-14 20 -54 23 -88 9 -80 22 -102 74 -125 23 -10 48 -26 56 -35 7 -9 29 -19 50
-23 44 -8 65 -19 114 -57 37 -30 48 -61 25 -70 -7 -2 -50 -2 -95 1 -109 6
-133 -7 -133 -76 1 -108 36 -279 94 -462 55 -173 61 -287 17 -334 -23 -24 -61
-91 -96 -166 -9 -19 -19 -72 -22 -118 l-6 -82 927 0 926 0 0 895 0 895 -1600
0 -1600 0 0 -895z"/>
</g>
</svg>
