<svg version="1.0" xmlns="http://www.w3.org/2000/svg"
 width="668px" style="transform:scale(1,1.001);" height="375.75px" viewBox="0 0 320.000000 180.000000"
 preserveAspectRatio="xMidYMid meet">
<g transform="translate(0.000000,180.000000) scale(0.100000,-0.100000)"
fill="#000000" stroke="none">
<path d="M0 905 l0 -895 655 0 655 0 0 23 c0 13 -5 28 -10 33 -13 13 5 71 32 100 32 36
27 113 -13 176 -44 72 -53 108 -53 213 0 113 17 232 43 309 26 74 31 276 7
295 -9 7 -74 13 -180 15 -114 2 -170 7 -181 16 -31 26 -10 120 31 139 13 6 27
18 30 26 4 8 11 15 17 15 17 0 94 -40 107 -56 16 -19 49 -18 72 2 10 10 41 21
70 25 53 9 92 30 112 62 8 12 6 24 -5 44 -28 49 -31 92 -9 128 11 18 27 36 36
39 26 10 124 7 145 -5 32 -17 45 -60 39 -126 -7 -73 15 -128 57 -138 16 -3 43
-23 60 -43 18 -20 53 -59 77 -86 57 -64 74 -118 54 -178 -17 -50 -49 -63 -68
-28 -6 12 -28 28 -48 37 -33 14 -37 14 -49 -3 -17 -24 -16 -47 7 -189 24 -146
38 -214 55 -280 22 -79 35 -176 35 -254 0 -46 6 -83 16 -102 8 -17 18 -52 21
-79 6 -53 -6 -80 -36 -80 -22 0 -64 46 -79 85 -18 49 -52 204 -52 239 0 18
-11 55 -25 82 -14 27 -25 53 -25 57 0 5 -19 49 -41 98 -59 126 -85 119 -123
-29 -18 -72 -21 -144 -6 -171 5 -10 14 -43 19 -72 5 -30 17 -81 25 -114 22
-89 12 -123 -47 -154 -35 -19 -47 -31 -47 -48 l0 -23 910 0 910 0 0 895 0 895
-1600 0 -1600 0 0 -895z"/>
</g>
</svg>
