<svg version="1.0" xmlns="http://www.w3.org/2000/svg"
 width="668px" style="transform:scale(1,1.001);" height="375.75px" viewBox="0 0 320.000000 180.000000"
 preserveAspectRatio="xMidYMid meet">
<g transform="translate(0.000000,180.000000) scale(0.100000,-0.100000)"
fill="#000000" stroke="none">
<path d="M0 905 l0 -895 520 0 520 0 0 26 c0 15 11 57 24 93 13 37 27 89 31 117 21 158
74 318 147 445 21 36 38 71 38 78 0 6 9 24 20 39 31 42 37 96 12 117 -86 73
-92 82 -92 130 0 55 45 155 90 201 79 80 84 83 132 85 39 2 51 8 70 33 12 17
40 50 61 74 34 36 45 42 79 42 33 0 47 -7 79 -39 45 -44 49 -73 23 -156 -16
-51 -16 -53 10 -131 35 -108 36 -205 1 -274 -13 -27 -29 -51 -35 -55 -21 -13
-9 -65 35 -151 84 -164 90 -205 105 -661 0 -10 140 -13 665 -13 l665 0 0 895
0 895 -1600 0 -1600 0 0 -895z"/>
<path d="M1453 611 c-10 -10 -25 -22 -34 -27 -58 -32 -179 -220 -179 -278 0 -12 -9 -47
-20 -79 -11 -31 -20 -64 -20 -72 0 -9 -9 -35 -20 -57 -11 -23 -20 -52 -20 -65
l0 -23 305 0 c168 0 305 4 305 8 0 65 -25 290 -36 332 -21 74 -41 105 -170
253 -29 33 -83 37 -111 8z"/>
</g>
</svg>
