<svg version="1.0" xmlns="http://www.w3.org/2000/svg"
 width="668px" style="transform:scale(1,1.001);" height="375.75px" viewBox="0 0 320.000000 180.000000"
 preserveAspectRatio="xMidYMid meet">
<g transform="translate(0.000000,180.000000) scale(0.100000,-0.100000)"
fill="#000000" stroke="none">
<path d="M0 905 l0 -895 1600 0 1600 0 0 895 0 895 -1600 0 -1600 0 0 -895z m2039 661
c45 -10 84 -25 102 -40 16 -14 37 -27 46 -31 30 -10 92 -93 104 -137 16 -59 6
-94 -67 -235 -72 -141 -88 -192 -71 -232 14 -34 85 -101 108 -101 10 0 30 -11
46 -24 15 -13 39 -27 53 -31 83 -26 229 -191 268 -303 16 -47 26 -233 13 -252
-9 -12 -34 -15 -143 -12 -135 2 -268 18 -268 31 0 4 6 16 14 26 12 17 12 21
-5 33 -10 7 -54 20 -96 29 -63 13 -160 17 -495 19 -291 2 -424 7 -439 15 -20
10 -21 16 -15 78 4 36 10 99 13 139 l6 73 60 55 c33 29 75 58 94 63 18 5 47
21 64 35 17 14 41 26 53 26 13 0 31 9 40 19 10 11 32 23 50 27 36 8 129 58
146 79 7 8 14 32 17 54 4 32 1 46 -21 73 -14 19 -29 50 -32 69 -4 19 -14 45
-22 59 -37 57 -82 156 -82 179 0 17 20 43 69 90 92 88 121 109 183 131 58 20
96 20 207 -4z"/>
</g>
</svg>
