<svg version="1.0" xmlns="http://www.w3.org/2000/svg"
 width="668px" style="transform:scale(1,1.001);" height="375.75px" viewBox="0 0 320.000000 180.000000"
 preserveAspectRatio="xMidYMid meet">
<g transform="translate(0.000000,180.000000) scale(0.100000,-0.100000)"
fill="#000000" stroke="none">
<path d="M0 905 l0 -895 1600 0 1600 0 0 895 0 895 -1600 0 -1600 0 0 -895z m1674 742
c12 -8 34 -17 50 -21 44 -11 113 -73 127 -113 13 -40 5 -122 -16 -168 -34 -72
-45 -123 -35 -150 14 -38 57 -87 89 -103 14 -7 42 -23 61 -37 19 -14 46 -33
60 -43 28 -19 82 -75 118 -122 15 -19 27 -53 33 -95 5 -36 13 -84 18 -108 5
-23 15 -104 21 -179 10 -119 9 -141 -4 -167 -9 -16 -24 -32 -33 -35 -24 -7
-309 -10 -726 -8 l-349 2 -29 29 c-24 25 -29 38 -29 78 0 27 6 72 14 99 8 27
17 78 21 114 4 36 15 79 25 95 9 17 20 44 23 61 12 62 113 185 197 239 25 16
60 42 78 57 18 15 39 28 47 28 7 0 18 15 24 33 12 35 1 86 -24 117 -26 33 -78
154 -82 194 -3 23 1 55 10 74 14 34 99 112 122 112 7 0 18 6 25 14 6 8 21 17
33 20 34 7 109 -3 131 -17z"/>
</g>
</svg>
