<svg version="1.0" xmlns="http://www.w3.org/2000/svg"
 width="668px" style="transform:scale(1,1.001);" height="375.75px" viewBox="0 0 320.000000 180.000000"
 preserveAspectRatio="xMidYMid meet">
<g transform="translate(0.000000,180.000000) scale(0.100000,-0.100000)"
fill="#000000" stroke="none">
<path d="M0 905 l0 -895 415 0 c477 0 438 -11 384 104 -28 60 -31 74 -27 144 4 91 23
126 154 282 44 52 88 109 96 125 16 29 85 244 95 297 8 41 74 105 122 118 22
6 52 23 67 38 51 54 57 78 64 232 7 167 18 198 94 268 44 40 48 42 110 42 70
0 79 -5 174 -94 92 -87 121 -210 65 -282 -14 -19 -41 -41 -58 -48 -48 -20 -52
-60 -13 -106 17 -19 40 -40 52 -47 32 -17 79 -81 110 -148 26 -55 29 -76 38
-235 13 -225 13 -252 2 -390 -9 -102 -14 -123 -42 -172 -18 -31 -39 -61 -47
-68 -8 -7 -15 -23 -15 -36 l0 -24 680 0 680 0 0 895 0 895 -1600 0 -1600 0 0
-895z"/>
</g>
</svg>
