<svg version="1.0" xmlns="http://www.w3.org/2000/svg"
 width="668px" style="transform:scale(1,1.001);" height="375.75px" viewBox="0 0 320.000000 180.000000"
 preserveAspectRatio="xMidYMid meet">
<g transform="translate(0.000000,180.000000) scale(0.100000,-0.100000)"
fill="#000000" stroke="none">
<path d="M0 905 l0 -895 1600 0 1600 0 0 895 0 895 -630 0 -630 0 0 -23 c0 -14 10 -29
29 -40 59 -35 65 -117 16 -220 -25 -53 -27 -62 -16 -98 9 -29 20 -42 44 -53
18 -7 41 -23 51 -35 11 -11 26 -21 35 -21 21 0 81 -72 114 -136 32 -64 47
-144 47 -258 0 -73 -4 -97 -20 -124 -21 -34 -69 -68 -110 -78 -14 -4 -40 -21
-58 -38 l-34 -31 6 -100 c8 -117 -3 -189 -33 -219 -21 -20 -30 -21 -248 -21
l-226 -1 -19 31 c-15 24 -18 47 -16 120 1 79 -2 96 -24 140 -14 28 -29 70 -33
95 -12 73 -29 103 -100 179 l-68 72 -5 73 c-5 85 5 112 71 179 23 24 68 74
100 109 47 53 65 67 96 72 21 3 47 14 60 25 12 10 38 22 59 26 71 13 76 31 32
120 -16 33 -30 73 -30 88 0 35 22 88 43 106 10 7 17 24 17 37 l0 24 -860 0
-860 0 0 -895z m1769 -754 c30 -8 66 -67 48 -78 -21 -13 -202 -16 -225 -4 -19
10 -20 14 -9 34 29 52 38 57 101 56 34 -1 72 -4 85 -8z"/>
</g>
</svg>
