<svg version="1.0" xmlns="http://www.w3.org/2000/svg"
 width="668px" style="transform:scale(1,1.001);" height="375.75px" viewBox="0 0 320.000000 180.000000"
 preserveAspectRatio="xMidYMid meet">
<g transform="translate(0.000000,180.000000) scale(0.100000,-0.100000)"
fill="#000000" stroke="none">
<path d="M0 905 l0 -895 725 0 c684 0 725 1 725 18 0 9 -12 60 -25 112 -69 258 -67 243
-62 420 3 146 6 170 25 205 12 21 22 49 22 61 0 25 -27 39 -45 24 -20 -17 -72
-123 -79 -163 -9 -51 -42 -71 -100 -63 -64 10 -69 21 -61 118 3 46 8 90 11 99
5 17 85 72 120 83 27 8 64 91 64 143 0 85 20 167 45 188 13 11 35 35 49 53 26
36 25 47 -8 124 -24 55 -20 85 17 128 29 36 36 40 81 40 43 0 53 -4 82 -36 32
-33 34 -40 34 -105 0 -97 13 -120 81 -139 64 -18 133 -143 145 -263 7 -65 6
-69 -30 -126 -49 -80 -56 -128 -56 -372 l0 -208 -34 -104 c-19 -57 -37 -134
-41 -170 l-7 -67 761 0 761 0 0 895 0 895 -1600 0 -1600 0 0 -895z"/>
<path d="M1511 479 c-12 -55 1 -223 25 -329 8 -36 14 -82 14 -102 0 -32 3 -38 21 -38
20 0 21 4 15 37 -9 46 -9 36 5 153 19 167 -3 310 -50 323 -17 4 -21 -2 -30
-44z"/>
</g>
</svg>
