<svg version="1.0" xmlns="http://www.w3.org/2000/svg"
 width="668px" style="transform:scale(1,1.001);" height="375.75px" viewBox="0 0 320.000000 180.000000"
 preserveAspectRatio="xMidYMid meet">
<g transform="translate(0.000000,180.000000) scale(0.100000,-0.100000)"
fill="#000000" stroke="none">
<path d="M0 905 l0 -895 524 0 523 0 7 38 c3 20 13 51 22 67 17 31 24 61 47 200 7 44
18 89 24 100 6 11 16 40 23 65 24 94 39 137 63 190 14 30 34 82 45 115 11 33
30 79 41 103 40 80 39 95 -13 158 -42 52 -46 61 -46 111 0 65 15 98 100 211
29 40 99 89 138 98 15 3 34 8 43 10 9 3 29 23 45 45 41 60 65 65 132 32 57
-29 92 -71 92 -111 0 -25 -34 -97 -50 -107 -17 -10 -11 -52 16 -112 23 -52 25
-68 22 -149 -4 -87 -5 -93 -46 -152 -23 -34 -42 -71 -42 -82 0 -11 11 -42 24
-68 13 -27 28 -65 32 -87 4 -21 13 -50 20 -64 8 -14 14 -34 14 -44 0 -10 5
-27 11 -38 15 -28 46 -264 54 -406 l7 -123 664 0 664 0 0 895 0 895 -1600 0
-1600 0 0 -895z"/>
<path d="M1452 638 c-20 -23 -49 -55 -64 -69 -16 -15 -28 -29 -28 -32 0 -3 -15 -32 -34
-64 -19 -32 -42 -87 -51 -123 -36 -145 -83 -271 -104 -284 -6 -4 -11 -18 -11
-32 l0 -24 311 0 311 0 -6 32 c-4 18 -10 58 -15 88 -4 30 -13 73 -19 95 -6 22
-21 78 -32 124 -19 76 -43 138 -59 151 -13 11 -51 70 -51 79 0 18 -42 81 -60
91 -33 18 -51 11 -88 -32z"/>
</g>
</svg>
