<svg version="1.0" xmlns="http://www.w3.org/2000/svg"
 width="668px" style="transform:scale(1,1.001);" height="375.75px" viewBox="0 0 320.000000 180.000000"
 preserveAspectRatio="xMidYMid meet">
<g transform="translate(0.000000,180.000000) scale(0.100000,-0.100000)"
fill="#000000" stroke="none">
<path d="M0 905 l0 -895 625 0 625 0 0 33 c1 17 7 43 15 57 26 45 19 103 -18 152 -78
104 -90 149 -63 241 9 30 16 63 16 74 0 10 25 67 56 128 46 92 54 116 49 145
-30 178 -32 180 -165 180 -72 0 -109 -5 -134 -17 -29 -13 -40 -14 -61 -5 -24
11 -25 16 -25 92 0 74 2 81 23 89 12 5 47 5 79 0 67 -11 211 3 233 21 19 16
19 59 0 84 -27 35 -19 84 19 122 30 30 40 34 88 34 48 0 58 -4 92 -35 38 -35
39 -36 33 -93 l-6 -57 43 -28 c27 -17 58 -27 82 -28 21 0 70 -6 108 -13 63
-11 70 -15 89 -47 l21 -36 -20 -34 c-20 -33 -22 -34 -77 -31 -98 5 -94 17
-100 -250 -3 -128 -10 -263 -17 -299 -9 -54 -8 -77 4 -125 25 -100 31 -206 12
-241 -8 -17 -22 -33 -31 -37 -27 -10 -61 38 -68 94 -4 32 -20 72 -45 115 -24
39 -42 84 -46 112 -12 90 -17 103 -35 103 -22 0 -61 -76 -61 -118 0 -17 20
-75 45 -130 56 -124 60 -173 15 -192 -21 -9 -30 -19 -30 -36 l0 -24 915 0 915
0 0 895 0 895 -1600 0 -1600 0 0 -895z"/>
</g>
</svg>
