<svg version="1.0" xmlns="http://www.w3.org/2000/svg"
 width="668px" style="transform:scale(1,1.001);" height="375.75px" viewBox="0 0 320.000000 180.000000"
 preserveAspectRatio="xMidYMid meet">
<g transform="translate(0.000000,180.000000) scale(0.100000,-0.100000)"
fill="#000000" stroke="none">
<path d="M0 905 l0 -895 560 0 560 0 0 377 c0 218 5 421 12 483 9 88 9 115 -4 165 -13
53 -18 60 -42 63 -15 2 -46 -6 -70 -18 -34 -16 -49 -18 -70 -11 -14 6 -26 14
-26 19 0 4 -20 16 -45 26 -60 25 -87 70 -83 140 3 44 6 51 25 54 14 2 27 -5
39 -22 14 -22 23 -26 68 -26 60 0 62 2 100 60 16 25 51 65 76 90 55 53 66 92
44 145 -12 31 -13 46 -4 92 17 81 34 93 128 93 42 0 82 -4 89 -8 31 -20 43
-120 22 -181 -11 -31 -9 -35 27 -72 21 -22 48 -42 60 -45 26 -7 58 -69 74
-144 13 -62 8 -193 -11 -286 -10 -50 -9 -84 4 -210 21 -182 21 -421 2 -609 -8
-77 -15 -148 -15 -157 0 -17 47 -18 840 -18 l840 0 0 895 0 895 -1600 0 -1600
0 0 -895z"/>
<path d="M1313 608 c-6 -7 -15 -40 -21 -73 -36 -188 -42 -229 -52 -315 -5 -52 -13 -121
-16 -152 l-7 -58 102 0 103 0 -6 63 c-3 34 -8 100 -11 147 -8 111 -33 293 -49
349 -14 48 -27 60 -43 39z"/>
</g>
</svg>
