<svg version="1.0" xmlns="http://www.w3.org/2000/svg"
 width="668px" style="transform:scale(1,1.001);" height="375.75px" viewBox="0 0 320.000000 180.000000"
 preserveAspectRatio="xMidYMid meet">
<g transform="translate(0.000000,180.000000) scale(0.100000,-0.100000)"
fill="#000000" stroke="none">
<path d="M0 905 l0 -895 509 0 508 0 6 88 c4 48 9 152 13 232 6 137 8 148 37 204 30 57
135 176 156 176 5 0 12 9 16 19 3 11 14 23 25 26 35 11 35 58 -1 122 -42 77
-37 110 32 184 27 30 59 64 69 75 23 26 80 54 108 54 34 0 67 36 82 88 9 35
23 58 43 73 29 21 31 21 76 5 25 -9 53 -16 61 -16 8 -1 27 -11 41 -23 53 -44
63 -96 28 -142 -25 -31 -26 -54 -8 -146 12 -64 12 -68 -20 -165 -18 -54 -44
-111 -57 -127 -13 -16 -24 -39 -24 -51 0 -12 20 -64 45 -115 61 -124 80 -179
100 -286 9 -50 21 -110 27 -135 5 -25 12 -66 15 -92 l5 -48 654 0 654 0 0 895
0 895 -1600 0 -1600 0 0 -895z"/>
<path d="M1395 541 c-23 -4 -57 -17 -77 -29 -19 -12 -42 -22 -51 -22 -8 0 -29 -11 -45
-25 -40 -34 -68 -131 -76 -265 -4 -58 -9 -124 -13 -148 l-5 -42 331 0 c374 0
345 -7 317 81 -8 24 -26 84 -41 134 -43 146 -63 178 -170 269 -55 47 -99 59
-170 47z"/>
</g>
</svg>
