<svg version="1.0" xmlns="http://www.w3.org/2000/svg"
 width="668px" style="transform:scale(1,1.001);" height="375.75px" viewBox="0 0 320.000000 180.000000"
 preserveAspectRatio="xMidYMid meet">
<g transform="translate(0.000000,180.000000) scale(0.100000,-0.100000)"
fill="#000000" stroke="none">
<path d="M0 905 l0 -895 1600 0 1600 0 0 895 0 895 -1600 0 -1600 0 0 -895z m1455 765
c10 -11 24 -20 31 -20 22 0 36 -39 35 -96 0 -29 6 -69 14 -89 16 -36 24 -40
102 -48 26 -3 55 -15 74 -31 17 -14 36 -26 43 -26 25 0 94 -126 137 -250 41
-119 36 -453 -8 -502 -38 -43 -66 -2 -77 117 -9 88 -14 105 -31 105 -17 0 -21
-267 -5 -350 18 -95 16 -141 -10 -162 -51 -42 -123 -11 -159 69 -11 26 -28 57
-37 68 -15 19 -16 19 -29 2 -7 -10 -19 -40 -25 -67 -15 -60 -33 -77 -98 -90
-58 -11 -87 -3 -117 30 -23 26 -26 97 -9 270 6 58 9 111 6 118 -2 7 -14 12
-26 10 -26 -4 -56 -64 -65 -135 -7 -49 -24 -83 -42 -83 -15 0 -59 54 -59 73 0
10 -7 32 -16 48 -13 26 -13 39 -3 87 6 31 18 66 25 77 8 11 14 29 14 40 0 12
5 26 10 31 6 6 15 50 21 99 5 48 12 92 15 96 2 5 9 44 14 88 9 82 40 161 63
161 8 0 25 18 40 41 l27 41 -28 33 c-15 18 -39 43 -53 54 -35 27 -43 71 -23
121 13 33 22 41 52 46 21 4 53 15 72 25 48 25 102 24 125 -1z"/>
</g>
</svg>
