<svg version="1.0" xmlns="http://www.w3.org/2000/svg"
 width="668px" style="transform:scale(1,1.001);" height="375.75px" viewBox="0 0 320.000000 180.000000"
 preserveAspectRatio="xMidYMid meet">
<g transform="translate(0.000000,180.000000) scale(0.100000,-0.100000)"
fill="#000000" stroke="none">
<path d="M0 905 l0 -895 561 0 562 0 -9 37 c-4 21 -9 139 -10 263 -5 397 -15 571 -33
587 -37 33 -112 75 -126 69 -21 -8 -42 18 -50 61 -5 30 3 63 39 162 24 68 55
135 69 150 56 60 60 74 42 138 -24 82 -16 155 22 188 23 20 39 24 86 25 88 0
117 -38 117 -158 0 -65 1 -68 38 -98 20 -17 47 -36 59 -42 41 -22 60 -71 67
-169 3 -51 15 -125 26 -165 11 -40 20 -91 20 -114 0 -23 6 -75 14 -115 28
-141 39 -336 32 -543 -3 -110 -9 -217 -12 -238 l-7 -38 847 0 846 0 0 895 0
895 -1600 0 -1600 0 0 -895z"/>
<path d="M1282 613 c-24 -98 -61 -428 -62 -540 l0 -63 100 0 c55 0 100 3 100 8 -1 79
-40 411 -59 504 -12 56 -41 120 -58 125 -7 3 -16 -12 -21 -34z"/>
</g>
</svg>
