<svg version="1.0" xmlns="http://www.w3.org/2000/svg"
 width="668px" style="transform:scale(1,1.001);" height="375.75px" viewBox="0 0 320.000000 180.000000"
 preserveAspectRatio="xMidYMid meet">
<g transform="translate(0.000000,180.000000) scale(0.100000,-0.100000)"
fill="#000000" stroke="none">
<path d="M0 905 l0 -895 1600 0 1600 0 0 895 0 895 -1600 0 -1600 0 0 -895z m1835 795
c18 -11 40 -20 49 -20 38 0 136 -118 136 -164 0 -23 -49 -169 -59 -176 -12 -7
-51 -86 -51 -103 0 -20 46 -78 77 -97 16 -9 45 -33 66 -53 21 -19 50 -43 64
-52 25 -17 52 -45 96 -100 14 -17 27 -50 30 -79 4 -26 13 -67 21 -90 8 -23 18
-87 21 -142 4 -54 14 -125 22 -156 18 -69 12 -133 -15 -160 -17 -17 -36 -19
-183 -21 -231 -1 -897 22 -941 34 -24 6 -39 17 -44 32 -11 32 -7 122 6 146 6
12 15 60 21 107 5 47 16 95 23 107 8 12 18 40 22 62 3 22 12 47 19 55 7 8 16
26 20 40 13 43 57 103 102 140 65 52 106 84 124 95 136 83 162 119 134 187 -9
24 -23 50 -31 59 -26 29 -66 160 -59 196 8 44 54 95 129 145 57 37 64 39 115
33 30 -3 69 -14 86 -25z"/>
</g>
</svg>
