<svg version="1.0" xmlns="http://www.w3.org/2000/svg"
 width="668px" style="transform:scale(1,1.001);" height="375.75px" viewBox="0 0 320.000000 180.000000"
 preserveAspectRatio="xMidYMid meet">
<g transform="translate(0.000000,180.000000) scale(0.100000,-0.100000)"
fill="#000000" stroke="none">
<path d="M0 905 l0 -895 544 0 543 0 1 129 c1 71 6 150 12 177 6 26 18 136 26 243 16
216 29 310 50 350 18 35 18 91 0 91 -19 0 -26 -23 -26 -89 0 -52 -3 -59 -25
-69 -32 -15 -47 -8 -68 27 -34 57 -17 202 37 330 19 42 37 93 41 112 18 83 56
128 141 170 54 26 60 38 40 78 -30 57 -16 129 32 169 22 17 113 15 140 -4 29
-20 48 -58 57 -114 10 -62 18 -74 70 -105 57 -33 68 -59 66 -156 l-2 -76 31
-13 c33 -14 50 -43 50 -86 0 -39 -75 -111 -123 -120 -24 -4 -50 -17 -65 -33
-27 -29 -27 -43 2 -221 24 -144 33 -190 51 -255 8 -33 27 -116 40 -184 14 -67
28 -127 31 -132 3 -5 5 -56 6 -114 l0 -105 749 0 749 0 0 895 0 895 -1600 0
-1600 0 0 -895z"/>
<path d="M1334 653 c-14 -32 -32 -71 -39 -88 -26 -58 -44 -121 -55 -190 -7 -38 -18 -92
-26 -120 -7 -27 -15 -77 -19 -110 -3 -33 -8 -77 -11 -97 l-6 -38 216 0 c184 0
216 2 216 15 0 21 -18 96 -46 190 -12 44 -30 112 -39 150 -9 39 -33 108 -54
155 -21 47 -47 108 -58 135 -28 71 -47 70 -79 -2z"/>
</g>
</svg>
