<svg version="1.0" xmlns="http://www.w3.org/2000/svg"
 width="668px" style="transform:scale(1,1.001);" height="375.75px" viewBox="0 0 320.000000 180.000000"
 preserveAspectRatio="xMidYMid meet">
<g transform="translate(0.000000,180.000000) scale(0.100000,-0.100000)"
fill="#000000" stroke="none">
<path d="M0 905 l0 -895 1600 0 1600 0 0 895 0 895 -1600 0 -1600 0 0 -895z m1730 546
c39 -11 83 -29 99 -40 49 -35 91 -75 91 -86 0 -6 11 -26 25 -45 20 -28 25 -45
25 -97 0 -49 -6 -75 -25 -111 -14 -26 -25 -58 -25 -72 0 -14 -12 -43 -25 -65
-14 -22 -25 -47 -25 -56 0 -22 62 -68 108 -81 20 -5 44 -16 52 -23 8 -8 41
-27 73 -44 72 -38 165 -111 195 -154 81 -115 93 -152 68 -211 -29 -69 -10 -67
-721 -63 -500 3 -637 6 -649 16 -48 40 10 274 81 329 73 56 98 72 110 72 7 0
13 4 13 8 0 10 132 72 154 72 9 0 30 13 48 29 l33 29 -30 58 c-17 31 -38 73
-48 92 -11 20 -34 55 -52 80 -19 24 -39 59 -45 78 -11 32 -9 39 19 82 17 26
62 78 100 116 63 61 78 70 138 87 88 23 128 23 213 0z"/>
</g>
</svg>
