<svg version="1.0" xmlns="http://www.w3.org/2000/svg"
 width="668px" style="transform:scale(1,1.001);" height="375.75px" viewBox="0 0 320.000000 180.000000"
 preserveAspectRatio="xMidYMid meet">
<g transform="translate(0.000000,180.000000) scale(0.100000,-0.100000)"
fill="#000000" stroke="none">
<path d="M0 905 l0 -895 650 0 650 0 0 38 c0 48 17 207 38 352 23 159 20 208 -18 320
-37 111 -59 224 -71 370 -5 58 -11 130 -15 161 -6 60 0 76 52 149 19 26 39 38
84 52 77 24 93 47 84 116 -11 87 -5 97 74 112 88 16 162 -1 173 -40 18 -63 10
-100 -35 -168 -64 -99 -64 -96 -16 -209 6 -13 14 -33 18 -45 25 -70 83 -168
125 -212 58 -62 60 -90 6 -94 -31 -3 -43 3 -78 37 -22 22 -41 44 -41 50 0 17
-44 80 -57 81 -6 0 -15 -9 -18 -20 -7 -23 -16 -25 -33 -8 -37 37 -47 -77 -27
-307 11 -123 5 -226 -19 -330 -9 -38 -19 -105 -23 -147 -7 -89 5 -118 62 -145
34 -16 45 -36 45 -85 l0 -28 795 0 795 0 0 895 0 895 -1600 0 -1600 0 0 -895z"/>
</g>
</svg>
