<svg version="1.0" xmlns="http://www.w3.org/2000/svg"
 width="668px" style="transform:scale(1,1.001);" height="375.75px" viewBox="0 0 320.000000 180.000000"
 preserveAspectRatio="xMidYMid meet">
<g transform="translate(0.000000,180.000000) scale(0.100000,-0.100000)"
fill="#000000" stroke="none">
<path d="M0 905 l0 -895 1600 0 1600 0 0 895 0 895 -1600 0 -1600 0 0 -895z m1685 580
c117 -39 180 -88 215 -169 11 -26 20 -59 21 -74 2 -38 -35 -171 -59 -212 -11
-19 -23 -55 -26 -79 -9 -57 10 -86 60 -96 21 -3 58 -18 83 -31 25 -13 51 -24
57 -24 32 0 126 -62 185 -122 64 -64 67 -69 89 -158 24 -98 23 -171 -2 -197
-29 -29 -91 -32 -358 -22 -146 6 -416 9 -600 8 -403 -2 -375 -4 -400 21 -16
16 -20 33 -20 94 0 61 5 83 28 129 16 31 46 72 68 92 21 19 46 42 55 50 9 8
19 15 24 15 4 0 22 11 39 24 17 13 41 26 54 30 12 4 22 11 22 15 0 10 46 31
66 31 27 0 84 51 84 75 0 24 -42 114 -72 154 -10 13 -18 30 -18 38 0 8 -11 29
-24 46 -61 82 -55 164 16 229 24 22 60 55 80 74 45 42 147 83 209 84 26 0 81
-11 124 -25z"/>
</g>
</svg>
