<svg version="1.0" xmlns="http://www.w3.org/2000/svg"
 width="668px" style="transform:scale(1,1.001);" height="375.75px" viewBox="0 0 320.000000 180.000000"
 preserveAspectRatio="xMidYMid meet">
<g transform="translate(0.000000,180.000000) scale(0.100000,-0.100000)"
fill="#000000" stroke="none">
<path d="M0 905 l0 -895 675 0 c668 0 675 0 675 20 0 11 -9 29 -20 40 -13 13 -18 28
-15 43 6 24 15 316 18 595 2 135 -1 175 -11 181 -8 5 -19 19 -26 32 -9 18 -19
24 -41 23 -49 -3 -108 -22 -117 -38 -5 -8 -25 -18 -46 -22 -20 -4 -47 -14 -60
-22 -21 -14 -23 -13 -28 6 -3 11 -19 26 -35 32 -35 15 -59 40 -37 40 8 0 27
14 43 30 16 17 35 30 44 30 30 0 97 41 149 91 54 52 54 52 46 98 -11 64 -6
132 12 159 13 19 23 22 84 22 60 0 71 -3 84 -22 9 -12 16 -36 16 -52 0 -34 34
-93 58 -100 9 -2 31 -7 47 -11 23 -5 48 -29 104 -100 90 -112 103 -137 102
-184 0 -20 -1 -140 -1 -267 l0 -232 -31 -58 c-26 -47 -30 -64 -24 -98 3 -23 7
-61 8 -86 2 -43 1 -45 -28 -48 -36 -3 -40 0 -88 59 -47 58 -52 117 -17 175 15
23 23 52 23 78 0 39 -42 196 -53 196 -30 -1 -58 -102 -71 -262 -17 -209 -31
-281 -57 -293 -13 -6 -22 -19 -22 -32 l0 -23 920 0 920 0 0 895 0 895 -1600 0
-1600 0 0 -895z"/>
</g>
</svg>
