<svg version="1.0" xmlns="http://www.w3.org/2000/svg"
 width="668px" style="transform:scale(1,1.001);" height="375.75px" viewBox="0 0 320.000000 180.000000"
 preserveAspectRatio="xMidYMid meet">
<g transform="translate(0.000000,180.000000) scale(0.100000,-0.100000)"
fill="#000000" stroke="none">
<path d="M0 905 l0 -895 1600 0 1600 0 0 895 0 895 -1600 0 -1600 0 0 -895z m1633 775
c14 -11 29 -20 35 -20 21 0 64 -45 88 -92 l25 -50 -16 -74 c-9 -40 -24 -96
-34 -125 -18 -51 -18 -53 0 -82 20 -35 95 -97 115 -97 7 0 18 -9 23 -19 6 -10
25 -24 42 -30 18 -6 38 -20 46 -31 8 -11 20 -20 28 -20 20 0 95 -71 95 -90 0
-8 9 -32 20 -52 12 -22 23 -72 29 -131 5 -53 14 -104 19 -114 10 -19 31 -158
39 -265 8 -96 42 -90 -581 -91 -609 -1 -579 -5 -592 79 -14 93 24 321 67 405
10 21 19 45 19 53 0 36 74 120 199 226 115 98 128 124 92 190 -11 19 -24 44
-29 56 -6 11 -29 47 -51 79 -76 108 -50 190 90 285 40 27 52 30 125 30 66 0
86 -4 107 -20z"/>
</g>
</svg>
