<svg version="1.0" xmlns="http://www.w3.org/2000/svg"
 width="668px" style="transform:scale(1,1.001);" height="375.75px" viewBox="0 0 320.000000 180.000000"
 preserveAspectRatio="xMidYMid meet">
<g transform="translate(0.000000,180.000000) scale(0.100000,-0.100000)"
fill="#000000" stroke="none">
<path d="M0 905 l0 -895 1600 0 1600 0 0 895 0 895 -1600 0 -1600 0 0 -895z m1809 735
c35 -18 73 -62 82 -94 18 -63 8 -164 -25 -253 -15 -39 -14 -46 1 -78 9 -20 24
-35 34 -35 9 0 23 -9 30 -19 8 -11 55 -41 104 -67 50 -25 99 -56 111 -68 32
-33 74 -112 74 -140 0 -24 14 -54 60 -131 39 -66 38 -158 -3 -171 -12 -4 -51
-7 -87 -6 -52 1 -70 -2 -89 -18 -23 -20 -24 -24 -17 -104 5 -76 4 -86 -16
-111 -39 -50 -64 -54 -304 -49 -266 6 -374 18 -410 47 -24 19 -26 24 -19 71
20 153 10 243 -35 291 -53 56 -67 183 -29 257 12 23 34 54 48 69 32 31 136 89
162 89 9 0 29 14 43 30 l25 31 -21 42 c-12 23 -36 62 -53 87 -17 25 -40 67
-50 93 -17 46 -17 51 -2 100 11 34 31 66 57 92 34 34 51 42 108 52 75 13 190
10 221 -7z"/>
</g>
</svg>
