<svg version="1.0" xmlns="http://www.w3.org/2000/svg"
 width="668px" style="transform:scale(1,1.001);" height="375.75px" viewBox="0 0 320.000000 180.000000"
 preserveAspectRatio="xMidYMid meet">
<g transform="translate(0.000000,180.000000) scale(0.100000,-0.100000)"
fill="#000000" stroke="none">
<path d="M0 905 l0 -895 665 0 c650 0 665 0 665 19 0 26 -35 82 -87 141 l-43 47 0 151
c0 84 5 184 11 224 29 206 51 309 101 478 27 91 85 181 125 194 17 6 43 23 57
39 14 15 36 27 50 27 28 0 46 25 46 63 0 25 -9 45 -47 106 -49 77 -34 163 40
228 20 18 37 42 37 53 0 20 -3 20 -810 20 l-810 0 0 -895z"/>
<path d="M1770 1780 c0 -11 18 -37 41 -58 70 -64 84 -137 45 -225 -24 -56 -27 -70 -20
-114 6 -39 9 -44 45 -53 21 -6 44 -20 50 -31 6 -11 23 -25 38 -30 15 -5 42
-31 60 -56 30 -42 34 -56 47 -182 9 -75 16 -181 16 -236 1 -101 -1 -107 -69
-330 -8 -27 -18 -96 -22 -152 -7 -90 -12 -108 -37 -144 -45 -65 -63 -102 -64
-131 l0 -28 650 0 650 0 0 895 0 895 -715 0 c-712 0 -715 0 -715 -20z"/>
</g>
</svg>
