<svg version="1.0" xmlns="http://www.w3.org/2000/svg"
 width="668px" style="transform:scale(1,1.001);" height="375.75px" viewBox="0 0 320.000000 180.000000"
 preserveAspectRatio="xMidYMid meet">
<g transform="translate(0.000000,180.000000) scale(0.100000,-0.100000)"
fill="#000000" stroke="none">
<path d="M0 905 l0 -895 1600 0 1600 0 0 895 0 895 -1600 0 -1600 0 0 -895z m1661 771
c89 -47 122 -90 127 -167 3 -41 0 -72 -11 -97 -59 -136 -40 -224 58 -267 17
-8 38 -23 47 -34 10 -12 25 -21 34 -21 9 0 32 -14 51 -30 18 -17 39 -30 46
-30 15 0 51 -40 90 -99 22 -33 30 -61 37 -124 5 -45 16 -113 24 -152 9 -38 16
-89 16 -112 0 -23 7 -68 15 -100 18 -69 12 -106 -22 -133 -24 -19 -37 -19
-557 -14 -315 3 -542 10 -558 16 -33 12 -38 31 -38 145 0 101 28 243 61 305
10 20 19 46 19 56 0 11 9 31 20 45 11 14 20 29 20 34 0 13 91 104 133 131 20
13 37 28 37 32 0 4 27 28 59 54 63 51 82 87 58 115 -8 9 -22 30 -31 46 -9 17
-27 47 -39 67 -88 147 -90 156 -59 206 35 56 78 104 107 118 17 8 41 21 55 29
14 8 50 15 81 15 45 0 69 -7 120 -34z"/>
</g>
</svg>
