<svg version="1.0" xmlns="http://www.w3.org/2000/svg"
 width="668px" style="transform:scale(1,1.001);" height="375.75px" viewBox="0 0 320.000000 180.000000"
 preserveAspectRatio="xMidYMid meet">
<g transform="translate(0.000000,180.000000) scale(0.100000,-0.100000)"
fill="#000000" stroke="none">
<path d="M0 905 l0 -895 895 0 895 0 0 58 c0 43 8 73 31 122 90 189 127 349 133 575 l4
170 -39 46 c-34 41 -39 53 -41 107 -3 59 -2 62 37 103 l40 41 95 -6 c150 -10
143 -6 138 -92 -5 -71 -4 -73 24 -94 16 -12 46 -24 66 -27 20 -3 50 -17 65
-30 16 -12 34 -23 40 -23 21 -1 77 -86 101 -152 70 -192 78 -245 46 -317 -11
-24 -20 -57 -20 -75 -1 -45 -33 -109 -83 -163 -66 -72 -94 -128 -95 -190 l-1
-53 435 0 434 0 0 895 0 895 -1600 0 -1600 0 0 -895z"/>
<path d="M2053 97 c-33 -24 -43 -37 -43 -59 l0 -28 70 0 c68 0 70 1 70 24 0 25 -37 97
-48 95 -4 0 -26 -15 -49 -32z"/>
</g>
</svg>
