<svg version="1.0" xmlns="http://www.w3.org/2000/svg"
 width="668px" style="transform:scale(1,1.001);" height="375.75px" viewBox="0 0 320.000000 180.000000"
 preserveAspectRatio="xMidYMid meet">
<g transform="translate(0.000000,180.000000) scale(0.100000,-0.100000)"
fill="#000000" stroke="none">
<path d="M0 905 l0 -895 1600 0 1600 0 0 895 0 895 -1600 0 -1600 0 0 -895z m1578 697
c49 -39 57 -70 42 -149 -8 -41 -8 -66 -1 -85 10 -28 20 -32 100 -43 24 -3 56
-14 71 -25 15 -11 47 -22 71 -26 24 -4 57 -18 72 -31 16 -12 34 -23 41 -23 8
0 24 -8 37 -18 13 -11 45 -26 72 -35 26 -9 59 -25 74 -36 14 -12 36 -21 48
-21 12 0 34 -10 48 -22 14 -13 35 -30 46 -38 12 -8 24 -30 27 -47 6 -29 3 -34
-21 -43 -36 -14 -148 1 -201 27 -29 14 -57 18 -106 17 -37 -1 -81 3 -97 9 -50
18 -58 2 -66 -131 -6 -95 -12 -126 -31 -162 -23 -42 -24 -55 -24 -215 -1 -206
-3 -211 -88 -208 -31 1 -125 3 -209 5 -190 4 -189 3 -187 121 1 47 11 116 23
161 22 84 27 161 11 186 -5 8 -10 10 -10 4 0 -14 -72 -54 -98 -54 -11 0 -37
-7 -58 -16 -21 -9 -70 -18 -108 -20 -38 -3 -73 -7 -77 -10 -23 -14 -61 11 -79
52 -11 23 -20 45 -20 47 0 3 22 19 49 36 40 26 64 33 123 38 90 7 125 28 134
81 3 20 16 77 29 125 25 93 42 119 126 195 54 48 64 87 34 130 -9 12 -24 46
-34 75 -23 71 -10 110 49 156 40 30 49 33 96 29 39 -3 62 -12 92 -36z"/>
</g>
</svg>
