<svg version="1.0" xmlns="http://www.w3.org/2000/svg"
 width="668px" style="transform:scale(1,1.001);" height="375.75px" viewBox="0 0 320.000000 180.000000"
 preserveAspectRatio="xMidYMid meet">
<g transform="translate(0.000000,180.000000) scale(0.100000,-0.100000)"
fill="#000000" stroke="none">
<path d="M0 905 l0 -895 539 0 539 0 0 83 c0 55 10 126 31 217 26 117 30 152 28 260 -2
120 6 182 39 321 8 31 14 75 14 96 0 59 34 179 64 223 14 22 26 43 26 46 0 4
11 17 25 30 26 24 35 86 15 99 -17 11 -40 76 -40 115 0 39 18 62 57 74 11 4
27 13 33 21 18 21 89 19 127 -5 53 -32 76 -99 54 -155 -13 -31 14 -72 62 -93
23 -10 48 -26 56 -35 7 -10 18 -17 23 -17 27 0 77 -84 110 -183 16 -52 20 -92
21 -247 2 -186 -8 -258 -36 -261 -7 -1 -25 -2 -42 -3 -29 -1 -30 -3 -38 -66
-11 -86 -1 -271 18 -340 8 -30 15 -83 15 -117 l0 -63 730 0 730 0 0 895 0 895
-1600 0 -1600 0 0 -895z"/>
<path d="M1428 474 c-26 -14 -93 -102 -129 -169 -8 -16 -23 -57 -33 -90 -26 -88 -48
-145 -57 -151 -5 -3 -9 -16 -9 -30 l0 -24 215 0 c214 0 215 0 215 22 0 12 -6
29 -13 37 -7 9 -30 45 -51 80 -34 60 -47 101 -76 252 -6 31 -16 63 -23 72 -11
14 -15 14 -39 1z"/>
</g>
</svg>
