<svg version="1.0" xmlns="http://www.w3.org/2000/svg"
 width="668px" style="transform:scale(1,1.001);" height="375.75px" viewBox="0 0 320.000000 180.000000"
 preserveAspectRatio="xMidYMid meet">
<g transform="translate(0.000000,180.000000) scale(0.100000,-0.100000)"
fill="#000000" stroke="none">
<path d="M0 905 l0 -895 1600 0 1600 0 0 895 0 895 -1600 0 -1600 0 0 -895z m1587 743
c10 -8 29 -19 43 -23 31 -10 91 -60 108 -93 22 -39 -5 -199 -44 -259 -20 -32
-17 -71 8 -91 11 -9 35 -29 51 -45 17 -15 36 -27 43 -27 8 0 22 -8 32 -17 10
-10 34 -26 55 -35 20 -10 37 -22 37 -28 0 -5 6 -10 14 -10 25 0 116 -111 126
-155 6 -22 16 -62 24 -90 8 -27 18 -81 22 -120 3 -38 14 -88 23 -110 20 -51
22 -208 3 -227 -17 -17 -1067 -25 -1124 -8 -49 14 -63 58 -48 156 5 38 10 88
10 111 0 24 12 73 26 110 59 153 78 185 152 260 40 40 77 73 82 73 18 0 131
103 141 128 12 29 -2 84 -27 112 -40 44 -62 78 -68 107 -4 17 -14 37 -22 44
-22 18 -17 85 9 121 35 50 62 73 119 107 48 28 60 31 120 29 43 -2 73 -9 85
-20z"/>
</g>
</svg>
