<svg version="1.0" xmlns="http://www.w3.org/2000/svg"
 width="668px" style="transform:scale(1,1.001);" height="375.75px" viewBox="0 0 320.000000 180.000000"
 preserveAspectRatio="xMidYMid meet">
<g transform="translate(0.000000,180.000000) scale(0.100000,-0.100000)"
fill="#000000" stroke="none">
<path d="M0 905 l0 -895 1600 0 1600 0 0 895 0 895 -1600 0 -1600 0 0 -895z m1745 550
c97 -31 159 -80 205 -162 29 -52 32 -62 27 -117 -5 -57 -31 -135 -77 -232 -11
-23 -20 -50 -20 -60 0 -21 74 -84 99 -84 9 -1 41 -16 71 -35 30 -19 66 -41 80
-48 49 -24 110 -67 110 -77 0 -6 6 -10 13 -10 14 0 87 -90 87 -107 0 -5 9 -18
20 -28 25 -22 28 -119 6 -151 -31 -44 -62 -45 -718 -43 -599 3 -621 4 -645 23
-23 17 -25 24 -19 70 3 27 18 88 32 134 24 74 32 88 78 127 28 25 67 53 86 63
19 10 57 31 84 45 27 15 68 32 90 38 46 12 86 44 86 69 0 10 -18 44 -40 76
-22 33 -40 65 -40 72 0 7 -18 37 -41 67 -77 102 -71 131 47 260 74 81 89 93
146 112 84 29 137 28 233 -2z"/>
</g>
</svg>
