<svg version="1.0" xmlns="http://www.w3.org/2000/svg"
 width="668px" style="transform:scale(1,1.001);" height="375.75px" viewBox="0 0 320.000000 180.000000"
 preserveAspectRatio="xMidYMid meet">
<g transform="translate(0.000000,180.000000) scale(0.100000,-0.100000)"
fill="#000000" stroke="none">
<path d="M0 905 l0 -895 649 0 649 0 -1 83 c0 45 7 118 17 162 17 77 16 87 -5 309 -26
281 -23 467 8 534 29 62 92 118 142 126 24 4 44 14 50 25 6 10 24 24 41 31 16
7 30 20 30 29 0 9 -18 52 -40 95 -26 52 -40 92 -40 118 0 51 32 113 67 127 15
7 44 21 63 32 42 23 76 24 110 4 14 -8 39 -21 57 -30 41 -19 83 -90 83 -138 0
-20 -12 -62 -26 -93 -41 -90 -41 -113 1 -156 23 -24 49 -40 73 -44 44 -8 100
-60 128 -119 52 -110 -5 -505 -101 -694 -19 -39 -23 -66 -27 -184 -3 -86 -9
-142 -16 -149 -7 -7 -12 -25 -12 -40 l0 -28 650 0 650 0 0 895 0 895 -1600 0
-1600 0 0 -895z"/>
</g>
</svg>
