<svg version="1.0" xmlns="http://www.w3.org/2000/svg"
 width="668px" style="transform:scale(1,1.001);" height="375.75px" viewBox="0 0 320.000000 180.000000"
 preserveAspectRatio="xMidYMid meet">
<g transform="translate(0.000000,180.000000) scale(0.100000,-0.100000)"
fill="#000000" stroke="none">
<path d="M0 905 l0 -895 620 0 620 0 0 25 c0 14 -10 40 -22 56 -21 28 -23 41 -22 152 0
70 5 131 12 143 13 24 1 89 -21 111 -12 13 -25 12 -93 -2 -43 -8 -90 -24 -104
-34 -14 -10 -41 -22 -59 -26 -18 -4 -49 -18 -68 -31 -20 -13 -41 -24 -48 -24
-6 0 -24 -13 -39 -29 -19 -20 -42 -31 -72 -36 -24 -3 -56 -16 -71 -29 -16 -12
-44 -28 -63 -36 -19 -7 -45 -22 -56 -32 -33 -30 -84 -21 -103 17 -9 17 -25 46
-36 65 -26 43 -65 161 -65 196 0 42 18 64 51 64 24 0 42 -12 80 -51 60 -62
110 -74 169 -40 48 27 134 73 195 104 28 14 57 32 64 41 7 9 18 16 23 16 14 0
62 53 123 135 29 39 85 97 125 130 89 73 135 142 150 226 7 35 18 76 26 91 31
59 65 171 60 193 -3 12 -23 44 -45 70 -48 58 -66 120 -51 175 6 22 19 44 30
50 10 5 58 10 107 10 122 -1 153 -27 153 -134 0 -72 9 -94 64 -149 25 -25 46
-49 46 -54 0 -5 11 -19 25 -31 14 -12 25 -33 25 -46 0 -14 9 -70 20 -126 12
-60 20 -141 20 -198 0 -90 -3 -100 -30 -144 -16 -26 -59 -78 -95 -116 -36 -38
-71 -85 -79 -104 -8 -19 -22 -40 -30 -48 -9 -7 -16 -18 -16 -24 0 -6 -11 -28
-25 -48 -13 -20 -29 -56 -34 -80 -6 -24 -19 -64 -30 -89 -17 -37 -21 -65 -21
-176 l0 -133 895 0 895 0 0 895 0 895 -1600 0 -1600 0 0 -895z"/>
</g>
</svg>
