<svg version="1.0" xmlns="http://www.w3.org/2000/svg"
 width="668px" style="transform:scale(1,1.001);" height="375.75px" viewBox="0 0 320.000000 180.000000"
 preserveAspectRatio="xMidYMid meet">
<g transform="translate(0.000000,180.000000) scale(0.100000,-0.100000)"
fill="#000000" stroke="none">
<path d="M0 905 l0 -895 1600 0 1600 0 0 895 0 895 -1600 0 -1600 0 0 -895z m1617 765
c32 -16 77 -47 101 -69 l42 -39 0 -77 c0 -70 -3 -83 -40 -152 -22 -42 -40 -80
-40 -85 0 -16 52 -78 65 -78 7 0 29 -13 50 -30 21 -16 45 -30 55 -30 9 0 29
-11 44 -25 15 -14 33 -25 41 -25 18 0 125 -119 125 -140 0 -10 7 -36 15 -59 8
-24 19 -81 25 -129 6 -47 16 -92 22 -99 5 -7 16 -52 23 -100 8 -49 17 -106 20
-129 6 -34 3 -45 -18 -69 -23 -27 -29 -29 -128 -34 -157 -8 -783 -6 -877 4
-58 5 -93 14 -115 29 -29 20 -32 27 -35 80 -2 32 4 78 12 104 8 26 17 79 21
117 4 39 12 79 19 90 7 11 16 35 19 54 13 66 116 191 256 311 34 29 42 43 47
80 6 47 0 66 -42 140 -32 55 -73 166 -74 198 0 44 88 152 124 152 8 0 24 8 37
19 50 39 117 36 206 -9z"/>
</g>
</svg>
