<svg version="1.0" xmlns="http://www.w3.org/2000/svg"
 width="668px" style="transform:scale(1,1.001);" height="375.75px" viewBox="0 0 320.000000 180.000000"
 preserveAspectRatio="xMidYMid meet">
<g transform="translate(0.000000,180.000000) scale(0.100000,-0.100000)"
fill="#000000" stroke="none">
<path d="M0 905 l0 -895 518 0 517 0 0 146 c0 128 2 147 18 159 9 7 30 41 45 76 23 55
27 77 26 154 -1 50 -9 124 -18 165 -10 41 -21 117 -26 170 -10 99 -21 187 -40
305 -11 74 -5 160 15 208 6 15 30 49 53 75 69 80 92 110 92 120 0 16 28 64 42
73 7 5 36 9 63 9 55 0 106 -25 125 -60 9 -16 18 -21 36 -17 13 2 30 -1 38 -7
39 -33 68 -319 37 -375 -12 -23 -16 -23 -92 -17 -78 7 -78 7 -85 -18 -3 -14
-4 -81 -2 -148 3 -116 5 -127 36 -188 58 -115 102 -261 102 -341 0 -50 -38
-103 -84 -119 -18 -6 -39 -22 -46 -35 -7 -14 -17 -25 -22 -25 -8 0 -20 -11
-79 -77 -55 -60 -69 -94 -69 -168 l0 -65 1000 0 1000 0 0 895 0 895 -1600 0
-1600 0 0 -895z"/>
</g>
</svg>
