<svg version="1.0" xmlns="http://www.w3.org/2000/svg"
 width="668px" style="transform:scale(1,1.001);" height="375.75px" viewBox="0 0 320.000000 180.000000"
 preserveAspectRatio="xMidYMid meet">
<g transform="translate(0.000000,180.000000) scale(0.100000,-0.100000)"
fill="#000000" stroke="none">
<path d="M0 905 l0 -895 795 0 795 0 0 25 c0 18 -5 25 -19 25 -27 0 -34 14 -35 79 -1
31 -4 61 -8 67 -4 7 -9 56 -10 110 -3 93 -1 103 29 166 60 125 70 237 30 328
-33 74 -77 120 -114 120 -50 0 -68 -10 -104 -57 -19 -25 -44 -56 -56 -70 -13
-13 -23 -31 -23 -39 0 -8 -5 -23 -12 -33 -9 -15 -8 -34 7 -93 10 -40 21 -91
26 -113 4 -22 15 -60 23 -83 16 -42 14 -103 -4 -127 -4 -5 -15 -36 -25 -68
-21 -67 -74 -119 -103 -101 -26 17 -32 61 -16 112 29 96 20 144 -52 308 -74
168 -77 195 -37 326 l21 66 -22 21 c-12 12 -27 21 -33 21 -20 0 -35 70 -31
143 3 60 11 87 49 167 25 52 55 120 68 150 13 30 29 69 36 85 36 87 91 189
107 199 10 6 18 21 18 33 l0 23 -650 0 -650 0 0 -895z"/>
<path d="M1680 1776 c0 -20 6 -25 40 -31 48 -8 98 -53 122 -110 77 -184 108 -301 115
-446 8 -149 -3 -236 -31 -254 -25 -17 -62 -10 -72 13 -4 10 -9 78 -11 152 -2
81 -9 149 -18 170 -7 19 -16 44 -20 54 -6 19 -7 19 -28 -2 -21 -21 -22 -31
-21 -165 1 -103 6 -155 18 -190 34 -101 14 -400 -39 -567 -41 -130 -55 -188
-55 -231 0 -61 -15 -99 -40 -106 -13 -3 -20 -14 -20 -29 l0 -24 790 0 790 0 0
895 0 895 -760 0 -760 0 0 -24z"/>
<path d="M1186 1184 c-29 -36 -49 -90 -40 -105 19 -31 65 25 78 93 9 49 -5 54 -38 12z"/>
</g>
</svg>
