<svg version="1.0" xmlns="http://www.w3.org/2000/svg"
 width="668px" style="transform:scale(1,1.001);" height="375.75px" viewBox="0 0 320.000000 180.000000"
 preserveAspectRatio="xMidYMid meet">
<g transform="translate(0.000000,180.000000) scale(0.100000,-0.100000)"
fill="#000000" stroke="none">
<path d="M0 905 l0 -895 649 0 648 0 5 50 c3 31 15 64 32 88 34 50 33 86 -6 197 -29 82
-32 103 -36 242 -2 86 1 171 6 195 6 24 15 61 21 84 6 22 12 89 13 147 4 131
-1 138 -95 139 -36 1 -72 -3 -79 -9 -7 -6 -41 -18 -76 -27 -130 -33 -153 -19
-151 95 2 117 5 123 68 127 47 3 57 0 83 -25 26 -25 36 -28 95 -27 57 2 69 5
84 25 10 13 36 28 60 34 57 13 79 48 62 97 -7 18 -15 51 -18 73 -6 35 -3 44
24 73 27 29 35 32 91 32 55 0 65 -3 91 -29 27 -27 29 -35 29 -106 0 -88 17
-129 56 -139 42 -11 107 -88 177 -210 13 -24 16 -44 11 -89 -7 -76 -12 -87
-39 -87 -23 0 -55 28 -55 48 0 13 -39 42 -57 42 -18 0 -17 -76 1 -165 8 -38
22 -108 32 -155 9 -47 21 -95 27 -107 10 -23 13 -134 7 -298 -3 -77 0 -96 18
-130 25 -44 28 -75 10 -93 -19 -19 -63 -14 -84 11 -45 52 -49 69 -54 217 -5
122 -9 152 -27 190 -12 25 -35 79 -51 120 -30 80 -53 98 -84 63 -34 -40 -54
-181 -38 -273 41 -238 47 -313 26 -345 -9 -14 -23 -25 -31 -25 -9 0 -15 -10
-15 -25 l0 -25 885 0 885 0 0 895 0 895 -1600 0 -1600 0 0 -895z"/>
</g>
</svg>
