<svg version="1.0" xmlns="http://www.w3.org/2000/svg"
 width="668px" style="transform:scale(1,1.001);" height="375.75px" viewBox="0 0 320.000000 180.000000"
 preserveAspectRatio="xMidYMid meet">
<g transform="translate(0.000000,180.000000) scale(0.100000,-0.100000)"
fill="#000000" stroke="none">
<path d="M0 905 l0 -895 931 0 932 0 -8 37 c-4 21 -11 58 -15 83 -5 25 -9 81 -9 125 0
65 4 89 24 130 14 28 25 57 25 65 0 9 7 25 15 37 9 12 22 39 29 60 7 21 31 65
53 98 98 149 100 157 101 295 1 69 -3 136 -9 150 -28 70 -211 125 -414 125
-71 0 -139 -3 -150 -7 -31 -12 -53 27 -30 52 12 13 14 28 10 53 -11 57 -1 59
313 56 344 -4 351 -2 297 99 -29 55 -30 63 -9 107 31 65 177 100 253 60 44
-22 54 -49 48 -118 -9 -96 17 -137 86 -137 12 0 53 -16 91 -35 66 -33 76 -35
168 -35 107 0 130 -10 144 -66 8 -30 -2 -39 -58 -54 -43 -12 -53 -23 -40 -46
7 -12 3 -27 -12 -50 -25 -39 -59 -44 -91 -14 -24 22 -93 41 -81 22 4 -7 3 -12
-3 -12 -23 0 -43 -53 -56 -148 -12 -87 -44 -199 -65 -227 -4 -5 -10 -57 -14
-115 -4 -58 -16 -140 -27 -182 -10 -42 -21 -119 -24 -170 -3 -51 -8 -126 -10
-165 l-5 -73 405 0 405 0 0 895 0 895 -1600 0 -1600 0 0 -895z"/>
<path d="M2115 358 c-16 -24 -36 -55 -46 -69 -24 -36 -36 -88 -44 -191 l-6 -88 110 0
c107 0 111 1 111 22 0 12 -9 41 -21 64 -14 31 -23 77 -29 164 -5 67 -12 125
-15 131 -12 19 -33 8 -60 -33z"/>
</g>
</svg>
