<svg version="1.0" xmlns="http://www.w3.org/2000/svg"
 width="668px" style="transform:scale(1,1.001);" height="375.75px" viewBox="0 0 320.000000 180.000000"
 preserveAspectRatio="xMidYMid meet">
<g transform="translate(0.000000,180.000000) scale(0.100000,-0.100000)"
fill="#000000" stroke="none">
<path d="M0 905 l0 -895 506 0 507 0 -7 39 c-5 34 0 51 35 117 l41 78 5 190 c6 239 -10
558 -30 606 -8 19 -20 78 -27 130 -7 52 -23 123 -36 158 -20 55 -47 160 -61
244 -7 40 18 118 42 130 37 19 65 51 65 75 l0 23 -520 0 -520 0 0 -895z"/>
<path d="M1200 1775 c0 -29 26 -45 74 -45 36 0 57 -14 87 -59 11 -17 28 -26 59 -30 52
-7 78 -37 91 -105 5 -25 20 -70 34 -99 48 -103 27 -161 -64 -173 -39 -5 -54
-12 -72 -38 -24 -31 -24 -32 -25 -346 -1 -343 -7 -388 -60 -466 -32 -46 -79
-147 -92 -194 -5 -19 -7 -74 -4 -122 l5 -88 983 0 984 0 0 895 0 895 -1000 0
-1000 0 0 -25z"/>
<path d="M1097 1644 c-11 -12 -8 -72 4 -80 16 -10 30 16 27 50 -3 29 -18 43 -31 30z"/>
</g>
</svg>
