<svg version="1.0" xmlns="http://www.w3.org/2000/svg"
 width="668px" style="transform:scale(1,1.001);" height="375.75px" viewBox="0 0 320.000000 180.000000"
 preserveAspectRatio="xMidYMid meet">
<g transform="translate(0.000000,180.000000) scale(0.100000,-0.100000)"
fill="#000000" stroke="none">
<path d="M0 905 l0 -895 680 0 680 0 0 49 c0 65 16 81 84 81 43 0 57 -5 75 -24 l23 -24
35 24 c38 25 45 27 80 18 24 -7 43 -49 43 -95 l0 -29 750 0 750 0 0 895 0 895
-1600 0 -1600 0 0 -895z m1530 745 c51 -27 76 -126 44 -175 -8 -13 -14 -38
-12 -57 3 -31 6 -34 55 -43 28 -5 62 -19 75 -31 13 -12 31 -24 41 -27 9 -4 20
-15 24 -24 3 -10 14 -27 23 -38 96 -114 120 -324 42 -371 -60 -35 -65 -51 -73
-253 -10 -216 -19 -284 -43 -310 -16 -18 -33 -20 -189 -20 -139 0 -176 3 -195
15 l-24 16 3 186 c2 202 6 178 -71 457 -32 114 -16 227 40 290 61 67 70 80 70
103 0 14 -14 47 -30 74 -53 86 -47 184 13 208 30 12 184 12 207 0z"/>
</g>
</svg>
