<svg version="1.0" xmlns="http://www.w3.org/2000/svg"
 width="668px" style="transform:scale(1,1.001);" height="375.75px" viewBox="0 0 320.000000 180.000000"
 preserveAspectRatio="xMidYMid meet">
<g transform="translate(0.000000,180.000000) scale(0.100000,-0.100000)"
fill="#000000" stroke="none">
<path d="M0 905 l0 -895 1600 0 1600 0 0 895 0 895 -798 0 -798 0 -12 -92 c-14 -109
-15 -138 -3 -138 5 0 26 -16 47 -35 21 -19 41 -35 45 -35 5 0 20 -11 35 -25
33 -31 35 -31 73 1 27 22 31 32 31 75 0 27 4 49 9 49 5 0 21 -14 35 -31 23
-26 26 -40 26 -100 0 -65 -19 -129 -38 -129 -4 0 -12 -10 -17 -22 -9 -20 -20
-24 -78 -29 -74 -6 -93 -20 -101 -74 -9 -60 -24 -261 -23 -305 1 -25 -2 -155
-6 -290 -8 -212 -7 -251 7 -290 28 -81 14 -130 -38 -130 -26 0 -43 17 -76 77
-29 53 -65 60 -77 16 -14 -52 -8 -118 15 -155 29 -46 15 -58 -63 -58 -89 0
-96 8 -101 114 -4 84 -2 90 25 132 17 24 42 76 56 115 33 92 68 270 59 305 -4
14 -22 49 -42 77 -70 104 -74 123 -71 291 5 203 -10 236 -110 236 -50 0 -87
29 -96 77 -4 20 -13 46 -21 57 -16 24 -19 112 -4 151 9 25 13 26 53 19 23 -4
51 -7 62 -8 10 -1 24 -12 31 -26 45 -99 50 -102 103 -70 32 20 33 22 26 68 -4
26 -11 55 -16 64 -5 9 -9 39 -9 67 l0 51 -670 0 -670 0 0 -895z"/>
</g>
</svg>
