<svg version="1.0" xmlns="http://www.w3.org/2000/svg"
 width="668px" style="transform:scale(1,1.001);" height="375.75px" viewBox="0 0 320.000000 180.000000"
 preserveAspectRatio="xMidYMid meet">
<g transform="translate(0.000000,180.000000) scale(0.100000,-0.100000)"
fill="#000000" stroke="none">
<path d="M0 905 l0 -895 941 0 941 0 -5 33 c-3 17 -10 50 -16 72 -21 78 -8 294 24 405
7 25 16 60 20 79 4 18 18 59 32 90 28 62 28 88 -1 241 -10 54 -23 91 -35 104
-18 17 -24 18 -83 7 -135 -26 -123 -27 -139 16 -29 73 17 167 95 193 20 6 36
15 36 19 0 18 57 32 133 32 130 1 157 23 157 133 0 83 20 142 63 189 22 23 34
27 81 27 43 0 59 -5 75 -21 11 -12 30 -27 42 -33 32 -16 57 -64 58 -109 1 -28
-9 -56 -35 -97 -34 -55 -35 -61 -24 -95 9 -28 21 -39 51 -52 21 -8 39 -19 39
-24 0 -5 9 -18 19 -28 35 -35 50 -77 61 -168 26 -233 -3 -374 -81 -390 -50
-10 -74 -56 -103 -198 -15 -72 -32 -141 -37 -154 -6 -13 -17 -65 -25 -115 -9
-50 -18 -106 -21 -123 l-5 -33 471 0 471 0 0 895 0 895 -1600 0 -1600 0 0
-895z"/>
<path d="M2057 63 c-4 -3 -7 -17 -7 -30 0 -19 5 -23 30 -23 25 0 30 4 30 24 0 28 -35
47 -53 29z"/>
</g>
</svg>
