<svg version="1.0" xmlns="http://www.w3.org/2000/svg"
 width="668px" style="transform:scale(1,1.001);" height="375.75px" viewBox="0 0 320.000000 180.000000"
 preserveAspectRatio="xMidYMid meet">
<g transform="translate(0.000000,180.000000) scale(0.100000,-0.100000)"
fill="#000000" stroke="none">
<path d="M0 905 l0 -895 720 0 720 0 0 25 c0 18 -5 25 -19 25 -27 0 -33 26 -16 60 24
46 29 111 12 135 -14 18 -25 20 -115 17 -90 -3 -101 -1 -106 15 -9 28 11 169
29 203 21 40 19 73 -10 163 -22 71 -24 89 -18 190 7 126 18 157 68 190 26 16
35 29 35 50 0 31 -39 97 -57 97 -6 0 -15 9 -18 21 -4 12 -29 45 -55 75 -51 55
-80 125 -80 191 0 47 35 119 68 140 15 9 35 25 45 35 15 15 35 18 116 18 95 0
100 -1 137 -31 55 -43 75 -88 80 -178 7 -108 11 -120 39 -127 13 -3 31 -17 40
-30 10 -16 29 -26 55 -30 22 -4 51 -17 64 -29 14 -13 39 -26 56 -30 44 -10
116 -83 138 -141 11 -27 23 -80 26 -119 8 -78 41 -217 61 -255 66 -128 86
-315 44 -395 -19 -35 -21 -51 -16 -127 4 -68 3 -89 -9 -99 -8 -6 -14 -22 -14
-35 l0 -24 590 0 590 0 0 895 0 895 -1600 0 -1600 0 0 -895z"/>
</g>
</svg>
