<svg version="1.0" xmlns="http://www.w3.org/2000/svg"
 width="668px" style="transform:scale(1,1.001);" height="375.75px" viewBox="0 0 320.000000 180.000000"
 preserveAspectRatio="xMidYMid meet">
<g transform="translate(0.000000,180.000000) scale(0.100000,-0.100000)"
fill="#000000" stroke="none">
<path d="M0 905 l0 -895 610 0 c604 0 610 0 610 20 0 11 -13 39 -30 61 -16 23 -32 58
-36 78 -8 50 -47 165 -78 231 -14 30 -28 82 -32 115 -4 33 -13 73 -21 89 l-15
29 -81 -9 c-116 -12 -164 -9 -226 12 -53 18 -55 21 -72 74 -47 148 -56 258
-44 540 l7 165 38 37 c34 34 43 38 90 38 44 0 56 -4 81 -29 24 -25 29 -38 30
-83 2 -75 2 -75 -37 -159 -29 -63 -33 -81 -25 -102 6 -15 13 -56 17 -91 12
-115 62 -157 127 -106 14 11 32 20 41 20 9 0 33 15 53 33 21 18 64 50 95 70
86 57 104 94 77 164 -34 91 -28 218 16 308 20 41 34 55 79 78 70 37 107 37
181 3 159 -74 221 -224 145 -347 l-31 -52 37 -38 c21 -22 45 -41 53 -44 9 -3
30 -26 46 -52 l30 -48 5 -240 c6 -255 12 -286 65 -380 35 -61 38 -107 15 -238
-11 -66 -20 -125 -20 -133 0 -12 107 -14 700 -14 l700 0 0 895 0 895 -1600 0
-1600 0 0 -895z"/>
</g>
</svg>
