<svg version="1.0" xmlns="http://www.w3.org/2000/svg"
 width="668px" style="transform:scale(1,1.001);" height="375.75px" viewBox="0 0 320.000000 180.000000"
 preserveAspectRatio="xMidYMid meet">
<g transform="translate(0.000000,180.000000) scale(0.100000,-0.100000)"
fill="#000000" stroke="none">
<path d="M0 905 l0 -895 605 0 604 0 -6 84 c-4 61 1 128 17 245 19 135 21 170 12 209
-26 106 -50 179 -69 213 -11 19 -28 79 -38 132 -23 126 -36 144 -116 153 -42
5 -69 14 -88 30 -16 13 -40 28 -55 34 -27 10 -46 44 -46 84 0 33 58 83 108 95
43 9 83 44 151 131 26 34 25 63 -4 140 -33 88 13 170 97 170 87 0 116 -39 117
-158 1 -77 19 -123 68 -172 29 -28 49 -39 86 -44 87 -13 72 -63 -21 -68 -52
-3 -56 -5 -64 -33 -23 -79 14 -269 103 -520 48 -134 54 -159 53 -230 0 -66 -5
-91 -28 -145 -16 -36 -37 -98 -47 -139 -10 -40 -29 -97 -43 -126 -47 -94 -145
-85 889 -85 l915 0 0 895 0 895 -1600 0 -1600 0 0 -895z"/>
</g>
</svg>
