<svg version="1.0" xmlns="http://www.w3.org/2000/svg"
 width="668px" style="transform:scale(1,1.001);" height="375.75px" viewBox="0 0 320.000000 180.000000"
 preserveAspectRatio="xMidYMid meet">
<g transform="translate(0.000000,180.000000) scale(0.100000,-0.100000)"
fill="#000000" stroke="none">
<path d="M0 905 l0 -895 610 0 610 0 0 21 c0 12 -14 41 -30 66 -17 25 -34 60 -37 77 -7
42 -61 206 -75 231 -7 11 -17 58 -24 105 -17 114 -30 125 -134 114 -145 -17
-237 -3 -264 39 -8 12 -29 76 -47 142 -32 118 -33 125 -37 377 l-3 257 43 27
c152 97 266 -57 177 -241 -16 -34 -30 -71 -31 -81 0 -40 33 -171 54 -211 27
-51 55 -56 100 -18 16 14 36 25 45 25 8 0 38 21 66 46 28 25 69 55 91 66 22
11 48 30 57 42 22 26 24 100 4 136 -9 16 -14 54 -14 105 0 105 39 213 84 234
17 7 39 22 51 33 39 35 84 34 162 -5 120 -59 182 -142 182 -244 0 -50 -5 -65
-35 -108 l-34 -50 45 -42 c24 -24 48 -43 53 -43 5 0 23 -22 40 -49 l31 -48 1
-194 c0 -258 7 -307 58 -408 45 -90 49 -121 27 -210 -8 -31 -18 -86 -21 -123
l-7 -68 701 0 701 0 0 895 0 895 -1600 0 -1600 0 0 -895z"/>
</g>
</svg>
