<svg version="1.0" xmlns="http://www.w3.org/2000/svg"
 width="668px" style="transform:scale(1,1.001);" height="375.75px" viewBox="0 0 320.000000 180.000000"
 preserveAspectRatio="xMidYMid meet">
<g transform="translate(0.000000,180.000000) scale(0.100000,-0.100000)"
fill="#000000" stroke="none">
<path d="M0 905 l0 -895 741 0 742 0 -8 37 c-4 21 -11 58 -16 83 -6 25 -14 90 -19 145
-5 55 -18 141 -27 190 l-18 90 -50 5 c-72 7 -74 22 -35 200 17 80 42 194 55
254 14 59 29 124 35 142 12 37 74 107 103 117 21 8 22 42 2 90 -27 64 -20 100
25 141 36 32 46 36 96 36 30 0 64 -5 75 -10 28 -16 49 -63 53 -123 5 -68 27
-112 67 -133 73 -37 107 -109 89 -189 -6 -25 -31 -96 -56 -158 l-46 -112 -4
-165 c-3 -111 1 -216 12 -320 10 -98 14 -185 10 -237 l-7 -83 690 0 691 0 0
895 0 895 -1600 0 -1600 0 0 -895z"/>
<path d="M1626 328 c-7 -40 -39 -241 -44 -280 l-4 -38 61 0 c43 0 61 4 61 13 0 26 -29
243 -36 272 -4 16 -13 36 -20 43 -11 11 -14 9 -18 -10z"/>
</g>
</svg>
