<svg version="1.0" xmlns="http://www.w3.org/2000/svg"
 width="668px" style="transform:scale(1,1.001);" height="375.75px" viewBox="0 0 320.000000 180.000000"
 preserveAspectRatio="xMidYMid meet">
<g transform="translate(0.000000,180.000000) scale(0.100000,-0.100000)"
fill="#000000" stroke="none">
<path d="M0 905 l0 -895 1600 0 1600 0 0 895 0 895 -1600 0 -1600 0 0 -895z m1582 700
c70 -44 86 -90 52 -160 -8 -18 -14 -48 -12 -66 3 -29 8 -34 48 -46 209 -64
275 -88 341 -123 19 -11 66 -22 105 -26 38 -4 86 -15 106 -25 21 -11 46 -19
57 -19 28 0 163 -69 183 -94 10 -12 18 -36 18 -54 0 -25 -6 -35 -25 -44 -21
-10 -29 -8 -49 11 -24 23 -38 24 -148 15 -52 -4 -82 -1 -130 14 -68 22 -248
48 -271 39 -11 -4 -15 -37 -19 -134 -5 -114 -9 -134 -33 -180 l-27 -52 12
-114 c15 -136 9 -195 -25 -227 -24 -23 -26 -23 -133 -12 -74 8 -131 9 -183 2
-136 -17 -164 6 -153 125 6 68 17 104 37 116 5 4 11 54 14 112 7 123 1 133
-63 95 -34 -20 -54 -23 -144 -24 -58 -1 -127 -5 -155 -9 -45 -6 -52 -5 -73 18
-21 22 -22 29 -13 63 19 66 19 66 148 76 l118 8 32 38 c21 24 32 48 33 69 0
18 5 55 11 84 10 45 21 62 85 126 68 68 74 77 74 114 0 25 -7 50 -19 66 -11
13 -25 49 -31 79 -16 75 -2 115 53 148 61 37 109 34 179 -9z"/>
</g>
</svg>
