<svg version="1.0" xmlns="http://www.w3.org/2000/svg"
 width="668px" style="transform:scale(1,1.001);" height="375.75px" viewBox="0 0 320.000000 180.000000"
 preserveAspectRatio="xMidYMid meet">
<g transform="translate(0.000000,180.000000) scale(0.100000,-0.100000)"
fill="#000000" stroke="none">
<path d="M0 905 l0 -895 790 0 c766 0 790 1 790 19 0 10 -7 36 -16 57 -22 52 -31 311
-14 409 22 133 23 163 6 224 -13 45 -14 68 -7 98 6 21 14 54 19 74 5 20 12 41
16 47 3 6 13 51 22 100 15 87 15 90 -11 184 -30 116 -31 132 -4 194 37 85 102
163 214 260 65 55 100 62 221 46 102 -14 189 -58 197 -101 8 -41 -4 -75 -56
-158 -52 -85 -65 -139 -42 -183 9 -17 20 -30 25 -30 5 0 17 -13 26 -29 10 -17
28 -32 41 -36 13 -3 23 -11 23 -19 0 -7 9 -23 20 -36 11 -13 20 -31 20 -41 0
-10 4 -20 9 -23 13 -9 34 -162 32 -244 -1 -79 -18 -124 -54 -143 -12 -7 -28
-20 -35 -31 -7 -10 -31 -21 -53 -24 -21 -4 -63 -23 -92 -43 l-52 -37 2 -79 c2
-139 -17 -378 -33 -396 -8 -8 -14 -25 -14 -37 l0 -22 605 0 605 0 0 895 0 895
-1600 0 -1600 0 0 -895z"/>
</g>
</svg>
