<svg version="1.0" xmlns="http://www.w3.org/2000/svg"
 width="668px" style="transform:scale(1,1.001);" height="375.75px" viewBox="0 0 320.000000 180.000000"
 preserveAspectRatio="xMidYMid meet">
<g transform="translate(0.000000,180.000000) scale(0.100000,-0.100000)"
fill="#000000" stroke="none">
<path d="M0 905 l0 -895 661 0 661 0 -5 27 c-3 16 -15 80 -26 143 -24 133 -34 160 -66
190 -22 21 -28 22 -67 11 -24 -7 -57 -16 -75 -20 -31 -8 -73 -49 -100 -95 -7
-12 -12 -17 -13 -12 0 14 -40 -25 -61 -59 l-19 -30 0 92 c0 50 4 94 9 97 4 3
14 27 20 53 20 75 54 157 116 273 19 35 35 70 35 77 0 7 9 27 20 45 11 18 20
44 20 58 0 32 53 133 99 187 25 31 45 45 71 49 19 4 46 17 60 29 14 13 40 26
58 30 20 4 42 20 59 42 l26 34 -12 91 c-6 50 -16 99 -21 109 -6 10 -10 38 -10
63 0 55 30 104 96 159 40 32 53 37 98 37 28 0 64 -7 81 -16 17 -9 47 -26 69
-36 49 -25 112 -85 125 -121 14 -37 14 -113 -1 -140 -6 -12 -33 -47 -60 -78
-67 -77 -66 -109 2 -164 103 -82 157 -147 196 -235 8 -19 22 -49 30 -67 8 -17
14 -46 14 -65 0 -18 9 -75 20 -127 23 -107 26 -245 7 -287 -16 -38 -63 -111
-77 -119 -5 -3 -27 -40 -47 -82 -20 -41 -45 -80 -55 -86 -10 -7 -18 -22 -18
-34 l0 -23 640 0 640 0 0 895 0 895 -1600 0 -1600 0 0 -895z"/>
</g>
</svg>
