<svg version="1.0" xmlns="http://www.w3.org/2000/svg"
 width="668px" style="transform:scale(1,1.001);" height="375.75px" viewBox="0 0 320.000000 180.000000"
 preserveAspectRatio="xMidYMid meet">
<g transform="translate(0.000000,180.000000) scale(0.100000,-0.100000)"
fill="#000000" stroke="none">
<path d="M0 905 l0 -895 430 0 430 0 0 23 c0 16 -9 28 -25 35 -14 7 -28 19 -31 27 -4 8
-12 15 -18 15 -7 0 -24 13 -39 28 -42 44 -37 92 21 200 56 106 126 211 179
269 60 68 81 98 89 129 4 16 11 34 15 40 5 6 18 35 28 65 48 136 61 162 102
198 24 20 63 42 88 49 46 14 58 26 97 93 19 32 22 56 25 186 4 146 4 149 35
195 59 89 114 116 201 99 101 -20 235 -173 236 -272 0 -14 -8 -47 -18 -73 -15
-39 -26 -51 -64 -69 -38 -18 -46 -27 -49 -53 -3 -27 6 -40 55 -90 147 -149
168 -198 184 -429 21 -298 -6 -492 -82 -587 -16 -20 -29 -46 -29 -57 0 -21 0
-21 670 -21 l670 0 0 895 0 895 -1600 0 -1600 0 0 -895z"/>
</g>
</svg>
