<svg version="1.0" xmlns="http://www.w3.org/2000/svg"
 width="668px" style="transform:scale(1,1.001);" height="375.75px" viewBox="0 0 320.000000 180.000000"
 preserveAspectRatio="xMidYMid meet">
<g transform="translate(0.000000,180.000000) scale(0.100000,-0.100000)"
fill="#000000" stroke="none">
<path d="M0 905 l0 -895 1600 0 1600 0 0 895 0 895 -1600 0 -1600 0 0 -895z m1722 685
c29 -11 61 -20 71 -20 29 0 89 -35 132 -77 100 -99 100 -99 100 -173 0 -55 -4
-73 -21 -92 -11 -13 -29 -42 -39 -65 -10 -24 -21 -43 -25 -43 -13 0 -40 -78
-42 -119 -1 -33 4 -47 28 -72 34 -36 75 -59 103 -59 11 0 37 -11 57 -25 20
-14 44 -25 54 -25 46 0 166 -108 200 -181 12 -24 30 -60 40 -79 12 -23 21 -67
26 -127 6 -87 6 -92 -17 -115 -24 -23 -24 -23 -214 -17 -391 14 -1065 13
-1180 0 -138 -17 -177 -9 -186 37 -5 25 0 42 25 81 17 27 40 64 51 83 96 160
111 180 158 220 25 20 58 40 73 44 16 4 43 17 61 30 17 13 35 24 38 24 4 0 20
11 37 25 16 14 42 25 56 25 41 0 134 60 154 100 16 31 16 36 2 51 -8 9 -20 34
-25 55 -6 22 -21 50 -34 64 -12 14 -28 47 -34 74 -7 27 -21 62 -32 77 -38 54
-28 78 88 205 40 44 68 64 120 85 82 34 107 35 175 9z m-679 -1437 c-18 -2
-48 -2 -65 0 -18 2 -4 4 32 4 36 0 50 -2 33 -4z m184 1 c-3 -3 -12 -4 -19 -1
-8 3 -5 6 6 6 11 1 17 -2 13 -5z"/>
</g>
</svg>
