<svg version="1.0" xmlns="http://www.w3.org/2000/svg"
 width="668px" style="transform:scale(1,1.001);" height="375.75px" viewBox="0 0 320.000000 180.000000"
 preserveAspectRatio="xMidYMid meet">
<g transform="translate(0.000000,180.000000) scale(0.100000,-0.100000)"
fill="#000000" stroke="none">
<path d="M0 905 l0 -895 435 0 435 0 0 33 c0 42 17 66 126 173 50 49 99 103 110 119 10
17 30 46 45 65 15 19 42 64 60 100 19 36 37 68 42 71 5 3 11 24 14 46 l5 41
-65 -5 c-57 -3 -69 -1 -102 22 -21 14 -42 25 -46 25 -9 0 -59 93 -59 110 0 13
57 13 65 0 3 -5 21 -10 40 -10 38 0 69 27 130 116 52 76 123 144 157 151 36 7
44 18 72 99 27 81 44 94 131 94 88 -1 136 -15 162 -47 28 -35 29 -72 3 -123
-28 -54 -26 -68 20 -148 54 -93 54 -131 -2 -243 -66 -132 -56 -173 66 -263
132 -97 186 -166 186 -237 0 -44 -28 -121 -49 -133 -6 -4 -11 -18 -11 -32 l0
-24 615 0 615 0 0 895 0 895 -1600 0 -1600 0 0 -895z"/>
<path d="M1437 210 c-59 -61 -116 -110 -126 -110 -22 0 -41 19 -41 42 0 26 -37 23 -85
-7 -22 -13 -64 -36 -92 -50 -42 -21 -53 -31 -53 -51 l0 -24 395 0 395 0 0 53
c0 28 1 62 0 75 0 45 -28 81 -71 92 -22 6 -66 29 -97 51 -89 61 -98 58 -225
-71z"/>
</g>
</svg>
