<svg version="1.0" xmlns="http://www.w3.org/2000/svg"
 width="668px" style="transform:scale(1,1.001);" height="375.75px" viewBox="0 0 320.000000 180.000000"
 preserveAspectRatio="xMidYMid meet">
<g transform="translate(0.000000,180.000000) scale(0.100000,-0.100000)"
fill="#000000" stroke="none">
<path d="M0 905 l0 -895 780 0 780 0 0 28 c-1 30 -24 135 -35 151 -12 21 -24 1 -30 -54
-9 -71 -31 -86 -72 -51 -16 14 -41 50 -57 81 -38 79 -28 108 59 164 87 56 95
98 39 217 -13 28 -24 57 -24 65 0 17 -48 91 -67 102 -31 19 -53 86 -59 185 -6
94 -5 102 20 156 l27 58 -20 44 c-30 64 -27 106 10 149 29 33 35 35 90 35 56
0 59 -1 84 -37 14 -21 25 -45 25 -55 0 -33 13 -48 66 -79 47 -26 58 -39 84
-95 54 -118 64 -167 63 -309 -1 -127 -2 -133 -53 -290 -66 -206 -70 -231 -63
-359 l6 -106 774 0 773 0 0 895 0 895 -1600 0 -1600 0 0 -895z"/>
</g>
</svg>
