<svg version="1.0" xmlns="http://www.w3.org/2000/svg"
 width="668px" style="transform:scale(1,1.001);" height="375.75px" viewBox="0 0 320.000000 180.000000"
 preserveAspectRatio="xMidYMid meet">
<g transform="translate(0.000000,180.000000) scale(0.100000,-0.100000)"
fill="#000000" stroke="none">
<path d="M0 905 l0 -895 1600 0 1600 0 0 895 0 895 -1600 0 -1600 0 0 -895z m1861 775
c64 -68 70 -130 22 -205 -7 -11 -13 -36 -13 -57 0 -33 5 -41 57 -77 31 -23 61
-41 68 -41 14 0 85 -85 85 -102 0 -8 4 -18 9 -23 15 -16 41 -141 41 -199 0
-83 -25 -140 -92 -210 -86 -88 -91 -100 -98 -256 -4 -76 -13 -147 -20 -162
-13 -28 -70 -55 -90 -43 -6 4 -73 7 -148 6 -143 -1 -196 9 -207 37 -3 9 -8 67
-10 129 -3 70 -11 133 -22 165 -10 29 -17 73 -17 98 7 370 12 446 27 475 18
34 71 92 136 147 48 41 49 50 16 138 -11 29 -15 62 -12 94 4 42 10 55 45 88
40 37 44 38 114 38 71 0 72 0 109 -40z m-5 -1555 c8 -13 14 -32 12 -42 -3 -16
-17 -18 -147 -19 -141 0 -143 0 -154 23 -8 19 -7 27 6 40 14 15 20 15 71 0 52
-14 57 -14 93 4 53 27 99 25 119 -6z"/>
</g>
</svg>
