<svg version="1.0" xmlns="http://www.w3.org/2000/svg"
 width="668px" style="transform:scale(1,1.001);" height="375.75px" viewBox="0 0 320.000000 180.000000"
 preserveAspectRatio="xMidYMid meet">
<g transform="translate(0.000000,180.000000) scale(0.100000,-0.100000)"
fill="#000000" stroke="none">
<path d="M0 905 l0 -895 899 0 900 0 -2 72 c-2 72 -1 74 49 153 28 44 61 99 72 122 12
23 45 65 74 93 71 70 88 98 88 145 0 50 -31 134 -54 147 -14 8 -24 4 -45 -16
-15 -14 -31 -26 -36 -26 -5 0 -18 -8 -29 -19 -27 -24 -76 -36 -76 -19 0 7 7
32 15 55 11 32 12 49 4 69 -14 39 -2 81 37 124 33 37 64 96 64 123 0 8 -18 41
-40 73 -48 71 -53 122 -17 174 37 55 70 74 142 78 61 4 66 3 94 -26 19 -19 36
-52 47 -90 12 -44 23 -63 40 -71 26 -12 36 -20 115 -94 57 -53 127 -151 146
-203 37 -100 66 -206 70 -255 l6 -58 -36 -15 c-29 -12 -38 -22 -47 -58 -23
-84 -37 -114 -90 -188 -67 -93 -79 -126 -80 -217 l0 -73 445 0 445 0 0 895 0
895 -1600 0 -1600 0 0 -895z"/>
<path d="M2062 154 c-28 -19 -62 -85 -62 -119 0 -24 2 -25 70 -25 81 0 81 0 53 100 -17
64 -25 69 -61 44z"/>
</g>
</svg>
