<svg version="1.0" xmlns="http://www.w3.org/2000/svg"
 width="668px" style="transform:scale(1,1.001);" height="375.75px" viewBox="0 0 320.000000 180.000000"
 preserveAspectRatio="xMidYMid meet">
<g transform="translate(0.000000,180.000000) scale(0.100000,-0.100000)"
fill="#000000" stroke="none">
<path d="M0 905 l0 -895 1600 0 1600 0 0 895 0 895 -1600 0 -1600 0 0 -895z m1932 726
c24 -11 57 -25 75 -31 33 -12 132 -107 145 -137 12 -31 8 -177 -5 -200 -121
-213 -126 -228 -103 -287 18 -46 72 -92 136 -115 60 -22 144 -64 177 -89 93
-69 162 -398 95 -453 -20 -16 -66 -17 -674 -13 -359 2 -661 4 -670 4 -33 0
-41 36 -28 119 7 42 18 87 25 101 7 14 23 55 35 92 20 62 20 68 6 97 -35 67
-6 97 105 106 74 6 189 36 284 73 41 16 52 26 62 55 16 47 -1 157 -32 212 -13
22 -26 60 -29 85 -4 25 -15 59 -26 75 -14 21 -20 47 -20 85 0 51 3 59 38 96
20 22 55 51 77 65 22 14 58 37 80 52 35 22 51 26 122 26 61 1 94 -4 125 -18z"/>
</g>
</svg>
