<svg version="1.0" xmlns="http://www.w3.org/2000/svg"
 width="668px" style="transform:scale(1,1.001);" height="375.75px" viewBox="0 0 320.000000 180.000000"
 preserveAspectRatio="xMidYMid meet">
<g transform="translate(0.000000,180.000000) scale(0.100000,-0.100000)"
fill="#000000" stroke="none">
<path d="M0 905 l0 -895 785 0 785 0 0 28 c0 15 -4 32 -9 38 -20 22 -35 148 -36 306 -1
167 -1 168 -27 195 -33 34 -58 92 -58 132 0 16 -14 59 -31 95 -28 59 -31 75
-27 134 4 69 24 116 116 283 59 105 64 113 88 131 41 33 40 68 -5 160 -22 46
-41 90 -42 98 -5 32 14 89 37 111 14 13 24 34 24 51 l0 28 -800 0 -800 0 0
-895z"/>
<path d="M1810 1776 c0 -15 12 -33 33 -49 20 -15 39 -42 47 -66 12 -36 11 -45 -9 -90
-28 -65 -27 -75 11 -122 27 -33 37 -39 71 -39 33 0 46 -7 78 -40 80 -82 90
-188 30 -306 -44 -87 -48 -134 -21 -241 19 -77 20 -95 10 -143 -6 -30 -17
-107 -24 -170 -19 -166 -74 -422 -96 -444 -5 -5 -10 -20 -10 -33 l0 -23 635 0
635 0 0 895 0 895 -695 0 -695 0 0 -24z"/>
</g>
</svg>
