<svg version="1.0" xmlns="http://www.w3.org/2000/svg"
 width="668px" style="transform:scale(1,1.001);" height="375.75px" viewBox="0 0 320.000000 180.000000"
 preserveAspectRatio="xMidYMid meet">
<g transform="translate(0.000000,180.000000) scale(0.100000,-0.100000)"
fill="#000000" stroke="none">
<path d="M0 905 l0 -895 1115 0 1115 0 0 23 c0 12 -8 34 -17 47 -14 20 -18 48 -19 136
-2 107 -12 154 -36 154 -14 0 -78 -71 -78 -87 0 -7 -9 -22 -20 -33 -29 -29
-60 -95 -60 -129 0 -61 -99 -86 -139 -35 -30 38 -30 177 -1 234 11 22 20 45
20 52 0 7 9 30 20 51 11 20 20 44 20 52 0 8 29 71 64 140 l63 125 -14 53 c-11
41 -11 66 -3 116 9 54 9 67 -4 79 -17 18 -65 18 -152 1 -55 -11 -65 -10 -100
7 -64 31 -77 72 -82 248 -4 139 -3 150 17 177 11 15 21 32 21 37 0 5 13 15 29
22 24 9 35 9 58 -2 23 -11 29 -20 31 -56 2 -28 -3 -53 -13 -69 -22 -32 -31
-123 -16 -151 21 -39 105 -24 136 25 9 12 22 23 29 23 8 0 33 17 55 38 49 46
54 85 17 125 -55 60 -41 148 32 198 62 42 98 41 161 -5 59 -43 65 -58 63 -151
-1 -38 1 -75 5 -81 18 -25 90 -64 120 -64 23 0 38 -8 55 -29 13 -16 32 -31 43
-33 18 -3 20 6 30 88 15 129 46 160 86 83 25 -51 43 -204 35 -309 -4 -56 -12
-88 -31 -123 l-27 -47 -63 0 c-40 0 -67 -5 -74 -13 -6 -8 -10 -50 -10 -98 1
-46 -4 -97 -10 -112 -6 -16 -11 -54 -12 -85 0 -54 -6 -91 -27 -192 -13 -57
-30 -217 -37 -338 l-5 -92 405 0 405 0 0 895 0 895 -1600 0 -1600 0 0 -895z"/>
</g>
</svg>
