<svg version="1.0" xmlns="http://www.w3.org/2000/svg"
 width="668px" style="transform:scale(1,1.001);" height="375.75px" viewBox="0 0 320.000000 180.000000"
 preserveAspectRatio="xMidYMid meet">
<g transform="translate(0.000000,180.000000) scale(0.100000,-0.100000)"
fill="#000000" stroke="none">
<path d="M0 905 l0 -895 580 0 580 0 0 46 c0 26 14 93 31 150 25 84 29 109 21 138 -11
39 -2 97 20 123 10 13 12 57 8 212 -10 374 -10 366 56 478 16 28 17 36 6 75
-34 118 -37 135 -31 167 4 19 14 38 23 43 9 5 16 16 16 24 0 36 124 47 162 15
13 -10 36 -30 51 -43 25 -21 29 -30 29 -77 -1 -69 18 -107 58 -116 16 -4 48
-25 69 -48 47 -48 71 -129 71 -231 0 -36 5 -77 11 -93 6 -15 21 -82 34 -148
13 -66 42 -190 65 -275 45 -164 54 -261 37 -382 l-8 -58 655 0 656 0 0 895 0
895 -1600 0 -1600 0 0 -895z"/>
<path d="M1503 367 c-18 -19 -42 -59 -53 -88 -24 -65 -27 -70 -63 -92 -32 -21 -77 -108
-77 -149 l0 -28 206 0 206 0 -5 33 c-34 194 -64 310 -88 343 -5 5 -28 11 -51
12 -37 2 -47 -2 -75 -31z"/>
</g>
</svg>
