<svg version="1.0" xmlns="http://www.w3.org/2000/svg"
 width="668px" style="transform:scale(1,1.001);" height="375.75px" viewBox="0 0 320.000000 180.000000"
 preserveAspectRatio="xMidYMid meet">
<g transform="translate(0.000000,180.000000) scale(0.100000,-0.100000)"
fill="#000000" stroke="none">
<path d="M0 905 l0 -895 1600 0 1600 0 0 895 0 895 -1600 0 -1600 0 0 -895z m1492 718
c6 -16 12 -46 14 -68 5 -78 15 -105 45 -121 16 -8 34 -24 40 -37 6 -12 19 -31
29 -42 30 -34 70 -150 70 -202 0 -40 -5 -54 -25 -73 -13 -13 -32 -43 -41 -67
-15 -38 -16 -55 -6 -121 6 -42 14 -120 18 -172 4 -58 15 -122 30 -165 40 -118
101 -288 118 -327 31 -72 13 -148 -36 -148 -20 0 -55 49 -64 90 -8 38 -84 229
-103 260 -9 15 -29 45 -44 68 -16 22 -41 73 -56 114 -33 90 -56 98 -83 28 -26
-70 -22 -140 18 -290 47 -175 47 -175 40 -204 -9 -35 -31 -54 -78 -66 -48 -13
-83 -7 -92 16 -3 9 5 40 19 70 30 64 31 85 4 144 -49 106 -79 221 -79 305 0
87 13 176 34 240 39 116 39 121 26 200 -7 42 -20 85 -29 96 -16 19 -17 18 -60
-16 -65 -52 -103 -47 -115 15 -3 19 -16 44 -28 57 -16 17 -21 35 -20 69 0 38
6 52 33 80 33 34 74 45 95 25 28 -27 54 -22 99 20 49 46 55 67 30 126 -15 36
-20 104 -8 116 3 4 48 7 100 7 93 0 94 0 105 -27z"/>
</g>
</svg>
