<svg version="1.0" xmlns="http://www.w3.org/2000/svg"
 width="668px" style="transform:scale(1,1.001);" height="375.75px" viewBox="0 0 320.000000 180.000000"
 preserveAspectRatio="xMidYMid meet">
<g transform="translate(0.000000,180.000000) scale(0.100000,-0.100000)"
fill="#000000" stroke="none">
<path d="M0 905 l0 -895 1600 0 1600 0 0 895 0 895 -1600 0 -1600 0 0 -895z m1657 419
c23 -24 25 -31 20 -86 -6 -66 1 -92 30 -123 10 -11 33 -41 51 -67 34 -50 86
-93 172 -143 83 -48 100 -71 100 -133 0 -57 -37 -156 -68 -180 -23 -17 -107
-16 -122 3 -16 19 -17 87 -1 143 16 59 6 88 -40 114 -21 12 -39 25 -39 29 0 4
-24 13 -53 19 -46 11 -58 10 -85 -4 -17 -9 -39 -30 -47 -46 -15 -28 -14 -34 5
-78 12 -26 33 -63 49 -82 85 -107 101 -138 101 -194 0 -42 -9 -74 -40 -141
-45 -98 -48 -126 -20 -173 24 -38 25 -52 6 -77 -13 -18 -15 -18 -77 -1 -74 21
-109 48 -109 86 0 15 19 70 42 121 56 127 57 167 3 236 -40 52 -82 81 -96 66
-4 -4 -9 -40 -11 -78 -2 -50 -11 -87 -29 -125 -15 -30 -32 -66 -38 -80 -16
-33 -34 -65 -48 -82 -7 -8 -14 -47 -16 -87 -5 -77 -13 -91 -54 -91 -44 0 -63
33 -63 107 0 56 6 81 36 148 20 44 42 95 50 113 19 44 18 172 -1 208 -8 16
-15 54 -16 84 -2 81 -10 104 -41 108 -35 4 -60 -24 -109 -120 -38 -76 -55 -90
-85 -70 -21 14 -36 55 -30 82 6 30 83 150 97 150 10 0 190 185 204 209 16 31
82 78 118 85 25 5 37 15 50 41 9 20 17 44 17 55 0 10 12 32 26 49 23 28 32 31
80 31 46 0 59 -4 81 -26z"/>
</g>
</svg>
