<svg version="1.0" xmlns="http://www.w3.org/2000/svg"
 width="668px" style="transform:scale(1,1.001);" height="375.75px" viewBox="0 0 320.000000 180.000000"
 preserveAspectRatio="xMidYMid meet">
<g transform="translate(0.000000,180.000000) scale(0.100000,-0.100000)"
fill="#000000" stroke="none">
<path d="M0 905 l0 -895 556 0 557 0 -9 47 c-5 27 -9 149 -10 273 -3 336 -10 515 -23
539 -20 36 -91 18 -91 -23 0 -16 -34 -90 -58 -128 -9 -14 -39 -62 -65 -106
-26 -44 -54 -86 -62 -92 -8 -7 -20 -30 -25 -51 -6 -22 -15 -39 -20 -39 -6 0
-10 2 -10 4 0 2 -5 27 -10 57 -15 80 1 141 79 302 47 96 71 158 74 192 6 48
27 104 52 135 24 30 25 63 3 99 -12 20 -25 38 -28 41 -17 13 -30 53 -30 92 0
37 5 49 33 75 45 43 74 56 111 49 42 -8 93 -62 101 -107 12 -63 42 -85 127
-92 41 -4 81 -9 89 -13 20 -8 106 -117 126 -158 14 -31 15 -43 5 -87 -16 -67
-15 -123 3 -244 36 -248 42 -353 35 -565 -2 -47 0 -111 5 -143 l7 -57 839 0
839 0 0 895 0 895 -1600 0 -1600 0 0 -895z"/>
<path d="M1264 559 c-9 -16 -32 -184 -44 -329 -5 -69 -13 -146 -16 -172 l-7 -48 108 0
107 0 -7 33 c-4 17 -10 79 -15 137 -18 231 -87 441 -126 379z"/>
</g>
</svg>
