<svg version="1.0" xmlns="http://www.w3.org/2000/svg"
 width="668px" style="transform:scale(1,1.001);" height="375.75px" viewBox="0 0 320.000000 180.000000"
 preserveAspectRatio="xMidYMid meet">
<g transform="translate(0.000000,180.000000) scale(0.100000,-0.100000)"
fill="#000000" stroke="none">
<path d="M0 905 l0 -895 380 0 380 0 0 24 c0 13 -7 26 -14 29 -24 9 -49 69 -48 113 1
67 39 180 70 206 15 13 34 36 42 51 8 16 57 69 110 117 52 49 100 95 107 102
7 7 29 31 49 53 33 35 72 107 80 143 1 8 6 17 10 20 4 4 4 -2 0 -13 -6 -18 -5
-18 7 -5 8 8 22 38 32 67 18 57 33 69 171 136 39 19 74 39 78 46 10 15 92 14
108 -2 13 -14 53 -37 97 -57 65 -29 86 46 31 115 -16 20 -31 44 -34 53 -3 10
-14 51 -26 92 -39 133 -11 213 122 341 66 64 92 82 135 94 46 13 53 19 53 40
l0 25 -970 0 -970 0 0 -895z"/>
<path d="M2210 1776 c0 -21 9 -26 77 -47 42 -13 92 -36 111 -51 19 -16 40 -28 47 -28 6
0 25 -15 41 -33 16 -18 37 -38 47 -43 13 -8 23 -33 32 -83 8 -39 23 -83 35
-98 25 -32 26 -86 1 -121 -10 -15 -26 -53 -35 -86 -10 -32 -27 -68 -40 -80
-36 -33 -46 -60 -46 -126 0 -76 30 -188 69 -260 17 -31 57 -79 91 -110 34 -30
66 -59 70 -65 5 -5 27 -31 50 -56 22 -26 48 -67 56 -93 9 -25 27 -55 40 -65
14 -11 31 -42 40 -73 9 -29 22 -62 30 -73 8 -11 14 -36 14 -56 0 -28 -6 -41
-25 -53 -16 -10 -25 -26 -25 -41 l0 -25 155 0 155 0 0 895 0 895 -495 0 -495
0 0 -24z"/>
<path d="M1150 35 c0 -25 1 -25 90 -25 89 0 90 0 90 25 0 25 -1 25 -90 25 -89 0 -90 0
-90 -25z"/>
</g>
</svg>
