<svg version="1.0" xmlns="http://www.w3.org/2000/svg"
 width="668px" style="transform:scale(1,1.001);" height="375.75px" viewBox="0 0 320.000000 180.000000"
 preserveAspectRatio="xMidYMid meet">
<g transform="translate(0.000000,180.000000) scale(0.100000,-0.100000)"
fill="#000000" stroke="none">
<path d="M0 905 l0 -895 1600 0 1600 0 0 895 0 895 -1600 0 -1600 0 0 -895z m1810 684
c17 -13 33 -34 37 -47 10 -39 -4 -100 -29 -131 -14 -15 -30 -43 -38 -60 -12
-31 -11 -34 21 -68 19 -19 54 -45 79 -55 25 -11 52 -26 60 -33 8 -7 32 -18 52
-24 20 -7 40 -21 43 -31 3 -10 23 -25 44 -33 52 -21 78 -68 87 -156 7 -74 -5
-124 -34 -148 -27 -22 -91 -16 -124 12 -37 31 -63 32 -83 2 -34 -52 -47 -235
-24 -347 6 -30 13 -76 16 -101 5 -45 4 -47 -27 -57 -41 -15 -486 -4 -499 12
-4 6 -11 103 -15 216 -8 267 -15 329 -35 339 -17 9 -108 -5 -221 -35 -68 -17
-88 -33 -136 -106 -27 -42 -70 -53 -80 -20 -3 9 -10 25 -15 34 -5 10 -9 42 -9
71 0 47 4 57 33 84 17 18 46 35 62 39 17 4 40 15 52 24 13 10 38 21 57 24 30
6 135 86 171 131 6 6 24 19 40 27 17 9 38 25 49 36 10 12 31 24 46 27 15 3 36
15 46 26 9 10 28 19 41 19 24 0 73 43 73 64 0 7 -14 51 -30 99 -29 82 -30 88
-15 117 9 17 27 35 39 40 13 5 26 14 28 20 11 35 187 26 238 -11z"/>
</g>
</svg>
