<svg version="1.0" xmlns="http://www.w3.org/2000/svg"
 width="668px" style="transform:scale(1,1.001);" height="375.75px" viewBox="0 0 320.000000 180.000000"
 preserveAspectRatio="xMidYMid meet">
<g transform="translate(0.000000,180.000000) scale(0.100000,-0.100000)"
fill="#000000" stroke="none">
<path d="M0 905 l0 -895 1600 0 1600 0 0 895 0 895 -1600 0 -1600 0 0 -895z m1787 606
c90 -24 127 -49 160 -114 26 -49 28 -61 33 -232 5 -177 5 -181 35 -230 41 -70
70 -96 147 -133 36 -18 71 -39 78 -47 6 -8 32 -24 57 -36 88 -43 151 -109 214
-227 32 -61 34 -70 18 -124 -20 -73 10 -70 -731 -66 -639 3 -660 4 -674 22
-19 27 -18 116 1 144 9 12 21 49 27 83 6 33 18 68 28 77 9 9 19 24 23 34 7 20
123 118 140 118 7 0 35 12 62 25 28 14 59 25 71 25 21 0 74 41 74 57 0 11 -49
63 -60 63 -5 0 -16 8 -26 18 -9 9 -46 40 -82 69 -35 28 -75 69 -87 90 l-23 38
25 75 c13 41 33 84 44 96 10 11 19 27 19 35 0 21 67 83 115 107 22 11 58 23
81 26 22 4 58 14 80 21 21 8 48 12 59 9 11 -2 52 -13 92 -23z"/>
</g>
</svg>
