<svg version="1.0" xmlns="http://www.w3.org/2000/svg"
 width="668px" style="transform:scale(1,1.001);" height="375.75px" viewBox="0 0 320.000000 180.000000"
 preserveAspectRatio="xMidYMid meet">
<g transform="translate(0.000000,180.000000) scale(0.100000,-0.100000)"
fill="#000000" stroke="none">
<path d="M0 905 l0 -895 1600 0 1600 0 0 895 0 895 -1600 0 -1600 0 0 -895z m1564 489
c16 -16 19 -34 16 -114 -2 -58 13 -96 41 -105 43 -14 110 -118 143 -221 8 -27
24 -76 36 -108 16 -47 20 -86 21 -185 0 -138 -3 -157 -31 -164 -40 -10 -53 15
-60 112 -6 86 -20 125 -37 107 -11 -11 -7 -213 6 -266 6 -25 11 -108 11 -184
0 -116 -3 -143 -17 -158 -20 -22 -41 -23 -65 -1 -15 13 -38 16 -138 14 -101
-2 -121 0 -126 13 -7 18 18 63 49 87 18 15 19 20 7 48 -7 17 -16 31 -20 31
-13 0 -130 153 -137 178 -9 37 20 142 55 202 66 108 92 168 92 211 0 42 -21
79 -44 79 -21 -1 -116 -104 -116 -126 0 -4 -6 -15 -14 -23 -21 -24 -22 -53 -2
-83 27 -41 11 -77 -48 -106 l-48 -24 -23 22 c-31 29 -49 98 -41 154 5 32 21
64 54 107 26 34 64 87 84 118 20 31 41 61 46 67 5 5 15 20 21 32 6 12 18 22
26 22 8 0 19 9 25 20 6 11 22 23 35 26 29 7 30 16 9 97 -15 59 -13 100 8 124
16 20 162 17 182 -3z"/>
<path d="M1503 633 c-37 -33 -83 -101 -83 -121 0 -11 11 -33 23 -49 13 -15 37 -50 52
-78 34 -59 53 -83 79 -97 18 -10 19 -7 13 64 -3 41 -12 103 -20 139 -9 35 -18
85 -22 112 -7 51 -13 56 -42 30z"/>
</g>
</svg>
