<svg version="1.0" xmlns="http://www.w3.org/2000/svg"
 width="668px" style="transform:scale(1,1.001);" height="375.75px" viewBox="0 0 320.000000 180.000000"
 preserveAspectRatio="xMidYMid meet">
<g transform="translate(0.000000,180.000000) scale(0.100000,-0.100000)"
fill="#000000" stroke="none">
<path d="M0 905 l0 -895 1600 0 1600 0 0 895 0 895 -1600 0 -1600 0 0 -895z m1595 756
c33 -17 76 -46 95 -66 30 -31 35 -42 38 -100 3 -50 0 -74 -16 -107 -61 -129
-61 -130 -40 -170 12 -23 29 -39 45 -43 15 -3 40 -17 56 -31 16 -13 35 -24 44
-24 8 0 28 -11 45 -25 16 -14 36 -25 44 -25 7 0 21 -11 29 -24 9 -13 24 -26
34 -29 10 -2 35 -33 55 -67 30 -50 39 -79 46 -141 5 -43 13 -87 18 -96 6 -10
15 -49 20 -86 6 -38 17 -75 23 -84 7 -8 15 -53 17 -101 6 -125 2 -130 -153
-139 -66 -4 -208 -8 -315 -8 -107 -1 -240 -2 -296 -3 -57 -1 -135 4 -180 13
-43 8 -103 15 -131 15 -46 0 -55 3 -70 27 -12 19 -18 46 -18 88 1 110 17 229
36 268 10 21 19 47 19 59 0 56 74 158 198 269 47 43 95 103 103 132 10 34 -1
89 -24 116 -29 35 -70 161 -71 220 -1 53 2 62 37 105 21 25 47 46 57 46 10 0
22 5 26 11 3 6 20 17 38 25 45 21 120 11 191 -25z"/>
</g>
</svg>
