<svg version="1.0" xmlns="http://www.w3.org/2000/svg"
 width="668px" style="transform:scale(1,1.001);" height="375.75px" viewBox="0 0 320.000000 180.000000"
 preserveAspectRatio="xMidYMid meet">
<g transform="translate(0.000000,180.000000) scale(0.100000,-0.100000)"
fill="#000000" stroke="none">
<path d="M0 905 l0 -895 1110 0 1110 0 0 25 c0 13 -5 34 -10 47 -6 13 -14 61 -18 107
-8 97 -26 117 -36 40 -7 -53 -43 -122 -73 -138 -10 -5 -39 -12 -64 -16 -64 -9
-102 11 -117 63 -15 49 -16 296 -1 377 6 33 12 128 14 210 10 365 12 384 45
490 29 90 37 105 82 146 27 26 62 49 78 52 49 10 74 60 81 157 3 47 13 102 22
123 l16 37 78 0 c92 0 127 -17 169 -79 44 -67 33 -165 -24 -207 -20 -14 -8
-61 16 -69 27 -8 56 -42 91 -106 45 -82 54 -139 37 -220 -23 -112 -45 -131
-100 -88 -14 11 -31 19 -37 17 -6 -2 -27 -44 -47 -93 -35 -88 -36 -93 -32
-195 8 -176 5 -582 -4 -632 l-9 -48 412 0 411 0 0 895 0 895 -1600 0 -1600 0
0 -895z"/>
</g>
</svg>
