<svg version="1.0" xmlns="http://www.w3.org/2000/svg"
 width="668px" style="transform:scale(1,1.001);" height="375.75px" viewBox="0 0 320.000000 180.000000"
 preserveAspectRatio="xMidYMid meet">
<g transform="translate(0.000000,180.000000) scale(0.100000,-0.100000)"
fill="#000000" stroke="none">
<path d="M0 905 l0 -895 771 0 771 0 -5 27 c-3 16 -13 55 -22 88 -15 51 -16 81 -9 195
13 216 13 214 -23 247 -19 18 -33 43 -36 64 -3 19 -11 68 -18 109 -28 172 -24
204 57 403 45 109 64 146 95 182 30 34 27 87 -7 135 -16 23 -39 59 -51 79 -39
65 -24 173 27 201 12 6 20 21 20 35 l0 25 -785 0 -785 0 0 -895z"/>
<path d="M1770 1778 c0 -12 16 -39 36 -59 44 -45 55 -90 38 -149 -28 -94 -8 -138 79
-175 20 -8 37 -20 37 -25 0 -5 9 -17 19 -27 31 -29 49 -99 61 -238 6 -71 16
-175 22 -230 17 -148 15 -195 -12 -246 -17 -33 -25 -70 -31 -149 -4 -58 -17
-137 -28 -176 -32 -111 -82 -244 -92 -244 -5 0 -9 -11 -9 -25 l0 -25 655 0
655 0 0 895 0 895 -715 0 -715 0 0 -22z"/>
</g>
</svg>
