<svg version="1.0" xmlns="http://www.w3.org/2000/svg"
 width="668px" style="transform:scale(1,1.001);" height="375.75px" viewBox="0 0 320.000000 180.000000"
 preserveAspectRatio="xMidYMid meet">
<g transform="translate(0.000000,180.000000) scale(0.100000,-0.100000)"
fill="#000000" stroke="none">
<path d="M0 905 l0 -895 654 0 653 0 1 103 c1 56 7 134 15 172 12 57 13 120 7 350 -5
154 -12 296 -15 315 -6 31 -1 70 21 165 10 44 72 115 99 115 13 0 36 11 52 23
15 13 42 30 58 38 43 20 43 53 0 136 -21 41 -37 86 -37 109 -2 42 27 114 45
114 6 0 24 12 39 27 23 22 40 28 91 31 57 4 65 2 101 -27 21 -17 42 -31 45
-31 13 0 51 -90 51 -119 0 -15 -13 -55 -30 -87 -34 -67 -38 -117 -12 -139 61
-54 92 -75 106 -75 29 0 85 -71 102 -129 17 -56 15 -136 -6 -261 -5 -30 -14
-104 -21 -165 -20 -189 -29 -234 -78 -365 -18 -47 -33 -117 -58 -267 l-5 -33
661 0 661 0 0 895 0 895 -1600 0 -1600 0 0 -895z"/>
</g>
</svg>
