<svg version="1.0" xmlns="http://www.w3.org/2000/svg"
 width="668px" style="transform:scale(1,1.001);" height="375.75px" viewBox="0 0 320.000000 180.000000"
 preserveAspectRatio="xMidYMid meet">
<g transform="translate(0.000000,180.000000) scale(0.100000,-0.100000)"
fill="#000000" stroke="none">
<path d="M0 905 l0 -895 1600 0 1600 0 0 895 0 895 -1600 0 -1600 0 0 -895z m1737 624
c15 -6 51 -17 78 -23 78 -19 126 -55 158 -119 28 -55 28 -56 25 -229 l-3 -173
29 -52 c37 -67 67 -94 146 -133 157 -78 333 -228 371 -317 22 -51 25 -122 7
-145 -29 -36 -68 -38 -732 -38 -743 0 -696 -5 -696 81 0 28 6 62 14 77 7 15
17 47 21 72 20 125 170 269 306 295 19 3 50 19 69 35 l35 29 -65 61 c-36 34
-93 84 -127 111 -48 39 -64 58 -69 85 -9 51 4 118 32 159 13 20 24 40 24 44 0
5 18 30 39 57 40 51 110 94 152 94 13 1 47 9 74 20 60 22 75 23 112 9z"/>
</g>
</svg>
