<svg version="1.0" xmlns="http://www.w3.org/2000/svg"
 width="668px" style="transform:scale(1,1.001);" height="375.75px" viewBox="0 0 320.000000 180.000000"
 preserveAspectRatio="xMidYMid meet">
<g transform="translate(0.000000,180.000000) scale(0.100000,-0.100000)"
fill="#000000" stroke="none">
<path d="M0 905 l0 -895 1600 0 1600 0 0 895 0 895 -1600 0 -1600 0 0 -895z m1582 764
c15 -10 34 -19 43 -19 25 0 96 -76 106 -116 13 -46 2 -130 -21 -169 -10 -16
-25 -49 -33 -73 -13 -38 -13 -46 0 -74 9 -16 30 -36 47 -43 17 -7 40 -23 50
-34 11 -12 28 -21 39 -21 10 0 32 -11 49 -25 16 -14 35 -25 41 -25 7 -1 33
-20 59 -43 55 -50 108 -145 108 -196 0 -20 5 -54 11 -76 6 -22 17 -71 24 -110
8 -38 21 -87 29 -107 21 -49 22 -191 2 -211 -18 -18 -181 -29 -458 -32 -114
-2 -218 -5 -231 -9 -14 -3 -71 -1 -128 5 -57 5 -146 14 -197 19 -102 9 -118
17 -130 64 -12 45 12 291 32 321 9 13 16 36 16 50 0 48 68 164 128 219 84 76
150 144 168 170 25 40 19 78 -28 173 -48 96 -71 188 -57 235 17 61 95 124 184
148 43 12 115 1 147 -21z"/>
</g>
</svg>
