<svg version="1.0" xmlns="http://www.w3.org/2000/svg"
 width="668px" style="transform:scale(1,1.001);" height="375.75px" viewBox="0 0 320.000000 180.000000"
 preserveAspectRatio="xMidYMid meet">
<g transform="translate(0.000000,180.000000) scale(0.100000,-0.100000)"
fill="#000000" stroke="none">
<path d="M0 905 l0 -895 1600 0 1600 0 0 895 0 895 -775 0 -775 0 0 -23 c0 -18 11 -29
44 -45 24 -12 52 -22 63 -22 11 0 32 -15 47 -32 25 -31 27 -38 23 -108 -8
-148 -28 -296 -47 -353 -28 -82 -25 -118 17 -205 31 -64 38 -90 41 -153 4 -76
4 -76 -28 -99 -39 -28 -109 -24 -144 9 -28 26 -51 27 -83 1 -14 -11 -32 -20
-40 -20 -20 0 -33 41 -32 102 1 73 1 75 -17 92 -20 21 -40 20 -62 -2 -15 -15
-19 -36 -20 -92 -1 -51 -6 -78 -17 -91 -24 -26 -46 -17 -60 25 -7 21 -16 40
-19 43 -3 3 -21 -8 -40 -25 -20 -17 -51 -33 -74 -37 -22 -3 -48 -13 -59 -20
-31 -24 -61 -18 -78 15 -23 45 -18 94 16 158 26 49 29 64 24 104 -6 38 -2 57
15 93 12 25 28 71 35 103 7 31 22 91 34 132 15 54 21 104 21 180 0 94 2 109
24 140 13 19 42 46 65 60 28 17 41 32 41 48 l0 22 -670 0 -670 0 0 -895z"/>
</g>
</svg>
