<svg version="1.0" xmlns="http://www.w3.org/2000/svg"
 width="668px" style="transform:scale(1,1.001);" height="375.75px" viewBox="0 0 320.000000 180.000000"
 preserveAspectRatio="xMidYMid meet">
<g transform="translate(0.000000,180.000000) scale(0.100000,-0.100000)"
fill="#000000" stroke="none">
<path d="M0 905 l0 -895 1600 0 1600 0 0 895 0 895 -1600 0 -1600 0 0 -895z m1733 745
c69 -10 90 -21 179 -96 54 -44 100 -111 105 -154 5 -37 -3 -57 -106 -258 -37
-73 -42 -106 -21 -150 21 -44 80 -89 130 -98 19 -4 49 -18 68 -31 19 -12 43
-23 53 -23 9 0 31 -11 47 -25 17 -14 34 -25 38 -25 5 0 44 -33 86 -73 56 -52
79 -81 84 -105 4 -18 17 -40 29 -48 16 -11 26 -32 35 -77 6 -34 18 -72 26 -84
16 -25 19 -139 5 -162 -7 -11 -11 -10 -20 6 -6 12 -29 25 -55 32 -28 7 -294
15 -738 21 -381 6 -707 13 -724 15 -60 10 -70 82 -24 168 16 31 30 65 30 76 0
26 21 71 32 71 5 0 17 17 26 38 25 56 107 124 202 168 19 9 42 22 51 30 8 8
31 19 50 26 60 23 116 70 128 109 17 55 14 70 -24 129 -19 30 -35 60 -35 67 0
11 -30 77 -80 173 -10 20 -16 47 -13 62 6 29 82 114 156 172 65 51 148 65 280
46z"/>
</g>
</svg>
