<svg version="1.0" xmlns="http://www.w3.org/2000/svg"
 width="668px" style="transform:scale(1,1.001);" height="375.75px" viewBox="0 0 320.000000 180.000000"
 preserveAspectRatio="xMidYMid meet">
<g transform="translate(0.000000,180.000000) scale(0.100000,-0.100000)"
fill="#000000" stroke="none">
<path d="M0 905 l0 -895 560 0 c558 0 560 0 560 20 0 12 -6 33 -14 48 -7 15 -18 56 -24
92 -13 75 -27 499 -23 677 3 123 -8 187 -44 253 -7 14 -18 54 -25 90 -23 129
-53 185 -154 278 -61 58 -78 127 -62 265 l8 67 -391 0 -391 0 0 -895z"/>
<path d="M921 1773 c1 -16 -4 -50 -9 -78 -9 -42 -7 -57 8 -91 16 -38 22 -43 71 -53 66
-14 72 -7 64 75 -5 45 -2 72 9 99 30 71 26 75 -63 75 l-80 0 0 -27z"/>
<path d="M1270 1778 c0 -12 6 -29 14 -37 17 -19 23 -83 12 -134 -7 -32 -5 -42 14 -62
26 -28 78 -48 164 -64 51 -9 64 -8 84 5 23 15 24 20 19 89 -7 93 8 120 60 110
70 -13 90 -61 58 -138 -8 -20 -15 -64 -15 -97 0 -59 -2 -63 -45 -106 -41 -42
-50 -47 -111 -54 -36 -5 -70 -12 -74 -17 -4 -4 -13 -30 -21 -58 -11 -39 -13
-117 -12 -345 3 -339 1 -348 -78 -499 -52 -97 -54 -105 -63 -273 l-5 -88 964
0 965 0 0 895 0 895 -965 0 -965 0 0 -22z"/>
</g>
</svg>
