<svg version="1.0" xmlns="http://www.w3.org/2000/svg"
 width="668px" style="transform:scale(1,1.001);" height="375.75px" viewBox="0 0 320.000000 180.000000"
 preserveAspectRatio="xMidYMid meet">
<g transform="translate(0.000000,180.000000) scale(0.100000,-0.100000)"
fill="#000000" stroke="none">
<path d="M0 905 l0 -895 1600 0 1600 0 0 895 0 895 -681 0 -681 0 5 -27 c3 -16 12 -52
21 -82 11 -41 13 -66 5 -104 -13 -69 -28 -89 -93 -122 -76 -38 -88 -51 -135
-149 -54 -113 -56 -153 -12 -240 19 -35 52 -88 73 -117 22 -28 49 -69 61 -91
12 -21 28 -49 34 -61 21 -37 16 -94 -9 -111 -28 -20 -59 -20 -123 -2 -28 8
-75 21 -105 30 -30 8 -65 21 -77 27 -32 17 -50 6 -73 -50 -22 -50 -32 -55 -92
-42 -4 0 -15 25 -24 54 -17 55 -15 79 16 207 9 38 7 61 -10 133 -26 112 -33
205 -23 287 12 98 7 120 -29 127 -16 3 -32 12 -35 19 -3 8 -13 14 -24 14 -54
0 -107 137 -94 244 l7 56 -551 0 -551 0 0 -895z"/>
<path d="M1242 1726 c-1 -51 3 -78 12 -85 14 -12 144 -5 166 9 9 5 9 17 1 46 -6 22 -11
54 -11 72 l0 32 -84 0 -83 0 -1 -74z"/>
<path d="M1660 1771 c0 -16 -7 -45 -16 -66 -8 -21 -13 -43 -11 -49 7 -17 94 -49 113
-42 13 5 15 16 10 51 -3 25 -9 65 -12 90 -6 45 -6 45 -45 45 -36 0 -39 -2 -39
-29z"/>
</g>
</svg>
