<svg version="1.0" xmlns="http://www.w3.org/2000/svg"
 width="668px" style="transform:scale(1,1.001);" height="375.75px" viewBox="0 0 320.000000 180.000000"
 preserveAspectRatio="xMidYMid meet">
<g transform="translate(0.000000,180.000000) scale(0.100000,-0.100000)"
fill="#000000" stroke="none">
<path d="M0 905 l0 -895 680 0 680 0 -1 58 c0 31 4 130 10 220 6 89 8 175 4 190 -3 15
-26 56 -49 92 -31 48 -47 85 -58 139 -8 41 -21 78 -28 83 -13 9 -91 3 -110 -8
-6 -4 -8 -33 -3 -80 6 -64 4 -80 -14 -118 -20 -41 -24 -43 -64 -43 -33 -1 -95
18 -98 30 0 1 -4 38 -8 82 -11 104 5 158 60 200 22 17 53 40 68 52 16 13 38
23 49 23 10 0 31 9 45 20 14 11 30 20 35 20 6 0 19 11 30 25 11 14 25 25 31
25 5 0 15 9 21 20 6 11 17 20 24 20 8 0 24 8 36 18 18 14 22 29 24 81 2 57 5
66 31 87 41 33 71 39 124 25 69 -18 86 -40 86 -111 0 -58 1 -60 48 -102 60
-53 68 -92 42 -213 -16 -77 -16 -88 -1 -147 17 -70 13 -103 -17 -132 -17 -17
-18 -26 -11 -80 16 -116 12 -150 -24 -199 -39 -55 -40 -82 -4 -147 25 -45 26
-50 11 -65 -14 -14 -23 -14 -65 -4 -27 6 -59 21 -71 32 -12 11 -28 17 -36 14
-14 -5 -27 -49 -27 -88 0 -18 26 -19 875 -19 l875 0 0 895 0 895 -1600 0
-1600 0 0 -895z"/>
</g>
</svg>
