<svg version="1.0" xmlns="http://www.w3.org/2000/svg"
 width="668px" style="transform:scale(1,1.001);" height="375.75px" viewBox="0 0 320.000000 180.000000"
 preserveAspectRatio="xMidYMid meet">
<g transform="translate(0.000000,180.000000) scale(0.100000,-0.100000)"
fill="#000000" stroke="none">
<path d="M0 905 l0 -895 680 0 680 0 0 48 c0 36 5 54 20 67 35 32 27 102 -22 203 l-43
86 1 136 c1 129 2 139 38 240 20 58 37 114 36 125 -1 11 -2 26 -2 33 -1 6 -7
12 -14 12 -17 0 -94 -80 -94 -96 0 -17 -8 -21 -52 -29 -34 -6 -40 -4 -73 31
-32 36 -35 44 -35 100 0 37 5 66 12 72 11 8 92 36 177 60 26 7 34 26 45 113 5
32 19 63 46 100 44 58 44 60 3 146 -42 87 -14 142 76 151 83 8 119 -4 138 -43
14 -29 15 -44 6 -92 -11 -54 -10 -61 13 -95 17 -27 32 -38 48 -38 31 0 73 -52
127 -157 35 -67 40 -85 36 -127 -4 -41 -10 -53 -45 -85 -23 -20 -47 -49 -54
-66 -7 -19 -14 -129 -18 -300 -5 -250 -7 -274 -28 -319 -30 -65 -29 -122 2
-155 27 -30 48 -85 40 -106 -5 -13 85 -15 725 -15 l731 0 0 895 0 895 -1600 0
-1600 0 0 -895z"/>
<path d="M1508 578 c-44 -33 -47 -94 -13 -238 14 -58 27 -116 30 -130 3 -14 9 -32 15
-40 9 -13 11 -13 20 0 31 47 38 246 12 310 -6 14 -13 36 -16 50 -3 14 -11 33
-18 43 -11 15 -16 16 -30 5z"/>
<path d="M1523 73 c-23 -12 -33 -24 -33 -40 0 -22 4 -23 65 -23 61 0 65 1 65 23 0 14
-10 29 -29 40 -34 20 -28 20 -68 0z"/>
</g>
</svg>
