<svg version="1.0" xmlns="http://www.w3.org/2000/svg"
 width="668px" style="transform:scale(1,1.001);" height="375.75px" viewBox="0 0 320.000000 180.000000"
 preserveAspectRatio="xMidYMid meet">
<g transform="translate(0.000000,180.000000) scale(0.100000,-0.100000)"
fill="#000000" stroke="none">
<path d="M0 905 l0 -895 1600 0 1600 0 0 895 0 895 -1600 0 -1600 0 0 -895z m1924 685
c92 -52 132 -154 92 -231 -22 -42 -38 -126 -31 -159 6 -28 63 -100 79 -100 9
0 114 -79 144 -109 26 -26 92 -145 92 -166 0 -17 36 -82 65 -115 30 -36 75
-104 75 -116 0 -5 7 -22 15 -37 46 -89 -13 -193 -131 -231 -117 -38 -664 -39
-899 -2 -55 9 -123 16 -152 16 -69 0 -77 4 -116 58 -51 73 -77 152 -77 237 0
63 3 77 24 102 14 16 42 35 63 41 47 15 86 49 110 95 49 95 68 122 109 161 43
41 134 93 199 112 18 6 36 21 44 38 17 35 7 59 -53 130 -43 50 -51 75 -47 148
1 31 109 144 144 151 12 2 62 5 111 6 81 1 93 -1 140 -29z"/>
</g>
</svg>
