<svg version="1.0" xmlns="http://www.w3.org/2000/svg"
 width="668px" style="transform:scale(1,1.001);" height="375.75px" viewBox="0 0 320.000000 180.000000"
 preserveAspectRatio="xMidYMid meet">
<g transform="translate(0.000000,180.000000) scale(0.100000,-0.100000)"
fill="#000000" stroke="none">
<path d="M0 905 l0 -895 785 0 c771 0 785 0 785 19 0 11 -10 37 -22 58 -22 36 -23 50
-25 252 l-1 214 -25 21 c-36 30 -45 54 -53 132 -4 38 -13 86 -20 108 -19 54
-17 133 5 202 32 100 108 252 150 302 23 27 41 58 41 70 0 34 -23 83 -62 129
-60 71 -59 166 2 211 19 15 30 31 30 47 l0 25 -795 0 -795 0 0 -895z"/>
<path d="M1782 1773 c2 -17 12 -32 28 -40 14 -7 35 -33 46 -58 22 -47 22 -47 3 -101
-10 -29 -19 -59 -19 -66 0 -23 76 -98 100 -98 32 0 108 -81 127 -135 13 -39
14 -61 4 -138 -19 -169 -22 -241 -11 -292 24 -107 24 -149 0 -201 -16 -34 -24
-75 -27 -134 -5 -88 -81 -393 -109 -437 -8 -12 -14 -31 -14 -43 0 -20 3 -20
645 -20 l645 0 0 895 0 895 -711 0 -710 0 3 -27z"/>
</g>
</svg>
