<svg version="1.0" xmlns="http://www.w3.org/2000/svg"
 width="668px" style="transform:scale(1,1.001);" height="375.75px" viewBox="0 0 320.000000 180.000000"
 preserveAspectRatio="xMidYMid meet">
<g transform="translate(0.000000,180.000000) scale(0.100000,-0.100000)"
fill="#000000" stroke="none">
<path d="M0 905 l0 -895 625 0 625 0 0 25 c0 14 7 42 15 62 26 63 20 97 -36 181 l-50
77 4 75 c6 106 21 161 68 254 22 45 43 101 46 126 7 60 -13 160 -36 183 -27
27 -167 35 -238 14 -91 -27 -106 -12 -101 103 l3 65 60 -1 c33 0 74 -2 90 -3
49 -5 148 10 173 25 26 17 30 60 7 90 -25 33 -18 76 19 117 32 35 37 37 92 37
94 -1 140 -51 128 -139 -6 -48 -5 -50 25 -65 29 -15 130 -39 224 -53 65 -9 90
-93 44 -151 -7 -9 -25 -11 -62 -7 -94 12 -91 20 -100 -247 -12 -334 -11 -411
4 -524 12 -91 12 -103 -3 -133 -10 -17 -24 -35 -33 -38 -27 -10 -59 38 -66 98
-4 35 -18 72 -42 111 -24 38 -39 79 -46 120 -20 122 -41 134 -79 45 -27 -61
-22 -88 36 -220 41 -95 44 -138 9 -165 -14 -11 -25 -29 -25 -41 l0 -21 910 0
910 0 0 895 0 895 -1600 0 -1600 0 0 -895z"/>
</g>
</svg>
