<svg version="1.0" xmlns="http://www.w3.org/2000/svg"
 width="668px" style="transform:scale(1,1.001);" height="375.75px" viewBox="0 0 320.000000 180.000000"
 preserveAspectRatio="xMidYMid meet">
<g transform="translate(0.000000,180.000000) scale(0.100000,-0.100000)"
fill="#000000" stroke="none">
<path d="M0 905 l0 -895 520 0 520 0 0 30 c0 16 7 72 16 122 9 53 14 114 10 142 -6 52
12 138 39 188 8 14 15 33 15 41 0 8 19 39 42 69 90 112 118 153 118 171 0 10
-15 27 -34 38 -19 11 -39 33 -46 50 -24 57 -16 102 40 216 29 60 56 109 61
111 5 2 23 14 42 26 20 14 55 25 85 28 34 3 65 14 92 33 35 24 47 27 96 23 46
-4 60 -10 80 -34 38 -46 39 -66 5 -126 -31 -55 -31 -55 -17 -114 7 -33 19 -72
25 -87 15 -39 14 -133 -3 -188 -17 -54 -14 -63 53 -204 50 -104 69 -163 82
-259 5 -38 18 -101 29 -140 11 -39 20 -85 20 -103 l0 -33 655 0 655 0 0 895 0
895 -1600 0 -1600 0 0 -895z"/>
<path d="M1389 531 c-25 -10 -56 -28 -67 -39 -12 -12 -27 -22 -33 -22 -15 0 -55 -43
-73 -79 -8 -15 -18 -52 -21 -82 -4 -30 -13 -74 -20 -99 -7 -25 -16 -80 -20
-122 l-6 -78 316 0 c301 0 315 1 315 19 0 68 -68 301 -107 363 -51 82 -153
158 -213 157 -14 0 -46 -8 -71 -18z"/>
</g>
</svg>
