<svg version="1.0" xmlns="http://www.w3.org/2000/svg"
 width="668px" style="transform:scale(1,1.001);" height="375.75px" viewBox="0 0 320.000000 180.000000"
 preserveAspectRatio="xMidYMid meet">
<g transform="translate(0.000000,180.000000) scale(0.100000,-0.100000)"
fill="#000000" stroke="none">
<path d="M0 905 l0 -895 920 0 920 0 0 23 c0 13 -11 33 -24 45 -37 31 -40 76 -18 199
11 59 26 142 33 183 12 78 46 199 73 262 32 74 16 145 -48 215 -67 74 -73 130
-22 206 68 102 131 172 173 192 22 11 49 28 59 37 11 9 32 20 47 23 18 5 38
22 53 46 21 35 24 48 21 131 -2 86 0 97 26 140 15 26 27 56 27 67 l0 21 -1120
0 -1120 0 0 -895z"/>
<path d="M2400 1778 c0 -13 14 -34 30 -48 17 -14 45 -38 64 -55 19 -16 41 -36 50 -43
10 -8 16 -29 16 -57 0 -38 -4 -47 -32 -66 -72 -50 -99 -83 -93 -109 9 -36 32
-57 69 -64 82 -16 158 -188 111 -250 -8 -11 -15 -29 -15 -40 0 -12 -9 -36 -21
-55 -19 -32 -22 -33 -68 -27 l-48 6 -11 -37 c-6 -21 -14 -56 -17 -78 -4 -22
-18 -58 -33 -80 -25 -38 -26 -48 -33 -225 -4 -102 -12 -201 -18 -220 -8 -26
-30 -248 -31 -312 0 -5 198 -8 440 -8 l440 0 0 895 0 895 -400 0 -400 0 0 -22z"/>
<path d="M2092 359 c-6 -14 -16 -44 -22 -67 -7 -22 -26 -53 -41 -68 -16 -15 -29 -33
-29 -39 0 -22 -71 -103 -101 -115 -20 -9 -29 -19 -29 -36 l0 -24 141 0 141 0
-6 43 c-3 23 -11 100 -17 172 -12 143 -21 176 -37 134z"/>
</g>
</svg>
