<svg version="1.0" xmlns="http://www.w3.org/2000/svg"
 width="668px" style="transform:scale(1,1.001);" height="375.75px" viewBox="0 0 320.000000 180.000000"
 preserveAspectRatio="xMidYMid meet">
<g transform="translate(0.000000,180.000000) scale(0.100000,-0.100000)"
fill="#000000" stroke="none">
<path d="M0 905 l0 -895 1600 0 1600 0 0 895 0 895 -1600 0 -1600 0 0 -895z m1645 745
c37 -13 71 -34 87 -53 26 -30 27 -38 28 -135 0 -69 -5 -114 -15 -139 -22 -53
-19 -86 13 -115 34 -33 161 -118 175 -118 6 0 20 -9 31 -19 12 -11 37 -28 56
-38 43 -24 107 -106 119 -153 5 -19 14 -75 20 -125 7 -49 18 -142 26 -205 22
-174 20 -206 -10 -226 -48 -32 -230 -44 -500 -35 -66 3 -157 1 -202 -4 -52 -5
-109 -4 -160 4 -43 6 -108 13 -146 15 -110 6 -124 31 -106 186 16 148 35 217
90 338 16 34 33 62 39 62 5 0 10 6 10 13 0 16 82 95 170 165 86 68 88 90 15
183 -11 14 -27 37 -35 49 -8 13 -23 30 -33 39 -24 21 -57 89 -56 115 1 45 35
114 70 144 47 41 161 82 214 77 22 -1 67 -13 100 -25z"/>
</g>
</svg>
