<svg version="1.0" xmlns="http://www.w3.org/2000/svg"
 width="668px" style="transform:scale(1,1.001);" height="375.75px" viewBox="0 0 320.000000 180.000000"
 preserveAspectRatio="xMidYMid meet">
<g transform="translate(0.000000,180.000000) scale(0.100000,-0.100000)"
fill="#000000" stroke="none">
<path d="M0 905 l0 -895 1600 0 1600 0 0 895 0 895 -1600 0 -1600 0 0 -895z m1828 735
c29 -11 63 -20 76 -20 28 0 59 -23 138 -104 66 -67 83 -108 75 -181 -5 -48
-24 -89 -75 -155 -11 -14 -26 -39 -35 -57 -9 -17 -22 -33 -28 -35 -6 -2 -14
-26 -16 -53 -4 -43 -1 -55 23 -85 29 -38 93 -83 134 -95 14 -4 34 -15 45 -25
11 -10 31 -21 44 -25 41 -12 108 -82 115 -119 4 -19 13 -39 21 -46 8 -7 20
-31 25 -54 6 -22 20 -62 30 -88 22 -51 26 -128 10 -158 -6 -11 -27 -23 -48
-28 -21 -6 -278 -7 -597 -4 -308 2 -597 4 -641 3 -108 -2 -118 7 -112 98 5 64
21 103 98 240 21 36 89 101 139 131 23 14 57 35 75 46 18 12 51 27 72 34 65
22 114 60 140 111 13 27 24 56 24 65 0 20 -47 143 -62 161 -5 6 -13 39 -19 73
-5 35 -17 77 -26 94 -9 17 -16 50 -16 74 0 37 5 49 43 87 24 25 50 45 57 45 7
0 22 9 33 20 31 31 120 68 165 69 22 1 64 -8 93 -19z"/>
</g>
</svg>
