<svg version="1.0" xmlns="http://www.w3.org/2000/svg"
 width="668px" style="transform:scale(1,1.001);" height="375.75px" viewBox="0 0 320.000000 180.000000"
 preserveAspectRatio="xMidYMid meet">
<g transform="translate(0.000000,180.000000) scale(0.100000,-0.100000)"
fill="#000000" stroke="none">
<path d="M0 905 l0 -895 1600 0 1600 0 0 895 0 895 -1600 0 -1600 0 0 -895z m1495 749
c30 -8 59 -85 50 -132 -13 -70 -10 -114 8 -127 10 -7 43 -15 75 -19 53 -6 60
-10 94 -51 31 -40 37 -55 46 -128 35 -279 35 -276 22 -337 -8 -36 -10 -85 -6
-121 4 -42 2 -68 -8 -87 -19 -39 -44 -156 -51 -243 -10 -114 -38 -137 -130
-104 -51 19 -65 19 -79 -1 -10 -13 -25 -14 -89 -8 -125 11 -121 4 -128 246 -4
111 -11 223 -17 248 -6 25 -15 70 -21 100 -6 30 -18 82 -26 115 -8 33 -15 76
-15 95 0 48 25 139 44 159 42 43 66 81 66 101 0 13 -17 48 -37 79 -28 42 -37
65 -36 95 3 52 44 113 80 119 44 6 136 7 158 1z m-21 -1514 c14 -5 30 -19 37
-31 18 -34 -12 -51 -86 -47 -56 3 -60 5 -63 29 -6 50 48 74 112 49z m202 -24
c8 -34 -2 -46 -39 -46 -51 0 -62 12 -42 44 24 36 72 37 81 2z"/>
</g>
</svg>
