<svg version="1.0" xmlns="http://www.w3.org/2000/svg"
 width="668px" style="transform:scale(1,1.001);" height="375.75px" viewBox="0 0 320.000000 180.000000"
 preserveAspectRatio="xMidYMid meet">
<g transform="translate(0.000000,180.000000) scale(0.100000,-0.100000)"
fill="#000000" stroke="none">
<path d="M0 905 l0 -895 1600 0 1600 0 0 895 0 895 -640 0 -640 0 0 -23 c0 -13 11 -33
24 -46 12 -12 29 -39 36 -60 11 -34 10 -46 -8 -97 -36 -106 -36 -115 -1 -162
18 -25 39 -42 51 -42 11 0 35 -13 54 -29 18 -16 39 -33 46 -38 20 -12 75 -105
98 -166 12 -30 23 -90 27 -142 5 -78 3 -97 -15 -137 -13 -30 -28 -49 -43 -53
-30 -9 -71 -52 -106 -113 -27 -45 -28 -52 -25 -160 3 -127 -9 -186 -41 -206
-32 -20 -485 -16 -498 5 -10 16 -12 54 -9 146 1 50 -4 73 -30 130 -17 37 -36
93 -42 124 -8 49 -17 63 -64 110 -82 81 -98 111 -98 185 0 53 5 69 30 106 16
24 36 49 46 55 9 7 33 36 55 65 55 76 91 105 149 123 28 8 57 22 64 30 7 8 18
15 25 15 7 0 22 8 34 18 20 15 21 20 10 52 -7 19 -25 50 -42 69 -26 31 -29 40
-25 88 4 41 11 60 31 81 15 16 27 38 27 50 l0 22 -840 0 -840 0 0 -895z m1820
-768 l45 -13 -48 -12 c-27 -7 -84 -15 -126 -19 -65 -5 -80 -3 -94 12 -17 17
-17 18 0 37 16 18 26 20 98 15 44 -4 100 -12 125 -20z"/>
</g>
</svg>
