<svg version="1.0" xmlns="http://www.w3.org/2000/svg"
 width="668px" style="transform:scale(1,1.001);" height="375.75px" viewBox="0 0 320.000000 180.000000"
 preserveAspectRatio="xMidYMid meet">
<g transform="translate(0.000000,180.000000) scale(0.100000,-0.100000)"
fill="#000000" stroke="none">
<path d="M0 905 l0 -895 555 0 555 0 0 23 c0 13 -9 42 -20 65 -20 40 -21 65 -25 470 -4
426 -4 427 -29 502 -14 41 -29 98 -32 125 -7 58 -31 133 -51 156 -7 8 -13 20
-13 26 0 5 -9 18 -20 28 -10 9 -38 49 -62 89 -40 65 -43 76 -42 137 0 51 5 73
22 97 12 16 22 40 22 51 0 21 0 21 -430 21 l-430 0 0 -895z"/>
<path d="M1053 1780 c4 -14 -8 -35 -40 -70 -42 -47 -45 -54 -40 -93 7 -48 30 -69 72
-65 25 3 31 8 33 33 2 17 -1 54 -8 83 -10 46 -10 56 4 71 24 26 21 61 -5 61
-16 0 -20 -5 -16 -20z"/>
<path d="M1250 1775 c0 -14 6 -25 13 -25 40 0 68 -82 48 -142 -16 -49 1 -93 41 -107 17
-6 57 -11 90 -11 65 0 83 16 54 48 -8 10 -22 38 -31 62 -14 39 -14 45 1 62 10
10 25 18 35 18 10 0 21 5 24 10 10 16 23 12 50 -17 21 -23 25 -37 25 -88 0
-35 6 -69 14 -80 25 -37 27 -115 3 -163 -22 -44 -26 -47 -112 -56 -27 -4 -55
-12 -62 -19 -24 -23 -34 -128 -42 -417 -9 -304 -15 -343 -72 -439 -54 -90 -73
-161 -77 -283 l-3 -118 975 0 976 0 0 895 0 895 -975 0 -975 0 0 -25z"/>
</g>
</svg>
