<svg version="1.0" xmlns="http://www.w3.org/2000/svg"
 width="668px" style="transform:scale(1,1.001);" height="375.75px" viewBox="0 0 320.000000 180.000000"
 preserveAspectRatio="xMidYMid meet">
<g transform="translate(0.000000,180.000000) scale(0.100000,-0.100000)"
fill="#000000" stroke="none">
<path d="M0 905 l0 -895 576 0 577 0 -5 51 c-5 46 -2 55 25 86 39 44 38 85 -2 184 -36
90 -49 207 -32 287 6 29 34 100 61 159 38 79 50 116 48 142 -3 35 -4 36 -48
39 -38 2 -50 -1 -70 -23 -16 -17 -34 -25 -57 -25 -53 0 -78 -34 -85 -115 -4
-37 -48 -66 -75 -49 -25 16 -42 188 -23 243 19 60 64 101 108 101 60 0 80 9
85 38 3 15 17 59 31 97 14 39 26 78 26 88 0 10 -18 40 -40 68 -58 74 -55 131
12 192 27 24 39 27 99 27 61 0 70 -3 88 -26 14 -18 21 -41 21 -73 0 -72 26
-112 83 -128 26 -7 47 -18 47 -23 0 -5 13 -16 29 -24 16 -9 38 -32 49 -53 11
-21 31 -60 46 -87 35 -66 36 -154 1 -246 -13 -36 -34 -107 -45 -158 -11 -51
-30 -114 -43 -140 -26 -55 -28 -134 -3 -161 9 -10 16 -22 16 -27 0 -5 21 -31
46 -57 25 -27 50 -59 55 -70 15 -33 32 -60 52 -82 72 -80 83 -119 47 -165 -11
-14 -20 -35 -20 -47 l0 -23 760 0 760 0 0 895 0 895 -1600 0 -1600 0 0 -895z"/>
<path d="M1320 361 c0 -22 11 -71 25 -109 24 -67 31 -124 19 -156 -3 -9 -24 -17 -52
-21 -111 -14 -112 -14 -112 -40 l0 -25 215 0 215 0 0 25 c0 19 -5 25 -23 25
-36 0 -56 21 -66 70 -13 67 -25 91 -68 135 -57 58 -141 135 -147 135 -3 0 -6
-18 -6 -39z"/>
</g>
</svg>
