<svg version="1.0" xmlns="http://www.w3.org/2000/svg"
 width="668px" style="transform:scale(1,1.001);" height="375.75px" viewBox="0 0 320.000000 180.000000"
 preserveAspectRatio="xMidYMid meet">
<g transform="translate(0.000000,180.000000) scale(0.100000,-0.100000)"
fill="#000000" stroke="none">
<path d="M0 905 l0 -895 1600 0 1600 0 0 895 0 895 -1600 0 -1600 0 0 -895z m1599 741
c75 -27 124 -67 146 -120 14 -32 13 -44 -4 -122 -11 -47 -26 -93 -35 -103 -24
-27 -21 -97 5 -119 12 -9 35 -29 51 -44 16 -16 35 -28 42 -28 7 0 24 -9 37
-21 13 -11 39 -27 57 -35 19 -7 60 -40 92 -73 64 -65 79 -99 105 -241 9 -47
25 -124 35 -172 27 -117 27 -211 0 -238 -11 -11 -28 -20 -37 -20 -10 -1 -94
-1 -188 0 -93 0 -260 -4 -370 -10 -202 -11 -469 -1 -523 21 -37 15 -54 70 -43
137 5 31 13 88 16 127 4 38 16 87 26 107 10 20 19 46 19 57 0 28 66 145 100
178 39 38 81 73 167 141 102 80 105 117 22 223 -33 43 -60 108 -66 166 -4 32
0 51 16 77 28 44 96 106 119 106 9 1 28 7 42 15 37 21 94 18 169 -9z"/>
</g>
</svg>
