<svg version="1.0" xmlns="http://www.w3.org/2000/svg"
 width="668px" style="transform:scale(1,1.001);" height="375.75px" viewBox="0 0 320.000000 180.000000"
 preserveAspectRatio="xMidYMid meet">
<g transform="translate(0.000000,180.000000) scale(0.100000,-0.100000)"
fill="#000000" stroke="none">
<path d="M0 905 l0 -895 543 0 542 0 0 148 c1 127 4 157 24 222 13 41 28 79 33 84 4 6
8 18 8 29 0 23 49 167 62 184 46 57 94 239 83 313 -4 25 -14 58 -22 74 -14 27
-17 28 -64 22 -49 -7 -98 8 -115 35 -18 30 -20 87 -8 198 11 106 21 139 51
180 7 9 72 -63 77 -85 4 -13 12 -24 19 -24 25 1 124 28 146 40 22 11 23 16 16
64 -18 113 -14 137 33 185 40 40 47 43 84 38 27 -4 52 -16 75 -39 48 -45 63
-79 63 -135 0 -68 26 -115 71 -128 37 -10 119 -76 119 -96 0 -6 10 -9 22 -7
18 2 26 16 43 73 37 128 76 169 103 110 13 -28 16 -250 6 -329 -13 -90 -122
-165 -154 -105 -6 11 -21 24 -33 28 -36 13 -56 2 -63 -37 -4 -20 -16 -56 -27
-81 -23 -52 -20 -136 7 -186 9 -16 16 -41 16 -55 0 -15 4 -30 9 -35 5 -6 32
-71 61 -145 29 -74 56 -144 61 -155 28 -62 49 -185 49 -282 l0 -103 630 0 630
0 0 895 0 895 -1600 0 -1600 0 0 -895z"/>
<path d="M1458 552 c-37 -15 -160 -198 -184 -274 -3 -13 -13 -32 -20 -43 -8 -11 -14
-30 -14 -43 0 -12 -11 -49 -25 -82 -46 -109 -70 -100 275 -100 l300 0 0 23 c0
13 -11 75 -25 136 -18 80 -33 125 -55 157 -16 25 -30 48 -30 51 0 10 -51 83
-82 117 -16 17 -28 33 -28 37 0 20 -77 35 -112 21z"/>
</g>
</svg>
