<svg version="1.0" xmlns="http://www.w3.org/2000/svg"
 width="668px" style="transform:scale(1,1.001);" height="375.75px" viewBox="0 0 320.000000 180.000000"
 preserveAspectRatio="xMidYMid meet">
<g transform="translate(0.000000,180.000000) scale(0.100000,-0.100000)"
fill="#000000" stroke="none">
<path d="M0 905 l0 -895 1600 0 1600 0 0 895 0 895 -1600 0 -1600 0 0 -895z m1773 696
c27 -19 53 -44 58 -58 15 -40 10 -94 -12 -129 -41 -66 -16 -142 51 -155 18 -4
37 -15 43 -24 5 -9 25 -23 43 -31 19 -8 38 -22 41 -32 4 -9 21 -37 39 -62 17
-25 35 -56 39 -70 4 -14 17 -41 28 -60 16 -26 22 -52 22 -97 0 -59 -2 -64 -35
-92 -19 -16 -53 -34 -75 -40 -27 -7 -50 -22 -69 -47 -28 -35 -29 -39 -25 -133
7 -187 3 -233 -17 -248 -14 -10 -70 -13 -240 -13 -194 0 -225 2 -239 17 -33
32 -37 62 -19 146 16 71 16 91 5 171 -7 50 -15 109 -18 131 -7 65 -13 85 -25
85 -13 0 -168 -159 -168 -172 0 -25 -47 -125 -72 -154 -50 -56 -79 -44 -98 41
-10 43 -8 57 11 109 12 34 28 68 35 76 7 8 18 26 24 40 23 52 64 108 131 180
8 9 30 42 48 73 37 65 117 157 136 157 7 0 26 11 42 23 15 13 41 27 56 31 18
4 33 18 44 40 15 32 14 36 -16 116 -38 99 -34 124 32 183 39 35 45 37 97 34
42 -3 66 -11 103 -36z m-109 -1462 c55 -15 31 -34 -43 -33 -75 1 -95 13 -50
29 45 17 48 17 93 4z m164 -16 c2 -9 -9 -13 -37 -13 -39 0 -50 8 -34 24 11 11
66 2 71 -11z"/>
</g>
</svg>
