<svg version="1.0" xmlns="http://www.w3.org/2000/svg"
 width="668px" style="transform:scale(1,1.001);" height="375.75px" viewBox="0 0 320.000000 180.000000"
 preserveAspectRatio="xMidYMid meet">
<g transform="translate(0.000000,180.000000) scale(0.100000,-0.100000)"
fill="#000000" stroke="none">
<path d="M0 905 l0 -895 1600 0 1600 0 0 895 0 895 -1600 0 -1600 0 0 -895z m1440 749
c6 -14 10 -53 10 -87 0 -72 16 -102 58 -112 16 -3 44 -21 61 -39 61 -63 89
-236 56 -349 -12 -44 -13 -85 -5 -262 5 -116 16 -253 24 -305 19 -118 21 -401
4 -418 -20 -20 -45 -13 -57 16 -10 25 -31 159 -46 297 -4 33 -18 96 -32 139
-14 43 -30 109 -37 145 -10 54 -16 66 -32 66 -23 0 -47 -45 -69 -133 -16 -60
-16 -68 5 -162 12 -54 31 -123 42 -152 11 -29 20 -70 20 -90 -1 -40 -26 -88
-47 -88 -8 0 -27 -11 -43 -25 -32 -27 -61 -32 -79 -14 -13 13 2 87 23 110 16
18 19 91 4 118 -5 10 -23 69 -40 130 -35 129 -40 243 -14 356 29 130 38 211
28 245 l-9 32 -34 -66 c-29 -57 -38 -66 -67 -72 -52 -10 -64 6 -64 88 0 114
85 342 140 376 29 18 27 76 -5 113 -32 39 -42 95 -24 128 17 30 46 38 147 40
69 1 73 0 82 -25z"/>
</g>
</svg>
