<svg version="1.0" xmlns="http://www.w3.org/2000/svg"
 width="668px" style="transform:scale(1,1.001);" height="375.75px" viewBox="0 0 320.000000 180.000000"
 preserveAspectRatio="xMidYMid meet">
<g transform="translate(0.000000,180.000000) scale(0.100000,-0.100000)"
fill="#000000" stroke="none">
<path d="M0 905 l0 -895 919 0 918 0 0 98 c-1 82 4 113 31 202 18 58 50 134 71 170 73
123 103 213 108 328 7 143 0 182 -48 242 -21 27 -39 56 -39 65 0 8 -4 15 -9
15 -5 0 -11 10 -15 23 -3 12 -14 32 -26 44 -23 26 -26 79 -5 106 7 11 17 38
20 60 19 114 63 159 162 165 52 4 67 1 94 -18 39 -29 59 -75 59 -139 0 -48 3
-52 70 -123 111 -116 129 -164 160 -409 14 -109 8 -152 -26 -192 -23 -28 -44
-85 -44 -122 0 -11 -14 -49 -31 -85 -17 -36 -39 -87 -50 -115 -10 -27 -25 -70
-34 -93 -12 -34 -14 -64 -9 -133 l7 -89 458 0 459 0 0 895 0 895 -1600 0
-1600 0 0 -895z"/>
<path d="M2050 165 c-7 -8 -15 -47 -18 -85 l-5 -70 38 0 c37 0 37 0 30 33 -3 17 -9 52
-12 77 -6 54 -15 66 -33 45z"/>
</g>
</svg>
