<svg version="1.0" xmlns="http://www.w3.org/2000/svg"
 width="668px" style="transform:scale(1,1.001);" height="375.75px" viewBox="0 0 320.000000 180.000000"
 preserveAspectRatio="xMidYMid meet">
<g transform="translate(0.000000,180.000000) scale(0.100000,-0.100000)"
fill="#000000" stroke="none">
<path d="M0 905 l0 -895 1600 0 1600 0 0 895 0 895 -1600 0 -1600 0 0 -895z m2050 658
c36 -11 74 -27 85 -36 11 -9 36 -29 55 -44 20 -15 53 -47 74 -70 35 -39 38
-48 37 -97 0 -41 -7 -65 -25 -93 -14 -21 -28 -51 -32 -68 -4 -16 -12 -37 -19
-45 -29 -36 -75 -143 -75 -177 0 -60 44 -115 128 -158 40 -21 75 -42 78 -46 3
-5 21 -16 42 -26 43 -20 178 -154 188 -186 3 -12 15 -32 26 -43 11 -13 23 -46
28 -83 5 -34 18 -77 30 -96 13 -21 20 -47 18 -67 -3 -29 -7 -33 -43 -41 -24
-5 -95 -4 -174 2 -138 11 -163 20 -176 62 -3 10 -14 20 -23 23 -42 12 -385 26
-682 27 -345 2 -366 4 -391 50 -11 22 -3 115 11 124 5 3 16 30 25 60 12 43 28
67 72 110 31 30 62 55 68 55 7 0 25 11 41 25 15 13 41 27 55 30 15 4 33 13 40
21 6 8 31 19 55 25 23 6 50 20 60 30 9 10 23 19 30 19 7 0 29 15 48 34 32 30
36 39 36 85 0 54 -9 81 -40 116 -10 11 -20 36 -24 57 -4 20 -13 38 -20 41 -20
8 -69 142 -61 168 13 39 44 84 82 114 20 17 48 41 62 55 68 66 179 81 311 43z"/>
</g>
</svg>
