<svg version="1.0" xmlns="http://www.w3.org/2000/svg"
 width="668px" style="transform:scale(1,1.001);" height="375.75px" viewBox="0 0 320.000000 180.000000"
 preserveAspectRatio="xMidYMid meet">
<g transform="translate(0.000000,180.000000) scale(0.100000,-0.100000)"
fill="#000000" stroke="none">
<path d="M0 905 l0 -895 705 0 705 0 0 25 c0 19 -5 25 -22 25 -40 0 -51 14 -44 56 14
82 25 440 16 494 -5 30 -9 120 -9 200 1 182 -1 196 -31 192 -12 -1 -33 -11
-47 -22 -14 -11 -31 -20 -37 -20 -7 0 -29 -19 -51 -42 -49 -55 -105 -97 -127
-98 -11 0 -28 23 -49 65 -28 57 -31 72 -27 130 3 43 9 70 19 76 7 5 49 9 91 9
69 0 80 3 105 26 15 14 32 29 38 32 6 4 28 28 49 55 21 26 46 47 56 47 24 0
30 20 30 104 0 117 22 156 87 156 76 -1 113 -43 113 -128 0 -46 4 -55 36 -84
20 -18 49 -40 66 -48 30 -15 46 -41 107 -171 48 -102 61 -156 61 -256 0 -75
-4 -100 -21 -133 -12 -22 -24 -40 -28 -40 -3 0 -5 -57 -3 -127 3 -122 2 -130
-23 -173 -54 -95 -58 -110 -46 -175 14 -78 7 -105 -28 -105 -52 1 -101 67
-101 137 0 21 10 66 22 98 12 33 22 84 22 115 0 63 -36 190 -61 216 -16 15
-18 15 -35 -6 -10 -12 -17 -36 -16 -54 2 -47 -11 -252 -22 -326 -5 -36 -12
-91 -15 -123 -5 -42 -12 -61 -26 -70 -10 -6 -19 -22 -19 -34 l0 -23 880 0 880
0 0 895 0 895 -1600 0 -1600 0 0 -895z"/>
</g>
</svg>
