<svg version="1.0" xmlns="http://www.w3.org/2000/svg"
 width="668px" style="transform:scale(1,1.001);" height="375.75px" viewBox="0 0 320.000000 180.000000"
 preserveAspectRatio="xMidYMid meet">
<g transform="translate(0.000000,180.000000) scale(0.100000,-0.100000)"
fill="#000000" stroke="none">
<path d="M0 905 l0 -895 536 0 536 0 -6 44 c-4 27 1 93 13 173 11 70 25 205 30 298 6
94 20 260 31 370 24 230 43 298 101 356 49 49 57 89 29 154 -47 108 11 205
122 205 24 0 44 -10 75 -38 47 -44 60 -80 47 -131 -14 -54 3 -97 40 -108 17
-5 35 -19 41 -31 5 -12 17 -25 27 -28 52 -16 113 -240 143 -524 16 -148 10
-197 -28 -238 -18 -19 -21 -34 -19 -88 1 -36 7 -84 14 -107 6 -23 12 -102 12
-174 l1 -133 728 0 727 0 0 895 0 895 -1600 0 -1600 0 0 -895z"/>
<path d="M1404 478 c-71 -76 -150 -223 -189 -352 -39 -128 -58 -116 190 -116 200 0 215
1 215 18 0 24 -49 167 -99 285 -22 55 -41 105 -41 112 0 12 -38 85 -44 85 -1
0 -16 -15 -32 -32z"/>
</g>
</svg>
