<svg version="1.0" xmlns="http://www.w3.org/2000/svg"
 width="668px" style="transform:scale(1,1.001);" height="375.75px" viewBox="0 0 320.000000 180.000000"
 preserveAspectRatio="xMidYMid meet">
<g transform="translate(0.000000,180.000000) scale(0.100000,-0.100000)"
fill="#000000" stroke="none">
<path d="M0 905 l0 -895 1600 0 1600 0 0 895 0 895 -1600 0 -1600 0 0 -895z m1650 790
c14 -8 42 -22 62 -32 46 -22 95 -84 104 -130 10 -54 -2 -140 -27 -181 -15 -26
-22 -53 -22 -91 0 -50 3 -57 35 -85 39 -34 72 -57 167 -118 133 -85 191 -176
191 -303 0 -35 9 -102 20 -149 11 -47 22 -127 26 -178 10 -146 67 -134 -575
-129 -523 3 -564 5 -583 35 -13 19 -9 210 6 262 8 27 17 69 21 94 4 25 16 59
26 76 10 17 19 42 19 55 0 41 103 170 166 209 17 11 49 36 70 56 22 19 51 43
66 52 50 30 46 60 -23 180 -52 89 -63 117 -67 165 -4 51 -1 63 27 110 27 44
43 57 99 84 75 36 149 43 192 18z"/>
</g>
</svg>
