<svg version="1.0" xmlns="http://www.w3.org/2000/svg"
 width="668px" style="transform:scale(1,1.001);" height="375.75px" viewBox="0 0 320.000000 180.000000"
 preserveAspectRatio="xMidYMid meet">
<g transform="translate(0.000000,180.000000) scale(0.100000,-0.100000)"
fill="#000000" stroke="none">
<path d="M0 905 l0 -895 1600 0 1600 0 0 895 0 895 -1600 0 -1600 0 0 -895z m1650 747
c19 -11 48 -22 64 -26 41 -10 114 -88 122 -131 9 -49 -2 -107 -32 -174 -46
-99 -46 -100 -23 -137 11 -19 25 -34 30 -34 5 0 21 -11 36 -25 27 -24 60 -49
133 -98 52 -36 119 -106 139 -146 26 -53 40 -112 56 -251 8 -69 19 -152 23
-186 9 -72 0 -114 -29 -132 -18 -11 -124 -14 -556 -13 -314 1 -542 5 -553 11
-27 15 -43 65 -37 118 19 160 36 253 51 273 9 13 16 32 16 41 0 43 69 154 134
216 37 34 73 62 80 62 7 0 23 11 35 24 13 14 39 32 57 41 19 9 40 28 48 44 13
24 13 33 0 70 -8 24 -30 67 -50 97 -39 62 -64 126 -64 165 0 67 58 133 160
182 65 32 112 34 160 9z"/>
</g>
</svg>
