<svg version="1.0" xmlns="http://www.w3.org/2000/svg"
 width="668px" style="transform:scale(1,1.001);" height="375.75px" viewBox="0 0 320.000000 180.000000"
 preserveAspectRatio="xMidYMid meet">
<g transform="translate(0.000000,180.000000) scale(0.100000,-0.100000)"
fill="#000000" stroke="none">
<path d="M0 905 l0 -895 543 0 544 0 7 148 c4 81 11 165 16 187 5 22 7 92 4 155 -9 166
12 555 33 616 24 73 61 135 97 169 44 40 76 88 76 115 0 11 -7 35 -16 52 -25
49 -14 112 27 155 33 34 35 35 103 31 44 -2 71 -8 74 -16 2 -7 15 -26 28 -41
28 -33 31 -78 9 -121 -12 -24 -13 -35 -2 -67 10 -31 18 -38 46 -44 22 -5 47
-22 71 -49 57 -65 81 -174 99 -465 6 -82 17 -168 25 -190 19 -52 21 -80 11
-138 -5 -34 -3 -67 8 -110 9 -34 18 -80 21 -102 5 -40 -7 -191 -20 -253 l-6
-32 701 0 701 0 0 895 0 895 -1600 0 -1600 0 0 -895z"/>
<path d="M1402 475 c-23 -25 -42 -51 -42 -59 0 -7 -25 -64 -56 -127 -63 -128 -104 -230
-104 -259 0 -19 8 -20 240 -20 l240 0 -3 113 c-2 93 -6 119 -22 143 -27 39
-35 54 -70 121 -35 66 -96 133 -123 133 -10 0 -37 -20 -60 -45z"/>
</g>
</svg>
