<svg version="1.0" xmlns="http://www.w3.org/2000/svg"
 width="668px" style="transform:scale(1,1.001);" height="375.75px" viewBox="0 0 320.000000 180.000000"
 preserveAspectRatio="xMidYMid meet">
<g transform="translate(0.000000,180.000000) scale(0.100000,-0.100000)"
fill="#000000" stroke="none">
<path d="M0 905 l0 -895 775 0 c656 0 775 2 775 14 0 13 -6 44 -41 226 -6 30 -23 98
-39 150 -16 52 -34 122 -41 155 -16 83 -34 153 -53 200 -10 27 -15 74 -15 145
-1 101 1 108 35 175 41 81 76 122 113 130 14 3 42 21 62 38 31 28 37 40 42 90
5 47 12 64 38 92 31 33 38 35 94 35 57 0 63 -2 97 -37 42 -44 53 -86 40 -155
-7 -37 -5 -58 9 -99 11 -29 19 -64 19 -77 0 -29 -44 -132 -80 -186 -62 -95
-60 -90 -50 -127 32 -108 66 -503 58 -663 l-6 -106 684 0 684 0 0 895 0 895
-1600 0 -1600 0 0 -895z"/>
<path d="M1661 340 c-1 -41 -4 -132 -8 -203 l-6 -127 43 0 42 0 -6 32 c-3 18 -13 91
-21 163 -9 72 -22 148 -30 170 l-13 40 -1 -75z"/>
</g>
</svg>
