<svg version="1.0" xmlns="http://www.w3.org/2000/svg"
 width="668px" style="transform:scale(1,1.001);" height="375.75px" viewBox="0 0 320.000000 180.000000"
 preserveAspectRatio="xMidYMid meet">
<g transform="translate(0.000000,180.000000) scale(0.100000,-0.100000)"
fill="#000000" stroke="none">
<path d="M0 905 l0 -895 1600 0 1600 0 0 895 0 895 -1600 0 -1600 0 0 -895z m1645 441
c42 -18 52 -50 37 -114 -8 -37 -7 -52 4 -74 8 -15 18 -28 23 -28 4 0 19 -9 32
-21 57 -49 146 -110 169 -115 52 -12 148 -67 164 -94 21 -37 20 -97 -3 -140
-24 -46 -47 -50 -55 -11 -3 17 -9 45 -12 61 -6 33 -31 50 -104 71 -25 7 -57
21 -71 30 -34 24 -118 34 -160 20 -42 -14 -86 -52 -98 -85 -12 -30 6 -101 47
-187 62 -129 72 -161 72 -221 0 -40 -7 -72 -21 -100 -30 -59 -30 -128 -1 -168
19 -25 22 -36 14 -58 -11 -34 -46 -40 -107 -17 -82 32 -86 45 -50 185 37 148
32 181 -44 283 -53 71 -65 62 -69 -53 -2 -83 -7 -104 -36 -165 -37 -78 -61
-149 -71 -210 -4 -22 -11 -46 -17 -52 -14 -18 -63 -16 -78 2 -16 19 -7 116 21
235 24 98 26 150 13 355 l-9 150 -34 3 c-40 4 -74 -24 -102 -83 -48 -102 -73
-122 -110 -89 -14 12 -19 30 -19 65 0 46 3 52 58 106 33 32 92 87 132 123 41
36 105 98 143 137 49 51 81 76 107 83 38 10 60 40 60 83 0 42 33 92 65 98 50
11 74 10 110 -5z"/>
</g>
</svg>
