<svg version="1.0" xmlns="http://www.w3.org/2000/svg"
 width="668px" style="transform:scale(1,1.001);" height="375.75px" viewBox="0 0 320.000000 180.000000"
 preserveAspectRatio="xMidYMid meet">
<g transform="translate(0.000000,180.000000) scale(0.100000,-0.100000)"
fill="#000000" stroke="none">
<path d="M0 905 l0 -895 1600 0 1600 0 0 895 0 895 -1600 0 -1600 0 0 -895z m1816 784
c72 -37 80 -44 116 -93 37 -51 38 -115 2 -205 -14 -36 -30 -70 -34 -76 -16
-21 -18 -71 -4 -101 15 -32 67 -79 114 -104 34 -18 153 -119 164 -139 5 -9 17
-25 26 -36 29 -33 58 -154 65 -265 4 -58 13 -130 21 -161 22 -90 19 -152 -11
-187 l-25 -30 -207 5 c-115 2 -354 5 -533 6 -303 2 -327 3 -357 22 -42 25 -51
66 -30 148 9 34 18 91 21 125 3 35 12 78 20 95 8 18 19 50 25 72 11 42 29 80
74 157 28 47 128 138 152 138 7 0 20 11 29 25 9 14 23 25 31 25 24 0 95 75
101 108 5 23 -3 47 -36 108 -54 101 -80 189 -67 230 14 41 75 113 103 120 12
3 30 14 40 25 29 32 128 26 200 -12z"/>
</g>
</svg>
