<svg version="1.0" xmlns="http://www.w3.org/2000/svg"
 width="668px" style="transform:scale(1,1.001);" height="375.75px" viewBox="0 0 320.000000 180.000000"
 preserveAspectRatio="xMidYMid meet">
<g transform="translate(0.000000,180.000000) scale(0.100000,-0.100000)"
fill="#000000" stroke="none">
<path d="M0 905 l0 -895 509 0 509 0 5 48 c3 26 10 67 16 92 5 25 10 81 11 126 0 73 29
227 49 264 5 9 12 31 16 50 4 19 18 48 31 65 22 29 71 111 114 188 20 36 20
39 4 67 -10 16 -27 31 -39 34 -27 7 -75 80 -75 113 0 69 157 273 210 273 33 0
67 24 127 88 43 45 54 52 87 52 31 0 46 -7 77 -39 43 -42 45 -55 27 -141 -10
-51 -9 -64 15 -148 20 -69 27 -116 27 -181 0 -84 -1 -89 -30 -119 -43 -45 -39
-79 20 -196 28 -55 50 -108 50 -119 0 -10 6 -31 14 -45 20 -39 43 -114 66
-217 12 -50 30 -111 40 -137 11 -26 20 -63 20 -82 l0 -36 650 0 650 0 0 895 0
895 -1600 0 -1600 0 0 -895z"/>
<path d="M1385 600 c-51 -30 -147 -126 -170 -170 -18 -35 -52 -181 -61 -260 -3 -36 -13
-77 -20 -92 -8 -15 -14 -36 -14 -48 0 -20 4 -20 340 -20 317 0 340 1 340 18 0
9 -16 60 -36 112 -19 52 -40 111 -45 130 -15 52 -66 151 -91 180 -13 14 -42
50 -65 80 -44 58 -93 100 -115 99 -7 0 -35 -13 -63 -29z"/>
</g>
</svg>
