<svg version="1.0" xmlns="http://www.w3.org/2000/svg"
 width="668px" style="transform:scale(1,1.001);" height="375.75px" viewBox="0 0 320.000000 180.000000"
 preserveAspectRatio="xMidYMid meet">
<g transform="translate(0.000000,180.000000) scale(0.100000,-0.100000)"
fill="#000000" stroke="none">
<path d="M0 905 l0 -895 1600 0 1600 0 0 895 0 895 -1600 0 -1600 0 0 -895z m1764 788
c16 -13 36 -23 45 -23 30 -1 81 -76 88 -128 7 -60 -11 -179 -31 -201 -20 -22
-29 -65 -22 -105 5 -24 20 -43 54 -70 65 -51 113 -84 138 -95 12 -5 28 -18 35
-29 8 -10 23 -24 34 -30 28 -15 81 -118 89 -172 4 -25 16 -94 26 -155 41 -225
48 -303 33 -333 -8 -15 -21 -32 -29 -39 -20 -15 -1029 -17 -1086 -2 -76 19
-82 63 -43 277 30 164 28 157 73 257 37 82 104 175 127 175 7 0 20 11 29 25 9
14 23 25 31 25 8 0 24 9 35 20 12 12 33 28 49 38 41 25 81 76 80 103 -1 24
-19 60 -73 140 -33 49 -46 89 -46 141 0 71 25 106 122 172 51 36 55 37 133 34
66 -2 86 -7 109 -25z"/>
</g>
</svg>
