<svg version="1.0" xmlns="http://www.w3.org/2000/svg"
 width="668px" style="transform:scale(1,1.001);" height="375.75px" viewBox="0 0 320.000000 180.000000"
 preserveAspectRatio="xMidYMid meet">
<g transform="translate(0.000000,180.000000) scale(0.100000,-0.100000)"
fill="#000000" stroke="none">
<path d="M0 905 l0 -895 1600 0 1600 0 0 895 0 895 -1600 0 -1600 0 0 -895z m1705 310
c72 -40 102 -72 131 -135 20 -44 24 -66 21 -110 -6 -67 -41 -192 -62 -222 -37
-54 -7 -99 97 -144 35 -14 77 -33 95 -40 17 -8 39 -14 49 -14 18 0 52 -15 172
-73 58 -28 152 -107 152 -128 0 -5 -9 -18 -19 -28 -16 -16 -30 -19 -73 -15
-29 2 -311 6 -626 8 -385 2 -577 7 -584 14 -29 29 15 79 134 152 65 40 83 70
69 113 -7 19 -20 42 -30 52 -11 9 -22 28 -25 41 -6 23 -40 75 -74 114 -29 34
-62 92 -62 110 0 20 33 82 61 115 10 11 45 52 78 91 62 75 111 111 165 125 17
4 87 7 156 5 116 -2 128 -4 175 -31z"/>
</g>
</svg>
