<svg version="1.0" xmlns="http://www.w3.org/2000/svg"
 width="668px" style="transform:scale(1,1.001);" height="375.75px" viewBox="0 0 320.000000 180.000000"
 preserveAspectRatio="xMidYMid meet">
<g transform="translate(0.000000,180.000000) scale(0.100000,-0.100000)"
fill="#000000" stroke="none">
<path d="M0 905 l0 -895 1600 0 1600 0 0 895 0 895 -1600 0 -1600 0 0 -895z m1843 780
c36 -20 80 -52 97 -71 28 -33 30 -40 30 -117 0 -65 -4 -91 -22 -122 -60 -112
-54 -166 27 -233 28 -23 63 -53 79 -67 16 -14 34 -25 41 -25 9 0 63 -55 106
-108 30 -37 57 -133 64 -227 4 -55 13 -125 21 -155 18 -72 19 -220 0 -245 -16
-22 23 -21 -719 -14 l-399 4 -25 29 c-21 25 -24 36 -20 80 13 130 35 254 50
283 10 18 17 41 17 52 0 38 102 222 133 241 16 10 35 27 42 38 8 10 28 22 45
25 18 4 30 13 30 22 0 9 16 23 36 31 35 15 88 67 111 110 11 19 9 29 -12 66
-13 24 -31 59 -40 78 -9 19 -22 46 -29 60 -20 38 -28 107 -16 148 13 48 47 85
101 111 24 12 55 28 69 37 38 23 106 11 183 -31z"/>
</g>
</svg>
