<svg version="1.0" xmlns="http://www.w3.org/2000/svg"
 width="668px" style="transform:scale(1,1.001);" height="375.75px" viewBox="0 0 320.000000 180.000000"
 preserveAspectRatio="xMidYMid meet">
<g transform="translate(0.000000,180.000000) scale(0.100000,-0.100000)"
fill="#000000" stroke="none">
<path d="M0 905 l0 -895 476 0 476 0 -7 33 c-4 17 -9 65 -12 105 l-5 73 50 50 c44 44
54 49 93 49 26 0 58 8 79 20 19 11 81 43 136 69 116 57 119 61 102 162 -9 51
-9 83 0 132 18 95 15 154 -7 186 -11 15 -23 40 -27 55 -7 29 -67 109 -134 179
-45 46 -80 114 -80 153 0 36 43 119 80 156 38 39 70 48 165 48 74 0 87 -3 113
-25 17 -14 35 -25 41 -25 6 0 23 -18 37 -40 23 -34 27 -51 28 -127 2 -49 8
-98 15 -111 11 -22 56 -48 74 -43 5 1 11 -7 14 -18 3 -11 16 -22 29 -25 20 -5
81 -57 162 -138 29 -28 64 -94 69 -127 3 -20 11 -43 18 -51 7 -8 16 -40 20
-70 4 -30 16 -71 26 -90 11 -19 19 -47 19 -62 0 -15 7 -45 14 -65 8 -21 20
-78 27 -128 6 -49 14 -106 16 -126 6 -43 -23 -107 -62 -137 -14 -11 -25 -29
-25 -41 l0 -21 590 0 590 0 0 895 0 895 -1600 0 -1600 0 0 -895z"/>
</g>
</svg>
