<svg version="1.0" xmlns="http://www.w3.org/2000/svg"
 width="668px" style="transform:scale(1,1.001);" height="375.75px" viewBox="0 0 320.000000 180.000000"
 preserveAspectRatio="xMidYMid meet">
<g transform="translate(0.000000,180.000000) scale(0.100000,-0.100000)"
fill="#000000" stroke="none">
<path d="M0 905 l0 -895 780 0 780 0 0 26 c0 36 -16 61 -49 78 -26 14 -29 21 -38 103
-12 91 -11 91 -82 143 -19 14 -21 28 -26 210 -3 107 -9 222 -15 255 -19 114
-13 176 21 240 l31 59 -21 43 c-31 63 -27 89 18 134 34 35 44 39 87 39 40 -1
55 -6 82 -31 27 -25 35 -41 41 -85 7 -47 14 -60 52 -97 25 -23 53 -54 62 -69
27 -43 55 -166 61 -265 3 -50 12 -109 20 -130 7 -21 19 -54 26 -73 17 -47 56
-92 91 -107 30 -13 36 -31 19 -64 -13 -23 -37 -24 -62 -2 -17 15 -19 15 -36
-1 -18 -15 -21 -15 -46 5 -15 11 -32 19 -39 16 -7 -2 -20 -38 -30 -78 -11 -41
-32 -100 -48 -131 -25 -49 -29 -69 -29 -138 l0 -80 775 0 775 0 0 895 0 895
-1600 0 -1600 0 0 -895z"/>
</g>
</svg>
