<svg version="1.0" xmlns="http://www.w3.org/2000/svg"
 width="668px" style="transform:scale(1,1.001);" height="375.75px" viewBox="0 0 320.000000 180.000000"
 preserveAspectRatio="xMidYMid meet">
<g transform="translate(0.000000,180.000000) scale(0.100000,-0.100000)"
fill="#000000" stroke="none">
<path d="M0 905 l0 -895 560 0 560 0 0 24 c0 16 -13 35 -40 56 -46 36 -50 62 -24 145
29 94 15 719 -19 850 -8 33 -20 95 -26 139 -9 66 -45 161 -71 186 -3 3 -18 25
-34 50 -25 38 -30 58 -34 126 -5 87 9 132 48 157 11 6 20 22 20 34 l0 23 -470
0 -470 0 0 -895z"/>
<path d="M1220 1777 c0 -19 8 -25 37 -33 54 -13 87 -65 78 -119 -13 -70 -10 -107 10
-121 23 -17 98 -18 127 -3 20 11 20 11 -4 34 -29 27 -45 99 -27 121 6 8 26 14
44 14 27 0 34 -5 48 -37 9 -21 19 -56 23 -78 4 -22 16 -52 28 -68 14 -19 21
-48 24 -91 5 -83 -7 -106 -57 -106 -64 0 -102 -12 -117 -36 -25 -37 -43 -243
-44 -475 0 -224 0 -224 -47 -329 -9 -19 -22 -42 -29 -50 -7 -9 -29 -55 -49
-103 -32 -80 -35 -97 -35 -188 l0 -99 985 0 985 0 0 895 0 895 -990 0 -990 0
0 -23z"/>
<path d="M1035 1660 c-15 -17 -17 -27 -9 -58 8 -32 13 -37 39 -37 28 0 30 3 33 38 3 30
-2 43 -19 58 -27 23 -22 23 -44 -1z"/>
</g>
</svg>
