<svg version="1.0" xmlns="http://www.w3.org/2000/svg"
 width="668px" style="transform:scale(1,1.001);" height="375.75px" viewBox="0 0 320.000000 180.000000"
 preserveAspectRatio="xMidYMid meet">
<g transform="translate(0.000000,180.000000) scale(0.100000,-0.100000)"
fill="#000000" stroke="none">
<path d="M0 905 l0 -895 660 0 660 0 0 68 c0 37 4 82 10 101 7 25 5 54 -6 105 -18 83
-36 455 -27 571 7 97 -4 114 -61 95 -39 -12 -122 -90 -132 -124 -4 -11 -18
-38 -32 -58 -20 -31 -28 -36 -42 -28 -56 30 -63 65 -24 133 25 46 127 157 143
157 5 0 51 42 101 93 50 50 108 101 129 112 21 11 54 28 73 39 36 19 48 44 48
102 0 13 8 39 17 58 32 68 127 73 182 10 35 -39 41 -87 16 -120 -8 -10 -15
-33 -15 -50 0 -26 6 -33 38 -47 55 -24 96 -50 149 -93 45 -37 49 -38 132 -41
107 -3 125 -17 125 -96 0 -40 -7 -68 -31 -112 -28 -55 -34 -60 -69 -65 -22 -3
-52 -2 -67 3 -23 8 -27 14 -23 33 20 77 -97 179 -181 158 -38 -10 -117 -73
-132 -106 -10 -23 -10 -37 4 -80 9 -29 27 -71 40 -93 38 -65 81 -156 100 -213
16 -49 16 -56 1 -93 -9 -21 -16 -47 -16 -57 0 -9 -6 -28 -13 -42 -32 -62 -46
-126 -36 -163 5 -20 14 -39 19 -42 6 -4 10 -31 10 -61 l0 -54 725 0 725 0 0
895 0 895 -1600 0 -1600 0 0 -895z"/>
<path d="M1468 629 c-21 -12 -23 -49 -7 -94 10 -25 9 -49 -5 -114 -9 -47 -16 -131 -16
-199 -1 -82 -5 -124 -15 -142 -8 -14 -14 -35 -15 -47 0 -23 2 -23 115 -23 114
0 115 0 115 23 0 16 -9 28 -25 35 -32 15 -40 48 -26 112 6 28 11 72 11 98 1
26 7 58 15 72 20 35 18 71 -5 130 -28 72 -92 160 -114 160 -6 0 -19 -5 -28
-11z"/>
</g>
</svg>
