<svg version="1.0" xmlns="http://www.w3.org/2000/svg"
 width="668px" style="transform:scale(1,1.001);" height="375.75px" viewBox="0 0 320.000000 180.000000"
 preserveAspectRatio="xMidYMid meet">
<g transform="translate(0.000000,180.000000) scale(0.100000,-0.100000)"
fill="#000000" stroke="none">
<path d="M0 905 l0 -895 1600 0 1600 0 0 895 0 895 -1600 0 -1600 0 0 -895z m1781 796
c13 -10 34 -21 47 -25 57 -18 122 -106 122 -167 0 -16 -7 -46 -15 -66 -8 -19
-15 -45 -15 -57 0 -11 -9 -35 -19 -52 -30 -49 -35 -91 -15 -122 26 -40 95
-102 122 -109 13 -3 30 -16 39 -29 8 -13 21 -24 28 -24 21 0 72 -47 106 -98
46 -68 78 -193 79 -307 0 -39 9 -101 20 -140 31 -109 22 -197 -22 -208 -24 -7
-1062 2 -1096 9 -46 9 -78 105 -52 154 6 10 15 65 21 122 5 57 16 112 23 123
7 11 16 34 20 50 21 86 100 218 144 239 17 9 32 20 32 26 0 6 16 18 35 25 36
16 56 32 130 103 58 56 58 75 0 195 -25 52 -45 101 -45 110 0 9 -5 27 -11 41
-9 19 -9 33 2 58 15 39 79 118 94 118 5 0 23 11 39 25 25 21 39 25 96 25 50 0
73 -5 91 -19z"/>
</g>
</svg>
