<svg version="1.0" xmlns="http://www.w3.org/2000/svg"
 width="668px" style="transform:scale(1,1.001);" height="375.75px" viewBox="0 0 320.000000 180.000000"
 preserveAspectRatio="xMidYMid meet">
<g transform="translate(0.000000,180.000000) scale(0.100000,-0.100000)"
fill="#000000" stroke="none">
<path d="M0 905 l0 -895 520 0 520 0 0 33 c0 17 7 67 15 110 8 43 15 115 15 160 1 57 7
99 21 137 11 30 23 66 26 80 3 14 22 45 42 70 117 143 134 188 84 212 -67 32
-76 119 -24 226 16 31 38 79 50 105 13 28 31 51 44 56 13 5 29 16 36 25 7 9
38 18 72 22 33 4 70 15 82 24 35 28 92 40 132 29 26 -7 40 -20 54 -47 l19 -38
-25 -64 -26 -64 18 -70 c10 -39 24 -83 31 -98 18 -36 18 -110 -1 -155 -8 -19
-15 -43 -15 -53 0 -10 25 -71 56 -136 62 -130 77 -178 99 -304 8 -47 21 -110
29 -140 9 -30 16 -70 16 -87 l0 -33 655 0 655 0 0 895 0 895 -1600 0 -1600 0
0 -895z"/>
<path d="M1392 535 c-29 -12 -63 -32 -75 -43 -13 -12 -28 -22 -33 -22 -11 0 -51 -50
-71 -88 -7 -13 -15 -47 -19 -75 -3 -29 -12 -72 -19 -97 -7 -25 -16 -80 -20
-122 l-6 -78 316 0 315 0 0 23 c-1 55 -70 300 -102 362 -23 42 -120 126 -169
145 -58 23 -50 24 -117 -5z"/>
</g>
</svg>
