<svg version="1.0" xmlns="http://www.w3.org/2000/svg"
 width="668px" style="transform:scale(1,1.001);" height="375.75px" viewBox="0 0 320.000000 180.000000"
 preserveAspectRatio="xMidYMid meet">
<g transform="translate(0.000000,180.000000) scale(0.100000,-0.100000)"
fill="#000000" stroke="none">
<path d="M0 905 l0 -895 550 0 551 0 -6 107 c-3 60 -10 142 -15 183 -17 139 -23 450
-10 519 9 53 9 79 -4 145 -8 45 -18 102 -21 129 -4 33 -11 47 -22 47 -13 0
-14 2 -2 17 13 15 12 16 -11 9 -14 -5 -59 -11 -101 -13 -71 -5 -79 -3 -132 27
-32 18 -57 36 -57 42 0 5 -18 25 -39 45 -22 19 -42 47 -46 61 -9 38 -51 101
-95 143 -42 39 -57 85 -46 144 6 31 10 35 39 35 25 0 44 -12 89 -55 49 -47 58
-62 68 -111 7 -31 24 -76 38 -100 26 -43 40 -50 107 -57 27 -3 76 17 85 34 6
10 32 30 58 44 26 13 62 37 81 53 l33 29 -21 48 c-25 56 -28 157 -6 195 8 14
14 35 15 48 l0 22 -540 0 -540 0 0 -895z"/>
<path d="M1250 1778 c0 -12 6 -29 14 -37 21 -25 36 -80 36 -132 0 -65 7 -77 49 -89 49
-13 112 -68 147 -127 15 -27 33 -52 41 -56 7 -4 24 -20 37 -34 17 -18 40 -28
77 -34 41 -7 61 -17 91 -46 34 -33 39 -43 36 -78 -2 -33 -7 -41 -25 -43 -13
-2 -23 -9 -23 -16 0 -8 -7 -19 -15 -26 -12 -10 -22 -6 -56 24 -29 25 -58 38
-98 46 -31 7 -66 14 -78 17 -19 4 -22 0 -29 -43 -8 -57 0 -191 23 -374 14
-118 15 -147 3 -245 -17 -140 -23 -310 -15 -402 l7 -73 864 0 864 0 0 895 0
895 -975 0 -975 0 0 -22z"/>
<path d="M1262 568 c-22 -116 -41 -300 -45 -426 l-5 -132 48 0 47 0 5 92 c3 50 2 121
-3 157 -4 36 -5 96 -2 133 6 67 -12 214 -28 223 -4 3 -12 -18 -17 -47z"/>
</g>
</svg>
