<svg version="1.0" xmlns="http://www.w3.org/2000/svg"
 width="668px" style="transform:scale(1,1.001);" height="375.75px" viewBox="0 0 320.000000 180.000000"
 preserveAspectRatio="xMidYMid meet">
<g transform="translate(0.000000,180.000000) scale(0.100000,-0.100000)"
fill="#000000" stroke="none">
<path d="M0 905 l0 -895 1600 0 1600 0 0 895 0 895 -1600 0 -1600 0 0 -895z m1873 773
c43 -42 47 -50 47 -92 0 -30 -9 -65 -25 -96 -14 -27 -25 -60 -25 -74 0 -27 70
-96 98 -96 29 0 107 -85 139 -152 33 -68 53 -146 53 -207 0 -54 -39 -121 -113
-193 -90 -88 -97 -104 -97 -240 -1 -128 -11 -187 -36 -205 -25 -18 -383 -18
-407 -1 -17 13 -37 95 -37 155 0 19 -13 67 -29 106 -67 164 -68 258 -8 559 18
87 39 116 155 214 47 41 53 68 27 131 -8 19 -15 61 -15 93 0 52 3 60 38 97 46
50 53 53 127 50 56 -3 63 -5 108 -49z"/>
</g>
</svg>
