<svg version="1.0" xmlns="http://www.w3.org/2000/svg"
 width="668px" style="transform:scale(1,1.001);" height="375.75px" viewBox="0 0 320.000000 180.000000"
 preserveAspectRatio="xMidYMid meet">
<g transform="translate(0.000000,180.000000) scale(0.100000,-0.100000)"
fill="#000000" stroke="none">
<path d="M0 905 l0 -895 1600 0 1600 0 0 895 0 895 -1600 0 -1600 0 0 -895z m1374 725
c35 -6 71 -19 91 -35 19 -14 38 -25 44 -25 5 0 23 -17 38 -37 15 -21 34 -44
41 -51 8 -9 12 -45 12 -104 0 -72 -4 -97 -19 -122 -20 -32 -41 -126 -41 -183
0 -22 7 -39 21 -51 12 -9 31 -27 43 -38 11 -12 37 -27 57 -33 20 -6 53 -20 74
-31 22 -11 58 -20 81 -20 26 0 51 -7 67 -20 14 -12 41 -26 59 -32 36 -13 92
-67 115 -113 9 -16 24 -41 34 -54 11 -13 19 -38 19 -56 0 -18 11 -52 24 -77
23 -44 42 -145 37 -203 -5 -57 -10 -58 -186 -51 -593 24 -647 25 -850 14 -116
-6 -254 -11 -307 -12 -89 -1 -100 1 -120 22 -20 19 -23 33 -22 90 1 97 49 195
139 282 100 98 135 125 211 163 47 24 84 62 84 86 0 11 -39 72 -71 111 -66 82
-89 113 -89 124 0 6 -12 23 -27 38 -64 61 -75 77 -80 115 -6 48 13 87 85 170
102 117 253 163 436 133z"/>
</g>
</svg>
