<svg version="1.0" xmlns="http://www.w3.org/2000/svg"
 width="668px" style="transform:scale(1,1.001);" height="375.75px" viewBox="0 0 320.000000 180.000000"
 preserveAspectRatio="xMidYMid meet">
<g transform="translate(0.000000,180.000000) scale(0.100000,-0.100000)"
fill="#000000" stroke="none">
<path d="M0 905 l0 -895 559 0 559 0 6 68 c19 210 20 196 -13 284 -30 78 -32 92 -34
238 -2 129 1 160 15 185 9 17 21 46 27 64 11 34 10 37 -33 80 -54 57 -66 80
-66 128 0 55 26 192 45 238 27 65 153 316 186 369 16 26 32 68 36 92 l6 44
-647 0 -646 0 0 -895z"/>
<path d="M1590 1777 c0 -28 63 -73 119 -86 48 -11 103 -64 136 -131 15 -30 30 -62 35
-71 18 -35 72 -239 81 -312 6 -43 9 -130 7 -193 -3 -100 -6 -118 -23 -130 -26
-19 -68 -18 -95 4 -22 18 -22 20 -11 105 13 95 9 162 -16 250 -13 46 -20 57
-37 57 -18 0 -24 -11 -40 -79 -16 -67 -18 -100 -12 -203 3 -68 11 -143 16
-168 11 -56 12 -255 0 -380 -8 -96 -28 -207 -55 -311 -8 -30 -15 -70 -15 -87
l0 -32 760 0 760 0 0 895 0 895 -805 0 -805 0 0 -23z"/>
<path d="M1239 1242 c-64 -65 -79 -95 -79 -155 0 -31 4 -58 9 -61 15 -9 58 31 80 76 18
36 43 180 30 177 -2 -1 -20 -17 -40 -37z"/>
<path d="M1419 847 c-45 -39 -136 -150 -158 -194 -11 -23 -21 -60 -21 -82 0 -43 31
-198 55 -275 8 -27 15 -61 15 -75 0 -26 -40 -112 -66 -142 -8 -8 -14 -28 -14
-42 l0 -27 184 0 185 0 -7 153 c-6 158 -6 183 -3 332 3 169 -45 336 -104 363
-34 16 -36 16 -66 -11z"/>
</g>
</svg>
