<svg version="1.0" xmlns="http://www.w3.org/2000/svg"
 width="668px" style="transform:scale(1,1.001);" height="375.75px" viewBox="0 0 320.000000 180.000000"
 preserveAspectRatio="xMidYMid meet">
<g transform="translate(0.000000,180.000000) scale(0.100000,-0.100000)"
fill="#000000" stroke="none">
<path d="M0 905 l0 -895 550 0 550 0 0 78 c0 127 20 392 36 475 15 76 80 270 109 327
19 37 19 83 -1 121 -35 69 -28 166 21 288 18 43 29 58 52 66 16 6 48 25 72 44
37 29 41 37 35 60 -23 82 -19 154 10 173 6 4 46 8 88 8 71 0 78 -2 97 -26 29
-37 35 -82 17 -134 -23 -65 -21 -105 7 -123 45 -29 76 -89 83 -157 4 -36 15
-81 26 -100 22 -43 24 -125 2 -179 -11 -29 -27 -45 -63 -65 -27 -14 -54 -32
-60 -40 -19 -23 12 -246 58 -414 24 -87 51 -271 51 -347 l0 -55 730 0 730 0 0
895 0 895 -1600 0 -1600 0 0 -895z"/>
<path d="M1382 662 c-26 -18 -118 -203 -127 -258 -6 -40 -13 -72 -40 -185 -8 -36 -15
-98 -15 -137 l0 -72 221 0 221 0 -6 73 c-13 143 -62 279 -199 557 -14 27 -34
35 -55 22z"/>
</g>
</svg>
