<svg version="1.0" xmlns="http://www.w3.org/2000/svg"
 width="668px" style="transform:scale(1,1.001);" height="375.75px" viewBox="0 0 320.000000 180.000000"
 preserveAspectRatio="xMidYMid meet">
<g transform="translate(0.000000,180.000000) scale(0.100000,-0.100000)"
fill="#000000" stroke="none">
<path d="M0 905 l0 -895 1600 0 1600 0 0 895 0 895 -1600 0 -1600 0 0 -895z m1826 783
c34 -16 79 -48 100 -69 39 -40 39 -40 39 -122 0 -74 -3 -89 -32 -144 -18 -33
-33 -72 -33 -86 0 -53 41 -112 109 -155 44 -28 171 -133 171 -141 0 -4 9 -18
20 -30 33 -39 59 -139 69 -271 6 -69 15 -141 21 -160 11 -38 14 -149 4 -175
-13 -33 -54 -41 -199 -38 -77 1 -315 5 -529 7 -462 5 -442 0 -440 107 3 94 29
260 48 294 9 17 16 38 16 48 0 39 101 219 134 239 6 3 26 20 44 37 17 17 38
31 47 31 8 0 19 8 24 19 6 10 25 24 43 32 39 16 90 72 100 109 9 31 -11 88
-36 110 -9 7 -16 18 -16 24 0 6 -10 29 -21 51 -16 29 -22 59 -23 110 -1 65 1
73 33 113 19 23 42 42 51 42 10 0 30 10 45 22 31 24 86 38 125 31 14 -3 53
-18 86 -35z"/>
</g>
</svg>
