<svg version="1.0" xmlns="http://www.w3.org/2000/svg"
 width="668px" style="transform:scale(1,1.001);" height="375.75px" viewBox="0 0 320.000000 180.000000"
 preserveAspectRatio="xMidYMid meet">
<g transform="translate(0.000000,180.000000) scale(0.100000,-0.100000)"
fill="#000000" stroke="none">
<path d="M0 905 l0 -895 730 0 730 0 0 23 c0 13 -5 28 -11 34 -7 7 -12 94 -13 243 -3
199 -5 234 -19 241 -11 7 -21 2 -36 -20 -12 -16 -21 -33 -21 -39 0 -5 -12 -31
-26 -58 -71 -133 -134 -262 -134 -276 0 -19 -35 -65 -61 -78 -28 -15 -57 4
-64 43 -7 35 29 161 90 322 19 50 41 113 49 140 8 28 26 82 40 120 14 39 26
82 26 97 0 36 40 139 57 145 8 3 20 18 29 34 8 16 21 29 29 29 8 0 17 14 20
34 5 25 0 47 -23 92 -63 125 -62 160 11 224 51 44 119 53 160 20 41 -33 60
-77 68 -159 7 -80 23 -103 83 -117 33 -7 92 -39 122 -66 42 -38 73 -157 81
-316 4 -66 0 -95 -17 -148 -17 -50 -22 -88 -21 -157 0 -81 -16 -256 -35 -369
l-6 -38 681 0 681 0 0 895 0 895 -1600 0 -1600 0 0 -895z"/>
</g>
</svg>
