<svg version="1.0" xmlns="http://www.w3.org/2000/svg"
 width="668px" style="transform:scale(1,1.001);" height="375.75px" viewBox="0 0 320.000000 180.000000"
 preserveAspectRatio="xMidYMid meet">
<g transform="translate(0.000000,180.000000) scale(0.100000,-0.100000)"
fill="#000000" stroke="none">
<path d="M0 905 l0 -895 1600 0 1600 0 0 895 0 895 -1600 0 -1600 0 0 -895z m1491 765
c25 -7 44 -22 63 -50 29 -44 33 -82 11 -120 -8 -14 -14 -42 -15 -62 0 -32 4
-38 25 -43 14 -3 37 -8 52 -11 44 -9 121 -64 134 -95 6 -16 15 -29 19 -29 16
0 49 -127 56 -211 7 -97 -3 -142 -41 -183 -30 -32 -47 -93 -39 -134 7 -35 -11
-231 -31 -336 -19 -101 -27 -105 -170 -96 -16 1 -68 1 -115 1 -141 0 -146 10
-137 258 6 166 7 159 -53 397 -47 188 -40 242 42 343 41 51 47 65 42 88 -4 16
-12 35 -19 43 -20 25 -55 105 -55 127 0 40 43 87 95 105 58 20 87 22 136 8z
m30 -1567 c19 -22 -5 -33 -78 -33 -66 0 -80 8 -63 39 18 34 111 30 141 -6z
m154 -13 c4 -6 -7 -10 -24 -10 -17 0 -31 5 -31 10 0 6 11 10 24 10 14 0 28 -4
31 -10z"/>
</g>
</svg>
