<svg version="1.0" xmlns="http://www.w3.org/2000/svg"
 width="668px" style="transform:scale(1,1.001);" height="375.75px" viewBox="0 0 320.000000 180.000000"
 preserveAspectRatio="xMidYMid meet">
<g transform="translate(0.000000,180.000000) scale(0.100000,-0.100000)"
fill="#000000" stroke="none">
<path d="M0 905 l0 -895 785 0 c783 0 785 0 785 20 0 12 -10 40 -22 63 -21 39 -23 57
-26 252 -3 201 -4 211 -26 235 -36 40 -52 72 -59 117 -4 24 -24 66 -47 100
-55 79 -69 148 -46 226 10 31 28 70 40 85 13 15 38 52 57 82 18 30 38 61 44
68 32 40 83 90 103 101 30 16 29 64 -4 166 -30 94 -29 158 4 200 12 15 22 38
22 51 l0 24 -805 0 -805 0 0 -895z"/>
<path d="M1850 1777 c0 -14 12 -32 29 -45 39 -29 48 -86 27 -169 -16 -60 -15 -63 5 -97
15 -26 32 -39 62 -48 25 -7 59 -30 84 -55 75 -75 81 -173 17 -290 -46 -85 -50
-128 -25 -239 17 -74 19 -100 10 -145 -5 -30 -14 -121 -19 -204 -9 -157 -31
-299 -57 -375 -8 -25 -17 -57 -20 -72 l-5 -28 621 0 621 0 0 895 0 895 -675 0
-675 0 0 -23z"/>
</g>
</svg>
