<svg version="1.0" xmlns="http://www.w3.org/2000/svg"
 width="668px" style="transform:scale(1,1.001);" height="375.75px" viewBox="0 0 320.000000 180.000000"
 preserveAspectRatio="xMidYMid meet">
<g transform="translate(0.000000,180.000000) scale(0.100000,-0.100000)"
fill="#000000" stroke="none">
<path d="M0 905 l0 -895 1600 0 1600 0 0 895 0 895 -1600 0 -1600 0 0 -895z m1658 695
c54 -21 92 -44 111 -65 16 -18 39 -38 51 -45 66 -35 66 -238 0 -300 -34 -32
-50 -79 -50 -146 0 -84 12 -99 89 -119 36 -9 80 -25 97 -36 17 -10 40 -19 52
-19 35 0 176 -78 236 -130 31 -27 61 -50 66 -50 5 0 19 -19 31 -42 12 -24 28
-47 37 -52 29 -17 162 -150 162 -162 0 -19 204 -205 258 -236 67 -39 110 -84
93 -101 -25 -25 -1441 -14 -1491 13 -22 12 -34 40 -21 53 13 13 183 28 346 31
180 3 245 18 245 56 0 14 -10 21 -37 26 -21 4 -283 8 -583 8 l-545 1 -100 -29
c-113 -32 -130 -41 -200 -107 -57 -53 -100 -69 -192 -69 -94 0 -110 11 -117
79 -10 91 2 122 57 152 26 14 67 44 90 66 49 47 91 70 202 108 76 27 111 48
201 125 117 99 221 166 308 196 22 8 63 26 90 39 28 14 56 25 64 25 15 0 133
69 144 85 4 5 8 31 8 57 0 42 -4 52 -39 85 -24 23 -45 56 -53 82 -8 28 -26 53
-50 72 -29 24 -38 39 -44 75 -10 66 9 118 51 144 20 12 40 30 45 41 6 10 25
26 43 35 18 9 44 27 58 41 66 61 157 65 287 13z"/>
</g>
</svg>
