<svg version="1.0" xmlns="http://www.w3.org/2000/svg"
 width="668px" style="transform:scale(1,1.001);" height="375.75px" viewBox="0 0 320.000000 180.000000"
 preserveAspectRatio="xMidYMid meet">
<g transform="translate(0.000000,180.000000) scale(0.100000,-0.100000)"
fill="#000000" stroke="none">
<path d="M0 905 l0 -895 1600 0 1600 0 0 895 0 895 -1600 0 -1600 0 0 -895z m1443 704
l49 -51 -6 -67 c-3 -36 -8 -82 -12 -102 -6 -35 -3 -39 41 -73 27 -20 54 -36
61 -36 8 0 33 -26 57 -58 45 -61 56 -96 93 -300 14 -75 16 -120 10 -230 -17
-311 -21 -351 -34 -364 -10 -10 -73 -13 -270 -13 -141 -1 -283 -5 -315 -9 -49
-7 -61 -6 -78 10 -16 15 -19 26 -15 54 19 118 20 116 -13 185 -48 101 -65 185
-50 254 6 31 23 79 36 106 14 28 33 77 43 110 18 61 60 132 102 172 115 110
117 120 63 218 -54 96 -47 146 30 217 26 24 38 27 94 28 l65 0 49 -51z"/>
</g>
</svg>
