<svg version="1.0" xmlns="http://www.w3.org/2000/svg"
 width="668px" style="transform:scale(1,1.001);" height="375.75px" viewBox="0 0 320.000000 180.000000"
 preserveAspectRatio="xMidYMid meet">
<g transform="translate(0.000000,180.000000) scale(0.100000,-0.100000)"
fill="#000000" stroke="none">
<path d="M0 905 l0 -895 540 0 540 0 0 120 c0 94 5 143 24 218 29 116 86 261 120 306
55 72 72 162 38 201 -9 12 -35 27 -57 34 -48 17 -121 83 -141 130 -13 31 -12
37 4 65 11 17 23 30 28 29 5 -1 30 -10 57 -20 43 -16 50 -17 75 -3 23 13 28
24 33 73 9 79 45 146 93 172 21 11 45 32 54 46 14 25 14 30 -11 81 -36 74 -36
129 1 167 36 37 64 51 104 51 38 0 156 -57 169 -81 16 -31 13 -75 -10 -132
l-23 -57 25 -38 c18 -27 35 -41 63 -47 46 -12 76 -58 93 -144 6 -32 20 -75 31
-96 25 -48 26 -97 2 -117 -9 -9 -36 -18 -60 -21 -24 -3 -46 -7 -48 -10 -3 -3
-12 -33 -20 -67 -16 -68 -8 -147 21 -223 8 -20 15 -49 15 -62 0 -14 4 -33 9
-43 16 -30 70 -203 91 -292 11 -47 20 -120 20 -162 l0 -78 660 0 660 0 0 895
0 895 -1600 0 -1600 0 0 -895z"/>
<path d="M1444 480 c-51 -20 -244 -373 -244 -445 l0 -25 275 0 c270 0 275 0 275 20 0
32 -38 138 -77 215 -83 163 -122 219 -165 234 -36 13 -36 13 -64 1z"/>
</g>
</svg>
