<svg version="1.0" xmlns="http://www.w3.org/2000/svg"
 width="668px" style="transform:scale(1,1.001);" height="375.75px" viewBox="0 0 320.000000 180.000000"
 preserveAspectRatio="xMidYMid meet">
<g transform="translate(0.000000,180.000000) scale(0.100000,-0.100000)"
fill="#000000" stroke="none">
<path d="M0 905 l0 -895 415 0 415 0 0 28 c0 36 48 101 102 138 61 42 86 64 141 126 41
46 87 114 87 127 0 5 19 26 42 47 42 38 68 87 68 131 0 26 39 135 51 143 4 3
12 24 17 47 5 23 17 49 26 58 9 9 16 20 16 25 0 4 24 34 54 66 30 32 54 60 53
64 -2 7 34 90 48 108 15 20 49 54 80 80 35 29 103 31 127 3 9 -10 23 -23 30
-27 8 -5 32 -34 53 -64 20 -30 51 -69 67 -87 25 -26 30 -40 31 -81 1 -44 -4
-55 -42 -101 -24 -28 -48 -51 -55 -51 -16 0 -49 -37 -69 -76 -20 -38 -24 -158
-8 -198 6 -16 25 -43 42 -60 47 -48 104 -126 133 -180 34 -64 37 -160 6 -199
-11 -14 -20 -35 -20 -46 l0 -21 645 0 645 0 0 895 0 895 -1600 0 -1600 0 0
-895z"/>
<path d="M1383 310 c-13 -5 -23 -13 -23 -19 0 -17 -234 -185 -302 -217 -28 -13 -38 -24
-38 -41 l0 -23 376 0 375 0 -7 73 c-8 89 -23 120 -76 154 -35 24 -51 28 -117
28 -75 0 -106 10 -131 39 -14 18 -25 19 -57 6z"/>
</g>
</svg>
