<svg version="1.0" xmlns="http://www.w3.org/2000/svg"
 width="668px" style="transform:scale(1,1.001);" height="375.75px" viewBox="0 0 320.000000 180.000000"
 preserveAspectRatio="xMidYMid meet">
<g transform="translate(0.000000,180.000000) scale(0.100000,-0.100000)"
fill="#000000" stroke="none">
<path d="M0 905 l0 -895 665 0 665 0 0 24 c0 14 -4 27 -9 31 -6 3 -1 32 11 67 19 55 20
67 8 122 -6 34 -16 88 -21 121 -10 77 -3 400 11 425 24 46 -2 132 -58 193 -28
29 -76 36 -114 16 -11 -6 -47 -15 -80 -19 -70 -10 -80 -17 -109 -78 -31 -65
-47 -82 -82 -82 -20 0 -38 10 -58 31 -26 28 -29 38 -29 94 0 55 3 66 22 79 12
9 37 16 54 16 17 0 43 9 58 21 15 12 50 24 81 28 30 4 63 15 72 23 10 9 29 19
42 23 13 4 41 19 62 34 30 20 38 33 38 56 0 17 -6 39 -14 49 -27 36 -16 85 28
134 16 17 31 22 73 22 48 0 55 -3 79 -33 14 -19 30 -59 36 -90 11 -52 14 -57
48 -68 20 -6 41 -17 46 -23 6 -7 21 -18 34 -25 22 -12 67 -52 147 -129 28 -28
34 -41 34 -77 0 -34 -7 -51 -34 -83 -33 -40 -33 -42 -28 -114 2 -40 9 -81 13
-90 12 -23 31 -266 24 -304 -3 -18 -14 -43 -24 -55 -31 -40 -34 -80 -11 -140
27 -72 26 -97 -5 -111 -51 -23 -111 36 -137 135 -10 40 -10 56 5 111 21 78 22
153 3 203 -8 21 -17 51 -21 66 -4 22 -11 28 -28 25 -20 -3 -23 -12 -35 -103
-9 -66 -11 -154 -8 -258 4 -127 3 -166 -9 -194 -8 -20 -15 -44 -15 -54 0 -18
26 -19 885 -19 l885 0 0 895 0 895 -1600 0 -1600 0 0 -895z"/>
</g>
</svg>
