<svg version="1.0" xmlns="http://www.w3.org/2000/svg"
 width="668px" style="transform:scale(1,1.001);" height="375.75px" viewBox="0 0 320.000000 180.000000"
 preserveAspectRatio="xMidYMid meet">
<g transform="translate(0.000000,180.000000) scale(0.100000,-0.100000)"
fill="#000000" stroke="none">
<path d="M0 905 l0 -895 676 0 677 0 -6 35 c-7 41 0 60 90 240 64 128 65 131 60 195
-15 187 -41 274 -81 268 -17 -2 -21 -11 -24 -43 -4 -67 -33 -216 -45 -236 -16
-26 -22 -24 -47 16 -20 32 -21 43 -14 103 11 94 5 569 -9 615 -7 25 -20 43
-38 53 -16 8 -33 23 -39 34 -6 11 -19 20 -29 20 -43 0 -68 73 -41 118 16 27
25 31 77 35 32 3 89 10 127 17 47 8 83 8 114 1 54 -11 67 -4 76 41 11 57 30
68 117 68 69 0 80 -2 93 -22 25 -35 20 -108 -10 -167 l-27 -50 24 -58 c26 -63
30 -154 10 -206 -12 -32 -14 -224 -2 -305 7 -49 5 -57 -26 -105 -21 -33 -33
-64 -33 -87 0 -41 -24 -182 -38 -225 -5 -16 -20 -48 -32 -70 -13 -22 -36 -63
-52 -91 -16 -29 -35 -57 -43 -64 -8 -7 -15 -17 -15 -22 0 -5 -9 -21 -20 -35
-11 -14 -20 -36 -20 -49 l0 -24 875 0 875 0 0 895 0 895 -1600 0 -1600 0 0
-895z"/>
</g>
</svg>
