<svg version="1.0" xmlns="http://www.w3.org/2000/svg"
 width="668px" style="transform:scale(1,1.001);" height="375.75px" viewBox="0 0 320.000000 180.000000"
 preserveAspectRatio="xMidYMid meet">
<g transform="translate(0.000000,180.000000) scale(0.100000,-0.100000)"
fill="#000000" stroke="none">
<path d="M0 905 l0 -895 1600 0 1600 0 0 895 0 895 -1600 0 -1600 0 0 -895z m1770 772
c36 -18 67 -35 68 -40 2 -4 16 -22 30 -39 25 -29 27 -39 26 -112 -2 -64 -7
-92 -28 -136 -14 -30 -26 -70 -26 -88 0 -34 24 -92 38 -92 4 0 25 -16 45 -35
20 -19 44 -35 53 -35 9 0 25 -11 36 -25 11 -14 26 -25 34 -25 8 0 32 -16 54
-36 37 -34 53 -56 79 -109 19 -40 51 -202 57 -290 3 -49 10 -108 16 -129 5
-22 10 -64 10 -95 1 -46 -3 -58 -24 -76 -23 -19 -34 -21 -164 -18 -76 2 -312
6 -524 8 -212 2 -395 4 -408 4 -12 1 -31 10 -42 21 -25 25 -27 104 -5 176 8
27 18 81 21 119 5 67 21 113 81 245 34 73 49 91 124 147 35 26 73 56 83 65 11
10 26 18 34 18 8 0 30 17 48 37 53 58 46 104 -34 218 -38 55 -58 127 -48 178
8 41 56 106 94 126 15 7 36 22 47 31 42 38 131 33 225 -13z"/>
</g>
</svg>
