<svg version="1.0" xmlns="http://www.w3.org/2000/svg"
 width="668px" style="transform:scale(1,1.001);" height="375.75px" viewBox="0 0 320.000000 180.000000"
 preserveAspectRatio="xMidYMid meet">
<g transform="translate(0.000000,180.000000) scale(0.100000,-0.100000)"
fill="#000000" stroke="none">
<path d="M0 905 l0 -895 1600 0 1600 0 0 895 0 895 -1600 0 -1600 0 0 -895z m1517 763
c10 -9 32 -19 49 -22 17 -4 48 -25 69 -46 35 -36 39 -46 43 -102 3 -47 -1 -76
-17 -116 -38 -96 -42 -132 -20 -169 12 -19 31 -34 48 -38 16 -3 37 -15 46 -25
10 -11 34 -25 54 -31 20 -6 44 -20 54 -30 10 -11 26 -19 37 -19 11 0 44 -25
74 -55 46 -46 58 -67 80 -135 14 -45 26 -94 26 -110 0 -15 9 -57 20 -92 11
-34 20 -73 20 -86 0 -12 9 -48 20 -79 26 -73 27 -163 2 -193 -18 -22 -21 -22
-277 -21 -143 1 -269 2 -280 3 -11 0 -72 -3 -135 -7 -74 -4 -146 -3 -200 5
-47 6 -114 14 -150 17 -75 6 -92 18 -110 74 -12 35 -11 55 3 142 10 56 17 111
17 122 0 11 9 37 20 58 11 20 20 45 20 54 0 29 49 117 89 159 20 21 64 64 96
94 84 77 115 117 115 147 0 14 -17 49 -37 77 -51 71 -113 195 -113 227 0 68
58 140 152 190 43 23 63 28 110 26 35 -2 64 -9 75 -19z"/>
</g>
</svg>
