<svg version="1.0" xmlns="http://www.w3.org/2000/svg"
 width="668px" style="transform:scale(1,1.001);" height="375.75px" viewBox="0 0 320.000000 180.000000"
 preserveAspectRatio="xMidYMid meet">
<g transform="translate(0.000000,180.000000) scale(0.100000,-0.100000)"
fill="#000000" stroke="none">
<path d="M0 905 l0 -895 1600 0 1600 0 0 895 0 895 -1600 0 -1600 0 0 -895z m1555 770
c28 -13 55 -25 61 -25 13 0 73 -70 95 -110 12 -22 14 -40 8 -67 -10 -49 -35
-121 -54 -155 -8 -14 -15 -39 -15 -56 0 -32 33 -82 54 -82 7 0 30 -13 51 -30
21 -16 45 -30 55 -30 9 0 27 -11 40 -25 13 -14 32 -25 43 -25 10 0 43 -25 72
-55 57 -60 90 -134 101 -221 3 -27 14 -80 24 -119 10 -38 26 -101 36 -140 9
-38 19 -95 22 -127 6 -94 6 -94 -260 -103 -124 -4 -245 -5 -269 -2 -24 2 -91
0 -149 -6 -85 -8 -129 -6 -224 7 -65 9 -144 16 -177 16 l-59 0 -21 42 c-17 34
-20 52 -15 97 13 125 34 238 50 266 9 17 16 39 16 50 0 45 57 123 176 242 145
144 145 144 85 268 -21 44 -42 91 -46 105 -4 14 -14 34 -21 45 -8 11 -14 38
-14 60 0 84 140 203 240 204 28 1 64 -8 95 -24z"/>
</g>
</svg>
