<svg version="1.0" xmlns="http://www.w3.org/2000/svg"
 width="668px" style="transform:scale(1,1.001);" height="375.75px" viewBox="0 0 320.000000 180.000000"
 preserveAspectRatio="xMidYMid meet">
<g transform="translate(0.000000,180.000000) scale(0.100000,-0.100000)"
fill="#000000" stroke="none">
<path d="M0 905 l0 -895 1600 0 1600 0 0 895 0 895 -1600 0 -1600 0 0 -895z m1972 697
c86 -33 119 -55 165 -114 76 -95 70 -166 -27 -345 -75 -139 -76 -143 -43 -208
15 -31 41 -46 214 -129 90 -43 160 -109 185 -175 9 -25 23 -55 31 -66 7 -11
13 -27 13 -36 0 -9 11 -37 25 -63 24 -46 33 -114 19 -150 -8 -21 -63 -30 -99
-16 -21 8 -225 13 -684 15 -498 3 -657 7 -668 17 -17 14 -13 63 10 123 12 29
16 77 17 170 0 145 7 169 58 198 l33 19 39 -26 c50 -33 96 -34 140 -1 19 14
40 25 48 25 26 0 143 63 162 87 32 41 27 142 -10 218 -17 33 -30 69 -30 80 0
12 -11 36 -25 55 -21 29 -25 45 -25 104 0 39 4 76 8 81 18 26 134 118 183 145
49 28 60 31 119 26 36 -3 100 -18 142 -34z"/>
</g>
</svg>
