<svg version="1.0" xmlns="http://www.w3.org/2000/svg"
 width="668px" style="transform:scale(1,1.001);" height="375.75px" viewBox="0 0 320.000000 180.000000"
 preserveAspectRatio="xMidYMid meet">
<g transform="translate(0.000000,180.000000) scale(0.100000,-0.100000)"
fill="#000000" stroke="none">
<path d="M0 905 l0 -895 615 0 615 0 0 21 c0 11 -9 32 -19 45 -11 14 -27 57 -36 97 -36
164 -38 166 -190 306 -20 18 -42 46 -49 62 -12 28 -60 72 -128 115 -46 29 -68
70 -68 126 -1 61 -17 129 -40 160 -17 23 -20 44 -20 146 0 106 2 121 20 137
11 10 20 24 20 31 0 7 16 18 35 24 19 6 40 20 45 31 15 28 107 27 143 -1 14
-12 40 -26 57 -31 17 -6 65 -47 107 -90 42 -44 83 -79 90 -79 49 0 90 110 97
260 5 93 10 120 26 142 11 15 20 31 20 36 0 4 18 25 39 46 46 45 99 56 183 36
45 -11 63 -23 118 -80 55 -55 70 -78 88 -133 12 -37 22 -74 22 -81 0 -26 -41
-106 -60 -116 -11 -6 -23 -25 -28 -43 -7 -27 -4 -38 25 -75 75 -98 91 -205 58
-379 -27 -139 -12 -260 41 -341 23 -36 28 -118 11 -192 -8 -36 -18 -91 -22
-122 l-7 -58 696 0 696 0 0 895 0 895 -1600 0 -1600 0 0 -895z"/>
</g>
</svg>
