<svg version="1.0" xmlns="http://www.w3.org/2000/svg"
 width="668px" style="transform:scale(1,1.001);" height="375.75px" viewBox="0 0 320.000000 180.000000"
 preserveAspectRatio="xMidYMid meet">
<g transform="translate(0.000000,180.000000) scale(0.100000,-0.100000)"
fill="#000000" stroke="none">
<path d="M0 905 l0 -895 1600 0 1600 0 0 895 0 895 -1600 0 -1600 0 0 -895z m1729 746
c56 -21 106 -68 117 -109 11 -40 -2 -185 -20 -217 -27 -50 -21 -95 20 -137 19
-21 40 -38 46 -38 6 0 26 -13 45 -30 18 -16 39 -30 47 -30 7 0 22 -11 34 -25
12 -14 29 -25 37 -25 19 0 76 -54 110 -104 18 -26 30 -63 36 -105 5 -37 16
-100 24 -141 7 -41 16 -137 20 -212 5 -135 5 -137 -17 -152 -13 -9 -64 -20
-113 -27 -50 -6 -107 -14 -127 -16 -21 -3 -68 0 -105 7 -44 8 -192 14 -410 15
-304 2 -346 5 -369 20 -22 14 -25 22 -20 53 3 21 10 80 16 132 12 100 39 201
69 260 10 19 21 48 25 64 4 15 12 34 19 42 7 7 26 29 42 49 17 21 35 41 40 46
96 81 153 126 168 132 38 14 46 106 11 145 -102 117 -130 177 -115 255 14 75
63 123 161 157 89 31 107 30 209 -9z"/>
</g>
</svg>
