<svg version="1.0" xmlns="http://www.w3.org/2000/svg"
 width="668px" style="transform:scale(1,1.001);" height="375.75px" viewBox="0 0 320.000000 180.000000"
 preserveAspectRatio="xMidYMid meet">
<g transform="translate(0.000000,180.000000) scale(0.100000,-0.100000)"
fill="#000000" stroke="none">
<path d="M0 905 l0 -895 515 0 515 0 -1 43 c-2 104 21 341 37 385 26 70 73 138 154 225
109 116 108 114 60 210 -22 44 -40 94 -40 111 0 31 30 97 54 121 7 7 24 27 38
44 32 38 117 71 182 71 47 0 116 30 116 50 0 15 76 33 112 26 65 -12 115 -93
97 -158 -4 -14 -22 -40 -40 -56 -32 -29 -34 -34 -30 -84 12 -146 6 -200 -28
-276 -29 -67 -31 -77 -20 -105 15 -39 46 -111 65 -154 8 -17 14 -39 14 -48 0
-9 5 -25 10 -35 6 -11 19 -71 30 -135 11 -64 27 -126 35 -138 8 -12 15 -38 15
-59 l0 -38 655 0 655 0 0 895 0 895 -1600 0 -1600 0 0 -895z"/>
<path d="M1370 515 c-14 -8 -43 -23 -65 -34 -49 -25 -78 -49 -95 -81 -21 -39 -53 -169
-61 -250 -4 -41 -11 -90 -14 -108 l-7 -32 327 0 327 0 -6 32 c-4 18 -11 57
-16 86 -4 29 -13 58 -18 65 -6 7 -13 29 -17 50 -4 20 -16 54 -26 74 -11 21
-19 42 -19 49 0 14 -133 146 -157 155 -32 13 -127 9 -153 -6z"/>
</g>
</svg>
