<svg version="1.0" xmlns="http://www.w3.org/2000/svg"
 width="668px" style="transform:scale(1,1.001);" height="375.75px" viewBox="0 0 320.000000 180.000000"
 preserveAspectRatio="xMidYMid meet">
<g transform="translate(0.000000,180.000000) scale(0.100000,-0.100000)"
fill="#000000" stroke="none">
<path d="M0 905 l0 -895 1600 0 1600 0 0 895 0 895 -1600 0 -1600 0 0 -895z m1587 775
c21 -11 43 -20 51 -20 23 0 112 -103 118 -138 11 -56 -3 -126 -35 -181 -46
-77 -48 -95 -17 -136 15 -19 33 -35 41 -35 7 0 26 -11 42 -24 15 -13 39 -27
53 -31 14 -4 38 -18 53 -31 16 -13 33 -24 38 -24 17 0 119 -110 123 -133 3
-12 14 -65 25 -117 11 -52 24 -117 30 -145 5 -27 16 -73 25 -102 8 -28 18 -87
21 -131 11 -118 10 -118 -196 -126 -284 -10 -669 -11 -794 -2 -112 9 -122 11
-147 37 -18 17 -28 38 -28 56 1 57 30 274 39 292 6 10 15 38 20 62 21 94 98
199 207 285 20 16 52 45 70 64 30 31 34 41 34 91 0 33 -6 63 -15 75 -29 38
-73 140 -84 196 -10 46 -9 62 2 91 18 43 82 107 106 107 10 0 29 8 42 19 13
10 31 21 39 24 25 11 97 -1 137 -23z"/>
</g>
</svg>
