<svg version="1.0" xmlns="http://www.w3.org/2000/svg"
 width="668px" style="transform:scale(1,1.001);" height="375.75px" viewBox="0 0 320.000000 180.000000"
 preserveAspectRatio="xMidYMid meet">
<g transform="translate(0.000000,180.000000) scale(0.100000,-0.100000)"
fill="#000000" stroke="none">
<path d="M0 905 l0 -895 506 0 505 0 -7 69 c-7 79 1 103 76 216 85 128 84 124 88 215 3
63 0 95 -12 124 -22 52 -20 74 9 141 18 40 47 77 92 121 37 35 73 64 80 64 7
0 17 9 23 19 5 11 18 22 28 25 12 4 22 23 29 59 19 89 28 104 79 126 55 25 75
26 129 6 22 -8 54 -14 71 -15 67 -1 94 -86 52 -167 -16 -31 -22 -55 -18 -68 4
-11 10 -30 15 -42 4 -13 11 -23 15 -23 14 0 38 -57 51 -118 11 -56 4 -157 -20
-265 -11 -51 5 -112 44 -163 65 -85 80 -130 78 -231 l-1 -93 644 0 644 0 0
895 0 895 -1600 0 -1600 0 0 -895z"/>
<path d="M1676 95 c-4 -15 -16 -27 -31 -31 -18 -4 -25 -13 -25 -30 0 -23 3 -24 65 -24
73 0 74 2 53 70 -15 48 -52 57 -62 15z"/>
<path d="M1178 72 c-17 -10 -28 -25 -28 -39 0 -22 3 -23 105 -23 l105 0 0 25 c0 22 -4
25 -39 25 -22 0 -44 6 -51 15 -16 20 -58 19 -92 -3z"/>
</g>
</svg>
