<svg version="1.0" xmlns="http://www.w3.org/2000/svg"
 width="668px" style="transform:scale(1,1.001);" height="375.75px" viewBox="0 0 320.000000 180.000000"
 preserveAspectRatio="xMidYMid meet">
<g transform="translate(0.000000,180.000000) scale(0.100000,-0.100000)"
fill="#000000" stroke="none">
<path d="M0 905 l0 -895 1600 0 1600 0 0 895 0 895 -1600 0 -1600 0 0 -895z m1539 792
c6 -8 29 -22 51 -32 45 -20 90 -86 90 -132 0 -17 -15 -48 -40 -81 -60 -79 -53
-111 32 -160 63 -35 114 -48 132 -33 7 6 31 17 54 25 41 15 42 15 59 -10 14
-22 15 -34 4 -92 -21 -116 -42 -161 -122 -262 -95 -121 -99 -155 -34 -371 50
-168 54 -200 26 -228 -18 -18 -33 -19 -303 -14 -155 3 -291 10 -300 15 -24 12
-22 38 8 133 29 92 31 146 10 268 -17 93 -25 116 -61 159 -13 15 -33 47 -45
73 -24 50 -80 306 -80 368 0 53 24 97 55 97 32 0 53 -33 61 -93 4 -29 13 -51
23 -56 20 -11 59 3 67 24 3 8 23 19 44 25 63 17 89 81 61 153 -16 40 -14 113
4 147 24 46 92 88 146 89 28 1 51 -4 58 -12z m-195 -1569 c20 -29 20 -54 0
-62 -9 -3 -44 -6 -79 -6 -83 0 -99 17 -57 60 25 24 39 30 76 30 35 0 48 -5 60
-22z m438 -47 c-12 -7 -62 -4 -62 5 0 2 17 4 38 4 23 0 32 -3 24 -9z"/>
</g>
</svg>
