<svg version="1.0" xmlns="http://www.w3.org/2000/svg"
 width="668px" style="transform:scale(1,1.001);" height="375.75px" viewBox="0 0 320.000000 180.000000"
 preserveAspectRatio="xMidYMid meet">
<g transform="translate(0.000000,180.000000) scale(0.100000,-0.100000)"
fill="#000000" stroke="none">
<path d="M0 905 l0 -895 755 0 755 0 0 23 c0 13 -8 34 -19 46 -60 69 -58 370 3 609 8
32 20 105 26 163 6 58 20 137 31 175 44 151 43 143 26 179 -9 19 -30 41 -47
50 -37 19 -80 100 -80 153 0 49 27 139 51 174 11 14 19 29 19 33 0 17 88 93
115 99 40 10 65 34 65 63 l0 23 -850 0 -850 0 0 -895z"/>
<path d="M1890 1779 c0 -11 11 -35 24 -52 35 -45 45 -100 33 -175 -11 -60 -10 -63 20
-104 18 -25 44 -47 63 -53 18 -6 37 -20 41 -32 4 -11 14 -23 22 -26 59 -23 64
-364 6 -479 -10 -20 -42 -56 -70 -80 -79 -68 -81 -72 -85 -307 -2 -113 -6
-263 -8 -334 l-4 -127 634 0 634 0 0 895 0 895 -655 0 -655 0 0 -21z"/>
</g>
</svg>
