<svg version="1.0" xmlns="http://www.w3.org/2000/svg"
 width="668px" style="transform:scale(1,1.001);" height="375.75px" viewBox="0 0 320.000000 180.000000"
 preserveAspectRatio="xMidYMid meet">
<g transform="translate(0.000000,180.000000) scale(0.100000,-0.100000)"
fill="#000000" stroke="none">
<path d="M0 905 l0 -895 1600 0 1600 0 0 895 0 895 -1600 0 -1600 0 0 -895z m1726 768
c79 -43 124 -103 124 -165 0 -44 -35 -177 -50 -192 -16 -16 -12 -74 8 -103 24
-39 80 -93 95 -93 7 0 25 -11 41 -25 16 -14 33 -25 38 -25 18 0 110 -85 140
-129 35 -50 62 -161 73 -296 4 -49 14 -123 22 -164 16 -82 12 -130 -15 -154
-20 -18 -236 -23 -765 -20 l-338 3 -24 25 c-22 22 -25 32 -25 104 0 44 5 92
11 108 6 15 17 62 24 103 18 99 54 195 99 264 38 56 147 156 171 156 7 0 20
11 29 24 8 14 24 27 34 30 24 8 52 58 52 93 -1 15 -16 53 -35 83 -88 142 -104
189 -82 243 16 37 83 117 99 117 5 0 26 11 46 25 29 20 49 25 99 25 53 0 72
-6 129 -37z"/>
</g>
</svg>
