<svg version="1.0" xmlns="http://www.w3.org/2000/svg"
 width="668px" style="transform:scale(1,1.001);" height="375.75px" viewBox="0 0 320.000000 180.000000"
 preserveAspectRatio="xMidYMid meet">
<g transform="translate(0.000000,180.000000) scale(0.100000,-0.100000)"
fill="#000000" stroke="none">
<path d="M0 905 l0 -895 940 0 940 0 0 23 c0 13 -9 32 -20 42 -18 16 -20 31 -20 121 0
92 4 115 35 206 20 56 58 155 86 219 68 158 89 241 96 380 6 116 5 117 -18
129 -44 23 -159 101 -159 109 0 4 -26 35 -59 69 -54 57 -62 62 -102 62 -51 0
-81 13 -54 24 9 3 38 6 65 6 68 0 80 7 80 45 0 18 6 37 13 43 15 12 57 -2 57
-21 0 -22 60 -97 91 -112 15 -8 48 -15 73 -15 59 0 76 25 50 73 -40 76 -54
107 -54 116 0 22 47 80 78 95 19 9 58 16 95 16 56 0 66 -3 89 -27 38 -40 48
-75 42 -141 -5 -53 -3 -60 24 -92 26 -31 36 -35 81 -36 118 -3 121 -4 143 -29
29 -34 70 -33 97 1 26 34 26 66 0 140 -25 71 -26 110 -3 135 17 19 18 19 41
-3 13 -12 28 -39 35 -59 6 -23 15 -36 23 -32 7 2 16 -1 20 -7 6 -9 9 -9 15 1
6 9 15 4 34 -17 29 -33 34 -79 10 -105 -9 -10 -18 -37 -21 -61 -3 -24 -11 -47
-17 -53 -7 -5 -17 -29 -24 -52 -9 -32 -21 -47 -45 -59 -18 -9 -43 -25 -56 -35
-13 -10 -45 -22 -72 -25 -27 -4 -55 -12 -63 -18 -8 -6 -30 -65 -50 -131 -20
-66 -45 -149 -56 -185 -12 -40 -21 -107 -24 -175 -3 -60 -12 -135 -20 -165 -9
-35 -16 -118 -18 -227 l-3 -173 402 0 403 0 0 895 0 895 -1600 0 -1600 0 0
-895z"/>
<path d="M2105 285 c-19 -41 -39 -103 -45 -137 -5 -34 -14 -66 -20 -72 -5 -5 -10 -23
-10 -38 l0 -28 100 0 c97 0 100 1 100 23 0 12 -6 31 -13 42 -14 21 -32 98 -42
180 -10 81 -16 105 -26 105 -6 0 -26 -34 -44 -75z"/>
</g>
</svg>
