<svg version="1.0" xmlns="http://www.w3.org/2000/svg"
 width="668px" style="transform:scale(1,1.001);" height="375.75px" viewBox="0 0 320.000000 180.000000"
 preserveAspectRatio="xMidYMid meet">
<g transform="translate(0.000000,180.000000) scale(0.100000,-0.100000)"
fill="#000000" stroke="none">
<path d="M0 905 l0 -895 605 0 605 0 0 25 c0 14 -8 29 -21 35 -11 6 -30 32 -41 58 -18
40 -21 64 -20 162 1 145 -13 302 -33 339 -17 34 -123 81 -183 81 -85 0 -107 9
-130 53 -26 49 -28 109 -8 176 8 25 19 64 24 86 42 176 154 339 277 402 51 26
67 42 98 91 50 81 113 122 189 122 40 0 62 -6 80 -19 13 -11 36 -23 50 -26 32
-8 79 -57 107 -110 32 -61 29 -148 -7 -206 -16 -24 -36 -50 -45 -57 -28 -23
13 -86 63 -97 54 -12 194 -194 225 -294 4 -13 23 -51 43 -85 32 -55 36 -68 34
-126 -1 -70 0 -68 -96 -145 l-25 -20 21 -60 c16 -50 19 -78 15 -172 -3 -81 -9
-119 -21 -137 -9 -14 -16 -37 -16 -51 l0 -25 705 0 705 0 0 895 0 895 -1600 0
-1600 0 0 -895z"/>
</g>
</svg>
