<svg version="1.0" xmlns="http://www.w3.org/2000/svg"
 width="668px" style="transform:scale(1,1.001);" height="375.75px" viewBox="0 0 320.000000 180.000000"
 preserveAspectRatio="xMidYMid meet">
<g transform="translate(0.000000,180.000000) scale(0.100000,-0.100000)"
fill="#000000" stroke="none">
<path d="M0 905 l0 -895 665 0 665 0 -5 78 c-12 176 -15 200 -35 277 -11 43 -32 113
-46 155 -22 63 -25 85 -20 137 4 35 1 101 -6 148 -11 77 -10 95 10 197 12 62
29 169 38 238 17 126 37 187 72 212 10 7 21 21 25 30 3 10 22 24 42 32 19 8
35 22 35 30 0 8 9 20 20 26 11 6 33 37 50 69 16 32 43 71 59 87 17 16 31 39
31 51 l0 23 -800 0 -800 0 0 -895z"/>
<path d="M1690 1778 c0 -15 12 -31 35 -45 18 -12 46 -43 61 -68 36 -62 30 -105 -29
-193 -55 -81 -60 -108 -27 -144 56 -60 71 -91 105 -216 36 -135 43 -208 22
-253 -17 -38 -70 -95 -105 -113 -16 -8 -42 -30 -57 -47 -32 -38 -31 -53 17
-249 42 -175 46 -242 18 -308 -12 -28 -28 -57 -36 -63 -8 -6 -14 -24 -14 -40
l0 -29 760 0 760 0 0 895 0 895 -755 0 -755 0 0 -22z"/>
</g>
</svg>
