<svg version="1.0" xmlns="http://www.w3.org/2000/svg"
 width="668px" style="transform:scale(1,1.001);" height="375.75px" viewBox="0 0 320.000000 180.000000"
 preserveAspectRatio="xMidYMid meet">
<g transform="translate(0.000000,180.000000) scale(0.100000,-0.100000)"
fill="#000000" stroke="none">
<path d="M0 905 l0 -895 1600 0 1600 0 0 895 0 895 -1600 0 -1600 0 0 -895z m1748 739
c96 -34 124 -108 78 -208 -14 -31 -26 -61 -26 -67 0 -26 52 -77 86 -84 81 -15
136 -111 156 -274 16 -137 9 -182 -40 -240 -84 -100 -87 -107 -87 -278 0 -207
17 -193 -241 -195 -226 -1 -228 -1 -306 78 -58 57 -62 78 -56 281 4 130 7 153
26 186 18 31 22 53 22 125 0 131 22 197 85 252 42 37 84 70 90 70 34 0 45 91
18 143 -50 97 -28 168 66 211 31 14 61 24 66 22 6 -1 34 -11 63 -22z m101
-1527 c6 -8 8 -17 4 -20 -8 -9 -80 -9 -112 0 l-23 6 23 13 c31 17 94 18 108 1z"/>
</g>
</svg>
