<svg version="1.0" xmlns="http://www.w3.org/2000/svg"
 width="668px" style="transform:scale(1,1.001);" height="375.75px" viewBox="0 0 320.000000 180.000000"
 preserveAspectRatio="xMidYMid meet">
<g transform="translate(0.000000,180.000000) scale(0.100000,-0.100000)"
fill="#000000" stroke="none">
<path d="M0 905 l0 -895 1600 0 1600 0 0 895 0 895 -1600 0 -1600 0 0 -895z m1672 696
c68 -35 154 -118 165 -159 9 -38 -5 -169 -23 -204 -17 -32 -51 -127 -61 -165
-3 -13 -2 -34 1 -48 8 -33 99 -125 123 -125 10 0 27 -6 38 -14 11 -7 47 -20
80 -27 115 -25 209 -129 227 -249 6 -36 16 -86 24 -112 21 -71 18 -154 -6
-178 -20 -20 -28 -20 -631 -15 -335 3 -620 10 -632 14 -46 18 -61 47 -59 120
0 37 8 85 16 107 8 21 20 58 26 80 12 51 75 119 145 159 28 15 66 38 85 51 19
12 46 26 60 29 14 3 40 20 58 36 29 27 32 36 32 87 0 47 -6 65 -30 102 -16 25
-30 48 -30 53 0 4 -16 30 -35 58 -20 27 -40 60 -45 72 -5 12 -18 36 -29 52
-12 17 -21 41 -21 54 0 33 42 92 113 160 93 89 127 101 259 97 75 -2 95 -6
150 -35z"/>
</g>
</svg>
