<svg version="1.0" xmlns="http://www.w3.org/2000/svg"
 width="668px" style="transform:scale(1,1.001);" height="375.75px" viewBox="0 0 320.000000 180.000000"
 preserveAspectRatio="xMidYMid meet">
<g transform="translate(0.000000,180.000000) scale(0.100000,-0.100000)"
fill="#000000" stroke="none">
<path d="M0 905 l0 -895 365 0 c411 0 384 -6 344 78 -19 38 -21 56 -16 131 6 96 17 129
62 183 78 97 91 113 117 154 15 24 31 44 36 44 8 0 79 103 102 150 7 14 25 39
40 56 17 20 31 53 39 91 17 86 77 174 151 222 33 21 93 69 135 106 72 65 76
67 94 51 13 -12 25 -48 37 -113 18 -101 33 -127 79 -139 21 -5 105 20 105 31
0 14 -33 75 -40 75 -9 0 -30 64 -33 102 -1 11 -14 26 -29 34 -28 15 -33 26
-42 105 -10 85 1 105 133 250 51 56 169 129 207 129 8 0 14 11 14 25 l0 25
-950 0 -950 0 0 -895z"/>
<path d="M2180 1776 c0 -25 23 -39 87 -51 18 -4 49 -20 69 -36 20 -16 41 -29 45 -29 5
0 31 -21 58 -47 34 -33 55 -64 66 -97 9 -27 27 -63 38 -78 32 -43 29 -134 -5
-185 -14 -21 -33 -61 -42 -89 -9 -28 -27 -61 -41 -74 -29 -27 -41 -88 -25
-135 13 -41 28 -50 90 -59 73 -11 75 -14 57 -88 -16 -62 -15 -67 4 -124 16
-44 35 -74 80 -119 63 -63 119 -139 143 -191 7 -17 27 -43 42 -58 29 -26 29
-28 28 -134 0 -59 -4 -122 -9 -140 l-7 -32 171 0 171 0 0 895 0 895 -510 0
-510 0 0 -24z"/>
<path d="M1128 63 c-33 -4 -38 -8 -38 -29 l0 -24 115 0 c114 0 115 0 115 24 0 16 -7 26
-22 30 -24 6 -106 5 -170 -1z"/>
</g>
</svg>
