<svg version="1.0" xmlns="http://www.w3.org/2000/svg"
 width="668px" style="transform:scale(1,1.001);" height="375.75px" viewBox="0 0 320.000000 180.000000"
 preserveAspectRatio="xMidYMid meet">
<g transform="translate(0.000000,180.000000) scale(0.100000,-0.100000)"
fill="#000000" stroke="none">
<path d="M0 905 l0 -895 581 0 580 0 -6 54 c-7 52 -5 57 21 81 25 24 29 33 28 83 -1 39
-10 74 -27 112 -41 86 -57 149 -57 231 0 87 4 99 93 289 59 126 59 126 41 163
-23 43 -30 47 -98 47 -55 0 -66 -4 -137 -51 -112 -73 -129 -63 -129 77 0 62 3
73 25 94 14 13 25 34 25 46 0 36 52 59 100 45 21 -6 48 -11 62 -11 30 0 71 42
93 93 15 35 14 41 -4 81 -10 24 -24 47 -30 50 -6 4 -11 29 -11 56 0 62 40 110
92 110 18 0 42 7 52 15 11 8 36 15 57 15 30 0 41 -6 63 -34 22 -30 26 -45 26
-103 0 -67 1 -69 45 -115 24 -27 48 -48 53 -48 5 0 24 -23 42 -51 33 -51 33
-54 34 -168 1 -99 -2 -125 -22 -176 -19 -48 -24 -87 -29 -200 -7 -165 5 -230
68 -363 21 -45 42 -95 45 -110 7 -30 38 -86 64 -117 24 -28 31 -97 14 -130 -8
-15 -14 -36 -14 -46 0 -18 21 -19 730 -19 l730 0 0 895 0 895 -1600 0 -1600 0
0 -895z"/>
<path d="M1305 612 c-44 -65 -31 -161 51 -358 32 -77 33 -84 20 -120 -14 -42 -23 -47
-111 -61 -45 -7 -50 -11 -53 -35 l-3 -28 225 0 c224 0 226 0 226 21 0 34 -41
140 -69 181 -91 130 -114 159 -131 168 -11 6 -20 17 -20 24 0 8 -7 19 -15 26
-22 18 -55 93 -55 123 0 44 -12 86 -26 91 -8 3 -24 -10 -39 -32z"/>
</g>
</svg>
