<svg version="1.0" xmlns="http://www.w3.org/2000/svg"
 width="668px" style="transform:scale(1,1.001);" height="375.75px" viewBox="0 0 320.000000 180.000000"
 preserveAspectRatio="xMidYMid meet">
<g transform="translate(0.000000,180.000000) scale(0.100000,-0.100000)"
fill="#000000" stroke="none">
<path d="M0 905 l0 -895 563 0 564 0 -5 151 c-4 118 -1 162 11 207 9 31 26 100 38 152
12 52 35 130 50 173 25 67 29 92 28 170 -1 63 3 106 15 136 9 24 16 69 16 101
0 62 -6 70 -60 70 -41 0 -52 19 -41 71 12 52 49 139 59 139 4 0 22 13 40 29
17 16 41 32 52 36 28 9 26 48 -5 109 -29 57 -31 95 -10 136 20 39 43 50 102
50 71 0 115 -16 152 -54 36 -37 36 -33 15 -143 -8 -41 21 -80 79 -108 51 -25
75 -66 76 -127 1 -43 -19 -96 -51 -135 -12 -15 0 -307 14 -348 28 -79 84 -203
184 -410 86 -180 133 -308 134 -367 l0 -38 590 0 590 0 0 895 0 895 -1600 0
-1600 0 0 -895z"/>
<path d="M1463 554 c-18 -8 -70 -103 -92 -166 -10 -29 -33 -78 -51 -108 -21 -36 -37
-81 -45 -129 -7 -40 -18 -78 -24 -84 -6 -6 -11 -21 -11 -34 l0 -23 330 0 c328
0 330 0 330 21 0 23 -91 164 -160 249 -25 30 -68 89 -95 129 -28 41 -59 84
-71 96 -12 12 -23 27 -25 33 -4 13 -66 25 -86 16z"/>
</g>
</svg>
