<svg version="1.0" xmlns="http://www.w3.org/2000/svg"
 width="668px" style="transform:scale(1,1.001);" height="375.75px" viewBox="0 0 320.000000 180.000000"
 preserveAspectRatio="xMidYMid meet">
<g transform="translate(0.000000,180.000000) scale(0.100000,-0.100000)"
fill="#000000" stroke="none">
<path d="M0 905 l0 -895 721 0 721 0 -6 38 c-24 143 -27 195 -12 240 33 94 10 318 -31
310 -27 -5 -36 -65 -28 -193 4 -66 7 -133 6 -150 0 -46 -39 -108 -82 -133 -38
-22 -38 -22 -49 -3 -14 27 -13 50 6 108 16 48 15 52 -15 172 -34 136 -37 188
-20 371 11 127 6 153 -31 163 -11 3 -18 1 -14 -4 3 -5 1 -9 -5 -9 -5 0 -13
-10 -17 -22 -13 -44 -114 -158 -139 -158 -23 0 -48 74 -40 121 11 76 26 102
107 182 43 43 78 82 78 87 0 25 72 125 98 136 33 13 42 42 42 134 0 55 2 60
40 94 55 50 93 49 143 -2 22 -23 37 -48 37 -62 0 -69 13 -101 44 -115 40 -18
74 -50 109 -103 15 -24 53 -59 83 -78 57 -36 77 -67 67 -103 -8 -32 -41 -37
-71 -9 -75 67 -137 93 -160 65 -13 -15 -17 -200 -7 -312 4 -48 1 -162 -9 -287
-20 -261 -20 -358 -1 -405 8 -19 15 -44 15 -54 0 -18 24 -19 810 -19 l810 0 0
895 0 895 -1600 0 -1600 0 0 -895z"/>
</g>
</svg>
