<svg version="1.0" xmlns="http://www.w3.org/2000/svg"
 width="668px" style="transform:scale(1,1.001);" height="375.75px" viewBox="0 0 320.000000 180.000000"
 preserveAspectRatio="xMidYMid meet">
<g transform="translate(0.000000,180.000000) scale(0.100000,-0.100000)"
fill="#000000" stroke="none">
<path d="M0 905 l0 -895 265 0 265 0 0 27 c0 14 -8 35 -17 45 -26 29 -30 144 -8 189 10
19 101 118 204 220 188 187 254 260 281 309 14 26 32 48 106 138 17 20 37 54
43 74 11 35 68 98 119 134 25 17 84 106 107 160 23 56 135 155 197 175 18 6
49 18 68 27 51 24 251 24 300 0 19 -9 51 -24 70 -32 40 -18 87 -51 147 -102
29 -26 43 -47 48 -72 3 -21 14 -61 22 -90 16 -48 16 -57 0 -120 -9 -37 -19
-89 -23 -117 -3 -27 -15 -65 -25 -83 -27 -47 -25 -85 7 -177 29 -82 37 -92
129 -155 73 -49 185 -141 185 -151 0 -5 20 -31 45 -59 25 -28 45 -56 45 -63 0
-7 14 -28 30 -47 26 -30 30 -43 30 -90 -1 -32 -7 -63 -15 -74 -8 -11 -15 -30
-15 -43 l0 -23 295 0 295 0 0 895 0 895 -1600 0 -1600 0 0 -895z"/>
</g>
</svg>
