<svg version="1.0" xmlns="http://www.w3.org/2000/svg"
 width="668px" style="transform:scale(1,1.001);" height="375.75px" viewBox="0 0 320.000000 180.000000"
 preserveAspectRatio="xMidYMid meet">
<g transform="translate(0.000000,180.000000) scale(0.100000,-0.100000)"
fill="#000000" stroke="none">
<path d="M0 905 l0 -895 1600 0 1600 0 0 895 0 895 -1600 0 -1600 0 0 -895z m1587 720
c76 -23 158 -67 187 -102 15 -18 35 -35 45 -38 28 -9 41 -49 41 -130 0 -85
-10 -118 -50 -160 -33 -35 -50 -89 -50 -163 0 -43 5 -58 25 -77 13 -14 30 -25
36 -25 7 0 40 -11 75 -25 34 -14 85 -30 113 -36 28 -6 53 -15 56 -20 3 -4 25
-18 48 -29 23 -11 58 -30 78 -43 39 -25 289 -271 289 -285 0 -5 43 -52 95
-105 76 -77 109 -103 170 -132 114 -55 170 -142 108 -166 -29 -12 -652 -6
-1124 10 -219 7 -227 8 -269 34 -29 17 -39 28 -30 31 24 7 125 16 296 26 190
11 239 24 239 60 0 22 -5 26 -50 32 -27 4 -268 9 -535 10 l-485 3 -115 -27
c-63 -15 -131 -30 -150 -33 -28 -4 -47 -19 -88 -64 -60 -69 -96 -81 -237 -81
-75 0 -85 2 -99 22 -9 12 -16 33 -16 46 0 33 -16 60 -73 120 l-49 53 7 62 c3
34 9 65 11 69 8 13 105 -3 139 -23 90 -51 288 -39 416 27 19 9 74 59 123 111
122 130 181 168 406 269 67 30 160 87 172 107 4 7 8 33 8 59 0 42 -5 53 -45
98 -24 27 -49 68 -55 90 -6 22 -20 46 -31 53 -29 17 -59 80 -59 121 0 29 8 43
41 73 22 21 44 48 49 60 5 12 22 30 37 39 15 9 45 28 65 41 76 50 152 63 235
38z"/>
</g>
</svg>
