<svg version="1.0" xmlns="http://www.w3.org/2000/svg"
 width="668px" style="transform:scale(1,1.001);" height="375.75px" viewBox="0 0 320.000000 180.000000"
 preserveAspectRatio="xMidYMid meet">
<g transform="translate(0.000000,180.000000) scale(0.100000,-0.100000)"
fill="#000000" stroke="none">
<path d="M0 905 l0 -895 428 1 c235 0 421 3 415 6 -20 7 14 51 56 72 62 30 84 45 118
81 18 19 44 47 58 61 14 15 25 31 25 36 0 5 8 18 18 29 120 132 122 136 126
217 3 58 9 83 25 103 12 15 21 34 21 43 0 33 56 128 101 171 26 25 59 71 75
103 43 87 46 89 165 88 98 -1 159 -12 187 -34 24 -19 50 -95 57 -168 4 -44 15
-87 26 -105 20 -33 25 -99 10 -123 -8 -12 -13 -12 -36 3 -26 17 -39 40 -49 89
-5 22 -12 27 -36 27 -20 0 -33 -7 -41 -22 -7 -13 -23 -36 -35 -51 -19 -23 -24
-40 -24 -85 0 -55 1 -57 56 -109 31 -29 60 -53 66 -53 12 0 32 -15 183 -138
72 -59 115 -101 115 -112 0 -26 -38 -50 -80 -50 -45 0 -80 -24 -80 -56 l0 -24
625 0 625 0 0 895 0 895 -1600 0 -1600 0 0 -895z"/>
<path d="M1380 215 c-14 -8 -32 -17 -40 -21 -15 -7 -100 -70 -130 -96 -8 -7 -28 -19
-43 -25 -19 -9 -27 -20 -27 -38 l0 -25 341 0 341 0 -4 65 c-3 55 -8 68 -28 83
-25 17 -98 46 -160 62 -57 15 -221 12 -250 -5z"/>
</g>
</svg>
