<svg version="1.0" xmlns="http://www.w3.org/2000/svg"
 width="668px" style="transform:scale(1,1.001);" height="375.75px" viewBox="0 0 320.000000 180.000000"
 preserveAspectRatio="xMidYMid meet">
<g transform="translate(0.000000,180.000000) scale(0.100000,-0.100000)"
fill="#000000" stroke="none">
<path d="M0 905 l0 -895 590 0 590 0 0 62 c0 34 9 91 19 127 47 159 61 235 71 366 18
252 17 265 -37 372 -43 86 -47 101 -54 199 -9 115 -20 138 -111 237 -21 22
-52 63 -70 91 -17 28 -38 62 -47 75 -42 64 -52 79 -76 124 -16 31 -25 65 -25
93 l0 44 -425 0 -425 0 0 -895z"/>
<path d="M950 1780 c0 -34 49 -100 145 -197 86 -87 95 -93 132 -93 59 0 69 17 66 113
-3 77 15 147 38 147 5 0 9 11 9 25 l0 25 -195 0 c-189 0 -195 -1 -195 -20z"/>
<path d="M1510 1777 c0 -13 8 -32 19 -41 26 -23 32 -78 19 -158 -6 -38 -8 -71 -4 -75 3
-3 31 -10 62 -14 52 -7 60 -12 129 -82 81 -83 125 -150 125 -191 0 -39 -33
-98 -84 -151 -24 -24 -51 -64 -59 -87 -13 -39 -12 -48 4 -93 29 -82 73 -155
215 -355 52 -74 74 -120 115 -239 24 -71 29 -101 29 -183 l0 -98 560 0 560 0
0 895 0 895 -845 0 -845 0 0 -23z"/>
<path d="M1531 535 c-17 -20 -31 -43 -31 -51 0 -8 -7 -28 -15 -43 -8 -16 -21 -59 -29
-97 -14 -64 -29 -102 -67 -164 -61 -99 -79 -134 -79 -151 0 -18 10 -19 330
-19 l330 0 0 23 c0 12 -7 31 -15 41 -8 11 -15 32 -15 47 0 15 -18 63 -41 108
-30 60 -57 97 -106 143 -37 35 -83 79 -102 98 -32 32 -87 75 -117 93 -7 4 -26
-8 -43 -28z"/>
</g>
</svg>
