<svg version="1.0" xmlns="http://www.w3.org/2000/svg"
 width="668px" style="transform:scale(1,1.001);" height="375.75px" viewBox="0 0 320.000000 180.000000"
 preserveAspectRatio="xMidYMid meet">
<g transform="translate(0.000000,180.000000) scale(0.100000,-0.100000)"
fill="#000000" stroke="none">
<path d="M0 905 l0 -895 656 0 657 0 -6 52 c-4 30 3 130 16 242 17 149 22 242 21 421
-1 242 -8 290 -39 290 -27 0 -36 -51 -29 -160 7 -100 -3 -123 -48 -111 -47 13
-63 52 -62 156 1 181 98 474 164 495 10 3 25 17 34 30 9 14 23 25 31 25 22 0
45 41 45 80 0 43 29 108 60 135 17 15 36 20 77 19 48 0 59 -4 79 -27 30 -35
39 -88 26 -146 -10 -40 -9 -49 8 -71 59 -76 68 -102 75 -215 6 -91 12 -120 36
-171 19 -40 29 -78 29 -108 0 -42 -2 -46 -24 -46 -14 0 -31 6 -38 13 -7 7 -25
18 -41 24 -15 7 -32 24 -39 38 -6 14 -18 25 -26 25 -12 0 -13 -10 -8 -52 20
-144 26 -222 26 -315 0 -98 -2 -106 -51 -235 -28 -73 -54 -155 -59 -181 -6
-42 -4 -53 20 -91 16 -24 33 -47 39 -50 6 -4 11 -20 11 -37 l0 -29 780 0 780
0 0 895 0 895 -1600 0 -1600 0 0 -895z"/>
<path d="M1430 35 c0 -23 4 -25 45 -25 41 0 45 2 45 25 0 23 -4 25 -45 25 -41 0 -45 -2
-45 -25z"/>
</g>
</svg>
