<svg version="1.0" xmlns="http://www.w3.org/2000/svg"
 width="668px" style="transform:scale(1,1.001);" height="375.75px" viewBox="0 0 320.000000 180.000000"
 preserveAspectRatio="xMidYMid meet">
<g transform="translate(0.000000,180.000000) scale(0.100000,-0.100000)"
fill="#000000" stroke="none">
<path d="M0 905 l0 -895 625 0 625 0 0 44 c0 24 4 65 9 92 5 27 12 93 16 146 7 98 7 98
-17 107 -14 5 -28 17 -32 26 -19 50 9 540 32 568 7 8 19 33 27 57 20 58 82
137 116 149 25 9 27 13 31 86 5 102 11 107 143 103 l100 -3 3 -47 c2 -32 -3
-59 -17 -87 -22 -43 -18 -74 13 -100 9 -7 16 -18 16 -24 0 -6 7 -18 15 -27 18
-19 19 -64 10 -240 -5 -90 -3 -167 5 -230 24 -189 24 -235 1 -274 -14 -22 -32
-37 -50 -41 -23 -5 -34 -17 -50 -55 -27 -62 -27 -105 1 -161 12 -24 21 -54 20
-66 l-2 -23 780 0 780 0 0 895 0 895 -1600 0 -1600 0 0 -895z"/>
<path d="M1460 502 c0 -65 -5 -86 -47 -180 -43 -99 -46 -114 -51 -210 l-4 -102 76 0
c72 0 76 1 76 23 0 12 -9 28 -20 35 -24 15 -26 51 -6 131 8 31 20 94 26 141
11 74 10 94 -3 140 -9 30 -23 64 -31 75 -14 18 -15 14 -16 -53z"/>
</g>
</svg>
