<svg version="1.0" xmlns="http://www.w3.org/2000/svg"
 width="668px" style="transform:scale(1,1.001);" height="375.75px" viewBox="0 0 320.000000 180.000000"
 preserveAspectRatio="xMidYMid meet">
<g transform="translate(0.000000,180.000000) scale(0.100000,-0.100000)"
fill="#000000" stroke="none">
<path d="M0 905 l0 -895 1600 0 1600 0 0 895 0 895 -1600 0 -1600 0 0 -895z m1585 775
c17 -9 41 -21 55 -24 14 -4 45 -30 70 -58 45 -50 45 -51 44 -122 0 -63 -4 -78
-37 -137 -20 -36 -37 -75 -37 -86 0 -33 113 -133 150 -133 10 0 33 -12 53 -27
20 -16 52 -39 72 -53 47 -33 105 -111 105 -142 0 -13 9 -58 19 -99 10 -41 22
-98 25 -128 4 -30 13 -66 21 -81 17 -33 39 -202 31 -236 -4 -13 -15 -28 -26
-34 -31 -16 -681 -27 -901 -15 -197 11 -212 15 -230 64 -14 34 10 265 33 324
10 26 18 56 18 66 0 10 14 46 31 80 30 60 50 82 212 232 l67 62 0 57 c0 40 -5
64 -18 81 -32 41 -70 131 -81 192 -9 47 -8 65 4 94 20 48 62 88 107 102 21 7
40 17 44 22 20 33 114 32 169 -1z"/>
</g>
</svg>
