<svg version="1.0" xmlns="http://www.w3.org/2000/svg"
 width="668px" style="transform:scale(1,1.001);" height="375.75px" viewBox="0 0 320.000000 180.000000"
 preserveAspectRatio="xMidYMid meet">
<g transform="translate(0.000000,180.000000) scale(0.100000,-0.100000)"
fill="#000000" stroke="none">
<path d="M0 905 l0 -895 1065 0 1065 0 0 24 c0 16 -7 27 -20 31 -10 3 -40 41 -65 83
-25 42 -50 84 -55 92 -6 8 -13 22 -17 30 -4 8 -27 40 -51 70 -51 63 -81 123
-82 162 0 15 -9 62 -21 104 -29 106 -21 151 52 299 42 83 75 135 109 170 62
63 114 105 131 105 7 0 22 9 34 20 12 11 45 24 75 30 61 12 85 30 106 78 8 19
32 52 54 73 38 37 43 39 104 39 36 0 68 -5 71 -10 4 -6 23 -19 44 -30 45 -23
71 -76 71 -145 0 -59 -34 -132 -71 -151 -16 -8 -29 -19 -29 -24 0 -5 -16 -16
-35 -24 -19 -8 -35 -19 -35 -25 0 -5 -13 -12 -30 -16 -35 -8 -74 -51 -90 -99
-6 -19 -24 -62 -40 -94 -16 -33 -34 -88 -41 -123 -23 -126 -11 -195 61 -344
21 -44 46 -97 54 -118 21 -49 21 -130 1 -147 -8 -7 -15 -23 -15 -36 l0 -24
400 0 400 0 0 895 0 895 -1600 0 -1600 0 0 -895z"/>
</g>
</svg>
