<svg version="1.0" xmlns="http://www.w3.org/2000/svg"
 width="668px" style="transform:scale(1,1.001);" height="375.75px" viewBox="0 0 320.000000 180.000000"
 preserveAspectRatio="xMidYMid meet">
<g transform="translate(0.000000,180.000000) scale(0.100000,-0.100000)"
fill="#000000" stroke="none">
<path d="M0 905 l0 -895 1600 0 1600 0 0 895 0 895 -1600 0 -1600 0 0 -895z m2015 651
c11 -7 37 -19 57 -25 20 -7 65 -38 100 -70 l63 -59 0 -95 c0 -81 -3 -100 -21
-124 -11 -15 -26 -44 -32 -63 -7 -19 -20 -46 -30 -60 -23 -35 -44 -89 -49
-130 -3 -29 2 -41 26 -67 17 -17 41 -35 53 -39 13 -4 34 -15 47 -25 13 -11 30
-19 37 -19 26 0 203 -121 223 -153 11 -18 25 -39 30 -47 65 -103 81 -212 39
-265 -20 -26 -24 -27 -82 -21 -34 4 -333 9 -666 11 l-605 4 -19 23 c-17 21
-18 36 -13 144 4 106 8 126 30 160 27 43 93 94 121 94 10 0 31 11 48 25 16 14
37 25 47 25 9 0 32 11 51 25 19 14 44 25 56 25 12 0 27 7 34 15 7 9 32 20 56
26 33 9 48 19 64 46 21 36 26 78 11 88 -5 3 -12 19 -16 36 -4 16 -18 42 -31
56 -13 14 -24 32 -24 39 0 11 -26 69 -71 156 -31 61 31 145 182 248 42 28 49
30 154 30 77 0 117 -4 130 -14z"/>
</g>
</svg>
