<svg version="1.0" xmlns="http://www.w3.org/2000/svg"
 width="668px" style="transform:scale(1,1.001);" height="375.75px" viewBox="0 0 320.000000 180.000000"
 preserveAspectRatio="xMidYMid meet">
<g transform="translate(0.000000,180.000000) scale(0.100000,-0.100000)"
fill="#000000" stroke="none">
<path d="M0 905 l0 -895 846 0 846 0 -7 52 c-10 77 -88 292 -130 358 -33 52 -52 111
-60 185 -4 33 -15 89 -25 125 -28 100 -44 423 -26 542 5 36 17 57 50 93 24 25
50 45 58 45 9 0 31 19 50 43 27 33 38 58 48 112 7 39 20 86 29 105 l16 35 82
0 c79 0 83 -1 116 -34 77 -73 82 -164 14 -211 -54 -37 -70 -64 -62 -106 3 -19
15 -43 26 -52 27 -22 38 -49 61 -157 10 -49 24 -110 29 -135 16 -72 -2 -165
-57 -287 -19 -43 -18 -69 11 -186 14 -56 31 -147 37 -202 9 -85 8 -112 -6
-180 -10 -44 -20 -95 -23 -112 l-5 -33 641 0 641 0 0 895 0 895 -1600 0 -1600
0 0 -895z"/>
</g>
</svg>
