<svg version="1.0" xmlns="http://www.w3.org/2000/svg"
 width="668px" style="transform:scale(1,1.001);" height="375.75px" viewBox="0 0 320.000000 180.000000"
 preserveAspectRatio="xMidYMid meet">
<g transform="translate(0.000000,180.000000) scale(0.100000,-0.100000)"
fill="#000000" stroke="none">
<path d="M0 905 l0 -895 531 0 531 0 -5 32 c-5 38 14 83 42 98 33 17 89 12 111 -10 20
-20 24 -39 20 -92 l-2 -28 223 0 222 0 -7 39 c-3 22 -3 47 0 55 10 25 41 19
64 -14 12 -17 17 -30 11 -30 -6 0 -11 -11 -11 -25 l0 -25 735 0 735 0 0 895 0
895 -1600 0 -1600 0 0 -895z m1403 811 c88 -32 116 -64 117 -132 0 -37 -8 -65
-30 -105 -16 -30 -26 -60 -22 -66 4 -7 24 -19 44 -27 20 -9 39 -20 43 -26 3
-5 23 -14 44 -20 31 -8 47 -22 85 -78 25 -37 59 -85 76 -107 52 -71 61 -94 61
-156 1 -87 -16 -109 -85 -109 -46 0 -56 4 -80 31 -15 17 -35 29 -44 27 -15 -3
-17 -16 -14 -93 2 -51 12 -116 22 -150 28 -88 79 -227 89 -239 4 -6 13 -32 20
-58 9 -39 9 -54 -3 -83 -17 -40 -17 -40 -110 -20 -84 18 -233 20 -384 6 -125
-11 -158 -4 -168 36 -4 13 4 78 16 144 36 190 22 257 -64 315 -76 50 -91 90
-83 222 4 53 11 111 16 129 11 38 69 113 87 113 7 0 29 16 50 35 20 19 45 35
55 35 12 0 27 16 40 43 20 38 21 47 10 98 -27 133 -1 204 89 243 46 20 46 20
123 -8z"/>
</g>
</svg>
