<svg version="1.0" xmlns="http://www.w3.org/2000/svg"
 width="668px" style="transform:scale(1,1.001);" height="375.75px" viewBox="0 0 320.000000 180.000000"
 preserveAspectRatio="xMidYMid meet">
<g transform="translate(0.000000,180.000000) scale(0.100000,-0.100000)"
fill="#000000" stroke="none">
<path d="M0 905 l0 -895 516 0 517 0 -6 44 c-7 49 14 116 58 192 52 88 83 160 110 254
15 52 38 116 52 143 45 89 56 179 44 345 -14 187 -15 190 -68 295 -37 73 -44
95 -41 135 3 44 6 49 48 76 64 41 95 86 109 156 16 78 42 100 120 100 66 0
138 -25 146 -52 4 -10 17 -26 31 -34 19 -13 24 -25 24 -60 0 -24 -8 -59 -17
-79 -24 -50 -10 -81 51 -114 27 -14 81 -58 122 -97 112 -110 115 -160 15 -255
-75 -71 -101 -121 -101 -192 0 -74 36 -183 91 -277 5 -8 12 -22 15 -30 3 -8 9
-22 14 -30 5 -8 27 -51 50 -95 42 -79 42 -81 41 -182 0 -62 -6 -118 -16 -145
-8 -24 -15 -55 -15 -70 l0 -28 645 0 645 0 0 895 0 895 -1600 0 -1600 0 0
-895z"/>
<path d="M1464 513 c-19 -21 -60 -83 -91 -138 -30 -55 -65 -113 -78 -130 -12 -16 -25
-40 -29 -53 -4 -12 -16 -27 -27 -33 -11 -5 -17 -14 -15 -18 3 -4 -13 -25 -34
-46 -24 -23 -40 -48 -40 -62 l0 -23 310 0 310 0 -7 113 c-7 133 -26 175 -129
290 -19 21 -34 42 -34 46 0 4 -23 27 -50 50 l-51 43 -35 -39z"/>
</g>
</svg>
