<svg version="1.0" xmlns="http://www.w3.org/2000/svg"
 width="668px" style="transform:scale(1,1.001);" height="375.75px" viewBox="0 0 320.000000 180.000000"
 preserveAspectRatio="xMidYMid meet">
<g transform="translate(0.000000,180.000000) scale(0.100000,-0.100000)"
fill="#000000" stroke="none">
<path d="M0 905 l0 -895 651 0 651 0 -8 48 c-5 26 -8 72 -7 102 0 30 4 180 8 334 9 307
11 296 -55 296 -49 0 -59 25 -44 110 6 36 19 92 28 125 9 33 23 109 31 169 11
84 22 125 47 174 l32 65 -32 61 c-42 80 -43 131 -4 170 24 22 39 27 87 29 52
2 59 -1 78 -25 14 -19 23 -52 28 -99 5 -40 12 -76 17 -81 5 -5 27 -12 48 -15
31 -4 44 -13 63 -42 21 -31 24 -50 27 -151 2 -63 8 -135 13 -160 10 -48 -3
-527 -14 -570 -4 -14 -29 -95 -56 -180 -53 -165 -57 -220 -19 -240 24 -13 60
-72 60 -99 l0 -21 785 0 785 0 0 895 0 895 -1600 0 -1600 0 0 -895z"/>
</g>
</svg>
