<svg version="1.0" xmlns="http://www.w3.org/2000/svg"
 width="668px" style="transform:scale(1,1.001);" height="375.75px" viewBox="0 0 320.000000 180.000000"
 preserveAspectRatio="xMidYMid meet">
<g transform="translate(0.000000,180.000000) scale(0.100000,-0.100000)"
fill="#000000" stroke="none">
<path d="M0 905 l0 -895 488 0 487 0 0 192 c0 174 2 200 23 268 13 41 29 95 37 120 7
25 27 81 45 125 27 67 33 96 36 174 3 91 5 99 54 199 66 134 69 152 38 200
-33 50 -41 94 -23 129 8 15 15 33 15 40 0 6 15 20 33 32 67 42 164 123 220
184 l58 62 90 0 90 0 35 -39 c48 -54 48 -112 -2 -213 -41 -82 -42 -129 -4
-167 29 -30 60 -73 83 -115 17 -32 19 -57 19 -211 0 -97 -5 -186 -11 -200 -6
-14 -23 -39 -38 -57 -23 -27 -39 -34 -91 -42 -53 -9 -68 -16 -100 -49 -36 -37
-38 -43 -55 -163 -10 -68 -25 -144 -32 -169 -14 -49 -53 -215 -62 -267 l-5
-33 886 0 886 0 0 895 0 895 -1600 0 -1600 0 0 -895z"/>
<path d="M1200 163 c-7 -27 -21 -62 -31 -79 -11 -17 -19 -41 -19 -53 0 -19 6 -21 56
-21 l57 0 -6 40 c-3 21 -15 53 -27 70 -16 22 -20 38 -15 60 11 48 -1 34 -15
-17z"/>
</g>
</svg>
