<svg version="1.0" xmlns="http://www.w3.org/2000/svg"
 width="668px" style="transform:scale(1,1.001);" height="375.75px" viewBox="0 0 320.000000 180.000000"
 preserveAspectRatio="xMidYMid meet">
<g transform="translate(0.000000,180.000000) scale(0.100000,-0.100000)"
fill="#000000" stroke="none">
<path d="M0 905 l0 -895 684 0 684 0 4 55 c4 41 13 68 40 107 19 29 41 69 48 88 17 44
46 95 81 141 42 54 47 107 16 171 -14 29 -31 70 -37 90 -19 62 -100 115 -139
91 -16 -10 -22 -25 -69 -178 -28 -89 -28 -89 -67 -99 -22 -5 -44 -15 -48 -22
-13 -23 -46 -16 -53 11 -4 17 7 51 40 118 44 92 58 140 87 297 15 80 19 279 7
320 -5 14 -33 52 -63 84 -67 72 -81 119 -45 148 13 10 29 17 37 14 7 -3 31 4
52 15 33 17 58 20 154 20 121 0 128 2 142 49 15 49 33 60 105 60 95 0 121 -12
143 -63 21 -52 21 -71 1 -88 -9 -7 -29 -32 -45 -56 l-29 -42 16 -64 c15 -60
15 -69 -1 -123 -64 -226 -66 -300 -16 -482 17 -62 31 -126 31 -142 0 -17 -16
-63 -35 -102 -53 -109 -65 -129 -81 -135 -8 -3 -14 -11 -14 -19 0 -8 -9 -19
-20 -26 -11 -7 -20 -18 -20 -24 0 -6 -9 -21 -20 -34 -11 -13 -20 -27 -20 -31
0 -4 -18 -29 -40 -54 -23 -27 -40 -57 -40 -71 l0 -24 865 0 865 0 0 895 0 895
-1600 0 -1600 0 0 -895z"/>
</g>
</svg>
