<svg version="1.0" xmlns="http://www.w3.org/2000/svg"
 width="668px" style="transform:scale(1,1.001);" height="375.75px" viewBox="0 0 320.000000 180.000000"
 preserveAspectRatio="xMidYMid meet">
<g transform="translate(0.000000,180.000000) scale(0.100000,-0.100000)"
fill="#000000" stroke="none">
<path d="M0 905 l0 -895 1600 0 1600 0 0 895 0 895 -1600 0 -1600 0 0 -895z m1707 776
c32 -17 74 -46 93 -66 35 -36 35 -36 34 -128 0 -68 -5 -102 -18 -127 -26 -51
-36 -99 -25 -127 13 -35 87 -105 131 -125 21 -9 38 -21 38 -27 0 -5 9 -12 19
-16 26 -8 80 -52 120 -97 46 -53 71 -133 81 -263 5 -62 16 -141 25 -176 15
-67 20 -176 7 -195 -22 -33 -47 -35 -577 -30 -406 4 -531 8 -552 18 -27 13
-28 16 -31 107 -2 64 2 111 13 145 8 28 19 80 25 114 5 35 13 69 19 75 5 7 14
31 20 55 7 23 25 61 41 85 43 63 70 88 201 187 52 39 99 92 99 111 0 21 -41
105 -85 175 -58 91 -58 151 1 228 25 33 53 55 97 75 85 40 148 41 224 2z"/>
</g>
</svg>
