<svg version="1.0" xmlns="http://www.w3.org/2000/svg"
 width="668px" style="transform:scale(1,1.001);" height="375.75px" viewBox="0 0 320.000000 180.000000"
 preserveAspectRatio="xMidYMid meet">
<g transform="translate(0.000000,180.000000) scale(0.100000,-0.100000)"
fill="#000000" stroke="none">
<path d="M0 905 l0 -895 1600 0 1600 0 0 895 0 895 -1600 0 -1600 0 0 -895z m1711 786
c13 -10 34 -21 46 -25 35 -11 72 -45 93 -87 28 -53 26 -122 -6 -205 -15 -38
-29 -88 -31 -110 -4 -35 0 -46 26 -76 17 -19 56 -50 87 -69 31 -19 70 -46 87
-61 16 -15 37 -30 46 -33 26 -9 90 -96 106 -145 8 -25 21 -101 30 -170 9 -69
23 -159 31 -200 20 -108 19 -165 -6 -190 -19 -19 -32 -20 -227 -19 -115 1
-363 4 -551 8 l-344 6 -19 24 c-29 35 -26 90 12 291 27 138 90 275 159 348 27
29 53 52 58 52 4 0 26 16 48 36 21 20 56 47 77 61 65 41 68 87 13 183 -102
179 -105 199 -44 280 22 30 45 56 49 58 4 2 27 16 51 32 37 26 52 30 114 30
55 0 77 -4 95 -19z"/>
</g>
</svg>
