<svg version="1.0" xmlns="http://www.w3.org/2000/svg"
 width="668px" style="transform:scale(1,1.001);" height="375.75px" viewBox="0 0 320.000000 180.000000"
 preserveAspectRatio="xMidYMid meet">
<g transform="translate(0.000000,180.000000) scale(0.100000,-0.100000)"
fill="#000000" stroke="none">
<path d="M0 905 l0 -895 560 0 c557 0 560 0 560 20 0 12 -7 31 -15 44 -20 30 -46 446
-46 731 0 204 0 212 -26 270 -14 33 -32 87 -41 120 -8 33 -21 74 -29 92 -7 17
-13 36 -13 42 0 5 -38 48 -84 93 -124 124 -156 205 -131 336 l8 42 -372 0
-371 0 0 -895z"/>
<path d="M851 1723 c4 -67 8 -83 32 -115 32 -41 42 -46 110 -57 32 -6 50 -4 55 3 3 6 5
48 4 92 -2 51 1 84 7 89 6 3 11 19 11 36 l0 29 -111 0 -111 0 3 -77z"/>
<path d="M1280 1771 c0 -17 5 -33 11 -37 11 -7 8 -98 -6 -141 -10 -31 81 -90 160 -103
32 -5 65 -16 74 -23 14 -12 21 -11 56 7 39 20 40 23 52 95 7 40 19 84 28 97
23 36 53 31 71 -11 8 -19 20 -35 27 -35 6 0 20 -7 31 -15 18 -13 18 -15 -5
-62 -26 -55 -109 -186 -120 -191 -4 -2 -24 -17 -45 -33 -29 -23 -47 -29 -83
-29 -64 0 -85 -18 -101 -87 -17 -73 -17 -357 0 -478 15 -104 1 -213 -35 -285
-12 -25 -41 -81 -63 -125 -41 -80 -53 -137 -38 -183 5 -14 1 -34 -8 -54 -9
-17 -16 -39 -16 -50 0 -17 33 -18 965 -18 l965 0 0 895 0 895 -960 0 -960 0 0
-29z"/>
</g>
</svg>
