<svg version="1.0" xmlns="http://www.w3.org/2000/svg"
 width="668px" style="transform:scale(1,1.001);" height="375.75px" viewBox="0 0 320.000000 180.000000"
 preserveAspectRatio="xMidYMid meet">
<g transform="translate(0.000000,180.000000) scale(0.100000,-0.100000)"
fill="#000000" stroke="none">
<path d="M0 905 l0 -895 625 0 625 0 0 21 c0 11 -11 35 -24 52 -30 40 -43 89 -51 197
-11 141 -51 277 -112 373 -31 50 -48 64 -88 73 -16 3 -44 15 -61 25 -17 10
-57 25 -90 32 -32 8 -76 25 -96 39 -20 14 -56 28 -79 32 -23 4 -54 15 -68 25
-14 10 -51 26 -82 34 -30 9 -63 25 -73 36 -9 10 -31 21 -47 25 -48 9 -23 26
39 26 31 0 73 5 94 10 l36 10 -26 28 c-15 16 -45 52 -67 81 -22 30 -52 68 -67
86 -20 23 -24 35 -16 43 16 16 98 3 127 -20 13 -10 28 -18 33 -18 4 0 25 -11
46 -25 20 -13 57 -31 82 -40 24 -9 54 -24 65 -35 20 -19 84 -43 140 -53 17 -3
54 3 85 13 30 11 68 19 84 20 16 0 61 14 99 32 l69 32 -5 45 c-3 25 -10 64
-16 86 -6 22 -11 83 -11 135 0 115 14 145 92 189 92 53 205 40 307 -36 43 -32
53 -46 67 -93 23 -80 15 -129 -35 -193 -59 -77 -57 -105 12 -155 28 -21 68
-44 87 -52 125 -49 283 -172 328 -256 7 -13 18 -24 25 -24 8 0 27 -15 44 -32
16 -18 42 -43 55 -55 15 -13 31 -43 37 -70 7 -27 22 -58 33 -70 11 -12 22 -32
24 -45 23 -154 33 -208 43 -233 16 -39 48 -110 74 -162 18 -35 19 -45 9 -68
-7 -14 -12 -35 -12 -45 0 -20 10 -20 420 -20 l420 0 0 895 0 895 -1600 0
-1600 0 0 -895z"/>
<path d="M1933 478 c-6 -7 -13 -43 -17 -81 -4 -37 -11 -80 -17 -95 -6 -15 -14 -72 -19
-127 -5 -55 -12 -115 -16 -133 l-6 -32 161 0 c155 0 161 1 161 20 0 25 -23 63
-66 110 -22 25 -33 48 -37 82 -4 26 -20 73 -37 105 -17 32 -33 76 -37 98 -7
47 -19 65 -43 65 -10 0 -22 -6 -27 -12z"/>
</g>
</svg>
