<svg version="1.0" xmlns="http://www.w3.org/2000/svg"
 width="668px" style="transform:scale(1,1.001);" height="375.75px" viewBox="0 0 320.000000 180.000000"
 preserveAspectRatio="xMidYMid meet">
<g transform="translate(0.000000,180.000000) scale(0.100000,-0.100000)"
fill="#000000" stroke="none">
<path d="M0 905 l0 -895 539 0 539 0 5 103 c2 56 9 154 15 217 7 63 16 185 22 270 13
196 27 333 39 389 6 33 5 55 -5 84 -8 23 -14 78 -14 132 0 51 -5 106 -11 124
-9 26 -16 31 -45 31 -23 0 -37 -6 -44 -19 -5 -11 -19 -22 -29 -26 -12 -3 -38
-43 -66 -100 -45 -91 -84 -145 -103 -145 -24 0 -36 36 -37 109 0 67 3 81 30
124 17 27 35 57 41 67 36 64 145 140 201 140 27 0 93 36 93 50 0 5 9 11 19 15
18 5 19 13 14 75 -6 66 -5 70 18 78 34 13 212 25 249 17 23 -5 40 -20 61 -53
34 -54 37 -102 10 -140 -10 -15 -22 -41 -25 -58 -6 -27 -1 -39 38 -86 41 -50
46 -63 54 -129 6 -42 26 -115 47 -169 45 -115 52 -152 32 -168 -22 -19 -77 -4
-90 25 -6 13 -21 26 -34 30 -45 11 -48 -7 -20 -139 14 -68 33 -186 42 -263 9
-77 21 -157 26 -178 21 -79 49 -274 49 -339 l0 -68 770 0 770 0 0 895 0 895
-1600 0 -1600 0 0 -895z"/>
<path d="M1338 703 c-14 -17 -37 -82 -72 -208 -15 -53 -50 -237 -66 -345 -5 -36 -12
-82 -16 -103 l-7 -37 188 0 188 0 -7 68 c-10 98 -25 177 -51 262 -13 41 -31
102 -40 135 -36 128 -68 215 -85 230 -15 14 -18 14 -32 -2z"/>
</g>
</svg>
