<svg version="1.0" xmlns="http://www.w3.org/2000/svg"
 width="668px" style="transform:scale(1,1.001);" height="375.75px" viewBox="0 0 320.000000 180.000000"
 preserveAspectRatio="xMidYMid meet">
<g transform="translate(0.000000,180.000000) scale(0.100000,-0.100000)"
fill="#000000" stroke="none">
<path d="M0 905 l0 -895 1600 0 1600 0 0 895 0 895 -1600 0 -1600 0 0 -895z m1957 680
c108 -32 149 -59 257 -175 26 -27 29 -119 4 -146 -9 -11 -20 -32 -24 -49 -9
-37 -61 -142 -85 -174 -21 -27 -25 -91 -9 -138 13 -35 78 -86 175 -137 88 -45
182 -119 203 -158 10 -17 26 -42 38 -57 34 -43 68 -177 52 -205 -5 -9 -22 -23
-38 -31 -25 -13 -75 -14 -362 -8 -183 5 -459 5 -613 2 -304 -6 -326 -3 -345
47 -7 16 -6 40 1 67 5 23 15 62 21 87 5 25 19 54 29 66 10 11 19 25 19 30 0
24 240 204 272 204 11 0 100 68 115 89 7 9 13 43 13 77 0 48 -4 65 -20 79 -10
9 -24 33 -30 51 -7 19 -16 34 -20 34 -5 0 -15 19 -21 43 -7 23 -23 55 -36 70
-23 29 -28 53 -23 117 3 50 141 186 220 216 74 29 104 29 207 -1z"/>
</g>
</svg>
