<svg version="1.0" xmlns="http://www.w3.org/2000/svg"
 width="668px" style="transform:scale(1,1.001);" height="375.75px" viewBox="0 0 320.000000 180.000000"
 preserveAspectRatio="xMidYMid meet">
<g transform="translate(0.000000,180.000000) scale(0.100000,-0.100000)"
fill="#000000" stroke="none">
<path d="M0 905 l0 -895 665 0 666 0 -2 53 c0 28 8 95 19 147 50 236 49 249 -25 361
-25 39 -50 93 -60 132 l-18 67 -47 0 c-38 0 -50 -5 -67 -26 -25 -31 -27 -76
-6 -94 19 -15 21 -115 3 -126 -7 -4 -43 -9 -80 -10 l-69 -3 -26 40 c-22 34
-25 46 -20 90 4 28 17 70 31 93 27 47 114 136 132 136 7 0 26 11 42 25 17 14
34 25 39 25 6 0 18 9 28 20 10 11 22 20 27 20 4 0 28 19 52 43 24 23 59 51 77
62 31 19 34 25 39 80 8 99 55 138 145 121 51 -10 75 -47 75 -114 0 -49 3 -58
34 -86 61 -58 69 -99 40 -197 -13 -43 -16 -93 -15 -244 1 -104 2 -213 4 -241
2 -44 -3 -57 -35 -105 -21 -30 -38 -64 -38 -76 0 -12 14 -42 30 -66 29 -40 33
-77 9 -77 -5 0 -9 -11 -9 -25 l0 -25 780 0 780 0 0 895 0 895 -1600 0 -1600 0
0 -895z"/>
<path d="M1430 94 c-36 -83 -35 -84 85 -84 104 0 105 0 105 24 0 20 -7 25 -47 35 -27 7
-65 25 -85 42 l-37 29 -21 -46z"/>
</g>
</svg>
