<svg version="1.0" xmlns="http://www.w3.org/2000/svg"
 width="668px" style="transform:scale(1,1.001);" height="375.75px" viewBox="0 0 320.000000 180.000000"
 preserveAspectRatio="xMidYMid meet">
<g transform="translate(0.000000,180.000000) scale(0.100000,-0.100000)"
fill="#000000" stroke="none">
<path d="M0 905 l0 -895 1600 0 1600 0 0 895 0 895 -1600 0 -1600 0 0 -895z m1618 764
c33 -16 78 -50 101 -74 40 -43 41 -46 41 -116 0 -63 -4 -79 -40 -146 -22 -42
-40 -80 -40 -85 0 -22 54 -77 81 -83 16 -4 34 -15 39 -25 6 -11 28 -24 50 -30
22 -6 40 -15 40 -21 0 -5 15 -16 34 -24 19 -8 56 -39 82 -68 52 -59 74 -123
94 -271 6 -43 17 -91 24 -105 8 -14 19 -62 25 -106 6 -44 13 -96 17 -116 5
-29 1 -41 -18 -63 -23 -27 -29 -28 -138 -34 -175 -9 -774 -7 -868 2 -58 6 -93
16 -115 30 -29 20 -32 27 -35 80 -2 32 4 78 12 104 8 26 18 76 21 112 4 36 13
79 20 95 8 17 18 46 23 66 18 67 113 180 251 299 34 29 42 43 47 80 6 47 0 66
-42 140 -32 55 -73 166 -74 198 0 44 88 152 124 152 8 0 24 8 37 19 50 39 117
36 207 -10z"/>
</g>
</svg>
