<svg version="1.0" xmlns="http://www.w3.org/2000/svg"
 width="668px" style="transform:scale(1,1.001);" height="375.75px" viewBox="0 0 320.000000 180.000000"
 preserveAspectRatio="xMidYMid meet">
<g transform="translate(0.000000,180.000000) scale(0.100000,-0.100000)"
fill="#000000" stroke="none">
<path d="M0 905 l0 -895 1600 0 1600 0 0 895 0 895 -1600 0 -1600 0 0 -895z m1821 764
c25 -25 49 -80 49 -111 0 -13 -9 -47 -21 -77 -25 -66 -22 -121 6 -136 11 -5
30 -20 43 -32 12 -13 28 -23 36 -23 20 0 62 -53 77 -97 8 -25 10 -69 6 -137
-9 -138 -23 -206 -64 -311 -35 -88 -36 -93 -37 -240 -1 -82 -6 -158 -10 -168
-15 -31 -51 -37 -235 -37 -132 0 -182 3 -195 13 -22 16 -35 82 -35 188 -1 42
-8 98 -16 125 -19 64 -19 121 2 200 15 55 15 74 5 147 -20 140 -16 208 14 253
31 45 87 101 127 127 34 22 35 52 2 117 -35 70 -34 124 6 178 l31 42 94 0 c82
0 97 -3 115 -21z"/>
</g>
</svg>
