<svg version="1.0" xmlns="http://www.w3.org/2000/svg"
 width="668px" style="transform:scale(1,1.001);" height="375.75px" viewBox="0 0 320.000000 180.000000"
 preserveAspectRatio="xMidYMid meet">
<g transform="translate(0.000000,180.000000) scale(0.100000,-0.100000)"
fill="#000000" stroke="none">
<path d="M0 905 l0 -895 1600 0 1600 0 0 895 0 895 -1600 0 -1600 0 0 -895z m1499 755
c24 -11 50 -20 57 -20 8 0 33 -19 55 -42 l40 -43 -3 -110 c-2 -85 -7 -116 -21
-135 -9 -13 -17 -34 -17 -45 0 -24 84 -95 111 -95 11 0 29 -11 41 -25 12 -14
29 -25 39 -25 10 0 31 -11 47 -25 17 -14 37 -25 46 -25 8 0 39 -25 69 -55 55
-54 78 -100 98 -195 6 -25 15 -65 20 -90 6 -25 15 -67 20 -95 6 -27 19 -77 30
-110 25 -78 25 -175 1 -205 -17 -21 -29 -23 -148 -28 -71 -3 -163 -5 -204 -4
-41 0 -176 1 -299 2 -156 0 -242 5 -285 15 -34 8 -84 15 -112 15 -82 0 -90 15
-86 168 2 99 7 135 22 170 11 25 20 58 20 75 0 41 49 122 122 204 33 37 66 73
74 79 39 32 94 111 94 137 0 33 -37 94 -94 157 -7 8 -25 37 -40 65 -33 63 -34
121 -4 161 39 52 92 104 106 104 8 0 28 6 45 14 71 32 97 33 156 6z"/>
</g>
</svg>
