<svg version="1.0" xmlns="http://www.w3.org/2000/svg"
 width="668px" style="transform:scale(1,1.001);" height="375.75px" viewBox="0 0 320.000000 180.000000"
 preserveAspectRatio="xMidYMid meet">
<g transform="translate(0.000000,180.000000) scale(0.100000,-0.100000)"
fill="#000000" stroke="none">
<path d="M0 905 l0 -895 1600 0 1600 0 0 895 0 895 -1600 0 -1600 0 0 -895z m1731 724
c88 -9 108 -14 130 -35 14 -13 30 -24 37 -24 24 0 100 -87 113 -129 23 -76
-12 -233 -78 -355 -27 -49 -19 -100 22 -150 22 -27 48 -47 65 -51 16 -4 40
-15 53 -25 13 -10 46 -24 73 -31 27 -7 62 -23 77 -36 16 -12 34 -23 41 -23 7
0 41 -30 74 -67 71 -78 78 -104 69 -242 -5 -61 -12 -93 -25 -111 -37 -49 -61
-51 -677 -46 -314 2 -578 7 -588 11 -23 9 -57 76 -57 111 0 15 9 66 21 115 18
77 26 93 63 131 46 47 88 76 153 108 23 11 45 25 48 30 4 6 23 17 43 26 62 26
122 95 122 141 0 23 -46 115 -124 248 -81 139 -80 183 11 278 97 103 121 121
172 128 25 3 49 7 52 8 4 0 53 -4 110 -10z m99 -1491 l45 -14 -50 -14 c-86
-26 -627 -18 -601 7 3 4 54 14 114 24 127 22 416 19 492 -3z"/>
</g>
</svg>
