<svg version="1.0" xmlns="http://www.w3.org/2000/svg"
 width="668px" style="transform:scale(1,1.001);" height="375.75px" viewBox="0 0 320.000000 180.000000"
 preserveAspectRatio="xMidYMid meet">
<g transform="translate(0.000000,180.000000) scale(0.100000,-0.100000)"
fill="#000000" stroke="none">
<path d="M0 905 l0 -895 1600 0 1600 0 0 895 0 895 -1600 0 -1600 0 0 -895z m1592 694
c27 -17 53 -40 58 -50 15 -26 12 -90 -5 -139 -8 -23 -15 -47 -15 -52 0 -13
121 -68 150 -68 14 0 38 -7 55 -16 16 -8 59 -23 96 -34 36 -10 81 -25 98 -35
21 -10 73 -20 140 -24 74 -6 119 -14 146 -28 22 -11 63 -24 90 -28 64 -9 81
-19 100 -55 19 -37 11 -74 -22 -100 -27 -21 -68 -26 -78 -10 -11 17 -87 52
-119 55 -84 8 -428 7 -436 -1 -4 -5 -10 -67 -12 -139 -4 -110 -8 -136 -26
-170 -27 -48 -27 -59 -2 -160 26 -105 26 -155 -1 -189 -40 -50 -69 -58 -175
-46 -65 7 -122 7 -184 0 -144 -16 -171 6 -150 127 6 37 21 84 33 103 19 29 22
50 22 130 l0 95 -35 -2 c-131 -6 -158 -5 -184 12 -22 15 -39 16 -106 11 -115
-10 -142 12 -105 84 23 44 49 53 149 52 88 -1 153 12 168 33 4 5 12 33 18 62
6 28 20 70 31 92 10 22 19 45 19 51 0 6 11 15 25 20 14 5 25 16 25 24 0 8 12
24 27 36 36 28 38 100 3 147 -25 35 -38 99 -30 151 7 49 68 90 134 91 39 1 59
-6 98 -30z"/>
</g>
</svg>
