<svg version="1.0" xmlns="http://www.w3.org/2000/svg"
 width="668px" style="transform:scale(1,1.001);" height="375.75px" viewBox="0 0 320.000000 180.000000"
 preserveAspectRatio="xMidYMid meet">
<g transform="translate(0.000000,180.000000) scale(0.100000,-0.100000)"
fill="#000000" stroke="none">
<path d="M0 905 l0 -895 700 0 700 0 0 22 c0 12 -4 35 -10 52 -20 67 -50 254 -50 317 0
38 -9 95 -19 130 -11 35 -23 81 -26 102 -4 20 -12 40 -18 44 -13 8 -57 -42
-58 -65 0 -9 -24 -64 -53 -122 -45 -89 -56 -105 -77 -105 -33 0 -48 44 -30 88
7 18 17 49 22 70 5 21 13 45 18 55 6 9 14 31 20 47 5 17 19 55 31 85 12 30 32
96 44 145 16 63 34 107 59 144 41 59 41 79 0 139 -36 54 -9 114 64 141 38 13
45 13 80 -3 44 -20 64 -45 81 -101 16 -52 61 -86 126 -96 28 -5 56 -16 63 -25
7 -9 21 -22 31 -28 25 -14 87 -57 137 -95 22 -17 49 -35 61 -40 34 -15 57 -59
50 -97 -4 -18 -11 -36 -16 -39 -10 -6 -77 31 -103 57 -10 10 -28 18 -40 18
-12 0 -42 9 -66 20 -82 38 -81 39 -81 -117 0 -88 5 -160 15 -202 9 -36 22 -94
30 -128 27 -112 20 -140 -47 -205 -35 -34 -38 -41 -38 -92 0 -51 -2 -56 -24
-62 -14 -3 -34 -3 -45 1 -34 10 -61 -3 -61 -31 l0 -24 865 0 865 0 0 895 0
895 -1600 0 -1600 0 0 -895z"/>
<path d="M1484 417 c-3 -8 -4 -34 -2 -58 4 -52 33 -68 44 -24 12 50 -25 124 -42 82z"/>
</g>
</svg>
