<svg version="1.0" xmlns="http://www.w3.org/2000/svg"
 width="668px" style="transform:scale(1,1.001);" height="375.75px" viewBox="0 0 320.000000 180.000000"
 preserveAspectRatio="xMidYMid meet">
<g transform="translate(0.000000,180.000000) scale(0.100000,-0.100000)"
fill="#000000" stroke="none">
<path d="M0 905 l0 -895 1600 0 1600 0 0 895 0 895 -1600 0 -1600 0 0 -895z m1836 804
c32 -8 53 -22 75 -50 43 -55 47 -100 15 -177 -14 -34 -26 -69 -26 -79 1 -30
32 -60 90 -87 63 -28 146 -109 179 -175 30 -58 44 -143 36 -215 -7 -57 -11
-64 -63 -114 -31 -30 -71 -65 -89 -79 -60 -46 -67 -71 -68 -231 l0 -144 -28
-24 c-28 -24 -29 -24 -218 -20 -155 3 -193 6 -206 19 -11 11 -17 47 -22 135
-5 94 -11 125 -26 148 -17 25 -20 47 -21 149 -1 151 0 147 -24 175 -17 20 -23
22 -46 12 -14 -7 -46 -12 -73 -12 -46 0 -48 1 -67 43 -20 45 -25 176 -6 200 5
7 21 46 36 87 31 86 68 133 120 150 20 6 38 16 41 21 4 5 17 9 30 9 20 0 25
-6 30 -45 4 -24 13 -50 21 -56 16 -13 57 -5 92 17 26 17 29 67 7 129 -24 66
-19 116 15 163 42 58 104 74 196 51z"/>
</g>
</svg>
