<svg version="1.0" xmlns="http://www.w3.org/2000/svg"
 width="668px" style="transform:scale(1,1.001);" height="375.75px" viewBox="0 0 320.000000 180.000000"
 preserveAspectRatio="xMidYMid meet">
<g transform="translate(0.000000,180.000000) scale(0.100000,-0.100000)"
fill="#000000" stroke="none">
<path d="M0 905 l0 -895 355 0 355 0 0 23 c0 13 -12 30 -30 42 -16 11 -30 23 -30 26 0
11 41 19 95 19 47 0 52 3 88 46 20 26 37 53 37 62 0 8 8 29 19 46 10 17 22 42
26 56 4 14 16 36 26 49 11 13 19 39 19 58 0 20 6 36 15 39 8 3 17 16 21 27 4
12 17 33 30 47 66 72 81 97 92 159 10 58 33 101 53 101 5 0 33 15 62 34 42 27
57 44 70 78 28 79 46 153 56 234 5 43 16 93 25 109 42 78 30 123 -59 220 -50
54 -55 64 -55 105 0 25 8 61 18 80 21 42 63 54 166 47 87 -6 95 -14 125 -133
17 -67 30 -95 51 -114 46 -41 111 -138 136 -204 14 -33 32 -74 40 -89 9 -15
18 -51 21 -80 6 -60 -9 -86 -67 -115 -35 -17 -35 -18 -41 -97 -7 -98 -15 -117
-73 -179 -25 -27 -46 -54 -46 -59 0 -6 -21 -49 -47 -96 -48 -86 -58 -109 -92
-211 -28 -84 -31 -112 -24 -226 l6 -104 879 0 878 0 0 895 0 895 -1600 0
-1600 0 0 -895z"/>
<path d="M1178 377 c-21 -17 -33 -43 -53 -120 -26 -103 -53 -164 -79 -186 -9 -8 -16
-24 -16 -37 0 -24 0 -24 120 -24 120 0 120 0 120 24 0 13 -7 29 -14 36 -24 19
-38 111 -34 221 2 62 -1 103 -7 105 -5 2 -22 -7 -37 -19z"/>
<path d="M881 111 c-6 -11 -35 -27 -66 -36 -46 -15 -55 -21 -55 -41 0 -23 2 -24 90 -24
l90 0 0 60 c0 57 -1 60 -25 60 -14 0 -29 -8 -34 -19z"/>
</g>
</svg>
