<svg version="1.0" xmlns="http://www.w3.org/2000/svg"
 width="668px" style="transform:scale(1,1.001);" height="375.75px" viewBox="0 0 320.000000 180.000000"
 preserveAspectRatio="xMidYMid meet">
<g transform="translate(0.000000,180.000000) scale(0.100000,-0.100000)"
fill="#000000" stroke="none">
<path d="M0 905 l0 -895 1600 0 1600 0 0 895 0 895 -1600 0 -1600 0 0 -895z m1585 760
c33 -16 77 -49 99 -73 50 -55 60 -126 28 -194 -12 -24 -30 -67 -42 -97 -18
-46 -19 -56 -7 -70 8 -9 17 -23 20 -33 3 -9 19 -19 36 -23 17 -4 36 -15 41
-25 5 -10 24 -22 42 -26 18 -3 39 -15 46 -25 6 -9 26 -20 42 -24 17 -4 38 -17
46 -30 9 -14 23 -27 33 -30 9 -3 33 -33 53 -68 27 -47 39 -83 47 -141 6 -43
14 -83 18 -90 4 -6 13 -42 19 -81 7 -38 19 -88 28 -110 22 -57 21 -167 -1
-194 -16 -18 -33 -21 -143 -27 -284 -13 -703 -12 -780 2 -41 8 -100 14 -131
14 -92 0 -114 45 -93 185 7 50 14 107 14 128 0 20 9 54 20 74 11 21 20 47 20
59 0 40 62 139 126 201 35 33 67 63 71 65 4 1 30 29 56 60 43 50 49 63 49 102
0 31 -7 54 -21 72 -12 15 -21 30 -21 35 0 5 -11 32 -24 61 -29 64 -42 152 -27
191 16 41 63 97 82 97 9 0 27 8 40 19 13 10 31 21 39 24 32 14 117 0 175 -28z"/>
</g>
</svg>
