<svg version="1.0" xmlns="http://www.w3.org/2000/svg"
 width="668px" style="transform:scale(1,1.001);" height="375.75px" viewBox="0 0 320.000000 180.000000"
 preserveAspectRatio="xMidYMid meet">
<g transform="translate(0.000000,180.000000) scale(0.100000,-0.100000)"
fill="#000000" stroke="none">
<path d="M0 905 l0 -895 1600 0 1600 0 0 895 0 895 -1600 0 -1600 0 0 -895z m2002 664
c91 -23 128 -46 211 -132 55 -59 57 -62 57 -116 0 -38 -6 -66 -19 -88 -11 -17
-25 -51 -31 -75 -7 -24 -18 -50 -25 -58 -22 -26 -65 -126 -65 -152 0 -46 39
-117 78 -142 57 -36 123 -73 167 -94 75 -36 186 -166 219 -258 8 -21 21 -52
30 -69 9 -16 16 -43 16 -58 0 -15 6 -43 14 -62 21 -49 3 -60 -93 -58 -138 3
-180 12 -208 43 -39 44 -105 49 -615 53 -411 3 -459 5 -483 21 -46 30 -51 58
-27 134 11 37 23 79 26 94 13 58 170 185 315 253 71 34 119 72 138 108 19 38
11 108 -17 144 -11 14 -20 31 -20 38 0 7 -10 28 -23 47 -13 18 -29 49 -35 68
-7 18 -20 42 -29 52 -11 12 -17 36 -17 67 0 56 17 80 122 171 102 90 174 105
314 69z"/>
</g>
</svg>
