<svg version="1.0" xmlns="http://www.w3.org/2000/svg"
 width="668px" style="transform:scale(1,1.001);" height="375.75px" viewBox="0 0 320.000000 180.000000"
 preserveAspectRatio="xMidYMid meet">
<g transform="translate(0.000000,180.000000) scale(0.100000,-0.100000)"
fill="#000000" stroke="none">
<path d="M0 905 l0 -895 1600 0 1600 0 0 895 0 895 -625 0 -625 0 0 -25 c0 -17 9 -29
28 -39 35 -18 72 -84 72 -129 0 -23 -9 -46 -24 -64 -39 -47 -57 -90 -50 -120
8 -31 86 -113 109 -113 17 0 91 -78 121 -128 30 -51 71 -176 78 -240 10 -97
-26 -202 -69 -202 -6 0 -26 -11 -43 -24 -18 -13 -50 -26 -71 -30 -31 -5 -43
-13 -61 -43 -19 -32 -20 -42 -11 -79 16 -64 14 -206 -3 -230 -14 -18 -29 -19
-256 -20 -289 -1 -270 -10 -270 136 0 87 -3 102 -29 151 -16 30 -34 79 -40
109 -15 70 -24 85 -119 187 -77 84 -105 203 -57 243 8 7 15 18 15 25 0 7 18
26 40 43 22 16 37 32 33 35 -3 4 6 11 21 16 14 6 26 14 26 19 0 15 105 89 145
102 20 7 49 18 63 26 15 8 34 14 43 14 9 0 30 5 48 11 26 9 31 16 31 42 0 18
-9 56 -20 85 -11 29 -20 63 -20 76 0 33 28 96 45 103 9 3 15 18 15 34 l0 29
-870 0 -870 0 0 -895z m1792 -759 c42 -8 84 -18 93 -24 30 -16 -40 -34 -160
-39 -98 -5 -112 -3 -127 13 -13 15 -14 22 -5 35 24 32 78 36 199 15z"/>
</g>
</svg>
