<svg version="1.0" xmlns="http://www.w3.org/2000/svg"
 width="668px" style="transform:scale(1,1.001);" height="375.75px" viewBox="0 0 320.000000 180.000000"
 preserveAspectRatio="xMidYMid meet">
<g transform="translate(0.000000,180.000000) scale(0.100000,-0.100000)"
fill="#000000" stroke="none">
<path d="M0 905 l0 -895 609 0 608 0 7 47 c8 62 15 72 61 87 73 26 115 -7 115 -91 l0
-43 171 0 172 0 -6 55 c-7 69 6 85 69 85 62 0 104 -40 104 -99 l0 -41 645 0
645 0 0 895 0 895 -1600 0 -1600 0 0 -895z m1683 734 c13 -6 33 -30 44 -52 18
-38 19 -47 7 -102 -22 -102 5 -145 90 -145 25 0 39 -9 68 -44 94 -112 132
-270 94 -391 -10 -30 -22 -58 -27 -61 -5 -3 -26 -40 -46 -82 -33 -68 -37 -86
-38 -152 0 -41 4 -112 9 -156 11 -104 5 -129 -35 -143 -66 -23 -182 -7 -225
31 -26 23 -47 23 -81 1 -35 -23 -214 -62 -240 -52 -49 18 -39 101 27 216 56
98 87 189 73 212 -22 35 -97 71 -162 77 -48 5 -72 14 -95 33 -17 14 -40 31
-50 37 -11 6 -28 26 -38 45 -18 34 -18 37 0 93 22 68 44 86 73 60 10 -9 19
-24 19 -32 0 -23 63 -79 102 -90 49 -13 87 -5 92 22 3 11 7 48 10 81 3 34 13
79 22 100 19 46 75 112 116 137 42 26 38 72 -12 149 -28 43 -40 73 -40 98 0
49 41 108 77 114 58 9 143 7 166 -4z"/>
</g>
</svg>
