<svg version="1.0" xmlns="http://www.w3.org/2000/svg"
 width="668px" style="transform:scale(1,1.001);" height="375.75px" viewBox="0 0 320.000000 180.000000"
 preserveAspectRatio="xMidYMid meet">
<g transform="translate(0.000000,180.000000) scale(0.100000,-0.100000)"
fill="#000000" stroke="none">
<path d="M0 905 l0 -895 705 0 c817 0 734 -16 660 128 -54 106 -63 149 -51 253 9 73 8
83 -17 146 -14 37 -28 77 -31 88 -8 28 18 207 49 350 15 66 30 140 35 165 13
69 27 98 54 112 14 7 36 28 49 45 l24 32 -28 59 c-25 52 -27 62 -17 95 9 28
22 43 56 62 55 31 105 32 156 2 44 -24 62 -67 53 -124 -3 -18 -1 -35 4 -39 6
-3 14 -17 19 -30 5 -13 24 -30 42 -37 18 -8 42 -24 52 -36 11 -11 25 -21 32
-21 6 0 23 -19 37 -42 58 -101 42 -232 -56 -436 l-32 -67 1 -195 c0 -107 4
-266 8 -352 l9 -158 694 0 693 0 0 895 0 895 -1600 0 -1600 0 0 -895z"/>
<path d="M1553 430 c-32 -100 -35 -132 -27 -281 l7 -139 80 0 79 0 -7 57 c-12 101 -80
384 -94 393 -4 3 -10 12 -13 20 -2 8 -14 -14 -25 -50z"/>
</g>
</svg>
