<svg version="1.0" xmlns="http://www.w3.org/2000/svg"
 width="668px" style="transform:scale(1,1.001);" height="375.75px" viewBox="0 0 320.000000 180.000000"
 preserveAspectRatio="xMidYMid meet">
<g transform="translate(0.000000,180.000000) scale(0.100000,-0.100000)"
fill="#000000" stroke="none">
<path d="M0 905 l0 -895 715 0 715 0 0 43 c0 44 17 84 74 172 18 28 47 82 65 120 18 39
44 93 58 120 26 48 42 80 69 135 29 61 35 131 23 283 -10 130 -14 154 -35 185
-13 19 -24 31 -24 27 0 -4 -6 -2 -14 4 -7 6 -35 14 -62 17 -42 6 -56 14 -95
55 -55 58 -59 73 -59 262 0 125 2 139 20 154 11 10 20 23 20 29 0 16 50 33 73
25 49 -18 72 -108 41 -166 -9 -16 -17 -55 -18 -85 l-1 -55 65 0 c98 1 118 9
126 50 5 26 2 41 -10 54 -25 28 -56 92 -56 117 0 62 120 156 190 147 69 -8 80
-14 107 -54 25 -39 27 -48 26 -138 -1 -53 1 -101 5 -107 19 -29 106 -66 184
-79 84 -13 127 -8 129 17 3 38 -6 65 -38 106 -45 59 -53 82 -46 126 8 50 33
55 88 15 44 -32 77 -83 91 -144 4 -16 24 -60 45 -97 41 -69 50 -128 30 -180
-9 -25 -72 -48 -170 -64 -23 -4 -56 -16 -74 -28 -30 -21 -33 -27 -45 -121 -23
-176 -26 -357 -8 -433 9 -37 21 -118 26 -179 7 -77 20 -142 40 -202 17 -49 30
-98 30 -110 l0 -21 450 0 450 0 0 895 0 895 -1600 0 -1600 0 0 -895z"/>
<path d="M1854 338 c-9 -17 -48 -64 -88 -104 -83 -85 -126 -133 -126 -143 0 -4 -11 -13
-25 -19 -17 -8 -25 -20 -25 -37 l0 -25 255 0 255 0 0 24 c0 13 -7 29 -15 36
-17 14 -93 170 -124 253 -10 26 -44 47 -76 47 -8 0 -22 -14 -31 -32z"/>
</g>
</svg>
