<svg version="1.0" xmlns="http://www.w3.org/2000/svg"
 width="668px" style="transform:scale(1,1.001);" height="375.75px" viewBox="0 0 320.000000 180.000000"
 preserveAspectRatio="xMidYMid meet">
<g transform="translate(0.000000,180.000000) scale(0.100000,-0.100000)"
fill="#000000" stroke="none">
<path d="M0 905 l0 -895 658 0 659 0 1 103 c0 56 8 172 16 257 26 254 21 329 -21 351
-40 21 -55 72 -61 201 -4 115 11 253 40 348 14 46 68 130 83 130 7 0 32 19 57
41 l44 42 -14 56 c-14 53 -13 58 8 99 26 49 40 54 135 50 l69 -3 12 -40 c8
-28 8 -60 2 -107 -10 -63 -9 -69 13 -97 13 -17 31 -33 40 -36 40 -14 78 -166
79 -315 0 -88 -27 -258 -45 -287 -12 -18 -21 -21 -48 -16 -17 3 -34 7 -36 9
-2 2 1 22 8 45 24 78 11 229 -19 229 -6 0 -18 -17 -27 -37 -18 -45 -12 -116
17 -204 11 -32 20 -78 20 -101 0 -24 7 -68 15 -98 21 -80 19 -113 -16 -181
-54 -108 -109 -242 -109 -266 0 -28 14 -57 46 -96 13 -16 24 -39 24 -53 l0
-24 775 0 775 0 0 895 0 895 -1600 0 -1600 0 0 -895z"/>
<path d="M1520 555 c0 -49 3 -65 10 -55 5 8 10 33 10 55 0 22 -5 47 -10 55 -7 10 -10
-6 -10 -55z"/>
<path d="M1447 64 c-4 -4 -7 -18 -7 -31 0 -21 5 -23 45 -23 41 0 45 2 45 25 0 17 -6 25
-17 25 -10 0 -27 3 -38 6 -11 3 -24 2 -28 -2z"/>
</g>
</svg>
