<svg version="1.0" xmlns="http://www.w3.org/2000/svg"
 width="668px" style="transform:scale(1,1.001);" height="375.75px" viewBox="0 0 320.000000 180.000000"
 preserveAspectRatio="xMidYMid meet">
<g transform="translate(0.000000,180.000000) scale(0.100000,-0.100000)"
fill="#000000" stroke="none">
<path d="M0 905 l0 -895 1600 0 1600 0 0 895 0 895 -1600 0 -1600 0 0 -895z m1830 777
c109 -63 157 -164 116 -244 -8 -15 -17 -42 -21 -60 -4 -18 -16 -47 -26 -64
-23 -37 -24 -66 -5 -102 17 -32 94 -98 130 -112 15 -5 26 -14 26 -19 0 -6 15
-18 33 -27 103 -53 169 -194 181 -385 4 -59 14 -131 21 -160 8 -30 15 -80 15
-112 0 -48 -4 -62 -23 -81 -23 -23 -27 -24 -173 -19 -82 2 -318 4 -524 4 -206
0 -391 4 -411 9 -23 7 -40 19 -47 35 -15 32 -15 95 -1 132 6 15 14 67 19 115
5 51 15 97 24 110 9 12 16 32 16 43 0 11 23 66 51 122 41 80 61 108 91 128 21
14 38 29 38 34 0 5 16 15 36 21 19 7 38 18 41 26 3 8 20 22 37 31 53 27 96 82
96 122 0 20 -6 46 -13 57 -77 135 -104 218 -86 272 13 39 88 122 111 122 8 0
23 9 33 20 15 16 30 20 84 19 57 0 74 -5 131 -37z"/>
</g>
</svg>
