<svg version="1.0" xmlns="http://www.w3.org/2000/svg"
 width="668px" style="transform:scale(1,1.001);" height="375.75px" viewBox="0 0 320.000000 180.000000"
 preserveAspectRatio="xMidYMid meet">
<g transform="translate(0.000000,180.000000) scale(0.100000,-0.100000)"
fill="#000000" stroke="none">
<path d="M0 905 l0 -895 1600 0 1600 0 0 895 0 895 -1600 0 -1600 0 0 -895z m1930 711
c124 -28 217 -105 246 -203 26 -89 10 -143 -100 -333 -51 -89 -25 -164 72
-206 31 -14 71 -31 87 -39 17 -7 47 -21 68 -30 41 -19 137 -118 137 -141 0 -8
9 -34 20 -58 10 -24 29 -89 40 -144 22 -107 19 -131 -19 -151 -16 -9 -917 -16
-1219 -9 -115 3 -125 5 -142 26 -11 13 -17 28 -15 35 3 7 9 42 14 79 6 40 18
80 30 97 12 16 21 38 21 48 0 11 12 37 28 57 78 108 161 166 324 226 36 13 68
34 88 57 30 34 32 40 28 99 -2 38 -10 70 -20 81 -8 10 -21 41 -27 68 -7 28
-19 60 -26 72 -20 30 -55 124 -55 146 0 54 107 169 200 217 63 32 99 33 220 6z"/>
</g>
</svg>
