<svg version="1.0" xmlns="http://www.w3.org/2000/svg"
 width="668px" style="transform:scale(1,1.001);" height="375.75px" viewBox="0 0 320.000000 180.000000"
 preserveAspectRatio="xMidYMid meet">
<g transform="translate(0.000000,180.000000) scale(0.100000,-0.100000)"
fill="#000000" stroke="none">
<path d="M0 905 l0 -895 1600 0 1600 0 0 895 0 895 -1600 0 -1600 0 0 -895z m1798 749
c40 -35 42 -39 42 -91 0 -37 -7 -68 -25 -103 -31 -61 -32 -86 -3 -101 13 -7
29 -18 36 -26 7 -7 22 -13 32 -13 26 0 85 -60 99 -101 23 -67 6 -164 -38 -212
-25 -28 -26 -32 -28 -185 -1 -86 -6 -188 -12 -227 -6 -38 -13 -106 -16 -150
-8 -123 -4 -121 -232 -117 -229 3 -238 6 -228 85 3 29 11 78 17 110 13 72 6
140 -31 290 -39 160 -59 179 -191 191 -41 3 -86 9 -99 12 l-24 7 6 146 c6 178
17 216 72 247 61 35 115 30 115 -11 0 -12 9 -30 20 -40 28 -25 25 -68 -5 -96
-13 -13 -25 -30 -25 -36 0 -20 54 -15 80 7 13 11 30 20 39 20 19 0 90 46 108
69 18 23 16 122 -3 167 -26 62 -14 120 32 160 38 32 42 33 129 34 89 0 90 0
133 -36z"/>
</g>
</svg>
