<svg version="1.0" xmlns="http://www.w3.org/2000/svg"
 width="668px" style="transform:scale(1,1.001);" height="375.75px" viewBox="0 0 320.000000 180.000000"
 preserveAspectRatio="xMidYMid meet">
<g transform="translate(0.000000,180.000000) scale(0.100000,-0.100000)"
fill="#000000" stroke="none">
<path d="M0 905 l0 -895 1600 0 1600 0 0 895 0 895 -1600 0 -1600 0 0 -895z m1546 600
c31 -32 34 -41 34 -93 l0 -59 48 -30 c26 -17 64 -36 84 -42 20 -7 42 -19 48
-27 7 -7 25 -14 41 -14 22 0 34 -8 49 -32 43 -71 19 -107 -70 -106 -33 0 -63
-2 -67 -6 -4 -3 -6 -21 -5 -39 1 -17 1 -130 1 -249 0 -230 14 -406 37 -476 16
-50 19 -155 4 -183 -12 -22 -62 -26 -78 -6 -6 7 -20 51 -30 97 -11 47 -30 110
-44 140 -28 64 -49 116 -73 182 -20 56 -27 63 -56 48 -27 -15 -49 -69 -49
-121 0 -37 40 -156 86 -256 40 -87 -16 -153 -129 -153 -77 0 -87 15 -52 77 15
27 27 62 27 80 -1 17 -20 69 -44 115 -41 79 -42 87 -41 168 1 96 23 184 62
250 15 25 32 56 39 70 7 14 19 36 27 50 20 35 18 74 -8 150 -19 57 -26 66 -54
74 -51 14 -95 -3 -118 -47 -23 -44 -78 -65 -129 -50 -41 12 -56 45 -56 125 0
57 3 70 23 88 19 18 30 21 74 15 41 -5 66 -2 108 14 31 12 67 21 81 21 57 0
94 52 74 104 -18 50 -12 76 29 117 50 50 81 51 127 4z"/>
</g>
</svg>
