<svg version="1.0" xmlns="http://www.w3.org/2000/svg"
 width="668px" style="transform:scale(1,1.001);" height="375.75px" viewBox="0 0 320.000000 180.000000"
 preserveAspectRatio="xMidYMid meet">
<g transform="translate(0.000000,180.000000) scale(0.100000,-0.100000)"
fill="#000000" stroke="none">
<path d="M0 905 l0 -895 480 0 480 0 0 23 c0 14 -9 27 -27 35 -16 7 -41 30 -58 49 -30
36 -30 37 -34 187 l-3 151 50 42 c27 23 60 45 74 48 13 3 36 22 52 41 24 31
29 48 38 142 5 59 15 116 22 127 8 11 17 44 21 73 9 70 54 127 112 143 44 12
73 41 108 109 14 27 19 61 21 150 3 151 24 211 96 271 42 36 59 43 104 47 46
4 57 1 84 -22 18 -14 36 -26 41 -26 13 0 99 -80 99 -92 0 -6 9 -22 19 -37 10
-14 22 -52 26 -82 8 -68 -19 -143 -57 -158 -30 -11 -45 -29 -53 -63 -6 -23 -3
-29 18 -39 28 -13 127 -129 127 -149 0 -7 10 -29 22 -49 22 -35 22 -43 20
-263 -2 -209 -1 -234 19 -298 25 -83 21 -136 -16 -202 -48 -85 -65 -122 -65
-140 0 -17 31 -18 690 -18 l690 0 0 895 0 895 -1600 0 -1600 0 0 -895z"/>
</g>
</svg>
