<svg version="1.0" xmlns="http://www.w3.org/2000/svg"
 width="668px" style="transform:scale(1,1.001);" height="375.75px" viewBox="0 0 320.000000 180.000000"
 preserveAspectRatio="xMidYMid meet">
<g transform="translate(0.000000,180.000000) scale(0.100000,-0.100000)"
fill="#000000" stroke="none">
<path d="M0 905 l0 -895 1600 0 1600 0 0 895 0 895 -1600 0 -1600 0 0 -895z m1789 589
c58 -7 112 -52 141 -116 17 -37 20 -66 20 -204 0 -155 1 -163 25 -198 14 -20
25 -41 25 -47 0 -16 83 -100 117 -117 125 -65 268 -164 282 -195 2 -5 16 -24
32 -42 16 -18 29 -38 29 -44 0 -7 9 -29 20 -51 22 -43 25 -82 10 -126 -20 -58
3 -56 -703 -55 -562 1 -654 3 -674 16 -20 13 -23 24 -23 74 0 35 7 76 19 102
10 24 22 63 26 87 4 25 14 46 25 52 9 5 23 22 29 37 7 15 32 42 55 60 56 41
166 93 197 93 13 0 40 14 59 30 l35 29 -29 30 c-17 17 -35 31 -40 31 -6 0 -30
17 -53 38 -22 21 -60 51 -83 67 -23 16 -46 39 -50 51 -5 12 -14 25 -19 29 -15
9 -14 57 2 80 8 11 17 35 20 53 4 19 18 47 32 64 14 16 25 35 25 42 0 18 70
78 120 103 25 12 81 31 125 41 70 17 85 17 118 6 21 -7 60 -16 86 -20z"/>
</g>
</svg>
