<svg version="1.0" xmlns="http://www.w3.org/2000/svg"
 width="668px" style="transform:scale(1,1.001);" height="375.75px" viewBox="0 0 320.000000 180.000000"
 preserveAspectRatio="xMidYMid meet">
<g transform="translate(0.000000,180.000000) scale(0.100000,-0.100000)"
fill="#000000" stroke="none">
<path d="M0 905 l0 -895 141 0 141 0 -7 48 c-6 48 11 136 40 207 8 18 20 66 26 107 6
40 21 102 34 138 12 36 26 97 30 135 4 38 14 87 22 107 l15 38 64 0 c35 0 64
4 64 9 0 4 13 24 28 44 27 34 29 42 40 204 14 186 25 248 54 279 10 12 22 43
27 70 6 41 17 59 67 111 35 36 71 64 89 69 17 4 41 15 55 24 14 9 50 25 80 35
30 9 72 28 93 42 21 13 64 28 95 33 84 14 132 38 132 67 l0 23 -665 0 -665 0
0 -895z"/>
<path d="M1690 1776 c0 -20 11 -30 54 -50 30 -14 59 -26 65 -26 6 0 22 -21 35 -47 13
-27 33 -57 45 -67 12 -11 21 -29 21 -42 0 -35 18 -74 43 -94 20 -17 22 -26 22
-133 l0 -114 -31 -29 c-17 -16 -34 -39 -38 -51 -4 -12 -13 -23 -20 -26 -7 -3
-35 -45 -61 -93 l-48 -89 6 -83 c4 -65 10 -91 29 -120 14 -20 28 -52 31 -71 6
-30 30 -64 98 -140 11 -13 28 -47 36 -75 8 -28 22 -64 31 -81 9 -16 26 -61 38
-100 11 -38 29 -87 38 -108 l16 -37 -32 -20 c-18 -11 -36 -20 -40 -20 -5 0 -8
-11 -8 -25 l0 -25 590 0 590 0 0 895 0 895 -755 0 -755 0 0 -24z"/>
</g>
</svg>
