<svg version="1.0" xmlns="http://www.w3.org/2000/svg"
 width="668px" style="transform:scale(1,1.001);" height="375.75px" viewBox="0 0 320.000000 180.000000"
 preserveAspectRatio="xMidYMid meet">
<g transform="translate(0.000000,180.000000) scale(0.100000,-0.100000)"
fill="#000000" stroke="none">
<path d="M0 905 l0 -895 1600 0 1600 0 0 895 0 895 -1600 0 -1600 0 0 -895z m1732 575
c34 -11 69 -20 76 -20 27 0 102 -73 122 -118 25 -56 28 -204 5 -278 -17 -55
-20 -120 -6 -128 5 -3 12 -18 15 -32 9 -34 52 -70 135 -112 36 -19 73 -40 81
-47 8 -7 25 -16 36 -19 12 -4 31 -14 43 -24 12 -9 33 -26 47 -37 37 -29 97
-112 122 -169 30 -66 29 -120 -2 -150 -44 -45 -92 -48 -729 -42 -327 3 -601 8
-610 12 -41 15 -46 155 -7 239 10 22 21 49 24 61 8 28 72 91 116 115 19 11 42
23 50 28 36 23 131 61 150 61 11 0 32 12 45 26 20 22 23 30 13 48 -13 26 -113
122 -162 156 -19 14 -40 38 -45 53 -14 38 -3 117 19 142 10 11 21 31 25 45 4
14 18 37 31 52 12 16 25 37 29 48 3 11 12 20 20 20 7 0 26 11 42 24 16 13 45
27 66 31 20 4 53 13 74 21 53 19 101 17 175 -6z"/>
</g>
</svg>
