<svg version="1.0" xmlns="http://www.w3.org/2000/svg"
 width="668px" style="transform:scale(1,1.001);" height="375.75px" viewBox="0 0 320.000000 180.000000"
 preserveAspectRatio="xMidYMid meet">
<g transform="translate(0.000000,180.000000) scale(0.100000,-0.100000)"
fill="#000000" stroke="none">
<path d="M0 905 l0 -895 1600 0 1600 0 0 895 0 895 -1600 0 -1600 0 0 -895z m1579 735
c24 -11 49 -20 55 -20 20 0 83 -73 95 -111 10 -30 9 -51 -5 -110 -9 -41 -23
-84 -31 -97 -8 -13 -15 -41 -16 -63 -1 -37 3 -45 48 -84 28 -25 55 -44 62 -45
6 0 25 -11 41 -25 17 -14 37 -25 45 -25 27 0 114 -81 153 -141 24 -39 58 -167
69 -264 4 -33 13 -80 20 -105 19 -62 28 -152 20 -189 -13 -59 -7 -59 -590 -57
-591 1 -574 -1 -593 68 -12 43 18 272 41 315 9 18 17 38 17 45 0 22 56 131 87
169 16 20 49 54 75 75 47 40 59 49 139 110 69 52 72 110 8 179 -38 43 -89 155
-89 199 0 64 47 125 133 172 55 30 153 32 216 4z"/>
</g>
</svg>
