<svg version="1.0" xmlns="http://www.w3.org/2000/svg"
 width="668px" style="transform:scale(1,1.001);" height="375.75px" viewBox="0 0 320.000000 180.000000"
 preserveAspectRatio="xMidYMid meet">
<g transform="translate(0.000000,180.000000) scale(0.100000,-0.100000)"
fill="#000000" stroke="none">
<path d="M0 905 l0 -895 544 0 544 0 1 155 c1 85 6 176 12 202 5 27 14 122 20 213 11
202 22 290 44 354 11 33 15 63 11 89 -19 118 -61 86 -74 -57 -5 -50 -12 -72
-24 -80 -22 -13 -48 0 -63 32 -5 12 -19 22 -30 24 -34 5 -30 52 15 167 23 58
51 126 62 151 11 24 24 54 29 65 40 89 99 157 155 177 43 15 54 39 54 118 0
82 25 111 101 118 66 5 88 -10 144 -95 21 -32 47 -71 58 -86 32 -48 38 -86 26
-167 -12 -84 -3 -128 30 -137 22 -6 51 -59 51 -95 0 -43 -36 -83 -108 -119
-59 -29 -74 -55 -61 -101 5 -21 25 -131 44 -245 37 -221 68 -391 85 -461 6
-24 13 -84 17 -133 l6 -89 753 0 754 0 0 895 0 895 -1600 0 -1600 0 0 -895z"/>
<path d="M1332 692 c-37 -33 -148 -511 -151 -654 l-1 -28 205 0 205 0 0 23 c0 22 -27
134 -74 302 -22 81 -72 221 -113 316 -21 49 -46 63 -71 41z"/>
</g>
</svg>
