<svg version="1.0" xmlns="http://www.w3.org/2000/svg"
 width="668px" style="transform:scale(1,1.001);" height="375.75px" viewBox="0 0 320.000000 180.000000"
 preserveAspectRatio="xMidYMid meet">
<g transform="translate(0.000000,180.000000) scale(0.100000,-0.100000)"
fill="#000000" stroke="none">
<path d="M0 905 l0 -895 620 0 620 0 0 28 c0 15 9 47 20 71 11 24 20 54 20 67 0 28 -20
74 -32 74 -5 0 -19 21 -30 47 -20 44 -20 59 -14 219 4 104 12 192 21 221 8 26
15 61 15 77 0 30 82 225 113 266 19 26 75 71 115 91 16 9 22 22 23 48 2 84 38
131 100 131 34 0 47 -6 76 -35 38 -38 38 -38 17 -165 -5 -30 0 -42 30 -80 20
-26 45 -74 56 -109 20 -65 49 -121 62 -121 4 0 19 -11 34 -25 15 -14 32 -25
39 -25 7 0 25 -16 40 -36 25 -33 27 -40 17 -68 -6 -17 -11 -50 -10 -73 3 -51
-13 -73 -38 -52 -9 7 -20 24 -25 36 -5 13 -20 27 -33 33 -13 5 -41 29 -62 54
-21 25 -44 46 -50 46 -7 0 -32 30 -55 66 l-43 66 -31 -34 c-29 -32 -32 -42
-45 -154 -13 -120 -10 -199 9 -284 6 -25 10 -120 11 -212 l0 -168 805 0 805 0
0 895 0 895 -1600 0 -1600 0 0 -895z"/>
<path d="M1385 493 c-3 -21 -10 -54 -15 -74 -16 -61 -11 -101 20 -168 42 -89 39 -125
-17 -166 -27 -19 -42 -38 -42 -52 -1 -22 2 -23 95 -23 l96 0 -5 27 c-3 16 -13
53 -22 83 -8 30 -22 93 -30 140 -34 202 -50 270 -66 270 -5 0 -11 -17 -14 -37z"/>
</g>
</svg>
