<svg version="1.0" xmlns="http://www.w3.org/2000/svg"
 width="668px" style="transform:scale(1,1.001);" height="375.75px" viewBox="0 0 320.000000 180.000000"
 preserveAspectRatio="xMidYMid meet">
<g transform="translate(0.000000,180.000000) scale(0.100000,-0.100000)"
fill="#000000" stroke="none">
<path d="M0 905 l0 -895 1600 0 1600 0 0 895 0 895 -1600 0 -1600 0 0 -895z m1598 789
c4 -6 25 -21 48 -32 53 -27 101 -83 110 -127 9 -49 -13 -162 -38 -196 -15 -19
-21 -43 -21 -75 0 -53 13 -67 100 -109 28 -14 55 -30 58 -35 4 -6 21 -17 38
-25 99 -46 180 -139 191 -220 7 -53 36 -193 64 -315 20 -90 23 -223 4 -242
-10 -10 -96 -15 -355 -21 -478 -11 -539 -11 -647 -2 -113 9 -136 20 -143 72
-6 54 10 283 22 297 6 7 15 34 21 61 27 122 94 215 255 354 50 43 75 83 75
119 0 15 -25 72 -56 126 -60 107 -75 168 -55 227 11 35 74 109 92 109 6 0 27
12 47 26 33 22 45 25 110 22 40 -2 76 -8 80 -14z"/>
</g>
</svg>
