<svg version="1.0" xmlns="http://www.w3.org/2000/svg"
 width="668px" style="transform:scale(1,1.001);" height="375.75px" viewBox="0 0 320.000000 180.000000"
 preserveAspectRatio="xMidYMid meet">
<g transform="translate(0.000000,180.000000) scale(0.100000,-0.100000)"
fill="#000000" stroke="none">
<path d="M0 905 l0 -895 606 0 607 0 -6 34 c-5 29 0 38 34 72 48 46 50 80 12 132 -16
20 -30 39 -33 42 -21 21 -60 93 -70 127 -9 35 -8 54 6 100 9 32 22 65 29 73 7
8 14 20 16 25 2 6 30 53 62 107 61 102 69 141 42 188 -8 14 -19 35 -24 46 -17
37 -71 68 -114 67 -56 -3 -81 -24 -107 -90 -27 -65 -68 -123 -88 -123 -22 0
-82 51 -100 84 -21 39 -24 198 -4 218 9 9 38 12 95 10 74 -2 89 1 157 32 41
18 88 38 104 45 30 12 30 10 10 122 -7 41 14 92 45 109 37 19 107 12 137 -14
24 -20 28 -32 32 -92 3 -57 9 -74 30 -96 14 -16 31 -28 36 -28 26 0 119 -52
152 -84 20 -20 46 -38 58 -42 53 -17 236 -248 236 -299 0 -15 -8 -26 -21 -30
-19 -6 -21 -12 -15 -51 8 -63 -6 -94 -44 -94 -35 0 -48 23 -76 133 -20 78 -56
140 -91 156 -46 21 -57 -3 -64 -132 -4 -62 -14 -148 -24 -191 -20 -87 -22 -62
31 -332 18 -92 21 -130 14 -155 -6 -19 -10 -42 -10 -51 0 -17 42 -18 770 -18
l770 0 0 895 0 895 -1600 0 -1600 0 0 -895z"/>
<path d="M1395 558 c-34 -20 -54 -51 -65 -102 -10 -48 -10 -50 50 -173 45 -94 60 -135
60 -168 0 -24 -4 -47 -10 -50 -5 -3 -10 -17 -10 -31 0 -24 1 -24 90 -24 89 0
90 0 90 25 0 13 -9 39 -20 57 -11 18 -22 53 -26 78 -4 25 -12 56 -19 70 -7 14
-19 40 -25 58 -7 17 -16 32 -20 32 -13 0 -50 120 -50 159 0 41 -9 81 -19 81
-3 0 -15 -6 -26 -12z"/>
</g>
</svg>
