<svg version="1.0" xmlns="http://www.w3.org/2000/svg"
 width="668px" style="transform:scale(1,1.001);" height="375.75px" viewBox="0 0 320.000000 180.000000"
 preserveAspectRatio="xMidYMid meet">
<g transform="translate(0.000000,180.000000) scale(0.100000,-0.100000)"
fill="#000000" stroke="none">
<path d="M0 905 l0 -895 1600 0 1600 0 0 895 0 895 -794 0 -794 0 -7 -75 c-3 -41 -4
-79 0 -85 9 -15 82 -12 115 5 16 9 33 27 36 40 8 34 46 33 78 -2 26 -27 63
-121 73 -179 9 -60 -6 -72 -101 -75 -102 -5 -110 -11 -165 -123 -62 -125 -56
-167 62 -401 66 -132 76 -176 47 -223 -26 -43 -61 -55 -142 -49 l-66 4 -6 -30
c-3 -16 -6 -44 -6 -63 0 -65 -47 -57 -106 19 -22 28 -46 68 -54 87 -7 19 -20
43 -28 52 -17 20 -13 131 5 149 6 6 26 14 45 18 35 7 46 32 16 37 -17 2 -62
47 -82 82 -25 42 -38 130 -43 284 -4 117 -9 171 -18 178 -7 6 -32 14 -56 18
-41 7 -44 10 -57 52 -7 25 -11 60 -8 78 6 40 71 142 91 142 8 0 34 -20 58 -45
25 -25 49 -45 55 -45 6 0 17 -3 25 -6 27 -10 38 28 22 80 -8 25 -12 53 -9 61
5 13 -80 15 -690 15 l-696 0 0 -895z m1310 -246 c0 -19 -5 -29 -15 -29 -11 0
-15 11 -15 41 0 36 2 40 15 29 8 -7 15 -25 15 -41z"/>
</g>
</svg>
