<svg version="1.0" xmlns="http://www.w3.org/2000/svg"
 width="668px" style="transform:scale(1,1.001);" height="375.75px" viewBox="0 0 320.000000 180.000000"
 preserveAspectRatio="xMidYMid meet">
<g transform="translate(0.000000,180.000000) scale(0.100000,-0.100000)"
fill="#000000" stroke="none">
<path d="M0 905 l0 -895 773 0 773 0 -4 203 c-4 196 -3 206 26 332 17 72 33 146 36 165
11 67 37 345 37 403 1 58 0 59 -56 112 -63 61 -75 90 -75 185 0 139 37 255
101 316 16 15 29 38 29 51 l0 23 -820 0 -820 0 0 -895z"/>
<path d="M1910 1776 c0 -13 7 -43 15 -67 9 -25 15 -71 14 -111 -2 -88 21 -116 115 -133
34 -7 41 -13 63 -62 24 -51 25 -63 21 -172 -4 -86 -12 -136 -31 -196 -14 -44
-28 -107 -32 -140 -4 -33 -15 -96 -26 -140 -11 -46 -19 -116 -19 -165 0 -47
-7 -148 -15 -225 -8 -77 -18 -188 -21 -247 l-7 -108 606 0 607 0 0 895 0 895
-645 0 -645 0 0 -24z"/>
</g>
</svg>
