<svg version="1.0" xmlns="http://www.w3.org/2000/svg"
 width="668px" style="transform:scale(1,1.001);" height="375.75px" viewBox="0 0 320.000000 180.000000"
 preserveAspectRatio="xMidYMid meet">
<g transform="translate(0.000000,180.000000) scale(0.100000,-0.100000)"
fill="#000000" stroke="none">
<path d="M0 905 l0 -895 1600 0 1600 0 0 895 0 895 -1600 0 -1600 0 0 -895z m1733 593
c105 -17 145 -47 182 -137 27 -67 28 -81 29 -220 1 -146 2 -148 29 -180 15
-18 27 -39 27 -46 0 -21 61 -81 100 -99 110 -52 300 -186 300 -212 0 -6 6 -17
14 -23 7 -6 28 -41 46 -77 28 -58 32 -73 27 -117 -11 -92 4 -90 -741 -84 -541
4 -630 7 -643 20 -24 23 -27 95 -8 147 9 25 22 68 29 95 17 76 81 148 180 201
56 31 115 54 148 59 23 4 42 14 52 30 16 24 15 26 -16 55 -18 16 -39 30 -46
30 -7 0 -31 17 -55 39 -23 21 -54 44 -68 52 -15 8 -39 29 -54 47 -36 44 -39
110 -7 145 12 13 22 31 22 41 0 24 47 102 85 139 53 53 180 104 263 106 18 1
66 -4 105 -11z"/>
</g>
</svg>
