<svg version="1.0" xmlns="http://www.w3.org/2000/svg"
 width="668px" style="transform:scale(1,1.001);" height="375.75px" viewBox="0 0 320.000000 180.000000"
 preserveAspectRatio="xMidYMid meet">
<g transform="translate(0.000000,180.000000) scale(0.100000,-0.100000)"
fill="#000000" stroke="none">
<path d="M0 905 l0 -895 903 0 904 0 -1 83 c-1 76 2 87 28 127 15 23 32 56 37 72 7 25
5 30 -18 39 -32 12 -70 -10 -79 -45 -5 -22 -31 -42 -41 -32 -2 2 -5 21 -6 42
-1 31 9 54 47 114 125 193 170 294 191 429 22 147 22 183 -1 196 -10 5 -28 20
-40 33 -11 12 -26 22 -33 22 -18 0 -51 62 -51 98 0 24 10 41 41 72 23 22 49
40 59 40 9 0 29 9 43 20 34 27 59 25 119 -9 50 -29 87 -80 88 -123 0 -10 15
-25 33 -34 17 -9 39 -22 47 -29 8 -7 26 -16 40 -20 31 -9 102 -82 137 -143 27
-45 38 -80 74 -222 24 -99 24 -122 -6 -189 -13 -31 -29 -74 -34 -96 -6 -22
-38 -80 -71 -130 -33 -49 -70 -103 -80 -120 -16 -24 -20 -47 -20 -112 l0 -83
445 0 445 0 0 895 0 895 -1600 0 -1600 0 0 -895z"/>
<path d="M2054 147 c-22 -19 -28 -34 -32 -80 l-4 -57 57 0 58 0 -7 52 c-6 46 -30 108
-41 108 -2 0 -16 -10 -31 -23z"/>
</g>
</svg>
