<svg version="1.0" xmlns="http://www.w3.org/2000/svg"
 width="668px" style="transform:scale(1,1.001);" height="375.75px" viewBox="0 0 320.000000 180.000000"
 preserveAspectRatio="xMidYMid meet">
<g transform="translate(0.000000,180.000000) scale(0.100000,-0.100000)"
fill="#000000" stroke="none">
<path d="M0 905 l0 -895 1600 0 1600 0 0 895 0 895 -1600 0 -1600 0 0 -895z m1817 735
c21 -11 44 -20 51 -20 8 0 31 -17 52 -38 30 -31 39 -49 45 -90 7 -56 -8 -154
-31 -189 -8 -12 -14 -35 -14 -52 0 -42 89 -118 214 -181 55 -29 106 -59 113
-67 10 -13 100 -70 207 -131 16 -10 50 -32 77 -49 27 -18 52 -33 57 -33 4 0
16 -15 26 -32 11 -18 28 -43 39 -55 14 -16 20 -37 20 -67 0 -45 -16 -73 -88
-146 -18 -18 -26 -41 -31 -82 l-7 -57 -46 -6 c-25 -3 -57 -9 -71 -12 -14 -4
-84 -7 -155 -8 -95 -2 -146 -7 -185 -20 -48 -16 -78 -17 -280 -11 -281 8 -514
24 -548 37 -15 6 -71 14 -125 19 -54 5 -101 10 -103 13 -3 2 2 24 10 48 20 56
20 110 1 155 -8 20 -21 75 -29 122 -7 48 -21 104 -30 126 -24 58 -21 82 13 96
16 6 40 9 52 5 37 -12 128 -6 159 10 17 9 67 54 113 100 76 79 88 87 151 105
92 26 116 43 116 81 0 36 -11 58 -61 122 -64 80 -66 182 -5 238 89 81 216 111
293 69z"/>
</g>
</svg>
