<svg version="1.0" xmlns="http://www.w3.org/2000/svg"
 width="668px" style="transform:scale(1,1.001);" height="375.75px" viewBox="0 0 320.000000 180.000000"
 preserveAspectRatio="xMidYMid meet">
<g transform="translate(0.000000,180.000000) scale(0.100000,-0.100000)"
fill="#000000" stroke="none">
<path d="M0 905 l0 -895 735 0 735 0 0 23 c0 13 -8 31 -17 40 -16 14 -24 14 -76 0 -71
-18 -82 -14 -101 31 -8 19 -27 42 -43 52 -43 27 -53 44 -53 91 0 23 -6 47 -12
52 -100 78 -115 115 -80 203 11 29 24 73 28 98 3 25 24 90 45 144 22 55 39
106 39 113 0 32 59 141 89 163 82 63 84 66 79 134 -5 60 3 92 26 108 13 9 158
10 181 2 20 -8 45 -56 45 -86 0 -13 -9 -38 -20 -56 -11 -18 -20 -37 -20 -42 0
-5 20 -39 44 -74 60 -87 70 -142 63 -326 -3 -80 -11 -163 -17 -185 -21 -81
-34 -122 -66 -220 -32 -98 -54 -196 -54 -242 l0 -23 825 0 825 0 0 895 0 895
-1600 0 -1600 0 0 -895z"/>
<path d="M1162 587 c-25 -27 -28 -50 -8 -66 18 -15 32 2 41 52 8 43 -2 47 -33 14z"/>
<path d="M1403 403 c-29 -44 -29 -73 1 -95 23 -16 24 -16 28 0 2 9 2 42 -1 73 l-6 56
-22 -34z"/>
</g>
</svg>
