<svg version="1.0" xmlns="http://www.w3.org/2000/svg"
 width="668px" style="transform:scale(1,1.001);" height="375.75px" viewBox="0 0 320.000000 180.000000"
 preserveAspectRatio="xMidYMid meet">
<g transform="translate(0.000000,180.000000) scale(0.100000,-0.100000)"
fill="#000000" stroke="none">
<path d="M0 905 l0 -895 1600 0 1600 0 0 895 0 895 -1600 0 -1600 0 0 -895z m1831 795
c15 -11 38 -22 50 -25 39 -10 98 -69 113 -112 12 -35 12 -51 -1 -119 -8 -43
-22 -88 -32 -99 -9 -11 -24 -36 -32 -55 -25 -56 -10 -90 69 -154 37 -31 87
-72 112 -92 69 -56 127 -137 135 -187 4 -23 13 -63 20 -90 8 -26 17 -86 20
-135 3 -48 13 -120 22 -161 17 -84 8 -137 -27 -159 -24 -14 -250 -16 -783 -4
l-329 7 -24 28 c-28 33 -30 67 -10 146 8 31 19 85 24 121 10 69 31 134 69 214
13 28 23 55 24 60 2 31 77 110 170 178 168 124 179 135 179 177 0 20 -9 52
-19 71 -45 81 -70 137 -76 173 -15 80 19 146 97 190 22 12 54 30 71 40 39 22
118 15 158 -13z"/>
</g>
</svg>
