<svg version="1.0" xmlns="http://www.w3.org/2000/svg"
 width="668px" style="transform:scale(1,1.001);" height="375.75px" viewBox="0 0 320.000000 180.000000"
 preserveAspectRatio="xMidYMid meet">
<g transform="translate(0.000000,180.000000) scale(0.100000,-0.100000)"
fill="#000000" stroke="none">
<path d="M0 905 l0 -895 1600 0 1600 0 0 895 0 895 -1600 0 -1600 0 0 -895z m1835 713
c131 -50 225 -154 225 -250 0 -30 -8 -65 -19 -87 -56 -105 -101 -212 -101
-238 0 -88 82 -168 198 -194 111 -24 227 -141 252 -252 6 -27 17 -58 24 -70
20 -30 39 -142 31 -178 -9 -40 -35 -51 -103 -44 -31 3 -336 7 -677 8 -342 2
-626 7 -633 11 -42 26 38 320 112 411 36 44 143 106 205 120 37 8 153 64 163
79 4 6 8 41 8 77 0 59 -3 71 -30 104 -16 21 -30 44 -30 52 0 8 -11 31 -25 51
-14 20 -25 41 -25 47 0 6 -11 27 -25 47 -16 24 -25 51 -25 77 0 35 8 49 59
105 86 96 110 113 211 150 30 11 146 -4 205 -26z"/>
</g>
</svg>
