<svg version="1.0" xmlns="http://www.w3.org/2000/svg"
 width="668px" style="transform:scale(1,1.001);" height="375.75px" viewBox="0 0 320.000000 180.000000"
 preserveAspectRatio="xMidYMid meet">
<g transform="translate(0.000000,180.000000) scale(0.100000,-0.100000)"
fill="#000000" stroke="none">
<path d="M0 905 l0 -895 1600 0 1600 0 0 895 0 895 -1600 0 -1600 0 0 -895z m1689 775
c68 -35 126 -94 136 -140 10 -46 -3 -139 -25 -177 -25 -43 -35 -116 -21 -151
13 -28 67 -73 130 -106 20 -11 42 -28 49 -38 7 -10 19 -18 26 -18 17 0 96 -62
96 -75 0 -6 11 -21 25 -33 14 -12 25 -31 25 -42 0 -12 7 -34 15 -50 9 -17 17
-73 21 -142 4 -69 14 -135 26 -170 14 -41 18 -77 16 -134 -3 -78 -3 -79 -35
-94 -26 -12 -70 -15 -225 -13 -106 2 -339 3 -517 3 -338 1 -369 5 -385 45 -9
24 -7 163 3 210 16 76 32 140 47 185 9 25 20 63 26 85 6 22 19 49 29 61 11 11
19 24 19 28 0 15 44 60 110 111 151 116 180 145 180 174 0 15 -15 49 -33 76
-47 73 -85 150 -92 188 -16 83 38 172 130 216 83 41 145 41 224 1z"/>
</g>
</svg>
