<svg version="1.0" xmlns="http://www.w3.org/2000/svg"
 width="668px" style="transform:scale(1,1.001);" height="375.75px" viewBox="0 0 320.000000 180.000000"
 preserveAspectRatio="xMidYMid meet">
<g transform="translate(0.000000,180.000000) scale(0.100000,-0.100000)"
fill="#000000" stroke="none">
<path d="M0 905 l0 -895 530 0 530 0 0 24 c0 42 -21 49 -125 42 -110 -8 -110 -8 -110
85 1 36 8 71 22 100 44 90 71 165 77 216 4 28 13 67 20 85 8 18 17 67 21 108
4 48 15 92 31 122 13 26 24 55 24 64 0 10 24 41 54 69 79 77 87 93 81 154 -7
73 -15 101 -30 101 -14 0 -30 199 -19 254 7 43 67 101 137 135 55 27 114 23
176 -10 20 -10 43 -19 52 -19 18 0 77 -64 90 -98 5 -13 9 -54 9 -91 0 -55 -4
-73 -24 -100 -42 -56 -50 -85 -33 -118 13 -23 26 -32 68 -41 30 -7 64 -22 76
-34 14 -13 43 -24 79 -29 33 -4 65 -16 78 -27 11 -11 36 -23 53 -27 18 -3 39
-15 45 -24 7 -10 28 -26 46 -35 18 -9 42 -26 53 -37 10 -10 25 -19 33 -19 8 0
21 -9 29 -20 8 -11 28 -25 45 -31 71 -24 113 -128 77 -189 -8 -14 -22 -41 -31
-60 -9 -19 -25 -45 -35 -59 -10 -13 -19 -30 -19 -38 0 -13 -93 -146 -126 -180
-40 -41 -63 -105 -91 -246 l-5 -27 656 0 656 0 0 895 0 895 -1600 0 -1600 0 0
-895z"/>
</g>
</svg>
