<svg version="1.0" xmlns="http://www.w3.org/2000/svg"
 width="668px" style="transform:scale(1,1.001);" height="375.75px" viewBox="0 0 320.000000 180.000000"
 preserveAspectRatio="xMidYMid meet">
<g transform="translate(0.000000,180.000000) scale(0.100000,-0.100000)"
fill="#000000" stroke="none">
<path d="M0 905 l0 -895 1600 0 1600 0 0 895 0 895 -1600 0 -1600 0 0 -895z m1443 793
c13 -14 33 -29 44 -32 33 -10 57 -87 50 -156 -8 -74 6 -116 47 -137 17 -9 37
-24 43 -34 7 -9 31 -20 53 -24 23 -4 54 -18 69 -31 16 -13 39 -24 51 -24 24 0
90 -65 116 -112 14 -26 28 -93 58 -273 8 -44 23 -113 35 -152 67 -230 64 -208
45 -318 -14 -87 -14 -115 -4 -208 12 -102 12 -109 -6 -122 -15 -12 -75 -14
-320 -15 -194 0 -312 4 -333 11 -39 14 -40 34 -4 105 40 79 29 95 -86 130 -70
22 -88 31 -80 41 6 7 15 29 21 50 5 21 13 54 18 74 16 61 -22 147 -111 260
l-21 27 20 103 c11 57 23 122 27 143 5 30 20 53 62 95 73 73 70 91 -29 195
-103 110 -120 143 -116 233 4 80 23 118 74 142 16 7 38 22 49 31 28 25 50 29
132 26 63 -3 76 -6 96 -28z"/>
</g>
</svg>
