<svg version="1.0" xmlns="http://www.w3.org/2000/svg"
 width="668px" style="transform:scale(1,1.001);" height="375.75px" viewBox="0 0 320.000000 180.000000"
 preserveAspectRatio="xMidYMid meet">
<g transform="translate(0.000000,180.000000) scale(0.100000,-0.100000)"
fill="#000000" stroke="none">
<path d="M0 905 l0 -895 1600 0 1600 0 0 895 0 895 -1600 0 -1600 0 0 -895z m1560 688
c45 -43 51 -76 25 -151 -14 -40 -14 -46 2 -73 10 -16 26 -29 38 -29 29 -1 90
-24 121 -46 15 -11 34 -24 44 -29 27 -16 101 -105 115 -139 41 -96 51 -194 24
-221 -8 -8 -37 -18 -64 -21 -60 -8 -75 -24 -75 -82 0 -24 -6 -53 -12 -65 -9
-14 -15 -85 -18 -197 -4 -125 -10 -184 -20 -205 l-15 -30 -189 -3 c-215 -3
-228 1 -246 68 -6 24 -8 70 -4 114 10 114 5 126 -73 150 -18 6 -25 1 -37 -22
-26 -51 -65 -52 -91 -1 -8 15 -15 40 -15 55 0 26 48 114 62 114 4 0 17 18 28
40 15 29 20 59 20 113 0 123 38 214 131 309 57 59 60 65 56 103 -2 23 -18 61
-37 88 -42 62 -36 101 22 158 38 37 43 39 104 39 60 0 67 -2 104 -37z"/>
</g>
</svg>
