<svg version="1.0" xmlns="http://www.w3.org/2000/svg"
 width="668px" style="transform:scale(1,1.001);" height="375.75px" viewBox="0 0 320.000000 180.000000"
 preserveAspectRatio="xMidYMid meet">
<g transform="translate(0.000000,180.000000) scale(0.100000,-0.100000)"
fill="#000000" stroke="none">
<path d="M0 905 l0 -895 1600 0 1600 0 0 895 0 895 -1600 0 -1600 0 0 -895z m1449 710
c32 -37 36 -54 32 -140 -2 -45 1 -54 32 -89 33 -36 40 -39 106 -45 51 -5 76
-12 93 -28 13 -11 34 -24 48 -28 41 -13 227 -213 244 -263 5 -15 20 -43 33
-62 12 -19 23 -40 23 -47 0 -7 4 -13 9 -13 5 0 18 -20 29 -44 12 -24 27 -50
35 -58 8 -8 22 -28 31 -46 9 -17 25 -36 35 -42 11 -5 22 -24 26 -41 10 -44
-13 -64 -72 -63 -40 1 -49 6 -79 40 -18 21 -36 52 -40 69 -7 33 -35 72 -98
139 -74 79 -104 114 -108 127 -4 11 -10 11 -30 2 l-26 -12 -7 -187 c-7 -176
-6 -211 11 -358 6 -46 3 -66 -10 -91 -18 -33 -52 -55 -85 -55 -34 0 -71 39
-77 81 -12 71 -59 92 -76 34 -18 -58 -32 -75 -75 -91 -36 -14 -50 -15 -82 -5
-21 6 -44 18 -51 26 -21 25 -29 85 -19 144 11 68 13 389 2 418 -8 21 -9 21
-36 -10 -15 -18 -42 -54 -61 -82 -18 -27 -61 -80 -95 -116 -70 -76 -104 -121
-125 -167 -19 -41 -65 -61 -83 -36 -19 26 -16 105 4 134 9 13 31 52 48 86 17
34 42 75 56 92 53 66 58 77 64 121 3 25 15 65 25 89 11 23 20 52 20 63 0 31
47 88 163 196 15 15 27 34 27 42 0 27 -29 60 -70 81 -51 26 -70 55 -70 107 0
34 6 49 32 75 52 53 117 87 169 87 41 1 51 -3 78 -34z"/>
</g>
</svg>
