<svg version="1.0" xmlns="http://www.w3.org/2000/svg"
 width="668px" style="transform:scale(1,1.001);" height="375.75px" viewBox="0 0 320.000000 180.000000"
 preserveAspectRatio="xMidYMid meet">
<g transform="translate(0.000000,180.000000) scale(0.100000,-0.100000)"
fill="#000000" stroke="none">
<path d="M0 905 l0 -895 1600 0 1600 0 0 895 0 895 -1600 0 -1600 0 0 -895z m1676 718
c27 -9 61 -26 75 -38 15 -12 47 -25 71 -28 89 -12 208 -86 208 -129 0 -10 4
-18 9 -18 18 0 41 -32 41 -56 0 -23 -3 -24 -69 -24 -66 0 -70 -1 -99 -35 -46
-51 -54 -93 -37 -184 8 -42 15 -115 15 -163 0 -48 6 -107 14 -130 28 -86 28
-111 1 -162 -20 -37 -25 -62 -25 -119 -1 -61 -6 -82 -33 -137 -41 -82 -58 -89
-228 -89 -150 -1 -155 2 -144 80 4 29 14 67 21 85 18 44 18 131 -1 184 -8 24
-15 77 -15 120 0 43 -3 85 -6 94 -7 18 -49 22 -59 6 -10 -16 -42 -12 -85 10
-31 16 -50 38 -86 100 -42 74 -64 98 -109 125 -12 7 -17 24 -17 58 -2 90 35
88 135 -5 37 -35 72 -68 79 -75 7 -6 24 -23 37 -37 33 -37 56 -33 89 17 47 69
54 100 42 213 -6 55 -15 116 -20 135 -26 90 1 176 64 204 42 18 73 18 132 -2z"/>
</g>
</svg>
