<svg version="1.0" xmlns="http://www.w3.org/2000/svg"
 width="668px" style="transform:scale(1,1.001);" height="375.75px" viewBox="0 0 320.000000 180.000000"
 preserveAspectRatio="xMidYMid meet">
<g transform="translate(0.000000,180.000000) scale(0.100000,-0.100000)"
fill="#000000" stroke="none">
<path d="M0 905 l0 -895 510 0 510 0 0 33 c1 17 8 59 17 92 8 33 19 112 23 176 5 64 15
132 23 150 8 19 22 61 32 94 9 33 33 86 51 118 19 32 34 63 34 68 0 6 16 41
36 79 43 80 41 111 -9 140 -18 11 -43 39 -56 64 -23 41 -24 47 -11 88 7 24 20
59 29 78 23 48 94 159 103 160 4 0 27 13 51 30 25 17 54 30 65 30 13 0 33 17
54 46 44 62 87 76 178 58 68 -14 89 -116 37 -185 -27 -37 -26 -77 4 -174 32
-108 34 -240 3 -282 -38 -52 -38 -76 3 -161 40 -84 109 -272 123 -340 5 -23
13 -50 18 -60 5 -9 12 -39 16 -67 3 -27 17 -77 31 -110 13 -33 25 -75 25 -92
l0 -33 650 0 650 0 0 895 0 895 -1600 0 -1600 0 0 -895z"/>
<path d="M1421 629 c-40 -16 -164 -151 -193 -209 -15 -30 -36 -95 -46 -145 -11 -50 -28
-117 -37 -150 -9 -33 -19 -72 -22 -87 l-5 -28 336 0 336 0 0 25 c0 14 -18 75
-41 136 -22 61 -47 133 -55 159 -23 78 -200 311 -235 309 -8 0 -25 -5 -38 -10z"/>
</g>
</svg>
