<svg version="1.0" xmlns="http://www.w3.org/2000/svg"
 width="668px" style="transform:scale(1,1.001);" height="375.75px" viewBox="0 0 320.000000 180.000000"
 preserveAspectRatio="xMidYMid meet">
<g transform="translate(0.000000,180.000000) scale(0.100000,-0.100000)"
fill="#000000" stroke="none">
<path d="M0 905 l0 -895 1600 0 1600 0 0 895 0 895 -1600 0 -1600 0 0 -895z m2025 689
c76 -37 113 -93 114 -172 1 -29 -5 -65 -12 -80 -8 -15 -19 -48 -26 -73 -15
-56 -2 -119 34 -155 12 -12 25 -27 26 -32 2 -5 32 -33 67 -61 87 -72 112 -130
121 -271 7 -115 17 -141 91 -229 28 -33 45 -66 57 -114 18 -67 18 -67 -4 -89
-21 -20 -26 -21 -86 -10 -91 17 -128 15 -182 -9 -44 -20 -54 -20 -144 -10 -53
6 -195 13 -316 15 -311 6 -496 16 -528 28 -36 14 -45 32 -63 131 -28 161 -14
207 109 352 42 50 77 95 77 101 0 19 111 115 155 134 22 9 46 24 53 33 7 8 32
18 55 21 24 4 62 21 90 42 41 30 47 38 41 62 -3 15 -16 36 -28 47 -54 48 -78
93 -78 144 0 69 18 115 60 152 95 84 204 99 317 43z"/>
</g>
</svg>
