<svg version="1.0" xmlns="http://www.w3.org/2000/svg"
 width="668px" style="transform:scale(1,1.001);" height="375.75px" viewBox="0 0 320.000000 180.000000"
 preserveAspectRatio="xMidYMid meet">
<g transform="translate(0.000000,180.000000) scale(0.100000,-0.100000)"
fill="#000000" stroke="none">
<path d="M0 905 l0 -895 295 0 295 0 0 43 c0 58 18 117 45 149 14 16 26 48 30 78 6 47
12 55 82 118 41 37 96 78 123 92 107 55 128 70 134 94 8 32 -20 103 -45 117
-11 5 -19 14 -19 20 0 6 -29 44 -65 85 -44 50 -65 83 -65 100 0 47 76 167 163
257 20 21 37 42 37 46 0 4 20 22 44 39 30 22 63 34 110 42 37 6 93 17 124 26
61 16 115 12 160 -12 15 -8 32 -14 38 -14 24 0 152 -112 160 -140 4 -14 18
-45 31 -69 28 -54 29 -91 2 -167 -11 -32 -23 -96 -26 -141 -6 -80 -5 -82 18
-92 55 -22 165 -51 195 -51 79 0 271 -123 301 -193 7 -16 24 -37 37 -48 13
-10 28 -38 34 -61 6 -24 23 -58 37 -77 14 -19 25 -43 25 -52 0 -10 9 -38 20
-64 15 -34 17 -51 10 -65 -6 -10 -10 -28 -10 -39 0 -21 2 -21 440 -21 l440 0
0 895 0 895 -1600 0 -1600 0 0 -895z"/>
</g>
</svg>
