<svg version="1.0" xmlns="http://www.w3.org/2000/svg"
 width="668px" style="transform:scale(1,1.001);" height="375.75px" viewBox="0 0 320.000000 180.000000"
 preserveAspectRatio="xMidYMid meet">
<g transform="translate(0.000000,180.000000) scale(0.100000,-0.100000)"
fill="#000000" stroke="none">
<path d="M0 905 l0 -895 556 0 557 0 -9 63 c-8 61 -16 427 -15 657 l1 116 -30 29 c-26
25 -32 27 -44 15 -16 -17 -98 -266 -122 -366 -19 -85 -38 -122 -69 -136 -14
-6 -25 -15 -25 -20 0 -4 -7 -8 -15 -8 -8 0 -15 6 -15 14 0 7 -7 19 -15 26 -8
7 -15 23 -15 35 0 30 29 144 43 170 6 11 14 38 18 60 11 61 34 135 57 185 11
25 30 92 41 149 12 57 30 118 41 136 27 44 26 96 -4 132 -55 66 -59 108 -19
171 32 48 75 67 135 59 52 -7 71 -33 92 -129 5 -21 15 -28 55 -39 28 -7 48
-16 46 -19 -3 -4 23 -10 56 -13 56 -5 65 -9 100 -47 22 -23 39 -45 39 -50 0
-4 10 -10 23 -14 16 -4 28 -19 40 -53 25 -69 22 -131 -8 -187 -29 -55 -30 -85
-10 -233 33 -248 37 -305 22 -358 -47 -168 -56 -207 -63 -272 l-7 -73 882 0
881 0 0 895 0 895 -1600 0 -1600 0 0 -895z"/>
<path d="M1261 524 c-7 -25 -16 -110 -22 -187 -5 -78 -14 -175 -19 -215 -16 -118 -19
-112 49 -112 l60 0 -1 67 c-1 38 5 115 12 173 10 78 10 119 2 160 -13 69 -44
152 -58 157 -6 2 -17 -17 -23 -43z"/>
</g>
</svg>
