<svg version="1.0" xmlns="http://www.w3.org/2000/svg"
 width="668px" style="transform:scale(1,1.001);" height="375.75px" viewBox="0 0 320.000000 180.000000"
 preserveAspectRatio="xMidYMid meet">
<g transform="translate(0.000000,180.000000) scale(0.100000,-0.100000)"
fill="#000000" stroke="none">
<path d="M0 905 l0 -895 1600 0 1600 0 0 895 0 895 -1600 0 -1600 0 0 -895z m1620 790
c14 -8 42 -23 63 -33 21 -11 52 -39 70 -63 29 -39 32 -50 31 -110 0 -37 -5
-73 -11 -81 -6 -7 -19 -42 -28 -76 -24 -96 0 -142 103 -196 17 -9 32 -21 32
-25 0 -5 16 -15 35 -21 19 -6 41 -19 47 -28 7 -10 26 -23 42 -30 65 -29 121
-133 131 -245 4 -45 12 -93 17 -107 5 -14 14 -63 19 -110 5 -47 14 -106 21
-131 6 -25 8 -62 4 -83 -13 -67 -6 -66 -593 -60 -311 3 -529 10 -545 16 -59
22 -63 125 -14 348 10 41 26 93 37 116 10 22 19 48 19 56 0 26 88 128 170 199
100 85 160 146 160 163 0 16 -51 106 -96 171 -39 56 -57 100 -55 133 2 34 44
112 60 112 6 0 12 8 16 19 3 10 22 26 43 35 20 9 48 23 62 31 32 19 128 19
160 0z"/>
</g>
</svg>
