<svg version="1.0" xmlns="http://www.w3.org/2000/svg"
 width="668px" style="transform:scale(1,1.001);" height="375.75px" viewBox="0 0 320.000000 180.000000"
 preserveAspectRatio="xMidYMid meet">
<g transform="translate(0.000000,180.000000) scale(0.100000,-0.100000)"
fill="#000000" stroke="none">
<path d="M0 905 l0 -895 556 0 556 0 -6 43 c-3 23 -10 119 -16 212 -6 94 -15 222 -20
287 -12 144 -12 231 0 283 7 31 4 60 -12 130 -11 50 -27 99 -34 110 -7 11 -16
41 -19 67 -12 78 -18 82 -140 88 -82 4 -109 9 -115 21 -5 8 -29 28 -54 44 -25
16 -50 41 -57 57 -6 15 -27 37 -45 49 -19 11 -34 26 -34 33 0 7 -11 23 -25 36
-31 29 -46 84 -36 130 6 31 11 35 37 33 16 -1 31 -8 33 -15 2 -6 14 -21 26
-32 12 -12 34 -40 49 -64 19 -30 40 -49 70 -62 24 -10 47 -23 50 -29 11 -18
76 -13 111 9 17 11 58 22 91 26 32 4 67 11 77 16 19 10 22 50 7 115 -6 27 -6
58 1 90 6 26 13 63 16 81 l5 32 -536 0 -536 0 0 -895z"/>
<path d="M1253 1773 c3 -16 10 -46 16 -68 6 -22 14 -67 18 -100 8 -60 8 -60 52 -75 29
-10 73 -43 134 -100 l90 -85 114 -5 c110 -5 116 -6 139 -33 26 -30 32 -75 12
-81 -7 -3 -25 -7 -40 -10 -23 -5 -28 -12 -28 -36 0 -38 -8 -42 -56 -25 -21 8
-56 14 -76 15 -21 0 -65 9 -98 21 -34 11 -67 18 -74 16 -18 -7 -12 -233 11
-456 16 -161 14 -237 -13 -356 -8 -38 -20 -104 -25 -146 -8 -66 -6 -84 11
-134 11 -32 20 -69 20 -82 l0 -23 870 0 870 0 0 895 0 895 -976 0 -976 0 5
-27z"/>
<path d="M1267 588 c-11 -42 -40 -272 -39 -307 1 -44 8 -49 33 -25 34 34 47 319 16 350
-2 3 -7 -5 -10 -18z"/>
<path d="M1232 185 c0 -16 2 -22 5 -12 2 9 2 23 0 30 -3 6 -5 -1 -5 -18z"/>
<path d="M1220 35 c0 -16 6 -25 15 -25 9 0 15 9 15 25 0 16 -6 25 -15 25 -9 0 -15 -9
-15 -25z"/>
</g>
</svg>
