<svg version="1.0" xmlns="http://www.w3.org/2000/svg"
 width="668px" style="transform:scale(1,1.001);" height="375.75px" viewBox="0 0 320.000000 180.000000"
 preserveAspectRatio="xMidYMid meet">
<g transform="translate(0.000000,180.000000) scale(0.100000,-0.100000)"
fill="#000000" stroke="none">
<path d="M0 905 l0 -895 565 0 565 0 0 24 c0 13 -6 29 -14 35 -20 16 -38 176 -35 311 2
63 -1 156 -5 207 l-9 91 41 75 c42 79 61 150 42 162 -6 3 -27 -8 -46 -25 -21
-18 -43 -29 -51 -26 -8 3 -17 6 -19 6 -8 0 -4 54 7 89 6 20 26 68 44 106 18
39 40 99 50 135 18 70 44 149 55 165 10 15 29 91 39 162 12 75 30 111 82 165
30 31 39 48 39 74 l0 34 -675 0 -675 0 0 -895z"/>
<path d="M1620 1775 c0 -29 53 -93 85 -101 28 -7 77 -66 100 -120 15 -33 17 -74 16
-269 -1 -218 5 -277 35 -399 6 -26 5 -28 -17 -21 -13 4 -29 14 -37 21 -7 8
-23 14 -34 14 -19 0 -20 -4 -13 -57 4 -32 13 -76 21 -99 20 -58 31 -153 43
-364 6 -102 13 -206 16 -231 2 -28 -2 -57 -11 -74 -8 -15 -14 -36 -14 -46 0
-18 21 -19 695 -19 l695 0 0 895 0 895 -790 0 -790 0 0 -25z"/>
<path d="M1427 810 c-16 -16 -33 -30 -38 -30 -5 0 -14 -10 -19 -22 -6 -13 -28 -48 -50
-78 -22 -30 -40 -59 -40 -64 0 -5 -7 -17 -16 -27 -21 -23 -20 -111 0 -161 27
-64 35 -147 20 -193 -22 -61 -65 -143 -86 -161 -10 -10 -18 -28 -18 -41 l0
-23 265 0 265 0 0 23 c0 13 -7 38 -16 55 -10 22 -19 95 -29 237 -15 221 -12
209 -91 368 -13 27 -24 53 -24 59 0 19 -62 88 -78 88 -10 0 -30 -13 -45 -30z"/>
</g>
</svg>
