<svg version="1.0" xmlns="http://www.w3.org/2000/svg"
 width="668px" style="transform:scale(1,1.001);" height="375.75px" viewBox="0 0 320.000000 180.000000"
 preserveAspectRatio="xMidYMid meet">
<g transform="translate(0.000000,180.000000) scale(0.100000,-0.100000)"
fill="#000000" stroke="none">
<path d="M0 905 l0 -895 1600 0 1600 0 0 895 0 895 -1600 0 -1600 0 0 -895z m1995 692
c113 -56 185 -149 185 -236 0 -46 -35 -154 -64 -196 -18 -26 -26 -49 -24 -70
3 -27 8 -31 52 -42 61 -15 92 -50 101 -113 12 -82 26 -107 78 -141 88 -57 175
-163 193 -234 4 -17 17 -43 28 -58 13 -18 23 -52 27 -95 4 -37 10 -81 14 -99
6 -27 3 -34 -20 -49 -25 -17 -29 -16 -93 5 -55 17 -88 21 -184 20 -64 -1 -121
2 -128 6 -12 7 -314 14 -821 18 -247 2 -320 6 -333 16 -24 20 -22 161 4 243
23 74 24 78 8 115 -6 15 -21 65 -33 111 -25 99 -19 125 46 171 64 47 149 39
149 -13 0 -25 40 -120 63 -148 21 -27 60 -22 135 16 37 19 83 37 102 40 83 15
160 87 160 150 0 17 -11 54 -25 81 -13 28 -25 57 -25 66 0 9 -11 37 -25 62
-50 95 -79 179 -66 196 6 9 15 25 20 36 15 34 106 115 168 151 57 34 60 35
148 30 78 -3 99 -8 160 -39z"/>
</g>
</svg>
