<svg version="1.0" xmlns="http://www.w3.org/2000/svg"
 width="668px" style="transform:scale(1,1.001);" height="375.75px" viewBox="0 0 320.000000 180.000000"
 preserveAspectRatio="xMidYMid meet">
<g transform="translate(0.000000,180.000000) scale(0.100000,-0.100000)"
fill="#000000" stroke="none">
<path d="M0 905 l0 -895 710 0 c650 0 710 1 710 16 0 22 -21 97 -31 108 -7 8 -75 -11
-94 -26 -38 -33 -70 25 -42 75 24 41 21 86 -11 153 -25 55 -27 70 -32 232 l-5
172 -49 -82 c-53 -88 -91 -133 -105 -124 -5 3 -12 33 -16 66 -7 57 -5 64 38
152 47 96 68 165 86 278 6 36 24 93 41 126 35 73 36 74 10 143 -36 99 -2 151
101 151 65 0 65 0 92 -80 21 -62 29 -70 74 -70 41 0 86 -38 124 -105 36 -64
116 -150 151 -164 31 -12 41 -54 20 -89 -18 -28 -33 -28 -66 3 -15 14 -34 25
-42 25 -7 0 -14 4 -14 9 0 18 -32 41 -56 41 l-24 0 5 -147 c4 -110 2 -168 -9
-227 -16 -81 -40 -339 -50 -528 l-6 -108 845 0 845 0 0 895 0 895 -1600 0
-1600 0 0 -895z"/>
<path d="M1382 530 c-27 -43 -23 -184 4 -157 12 11 24 135 16 157 -7 20 -7 20 -20 0z"/>
</g>
</svg>
