<svg version="1.0" xmlns="http://www.w3.org/2000/svg"
 width="668px" style="transform:scale(1,1.001);" height="375.75px" viewBox="0 0 320.000000 180.000000"
 preserveAspectRatio="xMidYMid meet">
<g transform="translate(0.000000,180.000000) scale(0.100000,-0.100000)"
fill="#000000" stroke="none">
<path d="M0 905 l0 -895 750 0 750 0 0 23 c0 22 -58 88 -120 137 -49 38 -120 108 -120
117 0 5 -31 40 -69 79 -57 59 -70 79 -79 121 -15 68 -1 113 43 147 60 46 201
115 257 127 69 13 91 25 118 60 29 40 19 69 -24 69 -18 0 -41 7 -52 15 -10 8
-26 15 -35 15 -24 0 -49 33 -49 64 0 15 13 58 29 95 17 37 35 96 40 132 6 35
15 80 21 99 6 19 11 61 11 92 1 54 -2 60 -50 118 -40 48 -51 69 -51 96 0 41
32 109 55 118 26 10 194 7 214 -4 28 -14 51 -83 51 -149 0 -45 5 -65 20 -83
57 -65 111 -147 121 -183 6 -22 14 -47 19 -56 23 -46 65 -370 56 -438 -20
-144 -31 -185 -71 -255 -42 -74 -53 -100 -101 -248 -26 -80 -27 -91 -16 -130
7 -24 18 -73 25 -110 l11 -68 723 0 723 0 0 895 0 895 -1600 0 -1600 0 0 -895z"/>
</g>
</svg>
