<svg version="1.0" xmlns="http://www.w3.org/2000/svg"
 width="668px" style="transform:scale(1,1.001);" height="375.75px" viewBox="0 0 320.000000 180.000000"
 preserveAspectRatio="xMidYMid meet">
<g transform="translate(0.000000,180.000000) scale(0.100000,-0.100000)"
fill="#000000" stroke="none">
<path d="M0 905 l0 -895 651 0 651 0 -8 73 c-5 39 -8 90 -8 112 1 22 4 245 7 495 6 512
9 490 -67 490 -22 0 -81 -11 -130 -24 -50 -14 -117 -30 -149 -37 -80 -17 -81
-16 -89 116 l-3 40 114 2 c122 3 160 16 227 78 15 14 33 25 41 25 7 0 16 7 19
15 3 7 26 22 50 31 52 20 55 34 20 102 -42 83 -9 147 82 159 85 11 122 -27
122 -128 0 -27 6 -53 13 -59 26 -23 122 -80 134 -80 7 0 25 -19 40 -42 21 -34
27 -55 27 -98 0 -57 -10 -81 -64 -155 -37 -51 -54 -129 -49 -230 8 -201 2
-286 -29 -395 -17 -58 -42 -138 -56 -177 -14 -40 -26 -93 -26 -117 0 -40 4
-48 36 -72 38 -30 64 -71 64 -104 0 -20 0 -20 790 -20 l790 0 0 895 0 895
-1600 0 -1600 0 0 -895z"/>
<path d="M945 1230 c3 -5 10 -10 16 -10 5 0 9 5 9 10 0 6 -7 10 -16 10 -8 0 -12 -4 -9
-10z"/>
</g>
</svg>
