<svg version="1.0" xmlns="http://www.w3.org/2000/svg"
 width="668px" style="transform:scale(1,1.001);" height="375.75px" viewBox="0 0 320.000000 180.000000"
 preserveAspectRatio="xMidYMid meet">
<g transform="translate(0.000000,180.000000) scale(0.100000,-0.100000)"
fill="#000000" stroke="none">
<path d="M0 905 l0 -895 1600 0 1600 0 0 895 0 895 -1600 0 -1600 0 0 -895z m1559 697
c20 -14 38 -27 39 -28 2 -1 7 -19 12 -39 6 -28 4 -48 -11 -82 -10 -25 -19 -53
-19 -62 0 -31 42 -59 108 -72 47 -9 67 -18 79 -35 8 -13 21 -24 27 -24 27 0
166 -121 166 -145 0 -4 9 -18 20 -32 11 -14 20 -41 20 -59 0 -40 -16 -84 -30
-84 -6 0 -24 -10 -41 -22 -26 -19 -34 -21 -69 -11 -22 6 -43 7 -45 3 -3 -4 -9
-39 -15 -76 -5 -38 -16 -87 -25 -109 -10 -28 -14 -85 -15 -193 0 -162 -11
-215 -47 -226 -10 -3 -100 -4 -201 -3 -158 3 -185 5 -200 20 -15 16 -17 39
-17 176 0 88 4 157 8 154 5 -3 7 3 5 12 -4 25 -22 29 -41 11 -8 -8 -28 -18
-43 -22 -16 -4 -43 -18 -60 -31 -33 -24 -68 -30 -80 -12 -4 8 -9 8 -17 0 -6
-6 -24 -11 -39 -11 -22 0 -32 7 -45 34 -28 60 6 107 122 168 56 29 75 66 75
147 0 109 35 188 122 274 61 60 68 71 68 107 0 26 -12 61 -36 104 -35 65 -35
65 -18 101 19 40 78 91 114 98 43 8 92 -3 129 -31z m-94 -1464 c14 -6 25 -15
25 -19 0 -14 -71 -31 -105 -25 -42 8 -50 19 -29 40 18 19 72 21 109 4z"/>
</g>
</svg>
