<svg version="1.0" xmlns="http://www.w3.org/2000/svg"
 width="668px" style="transform:scale(1,1.001);" height="375.75px" viewBox="0 0 320.000000 180.000000"
 preserveAspectRatio="xMidYMid meet">
<g transform="translate(0.000000,180.000000) scale(0.100000,-0.100000)"
fill="#000000" stroke="none">
<path d="M0 905 l0 -895 1600 0 1600 0 0 895 0 895 -1600 0 -1600 0 0 -895z m1624 765
c64 -33 97 -68 121 -126 14 -36 14 -47 0 -114 -9 -41 -25 -95 -37 -119 -19
-40 -20 -46 -6 -70 17 -28 31 -38 178 -133 36 -23 71 -48 78 -55 8 -7 23 -18
35 -25 51 -27 99 -135 113 -253 3 -33 13 -75 20 -94 8 -19 17 -59 20 -90 3
-31 12 -88 21 -128 19 -85 12 -138 -20 -155 -26 -14 -1042 -13 -1080 1 -47 18
-52 35 -52 175 0 101 4 141 18 174 9 23 17 53 17 65 0 12 9 39 20 60 11 20 20
44 20 52 0 17 78 117 130 165 71 65 100 90 109 90 13 0 61 74 61 93 0 24 -54
132 -94 189 -38 53 -51 116 -36 167 10 36 75 111 95 111 7 0 20 9 29 19 21 23
40 28 122 30 51 1 72 -4 118 -29z"/>
</g>
</svg>
