<svg version="1.0" xmlns="http://www.w3.org/2000/svg"
 width="668px" style="transform:scale(1,1.001);" height="375.75px" viewBox="0 0 320.000000 180.000000"
 preserveAspectRatio="xMidYMid meet">
<g transform="translate(0.000000,180.000000) scale(0.100000,-0.100000)"
fill="#000000" stroke="none">
<path d="M0 905 l0 -895 695 0 696 0 -3 152 c-3 149 -2 154 25 209 15 31 27 72 27 92 0
34 -24 112 -40 130 -4 5 -17 -34 -29 -85 -38 -160 -66 -247 -78 -240 -5 4 -16
25 -23 46 -10 31 -11 85 -3 250 5 116 10 243 10 282 1 71 25 147 55 172 19 15
21 66 4 105 -13 31 -13 79 -1 118 8 25 46 40 107 42 47 2 60 -2 82 -22 21 -20
26 -34 28 -90 3 -57 6 -66 23 -69 11 -2 25 -9 30 -15 6 -7 22 -18 37 -26 14
-7 29 -21 32 -30 4 -9 13 -27 21 -41 7 -14 16 -68 20 -120 7 -110 18 -188 39
-280 39 -175 46 -216 46 -274 0 -67 -10 -86 -48 -86 -59 0 -78 -37 -42 -83 25
-32 27 -77 3 -77 -40 1 -109 22 -128 40 -27 25 -71 35 -81 18 -13 -20 -34 -81
-34 -100 0 -17 48 -18 865 -18 l865 0 0 895 0 895 -1600 0 -1600 0 0 -895z"/>
<path d="M1580 371 c-6 -12 -7 -21 -1 -21 10 0 24 30 17 37 -2 3 -9 -5 -16 -16z"/>
</g>
</svg>
