<svg version="1.0" xmlns="http://www.w3.org/2000/svg"
 width="668px" style="transform:scale(1,1.001);" height="375.75px" viewBox="0 0 320.000000 180.000000"
 preserveAspectRatio="xMidYMid meet">
<g transform="translate(0.000000,180.000000) scale(0.100000,-0.100000)"
fill="#000000" stroke="none">
<path d="M0 905 l0 -895 475 0 475 0 0 25 c0 23 -4 25 -43 25 -79 0 -160 21 -188 49
-15 14 -38 34 -53 44 -25 17 -26 21 -26 117 l0 99 36 27 c19 15 42 40 50 56 8
15 31 39 52 53 20 14 46 31 57 40 12 8 59 22 105 31 47 8 94 22 106 29 12 8
46 21 76 30 71 20 110 48 225 160 151 147 148 146 267 160 82 10 111 18 144
40 36 24 42 33 42 62 0 22 -9 46 -24 64 -13 16 -38 72 -55 126 l-32 97 22 72
c18 55 30 76 52 90 16 11 37 38 47 61 10 23 31 50 47 59 15 10 39 29 52 41 13
13 31 23 40 23 9 0 35 10 56 21 47 25 187 37 250 20 163 -42 220 -68 281 -128
18 -18 37 -33 43 -33 6 0 21 -17 35 -37 13 -21 33 -46 44 -57 32 -28 43 -76
45 -193 1 -123 -10 -167 -53 -208 -16 -16 -35 -44 -41 -64 -7 -20 -25 -51 -42
-70 -27 -32 -29 -39 -24 -90 3 -35 17 -78 36 -115 17 -32 31 -64 31 -72 0 -24
33 -84 49 -89 38 -13 203 -192 216 -235 4 -14 20 -45 35 -70 43 -69 53 -113
46 -191 l-7 -69 125 0 126 0 0 895 0 895 -1600 0 -1600 0 0 -895z"/>
<path d="M1178 63 c-86 -4 -88 -4 -88 -28 l0 -25 140 0 140 0 0 24 c0 18 -7 25 -31 30
-17 3 -41 5 -53 4 -11 -1 -60 -4 -108 -5z"/>
</g>
</svg>
