<svg version="1.0" xmlns="http://www.w3.org/2000/svg"
 width="668px" style="transform:scale(1,1.001);" height="375.75px" viewBox="0 0 320.000000 180.000000"
 preserveAspectRatio="xMidYMid meet">
<g transform="translate(0.000000,180.000000) scale(0.100000,-0.100000)"
fill="#000000" stroke="none">
<path d="M0 905 l0 -895 1600 0 1600 0 0 895 0 895 -1600 0 -1600 0 0 -895z m1957 713
c98 -41 188 -121 204 -181 20 -73 7 -152 -41 -247 -23 -47 -48 -88 -55 -93
-18 -10 -28 -60 -20 -97 11 -48 46 -41 73 15 12 25 22 53 22 63 0 9 7 26 15
36 14 18 18 19 53 7 74 -27 85 -50 86 -183 l1 -97 85 -83 c66 -65 88 -93 99
-128 7 -25 21 -56 31 -70 23 -34 38 -81 49 -164 15 -106 -10 -135 -102 -117
-57 12 -290 18 -977 27 -358 5 -449 8 -467 20 -52 33 -57 177 -12 329 12 40 6
64 -29 125 -29 49 -52 108 -52 131 0 15 13 37 34 58 28 27 43 34 93 38 34 3
75 1 94 -6 32 -10 35 -15 47 -76 6 -35 12 -73 12 -84 0 -10 8 -29 18 -41 23
-29 72 -20 142 25 28 18 67 35 88 39 47 7 147 61 167 89 24 35 19 98 -15 162
-16 31 -30 67 -30 80 0 13 -11 36 -24 52 -29 36 -50 121 -43 181 4 41 12 53
62 100 31 28 74 62 97 75 22 12 50 28 62 34 11 7 51 13 89 13 54 0 83 -7 144
-32z"/>
</g>
</svg>
