<svg version="1.0" xmlns="http://www.w3.org/2000/svg"
 width="668px" style="transform:scale(1,1.001);" height="375.75px" viewBox="0 0 320.000000 180.000000"
 preserveAspectRatio="xMidYMid meet">
<g transform="translate(0.000000,180.000000) scale(0.100000,-0.100000)"
fill="#000000" stroke="none">
<path d="M0 905 l0 -895 1600 0 1600 0 0 895 0 895 -1600 0 -1600 0 0 -895z m1720 552
c79 -33 113 -57 154 -105 43 -52 51 -88 42 -200 -5 -63 -14 -98 -30 -127 -13
-22 -28 -61 -35 -86 -16 -56 -4 -86 37 -95 15 -3 50 -16 77 -30 28 -13 58 -24
67 -24 9 0 20 -5 23 -10 4 -6 25 -20 48 -31 71 -34 119 -72 163 -129 35 -46
45 -69 59 -142 19 -99 11 -149 -28 -170 -12 -6 -60 -12 -107 -12 -266 0 -1198
15 -1212 20 -42 13 -46 141 -7 217 10 21 19 43 19 49 0 24 155 147 224 179 12
6 32 16 46 24 14 8 34 15 46 15 11 0 35 16 54 35 l33 34 -37 73 c-20 40 -50
93 -66 118 -34 52 -70 126 -70 145 0 32 32 98 59 120 16 14 51 45 77 70 26 25
59 48 73 51 14 4 35 12 46 19 12 7 30 15 40 18 40 12 151 -3 205 -26z"/>
</g>
</svg>
