<svg version="1.0" xmlns="http://www.w3.org/2000/svg"
 width="668px" style="transform:scale(1,1.001);" height="375.75px" viewBox="0 0 320.000000 180.000000"
 preserveAspectRatio="xMidYMid meet">
<g transform="translate(0.000000,180.000000) scale(0.100000,-0.100000)"
fill="#000000" stroke="none">
<path d="M0 905 l0 -895 655 0 655 0 0 154 c0 85 7 218 15 297 9 79 15 218 15 309 0 91
0 181 0 200 0 41 -14 60 -32 41 -9 -8 -12 -42 -11 -108 2 -68 -2 -104 -13
-124 -18 -36 -26 -36 -70 -3 l-34 26 0 97 c0 125 21 232 65 326 19 42 35 83
35 91 0 8 7 17 15 20 8 3 17 15 20 25 4 11 24 28 46 39 21 11 39 24 39 28 0 4
13 15 29 25 25 15 30 25 36 79 7 60 29 110 62 143 21 22 115 20 135 -2 39 -45
48 -78 37 -141 -9 -50 -8 -65 6 -91 9 -18 23 -35 31 -38 31 -12 54 -89 54
-178 0 -79 2 -88 42 -162 83 -157 89 -172 86 -215 -2 -26 -9 -45 -21 -52 -20
-12 -17 -15 -92 89 -22 30 -62 79 -88 107 -43 46 -49 50 -63 36 -14 -13 -13
-27 2 -129 10 -63 18 -175 18 -249 l1 -135 -54 -140 c-72 -188 -72 -190 -22
-256 25 -33 41 -65 41 -81 l0 -28 780 0 780 0 0 895 0 895 -1600 0 -1600 0 0
-895z"/>
<path d="M1440 35 c0 -22 4 -25 40 -25 36 0 40 3 40 25 0 23 -4 25 -40 25 -36 0 -40 -2
-40 -25z"/>
</g>
</svg>
