<svg version="1.0" xmlns="http://www.w3.org/2000/svg"
 width="668px" style="transform:scale(1,1.001);" height="375.75px" viewBox="0 0 320.000000 180.000000"
 preserveAspectRatio="xMidYMid meet">
<g transform="translate(0.000000,180.000000) scale(0.100000,-0.100000)"
fill="#000000" stroke="none">
<path d="M0 905 l0 -895 650 0 650 0 0 41 c0 68 20 265 41 397 20 133 17 168 -31 306
-24 69 -49 213 -61 346 -5 52 -12 114 -15 138 -8 55 2 108 26 132 10 10 26 30
35 44 12 18 35 31 76 42 79 22 89 38 82 127 -8 91 -1 97 120 97 115 0 127 -7
127 -70 0 -46 -5 -62 -31 -110 -33 -58 -50 -102 -51 -127 0 -32 86 -246 114
-282 10 -13 18 -28 18 -34 0 -5 20 -27 45 -49 65 -57 61 -105 -9 -100 -32 3
-90 57 -116 107 -15 30 -87 105 -100 105 -4 0 -15 -21 -25 -47 -15 -40 -17
-61 -9 -157 16 -217 11 -401 -13 -515 -13 -57 -23 -131 -23 -166 0 -61 1 -64
38 -94 20 -17 45 -37 55 -46 10 -9 17 -29 17 -50 l0 -35 795 0 795 0 0 895 0
895 -1600 0 -1600 0 0 -895z"/>
</g>
</svg>
