<svg version="1.0" xmlns="http://www.w3.org/2000/svg"
 width="668px" style="transform:scale(1,1.001);" height="375.75px" viewBox="0 0 320.000000 180.000000"
 preserveAspectRatio="xMidYMid meet">
<g transform="translate(0.000000,180.000000) scale(0.100000,-0.100000)"
fill="#000000" stroke="none">
<path d="M0 905 l0 -895 730 0 c728 0 730 0 730 20 0 12 -7 32 -16 45 -9 14 -14 34 -11
45 3 11 2 20 -3 20 -4 0 -10 -9 -13 -20 -10 -38 -44 -24 -67 26 -27 62 -25 90
10 179 16 42 30 84 30 94 0 26 -57 151 -68 151 -11 0 -32 -76 -32 -114 0 -31
-36 -70 -56 -62 -10 4 -22 -7 -35 -29 -39 -65 -62 -33 -39 54 5 20 18 74 30
121 11 47 26 96 31 110 6 14 15 68 20 120 13 128 49 225 109 293 26 30 29 42
32 113 l3 79 35 17 c23 11 61 17 112 18 72 0 79 -2 94 -25 14 -22 15 -33 4
-89 -13 -70 -16 -63 52 -133 29 -29 36 -115 15 -179 -9 -27 -24 -89 -33 -138
-15 -74 -15 -97 -5 -140 42 -179 40 -216 -18 -307 -23 -37 -45 -83 -48 -103
-5 -31 -1 -41 31 -76 21 -23 36 -50 36 -65 l0 -25 770 0 770 0 0 895 0 895
-1600 0 -1600 0 0 -895z"/>
<path d="M1472 35 c0 -17 2 -22 5 -12 2 9 2 23 0 30 -3 6 -5 -1 -5 -18z"/>
</g>
</svg>
