<svg version="1.0" xmlns="http://www.w3.org/2000/svg"
 width="668px" style="transform:scale(1,1.001);" height="375.75px" viewBox="0 0 320.000000 180.000000"
 preserveAspectRatio="xMidYMid meet">
<g transform="translate(0.000000,180.000000) scale(0.100000,-0.100000)"
fill="#000000" stroke="none">
<path d="M0 905 l0 -895 1600 0 1600 0 0 895 0 895 -1600 0 -1600 0 0 -895z m1786 740
c107 -20 188 -79 255 -184 47 -72 43 -86 -68 -292 -12 -22 -29 -51 -37 -64
-10 -15 -16 -47 -16 -85 0 -57 2 -63 41 -105 23 -25 50 -45 60 -45 9 0 30 -11
46 -24 16 -14 41 -28 55 -31 66 -17 266 -216 282 -281 4 -16 18 -45 31 -64 27
-41 50 -130 41 -165 -8 -31 -35 -39 -99 -26 -72 14 -765 33 -1087 30 -266 -3
-300 0 -332 29 -24 20 -23 77 1 110 10 15 24 50 30 79 7 29 19 57 27 64 9 7
22 29 30 48 19 46 111 134 172 165 27 13 54 31 61 40 7 8 27 18 44 22 34 7 63
26 128 84 34 30 40 43 45 85 5 43 2 55 -22 90 -15 22 -31 58 -36 80 -5 22 -16
47 -23 56 -19 20 -54 126 -55 162 0 42 24 80 75 118 25 19 60 45 77 58 36 30
120 60 165 61 17 0 66 -7 109 -15z"/>
</g>
</svg>
