<svg version="1.0" xmlns="http://www.w3.org/2000/svg"
 width="668px" style="transform:scale(1,1.001);" height="375.75px" viewBox="0 0 320.000000 180.000000"
 preserveAspectRatio="xMidYMid meet">
<g transform="translate(0.000000,180.000000) scale(0.100000,-0.100000)"
fill="#000000" stroke="none">
<path d="M0 905 l0 -895 656 0 656 0 -5 27 c-3 16 -10 48 -17 72 -11 43 -10 92 17 771
4 107 8 200 8 205 0 20 -46 16 -75 -7 -16 -13 -48 -36 -71 -53 -36 -26 -91
-79 -144 -138 -13 -15 -19 -16 -31 -6 -34 28 -6 111 55 159 43 35 58 63 19 36
-12 -9 -36 -16 -52 -16 -21 0 -37 -9 -52 -27 -27 -34 -39 -26 -30 22 6 31 10
35 39 35 38 0 50 7 66 38 6 12 21 22 32 22 11 0 32 13 47 28 15 16 35 32 44
35 9 3 28 28 42 55 33 64 92 135 123 146 21 7 24 13 19 38 -3 17 -19 46 -36
65 -39 44 -40 87 -2 136 29 38 48 47 98 47 45 0 104 -65 105 -118 3 -83 10
-96 63 -109 33 -8 58 -23 78 -45 l29 -33 -7 -138 c-3 -76 -10 -164 -15 -195
-6 -31 -14 -154 -19 -272 -7 -191 -12 -227 -38 -325 -16 -60 -39 -134 -51
-163 -11 -29 -21 -73 -21 -98 0 -40 5 -51 39 -85 35 -34 39 -43 34 -74 l-6
-35 802 0 801 0 0 895 0 895 -1600 0 -1600 0 0 -895z"/>
<path d="M1050 1090 c0 -5 5 -10 11 -10 5 0 7 5 4 10 -3 6 -8 10 -11 10 -2 0 -4 -4 -4
-10z"/>
</g>
</svg>
