<svg version="1.0" xmlns="http://www.w3.org/2000/svg"
 width="668px" style="transform:scale(1,1.001);" height="375.75px" viewBox="0 0 320.000000 180.000000"
 preserveAspectRatio="xMidYMid meet">
<g transform="translate(0.000000,180.000000) scale(0.100000,-0.100000)"
fill="#000000" stroke="none">
<path d="M0 905 l0 -895 1600 0 1600 0 0 895 0 895 -1600 0 -1600 0 0 -895z m1768 789
c19 -13 42 -24 51 -24 24 0 77 -70 84 -110 9 -50 -8 -188 -26 -208 -24 -27
-37 -89 -26 -121 10 -28 61 -76 124 -116 18 -11 48 -31 68 -43 21 -13 37 -28
37 -33 0 -5 13 -15 29 -24 32 -16 91 -119 91 -157 0 -11 9 -60 20 -107 17 -77
34 -202 47 -346 3 -43 1 -54 -22 -77 l-25 -27 -518 0 c-284 1 -534 5 -554 10
-21 5 -44 19 -53 32 -21 30 -19 121 5 237 11 52 20 108 20 124 0 16 8 48 19
70 10 23 31 68 46 101 31 67 90 145 111 145 7 0 19 8 26 18 7 11 24 25 38 32
69 36 158 116 165 149 6 29 -19 101 -40 113 -32 19 -66 99 -71 166 -7 95 -3
100 133 197 53 38 164 37 221 -1z"/>
</g>
</svg>
