<svg version="1.0" xmlns="http://www.w3.org/2000/svg"
 width="668px" style="transform:scale(1,1.001);" height="375.75px" viewBox="0 0 320.000000 180.000000"
 preserveAspectRatio="xMidYMid meet">
<g transform="translate(0.000000,180.000000) scale(0.100000,-0.100000)"
fill="#000000" stroke="none">
<path d="M0 905 l0 -895 1600 0 1600 0 0 895 0 895 -1600 0 -1600 0 0 -895z m1847 730
c16 -8 36 -15 46 -15 28 0 57 -18 110 -69 68 -64 109 -128 115 -178 3 -32 -3
-56 -28 -109 -17 -38 -41 -80 -52 -94 -58 -75 -78 -116 -78 -160 0 -68 49
-116 210 -203 49 -27 150 -128 150 -149 0 -7 13 -40 29 -73 76 -154 88 -219
48 -259 l-23 -23 -415 -7 c-238 -4 -450 -3 -499 2 -47 5 -159 8 -250 7 -202
-4 -206 -2 -203 84 2 93 53 200 146 306 35 40 194 138 283 174 48 19 89 63
109 115 19 49 19 49 -5 115 -13 36 -31 79 -41 96 -9 16 -20 50 -23 75 -4 25
-14 56 -24 70 -10 16 -16 44 -15 77 0 44 5 58 33 90 49 56 148 124 210 144 34
11 133 1 167 -16z"/>
</g>
</svg>
