<svg version="1.0" xmlns="http://www.w3.org/2000/svg"
 width="668px" style="transform:scale(1,1.001);" height="375.75px" viewBox="0 0 320.000000 180.000000"
 preserveAspectRatio="xMidYMid meet">
<g transform="translate(0.000000,180.000000) scale(0.100000,-0.100000)"
fill="#000000" stroke="none">
<path d="M0 905 l0 -895 781 0 781 0 -7 92 c-4 51 -11 107 -16 125 -6 18 -14 67 -19
110 -21 189 -39 243 -74 230 -25 -10 -88 -116 -93 -156 -4 -39 -4 -39 75 -157
60 -90 67 -109 53 -147 -14 -35 -46 -47 -131 -47 -109 0 -121 11 -70 70 34 40
37 66 13 100 -30 42 -65 69 -140 106 -87 43 -106 69 -106 144 -1 42 10 83 46
175 25 65 43 122 40 125 -3 3 -8 0 -10 -7 -2 -7 -19 -21 -38 -33 -18 -11 -38
-35 -45 -53 -26 -71 -41 -98 -50 -92 -19 12 -10 89 15 130 14 22 29 49 34 60
5 11 27 38 50 60 22 22 41 44 41 49 0 5 6 17 13 25 7 9 26 47 41 84 20 48 41
79 71 105 24 20 45 44 46 52 1 8 -7 46 -19 84 -27 84 -27 91 -2 116 15 15 33
20 75 20 30 0 65 5 79 11 37 17 69 4 91 -37 22 -40 21 -75 -1 -110 -17 -26 -9
-74 12 -74 8 0 17 -7 20 -15 3 -8 20 -23 38 -33 37 -22 81 -105 90 -167 3 -22
13 -65 22 -95 9 -30 20 -85 24 -122 5 -36 13 -84 19 -104 9 -32 7 -45 -9 -77
-11 -21 -20 -49 -20 -62 0 -33 -20 -75 -36 -75 -26 0 -32 -37 -36 -223 l-5
-187 779 0 778 0 0 895 0 895 -1600 0 -1600 0 0 -895z"/>
<path d="M1236 756 c-19 -30 -44 -73 -55 -95 -37 -72 -22 -113 22 -61 29 34 97 171 97
194 0 33 -31 14 -64 -38z"/>
</g>
</svg>
