<svg version="1.0" xmlns="http://www.w3.org/2000/svg"
 width="668px" style="transform:scale(1,1.001);" height="375.75px" viewBox="0 0 320.000000 180.000000"
 preserveAspectRatio="xMidYMid meet">
<g transform="translate(0.000000,180.000000) scale(0.100000,-0.100000)"
fill="#000000" stroke="none">
<path d="M0 905 l0 -895 1600 0 1600 0 0 895 0 895 -1600 0 -1600 0 0 -895z m1604 736
c30 -15 65 -41 80 -58 24 -29 26 -38 26 -129 0 -68 -5 -108 -15 -128 -26 -49
-19 -79 27 -119 23 -20 47 -37 54 -37 6 0 28 -13 49 -30 21 -16 42 -30 47 -30
6 0 23 -11 40 -25 16 -14 36 -25 44 -25 20 0 121 -106 127 -133 3 -12 12 -40
21 -62 8 -22 15 -60 16 -85 0 -25 9 -77 20 -115 11 -38 20 -93 20 -122 0 -28
5 -74 12 -102 16 -69 -1 -128 -40 -138 -15 -4 -247 -8 -517 -8 -449 0 -493 1
-522 18 -18 9 -37 26 -43 36 -5 11 -10 68 -10 128 0 109 10 159 60 283 10 25
21 57 24 72 5 24 121 149 202 218 86 74 84 132 -8 234 -21 22 -38 47 -38 54 0
6 -4 12 -10 12 -5 0 -21 24 -36 54 l-26 53 27 57 c14 31 30 56 34 56 4 0 14
11 21 25 9 17 27 29 54 35 23 6 52 16 66 22 69 33 112 31 194 -11z"/>
</g>
</svg>
