<svg version="1.0" xmlns="http://www.w3.org/2000/svg"
 width="668px" style="transform:scale(1,1.001);" height="375.75px" viewBox="0 0 320.000000 180.000000"
 preserveAspectRatio="xMidYMid meet">
<g transform="translate(0.000000,180.000000) scale(0.100000,-0.100000)"
fill="#000000" stroke="none">
<path d="M0 905 l0 -895 1600 0 1600 0 0 895 0 895 -735 0 -735 0 0 -23 c0 -17 9 -26
33 -35 47 -18 65 -50 88 -158 11 -54 24 -104 28 -113 16 -28 33 -244 27 -316
-10 -105 -21 -132 -60 -145 l-33 -11 5 -68 c6 -95 -17 -163 -74 -217 -73 -70
-144 -228 -144 -321 0 -27 -5 -54 -12 -61 -16 -16 -90 -16 -106 0 -16 16 -15
95 2 183 9 43 10 76 5 87 -9 16 2 58 28 108 7 14 13 37 13 53 0 15 3 27 8 27
4 0 22 13 39 29 30 27 31 32 22 65 -13 46 -73 113 -109 121 -36 8 -81 -15
-100 -49 -7 -14 -19 -26 -25 -26 -16 0 -55 -55 -55 -77 0 -24 10 -38 38 -52
12 -7 20 -16 17 -22 -4 -5 -1 -25 5 -45 16 -47 4 -136 -22 -169 -19 -25 -21
-25 -39 -9 -11 9 -24 35 -29 56 -16 58 -63 105 -123 123 -69 21 -117 67 -117
114 0 20 9 56 20 80 24 51 26 99 5 107 -8 3 -19 23 -25 44 -15 55 1 115 66
245 60 119 89 190 99 245 14 70 48 149 71 165 15 9 24 25 24 40 l0 25 -650 0
-650 0 0 -895z"/>
<path d="M1758 1278 c-10 -12 -18 -28 -18 -35 0 -23 25 -93 32 -93 5 0 8 34 8 75 0 41
-1 75 -2 75 -2 0 -11 -10 -20 -22z"/>
</g>
</svg>
