<svg version="1.0" xmlns="http://www.w3.org/2000/svg"
 width="668px" style="transform:scale(1,1.001);" height="375.75px" viewBox="0 0 320.000000 180.000000"
 preserveAspectRatio="xMidYMid meet">
<g transform="translate(0.000000,180.000000) scale(0.100000,-0.100000)"
fill="#000000" stroke="none">
<path d="M0 905 l0 -895 675 0 675 0 -1 37 c0 21 2 66 6 100 7 52 5 67 -11 90 -55 82
-64 113 -63 233 0 120 4 150 39 265 12 41 18 83 15 101 -5 31 -90 150 -118
165 -8 5 -64 9 -125 10 -124 3 -134 -1 -153 -59 -49 -154 -187 -70 -164 100 8
57 22 64 153 73 64 4 105 12 130 25 20 11 47 20 59 20 37 0 73 19 82 43 7 18
3 36 -16 75 -37 75 -27 117 31 142 24 10 47 23 50 29 8 12 95 15 113 3 22 -14
33 -62 26 -122 -6 -59 -5 -60 23 -70 16 -5 42 -17 57 -26 16 -9 59 -20 95 -24
100 -13 177 -50 200 -97 33 -67 0 -131 -46 -90 -24 22 -67 30 -90 18 -17 -9
-20 -18 -15 -49 3 -20 13 -50 22 -67 20 -37 21 -277 1 -369 -18 -85 -15 -111
18 -211 41 -121 49 -183 28 -223 -9 -18 -20 -32 -24 -32 -20 0 -61 53 -67 87
-7 42 -23 74 -72 148 -18 27 -33 57 -33 68 0 27 -30 126 -40 132 -4 3 -17 -13
-29 -35 -24 -47 -28 -118 -6 -146 8 -10 15 -27 15 -37 0 -10 9 -38 20 -62 29
-64 37 -148 16 -179 -9 -14 -16 -34 -16 -46 0 -20 2 -20 870 -20 l870 0 0 895
0 895 -1600 0 -1600 0 0 -895z"/>
</g>
</svg>
