<svg version="1.0" xmlns="http://www.w3.org/2000/svg"
 width="668px" style="transform:scale(1,1.001);" height="375.75px" viewBox="0 0 320.000000 180.000000"
 preserveAspectRatio="xMidYMid meet">
<g transform="translate(0.000000,180.000000) scale(0.100000,-0.100000)"
fill="#000000" stroke="none">
<path d="M0 905 l0 -895 760 0 760 0 0 23 c0 26 -124 152 -176 181 -16 8 -51 38 -79 66
-27 27 -57 52 -66 55 -26 9 -50 51 -59 108 -7 49 3 107 20 107 4 0 10 9 13 19
3 11 20 26 39 34 19 8 42 26 51 41 10 14 23 26 31 26 7 0 21 9 31 20 9 10 34
25 54 31 20 7 49 22 64 35 16 13 34 24 41 24 7 0 27 18 45 41 28 34 32 46 26
75 -9 49 -37 60 -114 45 -70 -14 -97 -5 -107 34 -7 29 32 117 73 166 29 34 58
142 69 252 7 66 6 70 -20 95 -80 79 -98 123 -75 193 20 60 39 69 151 69 55 0
108 -5 119 -11 27 -14 40 -50 49 -136 7 -72 17 -91 78 -158 59 -64 104 -198
122 -365 17 -148 16 -225 -3 -332 -16 -89 -34 -134 -71 -179 -24 -29 -60 -100
-105 -208 -39 -92 -41 -157 -7 -232 15 -35 22 -65 19 -87 l-5 -32 736 0 736 0
0 895 0 895 -1600 0 -1600 0 0 -895z"/>
</g>
</svg>
