<svg version="1.0" xmlns="http://www.w3.org/2000/svg"
 width="668px" style="transform:scale(1,1.001);" height="375.75px" viewBox="0 0 320.000000 180.000000"
 preserveAspectRatio="xMidYMid meet">
<g transform="translate(0.000000,180.000000) scale(0.100000,-0.100000)"
fill="#000000" stroke="none">
<path d="M0 905 l0 -895 648 0 647 0 22 103 c35 159 66 419 55 458 -8 30 -12 34 -39 31
-47 -5 -53 27 -53 274 0 271 26 402 86 434 12 7 24 20 26 28 2 8 19 21 38 27
29 10 36 17 38 43 2 20 -4 41 -18 60 -16 21 -21 40 -18 73 3 40 7 47 52 77 42
28 57 32 111 32 87 0 89 -4 81 -144 -6 -98 -5 -116 9 -130 9 -9 22 -16 30 -16
7 0 23 -17 36 -37 46 -77 31 -347 -27 -502 -13 -35 -24 -72 -24 -82 0 -11 14
-61 30 -111 30 -91 39 -181 20 -193 -14 -8 -58 -78 -84 -130 -11 -22 -30 -53
-43 -68 -33 -41 -30 -81 12 -130 22 -25 35 -51 35 -69 l0 -28 765 0 765 0 0
895 0 895 -1600 0 -1600 0 0 -895z"/>
<path d="M1551 533 c-1 -23 4 -45 9 -48 12 -8 12 42 0 70 -7 16 -9 11 -9 -22z"/>
<path d="M1447 74 c-4 -4 -7 -20 -7 -36 0 -28 0 -28 65 -28 63 0 65 1 65 25 0 14 -6 27
-12 30 -30 9 -105 15 -111 9z"/>
</g>
</svg>
