<svg version="1.0" xmlns="http://www.w3.org/2000/svg"
 width="668px" style="transform:scale(1,1.001);" height="375.75px" viewBox="0 0 320.000000 180.000000"
 preserveAspectRatio="xMidYMid meet">
<g transform="translate(0.000000,180.000000) scale(0.100000,-0.100000)"
fill="#000000" stroke="none">
<path d="M0 905 l0 -895 1600 0 1600 0 0 895 0 895 -1600 0 -1600 0 0 -895z m2016 706
c84 -40 106 -73 112 -170 3 -59 -1 -90 -17 -138 -12 -34 -21 -72 -21 -83 0
-39 50 -108 134 -185 113 -103 131 -143 146 -330 12 -162 21 -199 55 -246 13
-19 33 -50 44 -70 20 -36 20 -37 1 -54 -27 -25 -83 -34 -135 -23 -35 7 -56 6
-93 -6 -39 -13 -78 -15 -217 -10 -94 3 -222 7 -285 8 -63 2 -198 7 -299 11
-179 8 -185 9 -212 34 -37 35 -84 153 -83 211 1 58 30 115 108 210 34 41 69
86 78 101 35 55 119 138 148 144 17 4 33 12 37 20 5 7 24 20 43 29 19 9 46 23
60 31 14 8 37 17 52 20 14 3 40 17 57 31 43 36 41 71 -6 124 -53 58 -73 98
-73 147 0 98 61 172 175 209 67 21 124 17 191 -15z"/>
</g>
</svg>
