<svg version="1.0" xmlns="http://www.w3.org/2000/svg"
 width="668px" style="transform:scale(1,1.001);" height="375.75px" viewBox="0 0 320.000000 180.000000"
 preserveAspectRatio="xMidYMid meet">
<g transform="translate(0.000000,180.000000) scale(0.100000,-0.100000)"
fill="#000000" stroke="none">
<path d="M0 905 l0 -895 1600 0 1600 0 0 895 0 895 -1600 0 -1600 0 0 -895z m1867 785
c35 -27 52 -49 57 -71 7 -37 -2 -104 -19 -139 -27 -55 -28 -85 -1 -117 14 -17
40 -33 57 -37 18 -3 41 -15 53 -26 12 -11 39 -37 62 -58 49 -44 66 -76 88
-160 19 -76 20 -130 4 -184 -12 -42 -27 -59 -123 -148 -82 -75 -88 -90 -89
-247 -1 -117 -3 -135 -22 -160 l-21 -28 -174 -3 c-96 -1 -183 0 -195 2 -30 8
-44 47 -44 124 -1 83 -13 137 -39 173 -18 24 -48 75 -103 179 -14 24 -18 47
-14 75 14 115 28 185 46 233 25 65 82 157 110 174 11 7 20 18 20 25 0 7 16 19
35 27 44 19 84 64 85 94 0 13 -8 37 -17 55 -10 20 -17 57 -17 100 l-1 68 47
45 c45 42 50 44 106 44 54 0 64 -3 109 -40z"/>
</g>
</svg>
