<svg version="1.0" xmlns="http://www.w3.org/2000/svg"
 width="668px" style="transform:scale(1,1.001);" height="375.75px" viewBox="0 0 320.000000 180.000000"
 preserveAspectRatio="xMidYMid meet">
<g transform="translate(0.000000,180.000000) scale(0.100000,-0.100000)"
fill="#000000" stroke="none">
<path d="M0 905 l0 -895 629 0 629 0 5 58 c7 66 22 186 32 254 7 46 7 47 -27 61 -40 17
-50 50 -42 139 3 29 8 136 13 238 5 137 11 194 23 220 9 19 25 55 36 80 10 25
38 65 62 90 42 43 44 47 45 108 0 56 3 65 29 87 27 23 37 25 128 25 97 0 99 0
108 -26 11 -28 -2 -98 -20 -109 -21 -13 -10 -72 20 -110 16 -21 35 -56 41 -79
11 -40 10 -63 -10 -194 -7 -43 -5 -124 4 -258 l14 -196 -22 -31 c-12 -17 -30
-38 -39 -47 -21 -18 -48 -90 -55 -143 -4 -30 1 -51 22 -88 15 -28 24 -56 21
-64 -5 -13 97 -15 774 -15 l780 0 0 895 0 895 -1600 0 -1600 0 0 -895z"/>
<path d="M1402 197 c-19 -23 -23 -58 -17 -122 l7 -65 49 0 c45 0 49 2 49 24 0 13 -7 29
-15 36 -8 7 -15 23 -15 37 0 28 -23 88 -38 97 -5 3 -14 0 -20 -7z"/>
</g>
</svg>
