<svg version="1.0" xmlns="http://www.w3.org/2000/svg"
 width="668px" style="transform:scale(1,1.001);" height="375.75px" viewBox="0 0 320.000000 180.000000"
 preserveAspectRatio="xMidYMid meet">
<g transform="translate(0.000000,180.000000) scale(0.100000,-0.100000)"
fill="#000000" stroke="none">
<path d="M0 905 l0 -895 1600 0 1600 0 0 895 0 895 -798 0 -798 0 -11 -76 c-14 -96 -6
-128 31 -132 15 -2 35 3 44 11 10 8 37 17 62 21 24 4 50 12 56 17 19 16 65
-10 88 -50 14 -24 21 -59 24 -117 l4 -83 -42 -48 -42 -48 -76 -5 c-91 -6 -95
-11 -109 -131 -9 -75 -8 -88 28 -282 5 -32 13 -96 16 -142 l6 -84 -43 -51
c-53 -64 -62 -116 -33 -203 24 -68 15 -82 -48 -81 -29 1 -46 9 -65 30 -25 26
-27 27 -40 10 -7 -10 -16 -39 -19 -65 -4 -25 -8 -52 -10 -59 -7 -21 -55 -33
-99 -25 -35 7 -42 14 -55 47 -14 37 -14 40 8 57 18 14 21 25 17 47 -6 23 -2
32 24 50 17 13 34 20 39 18 5 -3 23 30 41 74 26 65 34 102 41 191 4 66 4 121
-2 135 -5 14 -30 46 -57 73 -26 26 -54 65 -61 87 -7 21 -15 104 -18 184 -3 80
-10 153 -15 163 -8 16 -18 18 -71 12 -76 -8 -89 1 -106 70 -18 76 7 177 57
228 43 44 77 48 117 11 30 -28 52 -28 69 -2 8 13 8 23 -2 38 -6 11 -12 40 -12
65 l0 45 -670 0 -670 0 0 -895z"/>
</g>
</svg>
