<svg version="1.0" xmlns="http://www.w3.org/2000/svg"
 width="668px" style="transform:scale(1,1.001);" height="375.75px" viewBox="0 0 320.000000 180.000000"
 preserveAspectRatio="xMidYMid meet">
<g transform="translate(0.000000,180.000000) scale(0.100000,-0.100000)"
fill="#000000" stroke="none">
<path d="M0 905 l0 -895 935 0 935 0 0 20 c0 12 -7 35 -16 51 -13 26 -14 41 -4 97 7 37
15 90 20 117 4 28 13 61 18 75 6 14 23 66 38 115 15 50 39 117 52 150 19 47
26 88 32 190 5 88 12 141 23 162 16 29 15 32 -6 64 -24 35 -50 46 -120 48 -29
1 -45 8 -68 34 -16 17 -33 43 -36 57 -7 27 13 139 29 158 6 7 8 27 5 46 -7 42
14 78 34 59 20 -20 35 -16 47 12 6 14 18 25 25 25 7 0 23 14 35 30 13 17 28
30 34 30 7 0 26 14 43 30 24 23 47 33 91 40 85 15 128 5 158 -35 23 -30 26
-43 26 -117 0 -122 6 -128 125 -128 84 0 101 -3 161 -31 l66 -31 22 21 c17 18
21 34 21 86 0 37 -6 70 -13 77 -13 13 -17 88 -4 88 20 -1 31 -22 51 -99 25
-101 29 -251 7 -274 -8 -7 -25 -36 -38 -63 -26 -56 -54 -74 -118 -74 -25 0
-50 -4 -57 -8 -17 -11 -39 -73 -73 -202 -43 -162 -49 -194 -50 -285 0 -44 -7
-107 -15 -140 -9 -40 -14 -117 -15 -227 l0 -168 400 0 400 0 0 895 0 895
-1600 0 -1600 0 0 -895z"/>
<path d="M1989 1415 c-34 -18 -44 -44 -25 -63 19 -19 98 -27 125 -12 22 11 22 12 5 38
-33 53 -59 62 -105 37z"/>
<path d="M2130 308 c-7 -18 -25 -60 -40 -93 -15 -33 -31 -76 -34 -96 -4 -21 -13 -42
-21 -49 -8 -7 -15 -23 -15 -36 0 -24 1 -24 110 -24 104 0 110 1 110 20 0 12
-9 33 -20 48 -23 33 -39 99 -40 167 -1 95 -25 126 -50 63z"/>
</g>
</svg>
