<svg version="1.0" xmlns="http://www.w3.org/2000/svg"
 width="668px" style="transform:scale(1,1.001);" height="375.75px" viewBox="0 0 320.000000 180.000000"
 preserveAspectRatio="xMidYMid meet">
<g transform="translate(0.000000,180.000000) scale(0.100000,-0.100000)"
fill="#000000" stroke="none">
<path d="M0 905 l0 -895 716 0 716 0 -8 78 c-5 42 -8 173 -7 289 2 204 -5 255 -26 200
-6 -14 -15 -28 -20 -32 -6 -3 -11 -14 -11 -24 0 -10 -18 -43 -40 -75 -22 -31
-40 -60 -40 -63 0 -4 -6 -14 -14 -22 -7 -9 -26 -47 -40 -86 -30 -76 -64 -115
-101 -115 -20 0 -25 7 -31 36 -11 58 1 106 54 215 28 57 65 140 82 184 18 44
38 95 46 113 8 18 14 40 14 50 0 18 20 84 52 172 12 30 38 73 59 95 46 48 49
72 14 147 -37 80 -31 126 25 190 21 24 32 28 75 28 45 0 55 -4 82 -32 39 -41
47 -68 44 -138 -2 -49 1 -58 26 -82 15 -15 48 -31 71 -37 80 -17 122 -75 147
-201 26 -131 24 -185 -10 -250 -23 -46 -28 -66 -27 -120 1 -36 3 -72 4 -80 3
-18 -10 -276 -18 -372 l-6 -68 686 0 686 0 0 895 0 895 -1600 0 -1600 0 0
-895z"/>
<path d="M1606 229 c-7 -39 -26 -183 -26 -201 0 -14 9 -18 41 -18 l42 0 -8 42 c-4 24
-11 74 -15 111 -9 74 -25 107 -34 66z"/>
</g>
</svg>
