<svg version="1.0" xmlns="http://www.w3.org/2000/svg"
 width="668px" style="transform:scale(1,1.001);" height="375.75px" viewBox="0 0 320.000000 180.000000"
 preserveAspectRatio="xMidYMid meet">
<g transform="translate(0.000000,180.000000) scale(0.100000,-0.100000)"
fill="#000000" stroke="none">
<path d="M0 905 l0 -895 590 0 c583 0 590 0 590 20 0 11 -9 29 -21 41 -20 20 -20 22 -3
40 9 10 22 19 28 19 16 0 46 53 46 82 0 14 -14 67 -32 119 -44 132 -42 192 12
299 4 9 11 31 15 50 4 19 18 56 32 81 32 59 28 89 -13 103 -17 6 -39 19 -48
29 -23 23 -61 22 -72 -2 -5 -10 -44 -56 -88 -102 -43 -46 -99 -115 -123 -153
-39 -60 -46 -67 -59 -54 -50 50 -13 188 75 275 17 18 31 34 31 38 0 3 11 21
24 38 22 29 33 51 65 130 19 47 13 74 -24 113 -51 54 -89 136 -81 177 11 57
24 67 101 73 87 7 101 -2 129 -82 l21 -59 52 -6 c29 -4 71 -16 93 -28 22 -11
46 -21 54 -21 7 0 23 -11 36 -25 13 -14 31 -25 40 -25 30 0 64 -53 96 -147 12
-35 15 -63 9 -108 -4 -33 -10 -91 -14 -128 -4 -48 -12 -73 -24 -82 -9 -7 -17
-15 -17 -19 0 -4 -20 -28 -45 -54 -147 -154 -149 -159 -105 -297 17 -55 35
-109 40 -120 25 -53 40 -112 40 -161 l0 -54 875 0 875 0 0 895 0 895 -1600 0
-1600 0 0 -895z"/>
</g>
</svg>
