<svg version="1.0" xmlns="http://www.w3.org/2000/svg"
 width="668px" style="transform:scale(1,1.001);" height="375.75px" viewBox="0 0 320.000000 180.000000"
 preserveAspectRatio="xMidYMid meet">
<g transform="translate(0.000000,180.000000) scale(0.100000,-0.100000)"
fill="#000000" stroke="none">
<path d="M0 905 l0 -895 790 0 790 0 0 24 c0 15 -7 26 -20 29 -34 9 -40 50 -40 266 0
176 -2 211 -15 221 -41 34 -59 75 -66 149 -3 42 -12 105 -19 139 -11 56 -10
72 5 130 25 93 108 287 150 351 19 29 35 65 35 79 0 15 -19 55 -45 92 -27 39
-47 81 -51 106 -7 50 9 115 36 139 11 10 20 29 20 42 l0 23 -785 0 -785 0 0
-895z"/>
<path d="M1780 1778 c0 -12 14 -36 31 -54 38 -40 49 -85 36 -156 -5 -30 -7 -66 -4 -80
9 -36 52 -78 80 -78 26 0 81 -61 105 -115 9 -20 17 -112 24 -275 14 -322 13
-336 -11 -398 -14 -36 -21 -75 -21 -125 0 -109 -88 -437 -117 -437 -7 0 -13
-11 -13 -25 l0 -25 655 0 655 0 0 895 0 895 -710 0 -710 0 0 -22z"/>
</g>
</svg>
