<svg version="1.0" xmlns="http://www.w3.org/2000/svg"
 width="668px" style="transform:scale(1,1.001);" height="375.75px" viewBox="0 0 320.000000 180.000000"
 preserveAspectRatio="xMidYMid meet">
<g transform="translate(0.000000,180.000000) scale(0.100000,-0.100000)"
fill="#000000" stroke="none">
<path d="M0 905 l0 -895 1600 0 1600 0 0 895 0 895 -1600 0 -1600 0 0 -895z m1932 731
c73 -19 80 -23 107 -57 37 -47 42 -91 29 -229 -16 -171 -12 -186 70 -268 37
-37 80 -78 95 -91 46 -39 114 -124 122 -151 4 -14 16 -36 26 -49 13 -16 19
-40 19 -75 0 -28 7 -100 15 -161 8 -60 15 -130 15 -153 0 -47 -24 -99 -50
-107 -25 -8 -383 -9 -595 -1 -110 4 -243 9 -295 10 -122 4 -164 16 -223 65
-65 54 -96 102 -109 170 -6 31 -19 64 -29 73 -45 44 -31 119 31 172 17 14 55
54 85 89 42 49 64 67 97 76 24 7 60 26 80 42 20 16 39 29 42 29 3 0 36 20 74
43 37 24 83 49 103 56 51 16 79 46 79 82 0 23 -13 44 -54 88 -30 31 -60 69
-65 84 -41 106 34 231 154 260 79 19 113 20 177 3z"/>
</g>
</svg>
