<svg version="1.0" xmlns="http://www.w3.org/2000/svg"
 width="668px" style="transform:scale(1,1.001);" height="375.75px" viewBox="0 0 320.000000 180.000000"
 preserveAspectRatio="xMidYMid meet">
<g transform="translate(0.000000,180.000000) scale(0.100000,-0.100000)"
fill="#000000" stroke="none">
<path d="M0 905 l0 -895 656 0 656 0 -7 63 c-4 40 1 126 15 242 38 321 37 395 -4 395
-35 0 -79 35 -99 79 -19 40 -21 63 -20 186 1 100 7 166 22 233 22 98 64 188
93 198 31 10 78 80 88 132 21 115 60 158 136 155 85 -3 124 -50 124 -150 0
-52 5 -69 30 -106 39 -58 48 -84 56 -161 7 -69 -9 -157 -31 -176 -8 -7 -24
-32 -36 -56 -17 -36 -20 -56 -15 -97 31 -269 31 -409 0 -483 -40 -96 -84 -234
-86 -270 -1 -41 19 -91 46 -113 9 -8 16 -26 16 -42 l0 -29 780 0 780 0 0 895
0 895 -1600 0 -1600 0 0 -895z"/>
<path d="M1310 926 c0 -19 5 -38 10 -41 6 -4 10 8 10 29 0 19 -4 38 -10 41 -6 4 -10 -8
-10 -29z"/>
<path d="M1512 535 c0 -16 2 -22 5 -12 2 9 2 23 0 30 -3 6 -5 -1 -5 -18z"/>
<path d="M1427 63 c-4 -3 -7 -17 -7 -30 0 -21 5 -23 45 -23 41 0 45 2 45 24 0 18 -7 25
-31 30 -39 8 -44 8 -52 -1z"/>
</g>
</svg>
