<svg version="1.0" xmlns="http://www.w3.org/2000/svg"
 width="668px" style="transform:scale(1,1.001);" height="375.75px" viewBox="0 0 320.000000 180.000000"
 preserveAspectRatio="xMidYMid meet">
<g transform="translate(0.000000,180.000000) scale(0.100000,-0.100000)"
fill="#000000" stroke="none">
<path d="M0 905 l0 -895 1600 0 1600 0 0 895 0 895 -1600 0 -1600 0 0 -895z m1930 709
c96 -37 106 -43 160 -98 56 -57 67 -95 57 -201 -5 -47 -15 -79 -44 -129 -58
-103 -65 -118 -73 -151 -8 -34 6 -80 35 -116 23 -29 107 -74 175 -95 61 -18
160 -106 160 -141 0 -14 9 -40 20 -58 13 -21 23 -65 31 -134 12 -116 3 -156
-39 -172 -34 -13 -734 -21 -1036 -12 l-249 8 -20 28 c-19 25 -20 31 -8 70 7
23 16 63 21 88 10 55 72 175 114 222 38 41 131 102 170 111 15 4 35 13 42 21
8 8 36 17 62 21 68 10 112 59 112 125 0 41 -28 126 -60 179 -102 171 -110 247
-36 315 66 62 169 134 206 146 39 12 128 0 200 -27z"/>
</g>
</svg>
