<svg version="1.0" xmlns="http://www.w3.org/2000/svg"
 width="668px" style="transform:scale(1,1.001);" height="375.75px" viewBox="0 0 320.000000 180.000000"
 preserveAspectRatio="xMidYMid meet">
<g transform="translate(0.000000,180.000000) scale(0.100000,-0.100000)"
fill="#000000" stroke="none">
<path d="M0 905 l0 -895 795 0 795 0 0 24 c0 13 -6 29 -14 35 -8 7 -16 42 -19 94 -3 45
-17 153 -30 239 -36 232 -60 255 -139 137 -27 -39 -48 -77 -48 -85 0 -26 76
-157 124 -214 7 -8 19 -36 26 -62 11 -41 10 -51 -4 -72 -9 -14 -26 -30 -37
-37 -23 -12 -182 -9 -195 4 -9 8 12 53 39 84 27 31 15 69 -39 123 -52 51 -69
85 -84 172 -11 58 -10 66 15 129 15 37 37 77 49 90 29 33 85 125 92 154 3 13
1 33 -6 44 -14 27 -73 29 -95 4 -146 -168 -143 -163 -137 -209 4 -40 2 -45
-34 -78 -22 -20 -46 -36 -54 -36 -19 0 -75 102 -84 152 -10 58 9 111 54 152
22 20 44 36 49 36 5 0 12 9 16 19 3 10 16 22 29 25 20 5 105 112 106 134 1 12
45 58 74 77 42 28 50 59 27 104 -11 20 -27 43 -35 50 -33 27 -5 110 37 111 6
0 46 5 87 10 80 11 129 -1 148 -37 11 -18 0 -77 -18 -98 -7 -8 -9 -26 -5 -44
5 -24 15 -33 50 -47 25 -9 60 -32 80 -51 35 -34 75 -101 75 -124 0 -13 34 -92
51 -119 5 -8 12 -22 15 -30 6 -15 25 -57 63 -141 27 -60 28 -109 2 -109 -13 0
-27 15 -42 45 -12 25 -23 44 -25 42 -1 -1 2 -26 7 -55 12 -77 -2 -131 -33
-132 -14 0 -48 79 -48 112 0 18 -5 40 -10 48 -18 27 -31 -10 -26 -75 2 -33 9
-127 16 -210 11 -148 9 -289 -5 -352 l-7 -33 776 0 776 0 0 895 0 895 -1600 0
-1600 0 0 -895z"/>
</g>
</svg>
