<svg version="1.0" xmlns="http://www.w3.org/2000/svg"
 width="668px" style="transform:scale(1,1.001);" height="375.75px" viewBox="0 0 320.000000 180.000000"
 preserveAspectRatio="xMidYMid meet">
<g transform="translate(0.000000,180.000000) scale(0.100000,-0.100000)"
fill="#000000" stroke="none">
<path d="M0 905 l0 -895 740 0 740 0 0 25 c0 27 -5 29 -60 26 -48 -3 -77 29 -90 99 -13
68 -7 99 41 234 22 59 38 120 37 135 -1 17 11 45 32 77 l35 49 3 145 c4 183
-8 231 -58 241 -28 6 -39 3 -69 -22 -20 -16 -41 -29 -48 -29 -31 0 -1 93 35
110 22 9 24 15 18 49 -8 52 16 111 47 112 12 1 34 2 49 3 62 4 77 69 33 141
-54 88 -68 128 -69 201 -1 102 2 104 139 104 l113 0 37 -77 c21 -43 38 -91 37
-108 0 -39 27 -115 42 -115 12 0 53 -76 74 -135 31 -89 48 -334 32 -450 -15
-101 -57 -259 -91 -340 -18 -42 -35 -110 -44 -170 -8 -55 -21 -134 -30 -175
-9 -41 -19 -87 -22 -102 l-5 -28 751 0 751 0 0 895 0 895 -1600 0 -1600 0 0
-895z"/>
</g>
</svg>
