<svg version="1.0" xmlns="http://www.w3.org/2000/svg"
 width="668px" style="transform:scale(1,1.001);" height="375.75px" viewBox="0 0 320.000000 180.000000"
 preserveAspectRatio="xMidYMid meet">
<g transform="translate(0.000000,180.000000) scale(0.100000,-0.100000)"
fill="#000000" stroke="none">
<path d="M0 905 l0 -895 660 0 660 0 0 24 c0 13 -6 29 -14 35 -48 40 -56 350 -21 761
21 244 73 398 141 420 19 7 40 20 47 31 8 10 28 22 45 25 63 13 83 68 46 129
-75 124 -74 178 5 255 l46 45 80 0 c79 0 81 -1 117 -36 76 -77 85 -133 37
-235 -29 -62 -30 -68 -17 -107 11 -34 18 -43 40 -45 15 -2 36 -14 47 -28 11
-13 32 -29 48 -35 49 -18 82 -85 95 -191 11 -98 3 -431 -12 -503 -17 -83 -40
-183 -59 -257 -21 -82 -81 -220 -100 -232 -6 -4 -11 -18 -11 -32 l0 -24 660 0
660 0 0 895 0 895 -1600 0 -1600 0 0 -895z"/>
</g>
</svg>
