<svg version="1.0" xmlns="http://www.w3.org/2000/svg"
 width="668px" style="transform:scale(1,1.001);" height="375.75px" viewBox="0 0 320.000000 180.000000"
 preserveAspectRatio="xMidYMid meet">
<g transform="translate(0.000000,180.000000) scale(0.100000,-0.100000)"
fill="#000000" stroke="none">
<path d="M0 905 l0 -895 1600 0 1600 0 0 895 0 895 -1600 0 -1600 0 0 -895z m1787 816
c23 -4 49 -15 57 -24 9 -8 29 -18 45 -22 39 -8 97 -73 112 -124 11 -35 9 -50
-11 -118 -13 -43 -33 -91 -46 -106 -18 -21 -24 -41 -24 -74 0 -42 5 -50 53
-98 28 -29 66 -61 82 -72 45 -28 133 -113 155 -148 30 -49 58 -152 65 -240 3
-44 13 -132 22 -197 15 -111 15 -118 -3 -155 l-19 -38 -390 -3 c-214 -1 -466
2 -559 6 -169 9 -169 9 -194 37 -21 25 -24 36 -19 84 12 145 67 365 115 456
22 44 95 135 107 135 6 0 24 13 40 30 16 17 34 30 41 30 6 0 17 7 25 16 7 8
29 24 48 34 20 10 53 34 75 54 36 33 38 39 33 77 -3 22 -18 58 -32 80 -31 44
-65 138 -65 180 0 64 32 110 115 164 74 48 91 52 172 36z"/>
</g>
</svg>
