<svg version="1.0" xmlns="http://www.w3.org/2000/svg"
 width="668px" style="transform:scale(1,1.001);" height="375.75px" viewBox="0 0 320.000000 180.000000"
 preserveAspectRatio="xMidYMid meet">
<g transform="translate(0.000000,180.000000) scale(0.100000,-0.100000)"
fill="#000000" stroke="none">
<path d="M0 905 l0 -895 375 0 375 0 0 22 c0 12 -8 30 -17 40 -20 22 -29 112 -18 193 6
55 18 74 103 168 27 30 96 87 105 87 7 0 37 16 67 35 30 19 64 35 75 35 12 0
31 13 44 30 12 17 26 28 31 25 15 -9 62 26 56 42 -3 8 -2 11 4 8 10 -6 82 65
133 132 18 23 46 48 64 57 17 8 34 24 38 34 8 27 74 52 138 52 39 0 48 3 37
11 -12 8 -11 9 5 5 18 -5 104 19 133 37 23 15 14 80 -18 123 -16 23 -36 66
-44 97 -8 30 -20 66 -27 79 -16 30 -13 85 6 114 8 13 15 31 15 41 0 10 16 33
35 51 19 19 42 49 51 67 9 19 29 40 44 47 16 7 33 22 38 33 7 15 35 28 100 48
50 15 100 27 111 27 16 0 21 6 21 25 l0 25 -1040 0 -1040 0 0 -895z"/>
<path d="M2190 1776 c0 -18 7 -25 28 -29 67 -13 169 -49 201 -70 20 -13 45 -27 56 -30
38 -12 122 -110 139 -161 9 -27 28 -67 41 -91 40 -68 34 -154 -15 -210 -10
-11 -23 -38 -30 -60 -7 -22 -26 -56 -42 -76 -39 -49 -50 -92 -43 -174 14 -160
48 -221 193 -345 39 -35 72 -66 72 -71 0 -4 15 -26 34 -48 19 -23 40 -58 46
-79 7 -20 22 -50 35 -67 44 -61 61 -169 30 -195 -8 -7 -15 -23 -15 -36 l0 -24
140 0 140 0 0 895 0 895 -505 0 -505 0 0 -24z"/>
</g>
</svg>
