<svg version="1.0" xmlns="http://www.w3.org/2000/svg"
 width="668px" style="transform:scale(1,1.001);" height="375.75px" viewBox="0 0 320.000000 180.000000"
 preserveAspectRatio="xMidYMid meet">
<g transform="translate(0.000000,180.000000) scale(0.100000,-0.100000)"
fill="#000000" stroke="none">
<path d="M0 905 l0 -895 650 0 650 0 0 30 c0 16 11 59 24 94 14 36 29 90 35 121 6 30
22 84 36 120 15 35 28 79 31 97 5 36 -58 236 -88 279 -17 24 -18 24 -32 4 -95
-128 -125 -152 -154 -123 -17 17 -15 69 3 95 45 64 90 178 141 353 32 114 70
194 98 210 12 7 32 25 44 41 21 26 22 33 13 61 -16 46 -13 84 9 128 l20 40 65
0 c59 0 66 -2 82 -27 14 -21 17 -44 16 -100 -2 -58 1 -79 18 -107 11 -19 28
-38 38 -41 40 -12 51 -66 50 -243 0 -92 -5 -214 -11 -272 -6 -58 -11 -166 -12
-240 -1 -145 -3 -153 -81 -280 -12 -19 -25 -50 -28 -69 -6 -28 -3 -37 21 -60
34 -31 52 -62 52 -90 l0 -21 755 0 755 0 0 895 0 895 -1600 0 -1600 0 0 -895z"/>
<path d="M1450 35 c0 -16 6 -25 15 -25 9 0 15 9 15 25 0 16 -6 25 -15 25 -9 0 -15 -9
-15 -25z"/>
<path d="M1510 35 c0 -21 5 -25 30 -25 25 0 30 4 30 25 0 21 -5 25 -30 25 -25 0 -30 -4
-30 -25z"/>
</g>
</svg>
