<svg version="1.0" xmlns="http://www.w3.org/2000/svg"
 width="668px" style="transform:scale(1,1.001);" height="375.75px" viewBox="0 0 320.000000 180.000000"
 preserveAspectRatio="xMidYMid meet">
<g transform="translate(0.000000,180.000000) scale(0.100000,-0.100000)"
fill="#000000" stroke="none">
<path d="M0 905 l0 -895 690 0 690 0 -6 78 c-4 42 -19 115 -34 162 -60 186 -87 320 -81
400 8 116 6 145 -10 148 -20 4 -82 -52 -102 -93 -8 -17 -18 -49 -22 -70 -12
-74 -13 -75 -55 -75 -57 0 -70 19 -70 98 0 81 12 106 67 146 23 17 61 55 83
84 38 49 100 167 100 191 0 6 14 21 31 33 47 35 60 66 48 119 -15 63 -5 107
33 146 39 40 65 42 117 7 37 -24 40 -30 46 -87 9 -72 33 -113 75 -122 16 -3
41 -16 56 -27 14 -12 49 -25 77 -29 56 -9 82 -31 110 -92 21 -49 22 -71 1
-102 -19 -29 -48 -32 -101 -10 -50 21 -76 19 -102 -9 -21 -23 -23 -31 -18
-118 2 -51 12 -158 21 -238 22 -179 19 -231 -19 -290 -30 -47 -33 -70 -21
-137 11 -54 -11 -69 -79 -52 -52 13 -75 2 -75 -37 l0 -24 875 0 875 0 0 895 0
895 -1600 0 -1600 0 0 -895z"/>
<path d="M1439 550 c-6 -111 4 -258 19 -294 l18 -40 22 65 c12 36 22 74 22 85 0 28 -40
143 -62 179 l-18 30 -1 -25z"/>
</g>
</svg>
