<svg version="1.0" xmlns="http://www.w3.org/2000/svg"
 width="668px" style="transform:scale(1,1.001);" height="375.75px" viewBox="0 0 320.000000 180.000000"
 preserveAspectRatio="xMidYMid meet">
<g transform="translate(0.000000,180.000000) scale(0.100000,-0.100000)"
fill="#000000" stroke="none">
<path d="M0 905 l0 -895 1600 0 1600 0 0 895 0 895 -1600 0 -1600 0 0 -895z m1845 796
c15 -11 36 -21 45 -21 10 0 41 -25 69 -55 61 -68 72 -109 47 -175 -10 -25 -20
-56 -23 -70 -3 -14 -14 -34 -24 -45 -27 -30 -41 -76 -34 -111 5 -29 91 -124
112 -124 4 0 35 -25 68 -55 33 -30 63 -55 67 -55 3 0 18 -20 32 -45 36 -61 72
-210 81 -330 3 -55 13 -131 21 -170 8 -38 12 -82 9 -97 -9 -40 -57 -71 -96
-63 -30 7 -106 9 -732 23 -329 7 -349 8 -363 26 -18 26 -18 108 1 170 8 27 15
68 15 90 1 23 8 59 16 81 8 22 22 63 29 90 13 44 34 91 87 188 17 30 56 62
163 133 39 26 78 54 88 63 58 49 87 85 87 105 0 12 -16 49 -35 81 -20 32 -41
79 -47 104 -6 25 -15 54 -20 64 -23 46 33 130 132 197 41 27 51 29 112 26 49
-2 73 -9 93 -25z"/>
</g>
</svg>
