<svg version="1.0" xmlns="http://www.w3.org/2000/svg"
 width="668px" style="transform:scale(1,1.001);" height="375.75px" viewBox="0 0 320.000000 180.000000"
 preserveAspectRatio="xMidYMid meet">
<g transform="translate(0.000000,180.000000) scale(0.100000,-0.100000)"
fill="#000000" stroke="none">
<path d="M0 905 l0 -895 920 0 920 0 0 23 c0 13 -9 41 -20 64 -23 48 -44 106 -70 188
-10 33 -29 85 -42 115 -13 30 -33 84 -43 120 -10 36 -28 76 -39 90 -39 46 -56
88 -66 162 -5 40 -14 89 -20 108 -5 19 -21 95 -35 168 -25 129 -25 136 -10
190 10 35 32 75 55 103 22 26 55 80 75 120 48 99 64 121 106 158 32 27 44 31
97 31 51 0 65 -4 88 -25 15 -14 31 -25 35 -25 5 0 20 -17 34 -37 28 -42 35
-121 13 -145 -7 -7 -25 -30 -40 -50 l-28 -36 51 -53 c45 -47 58 -70 108 -194
22 -55 33 -93 36 -123 4 -41 -18 -149 -44 -220 -24 -65 -17 -95 36 -160 21
-26 43 -55 49 -67 36 -67 90 -166 110 -203 34 -61 68 -205 55 -231 -6 -11 -11
-31 -11 -45 l0 -26 440 0 440 0 0 895 0 895 -1600 0 -1600 0 0 -895z"/>
<path d="M2025 193 c4 -38 7 -94 6 -126 l-2 -57 66 0 c63 0 65 1 65 25 0 40 -97 208
-127 219 -14 6 -15 -2 -8 -61z"/>
</g>
</svg>
