<svg version="1.0" xmlns="http://www.w3.org/2000/svg"
 width="668px" style="transform:scale(1,1.001);" height="375.75px" viewBox="0 0 320.000000 180.000000"
 preserveAspectRatio="xMidYMid meet">
<g transform="translate(0.000000,180.000000) scale(0.100000,-0.100000)"
fill="#000000" stroke="none">
<path d="M0 905 l0 -895 490 0 490 0 0 24 c0 15 -7 26 -20 29 -25 6 -26 36 -3 68 10 13
23 32 28 41 18 31 69 102 102 144 18 23 33 44 33 48 0 4 13 26 29 49 67 99 91
177 53 177 -28 0 -63 30 -78 66 -18 42 -30 269 -16 278 6 3 23 1 38 -4 40 -15
64 -7 127 45 31 25 59 45 62 45 8 0 78 52 87 65 4 5 8 21 8 34 0 13 14 46 31
72 36 57 60 65 180 56 71 -5 82 -8 109 -35 39 -39 38 -68 -1 -150 l-32 -64 21
-36 c61 -106 66 -123 65 -217 -1 -52 -8 -108 -17 -134 -23 -62 -21 -123 5
-155 11 -15 49 -55 83 -89 101 -100 125 -161 92 -226 -8 -15 -18 -51 -22 -79
l-7 -52 632 0 631 0 0 895 0 895 -1600 0 -1600 0 0 -895z"/>
<path d="M1576 234 c-22 -8 -47 -21 -56 -29 -9 -8 -31 -18 -48 -21 -18 -4 -35 -10 -38
-15 -8 -14 -95 -49 -120 -49 -17 0 -25 7 -30 24 -3 14 -12 27 -20 30 -19 7
-104 -37 -149 -79 -22 -19 -45 -35 -52 -35 -7 0 -13 -11 -13 -25 l0 -25 365 0
c285 0 365 3 365 13 0 6 -5 39 -10 72 -9 54 -15 65 -60 108 -54 51 -70 55
-134 31z"/>
</g>
</svg>
