<svg version="1.0" xmlns="http://www.w3.org/2000/svg"
 width="668px" style="transform:scale(1,1.001);" height="375.75px" viewBox="0 0 320.000000 180.000000"
 preserveAspectRatio="xMidYMid meet">
<g transform="translate(0.000000,180.000000) scale(0.100000,-0.100000)"
fill="#000000" stroke="none">
<path d="M0 905 l0 -895 649 0 648 0 -1 128 c0 70 2 174 7 232 l7 105 -17 -51 c-10 -28
-28 -64 -41 -79 -43 -54 -47 -30 -47 269 l0 273 39 76 c37 72 38 77 25 109
-20 48 -12 75 33 119 40 38 42 39 114 39 l73 0 5 -32 c3 -18 7 -50 10 -71 6
-44 21 -67 45 -67 19 0 62 -42 81 -80 7 -13 19 -105 26 -205 8 -109 21 -208
33 -250 42 -150 39 -237 -7 -258 -56 -25 -67 -69 -27 -107 39 -37 29 -70 -21
-70 -21 0 -125 48 -147 67 -24 22 -22 37 14 119 31 69 31 73 20 140 -21 123
-39 123 -64 -1 -18 -84 -37 -268 -37 -348 l0 -57 890 0 890 0 0 895 0 895
-1600 0 -1600 0 0 -895z"/>
</g>
</svg>
