<svg version="1.0" xmlns="http://www.w3.org/2000/svg"
 width="668px" style="transform:scale(1,1.001);" height="375.75px" viewBox="0 0 320.000000 180.000000"
 preserveAspectRatio="xMidYMid meet">
<g transform="translate(0.000000,180.000000) scale(0.100000,-0.100000)"
fill="#000000" stroke="none">
<path d="M0 905 l0 -895 635 0 635 0 0 25 c0 14 -5 25 -10 25 -6 0 -19 15 -30 32 -16
26 -20 51 -20 123 0 50 -5 123 -10 164 -9 66 -13 77 -50 113 -46 46 -40 48
-128 -39 -23 -24 -59 -51 -80 -62 -20 -10 -68 -36 -105 -57 -38 -22 -79 -45
-92 -52 -13 -6 -44 -15 -69 -18 -95 -13 -99 40 -11 140 30 35 55 67 55 71 0 4
9 20 21 36 23 33 20 34 -47 14 -60 -18 -154 -19 -176 -2 -9 6 -19 22 -22 34
-6 18 2 28 54 62 34 22 79 42 100 46 21 4 46 15 56 26 9 10 23 19 29 19 20 0
98 69 155 135 121 142 134 154 217 196 99 51 104 62 68 172 -30 96 -42 220
-26 269 14 42 71 98 129 128 59 31 155 24 210 -14 21 -14 42 -26 48 -26 5 0
29 -23 53 -51 l43 -50 -4 -74 c-3 -63 -7 -78 -30 -102 -74 -80 -70 -135 15
-181 27 -15 59 -33 71 -39 12 -7 30 -13 41 -13 11 0 34 -9 50 -21 26 -17 74
-44 174 -98 14 -8 40 -26 57 -40 17 -14 50 -37 73 -51 87 -51 138 -98 165
-151 23 -47 26 -65 26 -153 0 -97 -14 -261 -26 -319 -3 -16 -19 -44 -36 -63
-25 -29 -37 -34 -73 -34 -34 0 -46 5 -59 25 -9 13 -16 31 -16 38 0 17 -30 27
-77 27 -30 0 -34 -5 -68 -75 -20 -41 -40 -77 -46 -80 -5 -4 -9 -17 -9 -31 l0
-24 670 0 670 0 0 895 0 895 -1600 0 -1600 0 0 -895z"/>
</g>
</svg>
