<svg version="1.0" xmlns="http://www.w3.org/2000/svg"
 width="668px" style="transform:scale(1,1.001);" height="375.75px" viewBox="0 0 320.000000 180.000000"
 preserveAspectRatio="xMidYMid meet">
<g transform="translate(0.000000,180.000000) scale(0.100000,-0.100000)"
fill="#000000" stroke="none">
<path d="M0 905 l0 -895 544 0 543 0 6 93 c4 50 11 128 16 172 6 44 17 161 25 260 9 99
25 228 37 285 16 80 19 120 13 165 -4 33 -8 100 -9 148 -2 103 -5 107 -86 107
-95 0 -116 8 -138 50 -18 35 -19 42 -6 91 20 74 37 83 95 47 41 -25 79 -24
124 3 17 10 39 19 48 19 61 0 101 57 85 120 -16 58 14 127 68 157 55 31 75 29
118 -15 33 -34 37 -43 37 -89 0 -29 -4 -55 -10 -58 -5 -3 -10 -23 -10 -44 0
-42 17 -63 65 -78 17 -5 43 -27 60 -52 28 -39 30 -49 36 -174 5 -94 13 -148
27 -187 18 -49 26 -92 23 -126 -3 -30 -71 -21 -71 9 -1 21 -48 67 -70 67 -16
0 -20 -6 -20 -36 0 -19 4 -43 10 -53 27 -52 68 -492 79 -858 l1 -23 780 0 780
0 0 895 0 895 -1600 0 -1600 0 0 -895z"/>
<path d="M1347 668 c-37 -80 -96 -282 -111 -378 -9 -58 -20 -125 -25 -150 -5 -25 -12
-64 -16 -87 l-8 -43 167 0 166 0 -5 73 c-3 39 -8 86 -11 102 -3 17 -9 75 -14
130 -9 104 -49 282 -77 348 -20 46 -45 48 -66 5z"/>
</g>
</svg>
