<svg version="1.0" xmlns="http://www.w3.org/2000/svg"
 width="668px" style="transform:scale(1,1.001);" height="375.75px" viewBox="0 0 320.000000 180.000000"
 preserveAspectRatio="xMidYMid meet">
<g transform="translate(0.000000,180.000000) scale(0.100000,-0.100000)"
fill="#000000" stroke="none">
<path d="M0 905 l0 -895 756 0 757 0 -7 195 c-4 107 -9 204 -11 217 -3 13 -7 34 -10 48
-3 14 -7 43 -11 65 -3 22 -12 55 -21 74 -15 33 -16 33 -29 16 -31 -42 -8 -213
38 -290 l21 -36 -27 -67 c-33 -82 -42 -94 -84 -114 -28 -15 -34 -15 -47 -2
-19 20 -19 23 7 99 l22 63 -36 54 c-20 30 -43 81 -51 114 -22 84 -33 110 -51
117 -24 9 -20 77 9 160 13 40 29 109 34 155 8 60 18 95 38 128 16 25 33 54 38
64 53 92 69 109 108 115 34 6 41 13 58 49 10 22 19 50 19 62 0 11 13 32 28 47
39 37 83 36 134 -5 l40 -31 -4 -77 c-3 -70 -1 -80 23 -111 14 -19 34 -50 44
-69 19 -39 88 -110 107 -110 12 0 74 -68 95 -104 18 -31 17 -112 -2 -120 -8
-3 -15 -14 -15 -25 0 -11 -4 -22 -9 -25 -10 -7 -36 22 -45 49 -3 11 -19 35
-36 53 -16 18 -30 37 -30 42 0 5 -10 15 -22 21 -32 16 -54 37 -107 99 -36 42
-48 38 -99 -36 l-34 -48 7 -131 c3 -71 11 -165 17 -208 9 -60 9 -104 -1 -195
-11 -102 -10 -123 3 -161 16 -42 13 -91 -5 -91 -5 0 -9 -11 -9 -25 l0 -25 800
0 800 0 0 895 0 895 -1600 0 -1600 0 0 -895z"/>
</g>
</svg>
