<svg version="1.0" xmlns="http://www.w3.org/2000/svg"
 width="668px" style="transform:scale(1,1.001);" height="375.75px" viewBox="0 0 320.000000 180.000000"
 preserveAspectRatio="xMidYMid meet">
<g transform="translate(0.000000,180.000000) scale(0.100000,-0.100000)"
fill="#000000" stroke="none">
<path d="M0 905 l0 -895 1600 0 1600 0 0 895 0 895 -1600 0 -1600 0 0 -895z m1747 675
c48 -17 75 -36 118 -81 37 -38 55 -66 55 -83 0 -13 4 -35 9 -49 15 -38 -13
-145 -64 -243 -62 -121 -59 -164 12 -193 18 -7 38 -19 44 -27 6 -8 25 -14 41
-14 16 0 50 -11 76 -25 26 -14 53 -25 61 -25 8 0 29 -11 47 -25 18 -14 36 -25
40 -25 11 0 94 -89 94 -101 0 -6 11 -24 25 -41 14 -16 25 -41 25 -54 0 -14 11
-51 25 -84 44 -104 26 -190 -43 -210 -21 -5 -211 -5 -501 1 -256 5 -538 6
-627 3 -88 -4 -177 -4 -197 0 -60 11 -67 25 -67 134 0 83 4 104 25 147 13 28
25 56 25 62 0 29 125 132 178 148 12 3 22 10 22 15 0 10 136 80 155 80 41 0
73 103 41 129 -8 7 -18 27 -22 44 -3 18 -15 45 -26 60 -11 15 -24 44 -30 64
-5 20 -19 49 -31 65 -15 20 -22 48 -25 93 -4 61 -3 67 28 102 36 41 138 123
153 123 5 0 21 9 35 21 24 18 37 20 132 16 77 -3 122 -10 167 -27z"/>
</g>
</svg>
