<svg version="1.0" xmlns="http://www.w3.org/2000/svg"
 width="668px" style="transform:scale(1,1.001);" height="375.75px" viewBox="0 0 320.000000 180.000000"
 preserveAspectRatio="xMidYMid meet">
<g transform="translate(0.000000,180.000000) scale(0.100000,-0.100000)"
fill="#000000" stroke="none">
<path d="M0 905 l0 -895 1600 0 1600 0 0 895 0 895 -1600 0 -1600 0 0 -895z m1332 714
c92 -28 162 -84 205 -164 37 -69 40 -105 14 -166 -10 -24 -22 -67 -26 -95 -4
-29 -13 -69 -20 -90 -12 -34 -11 -43 6 -76 10 -20 27 -39 38 -43 10 -3 26 -14
36 -25 11 -12 31 -20 50 -20 38 0 94 -18 116 -36 8 -8 26 -14 40 -14 13 0 38
-8 56 -18 17 -9 49 -27 71 -39 70 -39 173 -196 186 -281 4 -24 16 -63 28 -85
24 -47 27 -122 6 -143 -10 -11 -149 -14 -733 -16 -822 -4 -755 -12 -755 85 0
37 8 69 25 103 14 27 30 63 35 80 7 19 49 67 105 120 113 106 140 127 182 142
46 15 95 70 87 96 -15 46 -146 221 -233 310 -16 16 -25 39 -28 73 -5 43 -2 53
28 91 105 135 167 181 269 201 30 6 69 15 85 20 44 14 50 13 127 -10z"/>
</g>
</svg>
