<svg version="1.0" xmlns="http://www.w3.org/2000/svg"
 width="668px" style="transform:scale(1,1.001);" height="375.75px" viewBox="0 0 320.000000 180.000000"
 preserveAspectRatio="xMidYMid meet">
<g transform="translate(0.000000,180.000000) scale(0.100000,-0.100000)"
fill="#000000" stroke="none">
<path d="M0 905 l0 -895 1120 0 1120 0 0 29 c0 16 -6 34 -14 40 -9 7 -17 42 -21 87 -10
99 -30 121 -81 87 -22 -14 -32 -14 -75 -5 -28 7 -65 12 -82 12 -91 0 -122 80
-80 200 13 35 30 71 38 80 36 40 104 153 119 197 18 55 38 182 30 195 -10 16
-47 7 -70 -17 -20 -22 -31 -25 -86 -25 -35 0 -70 6 -78 13 -51 40 -95 191 -88
304 3 58 8 77 31 107 16 20 34 36 42 36 27 0 44 -43 44 -113 0 -83 6 -104 31
-112 19 -6 69 21 70 37 1 20 63 97 82 102 13 3 33 22 45 41 25 39 21 61 -18
114 -32 43 -31 119 3 163 36 47 115 71 156 48 9 -5 30 -14 45 -20 38 -13 72
-87 57 -125 -5 -14 -10 -43 -10 -64 0 -48 47 -96 105 -106 30 -4 53 -19 89
-55 47 -47 49 -50 53 -117 4 -52 0 -90 -17 -154 -12 -46 -27 -111 -32 -144 -5
-33 -20 -96 -34 -140 -13 -44 -26 -118 -30 -165 -3 -47 -12 -119 -19 -160 -8
-41 -16 -115 -20 -165 -3 -50 -8 -116 -11 -147 l-5 -58 396 0 395 0 0 895 0
895 -1600 0 -1600 0 0 -895z"/>
</g>
</svg>
