<svg version="1.0" xmlns="http://www.w3.org/2000/svg"
 width="668px" style="transform:scale(1,1.001);" height="375.75px" viewBox="0 0 320.000000 180.000000"
 preserveAspectRatio="xMidYMid meet">
<g transform="translate(0.000000,180.000000) scale(0.100000,-0.100000)"
fill="#000000" stroke="none">
<path d="M0 905 l0 -895 550 0 c540 0 550 0 550 20 0 25 29 89 53 117 19 21 19 29 8
142 -18 197 -15 296 15 397 14 49 29 109 34 132 8 43 7 45 -25 64 -38 21 -55
61 -55 123 0 57 27 146 51 167 10 9 19 21 19 27 0 6 8 19 18 29 9 10 27 39 40
64 31 63 81 118 107 118 35 0 45 20 45 89 1 113 30 148 123 150 71 2 111 -72
89 -167 -12 -54 0 -107 29 -125 11 -6 32 -36 46 -66 23 -49 25 -61 20 -137 -6
-88 -29 -153 -72 -210 -20 -26 -25 -44 -25 -86 1 -106 28 -335 48 -408 21 -74
52 -315 52 -397 l0 -43 740 0 740 0 0 895 0 895 -1600 0 -1600 0 0 -895z"/>
<path d="M1383 702 c-11 -7 -37 -50 -80 -135 -17 -33 -19 -320 -3 -377 13 -45 13 -117
0 -125 -5 -3 -10 -17 -10 -31 l0 -24 165 0 165 0 0 28 c0 15 -10 67 -21 117
-12 50 -25 113 -30 140 -15 86 -102 360 -125 393 -15 22 -39 28 -61 14z"/>
</g>
</svg>
