<svg version="1.0" xmlns="http://www.w3.org/2000/svg"
 width="668px" style="transform:scale(1,1.001);" height="375.75px" viewBox="0 0 320.000000 180.000000"
 preserveAspectRatio="xMidYMid meet">
<g transform="translate(0.000000,180.000000) scale(0.100000,-0.100000)"
fill="#000000" stroke="none">
<path d="M0 905 l0 -895 1600 0 1600 0 0 895 0 895 -1600 0 -1600 0 0 -895z m1508 763
c9 -9 31 -19 49 -23 35 -7 88 -60 108 -109 14 -35 10 -73 -25 -201 -21 -76
-21 -81 -5 -112 10 -17 31 -37 49 -44 17 -7 45 -23 62 -36 17 -13 38 -23 47
-23 8 0 29 -11 45 -25 17 -14 37 -25 46 -25 23 0 124 -107 135 -143 5 -18 17
-50 25 -72 8 -22 15 -56 16 -76 0 -20 9 -62 20 -94 11 -32 20 -69 20 -82 0
-13 9 -49 20 -80 26 -75 27 -172 2 -203 l-19 -23 -424 -3 c-333 -3 -443 0
-514 11 -49 8 -106 16 -125 17 -30 3 -38 9 -58 48 -25 49 -25 53 2 232 8 53
21 107 29 120 8 13 18 38 22 56 10 47 49 112 92 155 21 20 63 60 93 89 67 65
110 121 110 144 0 10 -29 61 -65 114 -36 53 -65 103 -65 111 0 9 -7 24 -15 35
-47 63 23 173 150 235 47 24 70 29 108 26 26 -2 55 -11 65 -19z"/>
</g>
</svg>
