<svg version="1.0" xmlns="http://www.w3.org/2000/svg"
 width="668px" style="transform:scale(1,1.001);" height="375.75px" viewBox="0 0 320.000000 180.000000"
 preserveAspectRatio="xMidYMid meet">
<g transform="translate(0.000000,180.000000) scale(0.100000,-0.100000)"
fill="#000000" stroke="none">
<path d="M0 905 l0 -895 520 0 520 0 1 43 c2 143 20 417 33 502 8 55 25 134 39 175 82
251 83 259 27 342 -36 54 -40 67 -40 122 0 57 4 67 53 143 41 64 58 83 82 89
17 3 45 19 63 35 18 16 41 29 51 29 21 0 31 19 31 60 0 44 16 78 41 85 12 4
35 21 51 39 25 27 35 31 75 29 40 -1 51 -7 80 -39 42 -48 43 -85 3 -163 l-29
-58 36 -68 c30 -58 35 -73 29 -111 -5 -43 -45 -151 -88 -243 -38 -80 -36 -115
16 -224 25 -54 46 -103 46 -109 0 -7 9 -39 19 -72 11 -34 27 -88 37 -121 9
-33 34 -105 55 -159 21 -54 42 -115 45 -135 4 -20 13 -45 20 -56 7 -11 18 -46
25 -77 l14 -58 672 0 673 0 0 895 0 895 -1600 0 -1600 0 0 -895z"/>
<path d="M1354 700 c-29 -12 -64 -60 -109 -150 -37 -73 -38 -80 -52 -255 -9 -108 -20
-192 -29 -209 -8 -16 -14 -40 -14 -53 l0 -23 280 0 280 0 0 24 c0 13 -7 29
-15 36 -8 7 -15 21 -15 32 0 29 -30 142 -40 148 -8 5 -62 121 -74 155 -15 48
-139 272 -159 287 -25 20 -24 20 -53 8z"/>
</g>
</svg>
