<svg version="1.0" xmlns="http://www.w3.org/2000/svg"
 width="668px" style="transform:scale(1,1.001);" height="375.75px" viewBox="0 0 320.000000 180.000000"
 preserveAspectRatio="xMidYMid meet">
<g transform="translate(0.000000,180.000000) scale(0.100000,-0.100000)"
fill="#000000" stroke="none">
<path d="M0 905 l0 -895 583 0 583 0 11 68 c31 187 43 253 59 312 31 117 21 172 -62
356 -24 52 -49 141 -59 206 -3 20 -13 46 -23 58 -16 20 -21 20 -97 9 -43 -6
-99 -8 -122 -4 -54 8 -73 40 -73 120 0 51 3 58 39 94 27 27 51 41 80 46 43 7
90 45 144 117 32 44 34 69 6 107 -29 40 -34 98 -12 141 24 46 56 61 127 58 78
-4 94 -24 103 -132 6 -79 7 -80 57 -131 44 -45 59 -53 114 -65 48 -10 69 -20
87 -42 46 -54 27 -69 -89 -65 -68 1 -89 -1 -97 -13 -6 -9 -8 -47 -4 -95 6 -78
33 -253 41 -267 2 -4 11 -40 18 -80 17 -84 26 -124 56 -228 24 -82 22 -119 -9
-183 -32 -67 -98 -277 -106 -335 l-7 -52 926 0 926 0 0 895 0 895 -1600 0
-1600 0 0 -895z"/>
</g>
</svg>
