<svg version="1.0" xmlns="http://www.w3.org/2000/svg"
 width="668px" style="transform:scale(1,1.001);" height="375.75px" viewBox="0 0 320.000000 180.000000"
 preserveAspectRatio="xMidYMid meet">
<g transform="translate(0.000000,180.000000) scale(0.100000,-0.100000)"
fill="#000000" stroke="none">
<path d="M0 905 l0 -895 1600 0 1600 0 0 895 0 895 -1600 0 -1600 0 0 -895z m1343 730
c39 -22 96 -83 97 -102 1 -13 62 -78 101 -107 27 -20 48 -26 85 -26 78 0 165
-18 188 -38 12 -11 36 -24 54 -30 37 -13 132 -89 132 -107 0 -7 7 -26 16 -44
18 -36 30 -198 20 -256 -8 -42 -71 -111 -110 -121 -33 -8 -66 12 -66 39 0 12
9 46 20 75 22 57 19 119 -6 157 -8 11 -14 27 -14 36 0 17 -33 31 -54 23 -19
-7 -35 -61 -29 -102 3 -21 -2 -81 -11 -133 -13 -77 -14 -123 -6 -254 5 -92 15
-181 24 -209 22 -68 20 -93 -9 -121 -35 -36 -88 -34 -126 4 -16 16 -29 37 -29
46 0 21 -40 115 -50 115 -17 0 -40 -40 -51 -89 -15 -70 -49 -93 -133 -89 -51
3 -62 7 -80 31 -24 33 -27 109 -9 267 14 128 5 440 -13 440 -7 0 -32 -27 -54
-60 -22 -33 -50 -64 -61 -71 -11 -6 -18 -13 -15 -16 3 -3 -5 -14 -18 -24 -24
-19 -56 -95 -56 -131 0 -10 -8 -21 -17 -25 -10 -3 -25 -12 -34 -20 -14 -11
-20 -10 -42 8 -54 42 -30 145 65 285 49 73 98 188 98 233 0 10 8 29 18 42 33
43 35 74 6 141 -23 56 -26 72 -21 141 5 82 15 103 50 110 58 11 100 6 140 -18z
m421 -1474 c28 -31 17 -55 -27 -59 -59 -5 -78 22 -44 66 14 18 52 15 71 -7z
m-329 -41 c4 -6 -10 -10 -34 -10 -23 0 -41 5 -41 10 0 6 15 10 34 10 19 0 38
-4 41 -10z"/>
</g>
</svg>
