<svg version="1.0" xmlns="http://www.w3.org/2000/svg"
 width="668px" style="transform:scale(1,1.001);" height="375.75px" viewBox="0 0 320.000000 180.000000"
 preserveAspectRatio="xMidYMid meet">
<g transform="translate(0.000000,180.000000) scale(0.100000,-0.100000)"
fill="#000000" stroke="none">
<path d="M0 905 l0 -895 630 0 630 0 -1 47 c0 27 2 64 6 83 6 31 2 39 -29 69 l-36 35 0
105 c1 100 16 236 40 361 6 30 26 87 45 125 19 39 41 91 50 116 17 51 70 119
91 119 18 0 40 46 47 98 6 50 28 79 73 98 27 11 38 11 75 -3 24 -9 49 -20 55
-25 21 -15 22 -62 4 -110 -21 -56 -18 -76 26 -143 25 -37 37 -73 50 -143 14
-81 21 -98 49 -126 61 -62 95 -117 95 -155 0 -51 -14 -68 -28 -36 -16 34 -55
35 -46 1 14 -57 -47 -36 -91 31 -29 44 -65 110 -89 163 -7 14 -18 25 -26 25
-28 0 -73 -175 -73 -285 0 -30 10 -111 21 -180 12 -69 21 -158 22 -197 l0 -73
805 0 805 0 0 895 0 895 -1600 0 -1600 0 0 -895z"/>
<path d="M1443 128 c-13 -13 -45 -35 -73 -48 -37 -19 -50 -31 -50 -47 0 -22 3 -23 95
-23 92 0 95 1 94 23 0 12 -10 44 -22 70 l-22 49 -22 -24z"/>
</g>
</svg>
