<svg version="1.0" xmlns="http://www.w3.org/2000/svg"
 width="668px" style="transform:scale(1,1.001);" height="375.75px" viewBox="0 0 320.000000 180.000000"
 preserveAspectRatio="xMidYMid meet">
<g transform="translate(0.000000,180.000000) scale(0.100000,-0.100000)"
fill="#000000" stroke="none">
<path d="M0 905 l0 -895 415 0 415 0 0 26 c0 41 30 80 147 194 75 74 118 124 140 166
17 33 45 76 63 95 44 47 63 87 58 121 -3 16 1 33 9 39 7 6 13 18 13 26 0 7 9
32 20 53 11 22 28 75 36 118 9 42 22 84 30 93 8 8 14 22 14 30 1 21 52 73 86
88 55 24 73 59 82 164 7 77 14 101 33 125 40 50 60 57 100 33 18 -11 54 -23
79 -27 48 -7 81 -20 92 -38 4 -6 8 -35 8 -64 0 -38 7 -63 25 -92 14 -22 25
-48 25 -59 0 -10 7 -24 15 -31 11 -9 15 -33 15 -86 0 -81 -1 -82 -80 -139 -50
-36 -71 -69 -95 -153 -18 -62 -18 -65 0 -120 11 -31 44 -91 75 -132 87 -118
102 -153 108 -247 3 -62 1 -89 -12 -114 -9 -17 -16 -40 -16 -51 0 -17 25 -18
650 -18 l650 0 0 895 0 895 -1600 0 -1600 0 0 -895z"/>
<path d="M1450 345 c-14 -8 -36 -19 -50 -25 -14 -6 -45 -26 -70 -44 -25 -19 -50 -35
-56 -35 -11 -1 -154 -105 -164 -120 -3 -4 -24 -20 -47 -35 -32 -19 -43 -33
-43 -51 l0 -25 371 0 370 0 -6 73 c-11 116 -16 125 -115 205 -76 61 -96 72
-127 72 -21 0 -49 -7 -63 -15z"/>
</g>
</svg>
