<svg version="1.0" xmlns="http://www.w3.org/2000/svg"
 width="668px" style="transform:scale(1,1.001);" height="375.75px" viewBox="0 0 320.000000 180.000000"
 preserveAspectRatio="xMidYMid meet">
<g transform="translate(0.000000,180.000000) scale(0.100000,-0.100000)"
fill="#000000" stroke="none">
<path d="M0 905 l0 -895 710 0 710 0 2 73 c1 39 0 104 -1 143 -3 66 -1 74 33 126 19 31
40 78 46 105 16 70 15 178 -3 253 -18 73 -109 241 -172 316 -36 42 -40 53 -40
101 0 44 4 58 21 72 54 44 67 116 33 182 -14 28 -20 60 -20 103 0 54 4 70 31
109 17 25 41 49 53 53 12 3 32 16 44 27 29 26 165 36 199 15 12 -7 39 -23 60
-35 59 -32 87 -94 86 -193 l-1 -77 67 -87 c101 -128 185 -298 211 -425 10 -47
31 -97 80 -188 15 -28 48 -132 62 -192 10 -46 9 -69 -6 -150 -30 -162 -53
-230 -81 -243 -18 -8 -31 -8 -49 0 -22 10 -25 17 -25 69 0 90 -10 134 -28 131
-18 -4 -34 -62 -27 -96 6 -25 -21 -128 -36 -137 -5 -4 -9 -17 -9 -31 l0 -24
625 0 625 0 0 895 0 895 -1600 0 -1600 0 0 -895z"/>
</g>
</svg>
