<svg version="1.0" xmlns="http://www.w3.org/2000/svg"
 width="668px" style="transform:scale(1,1.001);" height="375.75px" viewBox="0 0 320.000000 180.000000"
 preserveAspectRatio="xMidYMid meet">
<g transform="translate(0.000000,180.000000) scale(0.100000,-0.100000)"
fill="#000000" stroke="none">
<path d="M0 905 l0 -895 1600 0 1600 0 0 895 0 895 -1600 0 -1600 0 0 -895z m1668 772
c21 -15 43 -27 49 -27 7 0 25 -20 42 -46 27 -39 31 -54 31 -110 0 -41 -6 -77
-17 -97 -9 -18 -18 -64 -21 -104 l-5 -72 41 -41 c23 -22 47 -40 55 -40 7 0 24
-11 37 -25 13 -14 32 -25 41 -25 10 0 32 -13 49 -30 17 -16 36 -30 43 -30 14
0 60 -47 96 -99 18 -26 27 -60 37 -140 8 -58 18 -124 24 -146 5 -22 10 -57 10
-77 0 -21 7 -73 16 -117 14 -68 14 -83 2 -108 -25 -53 -20 -53 -602 -45 l-538
7 -19 24 c-40 49 -17 290 41 431 11 25 22 56 25 69 8 27 41 77 71 107 12 12
23 26 25 31 2 5 24 25 49 44 25 19 61 50 80 68 19 18 52 44 73 57 55 36 51 64
-24 177 -95 143 -105 178 -69 245 27 52 59 86 99 108 18 11 43 25 55 32 14 9
45 12 93 9 58 -3 80 -9 111 -30z"/>
</g>
</svg>
