<svg version="1.0" xmlns="http://www.w3.org/2000/svg"
 width="668px" style="transform:scale(1,1.001);" height="375.75px" viewBox="0 0 320.000000 180.000000"
 preserveAspectRatio="xMidYMid meet">
<g transform="translate(0.000000,180.000000) scale(0.100000,-0.100000)"
fill="#000000" stroke="none">
<path d="M0 905 l0 -895 610 0 610 0 0 24 c0 13 -6 29 -14 35 -29 24 -53 88 -60 159 -7
69 -36 151 -66 187 -7 9 -19 55 -26 102 -18 121 -20 123 -165 123 -125 0 -211
13 -229 34 -35 43 -32 493 3 548 23 35 67 157 67 185 0 15 14 39 35 60 32 32
39 35 73 29 63 -12 72 -16 88 -47 14 -28 14 -34 -7 -87 -13 -31 -34 -73 -48
-92 -25 -34 -26 -40 -24 -174 1 -104 4 -141 15 -148 7 -5 37 -6 67 -3 42 4 63
13 91 38 21 17 60 48 88 67 83 58 98 100 62 175 -31 64 -28 200 6 276 23 50
35 64 79 89 70 40 125 40 204 1 154 -78 211 -258 113 -363 l-25 -27 27 -36
c15 -20 45 -43 67 -51 33 -14 44 -26 74 -88 47 -96 60 -199 47 -372 -12 -156
-9 -180 36 -258 40 -69 53 -160 32 -218 -16 -46 -40 -136 -40 -153 0 -13 96
-15 705 -15 l705 0 0 895 0 895 -1600 0 -1600 0 0 -895z"/>
</g>
</svg>
