<svg version="1.0" xmlns="http://www.w3.org/2000/svg"
 width="668px" style="transform:scale(1,1.001);" height="375.75px" viewBox="0 0 320.000000 180.000000"
 preserveAspectRatio="xMidYMid meet">
<g transform="translate(0.000000,180.000000) scale(0.100000,-0.100000)"
fill="#000000" stroke="none">
<path d="M0 905 l0 -895 610 0 c696 0 635 -10 579 93 -36 66 -43 89 -69 222 -15 74 -19
118 -14 172 6 63 4 76 -12 94 -16 18 -26 20 -69 15 -27 -4 -88 -7 -134 -7 -83
-1 -83 -1 -122 37 -21 20 -41 50 -44 65 -3 15 -15 44 -26 65 -10 21 -19 47
-19 59 0 11 -9 37 -20 58 -11 21 -25 61 -32 90 -6 28 -17 61 -24 72 -7 11 -16
52 -20 90 -6 70 -34 136 -69 165 -21 18 -11 62 27 114 38 53 75 76 119 76 30
0 43 -7 68 -35 17 -20 31 -44 31 -53 0 -10 11 -33 25 -52 44 -59 49 -92 24
-147 -27 -60 -25 -104 6 -158 14 -23 25 -48 25 -55 0 -8 12 -31 26 -52 37 -53
62 -50 127 15 28 28 69 63 90 77 51 34 67 82 64 191 -2 80 0 88 27 130 23 34
30 56 31 99 3 73 14 92 83 137 51 33 65 38 134 41 71 4 80 2 108 -21 16 -14
38 -28 48 -31 10 -3 36 -27 57 -53 39 -46 40 -51 44 -131 4 -103 -1 -124 -41
-160 l-31 -30 22 -35 c11 -19 35 -40 52 -47 20 -9 39 -30 57 -64 l27 -51 0
-261 0 -260 31 -60 c41 -78 47 -109 35 -185 -5 -35 -13 -101 -16 -146 l-5 -83
695 0 695 0 0 895 0 895 -1600 0 -1600 0 0 -895z"/>
</g>
</svg>
