<svg version="1.0" xmlns="http://www.w3.org/2000/svg"
 width="668px" style="transform:scale(1,1.001);" height="375.75px" viewBox="0 0 320.000000 180.000000"
 preserveAspectRatio="xMidYMid meet">
<g transform="translate(0.000000,180.000000) scale(0.100000,-0.100000)"
fill="#000000" stroke="none">
<path d="M0 905 l0 -895 295 0 295 0 -2 49 c-2 39 5 64 34 123 20 40 40 90 43 110 6 37
18 52 129 150 17 15 67 46 111 68 100 52 138 86 130 118 -8 33 -65 123 -97
154 -15 14 -28 31 -28 38 0 6 -16 26 -35 44 -27 26 -35 41 -35 68 0 49 18 97
52 138 157 191 180 210 283 224 28 4 74 14 104 23 70 20 122 13 202 -25 88
-42 148 -102 187 -186 37 -79 40 -121 12 -200 -10 -31 -22 -90 -26 -129 -5
-62 -4 -75 11 -87 21 -18 86 -36 175 -51 122 -21 296 -126 327 -200 7 -16 24
-36 37 -44 15 -10 28 -33 36 -63 6 -26 20 -56 30 -67 30 -33 69 -165 63 -213
l-6 -42 437 0 436 0 0 895 0 895 -1600 0 -1600 0 0 -895z"/>
</g>
</svg>
