<svg version="1.0" xmlns="http://www.w3.org/2000/svg"
 width="668px" style="transform:scale(1,1.001);" height="375.75px" viewBox="0 0 320.000000 180.000000"
 preserveAspectRatio="xMidYMid meet">
<g transform="translate(0.000000,180.000000) scale(0.100000,-0.100000)"
fill="#000000" stroke="none">
<path d="M0 905 l0 -895 660 0 c752 0 677 -11 640 95 -11 32 -20 68 -21 79 0 12 -15 66
-33 121 -24 72 -31 108 -25 127 9 34 -5 93 -16 65 -4 -9 -13 -17 -20 -17 -6 0
-28 -15 -47 -33 -19 -17 -43 -39 -54 -48 -77 -66 -154 -176 -154 -223 0 -43
-21 -86 -45 -92 -35 -9 -63 12 -71 52 -10 52 2 182 19 207 8 12 18 38 21 57 8
39 62 156 76 165 5 3 14 22 20 41 7 20 26 57 44 81 38 55 32 44 100 183 69
139 146 230 194 230 17 0 43 10 59 24 15 13 43 31 60 40 18 9 40 30 48 47 15
27 14 38 -1 122 -30 158 -30 189 1 241 38 64 117 116 177 116 29 0 54 -7 69
-19 14 -10 43 -24 65 -31 51 -15 109 -74 129 -130 29 -82 14 -145 -50 -212
-38 -40 -45 -53 -45 -88 0 -27 5 -43 15 -47 9 -3 22 -18 30 -33 9 -17 25 -30
43 -33 15 -3 34 -16 40 -29 7 -13 30 -45 52 -73 22 -27 42 -63 46 -80 3 -16
15 -44 25 -61 12 -20 21 -60 25 -110 4 -44 13 -95 21 -114 8 -19 17 -76 20
-126 5 -84 4 -96 -21 -150 -15 -32 -38 -73 -52 -91 -14 -18 -36 -57 -49 -86
-12 -28 -35 -69 -49 -90 -14 -21 -26 -47 -26 -57 0 -20 12 -20 640 -20 l640 0
0 895 0 895 -1600 0 -1600 0 0 -895z"/>
</g>
</svg>
