<svg version="1.0" xmlns="http://www.w3.org/2000/svg"
 width="668px" style="transform:scale(1,1.001);" height="375.75px" viewBox="0 0 320.000000 180.000000"
 preserveAspectRatio="xMidYMid meet">
<g transform="translate(0.000000,180.000000) scale(0.100000,-0.100000)"
fill="#000000" stroke="none">
<path d="M0 905 l0 -895 721 0 721 0 -5 27 c-3 16 -10 46 -16 68 -7 26 -9 90 -5 180 l6
140 -45 51 c-40 44 -48 60 -57 117 -5 36 -21 98 -35 139 -39 114 -33 167 28
260 19 29 39 69 45 89 5 20 26 62 46 93 20 31 36 58 36 61 0 9 86 91 113 108
43 28 37 105 -13 162 -9 11 -25 40 -34 65 -15 41 -15 49 -2 88 9 23 29 54 46
68 18 16 30 35 30 50 l0 24 -790 0 -790 0 0 -895z"/>
<path d="M1770 1781 c0 -11 15 -37 34 -57 18 -20 39 -54 46 -74 11 -33 10 -44 -10 -96
-29 -74 -29 -124 0 -144 12 -8 36 -27 55 -42 18 -16 37 -28 43 -28 17 0 95
-102 124 -161 56 -116 58 -124 58 -253 0 -119 -1 -124 -27 -158 -16 -19 -35
-50 -44 -69 -9 -19 -30 -63 -47 -99 -27 -58 -31 -77 -35 -185 -4 -114 -39
-286 -67 -337 -6 -10 -10 -29 -10 -43 l0 -25 655 0 655 0 0 895 0 895 -715 0
c-702 0 -715 0 -715 -19z"/>
</g>
</svg>
