<svg version="1.0" xmlns="http://www.w3.org/2000/svg"
 width="668px" style="transform:scale(1,1.001);" height="375.75px" viewBox="0 0 320.000000 180.000000"
 preserveAspectRatio="xMidYMid meet">
<g transform="translate(0.000000,180.000000) scale(0.100000,-0.100000)"
fill="#000000" stroke="none">
<path d="M0 905 l0 -895 545 0 545 0 0 68 c0 66 10 110 64 282 13 41 32 111 41 155 10
43 32 107 50 141 39 74 46 113 33 179 -5 28 -13 94 -17 148 -7 84 -11 101 -33
125 -14 15 -40 57 -58 94 l-32 66 17 49 c10 26 25 55 32 64 28 34 27 84 -3
138 -16 28 -32 51 -36 51 -5 0 -8 16 -8 35 0 31 5 38 35 52 19 9 35 20 35 24
0 19 70 49 113 49 41 0 51 -5 79 -36 33 -36 46 -77 47 -149 1 -26 9 -50 24
-69 20 -25 32 -29 97 -36 41 -4 83 -11 92 -15 10 -4 29 -32 44 -63 37 -77 62
-109 96 -121 17 -6 32 -20 35 -31 3 -11 20 -27 39 -36 18 -9 36 -24 39 -33 3
-10 16 -23 29 -30 13 -7 40 -40 61 -72 47 -74 88 -109 126 -109 40 0 69 -32
69 -75 0 -24 -6 -37 -20 -45 -11 -6 -20 -17 -20 -24 0 -37 -130 -27 -160 12
-30 38 -24 116 7 91 12 -11 12 -9 2 14 -6 14 -18 28 -26 31 -8 3 -11 1 -8 -4
9 -15 -4 -50 -19 -50 -6 0 -29 16 -49 35 -20 19 -44 35 -52 35 -7 0 -27 13
-42 29 -34 36 -78 50 -86 27 -4 -9 -3 -16 1 -16 4 0 8 -34 9 -74 3 -117 18
-162 143 -421 164 -340 171 -355 177 -421 l6 -64 568 0 569 0 0 895 0 895
-1600 0 -1600 0 0 -895z"/>
<path d="M1479 528 c-11 -13 -43 -68 -71 -123 -28 -55 -65 -122 -83 -150 -54 -84 -115
-203 -115 -225 0 -20 4 -20 365 -20 423 0 398 -8 320 108 -63 94 -73 107 -108
145 -18 18 -79 90 -137 160 -112 136 -130 147 -171 105z"/>
</g>
</svg>
