<svg version="1.0" xmlns="http://www.w3.org/2000/svg"
 width="668px" style="transform:scale(1,1.001);" height="375.75px" viewBox="0 0 320.000000 180.000000"
 preserveAspectRatio="xMidYMid meet">
<g transform="translate(0.000000,180.000000) scale(0.100000,-0.100000)"
fill="#000000" stroke="none">
<path d="M0 905 l0 -895 561 0 561 0 -8 48 c-4 26 -9 162 -10 302 -2 305 -10 349 -66
350 -10 0 -18 4 -18 9 0 5 -13 14 -30 21 -16 7 -32 21 -35 31 -4 11 -15 24
-26 29 -54 30 -74 145 -43 257 8 32 21 81 28 108 14 57 29 88 62 128 35 42 38
69 15 118 -31 63 -28 117 9 167 30 42 31 42 94 42 61 0 66 -2 88 -32 17 -25
23 -49 26 -103 4 -75 16 -95 59 -95 13 0 29 -10 39 -25 9 -14 22 -25 29 -25 8
0 17 -10 21 -22 3 -13 13 -31 21 -40 17 -19 77 -243 100 -368 15 -88 23 -148
43 -335 12 -106 8 -386 -6 -511 l-7 -54 847 0 846 0 0 895 0 895 -1600 0
-1600 0 0 -895z"/>
<path d="M1286 633 c-21 -74 -66 -482 -66 -600 0 -22 3 -23 97 -23 l96 0 -7 127 c-8
153 -40 382 -61 442 -24 68 -48 90 -59 54z"/>
</g>
</svg>
