<svg version="1.0" xmlns="http://www.w3.org/2000/svg"
 width="668px" style="transform:scale(1,1.001);" height="375.75px" viewBox="0 0 320.000000 180.000000"
 preserveAspectRatio="xMidYMid meet">
<g transform="translate(0.000000,180.000000) scale(0.100000,-0.100000)"
fill="#000000" stroke="none">
<path d="M0 905 l0 -895 790 0 790 0 0 24 c0 14 -5 28 -10 31 -17 10 31 85 58 92 32 8
209 -6 289 -23 43 -8 77 -74 38 -74 -9 0 -15 -9 -15 -25 l0 -25 630 0 630 0 0
895 0 895 -630 0 -630 0 0 -24 c0 -14 9 -31 20 -39 29 -20 52 -83 45 -121 -4
-17 -18 -59 -32 -94 l-26 -63 20 -43 c17 -34 29 -45 62 -54 22 -7 45 -22 51
-32 6 -11 17 -20 25 -20 26 0 99 -109 129 -195 22 -65 32 -217 17 -272 -13
-49 -75 -107 -131 -124 -58 -17 -70 -50 -70 -187 0 -127 -9 -174 -39 -206 -19
-21 -28 -21 -243 -20 -123 1 -227 2 -231 3 -21 3 -37 75 -35 158 1 78 -2 95
-26 146 -16 32 -30 77 -33 100 -7 54 -32 94 -102 166 -59 59 -71 86 -71 159 0
42 37 119 66 139 12 8 35 33 50 56 43 65 121 137 148 137 13 0 35 9 49 20 15
12 49 28 78 36 50 15 51 16 46 49 -3 18 -17 50 -31 72 -39 59 -39 136 -1 181
14 17 25 39 25 51 l0 21 -850 0 -850 0 0 -895z"/>
<path d="M1810 35 c0 -16 6 -25 15 -25 9 0 15 9 15 25 0 16 -6 25 -15 25 -9 0 -15 -9
-15 -25z"/>
</g>
</svg>
