<svg version="1.0" xmlns="http://www.w3.org/2000/svg"
 width="668px" style="transform:scale(1,1.001);" height="375.75px" viewBox="0 0 320.000000 180.000000"
 preserveAspectRatio="xMidYMid meet">
<g transform="translate(0.000000,180.000000) scale(0.100000,-0.100000)"
fill="#000000" stroke="none">
<path d="M0 905 l0 -895 631 0 c610 0 630 1 624 19 -3 10 1 24 10 31 8 7 20 30 25 52
13 47 5 79 -50 189 -21 42 -46 100 -54 130 -20 66 -20 193 -1 284 9 39 18 102
21 140 9 98 3 102 -117 81 -131 -23 -146 -22 -152 10 -3 15 2 43 10 63 11 26
13 52 8 96 -9 81 -9 132 0 182 7 39 5 44 -29 79 -51 53 -60 131 -21 190 18 27
107 58 141 50 38 -10 74 -51 74 -84 0 -19 11 -39 34 -61 39 -38 79 -44 101
-15 11 16 30 19 132 22 l118 4 31 -39 c53 -67 75 -110 81 -161 7 -62 -13 -102
-68 -139 -34 -22 -40 -31 -36 -52 29 -145 29 -183 2 -296 -34 -141 -40 -221
-26 -336 6 -52 12 -151 13 -221 2 -107 0 -130 -15 -146 -9 -10 -17 -31 -17
-45 l0 -27 865 0 865 0 0 895 0 895 -1600 0 -1600 0 0 -895z"/>
</g>
</svg>
