<svg version="1.0" xmlns="http://www.w3.org/2000/svg"
 width="668px" style="transform:scale(1,1.001);" height="375.75px" viewBox="0 0 320.000000 180.000000"
 preserveAspectRatio="xMidYMid meet">
<g transform="translate(0.000000,180.000000) scale(0.100000,-0.100000)"
fill="#000000" stroke="none">
<path d="M0 905 l0 -895 650 0 c645 0 650 0 650 20 0 11 -5 29 -12 39 -10 16 -6 27 20
68 44 68 41 88 -18 148 -50 50 -50 51 -66 155 -24 148 -22 271 5 338 12 31 21
75 21 107 0 56 20 112 55 153 10 12 30 48 43 80 23 54 67 102 116 127 20 10
24 18 45 101 6 23 20 53 32 68 17 22 28 26 72 26 47 0 56 -4 81 -32 28 -32 28
-35 22 -118 l-6 -85 65 -75 c36 -41 69 -78 73 -82 23 -23 81 -68 87 -68 4 0
17 -9 29 -20 12 -12 34 -31 49 -43 43 -34 48 -101 13 -161 -31 -53 -74 -89
-98 -83 -10 3 -18 1 -18 -4 0 -19 -40 8 -64 44 -28 41 -33 73 -14 80 10 3 8 9
-4 24 -10 11 -18 23 -18 27 0 17 -84 116 -99 116 -16 -1 -81 -54 -81 -67 0 -3
-7 -15 -17 -25 -14 -16 -15 -28 -7 -95 6 -42 7 -102 3 -132 -10 -77 -14 -514
-5 -578 l8 -53 794 0 794 0 0 895 0 895 -1600 0 -1600 0 0 -895z"/>
<path d="M1422 505 c-14 -43 -13 -126 2 -124 5 0 13 -5 17 -13 10 -16 11 66 1 132 l-7
45 -13 -40z"/>
<path d="M1388 82 c-35 -20 -48 -33 -48 -49 0 -22 4 -23 75 -23 l75 0 0 28 c0 31 -25
72 -43 71 -7 0 -33 -12 -59 -27z"/>
</g>
</svg>
