<svg version="1.0" xmlns="http://www.w3.org/2000/svg"
 width="668px" style="transform:scale(1,1.001);" height="375.75px" viewBox="0 0 320.000000 180.000000"
 preserveAspectRatio="xMidYMid meet">
<g transform="translate(0.000000,180.000000) scale(0.100000,-0.100000)"
fill="#000000" stroke="none">
<path d="M0 905 l0 -895 1600 0 1600 0 0 895 0 895 -765 0 -765 0 0 -24 c0 -19 7 -26
32 -31 52 -12 102 -42 120 -73 15 -25 17 -56 14 -243 -3 -201 -5 -219 -29
-286 l-26 -72 29 -73 c30 -73 39 -158 21 -187 -12 -18 -104 -33 -166 -26 -51
6 -63 1 -157 -67 -14 -10 -21 -9 -36 6 -20 17 -20 18 6 79 29 72 36 162 12
177 -24 15 -48 12 -54 -8 -4 -10 -8 -56 -10 -101 -6 -121 -42 -147 -86 -61
-11 22 -24 40 -29 40 -4 0 -28 -13 -52 -30 -24 -16 -53 -30 -65 -30 -11 0 -29
-7 -40 -15 -10 -8 -29 -15 -41 -15 -28 0 -73 54 -73 90 0 30 24 95 39 104 5 4
13 20 16 37 6 25 3 34 -14 45 -21 15 -29 58 -12 68 12 8 51 88 51 105 0 7 6
27 14 44 45 101 69 196 74 287 6 113 23 155 81 190 28 17 41 32 41 48 l0 22
-665 0 -665 0 0 -895z"/>
</g>
</svg>
