<svg version="1.0" xmlns="http://www.w3.org/2000/svg"
 width="668px" style="transform:scale(1,1.001);" height="375.75px" viewBox="0 0 320.000000 180.000000"
 preserveAspectRatio="xMidYMid meet">
<g transform="translate(0.000000,180.000000) scale(0.100000,-0.100000)"
fill="#000000" stroke="none">
<path d="M0 905 l0 -895 1600 0 1600 0 0 895 0 895 -1600 0 -1600 0 0 -895z m1596 776
c21 -12 44 -21 51 -21 7 0 35 -22 63 -49 l50 -49 0 -78 c0 -69 -4 -85 -35
-145 -19 -38 -35 -75 -35 -83 0 -28 35 -76 65 -88 17 -6 43 -22 58 -35 16 -13
35 -23 42 -23 7 0 27 -11 43 -25 17 -14 33 -25 37 -25 4 0 31 -20 60 -44 47
-41 54 -52 78 -133 15 -48 27 -104 27 -123 0 -20 7 -60 16 -90 19 -68 42 -186
50 -262 6 -53 5 -58 -21 -82 -26 -25 -34 -26 -139 -27 -61 -1 -250 -3 -421 -4
-368 -5 -516 4 -554 33 -39 29 -47 62 -33 140 7 37 17 99 23 137 5 39 19 96
29 128 11 31 20 61 20 67 0 37 132 190 252 292 42 36 43 38 43 100 0 55 -5 71
-39 126 -21 35 -46 93 -56 128 -18 63 -18 66 0 107 22 49 61 88 110 111 19 9
46 23 60 32 32 19 105 12 156 -15z"/>
</g>
</svg>
