<svg version="1.0" xmlns="http://www.w3.org/2000/svg"
 width="668px" style="transform:scale(1,1.001);" height="375.75px" viewBox="0 0 320.000000 180.000000"
 preserveAspectRatio="xMidYMid meet">
<g transform="translate(0.000000,180.000000) scale(0.100000,-0.100000)"
fill="#000000" stroke="none">
<path d="M0 905 l0 -895 620 0 620 0 0 28 c0 15 5 101 10 191 l10 163 -25 20 c-13 10
-30 38 -36 60 -13 48 -4 221 16 313 7 33 16 86 20 118 4 40 22 87 55 154 55
107 80 139 126 159 33 14 44 42 44 115 0 54 34 79 111 79 69 0 103 -13 118
-47 15 -33 14 -62 -4 -97 -23 -44 -18 -76 20 -132 28 -40 36 -63 40 -115 11
-117 15 -130 53 -166 20 -19 47 -39 60 -44 25 -10 27 -46 3 -41 -25 5 -40 -18
-34 -53 3 -19 2 -47 -2 -62 -6 -24 -8 -26 -18 -13 -7 9 -22 20 -33 25 -37 17
-154 167 -154 197 0 25 -15 46 -26 35 -8 -7 12 -178 31 -267 20 -98 19 -241
-1 -360 -16 -91 -16 -100 2 -178 l18 -82 778 0 778 0 0 895 0 895 -1600 0
-1600 0 0 -895z"/>
<path d="M1428 543 c3 -91 1 -105 -33 -197 -32 -89 -54 -212 -55 -308 l0 -28 86 0 87 0
-6 53 c-4 28 -2 79 2 113 5 33 5 124 1 200 -7 124 -12 147 -37 199 -15 32 -32
60 -38 62 -6 2 -9 -33 -7 -94z"/>
</g>
</svg>
