<svg version="1.0" xmlns="http://www.w3.org/2000/svg"
 width="668px" style="transform:scale(1,1.001);" height="375.75px" viewBox="0 0 320.000000 180.000000"
 preserveAspectRatio="xMidYMid meet">
<g transform="translate(0.000000,180.000000) scale(0.100000,-0.100000)"
fill="#000000" stroke="none">
<path d="M0 905 l0 -895 550 0 550 0 0 43 c0 87 20 425 30 501 5 44 22 122 37 173 25
86 26 98 15 151 -28 138 -5 420 39 468 10 11 19 25 19 32 0 16 33 32 67 32 15
0 33 4 39 8 17 11 45 70 36 76 -16 10 -45 124 -38 150 12 49 40 66 109 66 73
0 102 -16 124 -67 14 -35 10 -109 -9 -145 -11 -23 15 -88 36 -88 29 0 95 -71
130 -140 41 -79 55 -189 34 -250 l-13 -35 -75 -1 c-93 -2 -108 -17 -92 -91 12
-54 36 -185 52 -287 6 -37 22 -100 34 -140 42 -127 56 -209 56 -335 l0 -121
735 0 735 0 0 895 0 895 -1600 0 -1600 0 0 -895z"/>
<path d="M1361 628 c-12 -24 -39 -71 -57 -106 -22 -39 -42 -98 -54 -155 -11 -51 -27
-123 -36 -162 -30 -133 -34 -155 -34 -175 0 -19 7 -20 230 -20 177 0 230 3
230 13 0 40 -21 184 -31 215 -39 121 -114 294 -178 412 -17 31 -45 22 -70 -22z"/>
</g>
</svg>
