<svg version="1.0" xmlns="http://www.w3.org/2000/svg"
 width="668px" style="transform:scale(1,1.001);" height="375.75px" viewBox="0 0 320.000000 180.000000"
 preserveAspectRatio="xMidYMid meet">
<g transform="translate(0.000000,180.000000) scale(0.100000,-0.100000)"
fill="#000000" stroke="none">
<path d="M0 905 l0 -895 1600 0 1600 0 0 895 0 895 -1600 0 -1600 0 0 -895z m1390 750
c33 -17 39 -33 42 -125 l3 -64 44 -13 c23 -7 54 -24 68 -38 14 -14 29 -25 34
-25 15 0 59 -160 59 -213 0 -29 -9 -75 -19 -103 -19 -49 -19 -63 -9 -305 12
-268 18 -642 11 -672 -6 -25 -39 -40 -62 -27 -30 16 -39 62 -45 235 -3 88 -12
196 -20 240 -8 44 -17 101 -21 126 -3 26 -12 55 -20 65 -12 17 -15 17 -28 4
-23 -25 -57 -122 -64 -180 -5 -55 -3 -64 63 -303 7 -26 10 -55 7 -65 -10 -29
-73 -79 -116 -92 -36 -11 -42 -10 -54 6 -18 25 -17 35 14 96 l27 53 -23 80
c-59 212 -62 225 -59 360 3 144 10 131 -62 123 -24 -3 -25 -1 -33 82 -9 102 7
267 35 360 12 36 35 83 55 107 34 41 35 45 22 76 -7 17 -23 45 -36 60 -30 37
-31 92 -1 124 16 17 33 23 67 24 25 0 55 4 66 9 11 5 21 9 23 9 2 1 16 -6 32
-14z"/>
</g>
</svg>
