<svg version="1.0" xmlns="http://www.w3.org/2000/svg"
 width="668px" style="transform:scale(1,1.001);" height="375.75px" viewBox="0 0 320.000000 180.000000"
 preserveAspectRatio="xMidYMid meet">
<g transform="translate(0.000000,180.000000) scale(0.100000,-0.100000)"
fill="#000000" stroke="none">
<path d="M0 905 l0 -895 630 0 630 0 0 25 c0 15 7 39 15 55 12 23 23 29 62 35 27 3 60
2 75 -4 25 -9 26 -13 17 -43 -20 -71 -28 -68 162 -68 l171 0 -7 46 c-9 63 3
74 79 74 79 0 103 -16 112 -75 l6 -45 624 0 624 0 0 895 0 895 -1600 0 -1600
0 0 -895z m1707 686 c38 -18 43 -25 61 -83 11 -35 23 -88 27 -118 7 -48 13
-60 54 -97 25 -23 58 -45 74 -49 15 -3 41 -17 58 -31 l31 -26 44 21 c60 29 69
28 95 -15 20 -31 23 -51 23 -138 1 -99 0 -104 -39 -181 -50 -99 -104 -154
-151 -154 -25 0 -38 -7 -50 -25 -25 -38 -30 -148 -10 -223 24 -95 22 -138 -9
-158 -23 -15 -42 -16 -158 -9 -141 9 -191 9 -328 0 -134 -10 -145 13 -73 164
20 42 41 82 47 90 15 18 37 81 37 107 0 12 -7 37 -15 57 -11 27 -25 39 -59 52
-55 21 -82 50 -131 140 -51 94 -54 162 -10 225 l29 42 74 -6 c83 -8 131 3 175
40 16 13 34 24 41 24 6 0 22 7 34 16 22 15 22 16 5 46 -10 17 -28 35 -40 41
-31 14 -63 71 -63 111 0 21 12 52 33 82 26 40 40 51 77 61 62 16 69 15 117 -6z"/>
</g>
</svg>
