<svg version="1.0" xmlns="http://www.w3.org/2000/svg"
 width="668px" style="transform:scale(1,1.001);" height="375.75px" viewBox="0 0 320.000000 180.000000"
 preserveAspectRatio="xMidYMid meet">
<g transform="translate(0.000000,180.000000) scale(0.100000,-0.100000)"
fill="#000000" stroke="none">
<path d="M0 905 l0 -895 680 0 680 0 0 85 c0 109 -1 110 -170 107 -131 -3 -315 12 -334
27 -13 10 -134 41 -159 41 -10 0 -22 12 -27 28 -5 15 -16 40 -25 55 -8 16 -15
44 -15 63 0 19 -7 46 -16 60 -10 14 -19 54 -22 93 -4 62 -1 76 26 133 17 34
35 94 41 132 7 51 17 76 35 95 14 15 34 52 45 84 11 31 33 74 50 94 16 21 33
54 36 75 8 41 31 66 90 97 32 17 57 21 130 21 49 0 96 -4 103 -8 36 -24 33
-140 -7 -206 -26 -43 -18 -101 18 -124 14 -9 34 -24 43 -33 27 -27 121 -35
182 -16 28 9 85 21 126 27 41 6 102 16 135 21 33 5 83 9 111 9 64 0 88 17 87
62 -1 49 -39 163 -65 198 -29 40 -38 152 -15 197 9 16 64 79 124 139 94 96
117 114 176 137 56 23 82 27 160 27 50 0 108 -5 127 -9 71 -19 166 -64 218
-105 29 -22 67 -51 84 -63 16 -12 44 -43 62 -69 65 -96 66 -101 66 -219 l0
-110 -40 -49 c-22 -26 -40 -53 -40 -58 0 -5 -18 -35 -39 -66 -55 -79 -64 -120
-51 -232 6 -51 16 -102 22 -114 29 -54 84 -125 149 -190 39 -39 82 -93 96
-121 14 -27 36 -63 49 -78 34 -40 47 -100 39 -174 l-7 -63 121 0 121 0 0 895
0 895 -1600 0 -1600 0 0 -895z"/>
</g>
</svg>
