<svg version="1.0" xmlns="http://www.w3.org/2000/svg"
 width="668px" style="transform:scale(1,1.001);" height="375.75px" viewBox="0 0 320.000000 180.000000"
 preserveAspectRatio="xMidYMid meet">
<g transform="translate(0.000000,180.000000) scale(0.100000,-0.100000)"
fill="#000000" stroke="none">
<path d="M0 905 l0 -895 1600 0 1600 0 0 895 0 895 -1600 0 -1600 0 0 -895z m1743 584
c101 -30 138 -69 166 -177 16 -61 22 -112 22 -186 -1 -114 9 -160 39 -188 11
-10 20 -27 20 -37 0 -27 66 -83 141 -120 35 -18 84 -43 109 -55 46 -24 160
-135 160 -156 0 -7 8 -19 19 -28 33 -30 53 -152 30 -194 -25 -47 -46 -49 -567
-46 -268 2 -545 3 -617 3 -159 1 -160 1 -179 21 -23 22 -21 115 3 162 11 21
22 60 27 87 6 43 15 57 59 100 70 67 124 105 149 105 12 0 35 9 51 20 17 11
42 20 58 20 28 0 67 31 67 53 0 11 -23 28 -90 67 -42 24 -120 83 -156 116 -29
27 -34 39 -34 76 0 31 7 54 25 78 14 19 25 41 25 50 0 9 11 31 25 50 14 19 25
39 25 44 0 31 99 95 205 132 78 28 132 29 218 3z"/>
</g>
</svg>
