<svg version="1.0" xmlns="http://www.w3.org/2000/svg"
 width="668px" style="transform:scale(1,1.001);" height="375.75px" viewBox="0 0 320.000000 180.000000"
 preserveAspectRatio="xMidYMid meet">
<g transform="translate(0.000000,180.000000) scale(0.100000,-0.100000)"
fill="#000000" stroke="none">
<path d="M0 905 l0 -895 1600 0 1600 0 0 895 0 895 -1600 0 -1600 0 0 -895z m1837 749
c80 -18 124 -54 147 -120 13 -38 12 -52 -6 -146 -26 -135 -21 -186 23 -236 19
-21 56 -51 82 -68 84 -50 185 -140 214 -189 35 -57 41 -87 48 -220 5 -99 13
-154 26 -188 34 -87 23 -140 -36 -161 -11 -4 -119 -9 -240 -12 -121 -2 -341
-8 -489 -14 -287 -10 -297 -9 -340 39 -24 27 -48 26 -103 0 -35 -17 -58 -20
-113 -17 -99 5 -102 9 -101 154 2 163 14 195 102 269 26 22 60 50 74 63 14 12
30 22 34 22 4 0 46 37 92 83 101 97 121 113 175 137 23 10 45 23 48 29 4 6 26
15 49 22 23 6 57 25 75 42 47 46 44 77 -18 148 -28 32 -53 71 -56 88 -4 17
-13 36 -20 42 -16 13 -19 85 -4 94 6 4 16 19 23 35 18 42 93 100 130 101 18 1
43 5 57 9 38 12 53 11 127 -6z"/>
<path d="M1230 445 c0 -19 5 -35 10 -35 6 0 10 16 10 35 0 19 -4 35 -10 35 -5 0 -10
-16 -10 -35z"/>
</g>
</svg>
