<svg version="1.0" xmlns="http://www.w3.org/2000/svg"
 width="668px" style="transform:scale(1,1.001);" height="375.75px" viewBox="0 0 320.000000 180.000000"
 preserveAspectRatio="xMidYMid meet">
<g transform="translate(0.000000,180.000000) scale(0.100000,-0.100000)"
fill="#000000" stroke="none">
<path d="M0 905 l0 -895 710 0 c693 0 710 0 710 19 0 25 -37 111 -47 111 -4 0 -26 -7
-48 -15 -22 -8 -48 -14 -57 -15 -26 0 -33 42 -13 80 23 45 21 84 -11 160 -21
53 -27 86 -31 175 -3 61 0 143 6 184 6 40 9 76 6 79 -13 14 -53 -21 -84 -74
-34 -58 -79 -114 -91 -114 -9 0 -40 73 -40 95 0 10 29 77 63 149 35 72 70 149
76 171 7 22 33 81 59 131 l46 91 -17 45 c-25 66 -22 108 12 141 16 15 44 30
64 34 30 4 40 0 75 -32 27 -24 44 -49 48 -71 6 -35 28 -54 61 -54 30 0 97 -55
128 -105 16 -25 37 -47 47 -51 10 -3 23 -14 28 -25 6 -10 19 -19 30 -19 34 0
51 -12 65 -47 14 -33 14 -37 -8 -59 -12 -13 -26 -24 -32 -24 -5 0 -30 16 -54
35 -24 19 -49 35 -55 35 -6 0 -23 7 -38 14 -15 8 -27 12 -26 8 1 -4 -2 -16 -8
-27 -7 -14 -8 -65 -1 -160 6 -99 5 -159 -3 -204 -6 -36 -16 -124 -21 -195 -5
-72 -14 -153 -19 -181 -5 -27 -9 -103 -9 -167 l-1 -118 840 0 840 0 0 895 0
895 -1600 0 -1600 0 0 -895z"/>
<path d="M1376 508 c-11 -56 -13 -106 -4 -123 16 -28 28 1 28 72 0 62 -15 94 -24 51z"/>
</g>
</svg>
