<svg version="1.0" xmlns="http://www.w3.org/2000/svg"
 width="668px" style="transform:scale(1,1.001);" height="375.75px" viewBox="0 0 320.000000 180.000000"
 preserveAspectRatio="xMidYMid meet">
<g transform="translate(0.000000,180.000000) scale(0.100000,-0.100000)"
fill="#000000" stroke="none">
<path d="M0 905 l0 -895 1600 0 1600 0 0 895 0 895 -1600 0 -1600 0 0 -895z m1655 740
c55 -19 80 -35 118 -74 46 -49 47 -50 47 -116 0 -53 -6 -79 -32 -133 -42 -89
-40 -124 7 -167 20 -19 49 -42 65 -52 109 -68 220 -161 220 -183 0 -4 9 -15
20 -25 11 -10 22 -37 26 -64 4 -25 13 -63 20 -83 7 -21 16 -77 20 -125 3 -48
12 -118 20 -154 15 -76 5 -132 -26 -149 -24 -13 -1069 -14 -1103 -1 -33 13
-51 61 -43 119 28 208 42 266 98 387 29 64 51 90 142 169 54 48 73 62 143 107
44 28 53 76 24 121 -42 65 -111 218 -111 245 1 60 60 127 155 176 63 33 102
33 190 2z"/>
</g>
</svg>
