<svg version="1.0" xmlns="http://www.w3.org/2000/svg"
 width="668px" style="transform:scale(1,1.001);" height="375.75px" viewBox="0 0 320.000000 180.000000"
 preserveAspectRatio="xMidYMid meet">
<g transform="translate(0.000000,180.000000) scale(0.100000,-0.100000)"
fill="#000000" stroke="none">
<path d="M0 905 l0 -895 690 0 c576 0 690 2 690 14 0 7 -4 36 -9 63 -9 45 -3 166 15
318 4 38 1 64 -16 107 -27 72 -50 82 -88 37 -42 -50 -71 -102 -72 -126 0 -26
-22 -30 -59 -9 -21 12 -31 12 -65 0 -22 -8 -48 -22 -58 -31 -15 -13 -20 -14
-33 -3 -27 22 0 93 65 169 11 13 20 30 20 37 0 8 11 38 25 69 20 42 28 82 35
172 5 65 16 150 25 188 15 66 20 74 70 115 79 65 85 86 46 155 -17 30 -47 76
-66 101 -36 47 -59 111 -56 157 3 47 36 87 98 119 112 57 207 46 277 -33 36
-39 36 -39 36 -135 0 -113 14 -148 61 -158 17 -3 44 -17 61 -31 17 -14 42 -25
59 -25 22 0 44 -13 82 -49 56 -53 82 -109 97 -210 5 -31 16 -87 24 -126 11
-49 16 -127 16 -262 0 -138 4 -205 14 -235 8 -24 17 -70 21 -103 4 -33 13 -85
21 -115 9 -36 12 -75 8 -113 l-7 -57 587 0 586 0 0 895 0 895 -1600 0 -1600 0
0 -895z"/>
</g>
</svg>
