<svg version="1.0" xmlns="http://www.w3.org/2000/svg"
 width="668px" style="transform:scale(1,1.001);" height="375.75px" viewBox="0 0 320.000000 180.000000"
 preserveAspectRatio="xMidYMid meet">
<g transform="translate(0.000000,180.000000) scale(0.100000,-0.100000)"
fill="#000000" stroke="none">
<path d="M0 905 l0 -895 1600 0 1600 0 0 895 0 895 -1600 0 -1600 0 0 -895z m1959 777
c58 -40 101 -107 101 -156 0 -33 -32 -89 -72 -128 -16 -14 -28 -37 -28 -50 0
-29 54 -83 92 -92 30 -7 116 -84 150 -136 58 -87 72 -130 72 -225 1 -85 -1
-92 -29 -128 -16 -21 -41 -40 -55 -44 -14 -3 -53 -19 -87 -35 -85 -40 -108
-78 -98 -156 4 -31 8 -91 9 -132 1 -68 -1 -75 -22 -86 -29 -15 -439 -11 -454
4 -6 6 -14 57 -18 114 -8 101 -26 165 -57 200 -12 14 -18 57 -23 195 -9 204
-24 270 -69 302 -16 12 -33 21 -39 21 -5 0 -15 7 -22 14 -6 8 -28 20 -48 27
-20 6 -49 25 -64 41 -23 26 -28 40 -28 85 0 52 2 56 62 121 144 156 216 201
283 176 23 -9 47 -72 35 -94 -10 -18 -96 -80 -112 -80 -4 0 -8 -12 -8 -27 0
-25 4 -28 33 -29 17 -1 62 -5 98 -9 37 -4 79 -5 93 -1 26 6 26 8 26 94 0 111
10 146 61 205 40 47 41 47 102 47 55 0 68 -4 116 -38z"/>
</g>
</svg>
