<svg version="1.0" xmlns="http://www.w3.org/2000/svg"
 width="668px" style="transform:scale(1,1.001);" height="375.75px" viewBox="0 0 320.000000 180.000000"
 preserveAspectRatio="xMidYMid meet">
<g transform="translate(0.000000,180.000000) scale(0.100000,-0.100000)"
fill="#000000" stroke="none">
<path d="M0 905 l0 -895 655 0 654 0 -5 78 c-5 57 -1 102 15 175 18 86 19 111 11 190
-16 153 -33 521 -26 563 20 111 79 204 131 204 13 0 37 12 54 26 17 14 43 29
58 33 42 11 43 59 4 117 -16 25 -35 69 -41 97 -10 46 -9 58 9 100 11 26 25 47
30 47 5 0 24 12 42 28 29 24 41 27 106 27 66 0 75 -3 97 -26 14 -15 29 -29 33
-30 5 -2 19 -21 31 -42 31 -53 28 -105 -8 -177 -34 -68 -38 -103 -12 -125 61
-54 92 -75 106 -75 24 0 56 -19 56 -32 0 -7 12 -25 28 -41 l27 -28 0 -157 c0
-202 -29 -376 -88 -522 -26 -64 -31 -94 -38 -207 -4 -72 -12 -140 -18 -151 -6
-12 -11 -32 -11 -46 l0 -26 650 0 650 0 0 895 0 895 -1600 0 -1600 0 0 -895z"/>
</g>
</svg>
