<svg version="1.0" xmlns="http://www.w3.org/2000/svg"
 width="668px" style="transform:scale(1,1.001);" height="375.75px" viewBox="0 0 320.000000 180.000000"
 preserveAspectRatio="xMidYMid meet">
<g transform="translate(0.000000,180.000000) scale(0.100000,-0.100000)"
fill="#000000" stroke="none">
<path d="M0 905 l0 -895 538 0 537 0 18 127 c9 71 17 155 17 188 0 80 26 313 44 400 41
191 46 226 46 298 0 42 -4 77 -10 77 -14 0 -63 -22 -82 -38 -68 -56 -118 113
-64 218 93 181 90 178 162 179 40 1 62 19 49 41 -3 5 -6 36 -6 70 -1 54 2 65
26 90 28 30 88 47 123 35 11 -3 29 -28 42 -57 18 -41 21 -63 16 -105 -6 -52
-6 -53 31 -76 125 -79 129 -102 81 -449 -9 -67 -9 -99 0 -145 7 -32 24 -132
38 -223 24 -154 25 -181 20 -398 l-6 -232 790 0 790 0 0 895 0 895 -1600 0
-1600 0 0 -895z"/>
<path d="M1338 658 c-14 -29 -33 -78 -42 -108 -10 -30 -21 -64 -26 -75 -15 -36 -29 -89
-40 -160 -15 -97 -40 -277 -40 -292 0 -10 39 -13 160 -13 l160 0 0 81 c0 151
-21 372 -42 433 -27 83 -79 186 -93 186 -6 0 -23 -24 -37 -52z"/>
</g>
</svg>
