<svg version="1.0" xmlns="http://www.w3.org/2000/svg"
 width="668px" style="transform:scale(1,1.001);" height="375.75px" viewBox="0 0 320.000000 180.000000"
 preserveAspectRatio="xMidYMid meet">
<g transform="translate(0.000000,180.000000) scale(0.100000,-0.100000)"
fill="#000000" stroke="none">
<path d="M0 905 l0 -895 585 0 585 0 0 65 c0 38 7 81 16 103 9 20 20 67 25 104 4 38 15
81 23 97 9 16 20 75 26 132 5 57 17 146 25 196 16 104 7 161 -40 258 -25 53
-40 117 -50 228 -6 64 -10 73 -58 131 -29 34 -68 84 -87 111 -19 28 -39 55
-45 60 -6 6 -20 23 -31 39 -10 16 -28 41 -39 56 -73 101 -88 128 -93 168 l-5
42 -418 0 -419 0 0 -895z"/>
<path d="M960 1776 c0 -26 52 -84 179 -199 79 -71 99 -82 130 -72 34 10 42 57 24 136
-11 52 -13 73 -4 82 6 6 11 26 11 44 l0 33 -170 0 -170 0 0 -24z"/>
<path d="M1560 1771 c0 -16 7 -34 15 -41 27 -23 29 -74 4 -118 -31 -53 -18 -86 41 -101
22 -6 58 -16 79 -21 22 -6 42 -18 45 -28 3 -9 20 -26 37 -37 55 -36 92 -102
97 -172 6 -81 -3 -111 -33 -123 -14 -5 -25 -14 -25 -20 0 -6 -19 -43 -41 -83
-52 -91 -53 -126 -3 -228 54 -111 71 -140 185 -311 21 -31 41 -74 45 -95 3
-21 13 -49 21 -61 15 -25 46 -107 68 -182 7 -25 10 -66 8 -92 l-6 -48 552 0
551 0 0 895 0 895 -820 0 -820 0 0 -29z"/>
<path d="M1539 550 c-16 -16 -29 -37 -29 -47 0 -10 -9 -34 -19 -54 -11 -20 -25 -56 -31
-80 -7 -24 -43 -107 -81 -184 -38 -78 -69 -149 -69 -158 0 -16 26 -17 340 -17
334 0 340 0 340 20 0 11 -12 39 -27 63 -15 23 -40 67 -55 97 -49 93 -78 139
-115 178 -19 20 -69 74 -109 118 -41 45 -84 84 -96 87 -14 4 -29 -3 -49 -23z"/>
</g>
</svg>
