<svg version="1.0" xmlns="http://www.w3.org/2000/svg"
 width="668px" style="transform:scale(1,1.001);" height="375.75px" viewBox="0 0 320.000000 180.000000"
 preserveAspectRatio="xMidYMid meet">
<g transform="translate(0.000000,180.000000) scale(0.100000,-0.100000)"
fill="#000000" stroke="none">
<path d="M0 905 l0 -895 654 0 654 0 5 53 c18 179 29 281 37 347 20 152 9 232 -47 345
-29 59 -57 233 -50 319 12 161 125 386 195 386 24 0 42 40 42 95 0 83 36 135
94 135 35 0 116 -53 136 -90 26 -49 0 -123 -74 -208 l-45 -53 4 -117 c3 -64 9
-135 16 -157 6 -22 14 -59 18 -83 l8 -43 -47 6 c-79 11 -78 13 -50 -265 12
-117 12 -132 -8 -225 -38 -182 -43 -256 -22 -295 6 -12 27 -28 45 -36 31 -13
35 -19 41 -64 l7 -50 793 0 794 0 0 895 0 895 -1600 0 -1600 0 0 -895z"/>
</g>
</svg>
