<svg version="1.0" xmlns="http://www.w3.org/2000/svg"
 width="668px" style="transform:scale(1,1.001);" height="375.75px" viewBox="0 0 320.000000 180.000000"
 preserveAspectRatio="xMidYMid meet">
<g transform="translate(0.000000,180.000000) scale(0.100000,-0.100000)"
fill="#000000" stroke="none">
<path d="M0 905 l0 -895 690 0 690 0 0 25 c0 14 -4 25 -9 25 -5 0 -11 45 -13 101 -2 86
-6 103 -22 115 -11 8 -29 14 -41 14 -25 0 -59 34 -74 73 -7 17 -11 122 -11
268 0 213 2 244 18 277 11 20 36 80 57 132 41 100 76 159 122 204 60 59 111
96 131 96 26 0 52 36 52 70 -1 14 -10 41 -20 60 -11 19 -31 59 -45 87 l-25 53
20 54 c11 29 29 61 40 71 11 10 20 29 20 42 l0 23 -790 0 -790 0 0 -895z"/>
<path d="M1810 1771 c0 -16 6 -34 14 -40 8 -7 24 -37 36 -67 l23 -55 -32 -71 c-37 -84
-38 -100 -9 -141 28 -43 47 -57 74 -57 14 0 31 -12 44 -29 11 -17 28 -32 38
-35 28 -9 71 -89 116 -218 29 -80 38 -193 23 -280 -7 -39 -19 -58 -69 -110
-107 -111 -112 -123 -119 -267 -9 -165 -29 -312 -45 -332 -8 -8 -14 -25 -14
-37 l0 -22 655 0 655 0 0 895 0 895 -695 0 -695 0 0 -29z"/>
</g>
</svg>
