<svg version="1.0" xmlns="http://www.w3.org/2000/svg"
 width="668px" style="transform:scale(1,1.001);" height="375.75px" viewBox="0 0 320.000000 180.000000"
 preserveAspectRatio="xMidYMid meet">
<g transform="translate(0.000000,180.000000) scale(0.100000,-0.100000)"
fill="#000000" stroke="none">
<path d="M0 905 l0 -895 1600 0 1600 0 0 895 0 895 -1600 0 -1600 0 0 -895z m1611 729
c108 -54 134 -107 112 -229 -8 -44 -21 -90 -29 -103 -8 -13 -16 -41 -17 -64
-1 -34 3 -44 28 -64 17 -13 43 -35 58 -49 15 -14 36 -25 47 -25 11 0 24 -8 29
-19 6 -10 23 -22 38 -26 15 -3 41 -19 59 -35 18 -15 36 -29 41 -31 21 -9 75
-105 83 -148 5 -25 14 -59 20 -76 6 -16 16 -69 21 -116 4 -47 15 -99 24 -115
10 -19 15 -57 15 -111 0 -75 -2 -84 -22 -97 -31 -19 -757 -28 -975 -12 -180
13 -188 17 -188 99 1 94 24 246 45 285 11 20 20 43 20 50 0 28 60 139 92 170
70 67 175 156 211 179 34 22 37 27 37 71 0 47 -3 54 -56 120 -12 15 -25 38
-29 52 -4 14 -16 39 -26 56 -20 34 -25 88 -10 126 20 50 107 121 171 140 48
13 144 0 201 -28z"/>
</g>
</svg>
