<svg version="1.0" xmlns="http://www.w3.org/2000/svg"
 width="668px" style="transform:scale(1,1.001);" height="375.75px" viewBox="0 0 320.000000 180.000000"
 preserveAspectRatio="xMidYMid meet">
<g transform="translate(0.000000,180.000000) scale(0.100000,-0.100000)"
fill="#000000" stroke="none">
<path d="M0 905 l0 -895 720 0 720 0 0 88 c0 48 5 121 11 162 23 179 8 359 -33 397 -17
15 -20 15 -35 0 -19 -19 -62 -176 -63 -228 0 -20 7 -58 15 -85 30 -98 18 -151
-50 -221 -41 -44 -87 -58 -98 -29 -3 8 3 44 15 82 21 71 21 73 -12 204 -18 69
-21 101 -16 175 3 50 9 136 12 192 l7 103 -34 31 c-51 47 -58 72 -43 152 28
146 116 300 183 322 28 9 35 45 20 104 -24 93 26 148 125 138 75 -7 90 -30 82
-129 -6 -69 -4 -80 14 -98 11 -11 28 -20 38 -20 22 0 72 -62 89 -113 8 -22 16
-74 20 -116 5 -65 2 -84 -17 -129 -20 -45 -26 -52 -51 -52 -42 0 -52 -46 -32
-152 18 -101 21 -373 4 -473 -19 -111 -28 -206 -23 -257 l4 -48 814 0 814 0 0
895 0 895 -1600 0 -1600 0 0 -895z"/>
</g>
</svg>
