<svg version="1.0" xmlns="http://www.w3.org/2000/svg"
 width="668px" style="transform:scale(1,1.001);" height="375.75px" viewBox="0 0 320.000000 180.000000"
 preserveAspectRatio="xMidYMid meet">
<g transform="translate(0.000000,180.000000) scale(0.100000,-0.100000)"
fill="#000000" stroke="none">
<path d="M0 905 l0 -895 543 0 544 0 -1 362 c0 200 3 419 7 488 10 145 0 179 -64 215
-163 91 -257 216 -233 309 11 44 30 31 86 -57 55 -86 114 -86 142 1 10 29 35
70 61 98 49 53 57 87 30 138 -32 61 -5 177 43 184 16 3 22 10 22 28 l0 24
-590 0 -590 0 0 -895z"/>
<path d="M1300 1777 c0 -12 8 -27 18 -33 24 -16 41 -76 41 -147 0 -62 12 -87 43 -87 49
0 108 -60 138 -140 32 -84 66 -151 103 -209 42 -64 53 -118 32 -167 -19 -46
-39 -42 -80 16 -51 73 -106 64 -108 -17 0 -21 5 -94 12 -163 6 -69 15 -281 18
-473 l6 -347 838 0 839 0 0 895 0 895 -950 0 -950 0 0 -23z"/>
<path d="M1297 614 c-17 -40 -37 -151 -63 -358 -8 -65 -19 -137 -24 -160 -21 -89 -24
-86 101 -86 l112 0 -6 48 c-3 26 -10 97 -17 157 -6 61 -18 148 -26 195 -8 47
-14 99 -14 115 0 17 -10 52 -23 79 l-23 49 -17 -39z"/>
</g>
</svg>
