<svg version="1.0" xmlns="http://www.w3.org/2000/svg"
 width="668px" style="transform:scale(1,1.001);" height="375.75px" viewBox="0 0 320.000000 180.000000"
 preserveAspectRatio="xMidYMid meet">
<g transform="translate(0.000000,180.000000) scale(0.100000,-0.100000)"
fill="#000000" stroke="none">
<path d="M0 905 l0 -895 1600 0 1600 0 0 895 0 895 -1600 0 -1600 0 0 -895z m1719 776
c9 -5 44 -12 79 -16 56 -6 65 -11 89 -41 33 -44 27 -77 -31 -164 -62 -95 -64
-103 -21 -141 20 -18 52 -38 71 -45 20 -7 47 -22 60 -35 19 -18 35 -22 76 -21
60 1 72 -6 100 -62 26 -50 20 -117 -13 -152 -17 -18 -33 -24 -68 -24 -68 -1
-133 -16 -146 -34 -12 -15 -20 -129 -34 -444 -6 -153 -6 -154 -34 -178 l-29
-25 -201 7 c-111 4 -208 11 -214 17 -18 13 -16 97 3 170 27 107 -3 413 -51
508 -14 27 -27 49 -29 49 -3 0 -13 3 -23 6 -15 5 -15 4 -3 -5 8 -6 10 -11 4
-11 -6 0 -17 7 -24 15 -7 8 -23 15 -36 15 -12 0 -36 11 -51 24 -27 23 -28 28
-28 113 0 71 5 101 27 158 15 39 29 86 33 105 3 19 18 58 33 85 24 44 31 50
64 53 34 3 37 1 48 -34 15 -43 15 -106 2 -131 -19 -35 -24 -107 -9 -127 21
-28 106 -28 144 0 25 19 28 27 26 75 -1 30 -3 100 -5 157 l-3 103 29 22 c17
12 39 25 50 28 22 6 87 -6 115 -20z"/>
</g>
</svg>
