<svg version="1.0" xmlns="http://www.w3.org/2000/svg"
 width="668px" style="transform:scale(1,1.001);" height="375.75px" viewBox="0 0 320.000000 180.000000"
 preserveAspectRatio="xMidYMid meet">
<g transform="translate(0.000000,180.000000) scale(0.100000,-0.100000)"
fill="#000000" stroke="none">
<path d="M0 905 l0 -895 1600 0 1600 0 0 895 0 895 -1600 0 -1600 0 0 -895z m1679 764
c20 -10 44 -19 54 -19 21 0 79 -56 101 -98 9 -17 16 -43 16 -58 0 -31 -23
-114 -51 -189 -28 -75 -25 -95 21 -138 23 -20 46 -37 54 -37 7 0 23 -11 36
-25 13 -14 31 -25 40 -25 9 0 29 -13 43 -30 15 -16 33 -30 40 -30 22 0 74 -73
97 -136 12 -33 26 -98 31 -145 5 -47 15 -104 23 -127 8 -23 20 -89 27 -146 9
-85 9 -108 -2 -132 l-14 -29 -395 -7 c-497 -9 -687 -3 -730 23 l-30 19 0 99
c0 55 5 112 10 126 6 15 15 59 21 98 6 40 20 86 30 103 10 17 19 41 19 54 0
41 112 163 247 269 99 77 106 94 68 180 -15 33 -33 62 -41 65 -8 3 -14 11 -14
19 0 7 -9 30 -20 52 -12 23 -20 59 -20 86 0 43 5 53 50 102 28 30 62 58 78 62
15 3 34 13 42 20 33 29 108 27 169 -6z"/>
</g>
</svg>
