<svg version="1.0" xmlns="http://www.w3.org/2000/svg"
 width="668px" style="transform:scale(1,1.001);" height="375.75px" viewBox="0 0 320.000000 180.000000"
 preserveAspectRatio="xMidYMid meet">
<g transform="translate(0.000000,180.000000) scale(0.100000,-0.100000)"
fill="#000000" stroke="none">
<path d="M0 905 l0 -895 1600 0 1600 0 0 895 0 895 -1600 0 -1600 0 0 -895z m1598 745
c20 -11 41 -20 47 -20 15 0 89 -70 103 -97 20 -37 13 -105 -20 -193 -36 -97
-40 -147 -14 -162 10 -5 29 -23 43 -39 15 -16 34 -29 43 -29 9 0 29 -11 44
-25 15 -14 35 -25 45 -25 9 0 27 -11 39 -25 12 -14 26 -25 32 -25 12 0 100
-119 100 -136 0 -6 8 -38 19 -70 10 -33 21 -92 25 -132 3 -40 13 -90 22 -110
10 -24 16 -70 17 -130 1 -82 -1 -96 -18 -108 -15 -11 -83 -14 -344 -16 -393
-4 -691 0 -749 7 -56 8 -77 45 -68 119 3 28 10 92 16 141 5 54 17 106 30 130
11 21 20 45 20 51 0 28 81 170 106 186 12 8 87 67 114 91 8 7 36 28 62 47 29
21 52 48 58 68 12 35 6 85 -14 105 -25 26 -76 115 -76 133 0 10 -7 28 -15 38
-19 26 -19 80 0 96 8 7 15 17 15 23 0 28 116 111 180 129 37 10 96 0 138 -22z"/>
</g>
</svg>
