<svg version="1.0" xmlns="http://www.w3.org/2000/svg"
 width="668px" style="transform:scale(1,1.001);" height="375.75px" viewBox="0 0 320.000000 180.000000"
 preserveAspectRatio="xMidYMid meet">
<g transform="translate(0.000000,180.000000) scale(0.100000,-0.100000)"
fill="#000000" stroke="none">
<path d="M0 905 l0 -895 1600 0 1600 0 0 895 0 895 -1600 0 -1600 0 0 -895z m1653 732
c26 -13 58 -39 72 -57 22 -30 25 -44 24 -107 -1 -70 0 -74 38 -120 78 -94 89
-130 102 -308 6 -88 16 -195 23 -238 8 -50 8 -83 2 -91 -43 -60 -48 -72 -54
-150 -6 -72 -12 -91 -45 -147 -21 -35 -52 -81 -68 -102 l-29 -38 -121 3 c-121
3 -122 3 -131 29 -6 19 -3 50 13 110 12 46 22 91 24 99 3 22 -34 13 -58 -14
-11 -13 -32 -31 -46 -40 -23 -15 -28 -15 -39 -1 -7 8 -21 15 -31 15 -24 0 -42
36 -34 68 6 27 71 102 88 102 5 0 26 18 48 41 l39 41 0 147 c0 121 4 159 20
207 26 79 25 102 -4 115 -44 21 -52 79 -21 150 16 34 16 39 -5 88 -26 59 -24
141 4 169 18 19 92 49 121 51 11 0 41 -10 68 -22z"/>
</g>
</svg>
