<svg version="1.0" xmlns="http://www.w3.org/2000/svg"
 width="668px" style="transform:scale(1,1.001);" height="375.75px" viewBox="0 0 320.000000 180.000000"
 preserveAspectRatio="xMidYMid meet">
<g transform="translate(0.000000,180.000000) scale(0.100000,-0.100000)"
fill="#000000" stroke="none">
<path d="M0 905 l0 -895 760 0 760 0 0 24 c0 13 -7 29 -15 36 -8 7 -15 22 -15 35 0 37
-11 36 -51 -5 -30 -31 -47 -40 -72 -40 -18 0 -38 5 -44 11 -14 14 -6 65 14 94
20 30 16 56 -19 110 -41 63 -68 120 -68 144 0 37 -43 157 -66 184 -34 41 -33
114 5 203 16 38 39 96 52 129 20 52 76 172 117 250 7 14 30 34 50 44 20 10 49
30 65 44 23 23 27 34 27 83 0 50 3 59 34 90 45 45 79 45 138 0 50 -39 63 -73
48 -128 -17 -58 -12 -81 26 -113 19 -16 58 -53 87 -81 29 -28 67 -56 85 -62
18 -6 45 -20 59 -32 14 -11 32 -20 40 -20 23 0 83 -72 83 -101 0 -67 -73 -164
-131 -174 -31 -6 -38 -3 -54 21 -10 16 -27 38 -37 49 -12 12 -18 32 -17 50 2
34 -19 85 -35 85 -6 0 -19 12 -31 26 -16 20 -29 25 -62 26 -36 0 -47 -5 -70
-32 -54 -64 -55 -66 -49 -143 17 -217 17 -248 -3 -434 -11 -106 -18 -205 -15
-222 4 -16 17 -40 30 -52 14 -13 27 -40 30 -61 l7 -38 768 0 769 0 0 895 0
895 -1600 0 -1600 0 0 -895z"/>
<path d="M1432 622 c-7 -15 -18 -64 -23 -109 -10 -77 -9 -86 17 -165 34 -101 46 -121
55 -87 13 44 9 185 -6 274 -19 109 -26 123 -43 87z"/>
</g>
</svg>
