<svg version="1.0" xmlns="http://www.w3.org/2000/svg"
 width="668px" style="transform:scale(1,1.001);" height="375.75px" viewBox="0 0 320.000000 180.000000"
 preserveAspectRatio="xMidYMid meet">
<g transform="translate(0.000000,180.000000) scale(0.100000,-0.100000)"
fill="#000000" stroke="none">
<path d="M0 905 l0 -895 1600 0 1600 0 0 895 0 895 -1600 0 -1600 0 0 -895z m1810 810
c14 -8 43 -23 65 -34 55 -27 102 -75 114 -116 13 -48 -4 -170 -29 -209 -37
-58 -51 -97 -45 -126 6 -28 82 -106 145 -149 57 -39 140 -123 161 -163 25 -49
35 -98 59 -285 26 -206 26 -282 0 -315 l-19 -25 -413 4 c-227 2 -475 7 -551
12 -174 10 -183 16 -181 119 2 86 42 292 73 367 51 127 95 193 151 231 174
119 240 170 250 196 12 28 -1 91 -21 104 -17 10 -56 98 -67 150 -8 35 -8 63
-1 88 11 40 63 106 84 106 8 0 26 11 42 24 15 12 35 26 43 29 30 11 116 6 140
-8z"/>
</g>
</svg>
