<svg version="1.0" xmlns="http://www.w3.org/2000/svg"
 width="668px" style="transform:scale(1,1.001);" height="375.75px" viewBox="0 0 320.000000 180.000000"
 preserveAspectRatio="xMidYMid meet">
<g transform="translate(0.000000,180.000000) scale(0.100000,-0.100000)"
fill="#000000" stroke="none">
<path d="M0 905 l0 -895 556 0 555 0 -6 53 c-5 40 -2 62 13 97 11 25 25 70 31 100 7 30
18 65 26 77 9 12 21 50 29 83 8 33 24 86 37 118 12 31 32 84 45 117 34 88 46
172 35 243 -7 45 -6 77 5 129 21 103 20 147 -6 203 -26 56 -31 59 -114 66 -94
8 -103 12 -125 48 -23 37 -27 71 -10 82 38 23 110 31 196 21 49 -5 100 -7 114
-3 34 9 79 72 79 111 0 73 11 95 66 136 63 46 99 56 148 39 65 -21 109 -109
87 -173 -24 -66 8 -117 73 -117 13 0 42 -13 64 -30 23 -16 45 -30 50 -30 4 0
32 -16 62 -35 30 -19 63 -35 74 -35 10 0 38 -11 60 -24 23 -13 62 -26 88 -30
26 -4 57 -15 70 -25 13 -9 46 -26 73 -36 76 -27 134 -65 141 -89 6 -25 -11
-77 -29 -88 -22 -14 -64 -8 -82 12 -38 42 -122 80 -177 80 -69 1 -130 15 -144
35 -15 20 -169 40 -206 26 -29 -11 -38 -46 -38 -147 0 -48 -5 -67 -22 -89 -32
-41 -38 -142 -10 -187 11 -18 25 -58 31 -89 5 -31 19 -72 30 -90 12 -19 21
-44 21 -57 0 -12 9 -40 19 -60 11 -21 24 -64 30 -96 6 -33 20 -75 31 -94 16
-26 22 -60 27 -143 l6 -109 599 0 598 0 0 895 0 895 -1600 0 -1600 0 0 -895z"/>
<path d="M1509 507 c-15 -18 -43 -65 -64 -106 -20 -41 -45 -86 -54 -100 -10 -14 -30
-45 -44 -68 -15 -24 -39 -62 -54 -85 -14 -24 -34 -55 -45 -70 -10 -15 -18 -36
-18 -48 0 -20 5 -20 315 -20 l315 0 0 29 c0 17 -4 32 -9 35 -5 3 -14 27 -20
53 -7 27 -25 68 -39 93 -15 25 -32 52 -37 61 -6 10 -24 37 -40 60 -17 24 -37
60 -45 79 -8 19 -30 54 -49 78 -44 52 -74 55 -112 9z"/>
</g>
</svg>
