<svg version="1.0" xmlns="http://www.w3.org/2000/svg"
 width="668px" style="transform:scale(1,1.001);" height="375.75px" viewBox="0 0 320.000000 180.000000"
 preserveAspectRatio="xMidYMid meet">
<g transform="translate(0.000000,180.000000) scale(0.100000,-0.100000)"
fill="#000000" stroke="none">
<path d="M0 905 l0 -895 546 0 547 0 -7 47 c-4 31 5 123 24 258 17 115 30 228 30 250 0
51 34 285 50 348 12 47 12 65 -5 282 -7 78 -12 91 -54 124 -32 26 -51 32 -126
40 -51 6 -92 16 -97 23 -4 7 -8 32 -8 55 0 36 4 45 26 56 16 9 43 44 69 92 45
85 82 115 142 115 35 0 73 -38 73 -72 0 -11 9 -41 21 -68 38 -88 78 -73 86 31
8 115 41 159 117 159 60 0 91 -18 114 -64 29 -56 28 -88 -3 -124 -40 -48 -32
-95 21 -117 51 -21 81 -77 88 -165 6 -89 18 -126 63 -200 21 -36 33 -68 33
-92 0 -45 -15 -88 -32 -88 -6 0 -41 30 -76 66 -59 59 -66 64 -81 50 -14 -14
-14 -26 2 -118 23 -146 35 -258 47 -448 5 -91 15 -227 22 -302 l12 -138 778 0
778 0 0 895 0 895 -1600 0 -1600 0 0 -895z"/>
<path d="M1346 678 c-18 -41 -71 -213 -90 -293 -14 -58 -23 -104 -52 -265 -22 -122 -38
-110 151 -110 164 0 165 0 165 23 0 56 -31 339 -44 397 -22 102 -55 219 -69
248 -18 40 -44 40 -61 0z"/>
</g>
</svg>
