<svg version="1.0" xmlns="http://www.w3.org/2000/svg"
 width="668px" style="transform:scale(1,1.001);" height="375.75px" viewBox="0 0 320.000000 180.000000"
 preserveAspectRatio="xMidYMid meet">
<g transform="translate(0.000000,180.000000) scale(0.100000,-0.100000)"
fill="#000000" stroke="none">
<path d="M0 905 l0 -895 773 0 772 0 0 177 c0 155 3 187 22 248 12 39 27 97 33 130 7
33 16 78 22 100 6 22 14 110 18 195 4 85 11 181 15 212 l8 57 -55 53 c-90 87
-93 94 -92 233 0 77 5 134 14 156 42 107 60 137 94 157 26 16 36 28 36 47 l0
25 -830 0 -830 0 0 -895z"/>
<path d="M1900 1778 c0 -13 9 -38 21 -57 20 -33 22 -66 7 -170 -4 -33 32 -57 115 -77
63 -16 70 -20 90 -58 33 -64 36 -217 6 -327 -12 -46 -26 -131 -29 -189 -4 -58
-12 -118 -19 -133 -7 -18 -11 -97 -11 -207 0 -98 -4 -212 -9 -252 -6 -40 -13
-124 -16 -185 l-7 -113 576 0 576 0 0 895 0 895 -650 0 -650 0 0 -22z"/>
<path d="M1780 249 c-5 -13 -14 -58 -20 -99 -5 -41 -12 -90 -16 -108 l-6 -32 66 0 c61
0 66 2 66 22 0 12 -7 29 -16 39 -10 11 -18 45 -21 93 -4 55 -11 80 -24 92 -17
15 -19 15 -29 -7z"/>
</g>
</svg>
