<svg version="1.0" xmlns="http://www.w3.org/2000/svg"
 width="668px" style="transform:scale(1,1.001);" height="375.75px" viewBox="0 0 320.000000 180.000000"
 preserveAspectRatio="xMidYMid meet">
<g transform="translate(0.000000,180.000000) scale(0.100000,-0.100000)"
fill="#000000" stroke="none">
<path d="M0 905 l0 -895 516 0 517 0 -6 37 c-4 21 -2 53 3 73 5 19 21 84 36 144 14 60
33 125 42 145 8 20 18 50 23 66 12 47 40 127 55 162 8 17 14 42 14 56 0 14 4
28 9 32 5 3 13 20 17 37 3 18 10 39 15 48 16 27 71 184 76 217 3 18 -2 54 -11
79 -24 72 -21 147 9 199 14 24 32 46 40 49 8 3 15 12 15 19 0 22 63 65 111 76
53 12 84 45 92 97 14 80 73 116 197 118 39 1 46 -3 67 -33 36 -53 31 -98 -17
-151 -45 -51 -48 -74 -20 -130 11 -22 20 -59 20 -85 0 -45 -16 -78 -133 -288
-14 -25 -17 -47 -14 -99 2 -37 9 -73 14 -80 13 -17 40 -95 48 -138 7 -39 32
-124 45 -155 15 -36 38 -119 45 -160 11 -66 36 -188 46 -221 5 -17 9 -49 9
-72 l0 -42 660 0 660 0 0 895 0 895 -1600 0 -1600 0 0 -895z"/>
<path d="M1450 713 c-18 -5 -47 -49 -105 -153 -22 -41 -46 -84 -53 -95 -36 -63 -172
-408 -172 -437 0 -17 19 -18 331 -18 l331 0 -5 37 c-17 121 -84 300 -189 501
-45 86 -82 158 -82 158 -4 6 -44 11 -56 7z"/>
</g>
</svg>
