<svg version="1.0" xmlns="http://www.w3.org/2000/svg"
 width="668px" style="transform:scale(1,1.001);" height="375.75px" viewBox="0 0 320.000000 180.000000"
 preserveAspectRatio="xMidYMid meet">
<g transform="translate(0.000000,180.000000) scale(0.100000,-0.100000)"
fill="#000000" stroke="none">
<path d="M0 905 l0 -895 730 0 c716 0 730 0 730 19 0 31 -40 91 -60 91 -10 0 -31 10
-47 23 -15 13 -36 26 -46 30 -9 4 -21 17 -26 30 -5 12 -16 29 -24 36 -9 7 -26
34 -38 59 -12 26 -40 68 -62 95 -44 54 -66 115 -60 169 4 29 15 45 52 76 26
22 65 45 87 51 21 6 47 20 56 31 10 11 23 20 30 20 7 1 46 5 85 9 64 8 77 13
109 44 44 42 40 62 -13 76 -45 13 -83 64 -83 113 0 64 22 254 36 309 8 30 14
77 14 103 0 41 -6 54 -45 103 -38 47 -45 61 -45 99 0 30 8 57 24 83 22 34 31
40 74 46 137 19 195 -25 207 -156 6 -67 12 -83 44 -125 72 -98 91 -131 120
-214 16 -47 32 -118 35 -160 4 -41 12 -107 18 -147 9 -56 9 -93 -2 -170 -14
-106 -28 -152 -71 -225 -52 -89 -116 -300 -103 -341 3 -10 6 -55 6 -98 l-1
-79 735 0 734 0 0 895 0 895 -1600 0 -1600 0 0 -895z"/>
<path d="M1495 460 c3 -5 10 -10 16 -10 5 0 9 5 9 10 0 6 -7 10 -16 10 -8 0 -12 -4 -9
-10z"/>
</g>
</svg>
