<svg version="1.0" xmlns="http://www.w3.org/2000/svg"
 width="668px" style="transform:scale(1,1.001);" height="375.75px" viewBox="0 0 320.000000 180.000000"
 preserveAspectRatio="xMidYMid meet">
<g transform="translate(0.000000,180.000000) scale(0.100000,-0.100000)"
fill="#000000" stroke="none">
<path d="M0 905 l0 -895 775 0 c754 0 775 1 775 19 0 10 -7 54 -15 97 -9 44 -20 106
-27 139 -6 33 -22 89 -35 125 -26 71 -47 163 -63 283 -6 44 -21 98 -33 120
-17 34 -22 59 -22 132 0 85 2 94 37 155 46 82 69 106 108 115 17 4 34 13 37
21 3 8 20 21 38 28 34 15 38 23 50 90 4 27 19 51 47 79 37 37 43 39 87 35 35
-4 59 -14 89 -37 48 -39 57 -75 41 -151 -9 -45 -8 -62 6 -111 16 -51 16 -65 5
-101 -12 -43 -62 -144 -102 -207 l-22 -34 23 -136 c29 -183 44 -390 39 -538
l-5 -123 684 0 683 0 0 895 0 895 -1600 0 -1600 0 0 -895z"/>
<path d="M1655 398 c9 -36 9 -140 0 -270 l-8 -118 38 0 38 0 -7 68 c-3 37 -11 114 -16
172 -6 58 -14 118 -18 134 -10 36 -36 50 -27 14z"/>
</g>
</svg>
