<svg version="1.0" xmlns="http://www.w3.org/2000/svg"
 width="668px" style="transform:scale(1,1.001);" height="375.75px" viewBox="0 0 320.000000 180.000000"
 preserveAspectRatio="xMidYMid meet">
<g transform="translate(0.000000,180.000000) scale(0.100000,-0.100000)"
fill="#000000" stroke="none">
<path d="M0 905 l0 -895 601 0 602 0 -6 48 c-27 221 -37 328 -37 396 0 43 -7 122 -15
175 -8 53 -19 146 -23 208 -8 97 -12 118 -35 150 -14 21 -29 51 -33 66 -3 16
-16 33 -28 38 -11 6 -32 26 -45 46 -21 33 -22 40 -12 90 6 32 32 92 61 142 27
48 50 99 50 115 0 17 -14 44 -35 70 -44 55 -47 98 -7 144 26 32 29 33 115 34
114 2 117 -1 132 -134 6 -57 15 -111 19 -120 9 -19 119 -58 165 -58 31 0 40
-6 69 -44 28 -37 28 -78 0 -119 -30 -41 -37 -47 -70 -47 -51 0 -83 -71 -59
-132 5 -13 14 -43 21 -68 7 -25 16 -54 21 -65 33 -82 62 -182 74 -267 17 -111
11 -189 -26 -365 -12 -58 -19 -132 -19 -198 l0 -105 860 0 860 0 0 895 0 895
-1600 0 -1600 0 0 -895z"/>
<path d="M1326 578 c-15 -106 -34 -406 -29 -480 5 -77 8 -88 24 -88 15 0 19 7 19 33 0
17 9 113 21 212 11 99 18 205 15 235 -6 62 -24 120 -37 120 -4 0 -10 -15 -13
-32z"/>
</g>
</svg>
