<svg version="1.0" xmlns="http://www.w3.org/2000/svg"
 width="668px" style="transform:scale(1,1.001);" height="375.75px" viewBox="0 0 320.000000 180.000000"
 preserveAspectRatio="xMidYMid meet">
<g transform="translate(0.000000,180.000000) scale(0.100000,-0.100000)"
fill="#000000" stroke="none">
<path d="M0 905 l0 -895 620 0 620 0 0 43 c0 23 7 53 16 65 20 29 22 106 2 129 -8 10
-23 41 -33 68 -16 42 -19 77 -19 210 0 88 6 189 13 225 7 36 17 88 22 117 12
67 101 244 142 283 18 17 43 33 57 37 40 9 47 20 54 82 9 83 33 111 95 111 40
0 52 -5 79 -33 35 -36 41 -78 22 -149 -12 -42 -6 -58 40 -118 15 -19 35 -60
44 -90 24 -76 61 -127 102 -140 19 -7 34 -16 34 -21 0 -4 15 -16 33 -25 17 -9
35 -22 39 -28 13 -20 8 -60 -11 -83 -18 -21 -21 -22 -48 -8 -15 8 -39 15 -53
15 -16 0 -43 16 -70 41 -25 22 -56 45 -69 52 -13 7 -32 27 -42 46 -25 47 -34
54 -58 46 -42 -13 -53 -59 -52 -205 1 -74 4 -153 7 -175 3 -22 9 -119 15 -215
5 -96 12 -199 15 -227 l6 -53 789 0 789 0 0 895 0 895 -1600 0 -1600 0 0 -895z"/>
<path d="M1392 553 c-36 -147 -38 -254 -6 -339 22 -58 12 -107 -26 -136 -18 -13 -30
-31 -30 -45 0 -22 2 -23 96 -23 l96 0 -5 38 c-12 84 -49 302 -63 367 -8 39
-14 86 -14 106 0 21 -8 47 -18 59 l-18 22 -12 -49z"/>
</g>
</svg>
