<svg version="1.0" xmlns="http://www.w3.org/2000/svg"
 width="668px" style="transform:scale(1,1.001);" height="375.75px" viewBox="0 0 320.000000 180.000000"
 preserveAspectRatio="xMidYMid meet">
<g transform="translate(0.000000,180.000000) scale(0.100000,-0.100000)"
fill="#000000" stroke="none">
<path d="M0 905 l0 -895 1600 0 1600 0 0 895 0 895 -1600 0 -1600 0 0 -895z m1923 691
c32 -14 61 -26 65 -26 4 0 35 -25 68 -55 63 -56 104 -119 104 -158 -1 -31 -42
-147 -63 -177 -9 -13 -17 -29 -17 -35 0 -6 -11 -26 -25 -45 -21 -29 -25 -45
-25 -106 0 -99 16 -116 183 -198 107 -52 144 -76 191 -123 83 -83 106 -135
106 -235 0 -74 -2 -82 -28 -108 l-28 -28 -614 5 c-677 5 -643 1 -675 68 -18
40 -16 73 9 128 8 18 17 44 20 58 6 26 106 139 124 139 5 0 19 11 32 25 13 14
29 25 36 25 7 0 25 11 41 24 15 12 33 25 38 27 42 18 116 77 129 103 36 78 26
137 -38 213 -14 16 -28 42 -32 58 -4 16 -18 44 -31 63 -12 19 -23 41 -23 48 0
7 -8 26 -17 42 -16 28 -16 33 -2 64 21 43 154 185 182 194 12 4 33 16 47 26
36 29 163 21 243 -16z"/>
</g>
</svg>
