<svg version="1.0" xmlns="http://www.w3.org/2000/svg"
 width="668px" style="transform:scale(1,1.001);" height="375.75px" viewBox="0 0 320.000000 180.000000"
 preserveAspectRatio="xMidYMid meet">
<g transform="translate(0.000000,180.000000) scale(0.100000,-0.100000)"
fill="#000000" stroke="none">
<path d="M0 905 l0 -895 1600 0 1600 0 0 895 0 895 -770 0 -770 0 0 -25 c0 -14 5 -25
10 -25 18 0 77 -65 99 -109 24 -47 27 -108 6 -135 -8 -11 -15 -29 -15 -41 0
-11 -10 -38 -21 -60 -36 -67 -51 -129 -38 -162 16 -44 58 -81 110 -98 27 -9
51 -20 54 -25 3 -5 29 -16 58 -24 120 -37 188 -148 205 -338 6 -63 16 -126 21
-141 6 -16 11 -84 11 -153 0 -182 35 -167 -378 -159 -185 4 -449 8 -586 10
l-250 3 -23 26 c-20 24 -23 37 -23 119 1 163 41 365 87 437 23 37 115 120 132
120 5 0 23 11 39 25 17 14 44 31 60 38 17 7 47 27 66 45 42 38 48 84 16 125
-11 14 -20 31 -20 37 0 7 -9 29 -20 49 -33 62 -77 176 -84 218 -10 58 15 110
75 157 34 27 49 47 49 63 l0 23 -650 0 -650 0 0 -895z m2005 -755 c4 -6 -17
-10 -55 -10 -38 0 -59 4 -55 10 3 6 28 10 55 10 27 0 52 -4 55 -10z"/>
</g>
</svg>
