<svg version="1.0" xmlns="http://www.w3.org/2000/svg"
 width="668px" style="transform:scale(1,1.001);" height="375.75px" viewBox="0 0 320.000000 180.000000"
 preserveAspectRatio="xMidYMid meet">
<g transform="translate(0.000000,180.000000) scale(0.100000,-0.100000)"
fill="#000000" stroke="none">
<path d="M0 905 l0 -895 1600 0 1600 0 0 895 0 895 -1600 0 -1600 0 0 -895z m1766 796
c15 -11 33 -21 40 -21 26 0 94 -71 104 -109 14 -52 -4 -184 -30 -226 -13 -20
-20 -50 -20 -79 0 -43 4 -51 44 -89 24 -23 67 -55 96 -72 28 -16 70 -47 92
-67 22 -21 43 -38 48 -38 4 0 13 -12 19 -27 6 -16 20 -44 31 -63 11 -19 20
-47 20 -62 0 -15 6 -47 14 -70 8 -24 19 -97 25 -163 5 -66 14 -133 20 -148 19
-49 13 -103 -13 -134 l-25 -29 -541 2 c-643 2 -593 -8 -598 120 -2 47 3 103
12 139 8 33 17 88 20 123 3 34 14 79 25 100 11 20 33 66 49 102 32 68 81 130
104 130 8 0 25 12 39 28 22 24 42 38 115 80 36 20 84 81 84 105 0 25 -34 103
-48 109 -4 1 -21 26 -37 53 -25 43 -29 61 -30 124 l0 73 40 35 c40 34 106 81
135 95 30 15 137 1 166 -21z"/>
</g>
</svg>
