<svg version="1.0" xmlns="http://www.w3.org/2000/svg"
 width="668px" style="transform:scale(1,1.001);" height="375.75px" viewBox="0 0 320.000000 180.000000"
 preserveAspectRatio="xMidYMid meet">
<g transform="translate(0.000000,180.000000) scale(0.100000,-0.100000)"
fill="#000000" stroke="none">
<path d="M0 905 l0 -895 1600 0 1600 0 0 895 0 895 -1600 0 -1600 0 0 -895z m1543 675
c34 -27 50 -78 42 -133 -6 -40 -4 -47 24 -75 17 -17 40 -33 50 -37 52 -16 151
-173 151 -238 0 -43 -15 -57 -65 -57 -63 0 -75 -16 -100 -124 -15 -63 -14 -70
10 -177 14 -62 25 -121 25 -132 0 -11 20 -70 44 -131 87 -221 123 -361 101
-396 -11 -18 -53 -10 -67 12 -7 13 -22 50 -33 83 -27 85 -80 190 -124 245 -20
26 -56 83 -79 128 -24 45 -48 84 -54 88 -25 15 -98 -113 -98 -171 0 -20 6 -48
14 -63 53 -102 81 -260 54 -293 -25 -29 -69 -50 -101 -47 l-32 3 -6 110 c-4
81 -12 126 -29 170 -18 47 -24 85 -27 175 -4 114 4 172 44 320 15 55 20 261 7
295 -9 23 -91 62 -148 70 -27 4 -60 18 -77 32 -28 24 -29 29 -29 106 0 81 14
117 45 117 23 0 64 -40 70 -70 10 -46 30 -60 85 -60 58 0 94 12 126 43 21 20
23 28 18 83 -6 61 1 89 34 127 21 24 92 23 125 -3z"/>
</g>
</svg>
