<svg version="1.0" xmlns="http://www.w3.org/2000/svg"
 width="668px" style="transform:scale(1,1.001);" height="375.75px" viewBox="0 0 320.000000 180.000000"
 preserveAspectRatio="xMidYMid meet">
<g transform="translate(0.000000,180.000000) scale(0.100000,-0.100000)"
fill="#000000" stroke="none">
<path d="M0 905 l0 -895 370 0 370 0 -2 67 c-2 53 2 78 20 116 13 27 28 77 34 110 5 34
19 75 29 90 11 15 26 63 34 105 7 43 23 96 34 118 11 21 24 67 30 101 5 34 17
73 26 86 25 38 31 153 10 207 -9 25 -25 74 -35 110 -10 36 -26 85 -35 110 -9
25 -23 83 -32 129 -8 47 -20 96 -28 111 -8 16 -16 83 -21 178 l-7 152 -398 0
-399 0 0 -895z"/>
<path d="M1170 1776 c0 -30 63 -89 68 -63 2 9 9 14 17 11 25 -10 75 24 75 51 0 25 -2
25 -80 25 -78 0 -80 -1 -80 -24z"/>
<path d="M2300 1776 c0 -14 9 -31 21 -40 34 -24 87 -138 95 -205 13 -114 3 -139 -88
-232 -75 -77 -129 -140 -153 -179 -5 -8 -11 -99 -12 -201 l-3 -187 30 -37 c17
-21 30 -42 30 -48 0 -5 13 -35 29 -66 15 -31 31 -77 35 -104 4 -26 19 -73 33
-105 14 -31 33 -96 43 -143 10 -48 23 -96 29 -108 8 -15 9 -27 1 -40 -5 -11
-10 -31 -10 -45 l0 -26 410 0 410 0 0 895 0 895 -450 0 -450 0 0 -24z"/>
</g>
</svg>
