<svg version="1.0" xmlns="http://www.w3.org/2000/svg"
 width="668px" style="transform:scale(1,1.001);" height="375.75px" viewBox="0 0 320.000000 180.000000"
 preserveAspectRatio="xMidYMid meet">
<g transform="translate(0.000000,180.000000) scale(0.100000,-0.100000)"
fill="#000000" stroke="none">
<path d="M0 905 l0 -895 1600 0 1600 0 0 895 0 895 -1600 0 -1600 0 0 -895z m1690 448
c32 -27 32 -27 26 -99 l-7 -72 79 -81 c59 -61 91 -85 125 -97 26 -9 47 -19 47
-24 0 -4 14 -13 30 -20 34 -14 60 -56 59 -92 0 -13 -9 -45 -18 -73 l-18 -50
-12 43 c-12 43 -14 45 -136 120 -11 7 -36 19 -55 28 -19 8 -47 21 -62 29 -14
8 -38 15 -53 15 -32 0 -89 -32 -110 -63 -19 -28 -19 -116 0 -141 8 -11 15 -32
15 -47 0 -14 7 -44 17 -65 17 -41 23 -222 13 -365 -5 -63 -3 -69 28 -112 37
-52 39 -70 13 -96 -21 -21 -59 -18 -101 7 -49 30 -50 35 -50 227 0 161 -2 185
-20 220 -11 22 -20 44 -20 50 -1 22 -48 68 -64 62 -13 -5 -16 -24 -16 -109 -1
-153 -16 -328 -35 -384 -15 -48 -54 -84 -91 -84 -35 0 -40 89 -8 135 16 22 18
120 4 180 -5 22 -11 83 -15 135 -9 157 -31 198 -63 121 -13 -32 -23 -42 -49
-47 -57 -11 -68 -4 -71 50 -2 32 2 54 11 65 8 9 38 57 67 106 29 50 73 121 99
158 49 72 64 96 95 145 11 17 41 43 68 57 54 29 64 44 74 103 3 22 17 51 30
66 21 22 33 26 84 26 49 0 64 -4 90 -27z"/>
</g>
</svg>
