<svg version="1.0" xmlns="http://www.w3.org/2000/svg"
 width="668px" style="transform:scale(1,1.001);" height="375.75px" viewBox="0 0 320.000000 180.000000"
 preserveAspectRatio="xMidYMid meet">
<g transform="translate(0.000000,180.000000) scale(0.100000,-0.100000)"
fill="#000000" stroke="none">
<path d="M0 905 l0 -895 535 0 535 0 0 50 c0 47 31 164 69 255 33 81 8 257 -45 315 -59
65 -83 191 -47 248 17 27 117 135 183 199 19 18 52 39 74 45 51 16 76 57 76
124 0 43 5 57 29 83 27 29 34 31 98 31 75 0 79 -2 111 -44 16 -20 22 -43 22
-76 0 -58 24 -108 58 -121 47 -18 90 -73 153 -199 65 -128 79 -192 48 -211
-41 -25 -41 -25 -30 -65 10 -35 9 -41 -14 -64 -25 -25 -26 -25 -56 -7 -52 30
-63 24 -55 -30 19 -125 25 -154 54 -233 51 -145 62 -192 55 -248 l-6 -52 677
0 676 0 0 895 0 895 -1600 0 -1600 0 0 -895z"/>
<path d="M1428 388 c-22 -18 -63 -87 -72 -120 -3 -16 -13 -28 -21 -28 -8 0 -15 -9 -15
-20 0 -11 -4 -20 -9 -20 -5 0 -23 -24 -40 -53 -17 -29 -40 -62 -51 -72 -11
-10 -20 -29 -20 -42 l0 -23 255 0 c251 0 255 0 255 21 0 23 -73 180 -93 201
-7 7 -18 21 -23 30 -16 30 -124 138 -137 138 -7 0 -20 -6 -29 -12z"/>
</g>
</svg>
