<svg version="1.0" xmlns="http://www.w3.org/2000/svg"
 width="668px" style="transform:scale(1,1.001);" height="375.75px" viewBox="0 0 320.000000 180.000000"
 preserveAspectRatio="xMidYMid meet">
<g transform="translate(0.000000,180.000000) scale(0.100000,-0.100000)"
fill="#000000" stroke="none">
<path d="M0 905 l0 -895 895 0 c893 0 895 0 895 20 0 12 -7 31 -15 43 -8 12 -21 63 -29
112 -8 50 -19 102 -25 117 -5 15 -11 48 -12 75 -1 26 -6 53 -10 59 -5 6 -12
51 -15 100 -4 58 -15 111 -31 152 -14 34 -29 91 -34 125 -27 189 -25 183 -96
289 -60 90 -67 152 -30 288 14 52 32 125 41 163 16 72 57 137 85 137 24 0 91
66 91 90 0 20 -6 20 -855 20 l-855 0 0 -895z"/>
<path d="M1830 1775 c0 -17 6 -25 18 -25 27 -1 94 -57 124 -105 23 -37 28 -57 28 -107
0 -70 5 -82 36 -92 12 -3 26 -17 32 -30 6 -13 19 -27 29 -30 17 -6 47 -47 65
-90 5 -11 19 -29 31 -41 43 -42 85 -130 86 -182 1 -50 -54 -181 -99 -234 -53
-62 -52 -68 10 -229 103 -264 140 -402 140 -522 l0 -78 435 0 435 0 0 895 0
895 -685 0 -685 0 0 -25z"/>
<path d="M1999 313 c-1 -5 -2 -74 -3 -155 l-1 -148 88 0 c83 0 87 1 87 22 0 12 -7 29
-16 39 -21 24 -47 69 -93 167 -35 72 -58 99 -62 75z"/>
</g>
</svg>
