<svg version="1.0" xmlns="http://www.w3.org/2000/svg"
 width="668px" style="transform:scale(1,1.001);" height="375.75px" viewBox="0 0 320.000000 180.000000"
 preserveAspectRatio="xMidYMid meet">
<g transform="translate(0.000000,180.000000) scale(0.100000,-0.100000)"
fill="#000000" stroke="none">
<path d="M0 905 l0 -895 770 0 c867 0 791 -8 748 79 -21 43 -23 56 -19 191 8 262 8 261
-11 271 -35 20 -45 40 -57 115 -7 42 -19 95 -27 117 -19 54 -18 133 4 189 10
26 21 50 25 54 4 4 7 13 7 20 0 7 18 50 40 96 22 46 40 88 40 93 0 6 18 37 40
70 22 33 40 71 40 85 0 14 -15 48 -34 75 -85 124 -92 181 -30 253 19 22 34 50
34 61 l0 21 -785 0 -785 0 0 -895z"/>
<path d="M1760 1777 c0 -15 15 -37 39 -59 50 -44 61 -91 37 -157 -9 -25 -16 -57 -16
-71 0 -30 51 -90 76 -90 21 0 91 -75 110 -120 37 -85 46 -129 56 -293 5 -95
12 -205 15 -246 4 -63 2 -78 -15 -101 -38 -51 -52 -100 -52 -179 0 -45 -8
-107 -19 -147 -27 -97 -76 -233 -89 -246 -7 -7 -12 -22 -12 -35 l0 -23 655 0
655 0 0 895 0 895 -720 0 -720 0 0 -23z"/>
</g>
</svg>
