<svg version="1.0" xmlns="http://www.w3.org/2000/svg"
 width="668px" style="transform:scale(1,1.001);" height="375.75px" viewBox="0 0 320.000000 180.000000"
 preserveAspectRatio="xMidYMid meet">
<g transform="translate(0.000000,180.000000) scale(0.100000,-0.100000)"
fill="#000000" stroke="none">
<path d="M0 905 l0 -895 655 0 c738 0 670 -9 639 80 -14 40 -14 81 -4 370 6 179 15 393
20 475 4 83 6 153 3 158 -7 13 -40 8 -54 -9 -7 -8 -25 -22 -40 -30 -16 -8 -39
-25 -53 -39 -14 -14 -32 -25 -40 -25 -9 0 -20 -9 -26 -20 -6 -11 -20 -30 -33
-43 -12 -13 -27 -32 -33 -43 -26 -43 -65 21 -50 80 3 11 39 57 81 101 41 44
75 85 75 93 0 7 11 18 25 24 14 6 25 15 25 20 0 5 14 36 30 70 33 66 83 129
112 140 10 4 18 14 18 23 0 23 -24 67 -49 89 -33 30 -28 89 10 137 28 36 35
39 78 39 44 0 50 -3 80 -40 25 -31 33 -53 40 -106 8 -71 18 -84 67 -84 34 0
53 -13 77 -51 19 -32 20 -57 7 -269 -5 -91 -14 -257 -19 -370 -7 -181 -12
-219 -39 -321 -17 -63 -40 -137 -52 -163 -11 -26 -20 -68 -20 -93 0 -40 5 -49
41 -83 37 -34 39 -38 25 -53 -9 -8 -16 -25 -16 -36 l0 -21 810 0 810 0 0 895
0 895 -1600 0 -1600 0 0 -895z"/>
</g>
</svg>
