<svg version="1.0" xmlns="http://www.w3.org/2000/svg"
 width="668px" style="transform:scale(1,1.001);" height="375.75px" viewBox="0 0 320.000000 180.000000"
 preserveAspectRatio="xMidYMid meet">
<g transform="translate(0.000000,180.000000) scale(0.100000,-0.100000)"
fill="#000000" stroke="none">
<path d="M0 905 l0 -895 675 0 675 0 0 25 c0 14 -4 25 -9 25 -31 0 -36 185 -6 255 7 17
16 47 20 68 5 34 29 100 70 192 7 17 23 55 35 85 12 30 26 59 31 64 5 6 9 34
9 62 0 59 20 152 54 258 40 120 40 116 -9 169 -25 26 -49 47 -54 47 -22 0 -51
92 -51 159 0 58 5 74 38 133 20 36 58 85 85 108 41 37 54 42 100 44 64 3 127
39 127 74 l0 22 -895 0 -895 0 0 -895z"/>
<path d="M1880 1779 c0 -11 18 -41 40 -66 46 -53 57 -94 43 -170 -14 -78 2 -132 44
-150 18 -7 37 -22 43 -32 5 -11 19 -22 29 -26 50 -16 84 -155 75 -305 -10
-174 -44 -267 -107 -294 -18 -7 -47 -30 -66 -50 -39 -40 -37 -31 -61 -395 -7
-104 -17 -188 -26 -209 -8 -19 -14 -43 -14 -53 0 -18 21 -19 660 -19 l660 0 0
895 0 895 -660 0 -660 0 0 -21z"/>
<path d="M1641 1509 c-36 -22 -39 -34 -12 -49 27 -14 54 -13 75 3 16 12 17 16 5 35 -19
31 -32 33 -68 11z"/>
<path d="M1617 273 c-8 -27 -18 -65 -21 -85 -10 -56 -34 -106 -56 -118 -12 -6 -20 -21
-20 -35 0 -24 2 -25 79 -25 l79 0 -5 138 c-7 178 -26 219 -56 125z"/>
</g>
</svg>
