<svg version="1.0" xmlns="http://www.w3.org/2000/svg"
 width="668px" style="transform:scale(1,1.001);" height="375.75px" viewBox="0 0 320.000000 180.000000"
 preserveAspectRatio="xMidYMid meet">
<g transform="translate(0.000000,180.000000) scale(0.100000,-0.100000)"
fill="#000000" stroke="none">
<path d="M0 905 l0 -895 510 0 510 0 0 41 c0 22 5 50 12 62 6 12 15 42 19 67 15 91 37
196 52 250 9 30 23 84 33 120 16 61 69 209 99 275 59 132 61 176 10 242 -20
26 -38 57 -41 70 -11 41 3 101 33 149 15 25 34 56 40 69 7 12 25 31 40 40 16
10 31 24 36 31 4 7 29 16 55 19 74 10 76 11 130 84 40 54 58 70 84 75 52 9 87
-5 111 -47 18 -33 20 -43 11 -96 -5 -32 -6 -65 -3 -72 54 -106 59 -134 35
-191 -8 -18 -22 -62 -32 -98 -10 -36 -34 -87 -52 -115 -29 -44 -33 -56 -29
-100 2 -27 15 -75 30 -105 30 -65 55 -131 67 -180 5 -19 18 -62 30 -95 11 -33
32 -121 46 -195 14 -74 32 -155 40 -180 8 -25 14 -62 14 -82 l0 -38 655 0 655
0 0 895 0 895 -1600 0 -1600 0 0 -895z"/>
<path d="M1412 685 c-43 -38 -124 -168 -154 -248 -11 -29 -32 -92 -45 -142 -14 -50 -31
-102 -39 -117 -8 -15 -14 -35 -14 -45 0 -10 -7 -31 -15 -47 -8 -15 -15 -39
-15 -52 l0 -24 325 0 325 0 0 24 c0 35 -30 166 -45 201 -8 17 -24 64 -36 105
-24 83 -51 141 -84 182 -13 14 -39 56 -59 92 -33 59 -76 106 -97 106 -5 0 -26
-16 -47 -35z"/>
</g>
</svg>
