<svg version="1.0" xmlns="http://www.w3.org/2000/svg"
 width="668px" style="transform:scale(1,1.001);" height="375.75px" viewBox="0 0 320.000000 180.000000"
 preserveAspectRatio="xMidYMid meet">
<g transform="translate(0.000000,180.000000) scale(0.100000,-0.100000)"
fill="#000000" stroke="none">
<path d="M0 905 l0 -895 700 0 c777 0 713 -6 690 64 -18 60 -50 262 -50 321 0 33 -7 85
-15 115 -8 30 -21 81 -27 113 -8 41 -16 57 -28 57 -15 0 -50 -47 -50 -69 0
-21 -83 -196 -103 -219 -31 -33 -55 -29 -63 13 -3 19 -4 45 -1 58 7 27 64 194
76 222 15 33 40 115 64 206 15 55 33 98 50 118 33 39 44 79 29 100 -39 54 -52
91 -42 117 13 34 45 59 92 73 32 10 43 9 78 -9 44 -23 65 -49 75 -98 9 -42 61
-82 121 -93 25 -5 60 -20 77 -34 47 -37 66 -51 127 -92 30 -20 61 -43 68 -50
7 -7 20 -13 27 -13 37 0 65 -102 44 -158 l-9 -23 -28 19 c-15 11 -45 36 -67
56 -22 20 -57 41 -79 47 -21 6 -50 18 -63 26 -45 30 -53 14 -53 -109 0 -123 7
-181 40 -332 27 -124 22 -153 -35 -212 -41 -42 -45 -50 -45 -95 0 -55 -22 -76
-67 -64 -38 9 -63 -3 -63 -31 l0 -24 865 0 865 0 0 895 0 895 -1600 0 -1600 0
0 -895z"/>
<path d="M1486 394 c-9 -35 2 -84 19 -84 18 0 28 51 16 83 -13 34 -27 34 -35 1z"/>
</g>
</svg>
