<svg version="1.0" xmlns="http://www.w3.org/2000/svg"
 width="668px" style="transform:scale(1,1.001);" height="375.75px" viewBox="0 0 320.000000 180.000000"
 preserveAspectRatio="xMidYMid meet">
<g transform="translate(0.000000,180.000000) scale(0.100000,-0.100000)"
fill="#000000" stroke="none">
<path d="M0 905 l0 -895 578 0 577 0 0 202 c0 159 4 219 18 275 11 46 17 111 17 181 0
77 6 131 20 186 12 43 25 110 30 150 16 124 54 223 110 286 46 51 48 56 35 75
-9 11 -19 30 -24 42 -6 11 -15 24 -20 28 -20 12 -13 90 11 121 12 16 27 32 33
36 15 11 154 9 176 -2 33 -18 52 -68 47 -128 -5 -51 -3 -57 26 -84 17 -16 50
-38 73 -48 23 -10 51 -28 61 -38 11 -11 26 -24 35 -28 20 -12 52 -79 67 -143
17 -72 7 -265 -18 -350 -11 -38 -32 -80 -53 -105 -19 -22 -40 -56 -46 -76 -19
-53 -17 -284 3 -367 9 -37 16 -101 16 -141 l0 -72 714 0 714 0 0 895 0 895
-1600 0 -1600 0 0 -895z"/>
<path d="M1443 479 c-21 -22 -51 -63 -66 -92 -15 -28 -33 -55 -40 -59 -8 -5 -13 -45
-14 -120 -1 -62 -5 -132 -9 -155 l-7 -43 172 0 171 0 0 25 c0 13 -5 37 -11 52
-22 54 -28 68 -48 115 -23 55 -56 174 -65 237 -7 48 -22 81 -36 81 -5 0 -26
-18 -47 -41z"/>
</g>
</svg>
