<svg version="1.0" xmlns="http://www.w3.org/2000/svg"
 width="668px" style="transform:scale(1,1.001);" height="375.75px" viewBox="0 0 320.000000 180.000000"
 preserveAspectRatio="xMidYMid meet">
<g transform="translate(0.000000,180.000000) scale(0.100000,-0.100000)"
fill="#000000" stroke="none">
<path d="M0 905 l0 -895 1600 0 1600 0 0 895 0 895 -1600 0 -1600 0 0 -895z m1910 711
c76 -28 136 -67 172 -112 89 -112 91 -145 16 -295 -29 -57 -61 -115 -70 -129
-22 -31 -24 -108 -3 -138 25 -35 103 -83 157 -98 28 -7 57 -19 67 -27 9 -8 32
-20 51 -26 38 -13 100 -82 100 -112 0 -10 11 -47 24 -81 45 -117 53 -258 17
-278 -19 -9 -595 -13 -1044 -6 -307 5 -317 6 -317 55 0 46 30 172 50 212 11
21 20 45 20 53 0 8 11 28 25 44 14 17 25 34 25 39 0 14 71 69 100 78 14 4 34
15 45 25 11 10 34 22 50 25 17 4 48 15 70 25 22 10 55 24 73 31 50 18 65 48
60 119 -2 35 -11 67 -20 77 -9 10 -35 63 -58 118 -24 55 -49 107 -56 116 -8 8
-14 36 -14 60 0 42 4 50 60 105 87 86 99 96 155 127 44 24 58 27 113 22 34 -2
94 -16 132 -29z"/>
</g>
</svg>
