<svg version="1.0" xmlns="http://www.w3.org/2000/svg"
 width="668px" style="transform:scale(1,1.001);" height="375.75px" viewBox="0 0 320.000000 180.000000"
 preserveAspectRatio="xMidYMid meet">
<g transform="translate(0.000000,180.000000) scale(0.100000,-0.100000)"
fill="#000000" stroke="none">
<path d="M0 905 l0 -895 730 0 730 0 0 28 c0 27 -15 103 -26 132 -4 10 -13 0 -29 -31
-20 -38 -30 -48 -57 -52 -54 -8 -61 8 -26 58 43 61 21 91 -27 39 l-25 -27 -15
36 c-8 20 -15 65 -15 99 1 146 51 623 70 658 18 35 51 66 78 75 30 9 45 47 31
82 -14 37 -6 63 30 97 44 42 107 41 150 -2 38 -38 46 -74 29 -127 -14 -41 -13
-85 2 -85 15 0 51 -58 71 -115 16 -47 18 -64 9 -122 -6 -38 -15 -159 -19 -270
-8 -171 -13 -209 -31 -250 -23 -52 -56 -93 -76 -93 -21 0 -35 -27 -41 -79 l-6
-51 832 0 831 0 0 895 0 895 -1600 0 -1600 0 0 -895z"/>
<path d="M1567 463 c-11 -10 -8 -136 3 -153 7 -10 10 12 10 73 0 87 -1 93 -13 80z"/>
</g>
</svg>
