<svg version="1.0" xmlns="http://www.w3.org/2000/svg"
 width="668px" style="transform:scale(1,1.001);" height="375.75px" viewBox="0 0 320.000000 180.000000"
 preserveAspectRatio="xMidYMid meet">
<g transform="translate(0.000000,180.000000) scale(0.100000,-0.100000)"
fill="#000000" stroke="none">
<path d="M0 905 l0 -895 600 0 600 0 0 22 c0 12 -10 32 -21 44 -46 49 -61 125 -69 344
-4 113 -13 223 -19 246 -16 58 -65 122 -98 129 -57 12 -98 41 -111 81 -16 47
-1 222 23 280 8 19 20 86 26 147 15 143 37 191 69 152 7 -8 18 -15 25 -15 7 0
15 -6 18 -14 6 -16 83 -18 96 -2 5 6 19 40 31 76 28 84 42 104 93 137 53 34
116 35 207 4 70 -24 107 -56 142 -124 44 -85 17 -209 -54 -251 -22 -14 -28
-24 -28 -52 0 -28 5 -37 28 -46 15 -7 38 -22 52 -34 14 -12 41 -27 61 -33 40
-13 146 -108 169 -151 73 -140 99 -180 142 -223 58 -58 68 -80 68 -151 0 -79
-15 -112 -65 -142 -77 -45 -138 -154 -157 -282 -6 -40 -17 -79 -24 -87 -8 -7
-14 -23 -14 -34 l0 -21 705 0 705 0 0 895 0 895 -1600 0 -1600 0 0 -895z"/>
<path d="M1137 1242 c-9 -10 -17 -33 -17 -51 0 -29 3 -32 28 -29 25 3 27 6 27 47 0 49
-13 61 -38 33z"/>
</g>
</svg>
