<svg version="1.0" xmlns="http://www.w3.org/2000/svg"
 width="668px" style="transform:scale(1,1.001);" height="375.75px" viewBox="0 0 320.000000 180.000000"
 preserveAspectRatio="xMidYMid meet">
<g transform="translate(0.000000,180.000000) scale(0.100000,-0.100000)"
fill="#000000" stroke="none">
<path d="M0 905 l0 -895 196 0 196 0 -7 33 c-4 17 -8 59 -8 91 -1 52 3 62 25 80 14 12
33 38 41 58 9 21 28 43 45 52 17 9 32 20 34 25 1 5 48 39 103 75 110 71 105
67 192 157 34 35 67 69 73 74 5 6 44 45 86 89 62 63 77 86 81 117 3 21 9 36
14 33 18 -11 8 25 -10 38 -10 7 -21 24 -26 38 -4 14 -22 39 -41 57 -42 39 -43
65 -5 99 16 14 35 40 42 57 7 18 27 48 44 67 18 19 36 45 39 57 4 12 17 25 29
29 12 3 31 14 42 24 11 10 54 32 95 49 41 18 89 40 105 49 22 12 61 18 149 20
l118 4 82 -38 c53 -25 98 -55 132 -89 45 -44 55 -61 74 -128 20 -74 21 -81 6
-140 -8 -34 -18 -89 -21 -122 -4 -33 -15 -78 -25 -101 -15 -35 -16 -45 -5 -70
16 -37 61 -77 105 -94 51 -20 209 -104 262 -139 25 -17 53 -42 62 -55 8 -14
24 -27 35 -31 10 -3 28 -27 39 -53 12 -26 32 -60 44 -75 20 -25 23 -41 26
-144 3 -74 0 -119 -7 -126 -6 -6 -11 -24 -11 -39 l0 -28 375 0 375 0 0 895 0
895 -1600 0 -1600 0 0 -895z"/>
</g>
</svg>
