<svg version="1.0" xmlns="http://www.w3.org/2000/svg"
 width="668px" style="transform:scale(1,1.001);" height="375.75px" viewBox="0 0 320.000000 180.000000"
 preserveAspectRatio="xMidYMid meet">
<g transform="translate(0.000000,180.000000) scale(0.100000,-0.100000)"
fill="#000000" stroke="none">
<path d="M0 905 l0 -895 80 0 c74 0 80 2 80 20 0 12 -7 32 -16 46 -9 13 -14 27 -11 31
4 3 0 17 -7 32 -7 14 -10 40 -7 56 5 26 11 30 43 33 23 2 47 -3 60 -12 58 -41
179 2 267 92 74 76 200 182 216 182 8 0 29 13 47 29 18 15 43 31 55 35 12 4
70 47 128 96 58 50 109 90 113 90 19 0 70 60 94 110 63 132 88 190 88 204 0
24 -37 38 -84 31 -48 -8 -117 8 -141 31 -18 19 -19 70 -2 104 17 33 84 77 130
85 21 4 41 13 44 20 2 8 30 19 61 26 60 12 121 39 139 61 8 10 6 29 -9 75 -39
120 0 201 101 211 109 10 182 -85 161 -211 -9 -54 -7 -61 23 -120 18 -34 35
-63 40 -65 4 -2 25 -30 47 -62 39 -57 40 -61 40 -145 0 -64 -5 -95 -19 -123
-10 -20 -21 -52 -25 -71 -17 -94 -97 -211 -158 -234 -35 -13 -76 -86 -83 -145
-4 -31 -18 -80 -31 -109 -13 -28 -24 -64 -24 -80 0 -39 -16 -90 -33 -108 -8
-8 -20 -42 -26 -76 -6 -34 -17 -69 -26 -79 -8 -9 -15 -26 -15 -38 l0 -22 930
0 930 0 0 895 0 895 -1600 0 -1600 0 0 -895z"/>
<path d="M1079 445 c-17 -17 -68 -47 -111 -65 -16 -7 -28 -16 -28 -22 0 -5 -4 -6 -10
-3 -10 6 -65 -23 -116 -62 -16 -13 -57 -42 -91 -65 -33 -24 -87 -64 -120 -89
-32 -25 -69 -50 -83 -54 -37 -11 -50 -25 -50 -51 l0 -24 361 0 362 0 -9 37
c-5 21 -9 108 -9 193 0 85 -1 161 -3 168 -2 11 -59 52 -72 52 -3 0 -13 -7 -21
-15z"/>
</g>
</svg>
