<svg version="1.0" xmlns="http://www.w3.org/2000/svg"
 width="668px" style="transform:scale(1,1.001);" height="375.75px" viewBox="0 0 320.000000 180.000000"
 preserveAspectRatio="xMidYMid meet">
<g transform="translate(0.000000,180.000000) scale(0.100000,-0.100000)"
fill="#000000" stroke="none">
<path d="M0 905 l0 -895 610 0 c607 0 610 0 610 20 0 12 -6 31 -14 43 -62 94 -102 287
-90 430 9 111 7 112 -131 97 -58 -6 -122 -8 -143 -4 -46 9 -97 62 -112 119 -6
22 -20 58 -31 81 -10 22 -19 46 -19 54 0 8 -9 32 -19 54 -19 40 -34 91 -70
233 -17 67 -59 154 -81 168 -18 11 -10 48 21 96 34 54 83 89 122 89 34 0 84
-51 97 -100 6 -22 16 -43 23 -47 16 -10 57 -76 57 -92 0 -7 -9 -33 -21 -58
-25 -55 -21 -109 10 -149 12 -15 21 -34 21 -42 0 -16 47 -91 64 -104 16 -11
40 4 132 90 102 95 118 124 107 209 -8 72 3 119 37 155 30 31 47 85 36 114
-12 30 14 83 47 101 18 9 45 26 60 39 25 21 39 24 106 24 72 0 81 -2 116 -30
21 -16 41 -30 46 -30 4 0 25 -23 47 -50 35 -44 41 -59 47 -118 9 -87 -6 -143
-45 -176 l-30 -25 20 -33 c11 -19 35 -42 54 -51 24 -11 42 -31 58 -64 22 -46
23 -57 23 -303 l0 -255 34 -73 34 -72 -7 -133 c-4 -72 -9 -149 -13 -169 l-6
-38 697 0 696 0 0 895 0 895 -1600 0 -1600 0 0 -895z"/>
</g>
</svg>
