<svg version="1.0" xmlns="http://www.w3.org/2000/svg"
 width="668px" style="transform:scale(1,1.001);" height="375.75px" viewBox="0 0 320.000000 180.000000"
 preserveAspectRatio="xMidYMid meet">
<g transform="translate(0.000000,180.000000) scale(0.100000,-0.100000)"
fill="#000000" stroke="none">
<path d="M0 905 l0 -895 548 0 547 0 2 328 c2 180 8 379 14 442 13 136 -1 307 -27 326
-8 7 -36 15 -62 19 -39 6 -60 18 -122 73 -89 79 -87 77 -100 122 -11 40 1 100
25 120 11 9 20 2 46 -45 31 -56 83 -105 111 -105 16 0 58 41 58 57 0 18 70
100 96 112 24 11 26 14 20 64 -19 157 -19 160 8 200 14 21 26 47 26 57 0 20
-11 20 -595 20 l-595 0 0 -895z"/>
<path d="M1350 1781 c0 -11 9 -36 21 -56 18 -30 21 -48 18 -118 l-4 -82 34 -10 c51 -15
135 -101 156 -160 10 -27 37 -97 61 -155 46 -111 55 -173 31 -220 -22 -43 -50
-37 -93 20 l-39 51 -19 -23 c-16 -20 -18 -34 -12 -118 21 -302 24 -400 19
-638 l-6 -262 841 0 842 0 0 895 0 895 -925 0 c-909 0 -925 0 -925 -19z"/>
<path d="M1306 628 c-14 -48 -27 -114 -35 -178 -19 -160 -42 -317 -51 -351 -6 -20 -10
-48 -10 -63 l0 -26 105 0 105 0 0 33 c0 17 -7 84 -15 147 -8 63 -19 158 -26
210 -21 179 -29 224 -41 232 -18 11 -28 10 -32 -4z"/>
</g>
</svg>
