<svg version="1.0" xmlns="http://www.w3.org/2000/svg"
 width="668px" style="transform:scale(1,1.001);" height="375.75px" viewBox="0 0 320.000000 180.000000"
 preserveAspectRatio="xMidYMid meet">
<g transform="translate(0.000000,180.000000) scale(0.100000,-0.100000)"
fill="#000000" stroke="none">
<path d="M0 905 l0 -895 595 0 595 0 0 24 c0 13 -7 29 -16 37 -41 34 -47 68 -55 294
-11 336 -21 360 -145 375 -58 7 -71 13 -105 46 -30 29 -39 46 -39 71 0 37 23
132 39 159 6 11 16 30 21 44 35 87 147 257 175 266 21 7 95 78 95 91 0 37 22
127 36 148 9 14 37 40 63 58 39 27 55 32 103 32 39 -1 62 -6 75 -18 11 -9 33
-20 50 -23 18 -3 48 -24 70 -48 35 -36 45 -57 68 -144 11 -39 -24 -131 -62
-160 -47 -38 -45 -74 5 -106 20 -13 43 -31 51 -40 7 -9 20 -16 27 -16 8 0 33
-18 56 -40 24 -22 46 -40 50 -40 5 0 8 -6 8 -14 0 -7 7 -20 17 -27 9 -8 32
-48 51 -89 19 -41 54 -104 77 -140 71 -110 89 -153 82 -200 -7 -53 -39 -88
-94 -102 -24 -6 -48 -18 -53 -28 -5 -10 -9 -51 -8 -91 2 -128 -20 -269 -43
-269 -5 0 -9 -11 -9 -25 l0 -25 710 0 710 0 0 895 0 895 -1600 0 -1600 0 0
-895z"/>
</g>
</svg>
