<svg version="1.0" xmlns="http://www.w3.org/2000/svg"
 width="668px" style="transform:scale(1,1.001);" height="375.75px" viewBox="0 0 320.000000 180.000000"
 preserveAspectRatio="xMidYMid meet">
<g transform="translate(0.000000,180.000000) scale(0.100000,-0.100000)"
fill="#000000" stroke="none">
<path d="M0 905 l0 -895 1600 0 1600 0 0 895 0 895 -1600 0 -1600 0 0 -895z m1995 813
c57 -44 85 -95 85 -155 0 -48 -6 -62 -65 -142 -14 -19 -25 -40 -25 -46 0 -19
69 -84 96 -91 25 -6 109 -104 137 -160 46 -90 67 -167 67 -246 0 -49 -5 -89
-14 -107 -22 -41 -78 -79 -136 -92 -57 -12 -120 -59 -120 -89 0 -10 7 -47 16
-81 10 -37 14 -85 12 -117 -8 -89 -9 -89 -276 -85 -124 1 -234 5 -244 9 -24 7
-38 64 -38 152 0 49 -6 84 -17 105 -18 36 -76 218 -99 313 -14 55 -23 70 -92
140 -64 65 -79 88 -90 129 -19 78 6 145 56 145 13 0 39 9 57 20 18 11 60 23
94 26 41 5 71 15 93 30 27 20 44 24 104 24 40 0 84 4 99 10 26 10 26 10 24
112 -2 118 10 159 60 201 29 24 41 27 103 27 65 0 75 -3 113 -32z m-150 -1589
c5 -5 -36 -9 -98 -9 -61 0 -107 4 -107 9 0 19 184 18 205 0z"/>
</g>
</svg>
