<svg version="1.0" xmlns="http://www.w3.org/2000/svg"
 width="668px" style="transform:scale(1,1.001);" height="375.75px" viewBox="0 0 320.000000 180.000000"
 preserveAspectRatio="xMidYMid meet">
<g transform="translate(0.000000,180.000000) scale(0.100000,-0.100000)"
fill="#000000" stroke="none">
<path d="M0 905 l0 -895 671 0 672 0 -6 36 c-4 23 -1 47 8 65 23 44 18 107 -16 189 -48
117 -49 198 -3 466 l17 100 -30 59 c-48 94 -57 99 -209 90 -138 -8 -140 -9
-194 -83 -22 -30 -53 -36 -81 -13 -21 17 -23 27 -23 95 0 43 6 82 12 88 6 6
38 15 71 19 34 5 88 18 121 29 32 11 74 20 92 20 39 0 96 28 115 56 10 16 9
27 -12 73 -30 63 -24 105 21 146 64 59 184 5 184 -84 0 -56 16 -77 81 -110 34
-17 70 -31 79 -31 10 0 30 -10 46 -22 15 -13 48 -25 73 -28 41 -4 48 -9 64
-42 15 -30 16 -41 6 -60 -7 -13 -15 -30 -19 -38 -4 -8 -25 -20 -46 -26 -29 -8
-38 -16 -37 -30 25 -228 34 -394 29 -521 -9 -223 -9 -240 9 -287 27 -71 5
-105 -55 -85 -49 18 -80 81 -80 165 0 149 -31 339 -58 349 -20 7 -29 -7 -44
-75 -17 -79 -15 -141 10 -253 27 -122 28 -157 2 -190 -11 -14 -20 -35 -20 -46
l0 -21 875 0 875 0 0 895 0 895 -1600 0 -1600 0 0 -895z"/>
</g>
</svg>
