<svg version="1.0" xmlns="http://www.w3.org/2000/svg"
 width="668px" style="transform:scale(1,1.001);" height="375.75px" viewBox="0 0 320.000000 180.000000"
 preserveAspectRatio="xMidYMid meet">
<g transform="translate(0.000000,180.000000) scale(0.100000,-0.100000)"
fill="#000000" stroke="none">
<path d="M0 905 l0 -895 1600 0 1600 0 0 895 0 895 -1600 0 -1600 0 0 -895z m1864 741
c32 -14 85 -66 105 -104 20 -38 13 -132 -14 -187 -26 -54 -32 -113 -13 -148
20 -38 72 -89 106 -103 17 -8 32 -19 32 -24 0 -5 18 -19 39 -30 63 -32 141
-116 174 -190 29 -62 31 -75 43 -280 8 -137 9 -221 3 -232 -23 -43 -51 -45
-560 -48 -266 -2 -539 1 -606 6 -118 9 -124 10 -154 40 -27 27 -31 39 -36 108
-5 58 -2 91 12 136 16 51 26 65 76 105 65 53 92 81 136 145 48 70 122 149 157
167 17 9 54 33 81 53 28 20 67 42 87 49 47 16 78 63 71 109 -3 19 -11 36 -19
39 -7 2 -23 21 -36 41 -80 125 -87 139 -88 173 0 21 7 42 15 49 9 7 22 27 31
44 24 47 77 86 131 96 60 11 187 3 227 -14z"/>
</g>
</svg>
