<svg version="1.0" xmlns="http://www.w3.org/2000/svg"
 width="668px" style="transform:scale(1,1.001);" height="375.75px" viewBox="0 0 320.000000 180.000000"
 preserveAspectRatio="xMidYMid meet">
<g transform="translate(0.000000,180.000000) scale(0.100000,-0.100000)"
fill="#000000" stroke="none">
<path d="M0 905 l0 -895 1600 0 1600 0 0 895 0 895 -1600 0 -1600 0 0 -895z m1752 772
c47 -23 76 -45 95 -72 25 -36 28 -48 28 -125 0 -61 -5 -93 -16 -110 -27 -43
-42 -119 -28 -151 12 -30 113 -119 135 -119 7 0 19 -9 26 -19 8 -11 29 -27 48
-36 19 -9 55 -42 79 -72 40 -49 47 -65 67 -163 13 -59 28 -152 33 -206 6 -55
15 -115 21 -134 17 -60 13 -127 -11 -151 -21 -21 -22 -21 -547 -15 -290 4
-542 9 -560 12 -23 4 -36 12 -42 30 -15 37 -12 124 5 180 8 27 17 76 21 109 4
33 15 79 25 102 11 23 19 46 19 52 0 16 54 124 79 157 12 17 46 49 74 70 28
21 59 47 69 56 9 9 30 24 46 32 40 21 82 72 82 100 0 31 -20 87 -38 109 -34
39 -92 154 -92 182 0 26 34 89 62 117 10 10 18 22 18 27 0 5 13 14 29 19 16 6
39 20 50 31 17 17 33 21 89 21 55 -1 79 -7 134 -33z"/>
</g>
</svg>
