<svg version="1.0" xmlns="http://www.w3.org/2000/svg"
 width="668px" style="transform:scale(1,1.001);" height="375.75px" viewBox="0 0 320.000000 180.000000"
 preserveAspectRatio="xMidYMid meet">
<g transform="translate(0.000000,180.000000) scale(0.100000,-0.100000)"
fill="#000000" stroke="none">
<path d="M0 905 l0 -895 560 0 560 0 0 33 c0 17 10 47 23 66 42 65 47 76 47 116 0 22
-7 67 -15 100 -8 33 -17 112 -20 175 -6 105 -4 123 20 205 49 167 48 164 35
180 -7 8 -21 15 -31 15 -11 0 -25 11 -31 26 -7 15 -28 32 -49 41 -41 16 -49
33 -49 107 0 46 3 52 53 98 97 90 117 113 150 165 17 28 45 59 60 68 56 33 65
52 64 123 -1 65 13 112 34 112 5 0 23 10 39 22 l30 21 54 -26 c65 -32 70 -43
67 -155 -1 -45 3 -88 8 -95 114 -141 117 -156 75 -342 -4 -16 -12 -37 -19 -45
-7 -8 -23 -34 -35 -58 l-24 -42 13 -178 c8 -120 20 -206 36 -267 25 -94 54
-283 62 -398 l5 -67 739 0 739 0 0 895 0 895 -1600 0 -1600 0 0 -895z"/>
<path d="M1359 682 c-69 -136 -69 -136 -69 -207 0 -76 22 -223 39 -268 6 -16 11 -48 11
-72 0 -38 -4 -46 -30 -62 -19 -11 -30 -25 -30 -40 l0 -23 170 0 170 0 0 26 c0
15 -11 72 -24 128 -14 55 -28 117 -31 136 -17 85 -107 347 -133 388 -20 31
-55 28 -73 -6z"/>
</g>
</svg>
