<svg version="1.0" xmlns="http://www.w3.org/2000/svg"
 width="668px" style="transform:scale(1,1.001);" height="375.75px" viewBox="0 0 320.000000 180.000000"
 preserveAspectRatio="xMidYMid meet">
<g transform="translate(0.000000,180.000000) scale(0.100000,-0.100000)"
fill="#000000" stroke="none">
<path d="M0 905 l0 -895 930 0 c929 0 930 0 930 20 0 12 -6 31 -14 43 -18 28 -22 62
-12 107 16 76 90 267 116 300 38 49 88 150 104 213 11 40 12 74 6 130 -5 42
-10 100 -11 127 -3 62 -14 70 -100 70 -53 0 -66 4 -88 25 -14 13 -45 42 -68
64 -56 51 -56 79 -4 120 46 36 89 40 116 11 19 -21 69 -27 81 -9 3 6 -10 28
-31 49 -29 29 -38 49 -42 83 -6 49 19 116 46 123 9 3 39 17 67 31 40 20 60 25
90 20 49 -8 100 -61 108 -111 3 -20 9 -52 12 -72 3 -20 16 -46 29 -58 81 -72
129 -125 150 -165 30 -61 55 -190 62 -331 5 -110 5 -118 -20 -167 -15 -28 -31
-73 -37 -99 -6 -26 -35 -102 -65 -170 -66 -149 -74 -179 -67 -277 l5 -77 453
0 454 0 0 895 0 895 -1600 0 -1600 0 0 -895z"/>
<path d="M2055 170 c-9 -17 -15 -55 -15 -95 l0 -65 40 0 c44 0 48 8 30 64 -5 17 -12 52
-15 79 -7 54 -18 59 -40 17z"/>
</g>
</svg>
