<svg version="1.0" xmlns="http://www.w3.org/2000/svg"
 width="668px" style="transform:scale(1,1.001);" height="375.75px" viewBox="0 0 320.000000 180.000000"
 preserveAspectRatio="xMidYMid meet">
<g transform="translate(0.000000,180.000000) scale(0.100000,-0.100000)"
fill="#000000" stroke="none">
<path d="M0 905 l0 -895 640 0 640 0 0 48 c0 38 6 57 30 88 36 48 37 61 5 76 -14 6 -25
14 -25 18 0 4 -13 10 -29 13 -26 6 -30 11 -41 73 -19 102 -7 297 25 403 14 47
25 98 25 115 0 18 13 50 30 75 17 25 38 70 47 100 19 66 45 105 90 131 36 21
44 36 68 123 15 51 21 59 53 73 34 14 42 14 88 0 43 -14 52 -21 60 -48 6 -20
6 -49 1 -73 -21 -100 -21 -102 12 -142 17 -20 40 -67 52 -103 23 -68 67 -137
131 -202 21 -21 42 -47 48 -57 17 -33 12 -94 -13 -130 -12 -19 -29 -47 -37
-61 -23 -42 -76 -82 -98 -76 -20 7 -42 46 -42 75 0 9 -10 28 -21 40 -19 20
-21 31 -16 79 6 59 -18 151 -47 181 -13 12 -18 10 -44 -19 -16 -17 -32 -48
-36 -68 -3 -21 -13 -71 -22 -112 -12 -57 -17 -141 -18 -348 l-3 -272 824 0
823 0 0 895 0 895 -1600 0 -1600 0 0 -895z"/>
<path d="M1415 94 c-11 -9 -32 -20 -47 -26 -20 -7 -28 -17 -28 -34 0 -23 3 -24 65 -24
59 0 65 2 65 20 0 18 -26 81 -33 80 -1 0 -11 -8 -22 -16z"/>
</g>
</svg>
