<svg version="1.0" xmlns="http://www.w3.org/2000/svg"
 width="668px" style="transform:scale(1,1.001);" height="375.75px" viewBox="0 0 320.000000 180.000000"
 preserveAspectRatio="xMidYMid meet">
<g transform="translate(0.000000,180.000000) scale(0.100000,-0.100000)"
fill="#000000" stroke="none">
<path d="M0 905 l0 -895 580 0 579 0 -6 99 c-6 96 -5 101 22 148 16 26 38 57 49 69 12
11 28 31 36 44 8 13 24 33 36 44 42 42 48 67 60 266 9 160 16 209 37 275 14
44 31 112 37 150 7 39 18 83 26 99 16 33 19 102 5 110 -16 10 -59 102 -62 132
-5 68 1 93 35 130 31 34 37 36 99 38 63 1 67 0 103 -37 52 -52 65 -95 51 -163
-10 -46 -9 -57 9 -89 10 -20 26 -41 35 -46 20 -10 59 -84 90 -165 21 -56 22
-73 20 -324 -1 -146 -7 -283 -12 -305 -6 -22 -27 -64 -47 -94 -64 -99 -104
-206 -110 -298 l-5 -83 767 0 766 0 0 895 0 895 -1600 0 -1600 0 0 -895z"/>
<path d="M1406 186 c-48 -15 -75 -61 -76 -128 l0 -48 85 0 c61 0 85 3 85 13 0 23 -27
154 -34 166 -8 13 -9 13 -60 -3z"/>
</g>
</svg>
