<svg version="1.0" xmlns="http://www.w3.org/2000/svg"
 width="668px" style="transform:scale(1,1.001);" height="375.75px" viewBox="0 0 320.000000 180.000000"
 preserveAspectRatio="xMidYMid meet">
<g transform="translate(0.000000,180.000000) scale(0.100000,-0.100000)"
fill="#000000" stroke="none">
<path d="M0 905 l0 -895 1600 0 1600 0 0 895 0 895 -1600 0 -1600 0 0 -895z m1827 735
c84 -18 101 -28 186 -110 87 -84 97 -139 46 -245 -17 -35 -37 -69 -44 -75 -8
-6 -16 -24 -20 -39 -3 -16 -17 -43 -31 -62 -19 -27 -24 -45 -24 -95 0 -56 3
-66 33 -99 17 -20 49 -44 70 -52 20 -8 37 -19 37 -24 0 -5 12 -15 28 -22 86
-38 148 -95 215 -197 20 -30 44 -62 53 -71 8 -10 22 -43 30 -75 28 -108 28
-117 -1 -144 l-27 -25 -666 2 -667 3 -26 31 -26 30 18 71 c11 40 19 81 19 92
0 12 7 32 15 46 8 14 23 43 34 65 20 41 86 115 103 115 5 0 24 11 42 25 18 14
36 25 41 25 4 0 20 11 37 25 16 14 37 25 47 25 9 0 27 8 41 18 13 9 42 26 64
37 31 16 43 30 57 70 27 71 24 90 -26 190 -25 50 -45 98 -45 108 0 10 -9 31
-21 46 -26 35 -35 107 -17 140 21 39 167 153 227 177 59 24 59 24 198 -6z"/>
</g>
</svg>
