<svg version="1.0" xmlns="http://www.w3.org/2000/svg"
 width="668px" style="transform:scale(1,1.001);" height="375.75px" viewBox="0 0 320.000000 180.000000"
 preserveAspectRatio="xMidYMid meet">
<g transform="translate(0.000000,180.000000) scale(0.100000,-0.100000)"
fill="#000000" stroke="none">
<path d="M0 905 l0 -895 551 0 551 0 -6 32 c-14 70 -27 702 -17 782 18 130 15 161 -17
197 -22 24 -45 36 -98 49 -50 12 -72 23 -79 38 -5 11 -19 25 -31 30 -23 11
-57 69 -73 127 -8 30 -7 44 6 69 l16 31 16 -25 c9 -14 36 -47 62 -74 40 -43
48 -47 66 -38 23 13 43 60 43 103 0 20 13 40 49 74 27 25 57 52 67 60 18 13
17 16 -15 83 -40 82 -38 115 9 174 17 20 30 46 30 57 0 21 -1 21 -565 21
l-565 0 0 -895z"/>
<path d="M1280 1778 c0 -13 10 -39 22 -58 15 -24 23 -58 27 -110 l6 -75 41 -20 c45 -22
105 -63 116 -79 4 -6 17 -42 29 -81 17 -53 37 -88 84 -145 76 -93 86 -111 87
-162 0 -28 -6 -46 -21 -62 l-22 -21 -30 33 c-16 18 -29 38 -29 46 0 19 -78 38
-102 25 -15 -8 -18 -22 -17 -97 0 -48 4 -109 10 -137 8 -43 27 -553 29 -757
l0 -68 845 0 845 0 0 895 0 895 -960 0 -960 0 0 -22z"/>
<path d="M1291 616 c-7 -8 -17 -48 -22 -88 -5 -40 -14 -100 -20 -133 -6 -33 -15 -114
-19 -180 -5 -66 -12 -139 -15 -162 l-8 -43 103 0 103 0 -7 48 c-4 26 -11 76
-16 112 -5 36 -14 81 -20 100 -5 19 -10 64 -10 100 0 58 -37 240 -52 255 -3 3
-11 -1 -17 -9z"/>
</g>
</svg>
