<svg version="1.0" xmlns="http://www.w3.org/2000/svg"
 width="668px" style="transform:scale(1,1.001);" height="375.75px" viewBox="0 0 320.000000 180.000000"
 preserveAspectRatio="xMidYMid meet">
<g transform="translate(0.000000,180.000000) scale(0.100000,-0.100000)"
fill="#000000" stroke="none">
<path d="M0 905 l0 -895 279 0 278 0 5 38 c9 61 107 198 235 328 38 38 84 89 103 114
19 25 40 52 47 60 74 83 96 109 111 132 9 16 20 28 24 28 12 0 49 91 59 147 6
29 19 72 29 96 23 52 34 117 22 134 -4 7 -37 16 -72 20 -83 8 -100 25 -100 99
0 42 6 66 26 100 49 84 181 180 236 172 21 -3 23 -8 23 -55 -1 -45 2 -53 23
-62 27 -13 72 -4 72 13 0 6 -9 28 -20 49 -33 62 -23 117 33 175 29 30 35 32
102 32 68 0 72 -1 103 -35 48 -50 54 -83 41 -200 -14 -114 -7 -138 55 -211 61
-72 70 -133 42 -308 -15 -98 -43 -190 -68 -223 -5 -6 -42 -27 -83 -46 -56 -27
-75 -41 -79 -59 -4 -24 -17 -89 -43 -217 -8 -41 -21 -87 -29 -102 -8 -16 -14
-41 -14 -57 0 -16 -11 -51 -25 -78 -47 -93 -144 -84 880 -84 l905 0 0 895 0
895 -1600 0 -1600 0 0 -895z"/>
<path d="M1150 355 c-7 -8 -17 -15 -23 -15 -5 0 -33 -21 -62 -47 -55 -51 -62 -57 -140
-116 -102 -78 -145 -120 -145 -144 l0 -23 215 0 216 0 -7 62 c-4 45 -1 83 11
131 18 71 15 102 -12 143 -18 28 -35 30 -53 9z"/>
</g>
</svg>
