<svg version="1.0" xmlns="http://www.w3.org/2000/svg"
 width="668px" style="transform:scale(1,1.001);" height="375.75px" viewBox="0 0 320.000000 180.000000"
 preserveAspectRatio="xMidYMid meet">
<g transform="translate(0.000000,180.000000) scale(0.100000,-0.100000)"
fill="#000000" stroke="none">
<path d="M0 905 l0 -895 1600 0 1600 0 0 895 0 895 -1600 0 -1600 0 0 -895z m1527 683
c16 -17 23 -43 28 -101 l7 -78 60 -52 c99 -86 155 -187 146 -262 -3 -29 -8
-33 -68 -60 -19 -8 -42 -25 -49 -37 -22 -35 -26 -171 -7 -262 9 -43 16 -91 16
-107 0 -16 4 -37 9 -47 5 -9 18 -37 29 -62 11 -25 32 -71 46 -102 14 -31 26
-63 26 -70 0 -7 16 -55 36 -107 29 -78 34 -101 27 -130 -16 -68 -77 -40 -97
44 -11 45 -85 196 -115 232 -58 72 -73 95 -102 160 -33 72 -55 103 -73 103 -6
-1 -23 -17 -38 -36 -33 -44 -45 -123 -26 -175 7 -20 31 -88 53 -153 l39 -116
-18 -34 c-33 -62 -145 -97 -163 -50 -3 9 0 46 6 82 12 63 11 72 -14 147 -71
215 -71 284 1 550 28 103 13 284 -24 301 -9 4 -50 10 -91 13 -99 8 -115 27
-119 146 -4 93 6 125 41 125 30 0 49 -16 81 -67 25 -41 29 -43 74 -43 43 0 52
4 84 39 34 37 35 42 27 83 -12 64 -11 80 11 116 19 30 23 32 78 32 48 0 62 -4
79 -22z"/>
</g>
</svg>
