<svg version="1.0" xmlns="http://www.w3.org/2000/svg"
 width="668px" style="transform:scale(1,1.001);" height="375.75px" viewBox="0 0 320.000000 180.000000"
 preserveAspectRatio="xMidYMid meet">
<g transform="translate(0.000000,180.000000) scale(0.100000,-0.100000)"
fill="#000000" stroke="none">
<path d="M0 905 l0 -895 560 0 560 0 0 378 c1 251 5 410 14 476 11 85 11 107 -3 166
-18 80 -34 91 -94 60 -44 -23 -74 -25 -96 -6 -9 7 -37 21 -64 31 -61 23 -87
63 -87 133 0 40 4 53 19 62 16 8 24 4 45 -23 23 -29 31 -32 76 -32 47 0 54 3
80 35 16 19 30 40 30 45 1 15 82 101 108 115 22 11 23 16 17 58 -4 26 -8 79
-8 118 -3 102 10 114 118 114 54 0 86 -4 93 -12 28 -35 32 -133 8 -189 -8 -18
58 -99 81 -99 57 0 117 -215 94 -335 -6 -27 -15 -74 -21 -104 -9 -44 -8 -84 5
-200 21 -181 21 -418 1 -620 -9 -85 -16 -158 -16 -162 0 -5 378 -9 840 -9
l840 0 0 895 0 895 -1600 0 -1600 0 0 -895z"/>
<path d="M1311 602 c-13 -24 -47 -212 -67 -367 -8 -66 -19 -136 -24 -155 -20 -71 -22
-70 95 -70 l105 0 -6 92 c-5 94 -15 194 -34 349 -16 135 -44 197 -69 151z"/>
</g>
</svg>
