<svg version="1.0" xmlns="http://www.w3.org/2000/svg"
 width="668px" style="transform:scale(1,1.001);" height="375.75px" viewBox="0 0 320.000000 180.000000"
 preserveAspectRatio="xMidYMid meet">
<g transform="translate(0.000000,180.000000) scale(0.100000,-0.100000)"
fill="#000000" stroke="none">
<path d="M0 905 l0 -895 545 0 545 0 0 73 c1 39 5 119 11 177 5 58 16 182 25 275 9 94
18 192 21 218 6 56 -2 97 -20 97 -6 1 -23 10 -37 22 -23 19 -25 26 -23 101 2
70 17 139 43 202 4 11 20 58 34 105 29 94 58 150 79 150 8 0 22 9 32 20 9 10
33 24 51 30 39 13 42 31 19 87 -23 55 -19 109 10 138 20 21 34 25 80 25 104 0
141 -42 133 -147 -3 -32 -7 -65 -9 -73 -3 -10 11 -19 42 -30 97 -32 179 -166
179 -291 0 -53 -4 -66 -30 -100 -25 -30 -40 -39 -74 -44 -30 -5 -53 -16 -72
-36 l-27 -29 17 -107 c10 -60 21 -130 26 -158 4 -27 24 -117 44 -200 20 -82
41 -168 46 -190 24 -104 33 -194 21 -239 -6 -25 -11 -52 -11 -60 0 -14 78 -16
750 -16 l750 0 0 895 0 895 -1600 0 -1600 0 0 -895z"/>
<path d="M1373 692 c-40 -26 -150 -357 -173 -522 -5 -30 -11 -79 -15 -108 l-8 -52 223
0 222 0 -6 33 c-4 17 -10 50 -12 72 -5 35 -18 84 -76 290 -6 22 -30 81 -53
130 -23 50 -50 107 -58 128 -17 38 -23 42 -44 29z"/>
</g>
</svg>
