<svg version="1.0" xmlns="http://www.w3.org/2000/svg"
 width="668px" style="transform:scale(1,1.001);" height="375.75px" viewBox="0 0 320.000000 180.000000"
 preserveAspectRatio="xMidYMid meet">
<g transform="translate(0.000000,180.000000) scale(0.100000,-0.100000)"
fill="#000000" stroke="none">
<path d="M0 905 l0 -895 1600 0 1600 0 0 895 0 895 -1600 0 -1600 0 0 -895z m1798 816
c17 -5 39 -17 48 -25 8 -9 24 -16 35 -16 26 0 96 -65 121 -113 13 -26 18 -51
15 -71 -7 -41 -45 -149 -56 -156 -16 -10 -41 -69 -41 -97 0 -29 23 -72 48 -86
7 -5 54 -43 104 -85 118 -99 163 -156 171 -217 4 -26 13 -66 21 -89 7 -22 17
-86 20 -141 4 -55 14 -126 23 -157 19 -69 13 -133 -15 -160 -18 -19 -34 -20
-262 -19 -134 1 -246 3 -249 5 -3 2 -134 7 -291 10 -329 8 -344 9 -365 39 -19
27 -19 92 -1 144 8 22 17 71 21 109 4 38 15 87 25 109 10 22 20 56 24 76 4 21
13 42 21 49 8 7 15 20 15 30 0 9 11 34 25 54 14 20 25 40 25 45 0 10 96 91
108 91 5 0 15 7 22 15 7 8 48 38 91 67 118 80 131 116 71 208 -16 25 -40 78
-52 118 -19 64 -20 77 -9 105 15 36 86 117 103 117 6 1 25 12 41 25 32 27 84
32 143 16z"/>
</g>
</svg>
