<svg version="1.0" xmlns="http://www.w3.org/2000/svg"
 width="668px" style="transform:scale(1,1.001);" height="375.75px" viewBox="0 0 320.000000 180.000000"
 preserveAspectRatio="xMidYMid meet">
<g transform="translate(0.000000,180.000000) scale(0.100000,-0.100000)"
fill="#000000" stroke="none">
<path d="M0 905 l0 -895 428 1 c235 0 421 3 415 6 -15 6 11 63 29 63 6 0 41 20 77 44
65 43 119 95 155 152 24 36 106 135 125 150 8 7 17 41 21 85 6 62 15 92 59
179 29 58 71 123 92 146 22 22 57 70 77 105 50 86 73 94 235 79 112 -11 121
-13 148 -41 35 -36 36 -62 5 -137 -13 -31 -27 -68 -31 -82 -12 -40 -65 -119
-85 -125 -27 -9 -53 -71 -47 -114 4 -33 51 -101 69 -101 16 0 99 -63 149 -114
38 -37 58 -67 66 -97 9 -33 23 -52 53 -73 22 -17 40 -36 40 -43 0 -14 -43 -28
-62 -20 -26 9 -58 -12 -58 -38 l0 -25 620 0 620 0 0 895 0 895 -1600 0 -1600
0 0 -895z"/>
<path d="M1435 231 c-55 -7 -79 -20 -175 -96 -36 -28 -77 -56 -92 -63 -20 -8 -28 -19
-28 -37 l0 -25 331 0 331 0 -4 64 c-5 79 -22 101 -84 111 -24 3 -44 10 -44 14
0 7 -82 25 -157 35 -16 2 -50 1 -78 -3z"/>
</g>
</svg>
