<svg version="1.0" xmlns="http://www.w3.org/2000/svg"
 width="668px" style="transform:scale(1,1.001);" height="375.75px" viewBox="0 0 320.000000 180.000000"
 preserveAspectRatio="xMidYMid meet">
<g transform="translate(0.000000,180.000000) scale(0.100000,-0.100000)"
fill="#000000" stroke="none">
<path d="M0 905 l0 -895 1600 0 1600 0 0 895 0 895 -1600 0 -1600 0 0 -895z m1605 761
c11 -8 39 -19 62 -26 24 -7 58 -29 80 -52 38 -39 38 -40 37 -116 -1 -57 -8
-94 -28 -145 -35 -92 -34 -125 7 -164 17 -18 45 -35 60 -39 16 -3 31 -12 33
-19 3 -7 23 -20 45 -30 21 -10 39 -22 39 -26 0 -5 11 -14 24 -21 39 -20 116
-126 116 -159 0 -15 6 -48 14 -71 8 -24 20 -79 26 -123 5 -44 17 -102 25 -129
8 -27 15 -87 15 -132 0 -76 -2 -85 -22 -98 -19 -11 -106 -15 -458 -18 -239 -3
-483 -3 -542 0 -137 6 -148 14 -148 110 0 79 22 242 40 298 57 179 87 219 276
374 70 57 97 101 87 140 -3 13 -26 59 -50 102 -50 92 -69 153 -59 193 9 34 91
119 126 130 13 4 30 14 38 21 18 19 131 19 157 0z"/>
</g>
</svg>
