<svg version="1.0" xmlns="http://www.w3.org/2000/svg"
 width="668px" style="transform:scale(1,1.001);" height="375.75px" viewBox="0 0 320.000000 180.000000"
 preserveAspectRatio="xMidYMid meet">
<g transform="translate(0.000000,180.000000) scale(0.100000,-0.100000)"
fill="#000000" stroke="none">
<path d="M0 905 l0 -895 629 0 628 0 7 53 c4 28 10 68 13 88 4 29 -4 52 -36 117 -38 75
-41 88 -41 160 0 80 19 169 66 310 22 64 25 90 22 155 -3 45 -10 82 -17 86 -6
4 -66 7 -133 6 -88 -1 -130 2 -150 13 -28 14 -29 16 -26 85 3 84 14 91 79 58
22 -12 48 -21 57 -21 32 0 150 64 173 94 21 26 21 32 11 72 -13 50 -15 104 -4
120 4 5 24 20 45 33 31 19 46 22 82 16 80 -12 124 -69 104 -137 -11 -41 7 -78
39 -78 36 0 135 -30 147 -44 6 -7 24 -20 41 -29 18 -9 41 -32 52 -51 22 -38
20 -58 -13 -113 -22 -36 -58 -44 -95 -21 -15 10 -22 10 -32 0 -26 -26 -41
-508 -24 -752 8 -120 8 -126 -13 -144 -17 -16 -25 -17 -46 -8 -25 12 -34 36
-54 148 -6 33 -22 88 -35 121 -13 34 -27 81 -31 105 -13 79 -42 90 -70 28 -28
-63 -23 -150 14 -232 41 -91 47 -129 27 -169 -9 -18 -16 -40 -16 -51 0 -17 32
-18 900 -18 l900 0 0 895 0 895 -1600 0 -1600 0 0 -895z"/>
</g>
</svg>
