<svg version="1.0" xmlns="http://www.w3.org/2000/svg"
 width="668px" style="transform:scale(1,1.001);" height="375.75px" viewBox="0 0 320.000000 180.000000"
 preserveAspectRatio="xMidYMid meet">
<g transform="translate(0.000000,180.000000) scale(0.100000,-0.100000)"
fill="#000000" stroke="none">
<path d="M0 905 l0 -895 534 0 533 0 6 83 c3 45 12 111 20 147 8 36 18 81 21 101 7 41
71 129 94 129 8 0 30 14 49 30 18 17 44 30 56 30 41 0 205 174 214 227 5 28
-1 40 -41 87 -59 70 -64 101 -41 288 19 155 15 222 -14 260 -48 64 -52 141 -9
204 23 34 23 34 103 34 l80 0 40 -41 40 -42 -2 -91 -2 -92 54 -58 c85 -91 108
-151 157 -421 16 -90 16 -275 -1 -342 -7 -28 -23 -66 -37 -84 -54 -74 -124
-315 -124 -431 0 -17 42 -18 735 -18 l735 0 0 895 0 895 -1600 0 -1600 0 0
-895z"/>
<path d="M1445 286 c-20 -20 -40 -36 -45 -36 -18 0 -120 -127 -120 -149 0 -4 -9 -16
-20 -26 -11 -10 -20 -29 -20 -42 l0 -23 170 0 c164 0 170 1 170 20 0 12 -8 33
-17 47 -14 21 -18 51 -20 133 l-1 105 -31 3 c-24 3 -38 -4 -66 -32z"/>
</g>
</svg>
