<svg version="1.0" xmlns="http://www.w3.org/2000/svg"
 width="668px" style="transform:scale(1,1.001);" height="375.75px" viewBox="0 0 320.000000 180.000000"
 preserveAspectRatio="xMidYMid meet">
<g transform="translate(0.000000,180.000000) scale(0.100000,-0.100000)"
fill="#000000" stroke="none">
<path d="M0 905 l0 -895 545 0 c545 0 545 0 545 21 0 11 -6 26 -13 33 -19 19 -20 99 -4
159 17 60 31 129 29 140 -1 4 2 7 8 7 5 0 10 14 10 31 0 17 5 40 12 52 6 12
17 47 24 77 7 30 22 80 34 110 26 67 37 110 55 216 15 96 44 156 84 180 56 33
55 83 -2 172 -34 53 -42 74 -51 132 -9 64 11 101 75 134 66 34 115 34 178 -1
58 -33 74 -66 76 -163 2 -76 12 -120 29 -120 6 0 23 -6 37 -14 15 -7 49 -21
75 -30 86 -28 131 -88 154 -201 27 -134 29 -184 25 -514 -4 -287 -8 -347 -20
-361 -8 -9 -15 -26 -15 -38 l0 -22 655 0 655 0 0 895 0 895 -1600 0 -1600 0 0
-895z"/>
<path d="M1377 563 c-9 -11 -17 -25 -17 -32 0 -7 -16 -45 -36 -84 -52 -107 -90 -204
-104 -272 -7 -33 -18 -64 -25 -70 -6 -5 -14 -18 -18 -27 -3 -10 -16 -18 -27
-18 -15 0 -20 -7 -20 -25 l0 -25 155 0 155 0 0 24 c0 13 -7 41 -16 62 -14 32
-16 62 -10 174 3 74 9 164 12 200 5 55 3 69 -13 88 -18 23 -19 23 -36 5z"/>
</g>
</svg>
