<svg version="1.0" xmlns="http://www.w3.org/2000/svg"
 width="668px" style="transform:scale(1,1.001);" height="375.75px" viewBox="0 0 320.000000 180.000000"
 preserveAspectRatio="xMidYMid meet">
<g transform="translate(0.000000,180.000000) scale(0.100000,-0.100000)"
fill="#000000" stroke="none">
<path d="M0 905 l0 -895 450 0 450 0 0 23 c0 15 -9 29 -25 37 -14 7 -37 38 -51 67 -25
49 -26 61 -22 148 6 112 9 116 125 233 91 90 133 162 133 230 1 20 7 55 15 77
8 22 22 68 30 103 19 79 57 129 110 144 51 14 90 50 121 110 22 43 24 60 24
173 0 146 7 167 74 243 l48 52 77 0 78 0 60 -57 c73 -70 97 -104 114 -163 25
-90 1 -169 -59 -198 -27 -13 -38 -25 -42 -47 -5 -26 0 -36 44 -77 27 -27 53
-48 57 -48 12 0 59 -89 84 -160 23 -62 24 -79 27 -380 l3 -316 -48 -76 c-26
-41 -47 -85 -47 -97 l0 -21 685 0 685 0 0 895 0 895 -1600 0 -1600 0 0 -895z"/>
</g>
</svg>
