<svg version="1.0" xmlns="http://www.w3.org/2000/svg"
 width="668px" style="transform:scale(1,1.001);" height="375.75px" viewBox="0 0 320.000000 180.000000"
 preserveAspectRatio="xMidYMid meet">
<g transform="translate(0.000000,180.000000) scale(0.100000,-0.100000)"
fill="#000000" stroke="none">
<path d="M0 905 l0 -895 611 0 611 0 -5 27 c-12 64 -29 117 -47 152 -13 27 -22 75 -29
167 -7 94 -16 147 -34 194 -14 36 -28 84 -32 107 -5 31 -19 55 -50 88 -24 25
-51 45 -60 45 -47 0 -225 130 -225 164 0 7 -13 25 -30 41 -16 16 -30 36 -30
46 0 9 -9 28 -20 42 -14 18 -20 41 -20 79 -1 29 -5 73 -9 98 -10 48 5 115 25
115 6 0 38 -34 71 -76 33 -41 88 -103 122 -137 l62 -62 72 0 c62 0 83 5 145
35 85 40 81 25 56 240 l-17 140 26 51 c23 45 33 54 73 68 56 19 136 21 202 4
49 -12 142 -79 142 -103 0 -7 9 -24 21 -39 34 -43 29 -104 -14 -168 -20 -30
-43 -60 -51 -67 -24 -20 -19 -59 10 -86 15 -14 30 -25 35 -25 4 0 20 -11 36
-24 15 -13 38 -26 50 -30 74 -23 214 -132 228 -177 7 -24 15 -33 126 -146 35
-35 76 -91 95 -129 33 -62 35 -75 44 -210 8 -126 12 -147 32 -175 21 -28 23
-41 22 -140 l-1 -109 479 0 478 0 0 895 0 895 -1600 0 -1600 0 0 -895z"/>
<path d="M1886 532 c-2 -4 0 -27 6 -52 5 -25 12 -57 15 -71 2 -14 -4 -59 -15 -100 -11
-41 -23 -125 -26 -186 l-6 -113 125 0 c124 0 125 0 125 23 0 14 -11 32 -29 44
-24 19 -30 34 -44 110 -9 49 -24 104 -33 122 -9 18 -20 65 -24 104 -12 104
-23 127 -59 127 -16 0 -32 -3 -35 -8z"/>
</g>
</svg>
