<svg version="1.0" xmlns="http://www.w3.org/2000/svg"
 width="668px" style="transform:scale(1,1.001);" height="375.75px" viewBox="0 0 320.000000 180.000000"
 preserveAspectRatio="xMidYMid meet">
<g transform="translate(0.000000,180.000000) scale(0.100000,-0.100000)"
fill="#000000" stroke="none">
<path d="M0 905 l0 -895 1600 0 1600 0 0 895 0 895 -1600 0 -1600 0 0 -895z m1835 727
c35 -14 72 -40 90 -60 28 -34 30 -40 29 -121 0 -68 -5 -94 -22 -126 -12 -22
-22 -52 -22 -66 0 -50 88 -124 231 -194 78 -38 101 -55 137 -101 58 -73 92
-173 99 -290 4 -59 2 -94 -5 -98 -7 -4 -7 -14 2 -31 18 -34 14 -173 -5 -186
-7 -5 -54 -9 -104 -7 -84 2 -94 0 -155 -31 l-65 -33 -170 6 c-574 22 -636 31
-648 92 -3 15 0 39 5 53 18 46 37 135 38 174 0 24 -13 66 -35 111 -26 54 -35
86 -35 124 l0 52 98 97 c87 88 105 101 172 127 99 37 120 51 120 80 0 29 -27
96 -39 96 -11 0 -51 64 -67 106 -8 21 -9 47 -2 86 8 47 16 61 46 85 61 48 114
75 162 82 55 9 69 6 145 -27z"/>
<path d="M2263 573 c-24 -9 -13 -23 16 -23 34 0 49 15 25 24 -18 7 -23 7 -41 -1z"/>
</g>
</svg>
