<svg version="1.0" xmlns="http://www.w3.org/2000/svg"
 width="668px" style="transform:scale(1,1.001);" height="375.75px" viewBox="0 0 320.000000 180.000000"
 preserveAspectRatio="xMidYMid meet">
<g transform="translate(0.000000,180.000000) scale(0.100000,-0.100000)"
fill="#000000" stroke="none">
<path d="M0 905 l0 -895 1600 0 1600 0 0 895 0 895 -1600 0 -1600 0 0 -895z m1827 736
c32 -11 69 -22 83 -25 40 -8 117 -78 176 -157 38 -52 34 -128 -12 -217 -19
-39 -42 -76 -50 -82 -8 -7 -14 -18 -14 -24 0 -7 -11 -27 -25 -46 -38 -51 -34
-105 10 -163 21 -28 48 -50 69 -57 18 -6 41 -19 51 -30 9 -10 29 -22 45 -25
37 -8 153 -126 163 -167 5 -17 17 -42 27 -55 10 -13 22 -38 26 -56 3 -18 15
-49 25 -69 19 -38 25 -113 11 -136 -15 -23 -72 -31 -245 -32 -95 0 -266 -5
-380 -9 -121 -5 -226 -4 -250 1 -23 5 -149 12 -280 15 -277 7 -273 5 -264 90
3 29 14 65 25 80 10 16 22 43 25 61 10 51 127 190 190 225 21 12 60 34 86 49
64 37 108 58 124 58 15 0 62 48 95 97 27 39 28 92 3 141 -37 72 -71 153 -71
167 0 8 -10 43 -21 77 -19 54 -20 66 -9 97 17 48 45 81 104 126 67 50 143 85
188 85 21 0 64 -9 95 -19z"/>
</g>
</svg>
