<svg version="1.0" xmlns="http://www.w3.org/2000/svg"
 width="668px" style="transform:scale(1,1.001);" height="375.75px" viewBox="0 0 320.000000 180.000000"
 preserveAspectRatio="xMidYMid meet">
<g transform="translate(0.000000,180.000000) scale(0.100000,-0.100000)"
fill="#000000" stroke="none">
<path d="M0 905 l0 -895 690 0 c380 0 690 3 690 8 0 4 -7 65 -16 137 -8 72 -16 180 -18
240 -2 76 -8 122 -20 149 -10 23 -18 77 -21 128 -2 49 -9 97 -15 108 -23 44
-57 15 -90 -75 -24 -66 -76 -125 -110 -125 -12 0 -40 14 -62 32 l-40 31 4 96
c3 83 6 100 27 128 18 24 35 34 67 39 29 4 51 15 71 37 66 71 72 112 22 147
-42 31 -41 83 4 135 30 35 37 38 89 39 66 0 80 -9 115 -78 32 -65 51 -86 77
-86 12 0 32 -7 46 -15 14 -8 44 -23 66 -34 55 -25 170 -147 200 -210 13 -27
28 -53 33 -56 5 -3 12 -19 16 -36 4 -17 18 -49 31 -72 33 -58 31 -89 -7 -121
-36 -31 -38 -31 -65 -8 -15 13 -23 35 -29 77 -4 33 -13 68 -21 79 -8 11 -14
28 -14 38 0 20 -37 48 -63 48 -19 0 -19 -8 -13 -192 3 -106 9 -218 12 -249 5
-49 3 -59 -19 -84 -17 -20 -36 -30 -68 -34 l-44 -6 0 -67 c0 -36 -2 -68 -5
-70 -3 -2 -17 -9 -32 -16 -20 -8 -28 -19 -28 -37 l0 -25 870 0 870 0 0 895 0
895 -1600 0 -1600 0 0 -895z"/>
</g>
</svg>
