<svg version="1.0" xmlns="http://www.w3.org/2000/svg"
 width="668px" style="transform:scale(1,1.001);" height="375.75px" viewBox="0 0 320.000000 180.000000"
 preserveAspectRatio="xMidYMid meet">
<g transform="translate(0.000000,180.000000) scale(0.100000,-0.100000)"
fill="#000000" stroke="none">
<path d="M0 905 l0 -895 920 0 920 0 0 65 c0 64 12 123 50 255 11 36 28 99 39 140 10
41 26 89 35 105 9 17 16 34 16 39 0 5 21 43 46 84 52 82 63 134 46 205 -9 33
-8 55 3 96 15 58 11 81 -13 81 -13 0 -12 3 4 15 19 14 19 14 0 15 -11 0 -27
-7 -36 -15 -23 -21 -131 -34 -172 -21 -25 8 -33 17 -33 35 0 22 -7 26 -57 36
-32 6 -61 14 -64 18 -4 3 -3 22 0 41 8 44 40 56 152 56 78 0 86 2 116 29 18
16 50 33 72 39 37 11 65 35 66 59 0 7 -11 29 -25 49 -46 68 -25 163 45 199 17
9 53 19 80 22 41 5 56 1 94 -21 49 -29 52 -34 62 -121 9 -79 40 -123 95 -131
58 -10 108 -58 165 -159 6 -11 21 -37 32 -58 15 -25 22 -55 22 -88 0 -43 -3
-51 -25 -61 -14 -6 -25 -17 -25 -25 0 -7 -14 -28 -31 -46 -63 -65 -115 -207
-122 -333 -3 -49 -12 -117 -20 -150 -20 -76 -35 -211 -41 -347 l-4 -107 394 0
394 0 0 895 0 895 -1600 0 -1600 0 0 -895z"/>
<path d="M2163 391 c-24 -26 -183 -342 -183 -364 0 -15 14 -17 150 -17 147 0 150 0 150
22 0 12 -7 29 -15 38 -18 20 -31 86 -41 205 -10 132 -23 157 -61 116z"/>
</g>
</svg>
