<svg version="1.0" xmlns="http://www.w3.org/2000/svg"
 width="668px" style="transform:scale(1,1.001);" height="375.75px" viewBox="0 0 320.000000 180.000000"
 preserveAspectRatio="xMidYMid meet">
<g transform="translate(0.000000,180.000000) scale(0.100000,-0.100000)"
fill="#000000" stroke="none">
<path d="M0 905 l0 -895 1600 0 1600 0 0 895 0 895 -1600 0 -1600 0 0 -895z m1731 773
c71 -36 91 -55 119 -113 27 -56 25 -81 -16 -203 -35 -104 -35 -107 -19 -143
15 -33 67 -79 135 -119 57 -34 139 -101 170 -140 39 -49 63 -140 80 -300 6
-58 18 -144 27 -191 18 -98 13 -132 -22 -155 -22 -15 -76 -15 -576 -8 -528 9
-551 10 -565 28 -18 25 -18 107 0 166 7 25 17 77 20 115 4 39 13 79 21 90 7
11 16 36 20 55 9 42 80 182 103 204 44 41 80 70 112 91 19 12 59 45 89 73 52
49 54 52 49 94 -3 24 -19 66 -36 93 -89 142 -100 180 -70 238 21 42 79 107 95
107 5 0 24 11 43 25 52 38 136 35 221 -7z"/>
</g>
</svg>
