<svg version="1.0" xmlns="http://www.w3.org/2000/svg"
 width="668px" style="transform:scale(1,1.001);" height="375.75px" viewBox="0 0 320.000000 180.000000"
 preserveAspectRatio="xMidYMid meet">
<g transform="translate(0.000000,180.000000) scale(0.100000,-0.100000)"
fill="#000000" stroke="none">
<path d="M0 905 l0 -895 310 0 310 0 0 23 c0 13 -5 28 -11 34 -18 18 -2 97 26 128 14
14 25 31 25 36 0 10 44 53 128 127 20 18 66 52 102 75 42 28 66 51 68 65 2 12
8 22 13 22 6 0 6 7 -1 19 -5 11 -10 30 -10 42 0 14 -25 47 -67 89 -120 120
-123 124 -123 183 0 33 7 61 18 78 20 30 90 116 115 141 9 10 17 22 17 26 0
20 128 111 170 121 25 7 62 19 83 27 84 32 234 1 327 -67 56 -42 111 -127 120
-187 12 -68 3 -190 -17 -259 -9 -29 -13 -59 -9 -68 10 -26 94 -57 180 -67 115
-12 204 -58 298 -153 81 -81 128 -137 128 -154 0 -5 13 -25 29 -43 15 -18 32
-44 36 -58 4 -14 17 -35 29 -48 17 -19 21 -34 19 -78 l-3 -54 445 0 445 0 0
895 0 895 -1600 0 -1600 0 0 -895z"/>
</g>
</svg>
