<svg version="1.0" xmlns="http://www.w3.org/2000/svg"
 width="668px" style="transform:scale(1,1.001);" height="375.75px" viewBox="0 0 320.000000 180.000000"
 preserveAspectRatio="xMidYMid meet">
<g transform="translate(0.000000,180.000000) scale(0.100000,-0.100000)"
fill="#000000" stroke="none">
<path d="M0 905 l0 -895 1600 0 1600 0 0 895 0 895 -1600 0 -1600 0 0 -895z m1663 778
c12 -12 32 -24 44 -27 12 -4 37 -26 55 -49 30 -38 33 -47 33 -112 0 -50 -6
-80 -20 -105 -13 -25 -19 -56 -19 -107 -1 -67 1 -74 29 -101 17 -16 44 -36 61
-45 17 -9 36 -23 43 -31 8 -9 22 -16 32 -16 11 0 33 -14 51 -30 17 -17 36 -30
42 -30 16 0 78 -66 104 -111 15 -25 25 -66 32 -134 6 -55 14 -115 19 -134 5
-20 12 -65 16 -101 3 -36 11 -86 17 -111 6 -25 8 -62 4 -83 -13 -66 -4 -65
-606 -59 l-534 6 -24 24 c-23 23 -24 29 -19 131 4 114 26 229 56 296 10 23 22
52 26 66 18 61 96 158 170 210 22 15 56 43 75 62 19 19 47 42 63 51 43 27 36
67 -28 167 -58 90 -95 162 -95 186 0 20 41 104 50 104 5 0 12 9 15 21 4 11 21
28 38 36 18 8 48 24 67 34 48 28 169 22 203 -8z"/>
</g>
</svg>
