<svg version="1.0" xmlns="http://www.w3.org/2000/svg"
 width="668px" style="transform:scale(1,1.001);" height="375.75px" viewBox="0 0 320.000000 180.000000"
 preserveAspectRatio="xMidYMid meet">
<g transform="translate(0.000000,180.000000) scale(0.100000,-0.100000)"
fill="#000000" stroke="none">
<path d="M0 905 l0 -895 521 0 520 0 -3 48 c-1 27 7 77 19 117 11 39 31 108 44 155 23
88 84 240 138 344 17 33 31 64 31 69 0 5 7 24 16 42 13 29 14 47 5 122 -22
179 -10 222 91 323 56 57 62 60 108 60 69 0 96 13 119 58 25 49 81 92 119 92
16 0 47 -13 70 -30 39 -28 42 -34 42 -75 0 -31 -10 -65 -30 -106 l-31 -60 22
-59 c19 -53 20 -66 10 -122 -6 -35 -29 -100 -50 -145 -46 -96 -47 -91 27 -238
55 -111 72 -187 72 -328 0 -46 3 -125 6 -175 l7 -92 663 0 664 0 0 895 0 895
-1600 0 -1600 0 0 -895z"/>
<path d="M1425 577 c-22 -18 -48 -43 -60 -57 -11 -13 -32 -37 -47 -52 -16 -16 -39 -50
-52 -77 -28 -54 -126 -339 -126 -365 0 -14 31 -16 315 -16 l315 0 -6 73 c-8
100 -53 314 -73 347 -26 43 -183 180 -206 179 -11 0 -38 -14 -60 -32z"/>
</g>
</svg>
