<svg version="1.0" xmlns="http://www.w3.org/2000/svg"
 width="668px" style="transform:scale(1,1.001);" height="375.75px" viewBox="0 0 320.000000 180.000000"
 preserveAspectRatio="xMidYMid meet">
<g transform="translate(0.000000,180.000000) scale(0.100000,-0.100000)"
fill="#000000" stroke="none">
<path d="M0 905 l0 -895 1600 0 1600 0 0 895 0 895 -1600 0 -1600 0 0 -895z m1894 720
c28 -7 72 -19 98 -26 34 -8 61 -26 105 -68 49 -47 62 -66 77 -118 18 -59 18
-65 2 -125 -10 -35 -25 -74 -34 -88 -9 -14 -25 -41 -35 -60 -10 -19 -25 -47
-33 -63 -44 -80 -23 -149 60 -195 30 -18 62 -32 69 -32 7 0 44 -15 81 -34 69
-35 127 -91 141 -136 4 -14 16 -39 27 -57 10 -17 21 -56 25 -85 3 -29 12 -65
19 -80 21 -41 18 -114 -6 -138 -11 -11 -28 -21 -37 -22 -10 0 -202 -2 -428 -4
-225 -2 -428 -4 -450 -5 -111 -4 -385 4 -417 12 -23 6 -39 17 -43 30 -12 36 7
152 31 199 13 25 24 51 24 59 0 43 108 171 166 196 17 8 36 21 44 30 7 8 38
22 69 31 78 23 145 58 171 91 19 24 21 36 17 88 -3 36 -16 80 -31 109 -14 27
-26 62 -26 77 0 15 -6 34 -13 41 -22 21 -36 52 -47 104 -9 40 -8 56 5 91 9 24
20 43 24 43 3 0 29 21 56 46 63 58 148 102 199 103 22 1 62 -6 90 -14z"/>
</g>
</svg>
