<svg version="1.0" xmlns="http://www.w3.org/2000/svg"
 width="668px" style="transform:scale(1,1.001);" height="375.75px" viewBox="0 0 320.000000 180.000000"
 preserveAspectRatio="xMidYMid meet">
<g transform="translate(0.000000,180.000000) scale(0.100000,-0.100000)"
fill="#000000" stroke="none">
<path d="M0 905 l0 -895 650 0 650 0 0 73 c0 39 7 205 16 367 l17 295 -23 60 c-17 45
-24 93 -30 195 -4 74 -11 165 -15 201 -9 81 7 158 42 200 23 27 25 35 17 82
-13 83 -11 182 5 200 17 21 175 25 188 5 4 -7 8 -55 8 -107 0 -101 2 -104 57
-116 45 -9 63 -55 61 -154 -1 -45 4 -117 13 -160 9 -49 17 -173 21 -347 l6
-271 -42 -129 c-24 -71 -47 -139 -52 -152 -15 -37 -10 -90 11 -132 11 -21 24
-41 30 -45 5 -3 10 -19 10 -36 l0 -29 780 0 780 0 0 895 0 895 -1600 0 -1600
0 0 -895z"/>
<path d="M1495 583 c-3 -21 -14 -86 -25 -144 -22 -116 -25 -159 -11 -159 11 0 17 22 41
159 22 116 25 181 10 181 -5 0 -12 -17 -15 -37z"/>
<path d="M1422 68 c-7 -7 -12 -22 -12 -35 0 -21 4 -23 60 -23 58 0 60 1 60 25 0 27 -5
30 -60 39 -22 4 -41 1 -48 -6z"/>
</g>
</svg>
