<svg version="1.0" xmlns="http://www.w3.org/2000/svg"
 width="668px" style="transform:scale(1,1.001);" height="375.75px" viewBox="0 0 320.000000 180.000000"
 preserveAspectRatio="xMidYMid meet">
<g transform="translate(0.000000,180.000000) scale(0.100000,-0.100000)"
fill="#000000" stroke="none">
<path d="M0 905 l0 -895 685 0 c555 0 685 2 685 13 0 7 -5 71 -10 143 -6 71 -12 176
-14 234 -3 75 -10 121 -25 162 -13 37 -21 81 -21 123 0 63 -19 125 -39 125 -9
0 -40 -30 -81 -81 -20 -25 -43 -40 -71 -47 -77 -19 -114 13 -125 111 -12 104
48 186 127 173 33 -5 43 -2 73 24 31 28 34 34 25 60 -6 16 -21 36 -35 45 -39
25 -33 76 15 124 45 45 78 55 131 41 40 -11 90 -66 90 -100 0 -26 30 -60 54
-60 12 0 37 -11 56 -25 19 -14 41 -25 49 -25 30 0 163 -145 189 -204 40 -92
92 -242 92 -266 0 -29 -36 -70 -62 -70 -30 0 -48 30 -49 78 -1 55 -37 160 -60
175 -9 6 -23 7 -32 4 -14 -5 -16 -28 -11 -199 4 -106 6 -210 7 -232 1 -45 -28
-76 -71 -76 -44 0 -62 -25 -55 -81 5 -45 3 -51 -26 -78 -22 -20 -31 -38 -31
-60 l0 -31 870 0 870 0 0 895 0 895 -1600 0 -1600 0 0 -895z"/>
</g>
</svg>
