<svg version="1.0" xmlns="http://www.w3.org/2000/svg"
 width="668px" style="transform:scale(1,1.001);" height="375.75px" viewBox="0 0 320.000000 180.000000"
 preserveAspectRatio="xMidYMid meet">
<g transform="translate(0.000000,180.000000) scale(0.100000,-0.100000)"
fill="#000000" stroke="none">
<path d="M0 905 l0 -895 1600 0 1600 0 0 895 0 895 -1600 0 -1600 0 0 -895z m1768 731
c36 -19 78 -65 91 -99 18 -47 12 -116 -16 -204 l-27 -84 23 -44 c14 -27 32
-46 47 -49 14 -4 46 -19 72 -35 26 -16 58 -31 72 -34 14 -4 47 -26 73 -49 49
-44 86 -112 111 -208 6 -25 23 -65 36 -90 14 -25 29 -54 33 -65 12 -27 15
-265 4 -290 -19 -43 -57 -60 -130 -58 -53 2 -78 -2 -110 -18 -38 -20 -52 -21
-167 -15 -69 3 -222 10 -341 15 -119 5 -236 15 -260 22 -24 6 -73 17 -109 23
-62 10 -65 13 -68 41 -4 33 18 55 54 55 24 0 34 17 34 59 0 15 9 36 20 46 14
13 20 31 20 61 0 23 5 55 11 71 11 28 21 87 39 233 9 63 15 79 43 108 33 35
95 72 121 72 7 0 28 13 46 30 l31 29 -42 82 c-24 45 -54 95 -67 111 -26 31
-40 105 -28 151 7 30 92 126 120 137 36 15 234 12 264 -4z"/>
</g>
</svg>
