<svg version="1.0" xmlns="http://www.w3.org/2000/svg"
 width="668px" style="transform:scale(1,1.001);" height="375.75px" viewBox="0 0 320.000000 180.000000"
 preserveAspectRatio="xMidYMid meet">
<g transform="translate(0.000000,180.000000) scale(0.100000,-0.100000)"
fill="#000000" stroke="none">
<path d="M0 905 l0 -895 555 0 555 0 0 65 c0 60 14 120 45 190 32 72 44 107 51 152 3
26 18 89 31 138 37 132 55 235 48 275 -3 19 -15 98 -26 175 -11 77 -22 156
-25 175 -2 19 -11 48 -19 64 -8 16 -15 43 -15 59 0 17 -14 69 -30 117 -26 72
-30 99 -28 161 l3 74 22 -36 c16 -25 29 -35 45 -34 19 1 24 10 33 56 9 47 13
54 31 51 27 -4 74 50 74 84 l0 24 -675 0 -675 0 0 -895z"/>
<path d="M1560 1775 c0 -13 8 -32 19 -42 28 -27 35 -105 12 -135 -29 -37 -53 -89 -48
-103 3 -7 21 -15 40 -19 19 -4 52 -20 72 -36 21 -17 46 -30 56 -30 11 0 25
-14 34 -34 9 -19 31 -51 48 -72 55 -66 85 -117 92 -156 6 -33 3 -40 -33 -77
-22 -23 -53 -46 -68 -51 -28 -10 -74 -74 -74 -103 0 -19 75 -172 103 -210 13
-18 27 -39 31 -47 3 -8 15 -28 26 -45 11 -16 33 -56 49 -88 16 -31 33 -63 39
-70 30 -37 54 -198 32 -212 -5 -3 -10 -27 -10 -53 0 -26 -5 -65 -11 -87 -6
-22 -13 -52 -16 -67 l-5 -28 626 0 626 0 0 895 0 895 -820 0 -820 0 0 -25z"/>
<path d="M1510 557 c-25 -20 -59 -73 -66 -103 -9 -35 -122 -273 -163 -342 -17 -29 -31
-64 -31 -77 l0 -25 286 0 286 0 -7 33 c-4 17 -10 84 -14 147 -9 151 -34 198
-171 335 -47 47 -88 58 -120 32z"/>
</g>
</svg>
