<svg version="1.0" xmlns="http://www.w3.org/2000/svg"
 width="668px" style="transform:scale(1,1.001);" height="375.75px" viewBox="0 0 320.000000 180.000000"
 preserveAspectRatio="xMidYMid meet">
<g transform="translate(0.000000,180.000000) scale(0.100000,-0.100000)"
fill="#000000" stroke="none">
<path d="M0 905 l0 -895 680 0 680 0 0 23 c0 13 -5 28 -10 33 -8 8 -8 19 0 38 22 58 13
112 -30 173 -22 32 -40 67 -40 78 -1 11 -7 31 -15 45 -17 30 -19 93 -4 122 6
12 15 52 20 89 5 38 15 79 23 91 21 33 36 127 25 156 -12 31 -97 135 -118 144
-21 9 -169 10 -210 2 -24 -5 -38 -18 -58 -53 -38 -67 -53 -81 -84 -81 -55 0
-99 118 -69 189 15 37 16 37 147 52 77 8 120 18 148 34 22 13 52 25 67 29 15
3 35 18 44 31 15 24 15 29 0 79 -26 81 -15 117 44 155 66 43 110 42 144 -2 21
-28 26 -45 26 -95 l0 -62 65 -30 c35 -16 79 -30 97 -30 19 0 50 -9 71 -19 20
-10 49 -22 63 -25 50 -13 189 -174 210 -244 13 -43 13 -48 -3 -60 -18 -13 -65
-8 -71 7 -1 4 -18 32 -37 62 -44 68 -97 109 -142 109 -31 0 -33 -2 -33 -35 0
-20 8 -48 18 -62 14 -23 17 -50 15 -183 -1 -112 -5 -167 -17 -200 -25 -72 -22
-89 59 -318 23 -66 24 -75 11 -101 -27 -52 -42 -57 -76 -23 -16 17 -30 41 -30
54 -1 32 -33 100 -69 145 -27 34 -40 71 -65 185 -9 38 -29 35 -49 -7 -27 -56
-21 -110 22 -215 21 -52 42 -110 46 -127 7 -35 -10 -103 -26 -103 -5 0 -9 -11
-9 -25 l0 -25 870 0 870 0 0 895 0 895 -1600 0 -1600 0 0 -895z"/>
</g>
</svg>
