<svg version="1.0" xmlns="http://www.w3.org/2000/svg"
 width="668px" style="transform:scale(1,1.001);" height="375.75px" viewBox="0 0 320.000000 180.000000"
 preserveAspectRatio="xMidYMid meet">
<g transform="translate(0.000000,180.000000) scale(0.100000,-0.100000)"
fill="#000000" stroke="none">
<path d="M0 905 l0 -895 665 0 665 0 0 24 c0 18 -10 29 -45 45 -25 12 -45 26 -45 33 0
6 -10 22 -22 36 -20 20 -23 34 -23 100 0 92 15 122 111 222 60 64 62 68 69
134 4 38 4 121 0 185 -14 220 -12 228 82 341 l55 65 -6 70 c-4 39 -13 95 -21
125 -22 83 -19 181 6 230 12 22 31 46 43 52 11 6 27 19 34 30 11 15 27 18 92
18 68 0 82 -3 107 -24 15 -13 39 -27 52 -31 36 -11 89 -74 107 -127 14 -43 14
-53 0 -101 -9 -30 -29 -71 -46 -91 -50 -64 -51 -127 -3 -176 30 -31 98 -119
138 -180 17 -25 38 -54 47 -64 29 -32 60 -141 55 -194 -7 -80 -55 -375 -77
-474 -22 -101 -54 -174 -82 -189 -10 -5 -18 -21 -18 -34 l0 -25 630 0 630 0 0
895 0 895 -1600 0 -1600 0 0 -895z"/>
</g>
</svg>
