<svg version="1.0" xmlns="http://www.w3.org/2000/svg"
 width="668px" style="transform:scale(1,1.001);" height="375.75px" viewBox="0 0 320.000000 180.000000"
 preserveAspectRatio="xMidYMid meet">
<g transform="translate(0.000000,180.000000) scale(0.100000,-0.100000)"
fill="#000000" stroke="none">
<path d="M0 905 l0 -895 691 0 691 0 -6 53 c-14 110 -25 265 -26 342 0 51 -8 103 -20
144 -11 35 -22 93 -25 128 -4 71 -12 103 -25 103 -21 0 -79 -94 -89 -143 -6
-29 -14 -72 -19 -97 -6 -30 -13 -44 -22 -42 -8 2 -25 -2 -38 -9 -48 -26 -90
33 -91 127 -1 60 0 62 49 113 50 52 100 135 100 167 0 8 16 48 35 87 19 39 35
74 35 79 0 4 -16 23 -35 42 -39 40 -44 72 -19 116 23 37 64 60 111 60 52 0 83
-28 118 -107 25 -56 31 -63 57 -63 41 0 145 -52 195 -97 24 -21 54 -47 68 -58
29 -22 75 -88 155 -220 37 -61 36 -100 -2 -128 -35 -26 -47 -17 -93 78 -43 90
-130 188 -145 165 -14 -20 -3 -315 16 -435 8 -49 14 -101 14 -114 0 -28 -60
-91 -88 -91 -37 0 -47 -25 -27 -75 23 -63 16 -79 -35 -70 -54 9 -80 -1 -80
-31 l0 -24 875 0 875 0 0 895 0 895 -1600 0 -1600 0 0 -895z"/>
</g>
</svg>
