<svg version="1.0" xmlns="http://www.w3.org/2000/svg"
 width="668px" style="transform:scale(1,1.001);" height="375.75px" viewBox="0 0 320.000000 180.000000"
 preserveAspectRatio="xMidYMid meet">
<g transform="translate(0.000000,180.000000) scale(0.100000,-0.100000)"
fill="#000000" stroke="none">
<path d="M0 905 l0 -895 635 0 635 0 0 25 c0 14 7 42 15 62 23 55 18 86 -25 170 -36 71
-40 85 -40 154 0 80 24 262 40 304 14 36 24 158 16 189 -5 21 -12 26 -37 26
-26 0 -52 -11 -162 -72 -33 -18 -47 -16 -47 8 0 9 -7 22 -15 30 -18 19 -20 88
-2 102 6 5 33 10 60 10 58 1 107 36 142 102 28 52 63 93 94 109 25 14 26 26 5
86 -22 66 -12 101 36 125 47 24 107 26 137 5 28 -20 46 -76 39 -123 -8 -47 10
-83 49 -95 42 -14 80 -48 122 -109 49 -73 73 -127 73 -168 0 -62 -35 -76 -103
-40 l-37 20 -9 -23 c-5 -13 -6 -137 -2 -282 4 -148 4 -281 -2 -309 -8 -48 -6
-110 8 -186 9 -48 -16 -71 -63 -58 -55 15 -72 55 -72 175 0 57 -5 124 -11 150
-23 100 -29 119 -43 138 -13 18 -16 18 -29 5 -19 -20 -37 -97 -37 -159 0 -28
11 -80 24 -118 35 -95 39 -169 11 -197 -8 -8 -15 -24 -15 -35 l0 -21 905 0
905 0 0 895 0 895 -1600 0 -1600 0 0 -895z"/>
</g>
</svg>
