<svg version="1.0" xmlns="http://www.w3.org/2000/svg"
 width="668px" style="transform:scale(1,1.001);" height="375.75px" viewBox="0 0 320.000000 180.000000"
 preserveAspectRatio="xMidYMid meet">
<g transform="translate(0.000000,180.000000) scale(0.100000,-0.100000)"
fill="#000000" stroke="none">
<path d="M0 905 l0 -895 925 0 925 0 0 21 c0 11 -9 32 -20 46 -31 39 -22 116 22 197 5
11 26 51 45 90 20 39 49 85 65 103 17 17 35 40 42 51 6 10 25 39 41 62 29 42
30 47 30 156 0 143 -8 155 -87 135 -102 -24 -125 -25 -157 -2 -16 12 -36 21
-45 21 -27 0 -123 40 -139 58 -13 15 -15 25 -6 55 8 32 14 37 47 42 20 3 48 8
62 11 42 10 80 7 106 -6 21 -12 29 -11 62 6 20 11 39 29 41 39 5 27 -26 81
-54 93 -29 13 -48 74 -39 123 7 36 48 99 65 99 6 0 22 9 36 20 17 14 41 20 72
20 61 0 103 -31 139 -100 35 -68 65 -100 95 -100 13 0 32 -9 43 -21 10 -12 31
-27 45 -34 40 -21 95 -112 112 -185 9 -36 18 -126 22 -201 l7 -136 -38 -119
c-20 -65 -42 -126 -49 -134 -6 -8 -21 -35 -34 -60 -12 -25 -36 -70 -52 -100
-26 -50 -29 -64 -29 -152 l0 -98 450 0 450 0 0 895 0 895 -1600 0 -1600 0 0
-895z"/>
<path d="M2056 195 c-17 -17 -31 -64 -41 -137 l-7 -48 71 0 c65 0 71 2 71 20 0 12 -6
31 -14 43 -8 12 -17 40 -20 62 -14 80 -27 93 -60 60z"/>
</g>
</svg>
