<svg version="1.0" xmlns="http://www.w3.org/2000/svg"
 width="668px" style="transform:scale(1,1.001);" height="375.75px" viewBox="0 0 320.000000 180.000000"
 preserveAspectRatio="xMidYMid meet">
<g transform="translate(0.000000,180.000000) scale(0.100000,-0.100000)"
fill="#000000" stroke="none">
<path d="M0 905 l0 -895 730 0 730 0 0 23 c0 36 -28 102 -41 99 -7 -2 -18 -10 -24 -18
-6 -9 -30 -18 -53 -21 -41 -5 -43 -4 -55 26 -6 17 -20 34 -30 37 -45 14 -62
45 -61 114 2 198 6 263 28 397 13 81 27 170 31 196 12 87 26 109 115 176 22
17 24 25 22 80 -2 50 2 68 18 92 20 28 25 29 95 29 70 0 75 -1 94 -29 24 -33
26 -71 9 -135 -11 -42 -10 -45 25 -93 19 -27 41 -71 48 -97 15 -60 5 -307 -16
-416 -8 -41 -17 -100 -21 -130 -9 -95 -11 -100 -43 -100 -32 0 -35 -11 -48
-155 l-6 -75 827 0 826 0 0 895 0 895 -1600 0 -1600 0 0 -895z"/>
<path d="M1400 370 c-16 -30 -9 -115 9 -115 19 0 32 51 24 97 -6 42 -17 48 -33 18z"/>
<path d="M1330 180 c0 -5 7 -10 15 -10 8 0 15 5 15 10 0 6 -7 10 -15 10 -8 0 -15 -4
-15 -10z"/>
</g>
</svg>
