<svg version="1.0" xmlns="http://www.w3.org/2000/svg"
 width="668px" style="transform:scale(1,1.001);" height="375.75px" viewBox="0 0 320.000000 180.000000"
 preserveAspectRatio="xMidYMid meet">
<g transform="translate(0.000000,180.000000) scale(0.100000,-0.100000)"
fill="#000000" stroke="none">
<path d="M0 905 l0 -895 540 0 540 0 0 53 c0 63 27 179 80 347 21 69 42 142 46 164 4
21 21 67 40 102 36 69 38 86 34 302 -1 129 -10 155 -90 272 -40 59 -29 132 30
187 31 29 32 32 21 65 -6 19 -22 45 -35 57 -31 29 -41 90 -22 136 17 39 47 55
107 55 35 0 39 3 39 25 l0 25 -665 0 -665 0 0 -895z"/>
<path d="M1460 1778 c0 -13 14 -41 31 -63 29 -38 30 -43 24 -111 -6 -56 -4 -78 9 -102
9 -18 18 -32 20 -32 3 0 39 -7 81 -15 43 -8 96 -12 121 -8 36 5 45 3 50 -12 4
-9 2 -20 -4 -24 -6 -3 -19 -29 -30 -56 l-19 -49 23 -86 c13 -47 24 -113 24
-146 0 -67 8 -89 58 -152 29 -36 40 -42 82 -48 58 -8 73 -22 64 -59 -6 -23
-10 -26 -33 -20 -40 10 -133 25 -158 25 -20 0 -23 -5 -23 -43 0 -23 6 -51 13
-62 8 -11 21 -44 31 -73 9 -29 33 -88 53 -130 19 -42 41 -92 48 -111 7 -20 26
-63 41 -96 41 -90 66 -184 65 -242 l-1 -53 585 0 585 0 0 895 0 895 -870 0
-870 0 0 -22z"/>
<path d="M1469 539 c-25 -27 -59 -88 -138 -246 -7 -16 -21 -37 -30 -48 -30 -35 -101
-183 -101 -209 l0 -26 360 0 360 0 0 28 c0 15 -4 32 -9 38 -5 5 -32 54 -61
109 -28 55 -64 114 -78 132 -15 17 -37 45 -49 60 -60 78 -128 160 -145 176
-32 27 -76 22 -109 -14z"/>
</g>
</svg>
