<svg version="1.0" xmlns="http://www.w3.org/2000/svg"
 width="668px" style="transform:scale(1,1.001);" height="375.75px" viewBox="0 0 320.000000 180.000000"
 preserveAspectRatio="xMidYMid meet">
<g transform="translate(0.000000,180.000000) scale(0.100000,-0.100000)"
fill="#000000" stroke="none">
<path d="M0 905 l0 -895 340 0 340 0 0 24 c0 14 -10 30 -25 40 -50 33 -55 146 -9 192
12 13 34 48 48 79 14 30 32 58 41 61 8 3 24 26 34 49 11 24 31 54 46 67 15 13
34 40 42 60 8 20 25 44 38 52 12 8 30 36 39 62 9 26 25 57 36 69 34 36 119
215 132 277 10 51 19 65 58 99 67 60 152 119 171 119 27 0 41 26 46 90 3 33 9
60 14 60 20 0 151 100 221 169 67 66 87 80 170 113 80 33 104 38 173 38 60 0
89 -5 116 -19 20 -11 52 -23 72 -26 35 -7 118 -53 167 -94 14 -11 37 -30 51
-41 17 -12 29 -34 34 -57 3 -21 18 -55 32 -75 36 -53 41 -117 14 -161 -14 -23
-21 -51 -21 -83 0 -27 -4 -75 -10 -108 -11 -69 3 -150 29 -169 10 -6 35 -39
56 -72 31 -49 39 -73 46 -135 13 -117 15 -121 93 -202 56 -57 75 -85 80 -114
4 -21 18 -51 31 -66 47 -56 47 -179 1 -227 -14 -15 -26 -37 -26 -49 l0 -22
240 0 240 0 0 895 0 895 -1600 0 -1600 0 0 -895z"/>
<path d="M1168 63 c-43 -4 -48 -7 -48 -29 0 -23 2 -24 70 -24 68 0 70 1 70 25 0 14 -4
25 -9 25 -5 0 -15 1 -23 3 -7 2 -34 2 -60 0z"/>
</g>
</svg>
