<svg version="1.0" xmlns="http://www.w3.org/2000/svg"
 width="668px" style="transform:scale(1,1.001);" height="375.75px" viewBox="0 0 320.000000 180.000000"
 preserveAspectRatio="xMidYMid meet">
<g transform="translate(0.000000,180.000000) scale(0.100000,-0.100000)"
fill="#000000" stroke="none">
<path d="M0 905 l0 -895 720 0 720 0 0 78 c0 42 5 150 12 239 13 174 3 278 -30 316 -36
40 -53 13 -78 -121 -16 -87 -16 -97 -1 -152 21 -73 21 -83 2 -148 -27 -91
-122 -168 -142 -116 -3 9 2 42 11 75 20 74 20 119 0 167 -21 49 -31 191 -22
322 3 58 4 112 2 120 -2 9 -19 24 -38 34 -19 10 -49 34 -68 53 -27 28 -33 41
-32 76 1 42 37 126 102 235 18 29 32 57 32 62 0 19 78 90 98 90 27 0 44 57 31
103 -22 78 31 157 106 157 26 0 47 -6 57 -17 9 -10 24 -24 34 -32 14 -12 16
-26 11 -85 -5 -75 10 -126 38 -126 30 0 61 -23 83 -60 20 -36 50 -139 58 -200
1 -14 5 -44 9 -67 7 -51 0 -69 -22 -51 -12 10 -18 9 -28 -6 -9 -11 -28 -19
-52 -19 -36 -2 -38 -4 -41 -37 -2 -19 4 -82 13 -139 21 -125 16 -407 -9 -538
-8 -45 -15 -111 -15 -147 l1 -66 819 0 819 0 0 895 0 895 -1600 0 -1600 0 0
-895z"/>
</g>
</svg>
