<svg version="1.0" xmlns="http://www.w3.org/2000/svg"
 width="668px" style="transform:scale(1,1.001);" height="375.75px" viewBox="0 0 320.000000 180.000000"
 preserveAspectRatio="xMidYMid meet">
<g transform="translate(0.000000,180.000000) scale(0.100000,-0.100000)"
fill="#000000" stroke="none">
<path d="M0 905 l0 -895 649 0 648 0 -1 128 c0 70 3 231 7 357 9 249 6 267 -42 291 -47
24 -53 63 -20 152 17 45 23 92 28 222 7 153 10 169 36 220 l27 54 -31 62 c-60
117 -33 186 77 200 50 6 57 5 74 -17 27 -35 38 -65 38 -109 0 -66 14 -89 61
-96 24 -4 43 -13 46 -23 3 -9 13 -24 21 -34 11 -12 18 -55 23 -145 5 -70 12
-143 17 -163 10 -39 7 -455 -3 -532 -4 -27 -27 -110 -51 -185 -25 -76 -47
-157 -50 -182 -5 -42 -3 -49 39 -102 31 -40 43 -64 40 -78 -5 -20 0 -20 781
-20 l786 0 0 895 0 895 -1600 0 -1600 0 0 -895z"/>
</g>
</svg>
