<svg version="1.0" xmlns="http://www.w3.org/2000/svg"
 width="668px" style="transform:scale(1,1.001);" height="375.75px" viewBox="0 0 320.000000 180.000000"
 preserveAspectRatio="xMidYMid meet">
<g transform="translate(0.000000,180.000000) scale(0.100000,-0.100000)"
fill="#000000" stroke="none">
<path d="M0 905 l0 -895 1600 0 1600 0 0 895 0 895 -1600 0 -1600 0 0 -895z m1866 727
c69 -24 99 -45 161 -109 94 -98 93 -138 -13 -340 -78 -150 -83 -191 -33 -266
17 -26 37 -47 44 -47 7 0 26 -11 42 -24 15 -13 44 -30 63 -39 65 -27 176 -146
195 -208 4 -13 16 -38 26 -55 24 -39 34 -108 25 -169 -13 -80 12 -78 -679 -71
-580 6 -600 6 -632 26 -18 11 -36 27 -39 36 -28 72 58 297 138 363 56 46 163
112 211 131 59 24 122 66 141 95 41 63 30 116 -71 328 -26 55 -45 110 -45 129
0 40 28 81 90 133 24 20 49 43 55 50 5 7 33 25 60 40 46 24 57 26 130 21 44
-3 103 -14 131 -24z"/>
</g>
</svg>
