<svg version="1.0" xmlns="http://www.w3.org/2000/svg"
 width="668px" style="transform:scale(1,1.001);" height="375.75px" viewBox="0 0 320.000000 180.000000"
 preserveAspectRatio="xMidYMid meet">
<g transform="translate(0.000000,180.000000) scale(0.100000,-0.100000)"
fill="#000000" stroke="none">
<path d="M0 905 l0 -895 555 0 555 0 0 23 c0 22 -17 37 -61 50 -20 7 -33 82 -24 138 7
42 16 49 135 105 19 9 47 27 62 39 15 13 61 42 103 65 41 23 78 47 82 53 4 7
9 82 10 167 2 85 4 174 4 197 1 26 -5 51 -18 70 -11 15 -30 49 -42 75 -12 26
-56 80 -96 121 -41 41 -79 86 -85 101 -18 47 -12 137 11 181 48 92 111 125
233 125 65 0 76 -3 124 -36 68 -45 82 -78 82 -187 0 -83 0 -83 38 -121 63 -63
79 -76 91 -76 6 0 30 -19 53 -41 24 -23 58 -53 76 -67 17 -13 32 -31 32 -38 0
-8 4 -14 9 -14 14 0 62 -117 93 -229 33 -117 41 -162 63 -331 7 -63 17 -128
20 -145 9 -43 -17 -96 -70 -143 -27 -23 -45 -48 -45 -61 l0 -21 605 0 605 0 0
895 0 895 -1600 0 -1600 0 0 -895z"/>
</g>
</svg>
