<svg version="1.0" xmlns="http://www.w3.org/2000/svg"
 width="668px" style="transform:scale(1,1.001);" height="375.75px" viewBox="0 0 320.000000 180.000000"
 preserveAspectRatio="xMidYMid meet">
<g transform="translate(0.000000,180.000000) scale(0.100000,-0.100000)"
fill="#000000" stroke="none">
<path d="M0 905 l0 -895 1600 0 1600 0 0 895 0 895 -1600 0 -1600 0 0 -895z m1997 717
c87 -38 116 -81 121 -183 3 -62 0 -82 -17 -115 -49 -91 -21 -156 136 -309 136
-134 156 -175 182 -390 11 -93 24 -202 27 -241 l7 -72 -36 -11 c-19 -7 -59
-12 -89 -11 -29 1 -145 -2 -258 -6 -280 -9 -504 7 -664 47 -91 23 -129 38
-156 60 -32 27 -35 34 -38 97 -3 56 0 79 23 132 39 96 67 153 80 170 7 8 16
26 20 39 22 74 145 190 251 240 23 11 45 24 48 30 4 6 27 16 52 22 33 9 49 19
59 40 22 42 19 55 -24 98 -55 55 -91 120 -91 165 0 44 37 121 77 158 15 14 46
31 68 37 22 6 47 15 55 21 28 18 103 10 167 -18z m103 -1429 c87 -22 96 -33
30 -35 -30 -1 -75 -3 -100 -4 -70 -4 -270 18 -264 28 3 5 18 8 34 6 15 -1 34
3 41 9 31 26 149 24 259 -4z"/>
</g>
</svg>
