<svg version="1.0" xmlns="http://www.w3.org/2000/svg"
 width="668px" style="transform:scale(1,1.001);" height="375.75px" viewBox="0 0 320.000000 180.000000"
 preserveAspectRatio="xMidYMid meet">
<g transform="translate(0.000000,180.000000) scale(0.100000,-0.100000)"
fill="#000000" stroke="none">
<path d="M0 905 l0 -895 1600 0 1600 0 0 895 0 895 -1600 0 -1600 0 0 -895z m1650 790
c14 -8 41 -21 60 -30 19 -8 51 -34 70 -58 34 -41 35 -43 35 -132 0 -76 -4 -96
-23 -125 -27 -43 -30 -124 -6 -158 15 -21 50 -47 129 -97 188 -117 231 -177
245 -345 5 -52 18 -141 29 -197 28 -136 28 -214 0 -239 -20 -18 -42 -19 -558
-16 -497 3 -538 4 -561 21 -23 17 -25 24 -28 119 -2 76 2 119 18 178 11 43 20
85 20 94 0 8 9 32 20 53 11 20 20 47 20 59 1 45 111 179 175 214 19 10 35 22
35 25 0 4 29 30 65 58 76 60 80 79 35 151 -79 123 -93 155 -97 215 -4 54 -1
65 29 111 26 41 45 56 98 82 73 35 148 42 190 17z"/>
</g>
</svg>
