<svg version="1.0" xmlns="http://www.w3.org/2000/svg"
 width="668px" style="transform:scale(1,1.001);" height="375.75px" viewBox="0 0 320.000000 180.000000"
 preserveAspectRatio="xMidYMid meet">
<g transform="translate(0.000000,180.000000) scale(0.100000,-0.100000)"
fill="#000000" stroke="none">
<path d="M0 905 l0 -895 1044 0 1045 0 -6 93 c-5 77 -11 102 -39 157 -18 36 -51 85 -73
109 -71 78 -99 149 -127 326 -13 88 -15 140 -10 260 4 83 11 222 15 310 7 154
9 164 47 262 33 88 43 104 69 115 17 6 44 22 61 35 17 13 35 23 41 23 5 0 18
8 27 19 11 12 37 21 76 25 55 6 60 9 60 31 l0 25 -1115 0 -1115 0 0 -895z"/>
<path d="M2290 1779 c0 -12 22 -44 50 -73 86 -87 90 -92 90 -123 0 -17 -8 -38 -20 -48
-11 -10 -20 -24 -20 -31 0 -7 -8 -15 -17 -18 -10 -3 -36 -27 -58 -52 -22 -26
-50 -58 -63 -72 -33 -37 -36 -62 -23 -175 8 -76 8 -124 0 -187 -7 -47 -13
-152 -14 -235 -3 -164 1 -186 99 -525 30 -102 35 -135 30 -177 l-6 -53 431 0
431 0 0 895 0 895 -455 0 -455 0 0 -21z"/>
</g>
</svg>
