<svg version="1.0" xmlns="http://www.w3.org/2000/svg"
 width="668px" style="transform:scale(1,1.001);" height="375.75px" viewBox="0 0 320.000000 180.000000"
 preserveAspectRatio="xMidYMid meet">
<g transform="translate(0.000000,180.000000) scale(0.100000,-0.100000)"
fill="#000000" stroke="none">
<path d="M0 905 l0 -895 683 0 684 0 1 233 c0 127 2 259 3 292 2 66 -14 195 -26 216
-11 16 -40 -72 -55 -166 -19 -118 -18 -115 -45 -115 -25 0 -29 7 -40 73 -3 20
-11 37 -17 37 -17 0 5 287 27 345 4 11 21 48 36 83 16 35 29 67 29 71 0 19 62
99 86 110 23 10 25 15 20 49 -20 113 -21 106 26 150 41 40 46 42 103 42 106 0
140 -37 116 -129 -11 -42 -10 -54 3 -79 9 -17 24 -33 34 -36 42 -14 110 -124
127 -206 13 -63 36 -125 60 -160 13 -19 29 -48 36 -65 16 -42 14 -236 -3 -246
-42 -24 -49 -36 -56 -102 -8 -62 -12 -72 -42 -95 -19 -15 -43 -32 -54 -37 -11
-6 -27 -22 -35 -36 -14 -26 -13 -29 29 -79 42 -51 43 -52 24 -71 -17 -16 -28
-18 -87 -12 -54 5 -75 12 -105 35 -61 49 -62 97 -3 164 32 36 61 121 61 178 0
38 -37 123 -64 145 -12 10 -16 9 -25 -8 -6 -11 -11 -37 -11 -58 0 -21 -7 -76
-16 -123 -31 -169 -35 -197 -41 -297 l-6 -103 872 0 871 0 0 895 0 895 -1600
0 -1600 0 0 -895z"/>
<path d="M1816 721 c-4 -6 -3 -18 2 -27 8 -14 10 -14 15 -2 7 19 -8 44 -17 29z"/>
</g>
</svg>
