<svg version="1.0" xmlns="http://www.w3.org/2000/svg"
 width="668px" style="transform:scale(1,1.001);" height="375.75px" viewBox="0 0 320.000000 180.000000"
 preserveAspectRatio="xMidYMid meet">
<g transform="translate(0.000000,180.000000) scale(0.100000,-0.100000)"
fill="#000000" stroke="none">
<path d="M0 905 l0 -895 1600 0 1600 0 0 895 0 895 -1600 0 -1600 0 0 -895z m1714 737
c50 -34 60 -68 45 -149 -10 -56 -9 -66 8 -95 14 -25 30 -36 61 -43 40 -10 54
-19 136 -85 17 -14 50 -38 73 -54 54 -36 65 -62 65 -146 -1 -61 -25 -124 -67
-176 -19 -23 -35 -45 -35 -48 0 -3 -16 -22 -35 -43 -19 -21 -35 -42 -35 -48 0
-5 -7 -23 -16 -40 -25 -47 -29 -143 -10 -222 10 -38 16 -89 14 -114 -4 -55
-25 -67 -123 -71 -58 -2 -80 2 -128 25 -54 24 -61 25 -86 12 -15 -7 -52 -17
-82 -20 -30 -4 -80 -14 -112 -22 -53 -13 -61 -12 -83 2 -20 13 -24 24 -24 62
0 42 13 73 70 163 47 74 80 144 80 169 0 52 -16 78 -57 91 -21 7 -47 20 -58
30 -11 10 -37 23 -58 28 -71 20 -167 150 -167 229 0 43 54 105 83 94 16 -6 24
-23 34 -71 15 -74 50 -115 109 -126 53 -10 65 8 73 107 5 67 12 93 34 127 15
23 31 42 35 42 4 0 26 18 50 40 53 50 54 73 1 139 -50 63 -60 102 -40 154 11
29 25 42 60 58 92 42 124 42 185 1z m-376 -1489 c-10 -2 -26 -2 -35 0 -10 3
-2 5 17 5 19 0 27 -2 18 -5z m502 -3 c0 -13 -40 -13 -60 0 -11 7 -5 10 23 10
20 0 37 -4 37 -10z"/>
</g>
</svg>
