<svg version="1.0" xmlns="http://www.w3.org/2000/svg"
 width="668px" style="transform:scale(1,1.001);" height="375.75px" viewBox="0 0 320.000000 180.000000"
 preserveAspectRatio="xMidYMid meet">
<g transform="translate(0.000000,180.000000) scale(0.100000,-0.100000)"
fill="#000000" stroke="none">
<path d="M0 905 l0 -895 670 0 670 0 0 108 c0 80 -5 122 -19 162 -24 70 -44 329 -39
517 l3 138 -40 -1 c-34 0 -48 -8 -90 -50 -48 -47 -115 -138 -115 -156 0 -20
-40 -5 -59 21 -49 68 -10 128 174 276 65 51 80 64 145 131 30 31 69 63 85 70
17 8 48 26 70 42 37 26 40 31 42 81 2 62 18 108 44 121 10 6 42 10 72 10 50 0
56 -2 85 -39 35 -44 43 -99 17 -121 -15 -13 -20 -46 -9 -74 3 -9 25 -18 52
-22 26 -4 60 -17 75 -30 16 -13 38 -24 50 -24 12 0 46 -11 75 -25 31 -14 72
-25 97 -25 23 0 56 -5 74 -11 30 -11 31 -13 31 -71 0 -54 -14 -95 -47 -137 -1
-2 -24 -7 -49 -11 -39 -6 -51 -4 -70 13 -15 13 -24 32 -24 49 0 24 -7 32 -53
52 -81 37 -98 39 -158 17 -55 -21 -90 -55 -121 -117 -13 -26 -13 -37 -2 -75 8
-24 14 -56 14 -71 0 -16 9 -54 19 -85 11 -32 22 -78 25 -102 4 -24 14 -57 23
-74 23 -46 22 -176 -2 -213 -25 -38 -25 -119 0 -162 16 -27 17 -36 7 -52 -6
-11 -12 -29 -12 -40 0 -20 5 -20 745 -20 l745 0 0 895 0 895 -1600 0 -1600 0
0 -895z"/>
<path d="M1445 589 c-4 -12 -6 -130 -4 -263 2 -132 0 -258 -5 -279 l-9 -37 97 0 c96 0
96 0 96 25 0 14 -4 25 -8 25 -5 0 -16 16 -25 36 -15 30 -16 53 -11 137 7 108
-3 185 -36 267 -10 25 -23 60 -30 78 -15 38 -54 45 -65 11z"/>
</g>
</svg>
