<svg version="1.0" xmlns="http://www.w3.org/2000/svg"
 width="668px" style="transform:scale(1,1.001);" height="375.75px" viewBox="0 0 320.000000 180.000000"
 preserveAspectRatio="xMidYMid meet">
<g transform="translate(0.000000,180.000000) scale(0.100000,-0.100000)"
fill="#000000" stroke="none">
<path d="M0 905 l0 -895 550 0 550 0 -5 98 c-3 53 -7 236 -9 407 -4 316 -9 356 -44 370
-21 8 -50 -21 -58 -58 -3 -17 -10 -38 -14 -47 -71 -149 -99 -209 -105 -230 -4
-14 -19 -36 -33 -49 -15 -13 -20 -20 -12 -15 13 7 13 5 1 -9 -7 -9 -22 -17
-32 -17 -12 0 -21 -10 -25 -25 -12 -48 -24 -24 -24 48 0 49 7 90 21 127 11 30
26 71 34 90 7 19 29 69 48 110 18 41 37 100 41 130 8 67 34 149 52 171 25 28
16 77 -22 135 -59 88 -45 164 37 207 75 39 159 -6 173 -94 8 -49 39 -68 145
-86 47 -8 88 -19 90 -25 2 -5 23 -31 47 -56 24 -26 51 -64 60 -85 15 -33 16
-45 4 -106 -7 -40 -10 -94 -7 -128 28 -266 38 -350 48 -408 10 -51 10 -91 0
-184 -7 -68 -9 -152 -5 -195 l7 -76 843 0 844 0 0 895 0 895 -1600 0 -1600 0
0 -895z"/>
<path d="M1261 561 c-18 -33 -28 -117 -56 -473 l-7 -78 95 0 95 0 -4 118 c-6 145 -19
238 -46 322 -43 132 -56 151 -77 111z"/>
</g>
</svg>
