<svg version="1.0" xmlns="http://www.w3.org/2000/svg"
 width="668px" style="transform:scale(1,1.001);" height="375.75px" viewBox="0 0 320.000000 180.000000"
 preserveAspectRatio="xMidYMid meet">
<g transform="translate(0.000000,180.000000) scale(0.100000,-0.100000)"
fill="#000000" stroke="none">
<path d="M0 905 l0 -895 515 0 c491 0 515 1 515 18 0 10 9 52 20 93 11 41 20 94 20 119
0 25 10 83 21 130 11 47 24 108 30 135 6 28 33 100 61 160 27 61 57 125 65
144 8 19 17 55 18 81 3 42 -1 53 -37 101 l-40 54 6 69 c5 55 15 85 48 145 57
104 87 139 123 146 26 5 78 27 167 72 36 18 53 16 93 -9 41 -27 48 -52 40
-132 -5 -52 -2 -71 20 -124 52 -127 55 -240 9 -308 -32 -46 -30 -88 6 -161 29
-58 62 -140 100 -253 22 -62 70 -323 77 -418 l5 -62 659 0 659 0 0 895 0 895
-1600 0 -1600 0 0 -895z"/>
<path d="M1423 637 c-22 -8 -51 -37 -91 -92 -69 -94 -94 -140 -115 -215 -8 -30 -22 -80
-31 -110 -34 -122 -46 -169 -46 -189 0 -21 2 -21 320 -21 l320 0 0 23 c0 40
-27 150 -65 267 -40 121 -52 145 -96 196 -14 18 -43 57 -63 87 -44 67 -70 77
-133 54z"/>
</g>
</svg>
