<svg version="1.0" xmlns="http://www.w3.org/2000/svg"
 width="668px" style="transform:scale(1,1.001);" height="375.75px" viewBox="0 0 320.000000 180.000000"
 preserveAspectRatio="xMidYMid meet">
<g transform="translate(0.000000,180.000000) scale(0.100000,-0.100000)"
fill="#000000" stroke="none">
<path d="M0 905 l0 -895 704 0 703 0 8 53 c3 28 6 93 6 144 -1 92 10 130 56 184 21 25
31 163 21 279 -12 128 -61 298 -124 427 -49 102 -52 123 -27 194 16 46 16 52
0 113 -34 127 -12 200 75 257 51 33 56 34 153 34 l100 0 47 -38 c68 -56 89
-105 86 -204 -2 -84 1 -92 66 -163 56 -61 167 -287 194 -395 11 -44 36 -114
55 -155 70 -151 93 -274 67 -370 -5 -19 -18 -73 -30 -120 -15 -59 -29 -92 -46
-107 -27 -25 -50 -21 -59 8 -4 10 -11 19 -16 19 -5 0 -9 16 -9 36 0 24 -4 34
-13 31 -7 -2 -11 -18 -9 -40 2 -25 -6 -50 -28 -86 -16 -29 -30 -63 -30 -76 l0
-25 625 0 625 0 0 895 0 895 -1600 0 -1600 0 0 -895z"/>
</g>
</svg>
