<svg version="1.0" xmlns="http://www.w3.org/2000/svg"
 width="668px" style="transform:scale(1,1.001);" height="375.75px" viewBox="0 0 320.000000 180.000000"
 preserveAspectRatio="xMidYMid meet">
<g transform="translate(0.000000,180.000000) scale(0.100000,-0.100000)"
fill="#000000" stroke="none">
<path d="M0 905 l0 -895 551 0 550 0 -2 58 c-6 161 75 517 147 647 21 36 29 69 35 134
4 47 17 115 28 150 20 62 21 67 5 115 -13 38 -15 70 -11 138 7 101 33 161 82
188 35 19 42 53 25 116 -16 57 -5 98 38 139 31 29 44 35 82 35 46 0 73 -13
123 -58 25 -24 27 -31 27 -112 0 -71 3 -90 18 -103 10 -10 26 -17 36 -17 110
0 155 -266 66 -395 -46 -67 -73 -158 -65 -224 3 -30 9 -59 14 -65 5 -6 11 -30
15 -53 3 -23 13 -56 22 -75 37 -75 44 -90 44 -103 0 -13 23 -86 65 -204 40
-112 65 -211 65 -263 l0 -48 620 0 620 0 0 895 0 895 -1600 0 -1600 0 0 -895z"/>
<path d="M1438 516 c-15 -19 -45 -72 -67 -117 -23 -46 -50 -97 -61 -114 -49 -76 -74
-142 -87 -237 l-5 -38 301 0 301 0 0 24 c0 13 -7 37 -15 53 -8 15 -26 53 -39
84 -13 31 -41 81 -60 112 -20 31 -36 58 -36 61 0 3 -16 30 -35 60 -19 30 -35
58 -35 61 0 4 -15 24 -32 45 -27 32 -40 40 -68 40 -28 0 -40 -7 -62 -34z"/>
</g>
</svg>
