<svg version="1.0" xmlns="http://www.w3.org/2000/svg"
 width="668px" style="transform:scale(1,1.001);" height="375.75px" viewBox="0 0 320.000000 180.000000"
 preserveAspectRatio="xMidYMid meet">
<g transform="translate(0.000000,180.000000) scale(0.100000,-0.100000)"
fill="#000000" stroke="none">
<path d="M0 905 l0 -895 561 0 561 0 -6 48 c-12 107 -16 282 -7 362 7 69 6 107 -10 200
-10 63 -19 117 -19 119 0 3 -6 -3 -12 -12 -28 -37 -161 -48 -201 -17 -14 11
-32 20 -40 20 -65 0 -60 118 10 250 16 30 41 94 56 141 15 47 37 101 50 120
37 55 40 83 16 151 -20 57 -20 62 -5 103 32 84 144 126 193 73 31 -34 40 -57
48 -123 7 -62 16 -75 51 -75 11 0 31 -11 44 -25 13 -14 29 -25 36 -25 13 0 62
-67 87 -118 25 -50 55 -196 66 -317 6 -66 17 -160 24 -210 7 -57 12 -196 11
-378 l-2 -287 844 0 844 0 0 895 0 895 -1600 0 -1600 0 0 -895z"/>
<path d="M1271 568 c-6 -35 -16 -119 -22 -188 -6 -69 -14 -168 -19 -220 -5 -52 -9 -107
-10 -122 l0 -28 96 0 96 0 -6 73 c-3 39 -8 112 -11 162 -14 211 -57 385 -95
385 -14 0 -20 -14 -29 -62z"/>
</g>
</svg>
