<svg version="1.0" xmlns="http://www.w3.org/2000/svg"
 width="668px" style="transform:scale(1,1.001);" height="375.75px" viewBox="0 0 320.000000 180.000000"
 preserveAspectRatio="xMidYMid meet">
<g transform="translate(0.000000,180.000000) scale(0.100000,-0.100000)"
fill="#000000" stroke="none">
<path d="M0 905 l0 -895 640 0 c625 0 640 0 640 19 0 11 -13 33 -29 49 -32 32 -35 45
-49 203 -6 81 -13 113 -29 135 -11 16 -28 51 -37 79 -20 56 -32 74 -61 85 -19
8 -18 9 5 10 21 2 18 4 -15 15 -44 14 -72 11 -125 -15 -49 -24 -312 -45 -358
-29 l-33 11 33 30 c18 16 51 37 73 47 49 22 74 48 54 55 -8 2 -77 7 -154 9
-155 6 -231 20 -238 45 -3 10 -8 25 -12 34 -9 22 38 34 165 43 52 3 118 12
145 20 28 7 79 18 115 25 48 9 82 23 130 56 167 113 185 124 201 124 27 0 117
48 128 68 11 20 2 94 -29 260 -12 62 -12 64 20 127 27 54 41 68 93 99 88 53
115 49 294 -36 12 -6 24 -21 27 -34 4 -13 20 -39 36 -58 42 -48 40 -90 -7
-164 -21 -31 -48 -68 -60 -82 -49 -54 -22 -79 207 -196 52 -27 111 -60 130
-74 19 -14 42 -29 51 -35 9 -5 43 -30 75 -55 33 -25 75 -56 94 -69 55 -37 96
-83 126 -142 26 -51 28 -64 33 -229 l7 -175 33 -46 c35 -49 41 -89 26 -171
l-7 -38 431 0 431 0 0 895 0 895 -1600 0 -1600 0 0 -895z"/>
<path d="M2000 486 c-5 -15 -10 -50 -10 -77 0 -33 -8 -65 -25 -97 -13 -26 -34 -85 -45
-132 -12 -47 -28 -95 -36 -107 -8 -12 -14 -31 -14 -43 0 -19 6 -20 180 -20
l180 0 0 23 c0 22 -76 97 -99 97 -24 0 -51 54 -52 104 0 28 -4 60 -9 71 l-9
20 -1 -20 c-2 -48 -20 17 -30 105 -5 51 -11 95 -14 98 -3 2 -10 -7 -16 -22z"/>
</g>
</svg>
