<svg version="1.0" xmlns="http://www.w3.org/2000/svg"
 width="668px" style="transform:scale(1,1.001);" height="375.75px" viewBox="0 0 320.000000 180.000000"
 preserveAspectRatio="xMidYMid meet">
<g transform="translate(0.000000,180.000000) scale(0.100000,-0.100000)"
fill="#000000" stroke="none">
<path d="M0 905 l0 -895 410 0 410 0 0 40 c0 26 12 60 35 103 19 35 35 69 35 76 0 7 7
27 14 44 18 38 56 152 56 166 0 6 13 38 29 73 99 213 109 239 116 300 10 91
29 157 62 220 49 92 49 108 -2 171 -35 42 -45 62 -45 91 0 36 19 93 39 118 65
81 89 103 165 150 29 18 184 86 209 92 44 10 145 -31 169 -69 20 -33 18 -54
-13 -148 -33 -99 -18 -202 36 -247 9 -8 26 -32 38 -54 20 -36 22 -56 21 -176
0 -74 -6 -165 -13 -203 -12 -58 -20 -74 -60 -117 -41 -44 -52 -50 -87 -50 -86
0 -103 -23 -123 -166 -13 -86 -77 -320 -97 -351 -8 -12 -14 -31 -14 -43 0 -20
1 -20 905 -20 l905 0 0 895 0 895 -1600 0 -1600 0 0 -895z"/>
<path d="M1203 333 c-7 -2 -13 -11 -13 -18 0 -8 -6 -20 -14 -28 -8 -7 -27 -38 -42 -68
-39 -75 -69 -117 -99 -140 -14 -12 -25 -31 -25 -45 0 -24 0 -24 113 -24 l112
0 0 162 c0 158 -3 173 -32 161z"/>
</g>
</svg>
