<svg version="1.0" xmlns="http://www.w3.org/2000/svg"
 width="668px" style="transform:scale(1,1.001);" height="375.75px" viewBox="0 0 320.000000 180.000000"
 preserveAspectRatio="xMidYMid meet">
<g transform="translate(0.000000,180.000000) scale(0.100000,-0.100000)"
fill="#000000" stroke="none">
<path d="M0 1620 l0 -180 26 0 c14 0 33 9 42 19 27 31 70 7 143 -77 74 -87 117 -115
174 -116 50 -1 125 36 200 99 28 23 61 46 75 50 14 4 43 18 65 30 59 33 249
50 463 41 162 -7 221 -18 257 -47 47 -38 89 -88 106 -126 11 -23 24 -45 30
-49 20 -12 89 -169 89 -203 0 -35 -51 -161 -79 -194 -15 -18 -42 -62 -89 -147
-11 -20 -23 -52 -27 -71 -7 -38 2 -50 96 -131 97 -83 162 -161 180 -216 7 -20
19 -48 28 -62 12 -18 16 -48 15 -127 l-1 -103 704 0 703 0 0 895 0 895 -1600
0 -1600 0 0 -180z"/>
<path d="M0 600 l0 -590 60 0 c54 0 60 2 60 21 0 11 -10 29 -22 39 -22 17 -22 20 -10
102 7 46 12 120 12 164 0 44 7 134 15 199 22 176 20 205 -17 288 -32 69 -33
78 -36 220 l-3 147 -30 0 -29 0 0 -590z"/>
</g>
</svg>
