<svg version="1.0" xmlns="http://www.w3.org/2000/svg"
 width="668px" style="transform:scale(1,1.001);" height="375.75px" viewBox="0 0 320.000000 180.000000"
 preserveAspectRatio="xMidYMid meet">
<g transform="translate(0.000000,180.000000) scale(0.100000,-0.100000)"
fill="#000000" stroke="none">
<path d="M0 905 l0 -895 550 0 551 0 -6 58 c-10 100 -29 533 -28 635 1 53 3 141 5 195
2 77 -1 108 -17 150 -12 32 -24 51 -31 48 -7 -3 -39 -8 -71 -11 -55 -6 -61 -5
-118 32 -58 38 -125 104 -125 123 0 11 -85 136 -107 158 -16 16 -18 135 -3
163 14 25 32 24 80 -3 37 -21 40 -26 40 -67 0 -68 30 -148 71 -192 32 -34 42
-39 82 -39 38 0 49 4 65 28 10 15 22 38 25 52 3 14 31 45 61 70 68 55 75 75
46 135 -18 37 -21 59 -18 110 4 67 21 94 61 95 11 0 17 8 17 25 l0 25 -565 0
-565 0 0 -895z"/>
<path d="M1250 1775 c0 -14 4 -25 10 -25 23 0 41 -51 46 -130 2 -45 6 -85 9 -90 2 -4
24 -12 47 -18 54 -14 104 -64 153 -157 38 -72 93 -133 142 -158 45 -24 73 -70
73 -121 0 -37 -5 -48 -24 -61 -23 -15 -27 -15 -49 0 -14 9 -28 22 -31 30 -8
21 -104 67 -134 63 -35 -4 -44 -42 -31 -137 5 -42 14 -274 19 -516 5 -242 9
-441 10 -442 0 -2 385 -3 855 -3 l855 0 0 895 0 895 -975 0 -975 0 0 -25z"/>
<path d="M1265 592 c-11 -53 -24 -176 -34 -322 -6 -80 -13 -171 -16 -203 l-6 -57 82 0
82 0 -7 47 c-16 108 -36 301 -36 346 0 53 -38 217 -50 217 -5 0 -11 -13 -15
-28z"/>
</g>
</svg>
