<svg version="1.0" xmlns="http://www.w3.org/2000/svg"
 width="668px" style="transform:scale(1,1.001);" height="375.75px" viewBox="0 0 320.000000 180.000000"
 preserveAspectRatio="xMidYMid meet">
<g transform="translate(0.000000,180.000000) scale(0.100000,-0.100000)"
fill="#000000" stroke="none">
<path d="M0 905 l0 -895 620 0 620 0 0 23 c0 12 -10 47 -21 77 -27 69 -33 270 -9 335 9
27 14 90 15 195 2 132 6 170 29 257 14 56 26 118 26 137 0 91 40 195 98 254
23 24 42 48 42 52 0 5 -13 32 -30 60 -40 67 -39 106 3 154 28 33 39 38 89 43
36 4 69 1 87 -7 40 -16 71 -81 71 -146 0 -45 4 -53 40 -87 23 -20 49 -37 59
-37 11 0 43 -24 73 -52 69 -68 88 -124 88 -257 0 -84 -5 -109 -35 -196 -19
-55 -43 -107 -53 -115 -40 -33 -46 -61 -50 -220 -3 -112 1 -181 12 -248 9 -50
16 -121 16 -157 l0 -65 705 0 705 0 0 895 0 895 -1600 0 -1600 0 0 -895z"/>
<path d="M1487 507 c-12 -13 -40 -53 -62 -88 -34 -55 -40 -74 -44 -133 -2 -39 2 -101 9
-138 10 -52 11 -71 2 -80 -7 -7 -12 -22 -12 -35 0 -23 0 -23 145 -23 132 0
145 2 145 18 0 9 -18 71 -39 137 -22 66 -42 143 -46 170 -10 70 -35 168 -47
183 -15 17 -26 15 -51 -11z"/>
</g>
</svg>
