<svg version="1.0" xmlns="http://www.w3.org/2000/svg"
 width="668px" style="transform:scale(1,1.001);" height="375.75px" viewBox="0 0 320.000000 180.000000"
 preserveAspectRatio="xMidYMid meet">
<g transform="translate(0.000000,180.000000) scale(0.100000,-0.100000)"
fill="#000000" stroke="none">
<path d="M0 905 l0 -895 1600 0 1600 0 0 895 0 895 -1600 0 -1600 0 0 -895z m1822 768
c27 -30 48 -81 48 -112 0 -17 -9 -53 -20 -81 -24 -61 -26 -105 -4 -122 9 -7
26 -23 38 -35 12 -12 34 -25 48 -28 29 -7 59 -44 76 -94 29 -83 2 -300 -55
-448 -37 -96 -38 -101 -35 -211 2 -62 -2 -137 -8 -167 -10 -48 -15 -55 -43
-64 -18 -6 -110 -10 -205 -10 -219 -1 -207 -9 -216 160 -4 68 -15 154 -24 192
-15 63 -15 71 1 135 20 79 21 133 5 264 -9 74 -9 105 0 135 12 41 93 133 145
166 34 22 35 56 5 118 -33 65 -31 134 6 182 l28 37 98 0 c80 0 100 -3 112 -17z"/>
</g>
</svg>
