<svg version="1.0" xmlns="http://www.w3.org/2000/svg"
 width="668px" style="transform:scale(1,1.001);" height="375.75px" viewBox="0 0 320.000000 180.000000"
 preserveAspectRatio="xMidYMid meet">
<g transform="translate(0.000000,180.000000) scale(0.100000,-0.100000)"
fill="#000000" stroke="none">
<path d="M0 905 l0 -895 1600 0 1600 0 0 895 0 895 -1600 0 -1600 0 0 -895z m1645 699
c82 -30 104 -42 167 -102 32 -30 52 -58 59 -85 20 -75 -6 -188 -64 -273 -37
-54 -45 -128 -20 -168 18 -29 69 -52 223 -102 83 -27 210 -96 231 -125 11 -16
33 -36 49 -45 16 -10 36 -34 45 -53 9 -20 48 -63 87 -96 38 -33 76 -75 84 -92
8 -18 32 -44 54 -58 22 -14 40 -29 40 -34 0 -11 167 -181 178 -181 4 0 22 -20
39 -44 l31 -44 -46 -11 c-26 -6 -108 -12 -182 -14 -352 -5 -1116 14 -1174 31
-32 9 -55 36 -42 49 10 10 124 20 346 32 202 11 253 22 248 53 -2 14 -13 24
-33 30 -16 4 -244 10 -505 14 -502 6 -767 -3 -796 -27 -9 -8 -32 -18 -51 -24
-24 -7 -50 -29 -86 -74 -60 -75 -83 -84 -180 -75 -82 7 -87 14 -87 119 0 73 2
79 30 105 17 16 35 41 41 57 11 30 85 90 127 103 46 14 165 73 207 102 22 16
58 41 80 55 22 14 58 41 79 59 37 32 213 124 236 124 6 0 30 11 53 24 23 14
60 28 82 31 22 4 56 18 75 30 19 13 47 29 63 36 28 13 33 30 28 99 -2 22 -14
47 -36 71 -19 21 -39 56 -46 78 -7 25 -25 51 -45 66 -38 29 -50 77 -39 155 6
41 12 53 33 64 15 8 44 29 64 48 62 56 97 80 156 105 65 27 90 25 197 -13z"/>
</g>
</svg>
