<svg version="1.0" xmlns="http://www.w3.org/2000/svg"
 width="668px" style="transform:scale(1,1.001);" height="375.75px" viewBox="0 0 320.000000 180.000000"
 preserveAspectRatio="xMidYMid meet">
<g transform="translate(0.000000,180.000000) scale(0.100000,-0.100000)"
fill="#000000" stroke="none">
<path d="M0 905 l0 -895 245 0 245 0 0 40 c0 69 77 176 220 306 25 22 64 60 87 85 23
24 66 67 95 95 58 55 185 193 218 236 12 15 24 45 27 65 3 21 17 63 31 93 15
32 26 74 26 100 l1 45 -60 6 c-75 7 -85 11 -112 52 -46 67 -18 157 73 237 31
27 41 30 102 30 39 -1 77 -7 92 -15 32 -19 60 -19 87 0 l21 15 -20 60 c-18 52
-19 66 -9 100 34 116 196 127 268 19 26 -39 26 -40 15 -136 -11 -95 -11 -99
14 -148 13 -27 40 -72 59 -98 59 -83 67 -145 36 -268 -10 -41 -22 -94 -26
-119 -3 -25 -21 -70 -39 -100 -27 -45 -39 -56 -70 -63 -21 -5 -55 -26 -76 -46
-36 -34 -39 -41 -49 -121 -6 -47 -16 -101 -22 -120 -23 -77 -39 -142 -39 -160
0 -10 -13 -48 -30 -85 -53 -118 -163 -105 880 -105 l910 0 0 895 0 895 -1600
0 -1600 0 0 -895z"/>
<path d="M1113 385 c-3 -9 -20 -23 -37 -32 -17 -9 -33 -19 -36 -22 -12 -15 -98 -79
-122 -92 -15 -8 -70 -52 -122 -99 -67 -59 -96 -92 -96 -107 l0 -23 250 0 249
0 -2 87 c-1 49 0 124 2 168 3 100 -10 135 -51 135 -17 0 -31 -6 -35 -15z"/>
</g>
</svg>
