<svg version="1.0" xmlns="http://www.w3.org/2000/svg"
 width="668px" style="transform:scale(1,1.001);" height="375.75px" viewBox="0 0 320.000000 180.000000"
 preserveAspectRatio="xMidYMid meet">
<g transform="translate(0.000000,180.000000) scale(0.100000,-0.100000)"
fill="#000000" stroke="none">
<path d="M0 905 l0 -895 685 0 685 0 1 173 c0 94 2 179 4 187 17 80 23 148 15 188 -18
95 -35 104 -45 24 -17 -135 -27 -174 -49 -182 -25 -9 -36 3 -36 42 0 15 -5 30
-11 33 -22 14 -26 57 -19 240 7 166 11 199 33 263 24 66 52 117 84 150 12 12
11 44 -3 125 -5 31 -1 45 20 77 25 38 29 40 84 42 70 2 100 0 131 -7 23 -6 24
-8 18 -91 l-6 -84 37 -24 c77 -49 118 -121 134 -235 15 -111 28 -221 38 -321
5 -52 12 -121 16 -152 9 -75 -13 -135 -70 -189 -37 -36 -41 -45 -40 -85 1 -25
6 -50 12 -56 7 -7 12 -20 12 -30 0 -15 -9 -18 -59 -18 -48 0 -72 6 -125 34
-73 38 -69 41 -81 -52 l-7 -52 871 0 871 0 0 895 0 895 -1600 0 -1600 0 0
-895z"/>
<path d="M1555 530 c-4 -6 -9 -48 -12 -93 -3 -65 -2 -78 7 -64 8 13 19 17 35 13 40 -10
47 41 15 104 -22 44 -36 55 -45 40z"/>
</g>
</svg>
