<svg version="1.0" xmlns="http://www.w3.org/2000/svg"
 width="668px" style="transform:scale(1,1.001);" height="375.75px" viewBox="0 0 320.000000 180.000000"
 preserveAspectRatio="xMidYMid meet">
<g transform="translate(0.000000,180.000000) scale(0.100000,-0.100000)"
fill="#000000" stroke="none">
<path d="M0 905 l0 -895 510 0 510 0 0 33 c0 17 8 57 16 87 9 30 20 111 24 179 5 70 15
139 23 160 9 20 23 61 32 91 9 30 32 81 51 113 19 32 34 63 34 68 0 6 16 40
36 75 44 79 41 110 -14 147 -21 13 -46 40 -57 60 -17 33 -18 41 -6 89 8 29 18
59 24 66 5 7 17 26 26 42 40 73 79 120 111 134 73 34 130 66 130 74 0 4 15 25
34 45 32 36 36 37 100 37 53 0 70 -4 86 -20 47 -47 46 -97 0 -181 l-27 -49 19
-63 c11 -34 25 -80 31 -102 7 -22 12 -76 12 -120 0 -68 -3 -85 -22 -109 -34
-43 -30 -89 17 -180 22 -42 40 -86 40 -96 0 -11 6 -34 14 -52 40 -96 71 -196
87 -288 5 -30 21 -84 35 -118 14 -35 26 -77 26 -93 l1 -29 649 0 648 0 0 895
0 895 -1600 0 -1600 0 0 -895z"/>
<path d="M1423 633 c-32 -6 -167 -154 -197 -216 -15 -29 -31 -79 -37 -112 -12 -62 -30
-135 -55 -217 -26 -85 -55 -78 326 -78 331 0 340 0 340 20 0 10 -6 34 -14 52
-8 18 -36 91 -61 163 -55 153 -53 150 -120 240 -68 90 -130 155 -147 154 -7
-1 -23 -4 -35 -6z"/>
</g>
</svg>
