<svg version="1.0" xmlns="http://www.w3.org/2000/svg"
 width="668px" style="transform:scale(1,1.001);" height="375.75px" viewBox="0 0 320.000000 180.000000"
 preserveAspectRatio="xMidYMid meet">
<g transform="translate(0.000000,180.000000) scale(0.100000,-0.100000)"
fill="#000000" stroke="none">
<path d="M0 905 l0 -895 1600 0 1600 0 0 895 0 895 -1600 0 -1600 0 0 -895z m1770 603
c90 -21 132 -51 165 -118 24 -51 26 -66 29 -220 4 -162 4 -166 35 -223 35 -67
74 -109 122 -132 59 -28 93 -47 114 -64 11 -10 33 -23 48 -29 35 -15 46 -24
116 -93 31 -30 61 -66 67 -80 6 -13 21 -45 33 -70 33 -73 23 -146 -25 -168
-18 -8 -208 -11 -679 -11 -754 1 -700 -7 -699 93 0 30 6 62 12 70 7 8 19 45
27 82 7 37 22 77 33 89 11 11 23 28 28 37 26 47 196 149 249 149 13 0 38 12
57 27 18 15 35 28 36 29 10 6 -45 64 -69 75 -16 6 -29 15 -29 18 0 4 -32 31
-70 60 -49 36 -76 65 -90 95 -19 39 -19 45 -5 79 8 20 15 45 15 56 0 11 11 32
24 48 13 15 26 38 30 51 17 53 141 140 203 143 10 0 34 7 53 14 39 16 75 14
170 -7z"/>
</g>
</svg>
