<svg version="1.0" xmlns="http://www.w3.org/2000/svg"
 width="668px" style="transform:scale(1,1.001);" height="375.75px" viewBox="0 0 320.000000 180.000000"
 preserveAspectRatio="xMidYMid meet">
<g transform="translate(0.000000,180.000000) scale(0.100000,-0.100000)"
fill="#000000" stroke="none">
<path d="M0 905 l0 -895 565 0 565 0 0 22 c0 13 17 50 38 83 32 52 37 67 35 115 0 30
-15 107 -32 170 -44 162 -42 192 25 392 31 92 54 175 50 183 -5 13 -18 15 -80
9 -69 -6 -75 -5 -92 16 -11 12 -27 30 -37 40 -37 36 -47 121 -21 173 22 41 25
43 95 51 57 7 60 9 101 62 24 31 60 64 80 75 48 25 74 72 59 106 -26 56 -3
150 41 174 12 6 42 9 68 7 38 -4 53 -11 78 -39 30 -33 51 -107 37 -129 -16
-26 8 -92 55 -150 78 -98 81 -186 9 -334 l-42 -87 7 -147 c8 -166 17 -232 50
-347 35 -121 58 -250 64 -353 l5 -92 738 0 739 0 0 895 0 895 -1600 0 -1600 0
0 -895z"/>
<path d="M1347 666 c-77 -123 -77 -193 -2 -426 39 -118 34 -141 -30 -163 -31 -11 -41
-20 -43 -40 l-3 -27 175 0 176 0 0 30 c0 79 -81 361 -158 550 -56 135 -71 145
-115 76z"/>
</g>
</svg>
