<svg version="1.0" xmlns="http://www.w3.org/2000/svg"
 width="668px" style="transform:scale(1,1.001);" height="375.75px" viewBox="0 0 320.000000 180.000000"
 preserveAspectRatio="xMidYMid meet">
<g transform="translate(0.000000,180.000000) scale(0.100000,-0.100000)"
fill="#000000" stroke="none">
<path d="M0 905 l0 -895 1600 0 1600 0 0 895 0 895 -1600 0 -1600 0 0 -895z m1913 687
c47 -20 77 -40 100 -67 30 -37 32 -43 31 -116 -1 -60 -6 -85 -23 -112 -14 -23
-21 -51 -21 -85 0 -55 11 -68 129 -157 108 -81 137 -121 169 -228 26 -92 40
-123 87 -197 43 -67 45 -106 9 -194 -31 -78 -70 -112 -146 -127 -64 -12 -620
-11 -699 2 -31 5 -120 13 -198 17 l-141 8 -44 43 c-57 56 -70 109 -55 223 13
92 26 113 108 182 42 35 121 148 136 196 6 18 51 52 147 109 21 12 59 28 85
34 64 16 85 51 60 99 -10 18 -35 57 -57 87 -33 45 -40 62 -40 101 0 77 66 154
160 188 75 27 123 26 203 -6z"/>
</g>
</svg>
