<svg version="1.0" xmlns="http://www.w3.org/2000/svg"
 width="668px" style="transform:scale(1,1.001);" height="375.75px" viewBox="0 0 320.000000 180.000000"
 preserveAspectRatio="xMidYMid meet">
<g transform="translate(0.000000,180.000000) scale(0.100000,-0.100000)"
fill="#000000" stroke="none">
<path d="M0 905 l0 -895 656 0 656 0 -6 53 c-4 31 2 143 15 277 33 325 31 350 -31 386
-16 10 -34 32 -40 48 -32 87 -43 147 -42 231 1 92 23 274 39 310 20 46 56 95
74 100 24 8 59 83 59 126 0 17 9 52 20 78 16 37 30 51 59 64 51 23 65 22 121
-10 54 -30 60 -42 60 -124 0 -37 5 -61 15 -69 8 -6 17 -22 21 -33 3 -12 14
-30 23 -41 28 -32 22 -181 -13 -300 -28 -97 -28 -103 -17 -195 37 -317 36
-345 -28 -521 -74 -203 -75 -213 -31 -283 17 -26 30 -59 30 -72 l0 -25 780 0
780 0 0 895 0 895 -1600 0 -1600 0 0 -895z"/>
<path d="M1502 530 c-16 -92 -15 -113 2 -80 16 30 31 150 19 150 -5 0 -14 -32 -21 -70z"/>
<path d="M1427 73 c-4 -3 -7 -19 -7 -35 0 -28 1 -28 60 -28 57 0 60 1 60 24 0 21 -7 26
-50 35 -60 13 -55 13 -63 4z"/>
</g>
</svg>
