<svg version="1.0" xmlns="http://www.w3.org/2000/svg"
 width="668px" style="transform:scale(1,1.001);" height="375.75px" viewBox="0 0 320.000000 180.000000"
 preserveAspectRatio="xMidYMid meet">
<g transform="translate(0.000000,180.000000) scale(0.100000,-0.100000)"
fill="#000000" stroke="none">
<path d="M0 905 l0 -895 685 0 685 0 0 24 c0 16 -7 26 -21 29 -20 5 -21 10 -14 54 13
86 10 118 -20 178 -15 32 -32 75 -36 94 -9 46 -28 146 -35 189 -3 20 -11 32
-20 32 -9 0 -29 9 -45 21 -16 11 -35 19 -42 16 -21 -8 -45 12 -52 43 -10 45
29 119 223 428 57 91 95 130 147 151 32 12 42 33 37 76 -6 57 2 85 32 118 41
44 114 35 173 -20 39 -36 48 -74 28 -114 -9 -17 -15 -44 -13 -61 2 -25 9 -33
33 -41 17 -5 39 -17 50 -26 11 -10 32 -22 48 -29 15 -6 27 -16 27 -21 0 -21
97 -78 146 -85 35 -6 58 -16 82 -39 46 -44 45 -100 -3 -172 -19 -29 -42 -55
-51 -59 -29 -11 -121 -6 -132 7 -6 7 -15 40 -18 73 -9 75 -41 118 -100 134
-59 17 -98 5 -132 -38 -57 -72 -62 -98 -37 -167 8 -22 14 -61 15 -86 0 -26 7
-84 16 -130 14 -77 14 -91 -1 -168 -24 -119 -25 -269 -2 -301 10 -14 17 -43
17 -67 l0 -43 765 0 765 0 0 895 0 895 -1600 0 -1600 0 0 -895z"/>
<path d="M1437 643 c-8 -16 -18 -73 -21 -128 -6 -84 -4 -109 12 -161 11 -33 23 -94 27
-136 9 -93 -5 -145 -41 -154 -17 -4 -24 -13 -24 -30 0 -23 2 -24 85 -24 81 0
85 1 85 22 0 12 -10 32 -22 46 -22 23 -23 33 -29 260 -5 198 -9 245 -25 285
-10 26 -22 47 -26 47 -4 0 -14 -12 -21 -27z"/>
</g>
</svg>
