<svg version="1.0" xmlns="http://www.w3.org/2000/svg"
 width="668px" style="transform:scale(1,1.001);" height="375.75px" viewBox="0 0 320.000000 180.000000"
 preserveAspectRatio="xMidYMid meet">
<g transform="translate(0.000000,180.000000) scale(0.100000,-0.100000)"
fill="#000000" stroke="none">
<path d="M0 905 l0 -895 1600 0 1600 0 0 895 0 895 -1600 0 -1600 0 0 -895z m2024 642
c77 -29 205 -148 207 -193 4 -75 -4 -121 -26 -154 -13 -19 -26 -46 -30 -60 -4
-14 -13 -32 -20 -40 -7 -8 -16 -26 -20 -40 -4 -14 -16 -36 -26 -49 -12 -15
-19 -40 -19 -70 0 -62 23 -84 161 -154 151 -77 234 -147 269 -226 6 -13 13
-66 17 -117 5 -77 3 -97 -11 -118 l-16 -25 -643 1 c-353 1 -652 5 -665 10 -12
4 -29 23 -38 42 -15 31 -15 42 0 145 8 61 23 125 31 140 17 33 92 87 133 97
15 4 36 15 47 24 11 10 31 21 45 25 14 4 36 16 49 26 13 11 28 19 33 19 23 0
158 72 167 89 18 33 13 86 -12 122 -29 42 -77 139 -77 154 0 6 -11 26 -25 45
-19 26 -25 46 -25 86 0 51 1 52 70 118 85 79 143 119 190 128 57 10 171 -2
234 -25z"/>
</g>
</svg>
