<svg version="1.0" xmlns="http://www.w3.org/2000/svg"
 width="668px" style="transform:scale(1,1.001);" height="375.75px" viewBox="0 0 320.000000 180.000000"
 preserveAspectRatio="xMidYMid meet">
<g transform="translate(0.000000,180.000000) scale(0.100000,-0.100000)"
fill="#000000" stroke="none">
<path d="M0 905 l0 -895 1600 0 1600 0 0 895 0 895 -1600 0 -1600 0 0 -895z m1979 722
c49 -17 72 -31 95 -60 28 -35 31 -47 35 -123 2 -68 0 -90 -14 -111 -25 -37
-23 -119 2 -160 29 -48 117 -152 128 -152 14 -1 96 -87 120 -126 55 -86 67
-128 81 -280 7 -82 14 -182 14 -222 0 -87 -7 -93 -107 -93 -37 0 -86 -5 -108
-11 -22 -6 -87 -14 -145 -18 -96 -5 -105 -8 -105 -26 0 -15 8 -21 30 -23 17
-1 61 -12 99 -24 53 -17 65 -23 50 -29 -27 -11 -436 -11 -453 0 -11 7 -4 14
26 30 33 16 56 20 117 17 62 -2 79 1 92 15 14 15 13 18 -8 33 -16 11 -45 16
-100 16 -42 0 -153 7 -245 16 -153 14 -174 18 -241 49 -86 41 -92 52 -92 174
0 89 5 108 69 291 11 30 24 56 30 58 6 2 11 10 11 19 0 17 119 132 137 133 6
0 24 11 40 24 15 13 39 27 53 31 14 4 32 13 40 20 8 8 36 23 62 34 79 34 85
70 20 141 -75 81 -82 94 -82 155 0 41 6 68 21 94 30 50 86 101 112 102 12 0
38 7 57 14 50 19 86 17 159 -8z"/>
</g>
</svg>
