<svg version="1.0" xmlns="http://www.w3.org/2000/svg"
 width="668px" style="transform:scale(1,1.001);" height="375.75px" viewBox="0 0 320.000000 180.000000"
 preserveAspectRatio="xMidYMid meet">
<g transform="translate(0.000000,180.000000) scale(0.100000,-0.100000)"
fill="#000000" stroke="none">
<path d="M0 905 l0 -895 561 0 562 0 -8 37 c-8 35 -12 198 -19 683 -2 107 -4 200 -5
206 0 6 -31 16 -68 23 -38 7 -77 14 -89 16 -12 3 -28 20 -38 44 -22 48 -16 82
29 165 18 34 36 74 39 90 4 16 29 54 57 86 44 51 49 60 43 91 -4 19 -12 40
-18 48 -6 7 -11 40 -11 72 0 51 4 62 30 89 26 27 35 30 92 30 61 0 63 -1 88
-37 21 -32 25 -49 25 -110 0 -53 4 -76 15 -85 9 -7 24 -20 33 -29 9 -9 32 -24
49 -33 43 -22 59 -62 67 -171 4 -50 14 -112 23 -140 15 -52 33 -173 58 -410
18 -170 19 -196 10 -458 l-8 -207 842 0 841 0 0 895 0 895 -1600 0 -1600 0 0
-895z"/>
<path d="M1285 620 c-12 -20 -36 -200 -45 -344 -5 -83 -13 -177 -16 -208 l-7 -58 102 0
102 0 -6 77 c-11 143 -36 347 -52 421 -19 89 -58 145 -78 112z"/>
</g>
</svg>
