<svg version="1.0" xmlns="http://www.w3.org/2000/svg"
 width="668px" style="transform:scale(1,1.001);" height="375.75px" viewBox="0 0 320.000000 180.000000"
 preserveAspectRatio="xMidYMid meet">
<g transform="translate(0.000000,180.000000) scale(0.100000,-0.100000)"
fill="#000000" stroke="none">
<path d="M0 905 l0 -895 1600 0 1600 0 0 895 0 895 -1600 0 -1600 0 0 -895z m1444 535
c17 -5 48 -12 68 -15 56 -9 68 -26 68 -101 0 -76 24 -144 50 -144 20 0 79 -74
103 -130 96 -218 152 -440 112 -440 -8 0 -19 -17 -25 -42 -18 -69 -18 -70 -47
-66 -32 4 -40 26 -42 124 -1 62 -21 109 -36 85 -11 -19 -8 -179 5 -231 6 -25
15 -107 20 -183 10 -142 4 -187 -25 -187 -8 0 -15 -4 -15 -10 0 -17 -29 -11
-59 11 -27 20 -33 20 -136 10 -59 -6 -111 -8 -116 -5 -23 14 13 124 41 124 14
0 -2 44 -21 57 -9 7 -27 30 -40 50 -12 21 -32 49 -43 63 -32 38 -46 67 -46 94
0 40 28 135 49 170 58 94 94 165 98 198 13 92 -33 125 -93 67 -19 -18 -34 -37
-34 -42 0 -4 -11 -23 -25 -41 -14 -18 -30 -47 -36 -65 -10 -27 -9 -35 8 -54
35 -40 13 -81 -59 -110 -34 -14 -37 -14 -56 6 -23 25 -52 157 -52 234 0 42 5
56 29 82 16 17 35 31 43 31 11 0 68 61 68 74 0 3 20 25 45 50 25 26 45 50 45
55 0 5 16 13 36 18 53 12 61 30 46 101 -17 85 -15 125 8 150 24 25 23 25 64
12z"/>
<path d="M1465 593 c-43 -56 -58 -104 -36 -118 12 -7 60 -79 81 -120 20 -39 73 -86 84
-75 10 10 -7 135 -29 215 -8 28 -17 74 -21 103 -4 34 -11 52 -20 52 -8 0 -34
-26 -59 -57z"/>
</g>
</svg>
