<svg version="1.0" xmlns="http://www.w3.org/2000/svg"
 width="668px" style="transform:scale(1,1.001);" height="375.75px" viewBox="0 0 320.000000 180.000000"
 preserveAspectRatio="xMidYMid meet">
<g transform="translate(0.000000,180.000000) scale(0.100000,-0.100000)"
fill="#000000" stroke="none">
<path d="M0 905 l0 -895 588 0 587 0 3 175 c1 96 -2 221 -8 278 -7 56 -13 198 -15 315
l-4 213 42 87 42 87 -2 110 c-2 107 -1 112 30 169 24 44 40 62 61 67 16 4 35
17 43 29 8 12 25 25 38 30 14 5 45 44 76 94 29 48 58 86 66 86 7 0 13 11 13
25 l0 25 -780 0 -780 0 0 -895z"/>
<path d="M1700 1781 c0 -10 16 -36 35 -57 49 -53 62 -104 40 -161 -9 -24 -32 -66 -50
-93 -29 -44 -32 -53 -25 -87 5 -21 15 -40 22 -42 35 -11 87 -87 102 -145 24
-99 39 -230 33 -289 -7 -70 -46 -133 -89 -142 -16 -4 -39 -18 -50 -31 -12 -12
-33 -26 -49 -29 -52 -12 -53 -18 -34 -222 22 -229 12 -328 -36 -389 -16 -20
-29 -47 -29 -60 l0 -24 815 0 815 0 0 895 0 895 -750 0 c-727 0 -750 -1 -750
-19z"/>
</g>
</svg>
