<svg version="1.0" xmlns="http://www.w3.org/2000/svg"
 width="668px" style="transform:scale(1,1.001);" height="375.75px" viewBox="0 0 320.000000 180.000000"
 preserveAspectRatio="xMidYMid meet">
<g transform="translate(0.000000,180.000000) scale(0.100000,-0.100000)"
fill="#000000" stroke="none">
<path d="M0 905 l0 -895 1600 0 1600 0 0 895 0 895 -1600 0 -1600 0 0 -895z m1738 637
c86 -34 154 -104 176 -180 8 -32 13 -68 10 -82 -12 -51 -47 -156 -60 -175 -30
-47 -54 -126 -44 -145 16 -30 99 -80 147 -89 24 -5 51 -15 61 -24 9 -8 33 -17
53 -21 20 -3 44 -15 54 -26 10 -11 23 -20 29 -20 15 0 115 -110 122 -135 4
-11 15 -40 26 -64 40 -90 33 -247 -12 -271 -22 -12 -1309 -13 -1327 -2 -46 28
-42 266 5 323 46 56 88 99 98 99 6 0 19 9 28 19 10 11 32 25 49 32 17 7 39 21
49 31 10 10 26 18 36 18 11 0 27 8 36 19 9 10 30 21 46 25 18 3 34 16 43 32
12 24 12 33 -5 78 -11 28 -28 60 -39 72 -10 11 -19 27 -19 35 -1 16 -46 110
-75 153 -26 39 -22 95 9 144 24 38 125 132 141 132 5 0 18 9 29 19 48 45 224
47 334 3z"/>
</g>
</svg>
