<svg version="1.0" xmlns="http://www.w3.org/2000/svg"
 width="668px" style="transform:scale(1,1.001);" height="375.75px" viewBox="0 0 320.000000 180.000000"
 preserveAspectRatio="xMidYMid meet">
<g transform="translate(0.000000,180.000000) scale(0.100000,-0.100000)"
fill="#000000" stroke="none">
<path d="M0 905 l0 -895 1600 0 1600 0 0 895 0 895 -1600 0 -1600 0 0 -895z m1879 778
c110 -55 157 -132 132 -214 -21 -72 -41 -118 -66 -154 -27 -41 -31 -78 -12
-111 11 -19 167 -161 199 -181 36 -22 99 -114 113 -164 22 -78 53 -306 62
-456 4 -67 3 -74 -21 -98 -20 -20 -32 -24 -49 -19 -12 4 -92 7 -177 6 -85 -1
-231 3 -325 8 -93 6 -255 11 -360 11 -225 2 -250 8 -261 65 -4 22 -2 60 5 89
6 27 16 84 22 125 6 41 19 98 30 125 10 28 19 57 19 64 0 20 45 113 81 167 32
46 119 122 174 151 17 8 61 40 99 71 66 53 68 56 62 90 -3 20 -18 56 -34 81
-15 25 -38 78 -51 118 -19 60 -21 77 -12 105 15 45 74 101 165 156 35 21 122
6 205 -35z"/>
</g>
</svg>
