<svg version="1.0" xmlns="http://www.w3.org/2000/svg"
 width="668px" style="transform:scale(1,1.001);" height="375.75px" viewBox="0 0 320.000000 180.000000"
 preserveAspectRatio="xMidYMid meet">
<g transform="translate(0.000000,180.000000) scale(0.100000,-0.100000)"
fill="#000000" stroke="none">
<path d="M0 905 l0 -895 1600 0 1600 0 0 895 0 895 -1600 0 -1600 0 0 -895z m1340 719
c71 -33 84 -46 125 -119 55 -97 73 -111 152 -120 37 -4 89 -16 116 -26 26 -10
59 -19 73 -19 56 0 171 -81 200 -142 67 -138 68 -139 68 -233 1 -129 -34 -180
-109 -161 -31 8 -41 45 -26 96 16 54 14 66 -20 136 -26 52 -38 65 -66 75 -28
9 -38 8 -60 -6 -23 -16 -25 -21 -19 -67 5 -33 1 -80 -10 -135 -14 -71 -15 -98
-5 -172 6 -48 11 -121 11 -162 0 -41 7 -99 15 -129 31 -111 31 -117 -3 -134
-38 -20 -75 -20 -111 -2 -26 14 -42 46 -76 154 -3 6 -11 12 -19 12 -25 0 -44
-27 -51 -72 -10 -69 -14 -76 -47 -87 -44 -16 -140 -14 -164 3 -22 16 -22 31
-12 463 7 269 4 289 -37 255 -11 -10 -31 -33 -44 -52 -13 -19 -55 -64 -92
-100 l-69 -65 -11 -75 c-6 -41 -18 -83 -27 -92 -19 -23 -56 -23 -77 -2 -21 21
-16 128 8 190 16 41 104 176 119 182 4 2 12 22 18 45 29 111 62 177 106 214
54 45 62 68 37 96 -38 43 -53 78 -61 136 -18 129 45 172 168 115z"/>
</g>
</svg>
