<svg version="1.0" xmlns="http://www.w3.org/2000/svg"
 width="668px" style="transform:scale(1,1.001);" height="375.75px" viewBox="0 0 320.000000 180.000000"
 preserveAspectRatio="xMidYMid meet">
<g transform="translate(0.000000,180.000000) scale(0.100000,-0.100000)"
fill="#000000" stroke="none">
<path d="M0 905 l0 -895 1600 0 1600 0 0 895 0 895 -1600 0 -1600 0 0 -895z m1765 735
c14 -5 55 -14 92 -20 55 -9 75 -18 116 -53 28 -23 67 -63 88 -90 36 -45 39
-53 39 -114 0 -47 -5 -75 -19 -97 -10 -17 -22 -42 -26 -56 -4 -14 -16 -35 -26
-48 -10 -13 -25 -48 -34 -78 -23 -80 -6 -136 55 -180 25 -18 59 -36 75 -39 17
-4 54 -21 84 -36 30 -16 60 -29 68 -29 21 0 92 -81 99 -115 4 -16 13 -39 20
-50 7 -11 20 -45 28 -76 8 -31 22 -72 31 -90 24 -46 25 -127 2 -163 -17 -25
-23 -27 -55 -21 -55 9 -508 23 -940 28 -258 3 -387 9 -396 16 -10 8 -11 21 -5
49 5 20 15 84 24 141 8 57 19 109 24 115 4 6 16 34 25 62 19 59 62 95 136 114
25 7 59 20 75 30 17 11 50 22 74 26 57 9 132 62 143 100 11 38 -8 117 -38 162
-13 19 -24 45 -24 57 0 12 -11 35 -24 50 -14 16 -28 40 -31 54 -3 13 -15 36
-26 49 -10 14 -19 40 -19 58 0 29 12 46 88 122 112 112 200 151 277 122z"/>
</g>
</svg>
