<svg version="1.0" xmlns="http://www.w3.org/2000/svg"
 width="668px" style="transform:scale(1,1.001);" height="375.75px" viewBox="0 0 320.000000 180.000000"
 preserveAspectRatio="xMidYMid meet">
<g transform="translate(0.000000,180.000000) scale(0.100000,-0.100000)"
fill="#000000" stroke="none">
<path d="M0 905 l0 -895 1600 0 1600 0 0 895 0 895 -770 0 -770 0 0 -22 c0 -13 16 -38
35 -56 19 -19 41 -55 50 -82 15 -45 15 -52 -4 -120 -11 -40 -27 -80 -35 -89
-8 -9 -17 -29 -21 -46 -4 -16 -15 -51 -26 -77 -10 -26 -19 -54 -19 -63 0 -9
25 -41 56 -70 45 -42 68 -56 106 -65 27 -5 69 -21 92 -35 24 -14 48 -25 55
-25 24 0 108 -79 120 -112 7 -18 21 -51 32 -73 12 -26 22 -79 28 -151 6 -60
14 -121 19 -135 15 -37 25 -163 17 -208 -5 -31 -14 -45 -38 -59 -31 -19 -51
-19 -572 -11 -297 4 -559 8 -582 8 -60 0 -118 20 -145 48 -19 21 -23 35 -23
91 1 123 26 283 51 332 13 25 24 51 24 59 0 7 10 24 23 37 12 12 40 41 62 63
22 23 49 44 60 47 11 4 29 15 40 25 11 10 41 25 65 34 25 9 60 32 79 52 32 35
33 39 27 90 -6 51 -73 204 -95 217 -5 4 -13 21 -16 38 -4 18 -17 45 -28 60
-13 18 -22 48 -25 86 -4 53 -2 60 29 99 19 23 44 46 57 52 14 7 22 19 22 36
l0 25 -590 0 -590 0 0 -895z"/>
</g>
</svg>
