<svg version="1.0" xmlns="http://www.w3.org/2000/svg"
 width="668px" style="transform:scale(1,1.001);" height="375.75px" viewBox="0 0 320.000000 180.000000"
 preserveAspectRatio="xMidYMid meet">
<g transform="translate(0.000000,180.000000) scale(0.100000,-0.100000)"
fill="#000000" stroke="none">
<path d="M0 905 l0 -895 618 0 618 0 0 97 c-1 93 1 103 42 203 23 58 59 132 78 165 31
53 73 139 120 242 8 17 14 52 14 77 0 43 30 158 64 251 8 22 15 59 16 82 0 36
-4 45 -27 57 -40 21 -81 78 -93 128 -29 125 10 241 115 341 36 35 44 38 75 31
58 -12 97 -7 155 20 59 27 68 26 128 -11 52 -33 61 -60 58 -182 -3 -110 16
-181 46 -181 22 0 93 -79 116 -129 19 -41 21 -63 20 -211 -1 -127 -5 -177 -18
-215 -20 -58 -41 -85 -66 -85 -10 0 -34 -13 -52 -30 -19 -16 -39 -30 -45 -30
-6 0 -18 -10 -26 -22 -13 -18 -16 -53 -17 -163 0 -132 -12 -314 -25 -397 l-6
-38 646 0 646 0 0 895 0 895 -1600 0 -1600 0 0 -895z"/>
<path d="M1620 1491 c-20 -6 -24 -13 -22 -37 2 -16 10 -35 19 -41 18 -14 71 -17 89 -5
18 12 25 59 10 71 -18 15 -66 21 -96 12z"/>
<path d="M1593 328 c-11 -13 -36 -51 -56 -85 -20 -34 -59 -91 -86 -127 -28 -36 -51 -75
-51 -86 0 -19 6 -20 146 -20 l147 0 -7 37 c-4 21 -11 87 -15 147 -8 95 -11
111 -33 132 l-24 25 -21 -23z"/>
</g>
</svg>
