<svg version="1.0" xmlns="http://www.w3.org/2000/svg"
 width="668px" style="transform:scale(1,1.001);" height="375.75px" viewBox="0 0 320.000000 180.000000"
 preserveAspectRatio="xMidYMid meet">
<g transform="translate(0.000000,180.000000) scale(0.100000,-0.100000)"
fill="#000000" stroke="none">
<path d="M0 905 l0 -895 1070 0 1070 0 0 25 c0 14 -4 25 -8 25 -9 0 -68 57 -99 97 -12
15 -48 60 -78 98 -79 98 -102 142 -109 207 -3 31 -15 84 -25 118 -23 72 -17
99 42 198 19 31 46 77 60 102 37 64 159 180 189 180 8 0 23 9 32 19 11 12 38
22 69 26 65 9 152 51 166 81 5 12 13 39 17 61 16 90 46 110 147 98 47 -6 60
-13 117 -67 62 -59 64 -62 63 -110 0 -30 -7 -56 -17 -67 -9 -10 -16 -22 -16
-28 0 -6 -19 -27 -42 -47 -24 -20 -56 -47 -71 -61 -15 -14 -32 -25 -37 -25
-16 0 -100 -61 -115 -84 -8 -12 -23 -47 -34 -77 -10 -29 -35 -96 -55 -146 -20
-51 -36 -105 -36 -121 0 -35 18 -93 34 -107 6 -6 20 -24 32 -40 11 -17 36 -52
55 -80 20 -27 45 -71 57 -96 23 -47 29 -113 12 -124 -5 -3 -10 -17 -10 -31 l0
-24 360 0 360 0 0 895 0 895 -1600 0 -1600 0 0 -895z"/>
</g>
</svg>
