<svg version="1.0" xmlns="http://www.w3.org/2000/svg"
 width="668px" style="transform:scale(1,1.001);" height="375.75px" viewBox="0 0 320.000000 180.000000"
 preserveAspectRatio="xMidYMid meet">
<g transform="translate(0.000000,180.000000) scale(0.100000,-0.100000)"
fill="#000000" stroke="none">
<path d="M0 905 l0 -895 645 0 c585 0 645 1 645 16 0 9 -11 53 -24 98 -14 44 -30 135
-36 201 -17 177 -18 185 -39 185 -25 0 -76 -40 -151 -118 -36 -37 -78 -75 -94
-86 -39 -26 -66 -89 -66 -157 0 -64 -10 -77 -64 -86 -111 -18 -146 82 -81 232
14 33 34 76 45 96 11 20 20 42 20 49 0 16 52 90 125 179 49 60 90 125 165 261
73 131 132 194 197 211 49 13 129 85 139 125 4 14 3 69 -2 122 -15 188 -1 242
84 303 34 24 59 34 98 37 47 4 60 1 106 -29 99 -62 128 -92 160 -159 27 -59
29 -68 18 -101 -15 -44 -72 -118 -103 -133 -15 -8 -23 -22 -25 -47 -3 -33 2
-39 55 -82 67 -53 75 -61 107 -102 38 -50 74 -126 100 -215 24 -79 26 -99 26
-282 0 -192 -1 -199 -26 -255 -61 -134 -90 -186 -112 -200 -12 -9 -22 -26 -22
-39 l0 -24 655 0 655 0 0 895 0 895 -1600 0 -1600 0 0 -895z"/>
</g>
</svg>
