<svg version="1.0" xmlns="http://www.w3.org/2000/svg"
 width="668px" style="transform:scale(1,1.001);" height="375.75px" viewBox="0 0 320.000000 180.000000"
 preserveAspectRatio="xMidYMid meet">
<g transform="translate(0.000000,180.000000) scale(0.100000,-0.100000)"
fill="#000000" stroke="none">
<path d="M0 905 l0 -895 661 0 661 0 -6 32 c-29 144 -34 341 -11 428 14 53 11 120 -5
120 -14 0 -20 -30 -20 -95 0 -55 -3 -66 -22 -79 -32 -23 -47 -20 -54 12 -4 15
-13 36 -21 47 -11 16 -12 49 -8 155 9 221 25 286 105 429 14 26 18 45 13 77
-5 37 -2 48 22 76 40 48 81 67 147 68 73 0 90 -19 81 -92 l-6 -49 56 -52 c65
-62 77 -94 77 -218 0 -124 18 -283 40 -365 25 -87 25 -118 0 -171 -13 -29 -27
-44 -45 -49 -31 -8 -59 -57 -51 -88 3 -13 17 -28 31 -34 19 -9 25 -18 23 -35
-3 -20 -7 -22 -63 -19 -63 3 -122 26 -139 54 -8 14 -6 30 7 65 10 27 18 57 18
68 0 11 9 27 20 35 11 9 22 31 25 50 11 67 -49 211 -76 184 -11 -11 -30 -165
-30 -254 0 -36 -5 -85 -11 -110 -6 -26 -8 -76 -4 -117 l7 -73 889 0 889 0 0
895 0 895 -1600 0 -1600 0 0 -895z"/>
</g>
</svg>
