<svg version="1.0" xmlns="http://www.w3.org/2000/svg"
 width="668px" style="transform:scale(1,1.001);" height="375.75px" viewBox="0 0 320.000000 180.000000"
 preserveAspectRatio="xMidYMid meet">
<g transform="translate(0.000000,180.000000) scale(0.100000,-0.100000)"
fill="#000000" stroke="none">
<path d="M0 905 l0 -895 639 0 639 0 6 78 c15 225 15 336 -2 368 -9 17 -29 54 -45 82
-25 47 -27 60 -27 164 0 132 22 274 53 337 23 46 87 121 104 121 6 0 30 13 54
30 24 16 52 30 61 30 27 0 48 29 48 67 0 23 -14 62 -40 109 -32 58 -40 83 -40
124 0 27 4 50 8 50 5 0 15 12 22 26 8 14 27 32 43 40 15 8 37 24 49 36 17 17
30 20 92 16 60 -3 78 -9 119 -37 95 -66 111 -146 52 -267 l-38 -79 19 -35 c13
-23 32 -39 59 -50 22 -8 51 -23 65 -32 14 -9 37 -20 52 -23 52 -13 101 -103
114 -208 3 -29 12 -74 20 -101 8 -28 14 -94 14 -148 0 -115 -15 -159 -86 -246
-24 -30 -47 -66 -50 -80 -4 -15 -15 -45 -25 -68 -10 -23 -21 -71 -24 -108 -3
-36 -7 -95 -10 -131 l-6 -65 631 0 630 0 0 895 0 895 -1600 0 -1600 0 0 -895z"/>
</g>
</svg>
