<svg version="1.0" xmlns="http://www.w3.org/2000/svg"
 width="668px" style="transform:scale(1,1.001);" height="375.75px" viewBox="0 0 320.000000 180.000000"
 preserveAspectRatio="xMidYMid meet">
<g transform="translate(0.000000,180.000000) scale(0.100000,-0.100000)"
fill="#000000" stroke="none">
<path d="M0 905 l0 -895 574 0 573 0 7 56 c4 39 14 66 31 86 36 43 36 98 0 198 -78 219
-77 249 22 500 14 36 32 73 40 82 21 24 21 109 0 142 -26 39 -91 32 -137 -14
-34 -34 -74 -26 -109 22 -27 37 -31 50 -31 108 0 89 12 100 111 100 72 0 75 1
110 38 20 20 41 47 48 60 6 12 19 22 27 22 27 0 44 61 37 138 -5 64 -3 75 18
107 29 42 73 58 124 44 54 -15 75 -54 75 -139 0 -77 21 -129 61 -150 10 -6 19
-15 19 -20 0 -5 11 -26 25 -46 54 -80 55 -177 2 -282 -46 -92 -51 -134 -38
-303 9 -121 18 -172 41 -239 67 -198 109 -388 102 -462 l-4 -48 736 0 736 0 0
895 0 895 -1600 0 -1600 0 0 -895z"/>
<path d="M1355 687 c-39 -45 -69 -115 -68 -158 1 -50 40 -193 79 -290 39 -95 15 -159
-59 -159 -42 0 -67 -17 -67 -45 l0 -25 206 0 206 0 -5 28 c-8 44 -48 172 -72
237 -13 33 -33 91 -45 129 -12 38 -47 120 -77 183 -54 112 -72 131 -98 100z"/>
</g>
</svg>
