<svg version="1.0" xmlns="http://www.w3.org/2000/svg"
 width="668px" style="transform:scale(1,1.001);" height="375.75px" viewBox="0 0 320.000000 180.000000"
 preserveAspectRatio="xMidYMid meet">
<g transform="translate(0.000000,180.000000) scale(0.100000,-0.100000)"
fill="#000000" stroke="none">
<path d="M0 905 l0 -895 500 0 500 0 0 25 c0 18 -5 25 -20 25 -19 0 -20 7 -20 108 0
114 6 133 74 212 14 17 15 20 3 11 -15 -12 -15 -9 3 30 11 24 20 56 20 72 0
15 4 27 9 27 21 0 101 273 101 346 0 18 7 66 15 106 14 68 19 77 75 132 77 75
77 87 0 218 -54 92 -60 107 -60 158 0 48 4 60 29 88 17 17 38 32 48 32 11 0
34 11 53 25 43 31 92 32 133 3 18 -13 45 -30 61 -38 43 -22 70 -98 61 -173 -4
-39 -2 -68 7 -87 13 -31 80 -70 119 -70 32 0 81 -31 132 -84 48 -48 72 -115
87 -234 5 -40 13 -79 17 -85 4 -7 11 -120 14 -252 5 -173 12 -261 24 -315 10
-43 18 -119 18 -177 l1 -103 598 0 598 0 0 895 0 895 -1600 0 -1600 0 0 -895z"/>
<path d="M1307 558 c-8 -13 -18 -34 -22 -47 -4 -14 -21 -46 -36 -72 -24 -37 -29 -57
-29 -105 1 -32 7 -70 15 -84 8 -14 14 -52 15 -88 0 -54 -4 -66 -25 -88 -14
-14 -25 -34 -25 -44 0 -18 7 -20 89 -20 l90 0 -6 105 c-4 74 -1 142 12 234
l18 131 -25 47 c-28 55 -50 64 -71 31z"/>
<path d="M1690 35 c0 -16 6 -25 15 -25 9 0 15 9 15 25 0 16 -6 25 -15 25 -9 0 -15 -9
-15 -25z"/>
</g>
</svg>
