<svg version="1.0" xmlns="http://www.w3.org/2000/svg"
 width="668px" style="transform:scale(1,1.001);" height="375.75px" viewBox="0 0 320.000000 180.000000"
 preserveAspectRatio="xMidYMid meet">
<g transform="translate(0.000000,180.000000) scale(0.100000,-0.100000)"
fill="#000000" stroke="none">
<path d="M0 905 l0 -895 774 0 774 0 6 54 c4 31 23 84 45 127 61 120 162 303 177 320 8
8 14 19 14 23 0 4 9 19 20 33 11 14 20 33 20 42 0 9 9 33 20 54 24 44 26 110
5 187 -8 30 -15 78 -15 106 0 50 -18 102 -43 122 -6 5 -32 13 -57 17 -47 7
-162 57 -178 78 -19 25 -32 109 -32 210 0 111 16 187 50 229 21 28 82 43 110
28 26 -14 30 -77 9 -125 -21 -46 -27 -199 -8 -211 28 -17 88 -6 138 26 28 18
51 38 51 45 0 6 -9 29 -21 50 -11 22 -23 61 -26 87 -5 41 -2 53 22 88 32 46
54 54 131 48 47 -4 60 -10 94 -44 39 -39 40 -40 40 -116 0 -67 3 -80 25 -106
22 -26 31 -30 107 -35 68 -6 86 -11 98 -28 12 -15 25 -20 51 -17 29 2 34 7 37
30 2 15 -9 56 -25 90 -19 43 -28 79 -28 115 0 57 14 79 55 85 22 3 26 -2 36
-37 6 -22 18 -57 27 -77 9 -21 17 -44 17 -52 0 -9 9 -35 19 -58 65 -144 73
-189 47 -253 -17 -40 -26 -43 -154 -48 -51 -2 -97 -8 -103 -14 -22 -22 -17
-779 7 -1015 l6 -58 429 0 429 0 0 895 0 895 -1600 0 -1600 0 0 -895z"/>
<path d="M1990 353 c-8 -2 -42 -37 -74 -76 -33 -40 -97 -106 -142 -147 -53 -49 -82 -83
-83 -97 l-1 -23 235 0 c235 0 235 0 235 22 0 12 -9 32 -21 44 -13 14 -32 66
-50 141 -34 133 -47 152 -99 136z"/>
</g>
</svg>
