<svg version="1.0" xmlns="http://www.w3.org/2000/svg"
 width="668px" style="transform:scale(1,1.001);" height="375.75px" viewBox="0 0 320.000000 180.000000"
 preserveAspectRatio="xMidYMid meet">
<g transform="translate(0.000000,180.000000) scale(0.100000,-0.100000)"
fill="#000000" stroke="none">
<path d="M0 905 l0 -895 1600 0 1600 0 0 895 0 895 -1600 0 -1600 0 0 -895z m1751 787
c13 -10 38 -24 55 -31 17 -6 45 -31 62 -53 29 -38 32 -48 32 -116 0 -60 -6
-86 -30 -142 -16 -38 -30 -79 -30 -93 0 -37 24 -77 59 -98 17 -10 31 -23 31
-28 0 -5 17 -16 38 -24 20 -8 46 -24 56 -36 11 -12 24 -21 30 -21 20 -1 93
-75 118 -120 33 -58 65 -209 72 -335 3 -55 10 -116 16 -135 19 -64 13 -117
-16 -143 -25 -24 -28 -24 -187 -21 -89 3 -338 8 -554 12 -292 5 -395 10 -405
20 -17 17 -14 136 6 202 9 29 16 75 16 102 0 76 85 269 144 328 54 55 130 112
196 149 20 11 44 35 55 54 16 31 17 39 5 82 -7 26 -23 59 -36 74 -48 57 -69
113 -69 182 0 61 3 69 34 105 19 21 48 47 64 57 17 10 36 25 44 33 23 22 163
19 194 -4z"/>
</g>
</svg>
