<svg version="1.0" xmlns="http://www.w3.org/2000/svg"
 width="668px" style="transform:scale(1,1.001);" height="375.75px" viewBox="0 0 320.000000 180.000000"
 preserveAspectRatio="xMidYMid meet">
<g transform="translate(0.000000,180.000000) scale(0.100000,-0.100000)"
fill="#000000" stroke="none">
<path d="M0 905 l0 -895 600 0 600 0 0 21 c0 11 -7 34 -17 49 -18 30 -21 16 33 166 14
38 15 49 4 72 -13 26 -15 33 -18 59 -1 6 -26 19 -54 28 -48 16 -86 43 -139
100 -60 64 -90 102 -94 120 -26 112 -46 187 -58 220 -9 24 -19 119 -26 240 -6
110 -14 227 -17 260 -4 33 -6 85 -5 116 1 31 -7 101 -17 155 -11 54 -17 118
-15 142 l5 42 -391 0 -391 0 0 -895z"/>
<path d="M1114 1593 c1 -194 2 -210 22 -238 64 -91 95 -145 110 -187 12 -36 28 -56 70
-89 55 -42 57 -43 137 -43 73 -1 88 3 137 29 49 26 66 30 160 33 58 2 111 9
118 15 16 13 8 102 -12 152 -7 17 -13 46 -14 65 -1 19 -8 55 -17 79 -22 62
-20 77 24 165 26 52 57 95 92 127 29 27 56 49 61 49 4 0 8 11 8 25 l0 25 -449
0 -448 0 1 -207z"/>
<path d="M2610 1777 c0 -14 10 -29 28 -39 57 -35 163 -153 182 -202 5 -15 10 -83 10
-152 0 -158 -4 -168 -111 -294 -116 -137 -123 -153 -117 -293 4 -96 7 -106 43
-172 21 -38 50 -83 65 -100 15 -16 36 -46 45 -65 9 -19 30 -48 45 -65 15 -16
35 -57 45 -90 10 -33 28 -73 40 -90 31 -43 45 -90 45 -151 l0 -54 135 0 135 0
0 895 0 895 -295 0 -295 0 0 -23z"/>
</g>
</svg>
