<svg version="1.0" xmlns="http://www.w3.org/2000/svg"
 width="668px" style="transform:scale(1,1.001);" height="375.75px" viewBox="0 0 320.000000 180.000000"
 preserveAspectRatio="xMidYMid meet">
<g transform="translate(0.000000,180.000000) scale(0.100000,-0.100000)"
fill="#000000" stroke="none">
<path d="M0 905 l0 -895 1055 0 1055 0 0 21 c0 11 -8 33 -19 47 -10 15 -44 72 -76 127
-31 55 -64 107 -74 115 -9 8 -27 33 -40 55 -40 67 -50 345 -16 435 39 103 61
150 91 195 38 58 152 175 170 175 7 0 21 11 32 25 13 17 36 28 67 34 29 5 58
19 76 37 28 27 29 31 29 121 0 91 1 96 32 134 28 35 36 39 75 39 34 0 48 -6
65 -25 12 -14 26 -25 31 -25 5 0 25 -12 43 -27 89 -72 114 -97 114 -113 0 -9
9 -27 20 -40 24 -28 27 -105 5 -137 -8 -11 -30 -24 -49 -27 -23 -5 -44 -19
-67 -49 -19 -23 -55 -63 -82 -88 -26 -26 -57 -69 -68 -96 -12 -26 -29 -66 -39
-88 -86 -190 -95 -218 -94 -300 1 -79 2 -81 62 -181 33 -56 72 -132 87 -169
27 -67 27 -76 9 -162 l-6 -33 356 0 356 0 0 895 0 895 -1600 0 -1600 0 0 -895z"/>
</g>
</svg>
