<svg version="1.0" xmlns="http://www.w3.org/2000/svg"
 width="668px" style="transform:scale(1,1.001);" height="375.75px" viewBox="0 0 320.000000 180.000000"
 preserveAspectRatio="xMidYMid meet">
<g transform="translate(0.000000,180.000000) scale(0.100000,-0.100000)"
fill="#000000" stroke="none">
<path d="M0 905 l0 -895 499 0 498 0 6 48 c3 26 19 76 35 112 65 143 98 410 68 554 -9
43 -16 113 -16 155 0 42 -7 103 -15 136 -9 32 -20 93 -26 134 -6 42 -19 109
-30 150 -31 122 -25 157 57 328 24 51 44 97 44 102 0 20 20 21 52 1 28 -17 44
-19 98 -15 l65 6 40 -46 c22 -26 52 -59 67 -75 29 -31 32 -43 48 -192 9 -73 8
-103 -1 -120 -20 -40 -41 -57 -75 -64 -18 -3 -39 -13 -45 -21 -9 -10 -12 -97
-10 -331 2 -362 0 -375 -73 -502 -53 -91 -66 -145 -66 -271 l0 -89 990 0 990
0 0 895 0 895 -1600 0 -1600 0 0 -895z"/>
</g>
</svg>
