<svg version="1.0" xmlns="http://www.w3.org/2000/svg"
 width="668px" style="transform:scale(1,1.001);" height="375.75px" viewBox="0 0 320.000000 180.000000"
 preserveAspectRatio="xMidYMid meet">
<g transform="translate(0.000000,180.000000) scale(0.100000,-0.100000)"
fill="#000000" stroke="none">
<path d="M0 905 l0 -895 1600 0 1600 0 0 895 0 895 -1600 0 -1600 0 0 -895z m1345 695
c70 -26 155 -94 179 -144 26 -54 21 -164 -9 -241 -21 -51 -25 -78 -23 -131 l3
-68 47 -34 c33 -23 65 -36 100 -41 29 -4 67 -15 83 -23 17 -9 49 -20 70 -24
22 -4 52 -15 67 -25 14 -11 29 -19 33 -19 4 0 26 -17 49 -37 74 -67 123 -161
177 -343 24 -81 24 -121 1 -150 -17 -21 -23 -22 -172 -18 -299 6 -867 0 -1074
-11 -250 -14 -241 -18 -241 92 0 120 54 219 190 350 32 31 64 57 69 57 5 0 23
11 40 24 17 13 40 26 52 30 11 3 35 22 53 40 l34 35 -23 43 c-12 24 -36 60
-54 80 -17 20 -44 55 -61 77 -16 22 -54 66 -82 96 -49 51 -53 59 -53 105 0 44
5 55 48 107 27 32 63 72 80 90 34 33 125 83 153 83 9 0 32 7 50 15 45 20 137
14 214 -15z"/>
</g>
</svg>
