<svg version="1.0" xmlns="http://www.w3.org/2000/svg"
 width="668px" style="transform:scale(1,1.001);" height="375.75px" viewBox="0 0 320.000000 180.000000"
 preserveAspectRatio="xMidYMid meet">
<g transform="translate(0.000000,180.000000) scale(0.100000,-0.100000)"
fill="#000000" stroke="none">
<path d="M0 905 l0 -895 1600 0 1600 0 0 895 0 895 -1600 0 -1600 0 0 -895z m1843 737
c7 -5 28 -13 47 -17 54 -11 134 -71 177 -133 36 -53 38 -60 38 -132 0 -65 -5
-83 -29 -125 -16 -28 -39 -61 -51 -75 -31 -35 -65 -124 -57 -152 11 -44 43
-86 70 -93 15 -3 36 -15 47 -24 11 -10 38 -21 59 -24 21 -4 48 -15 60 -25 12
-11 36 -27 54 -36 17 -9 43 -34 57 -55 13 -22 29 -42 35 -46 5 -3 10 -16 10
-28 0 -12 9 -39 20 -60 21 -39 41 -148 41 -231 1 -36 -4 -54 -19 -69 -20 -19
-31 -20 -409 -18 -844 4 -942 7 -963 26 -30 27 -34 69 -12 118 11 23 23 56 27
72 3 17 13 37 20 45 8 9 21 32 29 51 27 66 94 138 180 194 46 30 98 58 117 61
19 4 45 15 59 24 14 10 35 20 47 24 39 12 63 58 63 118 0 41 -5 59 -19 72 -11
10 -21 38 -25 68 -4 28 -15 67 -26 87 -75 144 -80 163 -56 210 18 34 133 129
201 165 44 23 58 26 123 22 40 -3 79 -9 85 -14z"/>
</g>
</svg>
