<svg version="1.0" xmlns="http://www.w3.org/2000/svg"
 width="668px" style="transform:scale(1,1.001);" height="375.75px" viewBox="0 0 320.000000 180.000000"
 preserveAspectRatio="xMidYMid meet">
<g transform="translate(0.000000,180.000000) scale(0.100000,-0.100000)"
fill="#000000" stroke="none">
<path d="M0 905 l0 -895 1600 0 1600 0 0 895 0 895 -1600 0 -1600 0 0 -895z m1442 761
c24 -8 60 -18 81 -21 57 -11 140 -85 177 -158 35 -70 37 -93 11 -150 -10 -23
-22 -64 -26 -91 -4 -27 -16 -61 -27 -77 -14 -18 -21 -43 -21 -77 -1 -48 2 -53
44 -91 24 -22 48 -40 53 -41 5 0 38 -14 73 -30 34 -17 74 -30 88 -30 66 0 265
-154 265 -204 0 -12 9 -36 20 -54 14 -23 24 -65 31 -135 15 -140 13 -158 -16
-184 l-25 -22 -667 6 c-729 5 -688 2 -713 63 -10 25 -7 45 19 141 20 71 39
117 50 126 10 7 22 24 25 38 4 14 11 25 16 25 8 0 37 24 95 80 11 10 37 26 58
35 20 8 37 19 37 24 0 5 17 16 38 25 48 20 64 34 88 74 18 32 18 34 1 63 -9
17 -17 36 -17 43 0 7 -10 23 -21 35 -30 32 -89 121 -89 133 0 6 -23 37 -52 70
-46 53 -52 65 -52 107 -1 42 4 53 48 104 90 106 136 137 239 162 114 28 116
28 169 11z"/>
</g>
</svg>
