<svg version="1.0" xmlns="http://www.w3.org/2000/svg"
 width="668px" style="transform:scale(1,1.001);" height="375.75px" viewBox="0 0 320.000000 180.000000"
 preserveAspectRatio="xMidYMid meet">
<g transform="translate(0.000000,180.000000) scale(0.100000,-0.100000)"
fill="#000000" stroke="none">
<path d="M0 905 l0 -895 651 0 652 0 -7 37 c-9 48 -10 24 11 258 27 304 26 328 -54 728
-8 43 -12 93 -9 110 9 51 -15 120 -48 135 -15 8 -32 25 -38 38 -6 13 -19 24
-28 24 -10 0 -34 13 -54 29 -20 16 -51 32 -70 35 -24 5 -37 14 -42 29 -3 12
-13 30 -22 39 -13 16 -13 21 9 53 27 39 32 41 48 21 7 -8 25 -17 40 -21 16 -3
41 -19 56 -35 28 -29 32 -30 114 -29 47 0 109 6 136 12 l50 12 5 78 c5 74 7
80 39 109 31 28 39 30 83 25 62 -8 114 -46 121 -90 5 -35 -8 -83 -29 -108 -35
-40 4 -145 58 -156 16 -3 34 -16 41 -28 20 -38 96 -95 126 -95 15 0 47 -13 72
-29 26 -17 64 -31 94 -35 34 -4 56 -13 70 -29 11 -13 32 -28 48 -35 55 -23 19
-52 -66 -52 -38 0 -68 7 -101 25 -53 28 -81 32 -89 10 -7 -17 5 -26 47 -35 23
-4 31 -12 32 -29 1 -12 6 -27 13 -34 18 -18 13 -27 -16 -27 -21 0 -33 8 -45
30 -12 20 -25 30 -41 30 -13 0 -38 14 -55 30 -18 17 -40 30 -50 30 -11 0 -31
11 -46 25 -14 13 -42 27 -62 31 -30 5 -40 3 -61 -18 -46 -46 -49 -118 -13
-313 14 -78 11 -191 -6 -259 -9 -33 -22 -97 -29 -141 -7 -44 -18 -101 -24
-127 -13 -58 3 -103 49 -142 29 -24 31 -29 24 -71 l-6 -45 811 0 811 0 0 895
0 895 -1600 0 -1600 0 0 -895z"/>
</g>
</svg>
