<svg version="1.0" xmlns="http://www.w3.org/2000/svg"
 width="668px" style="transform:scale(1,1.001);" height="375.75px" viewBox="0 0 320.000000 180.000000"
 preserveAspectRatio="xMidYMid meet">
<g transform="translate(0.000000,180.000000) scale(0.100000,-0.100000)"
fill="#000000" stroke="none">
<path d="M0 905 l0 -895 1600 0 1600 0 0 895 0 895 -1600 0 -1600 0 0 -895z m1834 807
c3 -4 30 -21 62 -37 100 -51 141 -134 110 -223 -10 -26 -21 -62 -26 -80 -4
-19 -17 -44 -28 -55 -28 -30 -37 -72 -23 -105 7 -15 35 -47 63 -72 27 -25 61
-55 74 -67 13 -12 36 -29 51 -38 36 -21 123 -131 123 -155 0 -9 7 -34 15 -54
9 -21 20 -93 25 -165 5 -70 14 -140 20 -157 7 -16 12 -62 13 -101 1 -63 -2
-76 -21 -95 -21 -22 -27 -22 -234 -20 -117 2 -280 7 -363 13 -82 5 -235 11
-340 12 -123 2 -198 8 -212 15 -32 17 -39 83 -18 163 9 35 20 97 25 138 6 41
14 79 19 85 5 6 14 31 20 56 14 53 57 144 77 161 8 6 14 17 14 23 0 19 112
115 170 146 14 7 43 27 65 44 109 84 113 96 62 190 -19 34 -44 91 -56 128 -33
100 -21 128 99 221 43 34 49 35 127 36 45 1 84 -3 87 -7z"/>
</g>
</svg>
