<svg version="1.0" xmlns="http://www.w3.org/2000/svg"
 width="668px" style="transform:scale(1,1.001);" height="375.75px" viewBox="0 0 320.000000 180.000000"
 preserveAspectRatio="xMidYMid meet">
<g transform="translate(0.000000,180.000000) scale(0.100000,-0.100000)"
fill="#000000" stroke="none">
<path d="M0 905 l0 -895 570 0 570 0 0 70 c0 49 6 82 19 108 10 20 21 63 24 95 3 32 15
77 26 100 11 23 23 69 26 102 4 33 15 74 25 90 9 17 27 91 40 165 19 115 21
144 11 205 -5 38 -13 123 -16 187 -3 64 -9 128 -15 142 -5 15 -35 42 -67 63
-32 20 -60 39 -63 43 -3 4 -14 10 -26 14 -11 3 -37 22 -58 41 -21 19 -42 35
-47 35 -5 0 -9 9 -9 19 0 11 -10 28 -22 38 -81 66 -117 158 -80 203 18 23 22
23 61 12 44 -14 49 -18 84 -72 21 -32 55 -60 132 -110 35 -23 136 -28 152 -7
6 6 13 48 17 92 3 43 11 84 16 89 6 6 10 23 10 38 l0 28 -690 0 -690 0 0 -895z"/>
<path d="M1670 1783 c0 -10 7 -37 16 -60 14 -35 15 -49 5 -69 -13 -29 -15 -98 -3 -90 5
3 19 -8 31 -24 12 -17 40 -39 64 -51 46 -23 117 -76 130 -95 4 -7 21 -15 37
-19 16 -4 39 -20 51 -36 11 -16 27 -29 34 -29 8 0 30 -16 49 -35 22 -21 45
-35 60 -35 18 0 30 -9 41 -29 8 -16 23 -32 34 -36 10 -3 21 -15 24 -26 3 -12
22 -27 46 -36 22 -9 43 -24 46 -34 3 -10 15 -21 26 -24 10 -4 19 -12 19 -20 0
-34 -109 -20 -142 20 -21 25 -23 16 -3 -21 29 -55 13 -118 -31 -127 -23 -4
-34 2 -61 31 -18 19 -39 59 -48 87 -11 40 -26 62 -65 96 -27 24 -74 65 -104
91 -41 38 -60 48 -87 48 -19 0 -40 -5 -47 -12 -16 -16 -16 -75 0 -80 7 -3 14
-32 16 -70 3 -54 0 -75 -18 -111 -16 -32 -21 -55 -17 -83 8 -56 37 -154 53
-179 8 -12 18 -45 24 -74 5 -29 19 -64 30 -78 11 -14 20 -37 20 -52 0 -14 11
-50 25 -79 14 -30 25 -62 25 -71 0 -9 11 -32 25 -51 14 -19 25 -46 25 -60 0
-14 11 -41 25 -60 22 -29 25 -44 25 -112 l0 -78 575 0 575 0 0 895 0 895 -765
0 c-716 0 -765 -1 -765 -17z"/>
<path d="M1547 559 c-10 -6 -28 -31 -41 -57 -56 -112 -119 -228 -131 -242 -7 -8 -18
-35 -25 -60 -7 -25 -17 -52 -24 -60 -25 -30 -56 -92 -56 -111 0 -18 10 -19
325 -19 376 0 354 -8 285 106 -22 36 -40 74 -40 84 0 9 -11 29 -25 44 -14 15
-25 33 -25 40 0 8 -7 19 -16 27 -8 7 -25 30 -37 52 -25 45 -63 109 -92 154
-17 28 -53 54 -73 53 -4 0 -15 -5 -25 -11z"/>
</g>
</svg>
