<svg version="1.0" xmlns="http://www.w3.org/2000/svg"
 width="668px" style="transform:scale(1,1.001);" height="375.75px" viewBox="0 0 320.000000 180.000000"
 preserveAspectRatio="xMidYMid meet">
<g transform="translate(0.000000,180.000000) scale(0.100000,-0.100000)"
fill="#000000" stroke="none">
<path d="M0 905 l0 -895 590 0 590 0 0 53 c0 30 10 83 24 122 53 152 60 170 68 173 29
12 -34 208 -83 261 -25 27 -39 86 -39 168 0 68 3 77 61 190 34 64 81 142 105
171 55 67 56 90 4 135 -36 31 -40 38 -40 81 0 60 10 77 71 126 45 35 57 40
104 40 49 0 55 -3 88 -39 19 -21 38 -53 41 -70 3 -17 8 -44 11 -60 4 -18 16
-33 33 -40 15 -7 38 -20 52 -29 14 -9 40 -21 59 -27 20 -6 44 -25 62 -50 25
-35 30 -54 40 -155 6 -65 21 -147 35 -189 13 -40 24 -96 24 -124 0 -28 7 -78
16 -111 23 -92 54 -198 66 -226 6 -14 14 -41 19 -60 4 -19 18 -66 31 -105 17
-53 22 -90 21 -152 l-1 -83 574 0 574 0 0 895 0 895 -1600 0 -1600 0 0 -895z"/>
<path d="M1592 403 c-63 -57 -282 -343 -282 -368 l0 -25 290 0 c282 0 290 1 290 20 0
11 -9 36 -19 57 -11 21 -23 56 -27 78 -4 21 -20 61 -36 88 -15 26 -28 50 -28
52 0 12 -51 77 -78 100 -39 32 -72 32 -110 -2z"/>
</g>
</svg>
