<svg version="1.0" xmlns="http://www.w3.org/2000/svg"
 width="668px" style="transform:scale(1,1.001);" height="375.75px" viewBox="0 0 320.000000 180.000000"
 preserveAspectRatio="xMidYMid meet">
<g transform="translate(0.000000,180.000000) scale(0.100000,-0.100000)"
fill="#000000" stroke="none">
<path d="M0 905 l0 -895 780 0 780 0 0 25 c0 14 -9 57 -19 97 -11 40 -23 96 -26 123
-13 98 -36 200 -49 214 -12 11 -15 8 -21 -20 -9 -43 -32 -69 -59 -69 -29 1
-60 47 -57 84 1 17 3 146 5 286 2 284 5 296 70 359 38 37 44 63 25 105 -15 31
14 95 51 113 38 19 120 16 166 -6 51 -25 67 -59 59 -126 -6 -48 -5 -53 28 -93
44 -53 80 -127 101 -212 10 -36 21 -79 26 -96 6 -17 10 -39 10 -50 0 -10 14
-57 30 -104 17 -46 30 -85 30 -86 0 -1 13 -7 29 -12 34 -12 69 -68 53 -84 -6
-6 -30 -12 -54 -15 -37 -4 -48 0 -78 25 -20 17 -45 48 -55 71 -21 43 -40 53
-42 24 -1 -10 -6 -67 -12 -128 -5 -60 -17 -132 -26 -160 -9 -27 -20 -79 -25
-113 -5 -42 -15 -72 -29 -86 -12 -12 -21 -32 -21 -44 l0 -22 765 0 765 0 0
895 0 895 -1600 0 -1600 0 0 -895z"/>
</g>
</svg>
