<svg version="1.0" xmlns="http://www.w3.org/2000/svg"
 width="668px" style="transform:scale(1,1.001);" height="375.75px" viewBox="0 0 320.000000 180.000000"
 preserveAspectRatio="xMidYMid meet">
<g transform="translate(0.000000,180.000000) scale(0.100000,-0.100000)"
fill="#000000" stroke="none">
<path d="M0 905 l0 -895 1600 0 1600 0 0 895 0 895 -1600 0 -1600 0 0 -895z m1319 699
c102 -35 152 -72 195 -143 42 -69 46 -112 17 -198 -27 -79 -44 -180 -36 -219
7 -41 70 -90 126 -99 22 -4 52 -13 68 -21 15 -8 50 -18 77 -23 69 -14 155 -63
200 -116 80 -92 94 -114 105 -166 6 -30 18 -62 26 -71 8 -9 22 -60 31 -113
l17 -97 -29 -24 c-27 -24 -31 -24 -119 -17 -142 12 -940 9 -1141 -5 -220 -15
-216 -17 -216 97 0 88 20 139 92 237 56 74 131 140 223 195 75 44 104 73 105
102 0 24 -26 75 -59 113 -14 16 -37 45 -51 64 -32 44 -101 123 -117 133 -19
12 -35 73 -28 111 4 19 25 56 49 83 22 26 50 59 61 71 34 40 100 80 151 93 27
7 63 18 79 25 45 20 91 17 174 -12z"/>
</g>
</svg>
