<svg version="1.0" xmlns="http://www.w3.org/2000/svg"
 width="668px" style="transform:scale(1,1.001);" height="375.75px" viewBox="0 0 320.000000 180.000000"
 preserveAspectRatio="xMidYMid meet">
<g transform="translate(0.000000,180.000000) scale(0.100000,-0.100000)"
fill="#000000" stroke="none">
<path d="M0 905 l0 -895 1600 0 1600 0 0 895 0 895 -1600 0 -1600 0 0 -895z m1932 682
c67 -28 105 -62 118 -106 14 -49 4 -157 -19 -205 -33 -67 -28 -94 30 -159 28
-31 55 -57 61 -57 5 0 23 -10 40 -22 93 -70 144 -157 155 -263 3 -35 15 -78
30 -105 48 -87 53 -113 36 -193 -9 -45 -25 -87 -42 -112 -45 -63 -87 -67 -556
-60 -429 7 -559 14 -592 33 -12 7 -34 32 -48 56 -21 37 -25 55 -25 127 0 56 6
102 18 134 24 67 29 74 90 125 38 31 66 68 98 127 41 75 102 143 129 143 6 0
26 10 45 23 19 13 54 29 77 35 23 7 56 24 73 38 39 33 33 60 -27 129 -47 55
-59 92 -49 163 5 39 14 54 49 87 105 98 184 114 309 62z"/>
</g>
</svg>
