<svg version="1.0" xmlns="http://www.w3.org/2000/svg"
 width="668px" style="transform:scale(1,1.001);" height="375.75px" viewBox="0 0 320.000000 180.000000"
 preserveAspectRatio="xMidYMid meet">
<g transform="translate(0.000000,180.000000) scale(0.100000,-0.100000)"
fill="#000000" stroke="none">
<path d="M0 905 l0 -895 545 0 546 0 -7 63 c-9 97 11 249 49 367 38 115 89 234 105 244
24 15 54 135 50 203 l-3 68 -50 5 c-57 6 -90 22 -104 49 -16 30 -25 250 -12
298 14 52 70 137 94 141 11 2 39 -16 73 -48 l54 -51 31 18 c61 36 64 45 39
113 -26 68 -23 91 19 140 l29 35 86 -1 c95 -1 107 -7 137 -65 17 -35 18 -43 5
-98 -17 -74 -8 -98 54 -128 57 -29 106 -30 113 -3 3 11 17 25 31 31 20 10 30
9 50 -4 31 -21 40 -72 26 -152 -5 -33 -10 -84 -10 -114 0 -49 -3 -57 -40 -93
-41 -41 -65 -46 -122 -23 -37 15 -75 -214 -44 -273 9 -17 16 -40 16 -51 0 -21
31 -129 56 -191 7 -19 17 -51 23 -70 5 -19 19 -69 31 -110 17 -57 22 -102 23
-187 l0 -113 654 0 653 0 0 895 0 895 -1600 0 -1600 0 0 -895z"/>
<path d="M1416 478 c-26 -29 -55 -66 -63 -83 -9 -16 -21 -37 -28 -45 -25 -30 -76 -135
-87 -180 -6 -25 -17 -57 -24 -72 -8 -15 -14 -41 -14 -58 l0 -30 285 0 c317 0
298 -5 276 66 -5 16 -17 56 -27 89 -10 33 -26 69 -36 81 -10 11 -18 23 -18 27
0 4 -15 29 -33 55 -18 26 -42 65 -53 87 -10 22 -33 57 -49 77 -43 54 -68 51
-129 -14z"/>
</g>
</svg>
