<svg version="1.0" xmlns="http://www.w3.org/2000/svg"
 width="668px" style="transform:scale(1,1.001);" height="375.75px" viewBox="0 0 320.000000 180.000000"
 preserveAspectRatio="xMidYMid meet">
<g transform="translate(0.000000,180.000000) scale(0.100000,-0.100000)"
fill="#000000" stroke="none">
<path d="M0 905 l0 -895 1600 0 1600 0 0 895 0 895 -1600 0 -1600 0 0 -895z m2017 662
c75 -20 100 -32 149 -72 32 -26 74 -64 92 -85 27 -33 32 -46 32 -92 0 -39 -7
-64 -25 -93 -13 -22 -25 -49 -25 -60 0 -11 -8 -32 -17 -45 -36 -51 -83 -155
-83 -184 0 -46 44 -110 97 -142 71 -43 104 -62 140 -79 47 -22 172 -151 215
-221 24 -39 39 -79 44 -114 4 -30 15 -68 26 -85 10 -16 18 -40 18 -51 0 -42
-22 -47 -153 -41 -151 8 -167 12 -206 48 -17 15 -46 30 -64 33 -67 10 -294 16
-633 17 -327 0 -352 1 -382 19 -44 27 -50 61 -24 135 11 33 23 74 27 92 9 44
99 133 183 179 37 20 77 45 90 55 13 10 37 21 55 25 34 7 68 30 123 81 30 28
34 37 34 83 0 41 -5 58 -25 82 -14 16 -25 37 -25 46 0 9 -10 33 -22 52 -25 39
-67 134 -75 166 -10 44 34 107 144 204 33 30 125 67 169 69 18 0 72 -9 121
-22z"/>
</g>
</svg>
