<svg version="1.0" xmlns="http://www.w3.org/2000/svg"
 width="668px" style="transform:scale(1,1.001);" height="375.75px" viewBox="0 0 320.000000 180.000000"
 preserveAspectRatio="xMidYMid meet">
<g transform="translate(0.000000,180.000000) scale(0.100000,-0.100000)"
fill="#000000" stroke="none">
<path d="M0 905 l0 -895 1600 0 1600 0 0 895 0 895 -906 0 -905 0 6 -78 c6 -69 5 -85
-15 -128 -12 -27 -24 -74 -27 -105 -5 -54 -4 -58 27 -85 35 -32 81 -41 216
-43 61 -1 85 3 94 14 7 8 16 49 21 91 10 92 48 163 94 176 17 5 66 6 110 3 72
-6 83 -10 113 -38 39 -38 72 -107 72 -151 0 -43 -34 -95 -74 -111 -33 -14 -46
-32 -46 -62 0 -21 55 -70 104 -92 49 -21 129 -109 158 -173 41 -90 68 -172 68
-205 0 -46 -30 -102 -79 -146 -37 -33 -47 -37 -95 -37 -47 0 -57 -4 -85 -32
-41 -42 -46 -63 -32 -152 12 -82 1 -141 -27 -148 -9 -2 -112 -1 -229 2 -177 4
-215 8 -228 21 -11 11 -19 45 -24 100 -4 46 -13 93 -19 105 -27 50 -44 168
-51 344 -5 127 -12 194 -22 214 -8 17 -48 58 -89 93 -41 34 -93 78 -115 97
l-40 35 1 94 c1 67 8 113 23 158 48 147 61 190 61 214 l0 25 -630 0 -630 0 0
-895z"/>
</g>
</svg>
