<svg version="1.0" xmlns="http://www.w3.org/2000/svg"
 width="668px" style="transform:scale(1,1.001);" height="375.75px" viewBox="0 0 320.000000 180.000000"
 preserveAspectRatio="xMidYMid meet">
<g transform="translate(0.000000,180.000000) scale(0.100000,-0.100000)"
fill="#000000" stroke="none">
<path d="M0 905 l0 -895 696 0 696 0 -7 68 c-4 37 -18 110 -32 162 -13 52 -26 131 -29
175 -3 44 -10 94 -15 110 -6 17 -14 68 -19 114 -5 46 -11 86 -15 89 -10 11
-52 -20 -69 -52 -28 -52 -100 -126 -123 -126 -18 0 -22 9 -28 56 -6 53 -5 57
29 99 20 24 36 47 36 52 0 4 15 23 34 41 31 30 61 99 81 186 3 16 24 54 46 84
43 60 47 78 24 108 -23 31 -19 92 11 131 24 31 28 33 89 33 78 0 101 -19 110
-89 4 -25 7 -53 8 -61 2 -13 17 -23 77 -49 14 -6 32 -15 40 -19 8 -5 22 -13
31 -18 9 -5 41 -26 71 -46 35 -24 67 -38 86 -38 37 0 52 -22 52 -75 0 -53 -30
-63 -119 -42 -113 28 -125 23 -137 -51 -8 -49 10 -233 33 -342 9 -41 16 -110
17 -152 l1 -77 -39 -36 -39 -35 6 -63 c9 -81 2 -90 -56 -82 -60 9 -87 0 -87
-31 l0 -24 870 0 870 0 0 895 0 895 -1600 0 -1600 0 0 -895z"/>
<path d="M1470 441 c-15 -28 -12 -76 6 -119 15 -35 16 -36 30 -18 18 25 18 77 0 121
-17 40 -21 42 -36 16z"/>
</g>
</svg>
