<svg version="1.0" xmlns="http://www.w3.org/2000/svg"
 width="668px" style="transform:scale(1,1.001);" height="375.75px" viewBox="0 0 320.000000 180.000000"
 preserveAspectRatio="xMidYMid meet">
<g transform="translate(0.000000,180.000000) scale(0.100000,-0.100000)"
fill="#000000" stroke="none">
<path d="M0 905 l0 -895 1600 0 1600 0 0 895 0 895 -1600 0 -1600 0 0 -895z m1849 779
c79 -40 130 -91 132 -132 5 -95 -4 -140 -38 -210 -28 -59 -34 -79 -28 -108 7
-38 50 -86 118 -130 20 -13 37 -28 37 -33 0 -6 9 -13 20 -16 24 -8 83 -69 121
-125 31 -45 52 -138 73 -320 17 -142 21 -268 8 -286 -16 -24 -53 -30 -187 -28
-77 2 -313 5 -525 8 -212 4 -395 9 -407 11 -27 6 -53 52 -53 92 0 15 7 50 15
77 8 27 15 70 15 95 1 25 8 64 16 86 8 22 21 60 29 85 24 85 94 203 148 252
29 26 57 47 63 48 6 0 25 14 42 30 18 17 36 30 42 30 17 0 99 87 105 112 6 23
-17 92 -34 103 -5 3 -22 31 -37 63 -21 44 -28 72 -28 128 -1 63 2 73 27 104
43 50 140 98 204 99 41 1 66 -6 122 -35z"/>
</g>
</svg>
