<svg version="1.0" xmlns="http://www.w3.org/2000/svg"
 width="668px" style="transform:scale(1,1.001);" height="375.75px" viewBox="0 0 320.000000 180.000000"
 preserveAspectRatio="xMidYMid meet">
<g transform="translate(0.000000,180.000000) scale(0.100000,-0.100000)"
fill="#000000" stroke="none">
<path d="M0 905 l0 -895 543 0 543 0 2 303 c1 166 7 374 13 462 10 150 8 240 -8 281 -3
9 -38 32 -77 50 -39 18 -81 44 -93 58 -13 14 -27 26 -32 26 -5 0 -28 23 -50
51 -35 44 -41 59 -41 98 0 63 11 78 44 63 14 -6 26 -18 26 -26 0 -18 55 -82
82 -97 34 -18 58 0 89 67 20 41 45 76 71 97 44 35 44 40 17 154 -16 66 0 128
37 145 15 7 24 19 24 35 l0 23 -595 0 -595 0 0 -895z"/>
<path d="M1330 1779 c0 -12 8 -28 18 -35 14 -10 18 -33 22 -115 l5 -103 41 -16 c73 -27
126 -87 154 -176 6 -21 18 -53 26 -71 8 -17 14 -34 14 -37 0 -3 14 -29 31 -57
43 -68 54 -130 33 -175 -24 -49 -54 -46 -89 11 -33 51 -52 62 -74 41 -17 -18
-17 -88 -1 -311 5 -77 10 -272 10 -432 l0 -293 840 0 840 0 0 895 0 895 -935
0 -935 0 0 -21z"/>
<path d="M1296 600 c-9 -29 -21 -91 -26 -138 -6 -47 -13 -88 -15 -92 -2 -4 -11 -65 -19
-137 -9 -72 -20 -142 -26 -157 -24 -64 -21 -66 101 -66 l111 0 -5 53 c-21 207
-29 281 -38 342 -6 39 -14 101 -19 139 -5 48 -14 75 -28 89 l-20 20 -16 -53z"/>
</g>
</svg>
