<svg version="1.0" xmlns="http://www.w3.org/2000/svg"
 width="668px" style="transform:scale(1,1.001);" height="375.75px" viewBox="0 0 320.000000 180.000000"
 preserveAspectRatio="xMidYMid meet">
<g transform="translate(0.000000,180.000000) scale(0.100000,-0.100000)"
fill="#000000" stroke="none">
<path d="M0 905 l0 -895 535 0 535 0 0 53 c0 67 13 144 44 281 22 94 25 123 19 210 -5
97 7 202 37 317 6 20 14 76 19 125 6 49 15 104 20 122 12 42 75 155 95 171 28
23 29 65 2 112 -40 70 -31 169 16 169 5 0 21 9 35 20 41 32 100 27 147 -13 41
-35 41 -36 36 -162 -2 -43 24 -75 61 -75 10 0 27 -8 37 -18 9 -9 32 -27 49
-40 55 -39 76 -90 118 -284 24 -107 18 -369 -8 -395 -15 -15 -22 -16 -49 -5
-17 6 -34 9 -37 6 -3 -3 -8 -77 -9 -164 -3 -118 0 -173 12 -218 8 -33 18 -94
22 -136 l7 -76 728 0 729 0 0 895 0 895 -1600 0 -1600 0 0 -895z"/>
<path d="M1418 473 c-10 -2 -37 -34 -61 -71 -64 -97 -83 -137 -117 -241 -12 -36 -28
-74 -36 -85 -8 -11 -14 -31 -14 -43 l0 -23 215 0 215 0 0 25 c0 13 -19 55 -41
92 -50 81 -66 125 -80 217 -6 39 -17 86 -25 104 -13 31 -20 35 -56 25z"/>
</g>
</svg>
