<svg version="1.0" xmlns="http://www.w3.org/2000/svg"
 width="668px" style="transform:scale(1,1.001);" height="375.75px" viewBox="0 0 320.000000 180.000000"
 preserveAspectRatio="xMidYMid meet">
<g transform="translate(0.000000,180.000000) scale(0.100000,-0.100000)"
fill="#000000" stroke="none">
<path d="M0 905 l0 -895 906 0 907 0 -7 38 c-14 74 -24 176 -19 191 3 9 16 39 28 66 13
28 33 79 45 115 12 36 35 101 52 145 43 115 47 137 58 269 11 129 7 162 -19
171 -9 2 -38 24 -64 48 -44 41 -47 47 -47 93 1 54 25 94 70 114 14 6 36 17 50
25 37 22 103 19 125 -5 10 -11 26 -22 36 -25 11 -4 25 -29 38 -68 20 -59 23
-63 79 -90 31 -15 62 -27 68 -27 6 0 21 -11 34 -25 13 -14 29 -25 36 -25 21 0
93 -121 113 -190 50 -169 61 -240 45 -282 -6 -18 -19 -51 -27 -73 -8 -22 -20
-58 -26 -80 -6 -23 -19 -50 -28 -60 -62 -69 -128 -154 -138 -180 -6 -16 -10
-56 -7 -87 l4 -58 444 0 444 0 0 895 0 895 -1600 0 -1600 0 0 -895z"/>
<path d="M2065 132 c-26 -18 -55 -67 -55 -93 0 -28 1 -29 56 -29 l57 0 -6 51 c-8 65
-26 90 -52 71z"/>
</g>
</svg>
