<svg version="1.0" xmlns="http://www.w3.org/2000/svg"
 width="668px" style="transform:scale(1,1.001);" height="375.75px" viewBox="0 0 320.000000 180.000000"
 preserveAspectRatio="xMidYMid meet">
<g transform="translate(0.000000,180.000000) scale(0.100000,-0.100000)"
fill="#000000" stroke="none">
<path d="M0 905 l0 -895 1600 0 1600 0 0 895 0 895 -1600 0 -1600 0 0 -895z m1649 745
c24 -11 49 -20 57 -20 8 0 38 -22 67 -50 l52 -49 0 -78 c0 -68 -5 -87 -33
-144 -17 -36 -32 -75 -32 -87 0 -27 42 -75 99 -114 199 -135 254 -193 282
-300 21 -84 53 -325 54 -411 0 -101 42 -94 -582 -91 -296 1 -546 5 -556 9 -41
17 -57 90 -36 170 5 22 14 70 18 107 13 103 80 265 134 321 29 31 115 103 196
165 16 12 34 22 39 22 36 0 46 95 15 138 -47 65 -103 190 -103 231 0 60 63
131 155 173 71 33 115 35 174 8z"/>
</g>
</svg>
