<svg version="1.0" xmlns="http://www.w3.org/2000/svg"
 width="668px" style="transform:scale(1,1.001);" height="375.75px" viewBox="0 0 320.000000 180.000000"
 preserveAspectRatio="xMidYMid meet">
<g transform="translate(0.000000,180.000000) scale(0.100000,-0.100000)"
fill="#000000" stroke="none">
<path d="M0 905 l0 -895 731 0 732 0 -6 56 c-3 31 -8 59 -11 61 -3 3 -21 -6 -41 -21
-27 -21 -44 -26 -73 -24 -34 3 -37 6 -40 37 -2 22 -10 35 -22 38 -35 9 -43 54
-37 211 4 135 21 246 59 402 6 25 14 75 18 112 8 73 41 131 86 148 31 12 52
57 47 101 -4 30 1 42 27 73 30 33 36 36 89 36 51 0 60 -3 89 -33 37 -38 40
-63 12 -118 -26 -50 -14 -91 47 -157 20 -21 26 -78 19 -181 -6 -73 -3 -128 10
-210 14 -95 15 -121 4 -169 l-12 -56 -18 34 c-21 39 -26 33 -33 -43 -4 -41
-32 -95 -44 -83 -2 2 -5 59 -7 127 -6 177 -16 208 -53 152 -16 -24 -18 -55
-19 -260 l-2 -233 824 0 824 0 0 895 0 895 -1600 0 -1600 0 0 -895z"/>
</g>
</svg>
