<svg version="1.0" xmlns="http://www.w3.org/2000/svg"
 width="668px" style="transform:scale(1,1.001);" height="375.75px" viewBox="0 0 320.000000 180.000000"
 preserveAspectRatio="xMidYMid meet">
<g transform="translate(0.000000,180.000000) scale(0.100000,-0.100000)"
fill="#000000" stroke="none">
<path d="M0 905 l0 -895 1600 0 1600 0 0 895 0 895 -1600 0 -1600 0 0 -895z m1872 705
c115 -22 202 -71 291 -165 21 -22 40 -50 44 -63 8 -33 -4 -110 -22 -135 -9
-12 -20 -40 -26 -62 -6 -22 -27 -65 -47 -95 -31 -47 -37 -63 -37 -110 0 -66
35 -127 87 -154 240 -122 280 -155 352 -291 19 -37 26 -65 26 -107 0 -72 -5
-85 -43 -105 -27 -13 -102 -15 -633 -14 -366 0 -611 4 -627 10 -19 7 -29 22
-37 52 -10 36 -8 53 12 122 22 77 27 85 102 159 43 43 83 78 89 78 5 0 26 12
46 28 32 24 57 39 126 76 12 6 35 26 53 44 29 29 32 39 32 92 0 51 -5 67 -30
102 -16 22 -30 45 -30 50 0 6 -9 21 -20 35 -11 14 -20 33 -20 43 0 10 -9 28
-19 42 -31 39 -44 103 -30 145 12 38 151 183 175 183 7 0 19 6 27 14 13 13 65
33 93 35 6 1 36 -4 66 -9z"/>
</g>
</svg>
