<svg version="1.0" xmlns="http://www.w3.org/2000/svg"
 width="668px" style="transform:scale(1,1.001);" height="375.75px" viewBox="0 0 320.000000 180.000000"
 preserveAspectRatio="xMidYMid meet">
<g transform="translate(0.000000,180.000000) scale(0.100000,-0.100000)"
fill="#000000" stroke="none">
<path d="M0 905 l0 -895 1060 0 1060 0 0 25 c0 14 -4 25 -9 25 -10 0 -27 41 -37 90 -12
62 -112 250 -133 250 -11 0 -71 132 -71 158 0 11 -9 58 -20 104 -25 105 -25
180 0 260 11 34 27 103 35 152 20 109 38 164 75 222 35 56 96 114 119 114 33
0 51 24 56 75 12 103 27 154 49 161 12 4 34 17 49 30 39 33 138 35 160 4 8
-11 28 -25 45 -31 17 -6 41 -26 54 -47 85 -134 87 -158 16 -179 -64 -18 -88
-58 -88 -146 0 -62 -2 -68 -27 -84 -69 -43 -84 -68 -119 -190 -24 -84 -34
-139 -34 -190 0 -40 -5 -96 -11 -124 -13 -58 -3 -121 32 -218 58 -160 91 -350
74 -428 l-7 -33 436 0 436 0 0 895 0 895 -1600 0 -1600 0 0 -895z"/>
</g>
</svg>
