<svg version="1.0" xmlns="http://www.w3.org/2000/svg"
 width="668px" style="transform:scale(1,1.001);" height="375.75px" viewBox="0 0 320.000000 180.000000"
 preserveAspectRatio="xMidYMid meet">
<g transform="translate(0.000000,180.000000) scale(0.100000,-0.100000)"
fill="#000000" stroke="none">
<path d="M0 905 l0 -895 876 0 875 0 -6 53 c-5 43 -1 66 23 132 56 151 209 476 232 490
15 9 12 72 -5 129 -10 33 -13 70 -9 115 6 64 5 67 -25 96 -31 28 -35 29 -114
27 -108 -3 -164 22 -184 83 -33 96 -24 308 15 365 9 14 21 34 27 45 7 13 23
21 45 23 72 7 94 -85 40 -165 -25 -37 -30 -54 -28 -91 3 -40 7 -47 38 -63 31
-17 36 -17 57 -4 13 9 43 18 68 22 37 5 51 13 75 43 17 21 30 42 30 48 0 5
-14 36 -30 67 -38 73 -38 111 -1 162 26 36 36 42 80 48 42 6 59 3 105 -18 47
-22 56 -30 65 -64 6 -21 11 -66 11 -100 0 -55 3 -64 27 -82 14 -12 38 -24 52
-27 74 -14 132 -37 141 -54 7 -13 21 -20 40 -20 29 0 30 2 30 45 0 25 -7 62
-15 82 -21 51 -19 86 8 111 13 12 28 22 33 22 21 0 61 -57 72 -100 33 -133 41
-375 14 -402 -8 -8 -36 -12 -71 -12 -44 1 -65 6 -89 24 -53 39 -56 27 -62
-223 -3 -122 -9 -228 -14 -236 -5 -7 -14 -70 -22 -140 -7 -69 -17 -146 -23
-171 -6 -25 -10 -93 -11 -152 l0 -108 415 0 415 0 0 895 0 895 -1600 0 -1600
0 0 -895z"/>
<path d="M2084 308 c-16 -24 -41 -58 -57 -76 -49 -58 -127 -183 -127 -203 0 -18 9 -19
145 -19 140 0 145 1 145 21 0 11 -5 30 -11 41 -6 12 -13 75 -16 142 -5 117
-10 135 -39 136 -6 0 -24 -19 -40 -42z"/>
</g>
</svg>
