<svg version="1.0" xmlns="http://www.w3.org/2000/svg"
 width="668px" style="transform:scale(1,1.001);" height="375.75px" viewBox="0 0 320.000000 180.000000"
 preserveAspectRatio="xMidYMid meet">
<g transform="translate(0.000000,180.000000) scale(0.100000,-0.100000)"
fill="#000000" stroke="none">
<path d="M0 905 l0 -895 1600 0 1600 0 0 895 0 895 -1600 0 -1600 0 0 -895z m1654 746
c64 -23 141 -93 152 -138 10 -37 -3 -94 -41 -183 -51 -123 -46 -134 120 -239
34 -21 67 -46 74 -55 7 -9 19 -16 25 -16 20 -1 77 -79 96 -134 10 -30 24 -90
30 -133 7 -43 16 -85 21 -94 5 -9 16 -78 26 -152 26 -207 21 -213 -212 -202
-82 3 -262 1 -400 -4 -139 -6 -307 -7 -379 -3 -173 11 -170 8 -164 188 3 72
11 140 17 152 6 12 16 43 21 69 8 43 41 123 73 179 16 27 113 134 122 134 7 0
54 38 112 90 17 16 39 43 49 60 l19 31 -64 124 c-60 116 -63 127 -59 176 5 48
10 57 53 93 80 68 121 86 190 82 33 -2 87 -13 119 -25z"/>
</g>
</svg>
