<svg version="1.0" xmlns="http://www.w3.org/2000/svg"
 width="668px" style="transform:scale(1,1.001);" height="375.75px" viewBox="0 0 320.000000 180.000000"
 preserveAspectRatio="xMidYMid meet">
<g transform="translate(0.000000,180.000000) scale(0.100000,-0.100000)"
fill="#000000" stroke="none">
<path d="M0 905 l0 -895 1600 0 1600 0 0 895 0 895 -1600 0 -1600 0 0 -895z m1755 712
c32 -14 85 -49 117 -78 49 -44 59 -59 68 -103 13 -64 0 -167 -28 -222 -10 -21
-25 -56 -31 -76 -7 -20 -19 -42 -27 -48 -17 -15 -19 -72 -3 -103 17 -33 71
-87 87 -87 9 0 38 -11 66 -24 28 -13 70 -27 92 -31 25 -4 51 -16 65 -31 12
-13 28 -24 35 -24 21 0 102 -124 115 -176 7 -27 17 -55 22 -62 6 -7 18 -54 28
-105 19 -97 15 -121 -22 -132 -21 -7 -697 -8 -1128 -1 -191 3 -245 7 -252 17
-9 14 -13 54 -10 99 3 34 62 200 72 200 4 0 13 16 19 35 11 33 104 125 127
125 6 0 22 9 36 20 14 12 41 25 59 31 63 20 159 73 170 92 18 34 3 122 -30
169 -16 24 -39 63 -50 88 -12 25 -37 74 -57 109 -41 74 -44 111 -13 154 37 53
119 125 196 174 33 21 46 23 127 19 67 -3 105 -10 150 -29z"/>
</g>
</svg>
