<svg version="1.0" xmlns="http://www.w3.org/2000/svg"
 width="668px" style="transform:scale(1,1.001);" height="375.75px" viewBox="0 0 320.000000 180.000000"
 preserveAspectRatio="xMidYMid meet">
<g transform="translate(0.000000,180.000000) scale(0.100000,-0.100000)"
fill="#000000" stroke="none">
<path d="M0 905 l0 -895 1600 0 1600 0 0 895 0 895 -1600 0 -1600 0 0 -895z m1720 685
c41 -11 93 -30 115 -41 49 -26 123 -103 141 -146 17 -39 18 -125 3 -140 -9 -9
-16 -29 -18 -56 -1 -5 -5 -6 -10 -3 -8 5 -29 -41 -47 -104 -4 -14 -17 -38 -30
-53 -32 -38 -30 -51 14 -96 28 -29 65 -50 147 -82 61 -24 130 -55 154 -71 59
-37 125 -108 140 -148 6 -18 22 -48 36 -65 16 -21 28 -57 35 -101 6 -38 15
-73 21 -78 5 -6 9 -24 9 -41 0 -61 17 -60 -645 -61 -330 -1 -638 -6 -685 -12
-93 -11 -165 -28 -193 -47 -16 -11 -16 -14 7 -38 l24 -26 -52 -6 c-92 -11
-310 -11 -329 1 -16 9 -14 14 22 55 21 25 56 75 76 112 20 37 40 67 44 67 3 0
47 48 96 106 157 187 254 274 303 274 14 0 46 13 71 29 25 16 83 43 128 61
103 42 153 85 146 126 -3 16 -14 38 -23 49 -10 11 -25 38 -35 60 -9 22 -25 49
-35 60 -10 11 -26 46 -34 77 -8 31 -20 66 -26 78 -17 31 25 115 81 162 24 20
58 48 76 63 29 24 122 52 178 54 11 1 54 -8 95 -19z"/>
</g>
</svg>
