<svg version="1.0" xmlns="http://www.w3.org/2000/svg"
 width="668px" style="transform:scale(1,1.001);" height="375.75px" viewBox="0 0 320.000000 180.000000"
 preserveAspectRatio="xMidYMid meet">
<g transform="translate(0.000000,180.000000) scale(0.100000,-0.100000)"
fill="#000000" stroke="none">
<path d="M0 905 l0 -895 1600 0 1600 0 0 895 0 895 -1600 0 -1600 0 0 -895z m1618 773
c100 -55 142 -106 142 -172 0 -56 -21 -138 -43 -167 -11 -16 -20 -44 -21 -69
-1 -37 4 -46 34 -72 19 -17 53 -39 75 -49 163 -79 266 -178 279 -269 8 -54 41
-219 62 -310 24 -102 29 -221 11 -245 -16 -20 -112 -25 -802 -38 -113 -2 -312
16 -326 30 -6 6 -14 26 -18 46 -10 44 3 268 18 294 6 11 15 42 21 69 12 53 42
121 76 171 22 34 116 129 174 178 50 42 80 88 80 122 0 16 -24 71 -55 126 -83
146 -86 222 -15 296 22 23 45 41 51 41 5 0 27 11 47 25 55 38 134 35 210 -7z"/>
</g>
</svg>
