<svg version="1.0" xmlns="http://www.w3.org/2000/svg"
 width="668px" style="transform:scale(1,1.001);" height="375.75px" viewBox="0 0 320.000000 180.000000"
 preserveAspectRatio="xMidYMid meet">
<g transform="translate(0.000000,180.000000) scale(0.100000,-0.100000)"
fill="#000000" stroke="none">
<path d="M0 905 l0 -895 919 0 918 0 7 78 c19 241 24 278 44 317 11 22 23 63 27 92 4
31 14 58 26 69 10 9 19 25 19 34 0 10 20 46 45 81 70 100 77 122 71 214 -4 44
-2 98 3 119 7 29 6 48 -4 73 -15 34 -16 35 -77 35 -21 0 -40 4 -44 9 -3 5 -29
9 -57 9 -98 1 -181 17 -196 40 -19 28 -120 28 -173 0 -49 -26 -83 -14 -93 30
-4 18 -3 36 2 41 6 6 54 15 109 20 54 6 116 17 136 25 20 7 106 18 191 24 185
13 208 18 227 53 14 25 13 30 -13 76 -33 59 -34 88 -4 132 57 86 211 104 278
33 21 -22 24 -36 24 -97 1 -89 13 -113 68 -129 23 -6 55 -22 70 -35 16 -13 35
-23 43 -23 8 0 38 -25 66 -55 28 -31 67 -65 87 -77 67 -40 81 -58 81 -104 0
-39 -2 -43 -33 -53 -19 -7 -47 -12 -63 -12 -16 0 -53 -2 -82 -5 -63 -7 -78
-25 -87 -99 -11 -95 -17 -120 -36 -152 -15 -24 -21 -57 -25 -135 -3 -57 -14
-132 -24 -168 -19 -67 -33 -192 -35 -315 -1 -38 -5 -87 -10 -108 l-8 -37 402
0 401 0 0 895 0 895 -1600 0 -1600 0 0 -895z"/>
<path d="M2163 398 c-12 -6 -27 -23 -33 -38 -7 -16 -20 -36 -31 -46 -10 -9 -19 -23 -19
-31 0 -8 -9 -32 -20 -54 -27 -53 -60 -157 -60 -191 l0 -28 135 0 135 0 0 24
c0 13 -7 29 -14 36 -25 20 -37 74 -45 200 -4 66 -12 124 -17 129 -5 5 -18 4
-31 -1z"/>
</g>
</svg>
