<svg version="1.0" xmlns="http://www.w3.org/2000/svg"
 width="668px" style="transform:scale(1,1.001);" height="375.75px" viewBox="0 0 320.000000 180.000000"
 preserveAspectRatio="xMidYMid meet">
<g transform="translate(0.000000,180.000000) scale(0.100000,-0.100000)"
fill="#000000" stroke="none">
<path d="M0 905 l0 -895 1600 0 1600 0 0 895 0 895 -1600 0 -1600 0 0 -895z m1630 770
c19 -14 39 -25 45 -25 22 0 77 -81 82 -121 7 -51 -16 -185 -33 -200 -21 -17
-17 -77 7 -107 11 -14 35 -35 54 -47 37 -22 142 -92 193 -127 87 -60 123 -134
147 -298 7 -47 17 -98 23 -115 9 -26 16 -67 39 -251 4 -34 1 -45 -17 -62 -12
-11 -34 -22 -48 -23 -15 -2 -250 -4 -522 -3 -527 0 -562 3 -576 47 -12 37 -5
253 10 294 7 21 16 54 20 74 3 19 15 53 26 74 11 22 20 45 20 52 0 6 14 32 30
57 27 40 70 81 224 217 46 42 48 45 44 89 -4 34 -19 66 -66 135 -110 163 -97
224 73 338 34 23 50 27 115 27 65 0 81 -4 110 -25z"/>
</g>
</svg>
