<svg version="1.0" xmlns="http://www.w3.org/2000/svg"
 width="668px" style="transform:scale(1,1.001);" height="375.75px" viewBox="0 0 320.000000 180.000000"
 preserveAspectRatio="xMidYMid meet">
<g transform="translate(0.000000,180.000000) scale(0.100000,-0.100000)"
fill="#000000" stroke="none">
<path d="M0 905 l0 -895 538 0 539 0 16 122 c9 68 19 175 22 238 7 154 31 332 57 422
14 49 22 108 24 180 3 104 3 107 -18 103 -11 -3 -27 -14 -35 -25 -17 -24 -50
-26 -81 -4 -17 12 -22 25 -22 59 0 24 5 47 10 50 22 14 60 86 66 127 6 40 35
94 59 110 5 4 22 8 36 8 14 0 34 6 44 14 19 14 19 15 1 85 -25 95 -17 129 34
159 54 30 92 28 132 -7 31 -28 33 -33 35 -107 2 -71 5 -80 30 -101 15 -13 40
-30 54 -38 35 -19 63 -93 56 -148 -34 -269 -37 -361 -15 -472 33 -164 51 -387
44 -532 -4 -76 -9 -162 -13 -190 l-6 -53 797 0 796 0 0 895 0 895 -1600 0
-1600 0 0 -895z"/>
<path d="M1351 682 c-44 -90 -105 -262 -116 -327 -3 -22 -13 -71 -20 -110 -8 -38 -17
-107 -20 -152 l-6 -83 162 0 162 0 -7 195 c-6 197 -15 268 -42 338 -27 73 -77
167 -88 167 -6 0 -17 -12 -25 -28z"/>
</g>
</svg>
