<svg version="1.0" xmlns="http://www.w3.org/2000/svg"
 width="668px" style="transform:scale(1,1.001);" height="375.75px" viewBox="0 0 320.000000 180.000000"
 preserveAspectRatio="xMidYMid meet">
<g transform="translate(0.000000,180.000000) scale(0.100000,-0.100000)"
fill="#000000" stroke="none">
<path d="M0 905 l0 -895 1600 0 1600 0 0 895 0 895 -1600 0 -1600 0 0 -895z m1605 694
c73 -35 115 -101 115 -181 0 -37 -7 -77 -20 -106 -33 -76 -31 -129 4 -138 14
-3 32 -17 41 -30 8 -13 25 -24 38 -24 12 0 33 -7 47 -15 14 -8 45 -24 68 -36
24 -12 46 -28 49 -36 3 -7 10 -13 17 -13 37 0 135 -169 136 -233 0 -16 5 -37
10 -47 12 -22 40 -171 40 -214 0 -16 -5 -59 -11 -95 -9 -52 -19 -73 -43 -97
l-31 -31 -335 -1 c-310 -1 -387 5 -391 27 -1 3 -3 49 -4 101 -2 84 -8 110 -48
222 -25 69 -50 136 -56 147 -13 24 -14 71 -2 104 10 25 28 47 103 123 36 36
39 44 33 73 -4 18 -20 53 -37 77 -41 61 -108 209 -108 240 0 51 73 164 106
164 8 0 36 12 62 26 60 32 142 30 217 -7z"/>
</g>
</svg>
