<svg version="1.0" xmlns="http://www.w3.org/2000/svg"
 width="668px" style="transform:scale(1,1.001);" height="375.75px" viewBox="0 0 320.000000 180.000000"
 preserveAspectRatio="xMidYMid meet">
<g transform="translate(0.000000,180.000000) scale(0.100000,-0.100000)"
fill="#000000" stroke="none">
<path d="M0 905 l0 -895 775 0 775 0 0 25 c0 14 -7 55 -16 91 -13 49 -21 64 -33 62 -12
-2 -17 -18 -21 -57 -6 -70 -23 -82 -80 -56 -22 10 -54 34 -71 52 -25 30 -29
40 -23 71 6 35 57 101 79 102 6 1 28 16 49 35 33 29 40 42 43 82 7 71 -12 128
-60 180 -40 43 -42 48 -39 99 2 30 0 54 -5 54 -5 0 -14 12 -20 28 -7 15 -21
38 -33 52 -16 20 -22 46 -27 112 -6 89 3 133 35 171 14 16 14 23 -2 73 -20 64
-15 99 20 137 22 24 32 27 89 27 74 0 91 -12 100 -68 11 -63 13 -66 72 -97 51
-27 60 -37 76 -80 42 -111 57 -197 57 -324 0 -128 -8 -170 -86 -424 -27 -87
-29 -143 -12 -265 l11 -82 774 0 773 0 0 895 0 895 -1600 0 -1600 0 0 -895z"/>
</g>
</svg>
