<svg version="1.0" xmlns="http://www.w3.org/2000/svg"
 width="668px" style="transform:scale(1,1.001);" height="375.75px" viewBox="0 0 320.000000 180.000000"
 preserveAspectRatio="xMidYMid meet">
<g transform="translate(0.000000,180.000000) scale(0.100000,-0.100000)"
fill="#000000" stroke="none">
<path d="M0 905 l0 -895 741 0 741 0 -7 32 c-4 18 -10 157 -14 308 -5 151 -11 285 -16
298 -17 51 -47 7 -70 -101 -16 -83 -15 -95 21 -274 18 -91 18 -96 -3 -122 -22
-26 -113 -52 -137 -39 -21 12 -20 30 5 80 24 47 23 58 -15 238 -35 165 -30
155 -65 134 -60 -35 -77 6 -55 131 7 44 14 134 14 200 1 207 14 305 50 381 35
74 32 108 -11 143 -18 14 -22 28 -22 72 0 94 7 99 126 99 67 0 107 -4 115 -12
7 -7 12 -42 12 -88 0 -89 14 -110 71 -110 51 0 75 -9 88 -33 6 -12 15 -29 20
-37 41 -66 46 -94 46 -251 0 -139 -2 -159 -18 -177 -17 -19 -20 -53 -28 -404
-5 -211 -14 -393 -19 -406 -6 -13 -10 -32 -10 -42 0 -20 13 -20 820 -20 l820
0 0 895 0 895 -1600 0 -1600 0 0 -895z"/>
</g>
</svg>
