<svg version="1.0" xmlns="http://www.w3.org/2000/svg"
 width="668px" style="transform:scale(1,1.001);" height="375.75px" viewBox="0 0 320.000000 180.000000"
 preserveAspectRatio="xMidYMid meet">
<g transform="translate(0.000000,180.000000) scale(0.100000,-0.100000)"
fill="#000000" stroke="none">
<path d="M0 905 l0 -895 1600 0 1600 0 0 895 0 895 -1600 0 -1600 0 0 -895z m1800 788
c100 -47 157 -122 147 -192 -9 -66 -35 -153 -51 -170 -10 -11 -16 -36 -16 -66
0 -44 4 -51 49 -94 27 -25 89 -75 137 -109 111 -80 148 -132 164 -233 6 -40
13 -76 16 -81 3 -5 12 -68 19 -141 8 -73 19 -154 24 -180 11 -51 -2 -105 -29
-122 -16 -10 -839 -6 -1003 4 -151 9 -160 16 -159 123 0 40 6 87 12 103 6 17
16 67 21 113 5 47 18 99 29 120 11 20 20 42 20 48 0 17 52 116 71 135 9 9 21
23 25 30 10 16 65 59 149 117 87 59 135 107 135 134 0 20 -26 78 -68 153 -26
45 -52 115 -52 137 1 44 60 118 132 165 73 48 135 49 228 6z"/>
</g>
</svg>
