<svg version="1.0" xmlns="http://www.w3.org/2000/svg"
 width="668px" style="transform:scale(1,1.001);" height="375.75px" viewBox="0 0 320.000000 180.000000"
 preserveAspectRatio="xMidYMid meet">
<g transform="translate(0.000000,180.000000) scale(0.100000,-0.100000)"
fill="#000000" stroke="none">
<path d="M0 905 l0 -895 1600 0 1600 0 0 895 0 895 -1600 0 -1600 0 0 -895z m1950 810
c14 -8 39 -21 56 -29 53 -25 84 -83 87 -158 2 -64 1 -67 -41 -116 -23 -28 -45
-64 -48 -79 -5 -25 0 -34 42 -66 26 -20 52 -37 59 -37 6 0 24 -18 41 -41 16
-22 38 -53 49 -67 48 -63 86 -173 92 -265 6 -90 0 -110 -47 -161 -36 -39 -46
-44 -94 -48 -104 -9 -155 -83 -121 -177 22 -63 20 -126 -6 -150 -19 -18 -34
-19 -251 -15 -192 2 -233 6 -248 19 -13 12 -19 37 -22 103 -4 65 -12 103 -34
152 -27 62 -28 72 -28 226 l-1 161 -37 42 c-26 28 -38 51 -38 70 0 66 -37 101
-106 101 -14 0 -35 14 -54 38 -27 32 -30 42 -25 77 8 59 23 65 147 65 74 0
120 5 145 15 22 9 68 15 122 15 118 0 122 4 128 116 6 98 23 136 90 194 38 34
100 40 143 15z"/>
</g>
</svg>
