<svg version="1.0" xmlns="http://www.w3.org/2000/svg"
 width="668px" style="transform:scale(1,1.001);" height="375.75px" viewBox="0 0 320.000000 180.000000"
 preserveAspectRatio="xMidYMid meet">
<g transform="translate(0.000000,180.000000) scale(0.100000,-0.100000)"
fill="#000000" stroke="none">
<path d="M0 905 l0 -895 941 0 942 0 -9 37 c-5 21 -8 103 -8 183 1 123 5 160 28 245 15
55 38 123 53 152 23 46 25 58 18 120 -4 37 -13 86 -20 108 -8 22 -17 64 -21
93 -8 61 -40 92 -96 92 -18 0 -48 9 -65 20 -28 17 -33 25 -33 58 0 44 19 67
65 77 17 3 59 15 95 25 36 11 77 22 92 25 48 9 59 30 52 99 -6 61 -3 74 39
153 6 12 24 28 39 34 15 6 33 17 39 25 7 8 31 14 59 14 36 0 53 -6 74 -25 15
-14 31 -25 36 -25 16 0 50 -77 50 -111 0 -18 -14 -57 -31 -86 -26 -48 -29 -59
-19 -86 5 -18 23 -39 38 -48 38 -21 95 -112 114 -179 45 -160 62 -253 54 -294
-7 -35 -52 -96 -70 -96 -8 0 -29 -18 -48 -40 -28 -31 -39 -56 -53 -121 -10
-46 -29 -115 -42 -153 -37 -107 -52 -175 -53 -238 l0 -58 470 0 470 0 0 895 0
895 -1600 0 -1600 0 0 -895z"/>
</g>
</svg>
