<svg version="1.0" xmlns="http://www.w3.org/2000/svg"
 width="668px" style="transform:scale(1,1.001);" height="375.75px" viewBox="0 0 320.000000 180.000000"
 preserveAspectRatio="xMidYMid meet">
<g transform="translate(0.000000,180.000000) scale(0.100000,-0.100000)"
fill="#000000" stroke="none">
<path d="M0 905 l0 -895 744 0 743 0 6 38 c10 59 25 72 88 76 75 5 83 -1 80 -63 -2 -47
-1 -51 20 -51 20 0 21 3 16 49 -7 61 2 70 77 78 80 8 106 -11 106 -77 l0 -50
660 0 660 0 0 895 0 895 -1600 0 -1600 0 0 -895z m1767 762 c4 -8 20 -22 35
-31 50 -33 61 -127 23 -203 -21 -43 -16 -85 12 -99 13 -6 32 -19 42 -28 11
-10 34 -25 52 -34 56 -28 81 -93 91 -230 8 -118 3 -198 -13 -208 -5 -3 -9 -13
-10 -22 0 -9 -14 -37 -30 -62 -50 -77 -52 -87 -53 -253 -1 -213 16 -199 -247
-195 -166 3 -201 6 -214 19 -30 29 -58 283 -62 561 -5 275 -3 286 69 355 134
129 135 134 93 225 -39 85 -33 116 39 180 38 34 46 37 103 38 42 0 65 -4 70
-13z"/>
</g>
</svg>
