<svg version="1.0" xmlns="http://www.w3.org/2000/svg"
 width="668px" style="transform:scale(1,1.001);" height="375.75px" viewBox="0 0 320.000000 180.000000"
 preserveAspectRatio="xMidYMid meet">
<g transform="translate(0.000000,180.000000) scale(0.100000,-0.100000)"
fill="#000000" stroke="none">
<path d="M0 905 l0 -895 590 0 c665 0 605 -8 574 80 -14 38 -15 75 -10 242 6 189 5 199
-14 218 -24 24 -41 25 -83 3 -18 -9 -78 -22 -135 -29 -76 -9 -109 -17 -125
-31 -12 -11 -45 -25 -74 -31 -30 -7 -62 -22 -76 -36 -17 -17 -41 -27 -76 -32
-28 -4 -54 -11 -58 -17 -4 -6 -1 -7 8 -2 8 5 11 4 6 0 -4 -5 -15 -10 -25 -11
-9 -1 -42 -9 -72 -18 -30 -9 -69 -16 -85 -16 -17 0 -40 -7 -52 -15 -13 -9 -32
-13 -46 -10 -36 9 -85 61 -92 97 -3 18 -13 61 -22 96 -18 71 -11 100 31 127
24 16 27 16 63 -11 21 -15 49 -39 62 -52 21 -22 30 -24 95 -20 55 3 78 9 102
26 17 13 51 28 75 33 24 6 58 21 76 35 17 13 45 24 62 24 16 0 42 10 58 24 15
13 44 30 64 39 27 11 40 25 52 56 10 23 17 50 17 61 0 58 136 252 191 272 11
4 22 14 25 23 3 8 26 24 50 37 24 12 44 27 44 35 0 7 16 30 35 52 19 21 35 44
35 50 0 7 12 24 28 39 44 44 72 85 72 106 0 12 -18 48 -40 81 -51 77 -54 124
-10 163 43 38 104 53 158 41 90 -20 103 -38 112 -157 6 -70 11 -88 36 -121
113 -148 123 -166 130 -208 10 -66 -1 -188 -18 -215 -8 -13 -27 -61 -42 -108
-41 -128 -75 -191 -118 -219 -24 -16 -42 -37 -49 -60 -6 -20 -33 -77 -60 -128
-26 -51 -53 -111 -59 -135 -6 -24 -23 -70 -37 -102 -23 -52 -25 -68 -20 -138
3 -43 1 -81 -4 -84 -5 -3 -9 -16 -9 -30 l0 -24 930 0 930 0 0 895 0 895 -1600
0 -1600 0 0 -895z"/>
</g>
</svg>
