<svg version="1.0" xmlns="http://www.w3.org/2000/svg"
 width="668px" style="transform:scale(1,1.001);" height="375.75px" viewBox="0 0 320.000000 180.000000"
 preserveAspectRatio="xMidYMid meet">
<g transform="translate(0.000000,180.000000) scale(0.100000,-0.100000)"
fill="#000000" stroke="none">
<path d="M0 905 l0 -895 1600 0 1600 0 0 895 0 895 -1600 0 -1600 0 0 -895z m1621 701
c117 -55 209 -157 209 -229 0 -44 -33 -145 -75 -230 -41 -84 -46 -143 -15
-187 23 -32 113 -70 237 -100 43 -10 92 -25 108 -33 17 -8 45 -18 64 -22 31
-7 33 -5 26 11 -17 41 -18 145 0 200 l17 54 56 0 c46 -1 65 -6 97 -28 22 -15
46 -40 53 -55 7 -15 19 -27 27 -27 7 0 23 -13 35 -30 12 -16 28 -30 36 -30 26
0 35 -46 23 -128 -14 -101 -14 -140 0 -306 14 -163 13 -166 -65 -166 -30 0
-54 -4 -54 -9 0 -4 -19 -11 -41 -14 -23 -3 -48 -12 -57 -20 -13 -14 -10 -17
24 -26 22 -6 46 -11 55 -11 22 0 33 -29 15 -36 -21 -8 -283 0 -292 9 -4 4 2
17 14 30 l22 23 -88 29 -87 29 -455 7 c-250 3 -458 5 -461 3 -3 -1 -96 -4
-207 -5 -254 -2 -243 -9 -277 168 -3 17 -18 44 -33 60 -23 25 -27 41 -39 153
-11 107 -18 135 -48 195 -65 131 -76 198 -36 228 9 7 22 24 28 40 10 22 19 27
48 27 29 0 48 -12 116 -72 86 -75 102 -102 114 -183 4 -27 15 -64 26 -81 10
-17 25 -62 33 -100 20 -95 22 -98 63 -118 l36 -17 66 64 c67 64 137 113 201
138 19 7 50 24 69 36 19 13 37 23 42 23 4 0 21 24 38 54 31 54 41 119 21 131
-6 4 -21 27 -34 53 -13 26 -33 55 -45 66 -11 10 -23 34 -27 52 -3 18 -13 39
-21 45 -22 19 -53 85 -53 113 0 24 27 58 132 167 35 38 99 74 153 90 54 15
128 3 206 -35z"/>
</g>
</svg>
