<svg version="1.0" xmlns="http://www.w3.org/2000/svg"
 width="668px" style="transform:scale(1,1.001);" height="375.75px" viewBox="0 0 320.000000 180.000000"
 preserveAspectRatio="xMidYMid meet">
<g transform="translate(0.000000,180.000000) scale(0.100000,-0.100000)"
fill="#000000" stroke="none">
<path d="M0 905 l0 -895 1600 0 1600 0 0 895 0 895 -1600 0 -1600 0 0 -895z m1811 784
c71 -35 88 -52 124 -120 25 -47 24 -72 -4 -142 -6 -16 -11 -39 -11 -51 0 -13
-9 -35 -20 -49 -13 -16 -20 -40 -20 -67 0 -36 6 -48 52 -95 29 -30 64 -57 79
-60 15 -4 35 -17 43 -31 9 -13 23 -24 32 -24 15 0 94 -78 94 -94 0 -5 7 -14
15 -20 24 -17 62 -181 69 -291 3 -55 13 -122 21 -149 23 -75 20 -161 -6 -187
-20 -20 -28 -21 -114 -15 -51 3 -292 6 -535 6 -492 0 -498 1 -516 61 -9 33 -6
65 15 159 6 25 10 68 11 95 0 30 8 65 20 88 11 20 20 46 20 57 0 29 78 176
109 206 56 53 95 84 107 84 7 0 26 11 41 25 15 13 49 43 74 65 61 53 67 83 32
158 -14 31 -30 64 -34 72 -16 26 -26 53 -41 105 -12 43 -13 55 -1 84 17 41 72
111 88 111 6 0 26 11 45 25 50 37 127 35 211 -6z"/>
</g>
</svg>
