<svg version="1.0" xmlns="http://www.w3.org/2000/svg"
 width="668px" style="transform:scale(1,1.001);" height="375.75px" viewBox="0 0 320.000000 180.000000"
 preserveAspectRatio="xMidYMid meet">
<g transform="translate(0.000000,180.000000) scale(0.100000,-0.100000)"
fill="#000000" stroke="none">
<path d="M0 905 l0 -895 1600 0 1600 0 0 895 0 895 -1600 0 -1600 0 0 -895z m1642 775
c15 -11 38 -24 51 -29 12 -5 36 -27 51 -50 41 -59 45 -117 13 -217 -30 -91
-33 -109 -23 -145 8 -28 65 -80 110 -100 14 -7 26 -16 26 -21 0 -5 17 -16 37
-25 21 -8 44 -24 51 -34 7 -10 20 -19 28 -19 24 0 87 -70 112 -123 14 -32 25
-78 28 -126 3 -42 12 -92 19 -111 7 -19 16 -69 20 -110 4 -41 13 -97 20 -125
15 -59 10 -108 -14 -129 -20 -18 -190 -22 -737 -18 -440 2 -416 -4 -422 108
-6 105 29 293 68 369 11 21 20 47 20 57 0 38 78 127 199 228 135 112 141 123
91 197 -16 24 -30 47 -30 51 0 4 -20 39 -45 77 -67 105 -63 145 24 234 37 37
105 79 138 84 53 9 137 -3 165 -23z"/>
</g>
</svg>
