<svg version="1.0" xmlns="http://www.w3.org/2000/svg"
 width="668px" style="transform:scale(1,1.001);" height="375.75px" viewBox="0 0 320.000000 180.000000"
 preserveAspectRatio="xMidYMid meet">
<g transform="translate(0.000000,180.000000) scale(0.100000,-0.100000)"
fill="#000000" stroke="none">
<path d="M0 905 l0 -895 1600 0 1600 0 0 895 0 895 -1600 0 -1600 0 0 -895z m1518 676
c45 -36 59 -86 42 -154 -9 -41 -10 -59 -1 -75 11 -21 59 -52 81 -52 17 0 78
-66 99 -107 18 -33 46 -162 82 -373 6 -36 18 -99 26 -140 8 -41 16 -122 17
-179 1 -92 -1 -105 -18 -115 -10 -6 -36 -25 -57 -42 -71 -58 -180 -52 -211 12
-19 40 -43 42 -63 4 -31 -60 -150 -86 -230 -51 -26 12 -66 21 -89 21 -50 0
-62 7 -75 43 -16 43 -14 65 19 168 27 82 32 116 40 274 10 177 24 270 51 330
14 30 29 50 80 103 39 40 42 69 13 132 -14 30 -28 76 -31 101 -5 43 -3 49 31
87 53 59 130 64 194 13z"/>
</g>
</svg>
