<svg version="1.0" xmlns="http://www.w3.org/2000/svg"
 width="668px" style="transform:scale(1,1.001);" height="375.75px" viewBox="0 0 320.000000 180.000000"
 preserveAspectRatio="xMidYMid meet">
<g transform="translate(0.000000,180.000000) scale(0.100000,-0.100000)"
fill="#000000" stroke="none">
<path d="M0 905 l0 -895 561 0 561 0 -7 64 c-14 131 45 448 112 596 13 30 31 70 39 88
8 18 14 64 14 105 0 47 7 93 20 130 26 73 26 77 -10 147 -30 59 -30 61 -17
119 16 69 75 146 120 156 41 10 43 28 8 90 -43 77 -42 114 8 165 37 38 42 40
100 40 69 0 102 -13 145 -58 30 -32 30 -41 11 -153 -9 -50 7 -76 54 -89 28 -7
48 -22 70 -52 45 -61 44 -127 -5 -215 -31 -55 -37 -77 -44 -156 -4 -51 -13
-105 -19 -122 -20 -49 1 -135 85 -344 19 -46 34 -88 34 -94 0 -5 15 -48 34
-96 44 -108 76 -229 76 -281 l0 -40 625 0 625 0 0 895 0 895 -1600 0 -1600 0
0 -895z"/>
<path d="M1440 508 c-16 -17 -48 -76 -71 -130 -23 -54 -49 -108 -59 -121 -18 -23 -50
-110 -50 -136 0 -9 -7 -29 -15 -45 -8 -15 -15 -37 -15 -47 0 -18 13 -19 295
-19 l295 0 0 25 c0 14 -30 72 -67 131 -38 58 -98 154 -134 214 -67 109 -110
160 -136 160 -8 0 -27 -14 -43 -32z"/>
</g>
</svg>
