<svg version="1.0" xmlns="http://www.w3.org/2000/svg"
 width="668px" style="transform:scale(1,1.001);" height="375.75px" viewBox="0 0 320.000000 180.000000"
 preserveAspectRatio="xMidYMid meet">
<g transform="translate(0.000000,180.000000) scale(0.100000,-0.100000)"
fill="#000000" stroke="none">
<path d="M0 905 l0 -895 1600 0 1600 0 0 895 0 895 -1600 0 -1600 0 0 -895z m1510 760
c8 -7 29 -16 45 -19 35 -8 86 -65 106 -119 12 -34 11 -48 -17 -156 l-30 -118
21 -31 c11 -17 36 -38 55 -47 19 -9 62 -31 95 -50 33 -19 75 -41 93 -50 46
-22 130 -110 141 -149 5 -17 17 -49 25 -71 8 -22 15 -56 16 -76 0 -20 9 -62
20 -94 11 -32 20 -69 20 -82 0 -13 9 -49 20 -80 26 -75 27 -172 1 -204 l-18
-23 -419 -2 c-382 -3 -572 4 -652 25 -19 5 -34 20 -50 54 l-24 47 16 100 c9
56 16 113 16 128 0 15 8 43 19 62 10 19 21 51 25 71 4 21 13 42 21 49 8 7 15
19 15 28 0 8 46 60 103 116 123 122 152 160 149 199 -2 23 -30 76 -52 97 -18
17 -70 96 -70 107 0 7 -9 27 -19 44 -21 35 -19 82 5 110 8 8 14 19 14 23 0 15
75 83 100 91 14 4 31 12 38 17 34 28 141 30 172 3z"/>
</g>
</svg>
