<svg version="1.0" xmlns="http://www.w3.org/2000/svg"
 width="668px" style="transform:scale(1,1.001);" height="375.75px" viewBox="0 0 320.000000 180.000000"
 preserveAspectRatio="xMidYMid meet">
<g transform="translate(0.000000,180.000000) scale(0.100000,-0.100000)"
fill="#000000" stroke="none">
<path d="M0 905 l0 -895 1600 0 1600 0 0 895 0 895 -1600 0 -1600 0 0 -895z m1793 605
c31 -11 62 -20 68 -20 25 0 90 -58 114 -101 22 -41 25 -58 25 -149 0 -57 -5
-130 -11 -164 -10 -54 -9 -67 10 -116 23 -63 72 -119 128 -150 21 -11 56 -32
78 -45 22 -13 54 -31 70 -41 37 -20 168 -126 213 -171 50 -50 85 -134 77 -183
-12 -73 19 -70 -730 -68 -469 1 -672 5 -688 13 -20 10 -22 18 -22 100 1 65 5
97 17 115 8 14 19 38 22 54 22 91 142 192 276 232 54 16 100 48 100 70 0 8
-39 52 -87 97 -179 169 -173 161 -173 201 0 34 46 132 77 164 7 7 13 16 13 20
0 12 74 89 100 105 14 8 48 18 75 22 28 3 61 13 75 20 36 20 107 18 173 -5z"/>
</g>
</svg>
