<svg version="1.0" xmlns="http://www.w3.org/2000/svg"
 width="668px" style="transform:scale(1,1.001);" height="375.75px" viewBox="0 0 320.000000 180.000000"
 preserveAspectRatio="xMidYMid meet">
<g transform="translate(0.000000,180.000000) scale(0.100000,-0.100000)"
fill="#000000" stroke="none">
<path d="M0 905 l0 -895 595 0 c572 0 595 1 595 18 0 11 -7 34 -16 52 -15 28 -16 61
-12 239 3 114 1 216 -3 229 -7 19 -16 22 -56 22 -26 0 -74 -9 -105 -20 -31
-10 -89 -22 -128 -26 -47 -4 -79 -13 -96 -26 -13 -11 -46 -26 -72 -33 -26 -6
-65 -24 -86 -39 -21 -14 -50 -26 -63 -26 -34 0 -114 -21 -138 -36 -35 -22
-151 -39 -180 -26 -14 6 -25 17 -25 24 0 7 -11 35 -25 62 -14 27 -25 59 -25
71 0 12 -5 36 -11 53 -8 24 -7 37 5 59 25 49 41 57 78 43 18 -7 40 -21 48 -30
62 -67 127 -85 184 -51 17 10 47 22 66 26 19 4 59 20 87 36 29 16 63 29 76 29
14 0 42 12 63 26 21 15 51 31 67 36 17 6 41 32 64 67 125 196 146 222 228 297
48 43 94 92 102 107 8 15 23 37 33 47 11 11 22 32 26 47 4 16 17 39 29 53 28
31 65 99 65 120 0 8 -21 42 -46 75 -41 54 -45 64 -39 100 13 84 66 120 168
113 51 -4 63 -9 94 -40 34 -34 37 -41 43 -120 6 -80 9 -87 51 -142 24 -32 51
-68 59 -80 8 -11 25 -34 37 -49 20 -25 23 -39 23 -126 0 -84 -3 -104 -25 -146
-13 -27 -27 -63 -30 -79 -15 -72 -59 -189 -82 -217 -14 -16 -38 -36 -53 -44
-18 -9 -33 -28 -40 -52 -7 -21 -22 -54 -35 -73 -37 -59 -72 -133 -80 -170 -4
-19 -18 -59 -31 -88 -20 -41 -25 -70 -25 -126 0 -40 3 -85 6 -98 4 -15 2 -29
-4 -32 -6 -4 -11 -18 -11 -32 l0 -24 925 0 925 0 0 895 0 895 -1600 0 -1600 0
0 -895z"/>
</g>
</svg>
