<svg version="1.0" xmlns="http://www.w3.org/2000/svg"
 width="668px" style="transform:scale(1,1.001);" height="375.75px" viewBox="0 0 320.000000 180.000000"
 preserveAspectRatio="xMidYMid meet">
<g transform="translate(0.000000,180.000000) scale(0.100000,-0.100000)"
fill="#000000" stroke="none">
<path d="M0 905 l0 -895 695 0 695 0 0 39 c0 46 34 304 50 378 11 48 9 56 -16 112 -42
90 -52 83 -64 -47 -6 -69 -5 -90 6 -103 19 -21 19 -21 -27 -68 -41 -41 -59
-50 -59 -31 0 6 -6 10 -13 10 -8 0 -22 9 -32 20 -26 29 -16 187 19 295 19 58
26 102 26 160 1 109 12 157 50 218 l32 52 -18 50 c-21 59 -20 97 3 136 16 27
21 29 85 29 66 0 69 -1 88 -32 11 -18 20 -44 20 -58 0 -51 13 -69 71 -105 34
-21 66 -50 75 -67 10 -19 20 -77 26 -147 9 -116 37 -258 83 -426 44 -158 36
-215 -31 -215 -42 0 -68 -24 -54 -50 12 -23 13 -77 1 -84 -15 -10 -98 20 -136
50 -28 21 -41 25 -53 18 -19 -12 -40 -68 -41 -106 l-1 -28 860 0 860 0 0 895
0 895 -1600 0 -1600 0 0 -895z"/>
<path d="M1582 373 c-16 -30 -15 -53 3 -53 21 0 30 26 18 53 l-10 22 -11 -22z"/>
</g>
</svg>
