<svg version="1.0" xmlns="http://www.w3.org/2000/svg"
 width="668px" style="transform:scale(1,1.001);" height="375.75px" viewBox="0 0 320.000000 180.000000"
 preserveAspectRatio="xMidYMid meet">
<g transform="translate(0.000000,180.000000) scale(0.100000,-0.100000)"
fill="#000000" stroke="none">
<path d="M0 905 l0 -895 635 0 635 0 0 21 c0 12 -11 30 -25 41 -32 25 -35 84 -5 116 11
11 31 46 45 78 43 98 30 179 -43 272 -39 49 -78 119 -97 176 -17 49 -7 100 31
155 36 54 32 98 -15 157 -30 38 -39 61 -44 103 -4 29 -13 64 -22 77 -20 31
-35 143 -25 188 12 54 48 89 130 130 90 44 160 49 203 16 14 -12 39 -25 56
-31 80 -28 114 -166 72 -288 -12 -34 -21 -67 -21 -74 0 -21 90 -68 148 -78 31
-5 64 -17 77 -29 12 -11 33 -20 47 -20 16 0 34 -10 45 -23 10 -13 26 -28 36
-33 29 -17 210 -195 255 -252 l42 -54 0 -141 c0 -77 -5 -168 -12 -203 -10 -56
-9 -71 10 -138 16 -53 20 -87 16 -120 l-7 -46 517 0 516 0 0 895 0 895 -1600
0 -1600 0 0 -895z"/>
</g>
</svg>
