<svg version="1.0" xmlns="http://www.w3.org/2000/svg"
 width="668px" style="transform:scale(1,1.001);" height="375.75px" viewBox="0 0 320.000000 180.000000"
 preserveAspectRatio="xMidYMid meet">
<g transform="translate(0.000000,180.000000) scale(0.100000,-0.100000)"
fill="#000000" stroke="none">
<path d="M0 905 l0 -895 706 0 705 0 -1 53 c-1 51 -3 182 -2 223 0 23 27 84 69 154 26
44 26 48 31 265 5 231 4 235 -50 465 -23 96 -62 216 -83 257 -9 17 -15 57 -15
102 0 61 4 82 25 117 14 23 35 46 46 49 12 4 37 18 56 31 20 13 49 24 64 24
24 0 29 4 29 25 l0 25 -790 0 -790 0 0 -895z"/>
<path d="M1640 1775 c0 -17 5 -25 18 -25 31 0 130 -71 158 -113 25 -38 26 -46 21 -117
-3 -42 -9 -83 -12 -91 -3 -9 10 -35 33 -65 89 -114 164 -273 197 -419 19 -84
38 -148 71 -235 37 -98 41 -241 8 -305 -64 -126 -91 -169 -139 -227 -58 -70
-85 -117 -85 -148 0 -20 1 -20 645 -20 l645 0 0 895 0 895 -780 0 -780 0 0
-25z"/>
</g>
</svg>
