<svg version="1.0" xmlns="http://www.w3.org/2000/svg"
 width="668px" style="transform:scale(1,1.001);" height="375.75px" viewBox="0 0 320.000000 180.000000"
 preserveAspectRatio="xMidYMid meet">
<g transform="translate(0.000000,180.000000) scale(0.100000,-0.100000)"
fill="#000000" stroke="none">
<path d="M0 905 l0 -895 780 0 780 0 0 43 c0 49 -22 92 -33 63 -7 -17 -52 -22 -61 -7
-3 5 -10 52 -16 105 -5 53 -17 111 -26 128 -9 17 -20 71 -25 122 -4 50 -18
159 -30 241 -35 252 -36 284 -5 348 31 66 31 65 9 108 -44 89 5 178 99 179 40
0 51 -5 77 -32 17 -18 33 -45 36 -60 3 -16 8 -41 11 -58 3 -18 13 -32 27 -36
49 -14 98 -86 132 -190 22 -68 25 -93 25 -233 0 -169 9 -220 46 -264 13 -16
24 -39 24 -53 0 -20 -5 -24 -30 -24 -18 0 -37 8 -47 20 -10 11 -21 20 -25 20
-12 0 -28 -37 -44 -96 -8 -31 -23 -74 -33 -97 -23 -51 -24 -53 -22 -149 l1
-78 775 0 775 0 0 895 0 895 -1600 0 -1600 0 0 -895z"/>
</g>
</svg>
