<svg version="1.0" xmlns="http://www.w3.org/2000/svg"
 width="668px" style="transform:scale(1,1.001);" height="375.75px" viewBox="0 0 320.000000 180.000000"
 preserveAspectRatio="xMidYMid meet">
<g transform="translate(0.000000,180.000000) scale(0.100000,-0.100000)"
fill="#000000" stroke="none">
<path d="M0 905 l0 -895 1600 0 1600 0 0 895 0 895 -1600 0 -1600 0 0 -895z m1602 723
c73 -24 102 -44 169 -113 73 -75 84 -144 38 -237 -11 -21 -19 -44 -19 -53 0
-8 -9 -41 -20 -72 -11 -32 -20 -73 -20 -91 0 -32 34 -103 53 -111 4 -1 19 -13
33 -26 14 -13 43 -25 68 -28 25 -4 60 -16 78 -27 18 -11 42 -20 54 -20 68 0
177 -150 199 -275 7 -40 20 -83 29 -96 10 -14 16 -43 16 -75 0 -42 -5 -56 -27
-78 l-27 -27 -375 6 c-823 12 -881 14 -903 26 -34 18 -38 28 -38 109 0 115 42
228 110 298 29 28 60 52 71 52 10 0 34 14 53 30 18 17 58 41 88 55 104 47 128
119 70 210 -17 28 -40 66 -49 85 -10 19 -26 42 -35 52 -10 10 -18 24 -18 32 0
8 -11 28 -25 44 -20 23 -25 41 -25 82 0 49 3 54 58 113 103 110 117 119 207
142 73 19 117 18 187 -7z"/>
</g>
</svg>
