<svg version="1.0" xmlns="http://www.w3.org/2000/svg"
 width="668px" style="transform:scale(1,1.001);" height="375.75px" viewBox="0 0 320.000000 180.000000"
 preserveAspectRatio="xMidYMid meet">
<g transform="translate(0.000000,180.000000) scale(0.100000,-0.100000)"
fill="#000000" stroke="none">
<path d="M0 905 l0 -895 1600 0 1600 0 0 895 0 895 -1600 0 -1600 0 0 -895z m1855 727
c44 -15 94 -36 110 -46 45 -27 138 -139 153 -183 19 -55 1 -127 -48 -194 -102
-140 -112 -159 -112 -199 1 -29 9 -50 29 -74 30 -36 106 -96 123 -96 5 0 24
-13 42 -28 18 -16 40 -33 49 -38 26 -14 115 -126 124 -154 4 -14 16 -39 26
-56 45 -74 72 -199 51 -230 -19 -29 -61 -31 -707 -28 -660 4 -660 4 -677 25
-24 29 -23 59 7 129 14 33 25 66 25 73 0 25 80 134 133 181 52 47 148 109 190
122 12 4 33 15 47 24 14 9 38 25 53 34 37 22 87 102 87 138 0 15 -9 47 -19 70
-58 132 -85 216 -98 310 -10 72 63 154 197 220 70 35 113 35 215 0z m-24
-1500 c34 -13 -152 -22 -425 -21 -241 0 -301 7 -236 27 41 13 624 7 661 -6z"/>
</g>
</svg>
