<svg version="1.0" xmlns="http://www.w3.org/2000/svg"
 width="668px" style="transform:scale(1,1.001);" height="375.75px" viewBox="0 0 320.000000 180.000000"
 preserveAspectRatio="xMidYMid meet">
<g transform="translate(0.000000,180.000000) scale(0.100000,-0.100000)"
fill="#000000" stroke="none">
<path d="M0 905 l0 -895 1600 0 1600 0 0 895 0 895 -1600 0 -1600 0 0 -895z m1313 206
c34 -15 74 -41 89 -57 59 -64 78 -87 78 -99 0 -7 8 -19 19 -29 25 -23 33 -109
20 -247 l-10 -114 26 -22 c17 -15 39 -23 63 -23 20 0 73 -9 117 -20 44 -11 90
-20 101 -20 80 0 240 -118 207 -151 -13 -13 -978 -20 -1025 -8 -24 6 -38 16
-38 26 0 8 -8 30 -19 47 -10 17 -22 42 -26 56 -7 24 -33 61 -72 105 -78 87
-125 149 -139 184 -16 40 -16 41 11 88 16 27 49 71 74 98 26 28 62 69 81 93
41 51 116 90 191 99 30 3 61 9 69 14 33 19 120 9 183 -20z"/>
</g>
</svg>
