<svg version="1.0" xmlns="http://www.w3.org/2000/svg"
 width="668px" style="transform:scale(1,1.001);" height="375.75px" viewBox="0 0 320.000000 180.000000"
 preserveAspectRatio="xMidYMid meet">
<g transform="translate(0.000000,180.000000) scale(0.100000,-0.100000)"
fill="#000000" stroke="none">
<path d="M0 905 l0 -895 1600 0 1600 0 0 895 0 895 -1600 0 -1600 0 0 -895z m1837 793
c10 -9 29 -19 43 -23 41 -10 108 -81 116 -122 12 -61 -10 -162 -46 -221 -54
-86 -42 -127 64 -212 31 -25 75 -60 98 -78 70 -56 126 -136 133 -190 4 -26 13
-67 21 -92 14 -46 38 -273 39 -368 0 -45 -4 -57 -24 -73 -21 -18 -41 -19 -245
-18 -121 1 -366 4 -542 8 -296 5 -324 8 -343 25 -32 29 -36 76 -12 169 11 45
21 98 21 117 0 19 9 55 20 79 11 24 20 53 20 65 0 11 9 32 20 46 11 14 20 32
20 41 0 21 51 97 91 137 49 49 170 142 183 142 7 0 29 18 50 39 36 37 38 43
34 85 -4 29 -18 65 -42 100 -69 104 -72 213 -8 279 20 20 41 37 47 37 6 0 27
12 46 26 30 23 41 25 106 22 48 -2 77 -9 90 -20z"/>
</g>
</svg>
