<svg version="1.0" xmlns="http://www.w3.org/2000/svg"
 width="668px" style="transform:scale(1,1.001);" height="375.75px" viewBox="0 0 320.000000 180.000000"
 preserveAspectRatio="xMidYMid meet">
<g transform="translate(0.000000,180.000000) scale(0.100000,-0.100000)"
fill="#000000" stroke="none">
<path d="M0 905 l0 -895 1600 0 1600 0 0 895 0 895 -905 0 -905 0 0 -37 c0 -22 9 -49
20 -63 11 -14 20 -37 20 -51 0 -31 -26 -87 -52 -112 -12 -12 -18 -32 -18 -66
0 -39 5 -52 28 -73 25 -25 35 -27 158 -34 154 -8 147 -12 158 104 8 94 45 170
88 179 15 3 31 10 34 14 7 12 71 12 78 0 3 -4 28 -11 55 -15 41 -5 53 -12 77
-44 38 -49 64 -107 64 -143 0 -41 -34 -91 -77 -114 -46 -24 -54 -55 -21 -84
50 -45 60 -52 96 -67 43 -17 114 -101 147 -172 39 -84 67 -191 61 -227 -18
-96 -93 -165 -178 -165 -50 0 -82 -19 -104 -62 -13 -25 -14 -44 -7 -102 9 -81
6 -135 -9 -153 -7 -9 -67 -12 -234 -10 -185 3 -227 6 -240 18 -9 10 -17 43
-20 90 -3 41 -12 90 -19 109 -39 96 -55 194 -55 331 0 181 -11 234 -61 279
-69 64 -100 89 -118 95 -9 3 -33 21 -52 41 l-34 35 2 99 c2 58 9 116 18 142
30 83 65 208 65 233 l0 25 -630 0 -630 0 0 -895z"/>
</g>
</svg>
