<svg version="1.0" xmlns="http://www.w3.org/2000/svg"
 width="668px" style="transform:scale(1,1.001);" height="375.75px" viewBox="0 0 320.000000 180.000000"
 preserveAspectRatio="xMidYMid meet">
<g transform="translate(0.000000,180.000000) scale(0.100000,-0.100000)"
fill="#000000" stroke="none">
<path d="M0 905 l0 -895 505 0 505 0 0 89 c0 53 6 105 15 131 8 23 15 58 15 77 0 32 9
68 42 168 5 17 16 51 23 77 7 25 29 78 49 118 20 39 44 93 52 118 9 26 27 69
40 95 31 64 31 76 -11 154 -28 53 -35 77 -35 123 0 82 72 270 104 270 7 0 25
9 39 20 14 11 40 23 59 26 55 11 66 21 74 69 3 25 16 60 28 78 20 29 27 32 70
31 30 0 53 -6 60 -15 6 -8 23 -22 37 -31 14 -9 33 -37 43 -61 17 -44 16 -47
-3 -86 -12 -22 -25 -42 -31 -46 -5 -3 -14 -23 -20 -44 -9 -34 -6 -47 20 -110
27 -63 31 -84 33 -180 l2 -109 -43 -50 c-23 -28 -42 -60 -42 -72 0 -12 18 -58
39 -103 40 -85 53 -119 91 -247 12 -41 26 -80 31 -85 4 -6 11 -30 15 -53 4
-23 10 -45 15 -47 4 -3 11 -27 15 -53 3 -26 17 -79 30 -119 13 -39 24 -85 24
-102 l0 -31 655 0 655 0 0 895 0 895 -1600 0 -1600 0 0 -895z"/>
<path d="M1357 591 c-32 -33 -69 -75 -83 -93 -36 -49 -83 -148 -90 -188 -3 -19 -10 -46
-16 -60 -16 -37 -57 -191 -58 -217 l0 -23 335 0 335 0 0 23 c0 13 -4 27 -8 33
-12 13 -67 157 -93 243 -24 82 -43 117 -133 246 -56 81 -66 90 -97 93 -30 3
-41 -4 -92 -57z"/>
</g>
</svg>
