<svg version="1.0" xmlns="http://www.w3.org/2000/svg"
 width="668px" style="transform:scale(1,1.001);" height="375.75px" viewBox="0 0 320.000000 180.000000"
 preserveAspectRatio="xMidYMid meet">
<g transform="translate(0.000000,180.000000) scale(0.100000,-0.100000)"
fill="#000000" stroke="none">
<path d="M0 905 l0 -895 1600 0 1600 0 0 895 0 895 -1600 0 -1600 0 0 -895z m1826 784
c154 -81 182 -170 104 -331 -22 -46 -40 -95 -40 -109 0 -28 50 -86 116 -132
21 -15 50 -35 63 -45 46 -32 151 -145 156 -166 2 -12 11 -50 20 -86 8 -36 19
-119 24 -185 6 -66 15 -136 21 -155 17 -59 13 -124 -11 -155 l-22 -27 -541 4
c-370 3 -549 8 -567 15 -51 22 -61 95 -29 214 11 41 20 95 20 121 0 61 89 288
112 288 4 0 13 11 20 24 13 24 132 121 179 146 13 7 45 31 72 52 59 50 62 80
12 170 -54 97 -57 108 -59 178 -1 60 2 68 33 108 84 104 204 131 317 71z"/>
</g>
</svg>
