<svg version="1.0" xmlns="http://www.w3.org/2000/svg"
 width="668px" style="transform:scale(1,1.001);" height="375.75px" viewBox="0 0 320.000000 180.000000"
 preserveAspectRatio="xMidYMid meet">
<g transform="translate(0.000000,180.000000) scale(0.100000,-0.100000)"
fill="#000000" stroke="none">
<path d="M0 905 l0 -895 620 0 620 0 0 21 c0 11 -10 29 -22 39 -22 18 -23 23 -23 228 0
225 -4 242 -52 242 -13 0 -38 -7 -54 -16 -17 -8 -64 -19 -106 -24 -51 -5 -85
-15 -104 -29 -16 -12 -50 -25 -75 -30 -25 -5 -55 -18 -67 -29 -12 -11 -51 -27
-86 -36 -36 -9 -70 -21 -77 -27 -7 -6 -37 -17 -66 -25 -119 -34 -110 -34 -156
7 -29 25 -48 54 -61 91 -11 29 -26 67 -35 84 -12 24 -13 38 -5 70 16 59 29 69
70 51 19 -8 45 -27 59 -42 53 -57 141 -72 194 -31 19 14 53 26 86 31 34 5 65
16 82 30 14 12 43 25 65 28 21 4 51 18 67 32 16 14 33 25 37 25 4 0 35 33 69
73 33 39 65 77 69 82 5 6 17 17 27 26 41 34 120 125 131 152 7 15 16 27 22 27
5 0 16 21 25 47 9 25 22 53 30 62 7 9 16 34 19 56 4 21 15 52 27 67 25 34 42
110 34 153 -3 18 -17 44 -31 57 -65 61 -77 142 -28 188 20 19 39 24 103 28
131 7 166 -23 178 -152 6 -65 11 -83 33 -106 26 -28 49 -56 99 -119 26 -34 27
-39 27 -155 -1 -102 -4 -128 -22 -166 -13 -29 -25 -82 -31 -148 l-11 -103 -71
-85 c-39 -46 -76 -99 -82 -117 -11 -30 -18 -43 -68 -117 -11 -16 -27 -61 -35
-100 -8 -39 -20 -80 -26 -92 -7 -12 -8 -40 -4 -72 4 -28 7 -79 6 -113 l0 -63
900 0 899 0 0 895 0 895 -1600 0 -1600 0 0 -895z"/>
</g>
</svg>
