<svg version="1.0" xmlns="http://www.w3.org/2000/svg"
 width="668px" style="transform:scale(1,1.001);" height="375.75px" viewBox="0 0 320.000000 180.000000"
 preserveAspectRatio="xMidYMid meet">
<g transform="translate(0.000000,180.000000) scale(0.100000,-0.100000)"
fill="#000000" stroke="none">
<path d="M0 905 l0 -895 651 0 652 0 -9 37 c-8 39 -9 124 -5 603 1 172 -2 296 -9 330
-6 30 -14 92 -18 137 -6 70 -11 86 -34 110 -26 27 -37 30 -145 41 -65 7 -138
12 -163 12 -25 0 -56 6 -70 13 -31 15 -43 68 -23 97 8 11 11 20 7 20 -4 0 3
11 15 24 18 19 28 23 45 16 119 -45 285 -54 356 -20 19 10 50 21 68 25 41 9
50 29 28 65 -9 16 -16 48 -16 73 0 36 6 51 29 76 26 27 35 31 84 31 85 0 110
-38 119 -184 3 -41 0 -38 107 -101 18 -11 48 -34 65 -50 56 -54 121 -103 141
-107 15 -2 21 -12 23 -38 3 -34 1 -36 -42 -49 -27 -8 -64 -11 -88 -7 -109 15
-130 2 -152 -93 -17 -75 -20 -176 -7 -256 17 -100 -24 -361 -75 -483 -8 -18
-14 -65 -14 -105 0 -70 1 -73 29 -90 34 -20 71 -75 71 -106 l0 -21 790 0 790
0 0 895 0 895 -1600 0 -1600 0 0 -895z"/>
</g>
</svg>
