<svg version="1.0" xmlns="http://www.w3.org/2000/svg"
 width="668px" style="transform:scale(1,1.001);" height="375.75px" viewBox="0 0 320.000000 180.000000"
 preserveAspectRatio="xMidYMid meet">
<g transform="translate(0.000000,180.000000) scale(0.100000,-0.100000)"
fill="#000000" stroke="none">
<path d="M0 905 l0 -895 900 0 900 0 0 73 c0 69 2 75 50 152 27 44 59 98 71 120 12 22
48 65 80 95 32 30 68 74 80 98 20 40 21 48 10 100 -38 174 -49 192 -121 192
-81 0 -95 32 -64 140 29 99 29 109 1 138 -49 53 -53 80 -25 153 5 15 27 41 48
58 34 27 46 31 102 31 59 0 66 -2 95 -32 19 -21 35 -52 43 -84 12 -54 34 -80
116 -136 21 -15 53 -42 70 -60 74 -78 164 -316 164 -431 0 -40 -7 -67 -25 -98
-14 -24 -25 -52 -25 -62 0 -28 -29 -86 -66 -132 -17 -22 -46 -65 -63 -96 -28
-50 -31 -64 -31 -137 l0 -82 445 0 445 0 0 895 0 895 -1600 0 -1600 0 0 -895z"/>
<path d="M2048 148 c-21 -16 -48 -79 -48 -113 0 -24 2 -25 65 -25 64 0 65 0 65 28 0 15
-6 47 -14 72 -14 48 -37 61 -68 38z"/>
</g>
</svg>
