<svg version="1.0" xmlns="http://www.w3.org/2000/svg"
 width="668px" style="transform:scale(1,1.001);" height="375.75px" viewBox="0 0 320.000000 180.000000"
 preserveAspectRatio="xMidYMid meet">
<g transform="translate(0.000000,180.000000) scale(0.100000,-0.100000)"
fill="#000000" stroke="none">
<path d="M0 905 l0 -895 695 0 695 0 0 29 c0 22 -9 36 -32 54 -48 35 -60 37 -125 21
-32 -9 -129 -18 -219 -21 -133 -5 -166 -3 -195 10 -19 9 -60 23 -91 32 -60 17
-88 36 -88 60 0 8 -9 19 -20 25 -53 28 -68 132 -25 171 14 13 35 41 46 61 10
21 33 48 50 60 17 13 40 38 51 57 14 22 42 44 82 63 158 77 174 88 237 157
101 110 146 122 610 167 48 4 79 14 113 35 42 26 46 32 40 57 -4 15 -20 43
-34 62 -16 20 -30 54 -34 80 -4 25 -18 67 -32 93 l-25 48 31 63 c16 34 30 67
30 73 0 5 16 24 36 42 19 18 39 43 44 57 5 13 25 34 44 45 19 11 37 26 40 34
3 8 36 29 73 47 64 31 74 33 178 33 80 0 125 -5 165 -19 79 -27 170 -73 205
-106 17 -15 39 -32 49 -38 11 -5 29 -25 40 -44 12 -19 35 -54 51 -78 26 -38
31 -55 35 -129 8 -136 0 -184 -37 -219 -20 -18 -36 -47 -44 -77 -7 -29 -24
-60 -45 -81 -31 -30 -34 -39 -34 -90 0 -44 9 -75 40 -145 22 -49 40 -92 40
-97 0 -4 51 -58 114 -120 85 -84 123 -129 145 -175 17 -34 43 -78 57 -97 25
-33 26 -39 19 -117 l-6 -83 115 0 116 0 0 895 0 895 -1600 0 -1600 0 0 -895z"/>
</g>
</svg>
