<svg version="1.0" xmlns="http://www.w3.org/2000/svg"
 width="668px" style="transform:scale(1,1.001);" height="375.75px" viewBox="0 0 320.000000 180.000000"
 preserveAspectRatio="xMidYMid meet">
<g transform="translate(0.000000,180.000000) scale(0.100000,-0.100000)"
fill="#000000" stroke="none">
<path d="M0 905 l0 -895 1600 0 1600 0 0 895 0 895 -1600 0 -1600 0 0 -895z m1687 725
c21 -11 48 -20 60 -20 32 0 124 -78 152 -129 14 -25 24 -60 24 -85 1 -63 -28
-181 -52 -212 -11 -15 -21 -34 -21 -43 0 -9 -7 -29 -16 -46 -33 -64 28 -173
111 -197 22 -7 54 -20 70 -30 17 -10 42 -18 57 -18 15 0 37 -4 50 -9 35 -13
137 -119 145 -150 3 -14 16 -44 28 -66 13 -22 26 -66 29 -98 4 -32 13 -72 21
-87 23 -44 19 -87 -11 -115 l-25 -23 -282 5 c-175 3 -323 1 -391 -6 -75 -7
-136 -8 -200 -1 -84 9 -349 15 -423 9 -21 -2 -40 4 -54 17 -19 17 -21 26 -16
99 3 55 11 93 26 120 11 22 21 47 21 55 0 9 11 31 25 50 14 19 25 39 25 45 0
18 88 92 117 100 15 3 37 17 50 31 13 15 33 24 51 24 16 0 40 8 53 19 13 10
41 23 61 30 43 14 54 44 43 126 -4 38 -13 58 -31 74 -13 11 -24 29 -24 40 0
10 -9 29 -19 42 -10 14 -26 40 -35 59 -10 19 -26 51 -37 70 -23 42 -25 101 -3
143 18 38 122 129 190 168 64 36 172 41 231 9z"/>
</g>
</svg>
