<svg version="1.0" xmlns="http://www.w3.org/2000/svg"
 width="668px" style="transform:scale(1,1.001);" height="375.75px" viewBox="0 0 320.000000 180.000000"
 preserveAspectRatio="xMidYMid meet">
<g transform="translate(0.000000,180.000000) scale(0.100000,-0.100000)"
fill="#000000" stroke="none">
<path d="M0 905 l0 -895 250 0 250 0 0 43 c0 40 5 49 75 122 59 63 78 90 90 132 8 28
20 55 25 58 6 4 21 27 35 53 41 81 152 176 219 189 66 13 122 59 111 92 -3 10
-14 26 -25 36 -11 10 -20 24 -20 32 0 8 -27 41 -59 74 -33 33 -65 76 -72 96
-18 57 -7 117 32 161 50 56 81 92 112 132 57 70 111 107 170 113 30 4 73 14
97 22 61 22 175 19 225 -5 22 -11 46 -19 53 -20 19 0 112 -80 112 -96 0 -6 15
-30 34 -53 42 -50 50 -98 37 -214 -7 -60 -16 -95 -31 -115 -11 -15 -23 -44
-26 -64 -10 -57 24 -84 112 -93 38 -3 87 -14 109 -24 22 -10 54 -22 70 -26 34
-8 115 -55 145 -85 11 -11 24 -20 30 -20 5 0 17 -15 26 -32 9 -18 29 -43 44
-55 16 -13 30 -37 34 -56 4 -19 19 -54 35 -78 18 -27 32 -65 36 -99 4 -30 18
-76 31 -102 20 -40 21 -48 9 -58 -8 -7 -15 -23 -15 -36 l0 -24 420 0 420 0 0
895 0 895 -1600 0 -1600 0 0 -895z"/>
</g>
</svg>
