<svg version="1.0" xmlns="http://www.w3.org/2000/svg"
 width="668px" style="transform:scale(1,1.001);" height="375.75px" viewBox="0 0 320.000000 180.000000"
 preserveAspectRatio="xMidYMid meet">
<g transform="translate(0.000000,180.000000) scale(0.100000,-0.100000)"
fill="#000000" stroke="none">
<path d="M0 905 l0 -895 630 0 630 0 0 34 c0 19 4 37 9 40 5 4 12 24 16 46 5 32 0 53
-31 122 -37 81 -37 85 -35 197 2 126 2 131 37 247 20 66 24 98 22 175 l-3 94
-65 -3 c-41 -3 -76 -11 -96 -23 -43 -26 -90 -25 -105 2 -13 26 -4 96 17 123
13 18 18 19 49 7 31 -11 38 -10 80 14 25 15 45 31 45 36 0 5 25 35 56 65 52
53 56 59 49 93 -18 107 -18 116 10 149 25 29 32 32 87 32 53 0 63 -3 90 -31
29 -28 30 -33 25 -89 -5 -63 9 -100 41 -100 33 -1 80 -36 129 -95 83 -102 101
-146 80 -192 -14 -31 -42 -38 -89 -22 -27 8 -42 9 -49 2 -9 -9 -14 -594 -6
-792 2 -61 -12 -78 -57 -67 -33 8 -44 35 -57 139 -5 43 -20 113 -33 155 -13
42 -28 95 -33 117 -20 93 -82 9 -83 -113 0 -37 9 -77 29 -125 38 -97 46 -146
27 -172 -9 -11 -16 -30 -16 -42 l0 -23 900 0 900 0 0 895 0 895 -1600 0 -1600
0 0 -895z"/>
</g>
</svg>
