<svg version="1.0" xmlns="http://www.w3.org/2000/svg"
 width="668px" style="transform:scale(1,1.001);" height="375.75px" viewBox="0 0 320.000000 180.000000"
 preserveAspectRatio="xMidYMid meet">
<g transform="translate(0.000000,180.000000) scale(0.100000,-0.100000)"
fill="#000000" stroke="none">
<path d="M0 905 l0 -895 1600 0 1600 0 0 895 0 895 -1600 0 -1600 0 0 -895z m1905 730
c45 -12 70 -26 100 -56 l40 -39 0 -103 c0 -81 -4 -109 -17 -130 -24 -35 -23
-56 6 -114 29 -57 73 -104 179 -193 75 -62 130 -132 155 -195 6 -16 16 -70 22
-120 5 -49 14 -117 20 -150 21 -125 8 -203 -35 -223 -35 -16 -1079 -17 -1123
-1 -18 6 -37 20 -43 30 -13 24 -36 24 -77 -1 -39 -24 -125 -27 -162 -5 -14 8
-35 19 -47 24 -14 7 -24 23 -29 46 -16 85 22 182 103 268 93 99 117 120 159
138 53 22 90 53 144 119 52 63 75 81 166 123 21 11 55 27 74 37 20 10 53 23
75 29 23 7 50 24 63 41 l23 29 -24 38 c-14 21 -36 49 -51 62 -14 14 -26 28
-26 32 0 5 -11 25 -25 45 -35 52 -33 95 10 158 51 76 80 99 143 112 78 17 108
17 177 -1z"/>
</g>
</svg>
