<svg version="1.0" xmlns="http://www.w3.org/2000/svg"
 width="668px" style="transform:scale(1,1.001);" height="375.75px" viewBox="0 0 320.000000 180.000000"
 preserveAspectRatio="xMidYMid meet">
<g transform="translate(0.000000,180.000000) scale(0.100000,-0.100000)"
fill="#000000" stroke="none">
<path d="M0 905 l0 -895 1600 0 1600 0 0 895 0 895 -1600 0 -1600 0 0 -895z m1698 730
c47 -20 77 -49 109 -103 22 -37 24 -50 19 -93 -4 -28 -16 -73 -26 -100 -31
-78 -27 -115 17 -157 20 -19 57 -43 81 -53 24 -11 55 -28 69 -39 14 -11 33
-20 43 -20 22 0 86 -50 115 -90 13 -17 35 -79 50 -138 16 -59 36 -123 46 -142
9 -19 20 -61 24 -92 6 -49 4 -59 -14 -77 -17 -17 -21 -33 -21 -89 0 -90 -16
-114 -70 -106 -31 5 -45 2 -72 -17 l-33 -24 -305 3 c-329 4 -411 12 -447 48
-19 19 -21 27 -13 56 11 42 13 123 4 314 -8 187 6 258 63 317 21 20 44 37 53
37 23 0 90 48 90 65 0 26 -19 62 -94 172 -75 112 -74 199 2 263 20 17 44 37
52 45 28 25 63 34 143 34 49 1 91 -5 115 -14z"/>
</g>
</svg>
