<svg version="1.0" xmlns="http://www.w3.org/2000/svg"
 width="668px" style="transform:scale(1,1.001);" height="375.75px" viewBox="0 0 320.000000 180.000000"
 preserveAspectRatio="xMidYMid meet">
<g transform="translate(0.000000,180.000000) scale(0.100000,-0.100000)"
fill="#000000" stroke="none">
<path d="M0 905 l0 -895 1600 0 1600 0 0 895 0 895 -1600 0 -1600 0 0 -895z m1407 703
c7 -6 13 -42 15 -86 l3 -76 35 -11 c84 -25 115 -51 145 -117 37 -84 43 -168
19 -239 -17 -50 -19 -91 -19 -527 0 -519 3 -495 -60 -490 -48 5 -54 31 -59
264 -6 228 -18 370 -33 385 -15 15 -39 -13 -62 -75 -35 -95 -36 -138 -2 -271
17 -66 31 -136 31 -156 0 -47 -45 -94 -99 -103 -78 -12 -93 13 -54 91 30 62
29 64 -18 233 -13 49 -23 118 -26 198 -5 123 -5 123 -34 137 -16 9 -32 23 -37
33 -16 29 -24 251 -12 337 11 88 46 194 66 202 8 3 16 19 20 37 4 26 -1 42
-25 78 -23 34 -31 57 -31 89 0 67 8 73 102 80 87 6 115 3 135 -13z"/>
</g>
</svg>
