<svg version="1.0" xmlns="http://www.w3.org/2000/svg"
 width="668px" style="transform:scale(1,1.001);" height="375.75px" viewBox="0 0 320.000000 180.000000"
 preserveAspectRatio="xMidYMid meet">
<g transform="translate(0.000000,180.000000) scale(0.100000,-0.100000)"
fill="#000000" stroke="none">
<path d="M0 905 l0 -895 906 0 906 0 -7 38 c-19 100 -12 142 46 268 10 23 19 46 19 53
0 6 9 28 20 48 11 21 20 45 20 54 0 14 61 140 107 222 16 28 16 59 0 122 -7
28 -10 64 -6 80 4 17 7 47 8 68 1 49 -18 56 -136 50 -132 -8 -153 -2 -181 51
-19 36 -25 65 -29 158 -3 63 -2 140 2 173 6 50 13 64 49 103 49 52 72 51 102
-3 16 -31 17 -39 5 -67 -7 -18 -22 -59 -33 -91 -19 -54 -19 -60 -4 -92 9 -18
25 -36 35 -40 27 -8 73 4 94 26 10 10 30 22 45 25 15 4 44 23 64 43 32 31 37
41 32 66 -3 17 -15 39 -25 50 -10 11 -25 39 -33 62 -14 39 -13 44 9 85 20 38
28 45 77 57 79 21 139 3 180 -53 26 -36 29 -47 27 -108 -2 -59 1 -72 21 -93
23 -25 57 -39 122 -49 23 -4 42 -15 53 -32 12 -18 23 -24 43 -22 24 3 27 7 26
43 -1 22 -4 67 -9 101 -6 51 -5 63 10 78 24 24 64 17 88 -16 23 -31 35 -133
36 -310 1 -110 -1 -119 -25 -155 -40 -60 -72 -63 -136 -12 -50 40 -54 28 -62
-166 -4 -97 -11 -198 -16 -224 -8 -44 -13 -77 -45 -276 -8 -49 -16 -141 -19
-202 l-6 -113 410 0 410 0 0 895 0 895 -1600 0 -1600 0 0 -895z"/>
<path d="M2106 325 c-14 -18 -26 -38 -26 -43 0 -5 -17 -31 -39 -58 -21 -27 -51 -73 -66
-102 -15 -29 -31 -55 -36 -58 -5 -3 -9 -16 -9 -30 l0 -24 140 0 c139 0 140 0
140 23 0 13 -6 29 -12 35 -9 9 -15 58 -18 144 -5 123 -6 131 -27 139 -17 6
-26 2 -47 -26z"/>
</g>
</svg>
