<svg version="1.0" xmlns="http://www.w3.org/2000/svg"
 width="668px" style="transform:scale(1,1.001);" height="375.75px" viewBox="0 0 320.000000 180.000000"
 preserveAspectRatio="xMidYMid meet">
<g transform="translate(0.000000,180.000000) scale(0.100000,-0.100000)"
fill="#000000" stroke="none">
<path d="M0 905 l0 -895 520 0 520 0 0 23 c0 12 7 47 15 77 9 30 20 100 26 154 6 55 17
112 25 127 8 16 14 37 14 49 0 11 4 28 9 38 6 9 16 31 24 47 17 39 75 143 97
175 39 58 80 141 80 162 0 15 -21 42 -60 79 -52 48 -60 60 -60 92 0 44 42 136
81 178 16 17 29 35 29 40 0 5 4 9 9 9 4 0 25 11 46 25 20 14 62 32 93 40 30 8
56 16 57 17 1 2 7 18 14 35 17 42 84 103 114 103 37 0 106 -59 119 -102 9 -31
8 -49 -7 -98 l-18 -60 27 -70 c16 -39 30 -88 33 -110 7 -48 -21 -156 -47 -185
-10 -11 -25 -34 -33 -51 -16 -31 -15 -33 19 -90 56 -92 94 -192 104 -269 5
-39 10 -153 11 -253 l3 -182 668 0 668 0 0 895 0 895 -1600 0 -1600 0 0 -895z"/>
<path d="M1465 592 c-54 -18 -163 -120 -196 -183 -12 -24 -37 -104 -55 -178 -19 -75
-39 -144 -44 -153 -6 -10 -10 -29 -10 -43 l0 -25 306 0 307 0 -6 68 c-4 37 -9
112 -13 167 -8 124 -22 158 -108 258 -81 93 -115 110 -181 89z"/>
</g>
</svg>
