<svg version="1.0" xmlns="http://www.w3.org/2000/svg"
 width="668px" style="transform:scale(1,1.001);" height="375.75px" viewBox="0 0 320.000000 180.000000"
 preserveAspectRatio="xMidYMid meet">
<g transform="translate(0.000000,180.000000) scale(0.100000,-0.100000)"
fill="#000000" stroke="none">
<path d="M0 905 l0 -895 1600 0 1600 0 0 895 0 895 -1600 0 -1600 0 0 -895z m1643 725
c87 -25 143 -115 134 -213 -3 -28 -11 -78 -18 -109 -16 -75 -4 -118 38 -138
18 -8 41 -25 53 -37 11 -13 32 -23 45 -23 14 0 35 -11 47 -25 12 -14 30 -25
39 -25 10 0 32 -13 49 -30 17 -16 35 -30 40 -30 11 0 37 -46 62 -110 44 -109
51 -485 11 -525 -7 -8 -31 -19 -51 -24 -20 -6 -48 -18 -62 -28 -23 -16 -53
-17 -345 -14 -338 3 -366 7 -378 51 -3 11 -3 55 0 98 4 54 1 98 -10 143 -23
90 -33 292 -17 348 13 49 56 96 106 117 18 7 41 26 52 41 18 24 18 30 5 61
-14 34 -51 92 -65 102 -10 8 -55 76 -73 110 -25 49 -19 89 26 158 23 36 53 68
68 74 14 6 40 16 56 23 62 27 107 28 188 5z m-253 -1520 c11 -7 3 -10 -28 -10
-26 0 -41 4 -37 10 8 13 45 13 65 0z m155 0 c13 -6 -5 -8 -55 -8 -66 1 -70 2
-30 8 62 10 63 10 85 0z"/>
</g>
</svg>
