<svg version="1.0" xmlns="http://www.w3.org/2000/svg"
 width="668px" style="transform:scale(1,1.001);" height="375.75px" viewBox="0 0 320.000000 180.000000"
 preserveAspectRatio="xMidYMid meet">
<g transform="translate(0.000000,180.000000) scale(0.100000,-0.100000)"
fill="#000000" stroke="none">
<path d="M0 905 l0 -895 756 0 755 0 -3 52 -3 53 -52 3 c-65 4 -82 21 -57 59 9 15 26
35 36 43 16 12 17 20 9 42 -13 35 -17 37 -97 44 -84 7 -104 25 -104 90 0 35
-5 47 -25 60 -13 8 -34 36 -45 60 -20 40 -21 50 -11 108 6 35 17 76 25 92 47
98 68 148 82 195 24 84 41 115 86 153 40 35 41 37 45 113 4 68 8 79 31 97 14
12 40 24 57 27 16 4 45 10 62 14 27 6 34 4 38 -11 4 -11 13 -33 21 -49 10 -21
13 -49 10 -92 -5 -56 -3 -64 17 -80 38 -30 86 -105 104 -163 22 -72 24 -402 2
-442 -89 -162 -91 -168 -98 -276 -5 -82 -10 -106 -24 -117 -10 -7 -17 -25 -17
-44 l0 -31 800 0 800 0 0 895 0 895 -1600 0 -1600 0 0 -895z"/>
<path d="M1466 531 c-35 -54 -33 -80 9 -127 39 -44 37 -47 35 76 -1 41 -5 79 -10 84 -5
4 -20 -10 -34 -33z"/>
</g>
</svg>
