<svg version="1.0" xmlns="http://www.w3.org/2000/svg"
 width="668px" style="transform:scale(1,1.001);" height="375.75px" viewBox="0 0 320.000000 180.000000"
 preserveAspectRatio="xMidYMid meet">
<g transform="translate(0.000000,180.000000) scale(0.100000,-0.100000)"
fill="#000000" stroke="none">
<path d="M0 905 l0 -895 1600 0 1600 0 0 895 0 895 -1600 0 -1600 0 0 -895z m1593 777
c18 -11 43 -23 57 -27 14 -4 44 -27 68 -51 l42 -43 0 -76 c0 -69 -4 -85 -40
-157 l-39 -80 22 -34 c12 -19 36 -38 54 -44 17 -6 37 -18 45 -27 7 -9 31 -24
53 -33 22 -9 46 -25 54 -34 7 -9 19 -16 25 -16 6 -1 32 -20 59 -43 58 -52 93
-140 107 -269 5 -48 14 -96 20 -108 12 -22 39 -162 47 -240 4 -39 1 -48 -22
-70 -31 -29 -2 -27 -500 -35 -325 -5 -481 1 -583 21 -13 3 -35 16 -48 29 -27
27 -32 83 -14 145 6 19 15 69 21 110 5 41 19 101 30 133 10 31 19 62 19 69 0
36 132 189 250 289 37 31 43 42 47 85 5 53 0 69 -48 154 -18 30 -40 83 -50
118 -17 61 -17 64 1 105 22 49 61 88 110 111 19 9 46 23 60 32 32 19 109 12
153 -14z"/>
</g>
</svg>
