<svg version="1.0" xmlns="http://www.w3.org/2000/svg"
 width="668px" style="transform:scale(1,1.001);" height="375.75px" viewBox="0 0 320.000000 180.000000"
 preserveAspectRatio="xMidYMid meet">
<g transform="translate(0.000000,180.000000) scale(0.100000,-0.100000)"
fill="#000000" stroke="none">
<path d="M0 905 l0 -895 640 0 640 0 0 38 c0 21 11 61 25 88 14 27 25 56 25 64 0 19 25
90 51 146 10 24 19 53 19 64 0 29 -70 159 -92 171 -16 8 -21 3 -37 -33 -10
-24 -22 -54 -26 -68 -9 -32 -68 -129 -77 -130 -4 0 -4 23 -1 50 3 28 3 50 0
50 -3 0 -18 -20 -33 -45 -28 -48 -38 -54 -48 -29 -17 43 8 134 66 244 19 36
40 81 47 100 8 19 20 49 26 65 7 17 27 67 45 112 38 99 83 169 111 176 18 5
20 12 18 59 -4 98 16 118 114 118 78 0 95 -8 106 -46 5 -18 7 -43 4 -54 -8
-32 4 -62 43 -105 45 -48 55 -106 31 -187 -48 -162 -56 -232 -33 -295 30 -85
36 -112 36 -164 0 -46 -5 -60 -29 -90 -34 -40 -81 -125 -81 -145 0 -6 16 -31
35 -54 22 -27 35 -52 35 -71 l0 -29 770 0 770 0 0 895 0 895 -1600 0 -1600 0
0 -895z"/>
<path d="M1401 87 c-11 -19 -21 -44 -21 -56 0 -19 5 -21 60 -21 57 0 60 1 60 24 0 18
-6 26 -22 28 -12 2 -28 13 -34 26 -17 35 -20 35 -43 -1z"/>
</g>
</svg>
