<svg version="1.0" xmlns="http://www.w3.org/2000/svg"
 width="668px" style="transform:scale(1,1.001);" height="375.75px" viewBox="0 0 320.000000 180.000000"
 preserveAspectRatio="xMidYMid meet">
<g transform="translate(0.000000,180.000000) scale(0.100000,-0.100000)"
fill="#000000" stroke="none">
<path d="M0 905 l0 -895 1000 0 1000 0 0 24 c0 13 -6 29 -14 35 -8 7 -17 23 -20 37 -6
23 -107 233 -176 364 -42 80 -54 220 -54 635 -1 376 0 388 63 485 39 61 106
133 134 143 11 4 17 17 17 37 l0 30 -975 0 -975 0 0 -895z"/>
<path d="M2220 1779 c0 -12 11 -30 25 -41 70 -55 73 -155 7 -219 -61 -58 -102 -123
-102 -162 0 -12 9 -49 21 -82 20 -57 20 -68 10 -290 -6 -126 -15 -248 -22
-270 -14 -51 -6 -113 25 -174 14 -27 44 -104 67 -172 40 -117 42 -130 42 -241
l1 -118 453 0 453 0 0 895 0 895 -490 0 -490 0 0 -21z"/>
</g>
</svg>
