<svg version="1.0" xmlns="http://www.w3.org/2000/svg"
 width="668px" style="transform:scale(1,1.001);" height="375.75px" viewBox="0 0 320.000000 180.000000"
 preserveAspectRatio="xMidYMid meet">
<g transform="translate(0.000000,180.000000) scale(0.100000,-0.100000)"
fill="#000000" stroke="none">
<path d="M0 905 l0 -895 556 0 556 0 -7 50 c-7 52 9 234 26 305 23 92 79 255 109 318
18 38 37 98 42 135 6 37 19 98 30 135 21 71 20 96 -6 162 -8 22 -15 63 -16 90
0 80 61 178 135 215 25 13 29 21 27 45 -2 17 -10 43 -18 59 -31 64 -6 125 71
170 59 35 95 30 147 -19 42 -40 56 -88 39 -136 -25 -72 -9 -104 63 -122 42
-10 51 -18 72 -57 40 -76 33 -144 -28 -280 -16 -36 -34 -87 -38 -115 -5 -27
-14 -65 -21 -83 -18 -52 -1 -147 51 -282 12 -30 28 -80 36 -110 8 -30 33 -109
55 -175 31 -91 42 -142 46 -212 l6 -93 633 0 634 0 0 895 0 895 -1600 0 -1600
0 0 -895z"/>
<path d="M1481 542 c-26 -9 -62 -57 -99 -132 -20 -41 -53 -102 -73 -135 -20 -33 -41
-76 -47 -95 -5 -19 -17 -58 -26 -86 -28 -92 -54 -84 279 -84 l295 0 0 25 c0
14 -4 33 -9 43 -5 9 -24 47 -42 84 -18 38 -41 75 -51 85 -10 9 -18 20 -18 25
0 5 -20 41 -45 79 -25 38 -45 72 -45 75 0 3 -17 30 -37 59 -38 54 -55 66 -82
57z"/>
</g>
</svg>
