<svg version="1.0" xmlns="http://www.w3.org/2000/svg"
 width="668px" style="transform:scale(1,1.001);" height="375.75px" viewBox="0 0 320.000000 180.000000"
 preserveAspectRatio="xMidYMid meet">
<g transform="translate(0.000000,180.000000) scale(0.100000,-0.100000)"
fill="#000000" stroke="none">
<path d="M0 905 l0 -895 721 0 721 0 -5 38 c-3 20 0 122 5 225 8 141 8 206 -1 260 -11
68 -32 117 -49 117 -24 0 -35 -74 -38 -249 -3 -165 -6 -188 -25 -225 -24 -47
-35 -56 -66 -56 -35 0 -44 29 -26 89 17 61 14 116 -17 221 -18 64 -20 96 -18
220 l3 145 -86 -4 -86 -3 -22 35 c-45 73 -21 164 68 261 49 54 91 110 91 123
1 17 59 72 93 88 40 19 47 39 45 126 -2 47 3 64 25 98 26 39 30 41 76 41 39 0
56 -6 80 -26 29 -24 31 -30 31 -97 0 -40 4 -77 8 -82 4 -6 31 -26 59 -44 45
-28 58 -44 84 -101 18 -38 41 -73 53 -80 12 -6 34 -28 49 -48 22 -29 27 -45
25 -77 -4 -59 -32 -58 -95 3 -43 40 -90 72 -108 72 -18 0 -23 -107 -18 -391 6
-286 4 -330 -12 -414 -16 -80 -17 -102 -6 -152 6 -32 14 -70 18 -86 l5 -27
809 0 809 0 0 895 0 895 -1600 0 -1600 0 0 -895z"/>
</g>
</svg>
