<svg version="1.0" xmlns="http://www.w3.org/2000/svg"
 width="668px" style="transform:scale(1,1.001);" height="375.75px" viewBox="0 0 320.000000 180.000000"
 preserveAspectRatio="xMidYMid meet">
<g transform="translate(0.000000,180.000000) scale(0.100000,-0.100000)"
fill="#000000" stroke="none">
<path d="M0 905 l0 -895 676 0 675 0 -6 52 c-9 73 5 90 74 90 29 0 58 -5 64 -11 7 -7
11 -37 10 -72 l-1 -59 854 0 854 0 0 895 0 895 -1600 0 -1600 0 0 -895z m1504
693 c10 -20 16 -58 16 -105 0 -41 5 -83 11 -95 13 -24 67 -48 108 -48 38 0 85
-48 106 -109 8 -25 15 -79 15 -120 0 -42 4 -91 9 -108 5 -18 15 -108 21 -201
l12 -169 -31 -71 c-25 -57 -31 -84 -31 -142 0 -82 -20 -127 -60 -137 -37 -10
-51 -5 -93 35 l-38 37 -18 -23 c-19 -26 -73 -41 -147 -42 -62 0 -89 22 -99 82
-9 49 -21 61 -49 46 -15 -8 -22 -7 -34 8 -11 15 -12 40 -6 124 4 58 8 209 9
335 0 221 1 232 23 275 13 25 34 56 46 70 12 14 30 37 39 52 17 27 16 30 -3
65 -12 21 -32 54 -46 73 -21 29 -25 43 -21 80 4 36 13 51 46 82 40 37 42 38
120 38 79 0 80 0 95 -32z m172 -1502 l7 -39 -29 7 c-41 10 -48 20 -32 47 28
50 42 46 54 -15z"/>
</g>
</svg>
