<svg version="1.0" xmlns="http://www.w3.org/2000/svg"
 width="668px" style="transform:scale(1,1.001);" height="375.75px" viewBox="0 0 320.000000 180.000000"
 preserveAspectRatio="xMidYMid meet">
<g transform="translate(0.000000,180.000000) scale(0.100000,-0.100000)"
fill="#000000" stroke="none">
<path d="M0 905 l0 -895 1600 0 1600 0 0 895 0 895 -1600 0 -1600 0 0 -895z m1602 744
c57 -13 102 -29 117 -43 43 -38 81 -98 81 -127 0 -30 -31 -140 -56 -197 -23
-53 -18 -90 18 -128 18 -19 38 -34 44 -34 7 0 25 -10 41 -23 15 -12 39 -28 53
-35 105 -52 191 -167 206 -276 3 -23 14 -75 24 -116 20 -82 43 -226 43 -277 0
-17 -7 -42 -15 -55 l-16 -25 -459 -5 c-252 -3 -500 -3 -551 1 -87 6 -96 8
-118 34 -28 33 -32 92 -10 177 7 30 16 75 20 100 8 58 53 194 79 239 18 33
134 151 148 151 3 0 19 12 35 28 17 15 45 38 63 52 19 14 40 31 48 38 19 19
16 65 -5 93 -10 13 -31 49 -46 79 -16 30 -37 66 -47 79 -14 17 -19 40 -19 84
0 60 0 60 59 118 33 33 67 59 78 59 10 1 29 7 43 15 33 19 33 19 142 -6z"/>
</g>
</svg>
