<svg version="1.0" xmlns="http://www.w3.org/2000/svg"
 width="668px" style="transform:scale(1,1.001);" height="375.75px" viewBox="0 0 320.000000 180.000000"
 preserveAspectRatio="xMidYMid meet">
<g transform="translate(0.000000,180.000000) scale(0.100000,-0.100000)"
fill="#000000" stroke="none">
<path d="M0 905 l0 -895 681 0 681 0 -4 148 c-5 136 -8 155 -42 257 -32 99 -37 128 -48
283 -13 195 1 479 29 587 15 63 52 134 84 166 10 10 19 23 19 28 0 5 14 14 30
21 16 7 30 16 30 20 0 5 11 21 24 37 14 16 28 43 32 59 10 41 44 107 63 121 9
7 44 13 79 13 58 0 67 -3 107 -37 80 -66 92 -162 28 -213 -61 -48 -91 -135
-58 -169 53 -57 66 -85 100 -217 19 -76 35 -153 35 -170 0 -68 -45 -136 -155
-232 -24 -20 -26 -29 -23 -70 3 -26 19 -101 37 -167 26 -95 33 -141 35 -222 1
-91 -2 -107 -24 -147 -13 -25 -28 -46 -32 -46 -5 0 -8 -11 -8 -25 l0 -25 750
0 750 0 0 895 0 895 -1600 0 -1600 0 0 -895z"/>
</g>
</svg>
