<svg version="1.0" xmlns="http://www.w3.org/2000/svg"
 width="668px" style="transform:scale(1,1.001);" height="375.75px" viewBox="0 0 320.000000 180.000000"
 preserveAspectRatio="xMidYMid meet">
<g transform="translate(0.000000,180.000000) scale(0.100000,-0.100000)"
fill="#000000" stroke="none">
<path d="M0 905 l0 -895 1600 0 1600 0 0 895 0 895 -1600 0 -1600 0 0 -895z m1940 708
c70 -21 115 -49 168 -102 34 -34 72 -118 72 -158 0 -33 -41 -155 -59 -178 -9
-11 -32 -49 -50 -85 -30 -58 -33 -71 -27 -113 6 -41 13 -52 53 -82 26 -19 63
-38 84 -41 21 -4 53 -17 71 -30 17 -13 40 -24 50 -24 26 0 91 -67 120 -125 30
-59 59 -184 65 -277 7 -105 59 -98 -703 -98 -745 -1 -691 -8 -679 90 9 74 58
219 90 265 14 21 25 41 25 46 0 10 102 87 163 122 26 16 74 33 107 38 47 9 67
19 101 50 l42 38 -5 68 c-3 42 -13 81 -26 103 -11 19 -27 59 -37 88 -9 28 -20
52 -25 52 -5 0 -19 31 -31 69 l-22 69 21 43 c23 49 99 116 189 167 52 30 64
32 118 28 33 -2 89 -13 125 -23z"/>
</g>
</svg>
