<svg version="1.0" xmlns="http://www.w3.org/2000/svg"
 width="668px" style="transform:scale(1,1.001);" height="375.75px" viewBox="0 0 320.000000 180.000000"
 preserveAspectRatio="xMidYMid meet">
<g transform="translate(0.000000,180.000000) scale(0.100000,-0.100000)"
fill="#000000" stroke="none">
<path d="M0 905 l0 -895 505 0 506 0 -6 39 c-4 31 1 50 29 103 36 69 47 121 66 328 9
94 8 136 -4 230 -9 63 -16 149 -16 191 0 42 -7 95 -15 118 -8 24 -19 81 -25
129 -6 48 -21 119 -33 157 -29 95 -32 309 -4 340 55 61 87 110 87 131 l0 24
-545 0 -545 0 0 -895z"/>
<path d="M1180 1772 c0 -40 15 -50 68 -45 56 6 102 -10 109 -36 5 -18 48 -56 88 -76 11
-6 25 -22 32 -35 16 -36 62 -264 54 -270 -4 -3 -10 -13 -14 -23 -4 -10 -31
-29 -60 -43 -30 -13 -61 -32 -69 -42 -22 -24 -30 -218 -18 -413 8 -124 7 -173
-4 -236 -13 -76 -22 -98 -86 -208 -50 -85 -62 -143 -54 -245 l7 -90 983 0 984
0 0 895 0 895 -1010 0 -1010 0 0 -28z"/>
</g>
</svg>
