<svg version="1.0" xmlns="http://www.w3.org/2000/svg"
 width="668px" style="transform:scale(1,1.001);" height="375.75px" viewBox="0 0 320.000000 180.000000"
 preserveAspectRatio="xMidYMid meet">
<g transform="translate(0.000000,180.000000) scale(0.100000,-0.100000)"
fill="#000000" stroke="none">
<path d="M0 905 l0 -895 651 0 651 0 -6 73 c-4 39 -2 117 3 172 6 55 13 192 17 305 6
204 4 227 -28 272 -9 13 -9 39 0 120 11 90 11 113 -4 182 -20 99 -15 186 14
247 27 55 27 55 1 130 -15 42 -20 76 -17 110 7 71 18 79 103 79 96 0 107 -12
111 -121 3 -83 13 -109 44 -109 60 0 90 -58 101 -195 4 -55 13 -127 19 -159 8
-40 10 -149 7 -330 l-4 -271 -46 -138 c-26 -76 -47 -156 -47 -178 0 -37 34
-108 60 -124 5 -3 10 -19 10 -36 l0 -29 780 0 780 0 0 895 0 895 -1600 0
-1600 0 0 -895z"/>
<path d="M1427 63 c-4 -3 -7 -17 -7 -30 0 -21 4 -23 50 -23 46 0 50 2 50 24 0 13 -7 27
-16 30 -21 8 -69 8 -77 -1z"/>
</g>
</svg>
