<svg version="1.0" xmlns="http://www.w3.org/2000/svg"
 width="668px" style="transform:scale(1,1.001);" height="375.75px" viewBox="0 0 320.000000 180.000000"
 preserveAspectRatio="xMidYMid meet">
<g transform="translate(0.000000,180.000000) scale(0.100000,-0.100000)"
fill="#000000" stroke="none">
<path d="M0 905 l0 -895 581 0 581 0 -8 63 c-4 34 -7 80 -6 101 3 43 53 140 77 150 8 3
15 10 15 17 0 6 23 38 50 71 28 33 52 70 55 81 2 12 6 101 8 197 4 162 6 182
34 265 17 50 36 119 42 155 7 36 19 78 27 94 15 32 19 102 5 110 -4 3 -21 31
-37 62 -38 76 -39 155 -1 189 14 13 27 30 29 36 3 8 29 14 69 17 61 4 67 2
106 -29 55 -45 76 -104 60 -172 -9 -42 -8 -53 9 -85 10 -20 26 -43 35 -49 20
-15 64 -97 85 -159 28 -82 32 -145 25 -394 l-6 -245 -33 -55 c-18 -30 -54 -98
-79 -150 -42 -86 -47 -103 -51 -183 l-4 -87 766 0 766 0 0 895 0 895 -1600 0
-1600 0 0 -895z"/>
<path d="M1390 179 c-30 -11 -60 -77 -60 -132 l0 -37 80 0 80 0 0 27 c0 14 -5 55 -11
90 -10 59 -13 63 -38 62 -14 0 -37 -5 -51 -10z"/>
</g>
</svg>
