<svg version="1.0" xmlns="http://www.w3.org/2000/svg"
 width="668px" style="transform:scale(1,1.001);" height="375.75px" viewBox="0 0 320.000000 180.000000"
 preserveAspectRatio="xMidYMid meet">
<g transform="translate(0.000000,180.000000) scale(0.100000,-0.100000)"
fill="#000000" stroke="none">
<path d="M0 905 l0 -895 1600 0 1600 0 0 895 0 895 -1600 0 -1600 0 0 -895z m1756 566
c107 -34 172 -89 208 -175 23 -55 20 -95 -15 -226 -17 -63 -30 -133 -30 -155
0 -47 14 -60 125 -115 43 -22 86 -45 95 -53 9 -7 28 -19 44 -27 34 -17 129
-97 141 -119 5 -9 19 -27 31 -41 46 -52 59 -169 25 -213 -36 -46 -69 -48 -719
-42 -667 5 -643 3 -655 69 -8 40 -4 62 30 166 27 85 61 128 144 182 61 39 189
98 215 98 27 0 67 47 60 71 -7 22 -119 174 -163 221 -21 23 -24 34 -20 80 2
29 12 62 21 73 47 58 77 99 77 108 0 5 17 26 37 46 67 65 229 89 349 52z"/>
</g>
</svg>
