<svg version="1.0" xmlns="http://www.w3.org/2000/svg"
 width="668px" style="transform:scale(1,1.001);" height="375.75px" viewBox="0 0 320.000000 180.000000"
 preserveAspectRatio="xMidYMid meet">
<g transform="translate(0.000000,180.000000) scale(0.100000,-0.100000)"
fill="#000000" stroke="none">
<path d="M0 905 l0 -895 846 0 846 0 -6 54 c-11 88 -58 215 -137 372 -31 61 -43 100
-50 160 -6 43 -19 110 -31 147 -12 40 -18 83 -15 105 2 20 -2 87 -10 147 -14
113 -10 240 9 304 13 41 81 111 108 111 10 0 25 10 31 23 6 12 19 31 29 42 10
11 23 47 30 80 27 139 38 155 109 155 99 0 153 -34 187 -118 22 -56 7 -115
-34 -136 -15 -8 -37 -28 -50 -46 -28 -37 -23 -81 13 -112 25 -21 33 -44 70
-198 34 -141 32 -184 -11 -315 -33 -101 -34 -112 -24 -159 6 -28 15 -60 20
-71 5 -11 10 -29 13 -40 3 -11 15 -56 27 -100 42 -153 26 -332 -31 -350 -12
-4 -19 -16 -19 -31 l0 -24 640 0 640 0 0 895 0 895 -1600 0 -1600 0 0 -895z"/>
</g>
</svg>
