<svg version="1.0" xmlns="http://www.w3.org/2000/svg"
 width="668px" style="transform:scale(1,1.001);" height="375.75px" viewBox="0 0 320.000000 180.000000"
 preserveAspectRatio="xMidYMid meet">
<g transform="translate(0.000000,180.000000) scale(0.100000,-0.100000)"
fill="#000000" stroke="none">
<path d="M0 905 l0 -895 835 0 835 0 0 25 c0 14 -7 36 -15 49 -21 32 -24 364 -5 483 11
70 11 93 0 145 -8 36 -14 122 -15 198 0 151 -6 169 -75 244 -80 87 -85 132
-44 339 35 171 59 220 116 238 35 12 44 19 46 42 l3 27 -840 0 -841 0 0 -895z"/>
<path d="M1890 1779 c0 -12 14 -37 30 -56 28 -31 30 -39 30 -114 0 -67 3 -80 18 -85 9
-3 24 -10 32 -15 8 -5 32 -16 52 -25 43 -19 87 -82 113 -164 10 -30 31 -88 46
-128 16 -40 29 -83 29 -96 0 -23 -24 -87 -86 -224 l-28 -63 22 -67 c12 -37 24
-90 28 -117 3 -28 18 -106 34 -175 40 -170 61 -324 53 -388 l-6 -52 472 0 471
0 0 895 0 895 -655 0 -655 0 0 -21z"/>
<path d="M1950 354 c0 -14 -2 -16 -9 -6 -10 16 -37 -89 -47 -183 -3 -33 -12 -70 -20
-82 -8 -12 -14 -34 -14 -48 l0 -25 100 0 c96 0 100 1 100 22 0 12 -11 34 -25
48 -19 20 -30 52 -50 155 -25 126 -35 159 -35 119z"/>
</g>
</svg>
