<svg version="1.0" xmlns="http://www.w3.org/2000/svg"
 width="668px" style="transform:scale(1,1.001);" height="375.75px" viewBox="0 0 320.000000 180.000000"
 preserveAspectRatio="xMidYMid meet">
<g transform="translate(0.000000,180.000000) scale(0.100000,-0.100000)"
fill="#000000" stroke="none">
<path d="M0 905 l0 -895 750 0 750 0 0 22 c0 12 -10 32 -22 46 -22 23 -23 30 -23 230
-1 205 -1 207 -27 252 -17 30 -27 66 -31 108 -3 37 -12 71 -21 81 -45 49 -52
135 -19 211 74 167 176 345 218 380 25 21 18 80 -15 125 -39 52 -70 120 -70
151 0 34 26 82 61 111 17 15 29 35 29 49 l0 24 -790 0 -790 0 0 -895z"/>
<path d="M1760 1777 c0 -14 14 -36 35 -55 51 -47 63 -97 40 -171 -25 -84 -9 -151 36
-151 10 0 42 -24 72 -52 58 -58 95 -137 116 -254 13 -72 14 -234 2 -360 -8
-77 -14 -99 -43 -145 -31 -51 -33 -60 -39 -179 -6 -110 -12 -140 -48 -249 -23
-68 -41 -130 -41 -138 0 -11 113 -13 655 -13 l655 0 0 895 0 895 -720 0 -720
0 0 -23z"/>
</g>
</svg>
