<svg version="1.0" xmlns="http://www.w3.org/2000/svg"
 width="668px" style="transform:scale(1,1.001);" height="375.75px" viewBox="0 0 320.000000 180.000000"
 preserveAspectRatio="xMidYMid meet">
<g transform="translate(0.000000,180.000000) scale(0.100000,-0.100000)"
fill="#000000" stroke="none">
<path d="M0 905 l0 -895 1600 0 1600 0 0 895 0 895 -1600 0 -1600 0 0 -895z m1975 767
c15 -12 35 -22 45 -22 31 0 69 -70 76 -138 6 -56 4 -65 -21 -104 -15 -24 -34
-47 -42 -51 -7 -4 -20 -22 -29 -39 -16 -31 -16 -31 22 -65 22 -19 51 -40 66
-46 15 -7 40 -31 57 -52 17 -22 34 -44 39 -50 50 -64 102 -210 102 -289 0 -66
-16 -109 -58 -152 -25 -25 -41 -32 -89 -38 -48 -5 -64 -12 -90 -39 -41 -42
-48 -72 -32 -144 15 -68 13 -102 -8 -125 -13 -14 -41 -16 -241 -14 -125 1
-233 6 -240 10 -21 13 -32 52 -42 147 -5 55 -15 98 -27 115 -16 25 -18 56 -21
270 -3 233 -4 243 -25 262 -26 24 -143 86 -180 96 -52 13 -90 132 -53 168 7 8
20 27 29 43 27 52 75 97 99 93 23 -3 43 -34 52 -79 10 -46 39 -56 185 -61 166
-6 165 -6 175 112 8 96 30 141 91 190 35 28 46 31 86 28 27 -3 58 -14 74 -26z"/>
</g>
</svg>
