<svg version="1.0" xmlns="http://www.w3.org/2000/svg"
 width="668px" style="transform:scale(1,1.001);" height="375.75px" viewBox="0 0 320.000000 180.000000"
 preserveAspectRatio="xMidYMid meet">
<g transform="translate(0.000000,180.000000) scale(0.100000,-0.100000)"
fill="#000000" stroke="none">
<path d="M0 905 l0 -895 505 0 505 0 1 93 c0 50 4 115 10 142 5 28 14 84 20 125 15 112
63 261 132 412 46 100 69 176 62 200 -4 13 -18 46 -31 75 -28 61 -31 125 -9
210 21 82 38 113 85 156 32 29 49 37 80 37 75 0 89 17 100 124 7 60 12 74 36
95 25 21 35 23 94 18 85 -7 94 -11 113 -53 25 -51 21 -86 -18 -157 -19 -35
-35 -75 -35 -89 0 -13 16 -65 36 -114 31 -78 35 -97 31 -154 -5 -73 -30 -134
-82 -198 -39 -49 -39 -73 0 -152 12 -25 38 -92 57 -150 20 -58 48 -141 62
-185 15 -44 40 -131 55 -193 16 -62 34 -118 39 -125 6 -7 14 -36 18 -65 l7
-52 663 0 664 0 0 895 0 895 -1600 0 -1600 0 0 -895z"/>
<path d="M1336 606 c-33 -36 -66 -76 -73 -90 -8 -14 -18 -26 -23 -26 -12 0 -50 -74 -50
-98 0 -19 -31 -130 -51 -187 -7 -16 -15 -52 -20 -80 -4 -27 -11 -65 -15 -83
l-6 -32 332 0 333 0 -6 38 c-10 76 -259 576 -304 610 -32 24 -57 13 -117 -52z"/>
</g>
</svg>
