<svg version="1.0" xmlns="http://www.w3.org/2000/svg"
 width="668px" style="transform:scale(1,1.001);" height="375.75px" viewBox="0 0 320.000000 180.000000"
 preserveAspectRatio="xMidYMid meet">
<g transform="translate(0.000000,180.000000) scale(0.100000,-0.100000)"
fill="#000000" stroke="none">
<path d="M0 905 l0 -895 664 0 664 0 -4 293 c-3 213 -9 314 -20 375 -11 57 -14 105 -10
151 4 39 3 79 -3 94 -9 24 -13 25 -39 16 -45 -15 -99 -83 -134 -165 -17 -41
-35 -74 -40 -74 -17 0 -58 49 -58 71 0 79 47 158 159 269 47 47 105 109 129
137 26 31 53 54 70 58 16 3 45 19 65 36 34 28 37 35 37 83 0 95 54 144 145
131 74 -10 121 -105 80 -159 -25 -32 -19 -81 10 -94 33 -15 125 -84 125 -94 0
-11 54 -64 78 -77 11 -6 41 -11 67 -11 55 0 96 -19 114 -54 29 -54 -13 -241
-60 -266 -56 -30 -104 0 -112 71 -9 76 -67 149 -138 174 -58 21 -63 20 -109
-23 -32 -31 -40 -46 -40 -74 0 -39 38 -129 81 -193 31 -46 56 -106 72 -176 10
-43 7 -56 -28 -155 -43 -123 -47 -172 -16 -203 26 -26 37 -69 22 -84 -6 -6
-11 -21 -11 -34 l0 -23 720 0 720 0 0 895 0 895 -1600 0 -1600 0 0 -895z"/>
<path d="M1481 636 c-9 -10 -10 -36 -6 -83 4 -44 3 -79 -5 -98 -7 -16 -18 -105 -26
-198 -7 -92 -18 -176 -24 -187 -5 -10 -10 -28 -10 -39 0 -20 5 -21 115 -21
l115 0 0 24 c0 15 -7 27 -18 30 -35 11 -46 49 -33 112 6 32 11 72 11 89 0 18
7 49 15 68 8 20 15 61 15 92 0 48 -6 65 -39 118 -74 116 -84 124 -110 93z"/>
</g>
</svg>
