<svg version="1.0" xmlns="http://www.w3.org/2000/svg"
 width="668px" style="transform:scale(1,1.001);" height="375.75px" viewBox="0 0 320.000000 180.000000"
 preserveAspectRatio="xMidYMid meet">
<g transform="translate(0.000000,180.000000) scale(0.100000,-0.100000)"
fill="#000000" stroke="none">
<path d="M0 905 l0 -895 1600 0 1600 0 0 895 0 895 -1600 0 -1600 0 0 -895z m1573 396
c7 -7 12 -40 12 -79 0 -65 1 -68 42 -108 46 -46 57 -77 74 -203 9 -69 18 -96
50 -148 22 -36 39 -76 39 -93 0 -36 -12 -39 -29 -6 -7 13 -27 34 -44 46 l-30
23 7 -58 c4 -32 12 -65 18 -72 12 -15 54 -17 63 -3 12 19 26 10 41 -26 20 -48
11 -85 -31 -122 -18 -17 -36 -45 -40 -64 -10 -49 -46 -97 -78 -104 -54 -12
-63 -71 -16 -113 41 -38 38 -77 -6 -75 -78 4 -150 24 -172 49 -26 29 -22 49
28 144 47 89 52 175 15 253 -46 98 -76 100 -76 7 0 -25 -6 -65 -14 -90 -28
-91 -36 -143 -43 -259 -4 -85 -10 -120 -19 -124 -32 -12 -112 -18 -118 -8 -3
5 1 77 9 158 17 174 22 204 42 264 9 27 12 61 9 85 -10 63 -29 135 -37 135
-16 0 -47 -122 -52 -205 -2 -35 -5 -40 -27 -40 -19 0 -25 6 -31 33 -4 18 -14
41 -23 51 -62 68 49 427 173 560 25 27 28 36 23 76 -4 39 -1 50 19 71 40 43
97 65 157 61 29 -2 58 -9 65 -16z"/>
</g>
</svg>
