<svg version="1.0" xmlns="http://www.w3.org/2000/svg"
 width="668px" style="transform:scale(1,1.001);" height="375.75px" viewBox="0 0 320.000000 180.000000"
 preserveAspectRatio="xMidYMid meet">
<g transform="translate(0.000000,180.000000) scale(0.100000,-0.100000)"
fill="#000000" stroke="none">
<path d="M0 905 l0 -895 654 0 654 0 7 148 c4 81 15 190 25 243 15 83 15 102 3 148 -24
94 -34 94 -57 3 -10 -37 -25 -85 -33 -107 -23 -63 -63 -98 -63 -56 0 35 -12
51 -36 51 -35 0 -32 42 13 147 30 73 37 105 43 188 4 59 14 119 25 147 17 42
18 53 6 97 -11 44 -10 54 5 86 23 48 50 65 104 65 40 0 49 -4 68 -30 12 -16
22 -38 22 -48 0 -31 37 -69 73 -76 34 -6 63 -32 84 -76 11 -23 30 -107 69
-310 7 -41 23 -118 33 -170 11 -52 23 -123 27 -156 l6 -62 -35 -11 c-43 -15
-53 -40 -33 -80 21 -39 11 -61 -26 -61 -55 0 -137 59 -153 110 -6 20 11 57 47
103 l22 27 -23 71 c-12 38 -27 69 -33 67 -28 -10 -86 -311 -80 -410 l3 -48
890 0 889 0 0 895 0 895 -1600 0 -1600 0 0 -895z"/>
</g>
</svg>
