<svg version="1.0" xmlns="http://www.w3.org/2000/svg"
 width="668px" style="transform:scale(1,1.001);" height="375.75px" viewBox="0 0 320.000000 180.000000"
 preserveAspectRatio="xMidYMid meet">
<g transform="translate(0.000000,180.000000) scale(0.100000,-0.100000)"
fill="#000000" stroke="none">
<path d="M0 905 l0 -895 1600 0 1600 0 0 895 0 895 -1600 0 -1600 0 0 -895z m1806 719
c24 -14 74 -54 111 -88 l67 -63 4 -74 c4 -72 2 -77 -43 -164 -26 -49 -54 -97
-61 -106 -8 -8 -17 -36 -20 -62 -6 -39 -3 -52 16 -80 22 -33 125 -97 154 -97
9 0 51 -17 94 -37 122 -58 236 -158 273 -242 10 -23 28 -54 39 -68 11 -14 22
-41 26 -62 4 -20 16 -58 27 -84 17 -42 18 -53 8 -89 l-13 -41 -56 9 c-31 5
-93 8 -137 7 -44 -1 -129 3 -190 8 -60 5 -350 11 -643 14 -294 4 -545 10 -558
15 -28 11 -32 45 -10 88 7 15 19 52 25 84 14 67 63 167 110 226 21 25 63 58
107 82 40 22 75 44 79 50 3 5 47 29 98 54 99 47 132 80 129 128 -3 35 -38 117
-61 143 -10 11 -22 37 -25 57 -4 21 -19 52 -34 69 -22 27 -27 44 -30 101 l-4
69 43 37 c23 20 72 60 107 89 73 58 95 64 240 57 67 -3 93 -9 128 -30z"/>
</g>
</svg>
