<svg version="1.0" xmlns="http://www.w3.org/2000/svg"
 width="668px" style="transform:scale(1,1.001);" height="375.75px" viewBox="0 0 320.000000 180.000000"
 preserveAspectRatio="xMidYMid meet">
<g transform="translate(0.000000,180.000000) scale(0.100000,-0.100000)"
fill="#000000" stroke="none">
<path d="M0 905 l0 -895 660 0 660 0 0 43 c1 44 36 126 81 187 56 76 176 335 207 450
17 61 19 83 11 120 -5 25 -14 92 -19 149 -9 100 -20 133 -44 130 -30 -4 -48 3
-79 31 -19 17 -41 30 -48 30 -8 0 -31 8 -52 18 -32 14 -42 27 -63 77 -21 51
-25 78 -27 178 -2 108 0 120 18 133 11 8 27 13 36 11 23 -6 33 2 53 40 10 20
27 35 43 39 22 6 32 1 60 -31 18 -20 30 -42 26 -49 -4 -6 13 9 38 34 32 33 58
49 94 59 86 22 109 22 157 4 79 -31 113 -104 94 -203 -5 -25 -1 -45 11 -70
l18 -35 89 -6 c76 -5 92 -10 107 -28 10 -12 35 -27 55 -33 32 -8 40 -7 57 10
19 19 19 21 2 65 -12 32 -15 58 -10 84 3 21 7 56 9 78 3 65 14 87 39 79 12 -3
25 -9 28 -13 16 -14 59 -140 59 -169 0 -17 7 -51 15 -76 44 -130 38 -216 -18
-235 -16 -6 -66 -14 -110 -17 -78 -7 -84 -9 -120 -46 -33 -33 -40 -48 -48
-101 -13 -89 -11 -177 7 -302 8 -60 21 -155 28 -210 7 -56 18 -111 25 -122 6
-12 11 -39 11 -60 0 -24 14 -67 40 -118 22 -44 40 -90 40 -102 l0 -23 480 0
480 0 0 895 0 895 -1600 0 -1600 0 0 -895z"/>
<path d="M1520 1514 c0 -17 -8 -42 -19 -55 -22 -28 -34 -79 -23 -96 19 -29 56 -31 104
-6 44 23 46 26 37 50 -5 15 -22 41 -37 59 -15 18 -35 43 -44 56 l-17 23 -1
-31z"/>
<path d="M1358 1474 c-12 -11 -9 -112 3 -119 18 -12 21 2 12 65 -4 34 -11 58 -15 54z"/>
<path d="M1757 355 c-13 -26 -117 -144 -219 -249 -97 -99 -105 -96 232 -96 l290 0 0 24
c0 13 -7 29 -15 36 -8 7 -32 40 -53 74 -20 33 -41 68 -47 77 -5 9 -20 34 -32
56 -53 96 -127 133 -156 78z"/>
</g>
</svg>
