<svg version="1.0" xmlns="http://www.w3.org/2000/svg"
 width="668px" style="transform:scale(1,1.001);" height="375.75px" viewBox="0 0 320.000000 180.000000"
 preserveAspectRatio="xMidYMid meet">
<g transform="translate(0.000000,180.000000) scale(0.100000,-0.100000)"
fill="#000000" stroke="none">
<path d="M0 905 l0 -895 786 0 786 0 -6 28 c-3 15 -14 67 -25 117 -16 69 -21 126 -21
246 0 147 -1 157 -21 175 -28 24 -58 91 -59 126 0 15 -16 62 -36 104 -34 70
-36 81 -31 139 6 67 28 115 124 282 29 50 53 95 53 101 0 5 11 17 23 25 13 9
30 29 36 45 12 27 9 37 -23 105 -19 41 -38 85 -41 99 -9 37 11 101 40 128 14
13 25 34 25 47 l0 23 -805 0 -805 0 0 -895z"/>
<path d="M1820 1772 c0 -21 7 -32 26 -40 26 -13 54 -65 54 -104 0 -13 -9 -47 -20 -75
l-20 -53 26 -37 c28 -41 44 -51 87 -52 47 -1 114 -76 132 -150 19 -71 12 -107
-38 -204 -39 -78 -46 -146 -21 -218 19 -58 22 -158 6 -200 -6 -14 -13 -68 -17
-120 -10 -139 -53 -368 -86 -447 -5 -13 -9 -32 -9 -42 0 -20 12 -20 630 -20
l630 0 0 895 0 895 -690 0 -690 0 0 -28z"/>
</g>
</svg>
