<svg version="1.0" xmlns="http://www.w3.org/2000/svg"
 width="668px" style="transform:scale(1,1.001);" height="375.75px" viewBox="0 0 320.000000 180.000000"
 preserveAspectRatio="xMidYMid meet">
<g transform="translate(0.000000,180.000000) scale(0.100000,-0.100000)"
fill="#000000" stroke="none">
<path d="M0 905 l0 -895 1600 0 1600 0 0 895 0 895 -1600 0 -1600 0 0 -895z m1701 716
c42 -22 59 -39 79 -77 30 -59 33 -147 7 -212 -19 -47 -22 -94 -7 -122 12 -22
105 -90 123 -90 7 0 28 -11 47 -25 19 -14 39 -25 46 -25 7 0 26 -11 42 -25 17
-14 35 -25 41 -25 6 0 17 -11 23 -25 6 -14 14 -25 18 -25 24 0 79 -265 80
-381 0 -64 -18 -169 -31 -186 -7 -7 -6 -14 1 -18 17 -10 11 -25 -10 -25 -14 0
-19 6 -19 23 3 38 -19 77 -41 77 -28 0 -35 -24 -21 -72 12 -39 11 -42 -13 -67
l-27 -26 -322 3 c-420 4 -452 13 -429 113 16 68 15 128 -3 222 -20 103 -19
239 1 308 17 57 79 129 112 129 18 1 47 22 70 52 12 15 10 25 -12 70 -14 29
-44 78 -66 108 -55 76 -62 96 -58 164 4 59 6 61 64 114 32 30 68 58 79 62 11
5 54 9 96 9 66 1 84 -3 130 -28z"/>
</g>
</svg>
