<svg version="1.0" xmlns="http://www.w3.org/2000/svg"
 width="668px" style="transform:scale(1,1.001);" height="375.75px" viewBox="0 0 320.000000 180.000000"
 preserveAspectRatio="xMidYMid meet">
<g transform="translate(0.000000,180.000000) scale(0.100000,-0.100000)"
fill="#000000" stroke="none">
<path d="M0 905 l0 -895 1600 0 1600 0 0 895 0 895 -1600 0 -1600 0 0 -895z m1844 784
c47 -30 100 -79 115 -107 24 -45 8 -205 -24 -242 -7 -8 -18 -34 -24 -56 -9
-33 -8 -49 4 -78 8 -20 19 -36 23 -36 4 0 30 -18 57 -40 28 -22 61 -48 74 -58
14 -9 53 -45 87 -79 77 -79 100 -140 110 -298 4 -60 13 -130 20 -155 8 -25 14
-82 14 -127 0 -73 -2 -83 -22 -97 -20 -14 -81 -16 -483 -15 -533 1 -647 6
-671 31 -25 24 -29 103 -9 178 9 35 20 94 25 130 11 85 90 300 112 300 4 0 14
12 22 28 9 15 32 38 52 52 19 14 51 37 69 53 18 15 38 27 43 27 6 0 26 13 44
28 18 15 45 36 60 45 36 23 46 74 22 119 -71 134 -84 169 -84 227 0 50 4 64
30 97 17 21 57 53 88 71 53 31 62 33 132 30 59 -2 83 -8 114 -28z"/>
</g>
</svg>
