<svg version="1.0" xmlns="http://www.w3.org/2000/svg"
 width="668px" style="transform:scale(1,1.001);" height="375.75px" viewBox="0 0 320.000000 180.000000"
 preserveAspectRatio="xMidYMid meet">
<g transform="translate(0.000000,180.000000) scale(0.100000,-0.100000)"
fill="#000000" stroke="none">
<path d="M0 905 l0 -895 681 0 681 0 -6 68 c-16 183 -18 284 -7 378 10 85 9 117 -4 198
-8 53 -15 110 -15 128 0 18 -5 40 -10 48 -8 13 -11 13 -23 0 -18 -19 -41 -86
-63 -180 -9 -41 -18 -81 -20 -88 -2 -6 -13 -12 -24 -12 -18 0 -20 6 -20 63 0
64 -10 94 -28 83 -5 -3 -15 1 -22 9 -21 25 7 109 93 280 95 187 102 198 161
235 24 15 46 32 49 37 3 5 1 30 -4 55 -9 38 -7 54 6 82 20 42 58 56 152 56 53
0 64 -3 77 -22 19 -27 20 -80 2 -131 l-14 -38 63 -62 c56 -55 105 -125 105
-151 0 -19 62 -106 76 -106 7 0 21 -11 30 -25 9 -13 24 -27 35 -30 13 -4 19
-16 19 -35 0 -24 -3 -27 -22 -22 -13 3 -29 12 -36 19 -7 7 -24 13 -37 13 l-24
0 30 -45 c35 -52 57 -178 45 -259 -8 -54 -47 -101 -92 -112 -23 -6 -32 -21
-97 -166 -25 -54 -21 -74 23 -118 42 -42 53 -86 24 -97 -18 -7 -157 13 -196
28 -40 16 -45 65 -15 137 37 87 48 122 60 178 10 50 8 55 -33 137 -23 47 -48
88 -56 91 -29 11 -44 -23 -44 -97 0 -40 -6 -103 -14 -142 -30 -142 -36 -193
-36 -288 l0 -97 875 0 875 0 0 895 0 895 -1600 0 -1600 0 0 -895z"/>
<path d="M1685 889 c-18 -28 25 -168 67 -222 13 -18 15 -18 37 0 20 16 23 25 17 54 -3
19 -20 54 -36 78 -17 24 -30 49 -30 56 0 12 -31 45 -43 45 -3 0 -9 -5 -12 -11z"/>
</g>
</svg>
