<svg version="1.0" xmlns="http://www.w3.org/2000/svg"
 width="668px" style="transform:scale(1,1.001);" height="375.75px" viewBox="0 0 320.000000 180.000000"
 preserveAspectRatio="xMidYMid meet">
<g transform="translate(0.000000,180.000000) scale(0.100000,-0.100000)"
fill="#000000" stroke="none">
<path d="M0 905 l0 -895 639 0 638 0 7 47 c3 26 15 65 25 88 11 22 28 67 39 101 11 34
27 75 36 92 21 41 20 98 -2 130 -10 15 -35 57 -56 95 -20 37 -41 67 -46 67
-18 0 -57 -46 -86 -100 -16 -30 -34 -61 -41 -67 -6 -7 -17 -26 -25 -43 -7 -16
-19 -30 -27 -30 -11 0 -12 12 -7 55 5 48 4 54 -10 48 -31 -12 -44 22 -30 72
14 44 102 187 164 263 19 24 51 74 71 112 36 69 73 116 105 135 11 6 19 27 22
55 11 93 27 110 104 110 78 0 94 -17 106 -112 5 -42 14 -61 41 -89 43 -46 52
-98 30 -177 -48 -173 -56 -249 -33 -304 26 -64 36 -105 36 -157 0 -44 -6 -61
-37 -107 -77 -113 -81 -135 -28 -181 28 -25 35 -39 35 -67 l0 -36 765 0 765 0
0 895 0 895 -1600 0 -1600 0 0 -895z"/>
<path d="M1425 112 c-14 -10 -35 -59 -35 -82 0 -18 7 -20 90 -20 89 0 90 0 90 25 0 21
-5 25 -29 25 -44 0 -78 16 -86 39 -7 22 -14 25 -30 13z"/>
</g>
</svg>
