<svg version="1.0" xmlns="http://www.w3.org/2000/svg"
 width="668px" style="transform:scale(1,1.001);" height="375.75px" viewBox="0 0 320.000000 180.000000"
 preserveAspectRatio="xMidYMid meet">
<g transform="translate(0.000000,180.000000) scale(0.100000,-0.100000)"
fill="#000000" stroke="none">
<path d="M0 905 l0 -895 619 0 620 0 3 46 c4 63 34 86 115 88 l58 1 -2 -35 c-1 -19 -5
-50 -8 -68 l-7 -32 141 0 141 0 0 23 c0 13 -9 32 -20 42 -11 10 -20 31 -20 48
l0 30 51 -6 c28 -4 67 -14 87 -24 32 -16 38 -25 46 -65 l9 -48 684 0 683 0 0
895 0 895 -1600 0 -1600 0 0 -895z m1563 648 c45 -34 76 -106 59 -134 -6 -10
-14 -36 -18 -57 -8 -53 23 -97 75 -106 27 -4 41 -14 55 -38 32 -54 56 -109 56
-129 0 -11 7 -47 16 -82 32 -125 30 -118 74 -387 20 -116 22 -184 8 -225 -13
-39 -14 -40 -60 -40 -27 -1 -55 -7 -65 -16 -26 -22 -83 -36 -118 -28 -58 13
-185 9 -244 -7 -76 -21 -108 -14 -127 31 -15 36 -13 48 31 198 22 76 9 94 -36
51 -38 -36 -69 -94 -69 -130 0 -35 -37 -94 -58 -94 -26 1 -51 43 -53 91 -3 60
20 145 70 260 22 53 41 104 41 114 0 9 6 40 14 68 7 29 18 74 25 101 18 75 46
127 91 171 44 43 70 84 70 110 0 9 -16 50 -35 91 -32 68 -34 79 -25 114 6 22
25 51 45 69 30 26 44 31 89 31 42 0 60 -6 89 -27z"/>
</g>
</svg>
