<svg version="1.0" xmlns="http://www.w3.org/2000/svg"
 width="668px" style="transform:scale(1,1.001);" height="375.75px" viewBox="0 0 320.000000 180.000000"
 preserveAspectRatio="xMidYMid meet">
<g transform="translate(0.000000,180.000000) scale(0.100000,-0.100000)"
fill="#000000" stroke="none">
<path d="M0 905 l0 -895 654 0 654 0 7 109 c4 60 4 114 1 119 -7 11 20 237 30 253 3 6
3 71 -1 145 -7 124 -10 138 -32 165 -28 33 -37 31 -98 -26 -22 -20 -50 -41
-62 -46 -24 -9 -46 -51 -57 -112 -5 -28 -14 -40 -34 -48 -42 -16 -96 -2 -115
30 -16 27 -13 71 4 71 5 0 9 7 9 15 0 8 16 19 39 25 43 11 66 50 30 50 -14 0
-19 7 -19 28 0 22 10 35 42 58 51 35 148 131 148 147 0 6 6 18 14 26 12 14 12
26 0 88 -15 80 -9 110 28 150 16 17 33 23 63 23 50 0 74 -22 100 -92 21 -57
39 -74 88 -81 51 -8 63 -23 179 -227 42 -76 58 -159 59 -313 1 -144 -29 -264
-73 -295 -24 -17 -23 -68 2 -109 35 -59 -1 -87 -76 -58 -52 20 -94 66 -94 103
0 15 14 54 31 86 27 52 31 66 26 112 -6 56 -26 124 -38 124 -22 0 -35 -47 -64
-240 -8 -52 -19 -113 -24 -135 -6 -22 -11 -64 -11 -92 l0 -53 895 0 895 0 0
895 0 895 -1600 0 -1600 0 0 -895z"/>
<path d="M1065 770 c-3 -5 -2 -10 4 -10 5 0 13 5 16 10 3 6 2 10 -4 10 -5 0 -13 -4 -16
-10z"/>
</g>
</svg>
