<svg version="1.0" xmlns="http://www.w3.org/2000/svg"
 width="668px" style="transform:scale(1,1.001);" height="375.75px" viewBox="0 0 320.000000 180.000000"
 preserveAspectRatio="xMidYMid meet">
<g transform="translate(0.000000,180.000000) scale(0.100000,-0.100000)"
fill="#000000" stroke="none">
<path d="M0 905 l0 -895 781 0 782 0 -6 53 c-19 158 -28 310 -22 372 7 80 32 233 46
285 5 19 16 107 24 195 9 88 18 183 22 212 5 46 2 55 -23 88 -15 20 -38 41
-50 45 -28 11 -54 86 -54 156 0 61 24 174 46 217 21 40 93 117 110 117 8 0 14
10 14 25 l0 25 -835 0 -835 0 0 -895z"/>
<path d="M1900 1776 c0 -13 7 -40 15 -59 9 -21 15 -67 15 -111 0 -73 0 -74 39 -109 22
-20 55 -39 74 -42 31 -6 38 -14 63 -68 22 -51 27 -75 27 -142 -1 -87 -9 -131
-52 -275 -67 -223 -73 -253 -81 -405 -8 -148 -12 -188 -30 -295 -5 -30 -12
-101 -15 -157 l-5 -103 625 0 625 0 0 895 0 895 -650 0 -650 0 0 -24z"/>
</g>
</svg>
