<svg version="1.0" xmlns="http://www.w3.org/2000/svg"
 width="668px" style="transform:scale(1,1.001);" height="375.75px" viewBox="0 0 320.000000 180.000000"
 preserveAspectRatio="xMidYMid meet">
<g transform="translate(0.000000,180.000000) scale(0.100000,-0.100000)"
fill="#000000" stroke="none">
<path d="M0 905 l0 -895 531 0 531 0 -2 28 c-5 72 20 102 85 102 55 0 69 -20 59 -85
l-6 -45 1001 0 1001 0 0 895 0 895 -1600 0 -1600 0 0 -895z m1402 807 c124
-62 148 -135 78 -238 -37 -54 -38 -59 -23 -76 9 -10 30 -18 48 -18 18 0 38 -7
45 -15 7 -8 31 -23 54 -33 26 -12 52 -35 71 -63 17 -24 55 -74 86 -112 31 -37
59 -81 63 -98 9 -46 7 -114 -3 -142 -16 -41 -86 -55 -163 -31 -11 3 -23 -4
-33 -19 -25 -39 -3 -191 51 -345 50 -142 57 -208 24 -220 -12 -4 -75 -1 -142
7 -103 12 -147 13 -296 2 -170 -13 -175 -13 -195 7 -22 23 -24 52 -8 132 28
133 31 154 31 200 0 52 -14 100 -33 112 -7 4 -24 8 -38 8 -15 0 -39 10 -54 22
-63 49 -72 153 -26 293 17 48 41 104 55 124 30 42 134 131 154 131 7 0 20 16
28 35 13 32 12 43 -6 114 -25 100 -25 107 3 160 27 49 91 90 143 91 17 0 56
-12 86 -28z"/>
</g>
</svg>
