<svg version="1.0" xmlns="http://www.w3.org/2000/svg"
 width="668px" style="transform:scale(1,1.001);" height="375.75px" viewBox="0 0 320.000000 180.000000"
 preserveAspectRatio="xMidYMid meet">
<g transform="translate(0.000000,180.000000) scale(0.100000,-0.100000)"
fill="#000000" stroke="none">
<path d="M0 905 l0 -895 1600 0 1600 0 0 895 0 895 -1600 0 -1600 0 0 -895z m1832 780
c35 -19 79 -50 98 -70 34 -35 35 -39 35 -113 0 -69 -4 -85 -38 -155 -30 -61
-37 -84 -32 -108 9 -38 66 -104 111 -127 40 -21 114 -82 169 -140 55 -57 83
-153 95 -321 4 -70 13 -139 19 -154 6 -16 11 -55 11 -88 0 -52 -4 -63 -26 -84
-15 -14 -34 -25 -43 -26 -120 -4 -345 1 -452 10 -99 9 -169 9 -257 2 -142 -13
-324 -5 -369 16 -41 19 -49 53 -29 135 8 35 18 90 21 123 10 96 67 252 122
335 37 55 105 121 140 136 18 8 37 23 43 33 5 11 23 22 40 26 16 4 30 10 30
15 0 4 14 21 31 38 29 28 31 35 27 82 -3 27 -12 58 -21 68 -9 10 -28 40 -43
67 -21 41 -27 64 -28 125 -1 71 1 77 33 117 19 24 45 45 61 48 15 3 36 15 46
26 13 15 30 19 80 19 53 0 73 -5 126 -35z"/>
</g>
</svg>
