<svg version="1.0" xmlns="http://www.w3.org/2000/svg"
 width="668px" style="transform:scale(1,1.001);" height="375.75px" viewBox="0 0 320.000000 180.000000"
 preserveAspectRatio="xMidYMid meet">
<g transform="translate(0.000000,180.000000) scale(0.100000,-0.100000)"
fill="#000000" stroke="none">
<path d="M0 905 l0 -895 604 0 603 0 -5 136 c-5 146 0 182 50 343 37 122 36 135 -19
139 -44 3 -68 25 -59 54 2 7 7 26 10 41 5 20 25 39 74 72 38 24 74 55 80 71
22 46 52 219 45 258 -4 23 -14 41 -27 48 -11 6 -33 24 -48 40 -30 32 -64 36
-108 13 -27 -14 -30 -14 -40 4 -15 29 -13 33 25 75 41 45 102 60 126 32 24
-29 92 -86 102 -86 9 0 27 61 27 90 0 15 -15 46 -34 71 -101 131 -109 205 -30
277 42 39 48 42 104 42 48 0 64 -5 88 -25 34 -29 57 -79 67 -150 5 -27 21 -69
36 -94 57 -90 78 -149 90 -243 12 -101 5 -227 -17 -310 -7 -29 -14 -63 -14
-76 0 -13 -13 -58 -29 -100 -16 -42 -37 -103 -47 -135 -13 -43 -30 -71 -70
-114 -30 -31 -54 -61 -54 -65 0 -5 -11 -33 -24 -61 -45 -96 -44 -119 11 -222
9 -16 18 -51 21 -77 l5 -48 828 0 829 0 0 895 0 895 -1600 0 -1600 0 0 -895z"/>
</g>
</svg>
