<svg version="1.0" xmlns="http://www.w3.org/2000/svg"
 width="668px" style="transform:scale(1,1.001);" height="375.75px" viewBox="0 0 320.000000 180.000000"
 preserveAspectRatio="xMidYMid meet">
<g transform="translate(0.000000,180.000000) scale(0.100000,-0.100000)"
fill="#000000" stroke="none">
<path d="M0 905 l0 -895 705 0 705 0 0 25 c0 14 -4 25 -9 25 -21 0 -31 60 -29 168 3
125 7 117 -77 177 -29 22 -30 23 -66 300 -18 140 1 220 100 409 56 107 150
210 207 225 56 15 64 109 14 166 -56 63 -60 148 -9 211 16 20 29 47 29 60 l0
24 -785 0 -785 0 0 -895z"/>
<path d="M1800 1778 c0 -11 11 -36 25 -53 13 -18 29 -52 35 -77 10 -40 9 -50 -14 -102
-39 -89 -36 -115 23 -164 27 -23 56 -42 63 -42 28 0 158 -162 158 -196 0 -5 8
-25 18 -44 10 -19 27 -75 37 -123 17 -84 17 -91 0 -152 -14 -53 -27 -75 -74
-125 -31 -33 -69 -84 -84 -114 -24 -48 -27 -63 -27 -162 0 -63 -6 -132 -15
-163 -7 -29 -17 -79 -21 -110 -3 -31 -12 -66 -20 -78 -8 -12 -14 -31 -14 -43
0 -20 3 -20 655 -20 l655 0 0 895 0 895 -700 0 -700 0 0 -22z"/>
</g>
</svg>
