<svg version="1.0" xmlns="http://www.w3.org/2000/svg"
 width="668px" style="transform:scale(1,1.001);" height="375.75px" viewBox="0 0 320.000000 180.000000"
 preserveAspectRatio="xMidYMid meet">
<g transform="translate(0.000000,180.000000) scale(0.100000,-0.100000)"
fill="#000000" stroke="none">
<path d="M0 905 l0 -895 615 0 c691 0 630 -8 600 75 -16 45 -19 222 -6 294 11 55 -3
111 -28 111 -22 0 -135 -56 -151 -75 -6 -7 -24 -17 -40 -20 -16 -3 -34 -13
-42 -22 -7 -9 -30 -27 -51 -40 -21 -13 -45 -31 -55 -39 -47 -42 -96 -73 -125
-79 -18 -4 -43 -18 -57 -30 -14 -13 -47 -35 -73 -49 l-49 -25 -35 27 c-42 32
-113 173 -120 237 -12 101 47 111 146 25 50 -44 61 -49 82 -41 13 5 32 19 41
30 10 12 25 21 33 21 9 0 21 12 27 26 7 15 23 27 39 31 15 3 40 18 55 34 15
16 32 29 37 29 21 0 197 194 197 217 0 18 89 111 114 119 34 11 97 81 122 135
13 27 28 84 33 125 5 41 16 85 25 98 8 13 24 50 34 81 25 73 18 98 -45 172
-47 55 -48 58 -48 122 0 59 2 66 25 78 15 8 63 13 118 13 116 0 136 -14 147
-106 9 -70 28 -108 95 -189 28 -32 50 -65 50 -72 0 -8 11 -35 25 -61 14 -26
25 -58 25 -72 0 -14 11 -43 23 -65 27 -46 57 -134 57 -164 0 -12 -11 -26 -28
-35 -38 -20 -98 -99 -106 -140 -4 -22 -24 -50 -61 -85 -35 -33 -68 -78 -91
-124 -19 -40 -53 -103 -74 -142 -21 -38 -39 -78 -39 -87 -1 -10 -10 -44 -20
-75 -15 -45 -19 -82 -18 -160 l2 -103 897 0 898 0 0 895 0 895 -1600 0 -1600
0 0 -895z"/>
</g>
</svg>
