<svg version="1.0" xmlns="http://www.w3.org/2000/svg"
 width="668px" style="transform:scale(1,1.001);" height="375.75px" viewBox="0 0 320.000000 180.000000"
 preserveAspectRatio="xMidYMid meet">
<g transform="translate(0.000000,180.000000) scale(0.100000,-0.100000)"
fill="#000000" stroke="none">
<path d="M0 905 l0 -895 654 0 653 0 7 73 c4 39 11 122 16 182 4 61 14 140 21 177 11
58 10 76 -5 150 -10 45 -20 89 -22 96 -6 21 -31 13 -38 -11 -3 -13 -21 -43
-39 -68 -19 -24 -42 -59 -51 -76 -14 -27 -22 -33 -50 -33 -52 0 -62 20 -41 78
10 26 33 71 52 100 23 37 36 72 42 118 6 36 19 83 30 105 26 50 26 68 1 118
-24 45 -20 78 16 116 20 21 32 25 83 25 60 0 61 0 81 -40 11 -21 20 -46 20
-54 0 -18 43 -49 88 -64 41 -14 67 -44 82 -97 7 -22 23 -69 36 -105 28 -79 44
-157 44 -213 1 -23 7 -69 16 -102 21 -87 34 -205 24 -230 -5 -13 -20 -25 -33
-29 -31 -7 -40 -41 -20 -72 14 -22 14 -26 -2 -50 -11 -18 -22 -23 -33 -19 -9
4 -30 12 -47 18 -33 12 -83 60 -95 92 -10 26 9 72 44 104 14 14 26 35 26 47 0
26 -34 109 -48 118 -28 17 -92 -225 -100 -376 l-4 -78 896 0 896 0 0 895 0
895 -1600 0 -1600 0 0 -895z"/>
</g>
</svg>
