<svg version="1.0" xmlns="http://www.w3.org/2000/svg"
 width="668px" style="transform:scale(1,1.001);" height="375.75px" viewBox="0 0 320.000000 180.000000"
 preserveAspectRatio="xMidYMid meet">
<g transform="translate(0.000000,180.000000) scale(0.100000,-0.100000)"
fill="#000000" stroke="none">
<path d="M0 905 l0 -895 820 0 820 0 0 61 c0 57 17 111 51 169 5 8 16 29 24 46 7 17 21
36 29 44 9 7 16 19 16 28 0 18 39 98 80 162 52 83 110 205 110 234 0 15 -6 37
-12 49 -7 12 -15 63 -18 112 -6 89 -6 91 -47 134 -40 44 -43 45 -110 48 -99 5
-107 9 -137 51 -26 37 -26 41 -26 201 0 157 1 164 26 207 14 24 35 49 46 55
24 13 84 -5 98 -30 14 -27 1 -89 -31 -148 -54 -98 -28 -152 68 -139 110 16
114 17 130 52 14 28 14 35 2 50 -19 23 -40 82 -46 127 -5 35 -1 43 38 83 39
40 47 44 92 44 41 0 60 -7 114 -42 l65 -42 -7 -50 c-18 -145 -12 -155 100
-163 64 -5 83 -10 99 -28 31 -33 63 -40 92 -20 17 11 22 20 16 28 -5 7 -17 41
-27 77 -9 36 -21 70 -27 77 -5 6 -8 28 -6 48 2 27 10 41 30 53 26 15 28 15 52
-7 27 -25 51 -85 71 -176 7 -33 23 -82 35 -110 25 -55 30 -137 11 -173 -6 -12
-28 -29 -49 -38 -35 -15 -49 -15 -142 1 -33 6 -36 4 -58 -34 -21 -38 -22 -45
-11 -107 8 -48 8 -95 0 -177 -11 -123 -21 -330 -26 -590 l-3 -167 424 0 424 0
0 895 0 895 -1600 0 -1600 0 0 -895z"/>
<path d="M2029 328 c-25 -33 -96 -112 -126 -138 -9 -8 -33 -33 -52 -55 -20 -21 -46 -50
-58 -62 -13 -13 -23 -33 -23 -43 0 -19 8 -20 200 -20 227 0 215 -6 181 87 -10
29 -24 92 -31 140 -16 123 -46 152 -91 91z"/>
</g>
</svg>
