<svg version="1.0" xmlns="http://www.w3.org/2000/svg"
 width="668px" style="transform:scale(1,1.001);" height="375.75px" viewBox="0 0 320.000000 180.000000"
 preserveAspectRatio="xMidYMid meet">
<g transform="translate(0.000000,180.000000) scale(0.100000,-0.100000)"
fill="#000000" stroke="none">
<path d="M0 905 l0 -895 760 0 c745 0 760 0 760 19 0 11 -5 32 -11 48 -6 15 -19 91 -30
168 -21 152 -33 223 -42 231 -3 3 -18 -13 -33 -36 -53 -80 -43 -169 31 -269
28 -38 28 -54 -1 -60 -10 -2 -38 -12 -61 -22 -38 -17 -123 -27 -123 -14 0 3 7
16 16 30 9 14 14 39 12 61 -3 34 -6 39 -36 45 -41 8 -58 30 -72 94 -10 51 -8
62 24 152 9 24 15 74 15 120 0 43 7 143 16 222 16 151 40 225 76 236 31 10 59
54 50 78 -5 12 -11 43 -15 68 -11 72 9 89 112 96 69 5 88 3 117 -13 30 -16 35
-24 35 -54 0 -19 -7 -48 -16 -65 -24 -43 -19 -70 20 -107 57 -54 77 -113 83
-247 6 -122 0 -170 -41 -366 -25 -119 -46 -287 -46 -371 l0 -44 800 0 800 0 0
895 0 895 -1600 0 -1600 0 0 -895z"/>
<path d="M1290 176 c0 -9 5 -16 10 -16 6 0 10 4 10 9 0 6 -4 13 -10 16 -5 3 -10 -1 -10
-9z"/>
</g>
</svg>
