<svg version="1.0" xmlns="http://www.w3.org/2000/svg"
 width="668px" style="transform:scale(1,1.001);" height="375.75px" viewBox="0 0 320.000000 180.000000"
 preserveAspectRatio="xMidYMid meet">
<g transform="translate(0.000000,180.000000) scale(0.100000,-0.100000)"
fill="#000000" stroke="none">
<path d="M0 905 l0 -895 650 0 650 0 0 29 c0 16 9 58 20 93 11 34 25 97 31 138 6 41 18
101 25 133 8 32 14 79 14 103 0 60 -20 136 -34 131 -6 -2 -22 -27 -36 -55 -51
-104 -68 -50 -51 171 6 84 11 184 11 222 0 74 28 203 55 255 19 37 83 104 108
113 21 8 22 43 2 77 -15 27 -20 117 -7 138 13 20 112 55 169 59 50 5 53 4 64
-24 8 -20 8 -54 1 -118 -10 -95 -4 -129 25 -140 24 -8 59 -64 67 -106 11 -59
-12 -317 -36 -404 -27 -98 -26 -132 1 -215 41 -122 35 -198 -20 -268 -46 -59
-91 -138 -96 -169 -5 -27 0 -37 36 -72 27 -26 41 -49 41 -66 l0 -25 755 0 755
0 0 895 0 895 -1600 0 -1600 0 0 -895z"/>
<path d="M1446 73 c-3 -3 -6 -19 -6 -35 l0 -28 70 0 c68 0 70 1 70 25 0 23 -4 25 -46
25 -25 0 -53 4 -63 10 -10 5 -21 6 -25 3z"/>
</g>
</svg>
