<svg version="1.0" xmlns="http://www.w3.org/2000/svg"
 width="668px" style="transform:scale(1,1.001);" height="375.75px" viewBox="0 0 320.000000 180.000000"
 preserveAspectRatio="xMidYMid meet">
<g transform="translate(0.000000,180.000000) scale(0.100000,-0.100000)"
fill="#000000" stroke="none">
<path d="M0 905 l0 -895 480 0 480 0 0 49 c0 56 22 127 50 156 10 11 27 40 38 65 11 25
29 53 40 62 12 9 26 34 31 55 6 22 24 52 40 67 17 16 33 41 36 57 4 15 20 45
36 65 38 48 38 89 -1 140 -16 21 -30 45 -30 51 0 7 -16 30 -35 51 -28 31 -36
51 -45 107 -7 45 -19 78 -35 96 -25 31 -31 58 -41 194 -5 67 -14 107 -35 157
-28 63 -30 78 -36 243 l-6 175 -484 0 -483 0 0 -895z"/>
<path d="M1330 1777 c0 -13 5 -28 11 -34 6 -6 15 -33 20 -59 5 -28 19 -59 34 -74 17
-18 30 -49 40 -95 9 -45 22 -76 39 -94 14 -15 31 -44 39 -64 11 -34 21 -42 90
-73 l78 -36 39 34 c35 29 39 37 34 67 -8 52 -24 235 -31 349 l-6 102 -193 0
-194 0 0 -23z"/>
<path d="M2760 1781 c0 -10 14 -46 30 -79 25 -50 30 -73 30 -130 0 -51 -4 -73 -16 -83
-9 -7 -25 -32 -36 -55 -18 -38 -52 -75 -232 -247 l-59 -57 8 -52 c9 -59 9 -67
-1 -184 -6 -81 -6 -82 20 -99 17 -11 32 -36 43 -71 9 -30 20 -54 25 -54 14 0
48 -64 48 -91 0 -16 12 -38 29 -55 16 -16 34 -47 41 -69 7 -22 23 -51 35 -65
12 -14 30 -48 39 -76 9 -29 25 -59 35 -69 11 -9 25 -31 32 -48 7 -18 21 -45
32 -61 15 -21 20 -43 18 -77 l-2 -49 161 0 160 0 0 895 0 895 -220 0 c-209 0
-220 -1 -220 -19z"/>
</g>
</svg>
