<svg version="1.0" xmlns="http://www.w3.org/2000/svg"
 width="668px" style="transform:scale(1,1.001);" height="375.75px" viewBox="0 0 320.000000 180.000000"
 preserveAspectRatio="xMidYMid meet">
<g transform="translate(0.000000,180.000000) scale(0.100000,-0.100000)"
fill="#000000" stroke="none">
<path d="M0 905 l0 -895 518 0 519 0 1 38 c1 21 11 64 22 97 11 32 20 84 20 117 0 32 7
75 15 95 8 19 15 42 15 50 0 8 7 31 16 51 37 86 62 128 105 176 61 68 99 126
99 151 0 12 -18 36 -45 58 -78 65 -79 141 -2 223 23 24 47 44 53 44 6 0 19 11
28 24 8 13 29 27 46 31 16 4 30 11 30 15 0 5 18 15 41 21 46 14 66 38 75 89
10 52 22 70 59 86 39 16 105 19 105 5 0 -5 13 -12 29 -16 45 -10 74 -47 75
-98 1 -36 -5 -50 -31 -81 -18 -20 -33 -46 -33 -57 0 -11 12 -55 26 -97 32 -95
28 -158 -16 -236 -17 -29 -30 -60 -30 -69 0 -9 24 -64 54 -122 67 -130 80
-188 73 -323 -3 -57 -3 -141 0 -188 l6 -84 663 0 664 0 0 895 0 895 -1600 0
-1600 0 0 -895z"/>
<path d="M1405 512 c-80 -43 -138 -96 -161 -149 -18 -41 -82 -268 -91 -320 l-5 -33 309
0 310 0 -4 153 c-3 83 -9 168 -15 187 -14 47 -47 84 -128 147 -85 66 -114 68
-215 15z"/>
</g>
</svg>
