<svg version="1.0" xmlns="http://www.w3.org/2000/svg"
 width="668px" style="transform:scale(1,1.001);" height="375.75px" viewBox="0 0 320.000000 180.000000"
 preserveAspectRatio="xMidYMid meet">
<g transform="translate(0.000000,180.000000) scale(0.100000,-0.100000)"
fill="#000000" stroke="none">
<path d="M0 905 l0 -895 717 0 716 0 -6 145 c-6 143 -6 146 20 193 14 26 32 60 41 76
20 38 28 154 13 197 -25 75 -120 139 -204 139 -44 0 -104 38 -117 73 -15 45
-12 88 9 130 10 20 22 54 26 74 7 39 49 93 71 93 20 0 104 -53 104 -66 0 -6 9
-19 20 -29 11 -10 20 -24 20 -32 0 -18 54 -73 72 -73 8 0 20 20 27 45 11 39
11 52 -5 102 -10 32 -27 67 -38 79 -56 57 -126 140 -126 151 0 6 -6 18 -13 25
-40 41 -57 86 -57 154 0 68 1 70 46 117 27 27 55 47 67 47 12 0 37 9 56 21 66
40 212 1 269 -72 28 -37 32 -49 32 -103 0 -77 13 -122 44 -155 64 -67 149
-186 175 -243 35 -78 81 -212 81 -236 0 -23 34 -114 70 -184 37 -74 80 -216
80 -265 0 -21 -7 -91 -15 -155 -15 -113 -34 -180 -55 -193 -5 -3 -10 -17 -10
-31 l0 -24 535 0 535 0 0 895 0 895 -1600 0 -1600 0 0 -895z"/>
<path d="M2006 238 c-3 -7 -7 -44 -10 -83 -3 -38 -9 -87 -12 -108 l-7 -37 37 0 c30 0
36 4 36 21 0 11 -9 34 -20 50 -16 22 -19 33 -10 48 13 25 13 121 0 121 -6 0
-12 -6 -14 -12z"/>
</g>
</svg>
