<svg version="1.0" xmlns="http://www.w3.org/2000/svg"
 width="668px" style="transform:scale(1,1.001);" height="375.75px" viewBox="0 0 320.000000 180.000000"
 preserveAspectRatio="xMidYMid meet">
<g transform="translate(0.000000,180.000000) scale(0.100000,-0.100000)"
fill="#000000" stroke="none">
<path d="M0 905 l0 -895 1600 0 1600 0 0 895 0 895 -1600 0 -1600 0 0 -895z m1915 716
c39 -11 75 -27 80 -34 6 -7 17 -18 26 -23 9 -5 41 -38 70 -73 53 -64 54 -66
54 -131 0 -69 -1 -70 -76 -181 -10 -15 -21 -39 -25 -54 -4 -14 -15 -32 -25
-38 -15 -9 -19 -24 -19 -67 0 -49 4 -58 33 -86 31 -29 153 -94 178 -94 6 0 36
-14 65 -31 65 -37 119 -112 127 -177 3 -24 13 -52 23 -63 22 -24 32 -160 15
-212 -9 -27 -19 -36 -43 -41 -17 -3 -177 -6 -357 -6 -179 0 -365 -5 -414 -11
-66 -8 -100 -8 -140 1 -28 7 -124 14 -212 16 -88 1 -170 3 -183 3 -54 2 -80
77 -48 139 8 15 17 44 21 65 4 20 15 47 25 60 9 12 22 37 28 55 10 29 57 88
102 128 68 62 85 74 102 74 10 0 31 9 46 19 15 11 52 25 82 31 35 7 68 22 90
41 32 27 35 33 34 87 0 42 -7 70 -27 106 -17 31 -27 64 -27 90 0 23 -9 55 -20
73 -31 52 -49 133 -36 168 17 48 130 150 176 160 16 3 34 13 41 21 18 21 143
13 234 -15z"/>
</g>
</svg>
