<svg version="1.0" xmlns="http://www.w3.org/2000/svg"
 width="668px" style="transform:scale(1,1.001);" height="375.75px" viewBox="0 0 320.000000 180.000000"
 preserveAspectRatio="xMidYMid meet">
<g transform="translate(0.000000,180.000000) scale(0.100000,-0.100000)"
fill="#000000" stroke="none">
<path d="M0 905 l0 -895 1600 0 1600 0 0 895 0 895 -1600 0 -1600 0 0 -895z m1435 720
c55 -27 67 -67 50 -169 -6 -39 -5 -51 7 -60 8 -6 20 -21 27 -33 9 -18 21 -23
49 -23 75 0 109 -18 197 -104 47 -45 85 -90 85 -99 0 -9 6 -20 13 -24 16 -10
77 -111 77 -127 0 -7 8 -20 18 -29 10 -9 35 -50 56 -92 22 -41 43 -75 48 -75
5 0 13 -11 18 -25 5 -14 16 -25 25 -25 22 0 105 -79 105 -101 0 -55 -42 -88
-94 -75 -33 8 -206 183 -240 243 -4 8 -17 24 -27 34 -11 11 -19 24 -19 29 0
15 -27 12 -44 -6 -13 -12 -16 -39 -17 -122 0 -117 -5 -341 -7 -385 -3 -39 -73
-106 -106 -100 -25 5 -56 66 -56 111 0 25 -32 62 -54 62 -15 0 -26 -21 -26
-52 0 -34 -65 -88 -107 -88 -39 0 -98 31 -113 60 -14 26 -12 95 5 165 16 67
21 310 6 320 -24 14 -64 -23 -109 -99 -26 -45 -49 -85 -51 -91 -2 -5 -32 -39
-65 -76 -34 -36 -68 -80 -75 -97 -13 -32 -49 -51 -70 -38 -6 4 -16 25 -22 47
-11 35 -10 43 8 67 11 15 24 38 28 52 10 32 52 110 69 129 8 9 26 29 41 45 34
37 45 67 45 124 0 52 33 167 54 192 8 8 17 26 21 39 4 12 28 44 54 70 26 25
55 58 65 73 17 27 17 28 -9 63 -15 19 -39 41 -53 48 -35 16 -72 73 -72 110 0
43 68 102 134 118 28 6 58 15 66 20 21 12 28 11 65 -6z m245 -1445 c0 -38 -2
-40 -30 -40 -16 0 -30 4 -30 9 0 10 48 71 56 71 2 0 4 -18 4 -40z m-235 -30
c17 -6 14 -9 -17 -15 -38 -7 -62 0 -53 16 7 11 42 11 70 -1z"/>
</g>
</svg>
