<svg version="1.0" xmlns="http://www.w3.org/2000/svg"
 width="668px" style="transform:scale(1,1.001);" height="375.75px" viewBox="0 0 320.000000 180.000000"
 preserveAspectRatio="xMidYMid meet">
<g transform="translate(0.000000,180.000000) scale(0.100000,-0.100000)"
fill="#000000" stroke="none">
<path d="M0 905 l0 -895 506 0 507 0 -6 49 c-5 40 -2 52 12 65 10 10 28 43 40 75 11 32
30 66 41 76 10 9 26 39 35 65 9 27 27 55 39 64 14 8 26 29 30 49 4 19 21 47
41 67 33 32 35 37 35 101 0 57 -4 72 -25 97 -27 33 -55 92 -55 117 0 9 -12 32
-26 51 -20 26 -31 57 -41 121 -8 50 -22 97 -33 113 -24 33 -36 90 -49 230 -6
60 -21 135 -34 175 -14 39 -30 116 -37 173 l-13 102 -484 0 -483 0 0 -895z"/>
<path d="M1340 1776 c0 -13 7 -37 15 -52 8 -16 15 -39 15 -51 0 -12 14 -38 30 -57 19
-21 34 -52 40 -85 11 -59 30 -98 59 -125 12 -11 21 -30 21 -43 0 -31 64 -94
116 -114 32 -11 134 -12 153 0 25 16 13 378 -15 433 -8 15 -14 47 -14 73 l0
45 -210 0 -210 0 0 -24z"/>
<path d="M2770 1781 c0 -11 14 -43 32 -71 26 -43 32 -63 36 -130 4 -71 2 -86 -21 -132
-14 -29 -29 -63 -32 -76 -4 -13 -17 -27 -31 -32 -13 -5 -30 -25 -39 -45 -8
-20 -19 -34 -24 -31 -5 3 -21 -9 -36 -26 -15 -18 -37 -35 -49 -38 -12 -4 -34
-30 -53 -64 -27 -48 -33 -69 -33 -120 0 -33 -5 -79 -10 -101 -8 -36 -6 -48 27
-114 20 -41 51 -97 70 -125 18 -28 33 -57 33 -64 0 -8 15 -35 34 -61 37 -52
50 -74 102 -181 20 -41 46 -88 58 -105 13 -16 28 -45 34 -63 6 -18 20 -45 32
-59 14 -19 20 -41 20 -79 l0 -54 140 0 140 0 0 895 0 895 -215 0 c-206 0 -215
-1 -215 -19z"/>
</g>
</svg>
