<svg version="1.0" xmlns="http://www.w3.org/2000/svg"
 width="668px" style="transform:scale(1,1.001);" height="375.75px" viewBox="0 0 320.000000 180.000000"
 preserveAspectRatio="xMidYMid meet">
<g transform="translate(0.000000,180.000000) scale(0.100000,-0.100000)"
fill="#000000" stroke="none">
<path d="M0 905 l0 -895 773 0 772 0 0 182 c0 148 3 194 18 240 45 143 69 283 77 448 4
91 10 180 15 199 9 41 -15 91 -57 116 -16 9 -41 35 -56 58 -26 39 -27 46 -26
166 1 118 3 131 33 203 23 54 42 84 67 103 22 17 34 34 34 51 l0 24 -825 0
-825 0 0 -895z"/>
<path d="M1900 1780 c0 -12 9 -38 20 -60 22 -43 27 -119 9 -151 -19 -37 12 -66 99 -92
72 -22 79 -26 102 -68 36 -64 40 -213 10 -319 -12 -41 -25 -125 -30 -186 -4
-61 -13 -120 -19 -132 -7 -13 -11 -87 -11 -199 0 -98 -7 -232 -15 -298 -8 -66
-15 -153 -15 -192 l0 -73 575 0 575 0 0 895 0 895 -650 0 c-648 0 -650 0 -650
-20z"/>
<path d="M1776 228 c-36 -225 -37 -218 29 -218 49 0 55 2 55 20 0 12 -7 31 -15 43 -8
12 -17 49 -21 82 -12 102 -37 140 -48 73z"/>
</g>
</svg>
