<svg version="1.0" xmlns="http://www.w3.org/2000/svg"
 width="668px" style="transform:scale(1,1.001);" height="375.75px" viewBox="0 0 320.000000 180.000000"
 preserveAspectRatio="xMidYMid meet">
<g transform="translate(0.000000,180.000000) scale(0.100000,-0.100000)"
fill="#000000" stroke="none">
<path d="M0 905 l0 -895 1600 0 1600 0 0 895 0 895 -1600 0 -1600 0 0 -895z m1611 777
c97 -48 149 -114 149 -189 -1 -48 -27 -140 -47 -165 -6 -7 -14 -25 -18 -40 -9
-34 25 -94 58 -104 12 -3 31 -14 42 -24 11 -10 36 -25 55 -34 19 -9 55 -32 80
-51 25 -19 54 -40 65 -46 18 -9 29 -23 64 -79 16 -26 41 -125 50 -196 5 -38
16 -92 24 -119 9 -28 21 -81 26 -120 5 -38 13 -85 17 -103 7 -37 -10 -87 -34
-98 -48 -20 -814 -26 -990 -8 -142 15 -142 15 -142 165 0 78 5 132 14 156 8
21 17 58 21 83 3 25 12 54 19 65 7 11 16 33 20 50 11 43 105 157 185 222 78
64 111 107 111 143 0 35 -30 100 -84 181 -59 89 -58 177 2 233 41 38 105 84
137 96 44 18 119 11 176 -18z"/>
</g>
</svg>
