<svg version="1.0" xmlns="http://www.w3.org/2000/svg"
 width="668px" style="transform:scale(1,1.001);" height="375.75px" viewBox="0 0 320.000000 180.000000"
 preserveAspectRatio="xMidYMid meet">
<g transform="translate(0.000000,180.000000) scale(0.100000,-0.100000)"
fill="#000000" stroke="none">
<path d="M0 905 l0 -895 1600 0 1600 0 0 895 0 895 -1600 0 -1600 0 0 -895z m1620 708
c25 -8 52 -20 60 -27 8 -7 27 -17 42 -24 15 -6 34 -22 43 -36 9 -13 29 -29 45
-36 36 -15 50 -53 50 -134 0 -83 -15 -131 -49 -155 -34 -24 -51 -78 -51 -160
0 -65 12 -101 33 -101 7 0 37 -12 67 -26 30 -14 79 -30 109 -35 57 -11 157
-58 204 -96 16 -13 35 -23 43 -23 7 0 27 -19 44 -42 17 -23 43 -49 58 -58 15
-10 41 -36 57 -58 17 -22 40 -45 52 -51 12 -6 32 -29 43 -51 41 -81 201 -218
292 -252 65 -23 96 -56 105 -111 9 -60 -3 -61 -460 -53 -221 4 -503 11 -627
17 -219 9 -226 10 -249 34 -14 13 -23 27 -20 29 3 3 97 14 209 24 113 10 216
24 228 31 33 17 26 52 -13 63 -16 5 -262 10 -545 11 l-515 2 -99 -27 c-54 -16
-112 -28 -130 -29 -50 -1 -63 -11 -93 -68 -21 -41 -36 -57 -57 -62 -53 -14
-164 -22 -221 -14 l-57 7 -28 59 c-15 33 -49 82 -74 109 -43 46 -46 53 -46
102 0 29 3 64 7 77 6 22 9 23 60 17 30 -3 71 -15 91 -25 82 -40 264 -55 340
-27 24 8 56 25 72 36 15 11 32 20 37 20 4 0 49 45 98 101 118 132 187 179 396
273 108 48 165 93 172 135 10 55 -4 93 -49 142 -24 26 -47 64 -53 86 -6 22
-20 48 -32 59 -31 28 -49 68 -49 112 0 33 6 43 40 71 22 17 43 43 46 56 8 30
116 99 187 119 57 16 116 13 187 -11z"/>
</g>
</svg>
