<svg version="1.0" xmlns="http://www.w3.org/2000/svg"
 width="668px" style="transform:scale(1,1.001);" height="375.75px" viewBox="0 0 320.000000 180.000000"
 preserveAspectRatio="xMidYMid meet">
<g transform="translate(0.000000,180.000000) scale(0.100000,-0.100000)"
fill="#000000" stroke="none">
<path d="M0 905 l0 -895 601 0 602 0 -7 53 c-4 28 -9 146 -12 262 -3 175 -8 230 -30
332 -14 68 -29 165 -33 215 -6 64 -14 104 -29 128 -11 19 -23 55 -27 80 -8 47
-37 114 -61 138 -17 16 -18 85 -2 115 6 12 19 28 30 35 10 7 18 18 18 24 0 5
11 19 25 30 31 25 33 77 5 139 -24 54 -26 131 -4 154 13 12 33 15 97 13 78 -3
82 -4 95 -31 7 -15 17 -78 22 -140 10 -121 20 -165 47 -206 12 -19 19 -57 24
-136 8 -120 32 -208 92 -336 48 -104 65 -157 84 -267 l16 -95 -32 -136 c-18
-75 -44 -180 -57 -234 -13 -54 -24 -107 -24 -117 0 -20 13 -20 880 -20 l880 0
0 895 0 895 -1600 0 -1600 0 0 -895z"/>
<path d="M1340 538 c0 -13 -24 -235 -36 -340 -5 -40 -3 -58 4 -58 6 0 13 15 16 33 5 37
20 119 41 225 15 77 9 142 -13 150 -7 2 -12 -2 -12 -10z"/>
</g>
</svg>
