<svg version="1.0" xmlns="http://www.w3.org/2000/svg"
 width="668px" style="transform:scale(1,1.001);" height="375.75px" viewBox="0 0 320.000000 180.000000"
 preserveAspectRatio="xMidYMid meet">
<g transform="translate(0.000000,180.000000) scale(0.100000,-0.100000)"
fill="#000000" stroke="none">
<path d="M0 905 l0 -895 515 0 515 0 0 40 c0 23 6 53 14 68 7 15 16 61 20 102 4 41 16
111 27 155 11 44 24 99 29 122 14 62 40 142 65 198 13 28 33 75 45 105 12 30
28 70 36 88 23 54 18 119 -12 149 -44 44 -67 99 -62 146 5 39 69 153 111 197
48 51 81 70 119 70 33 0 47 7 92 50 66 62 95 65 149 15 37 -34 37 -35 36 -108
-1 -64 2 -80 30 -131 35 -66 38 -101 16 -194 -17 -70 -37 -116 -68 -149 -26
-29 -19 -82 22 -166 43 -88 61 -136 61 -163 0 -12 4 -25 9 -28 16 -10 49 -137
70 -266 11 -69 25 -144 31 -168 5 -23 10 -62 10 -87 l0 -45 660 0 660 0 0 895
0 895 -1600 0 -1600 0 0 -895z"/>
<path d="M1405 667 c-36 -37 -82 -102 -126 -177 -18 -29 -40 -91 -64 -175 -10 -33 -26
-91 -37 -130 -11 -38 -27 -85 -34 -103 -8 -18 -14 -42 -14 -52 0 -19 9 -20
325 -20 l325 0 0 38 c0 34 -15 98 -53 227 -33 111 -65 183 -107 240 -25 33
-54 76 -64 95 -25 47 -76 100 -95 100 -9 0 -34 -19 -56 -43z"/>
</g>
</svg>
