<svg version="1.0" xmlns="http://www.w3.org/2000/svg"
 width="668px" style="transform:scale(1,1.001);" height="375.75px" viewBox="0 0 320.000000 180.000000"
 preserveAspectRatio="xMidYMid meet">
<g transform="translate(0.000000,180.000000) scale(0.100000,-0.100000)"
fill="#000000" stroke="none">
<path d="M0 905 l0 -895 700 0 700 0 0 169 0 169 35 68 c45 88 62 148 69 254 4 47 12
140 18 206 10 106 9 133 -6 210 -20 103 -76 289 -111 369 -30 67 -35 147 -11
193 21 40 82 102 101 102 9 0 15 10 15 25 l0 25 -755 0 -755 0 0 -895z"/>
<path d="M1750 1777 c0 -21 35 -67 64 -84 19 -11 56 -96 56 -128 0 -14 -7 -42 -15 -62
-21 -51 -19 -90 9 -126 39 -52 124 -219 146 -288 12 -35 26 -95 32 -134 6 -38
20 -106 32 -150 16 -61 21 -109 21 -202 l0 -121 -47 -47 c-48 -47 -50 -51 -64
-160 -3 -27 -17 -71 -30 -96 -28 -57 -54 -127 -54 -151 0 -17 38 -18 650 -18
l650 0 0 895 0 895 -725 0 -725 0 0 -23z"/>
</g>
</svg>
