<svg version="1.0" xmlns="http://www.w3.org/2000/svg"
 width="668px" style="transform:scale(1,1.001);" height="375.75px" viewBox="0 0 320.000000 180.000000"
 preserveAspectRatio="xMidYMid meet">
<g transform="translate(0.000000,180.000000) scale(0.100000,-0.100000)"
fill="#000000" stroke="none">
<path d="M0 905 l0 -895 1600 0 1600 0 0 895 0 895 -1600 0 -1600 0 0 -895z m1949 712
c22 -14 53 -46 70 -71 41 -59 43 -132 6 -202 -26 -49 -31 -96 -16 -136 11 -28
120 -142 176 -183 70 -51 135 -126 167 -189 27 -54 31 -76 39 -196 5 -74 10
-173 11 -219 2 -123 9 -119 -255 -123 -478 -7 -863 -2 -894 11 -37 15 -53 47
-53 107 0 54 -14 50 -31 -7 -18 -59 -65 -96 -136 -105 -82 -10 -132 9 -157 60
-17 35 -18 45 -6 107 6 38 16 72 21 75 6 3 21 29 35 57 59 123 99 175 154 197
68 27 158 89 209 143 56 59 191 133 321 176 70 23 87 86 36 134 -12 12 -41 51
-64 86 -56 87 -57 133 -6 202 65 89 115 110 251 105 69 -2 88 -6 122 -29z"/>
</g>
</svg>
