<svg version="1.0" xmlns="http://www.w3.org/2000/svg"
 width="668px" style="transform:scale(1,1.001);" height="375.75px" viewBox="0 0 320.000000 180.000000"
 preserveAspectRatio="xMidYMid meet">
<g transform="translate(0.000000,180.000000) scale(0.100000,-0.100000)"
fill="#000000" stroke="none">
<path d="M0 905 l0 -895 1600 0 1600 0 0 895 0 895 -1600 0 -1600 0 0 -895z m1621 767
c38 -18 82 -49 103 -72 35 -39 36 -42 36 -120 0 -72 -3 -85 -35 -143 -19 -35
-35 -72 -35 -81 0 -30 40 -76 85 -97 24 -12 49 -27 56 -35 6 -8 16 -14 22 -14
17 0 138 -84 170 -118 33 -34 63 -125 77 -232 6 -41 17 -93 25 -115 15 -40 31
-131 42 -236 5 -48 3 -58 -18 -82 l-24 -26 -440 -5 c-504 -6 -626 0 -657 32
-31 31 -36 85 -16 212 22 147 42 220 81 297 31 61 126 167 223 249 l49 42 0
63 c-1 56 -6 72 -41 134 -47 80 -69 159 -60 211 8 42 66 105 116 128 19 9 46
23 60 32 36 22 104 13 181 -24z"/>
</g>
</svg>
