<svg version="1.0" xmlns="http://www.w3.org/2000/svg"
 width="668px" style="transform:scale(1,1.001);" height="375.75px" viewBox="0 0 320.000000 180.000000"
 preserveAspectRatio="xMidYMid meet">
<g transform="translate(0.000000,180.000000) scale(0.100000,-0.100000)"
fill="#000000" stroke="none">
<path d="M0 905 l0 -895 705 0 705 0 0 25 c0 15 -10 31 -26 41 -14 10 -44 45 -66 78
-23 34 -58 80 -79 102 -27 30 -39 55 -44 87 -12 78 5 117 90 213 11 12 31 37
45 55 30 39 39 48 111 104 31 24 65 61 75 82 26 53 24 127 -4 156 -20 20 -25
20 -67 9 -25 -7 -68 -12 -95 -12 -43 0 -50 3 -55 23 -12 45 46 143 105 178 43
27 69 80 82 166 16 111 8 140 -58 209 -55 58 -56 60 -51 108 4 42 10 55 46 88
22 21 41 48 41 58 0 20 -11 20 -730 20 l-730 0 0 -895z"/>
<path d="M1630 1777 c0 -12 9 -28 20 -34 30 -20 49 -64 56 -139 8 -72 22 -100 87 -167
61 -64 102 -228 113 -461 5 -104 3 -144 -10 -192 -9 -34 -16 -73 -16 -87 0
-38 -46 -130 -91 -182 -10 -11 -38 -68 -63 -127 -49 -115 -56 -168 -35 -258 6
-25 11 -62 10 -83 l-1 -37 750 0 750 0 0 895 0 895 -785 0 -785 0 0 -23z"/>
</g>
</svg>
