<svg version="1.0" xmlns="http://www.w3.org/2000/svg"
 width="668px" style="transform:scale(1,1.001);" height="375.75px" viewBox="0 0 320.000000 180.000000"
 preserveAspectRatio="xMidYMid meet">
<g transform="translate(0.000000,180.000000) scale(0.100000,-0.100000)"
fill="#000000" stroke="none">
<path d="M0 905 l0 -895 1600 0 1600 0 0 895 0 895 -1600 0 -1600 0 0 -895z m1910 655
c91 -18 108 -25 154 -62 119 -97 148 -148 131 -230 -8 -33 -56 -138 -120 -258
-19 -36 -35 -69 -35 -75 1 -30 73 -88 170 -136 131 -66 157 -84 219 -150 56
-60 61 -75 62 -213 1 -78 -3 -102 -16 -115 -14 -14 -79 -16 -643 -17 -697 -2
-670 -5 -693 65 -7 21 -10 71 -7 128 5 92 6 95 45 141 22 26 57 57 79 69 81
46 126 70 237 125 78 39 122 67 137 88 l22 31 -22 59 c-12 33 -28 65 -36 71
-8 6 -14 21 -14 33 0 12 -11 37 -24 55 -14 19 -28 46 -31 62 -4 15 -13 33 -21
40 -20 17 -17 72 7 113 38 65 166 155 269 189 23 8 22 8 130 -13z"/>
</g>
</svg>
