<svg version="1.0" xmlns="http://www.w3.org/2000/svg"
 width="668px" style="transform:scale(1,1.001);" height="375.75px" viewBox="0 0 320.000000 180.000000"
 preserveAspectRatio="xMidYMid meet">
<g transform="translate(0.000000,180.000000) scale(0.100000,-0.100000)"
fill="#000000" stroke="none">
<path d="M0 905 l0 -895 1600 0 1600 0 0 895 0 895 -1600 0 -1600 0 0 -895z m1765 695
c82 -50 105 -124 58 -183 -12 -16 -27 -43 -33 -61 -18 -56 -1 -80 85 -122 81
-40 155 -105 184 -164 23 -47 61 -112 73 -127 5 -6 8 -40 6 -74 -3 -63 -3 -64
-44 -86 -23 -13 -63 -26 -90 -29 -27 -4 -56 -13 -65 -20 -22 -20 -43 -114 -36
-166 3 -23 11 -77 17 -118 19 -138 2 -155 -145 -142 -49 5 -146 7 -215 5 -173
-5 -164 -16 -165 188 -2 159 -16 336 -30 372 -10 24 -51 22 -86 -5 -121 -92
-151 -124 -179 -188 -32 -73 -71 -111 -104 -102 -11 3 -38 23 -58 43 -47 48
-51 95 -13 143 14 17 34 41 43 54 25 33 94 103 131 132 37 28 96 85 160 154
54 58 110 96 193 132 106 46 132 81 103 137 -80 154 -19 268 135 250 25 -2 59
-13 75 -23z"/>
</g>
</svg>
