<svg version="1.0" xmlns="http://www.w3.org/2000/svg"
 width="668px" style="transform:scale(1,1.001);" height="375.75px" viewBox="0 0 320.000000 180.000000"
 preserveAspectRatio="xMidYMid meet">
<g transform="translate(0.000000,180.000000) scale(0.100000,-0.100000)"
fill="#000000" stroke="none">
<path d="M0 905 l0 -895 1600 0 1600 0 0 895 0 895 -1600 0 -1600 0 0 -895z m1659 447
c47 -23 59 -61 36 -112 -22 -49 -13 -74 36 -106 22 -13 56 -39 77 -58 49 -43
100 -72 140 -80 19 -3 47 -17 64 -31 16 -14 34 -25 39 -25 16 0 39 -59 39
-102 0 -45 -26 -109 -47 -116 -16 -5 -33 38 -33 82 0 40 -31 71 -80 81 -19 4
-51 17 -70 30 -41 27 -144 40 -203 26 -47 -11 -97 -64 -97 -101 0 -14 21 -84
46 -156 85 -239 89 -269 47 -372 l-26 -66 34 -64 c26 -49 31 -66 23 -80 -23
-37 -140 -17 -164 27 -7 14 -5 55 6 140 12 97 13 132 4 177 -12 59 -74 174
-94 174 -29 0 -36 -24 -30 -104 5 -78 4 -85 -36 -186 -23 -58 -48 -136 -56
-175 -15 -73 -24 -85 -65 -85 -47 0 -53 19 -40 123 7 50 20 122 28 159 13 55
14 100 7 265 -8 181 -11 198 -28 201 -28 6 -92 -63 -105 -112 -6 -22 -19 -52
-30 -65 -15 -20 -24 -23 -54 -17 -31 6 -37 11 -43 41 -8 45 0 74 29 105 12 14
30 35 38 47 19 28 98 111 170 180 30 29 69 72 87 96 19 26 52 54 80 68 53 27
60 34 68 69 17 83 26 102 57 120 40 25 101 25 146 2z"/>
</g>
</svg>
