<svg version="1.0" xmlns="http://www.w3.org/2000/svg"
 width="668px" style="transform:scale(1,1.001);" height="375.75px" viewBox="0 0 320.000000 180.000000"
 preserveAspectRatio="xMidYMid meet">
<g transform="translate(0.000000,180.000000) scale(0.100000,-0.100000)"
fill="#000000" stroke="none">
<path d="M0 905 l0 -895 683 0 684 0 2 108 c1 59 3 141 3 182 2 101 -15 196 -32 185 -4
-3 -11 7 -15 22 -8 34 -59 93 -99 115 -17 9 -50 35 -74 57 -40 36 -42 41 -31
62 6 12 15 86 18 163 6 130 9 145 35 188 15 26 44 62 64 79 20 18 41 38 45 46
10 17 -18 64 -95 161 -71 88 -92 137 -85 198 7 66 44 114 115 149 47 23 61 35
62 53 l0 22 -640 0 -640 0 0 -895z m1069 -224 c14 -26 -12 -50 -34 -31 -11 9
-12 16 -2 31 15 24 24 24 36 0z"/>
<path d="M1410 1775 c0 -14 5 -25 11 -25 6 0 25 -11 43 -25 18 -14 37 -25 43 -25 5 0
20 -22 32 -49 22 -46 23 -53 11 -118 -16 -88 0 -126 57 -142 20 -6 48 -21 62
-34 14 -14 43 -27 64 -30 22 -3 53 -19 73 -36 19 -17 39 -31 44 -31 5 0 23
-20 40 -44 32 -48 48 -108 82 -316 11 -69 26 -163 34 -210 24 -139 27 -177 16
-222 -10 -45 -9 -59 26 -257 14 -78 18 -121 11 -138 -5 -13 -9 -33 -9 -44 0
-19 13 -19 575 -19 l575 0 0 895 0 895 -895 0 -895 0 0 -25z"/>
</g>
</svg>
