<svg version="1.0" xmlns="http://www.w3.org/2000/svg"
 width="668px" style="transform:scale(1,1.001);" height="375.75px" viewBox="0 0 320.000000 180.000000"
 preserveAspectRatio="xMidYMid meet">
<g transform="translate(0.000000,180.000000) scale(0.100000,-0.100000)"
fill="#000000" stroke="none">
<path d="M0 905 l0 -895 625 0 625 0 2 83 c5 157 0 210 -38 391 -8 38 -14 124 -14 192
0 68 -5 144 -12 168 -13 48 -1 135 29 221 8 22 16 92 19 155 9 181 28 219 166
328 31 25 69 67 88 100 43 73 69 102 92 102 13 0 18 7 18 25 l0 25 -800 0
-800 0 0 -895z"/>
<path d="M1680 1776 c0 -16 7 -26 23 -30 38 -12 80 -72 85 -125 4 -49 -2 -64 -63 -166
-38 -62 -33 -87 29 -151 39 -41 57 -68 66 -102 18 -69 31 -156 37 -252 5 -84
4 -86 -29 -135 -22 -31 -45 -52 -62 -56 -16 -5 -38 -16 -50 -27 -11 -10 -33
-26 -48 -35 -33 -21 -35 -43 -13 -162 8 -44 14 -143 15 -221 0 -152 -13 -215
-50 -241 -11 -8 -20 -25 -20 -39 l0 -24 800 0 800 0 0 895 0 895 -760 0 -760
0 0 -24z"/>
</g>
</svg>
