<svg version="1.0" xmlns="http://www.w3.org/2000/svg"
 width="668px" style="transform:scale(1,1.001);" height="375.75px" viewBox="0 0 320.000000 180.000000"
 preserveAspectRatio="xMidYMid meet">
<g transform="translate(0.000000,180.000000) scale(0.100000,-0.100000)"
fill="#000000" stroke="none">
<path d="M0 905 l0 -895 1600 0 1600 0 0 895 0 895 -1600 0 -1600 0 0 -895z m1699 573
c111 -37 173 -92 210 -182 24 -57 24 -61 9 -105 -9 -25 -19 -62 -23 -81 -4
-19 -17 -53 -30 -75 -12 -22 -25 -61 -29 -87 -6 -43 -4 -50 18 -73 14 -14 35
-25 47 -25 12 0 45 -11 73 -24 28 -13 77 -36 109 -51 32 -14 66 -33 75 -41 9
-8 29 -25 43 -37 64 -54 89 -95 109 -173 36 -138 23 -199 -44 -222 -30 -10
-95 -10 -310 -1 -149 6 -422 9 -606 8 -403 -2 -375 -4 -400 21 -28 28 -29 148
-1 194 10 17 22 42 26 55 10 33 60 79 148 137 40 26 83 55 97 64 14 10 41 21
60 25 50 10 90 51 90 91 0 18 -5 36 -11 40 -6 3 -20 25 -31 48 -33 69 -62 123
-75 138 -29 34 -43 98 -33 145 11 47 24 62 125 149 100 85 222 106 354 62z"/>
</g>
</svg>
