<svg version="1.0" xmlns="http://www.w3.org/2000/svg"
 width="668px" style="transform:scale(1,1.001);" height="375.75px" viewBox="0 0 320.000000 180.000000"
 preserveAspectRatio="xMidYMid meet">
<g transform="translate(0.000000,180.000000) scale(0.100000,-0.100000)"
fill="#000000" stroke="none">
<path d="M0 905 l0 -895 546 0 546 0 -5 33 c-3 17 -11 57 -17 87 -8 34 -10 89 -6 145
17 250 25 325 39 351 8 16 17 51 21 78 3 27 14 61 23 75 9 14 28 47 40 72 13
26 33 56 46 68 12 11 41 39 64 61 23 22 49 40 57 40 9 0 23 11 32 24 8 14 30
30 47 35 38 13 87 71 87 102 0 12 -17 47 -37 78 -47 70 -74 141 -80 207 -5 49
-3 52 40 97 25 26 51 47 60 47 8 0 21 10 30 23 13 20 22 22 110 22 85 0 98 -2
119 -22 14 -13 32 -23 41 -23 26 0 106 -90 113 -128 7 -37 -15 -124 -49 -190
-43 -84 -14 -177 66 -213 16 -6 35 -23 44 -36 8 -12 23 -23 32 -23 17 0 151
-135 151 -153 0 -6 8 -19 17 -29 13 -14 19 -49 25 -151 4 -73 15 -152 22 -177
8 -25 17 -92 20 -148 4 -57 11 -113 17 -125 15 -27 15 -145 0 -160 -6 -6 -11
-24 -11 -39 l0 -28 475 0 475 0 0 895 0 895 -1600 0 -1600 0 0 -895z"/>
</g>
</svg>
