<svg version="1.0" xmlns="http://www.w3.org/2000/svg"
 width="668px" style="transform:scale(1,1.001);" height="375.75px" viewBox="0 0 320.000000 180.000000"
 preserveAspectRatio="xMidYMid meet">
<g transform="translate(0.000000,180.000000) scale(0.100000,-0.100000)"
fill="#000000" stroke="none">
<path d="M0 905 l0 -895 1600 0 1600 0 0 895 0 895 -1600 0 -1600 0 0 -895z m1710 723
c83 -44 137 -87 169 -134 27 -41 31 -56 31 -114 0 -46 -6 -77 -20 -105 -11
-22 -20 -44 -20 -50 0 -6 -13 -37 -30 -70 -16 -33 -30 -75 -30 -93 0 -43 21
-92 51 -117 28 -23 159 -81 206 -90 17 -3 37 -13 44 -21 7 -9 26 -22 43 -31
36 -17 121 -105 143 -148 24 -46 20 -280 -6 -315 -32 -44 -78 -52 -220 -39
-85 8 -269 9 -561 6 -468 -7 -495 -5 -531 42 -18 22 -20 37 -16 102 2 41 6 80
9 85 3 5 11 27 18 49 15 45 76 125 96 125 7 0 15 9 19 19 3 10 20 25 38 32 18
7 41 21 51 31 11 10 28 18 38 18 9 0 22 9 28 20 6 12 30 25 55 32 31 8 45 18
45 29 0 9 7 19 15 23 22 8 20 102 -3 143 -25 46 -94 147 -104 151 -4 2 -6 7
-3 12 3 4 -7 25 -22 46 -42 63 -55 103 -49 149 6 34 20 54 81 117 44 45 97 87
127 103 50 24 60 25 158 21 85 -4 114 -9 150 -28z"/>
</g>
</svg>
