<svg version="1.0" xmlns="http://www.w3.org/2000/svg"
 width="668px" style="transform:scale(1,1.001);" height="375.75px" viewBox="0 0 320.000000 180.000000"
 preserveAspectRatio="xMidYMid meet">
<g transform="translate(0.000000,180.000000) scale(0.100000,-0.100000)"
fill="#000000" stroke="none">
<path d="M0 905 l0 -895 570 0 570 0 0 50 c0 38 5 54 22 70 12 11 25 20 29 20 17 0 20
78 3 121 -86 228 -85 249 10 474 56 132 60 177 17 199 -26 14 -30 14 -45 -3
-9 -10 -16 -22 -16 -26 0 -5 -10 -20 -22 -33 -56 -58 -65 -68 -71 -85 -3 -9
-12 -17 -19 -17 -7 0 -22 -12 -33 -26 -18 -23 -24 -25 -42 -16 -11 6 -24 24
-28 39 -3 15 -13 32 -21 38 -21 15 -9 60 22 80 13 8 24 22 24 30 0 7 9 16 19
20 22 7 71 84 71 112 0 10 12 52 25 93 30 89 32 144 7 162 -30 22 -62 84 -62
120 0 41 34 97 70 115 26 13 107 17 135 7 25 -10 45 -58 45 -108 0 -66 36
-106 97 -106 37 0 49 -5 71 -30 15 -16 31 -30 37 -30 12 -1 63 -70 87 -120 29
-59 24 -179 -12 -288 -17 -50 -30 -98 -30 -105 0 -17 -98 -214 -110 -222 -18
-11 3 -70 39 -114 50 -61 87 -115 111 -162 12 -22 27 -42 35 -46 8 -3 15 -11
15 -18 0 -6 9 -20 20 -30 25 -22 18 -62 -16 -88 -16 -12 -24 -29 -24 -48 l0
-29 800 0 800 0 0 895 0 895 -1600 0 -1600 0 0 -895z"/>
<path d="M1325 308 c4 -18 13 -48 21 -66 17 -36 32 -118 26 -143 -4 -19 -31 -29 -84
-29 -52 0 -68 -9 -68 -36 l0 -24 126 0 127 0 -7 81 c-9 99 -19 124 -80 194
-54 63 -70 69 -61 23z"/>
</g>
</svg>
