<svg version="1.0" xmlns="http://www.w3.org/2000/svg"
 width="668px" style="transform:scale(1,1.001);" height="375.75px" viewBox="0 0 320.000000 180.000000"
 preserveAspectRatio="xMidYMid meet">
<g transform="translate(0.000000,180.000000) scale(0.100000,-0.100000)"
fill="#000000" stroke="none">
<path d="M0 905 l0 -895 548 0 548 0 12 73 c6 39 14 162 16 272 5 205 14 266 73 497 24
91 17 110 -45 138 -23 11 -45 27 -49 36 -7 19 69 250 97 297 10 16 32 37 48
48 36 21 49 69 33 112 -24 62 -5 156 34 171 34 12 103 6 121 -11 32 -32 46
-82 39 -138 -7 -52 -6 -55 31 -92 21 -21 47 -43 58 -48 11 -6 29 -33 39 -60
26 -67 19 -240 -14 -333 -21 -62 -21 -65 -5 -165 19 -124 24 -370 12 -615 l-9
-182 807 0 806 0 0 895 0 895 -1600 0 -1600 0 0 -895z"/>
<path d="M1331 609 c-60 -118 -70 -150 -81 -284 -6 -66 -15 -160 -20 -210 -5 -50 -10
-93 -10 -97 0 -5 59 -8 130 -8 l130 0 0 213 c0 117 -5 240 -11 273 -20 109
-56 194 -84 194 -7 0 -32 -37 -54 -81z"/>
</g>
</svg>
