<svg version="1.0" xmlns="http://www.w3.org/2000/svg"
 width="668px" style="transform:scale(1,1.001);" height="375.75px" viewBox="0 0 320.000000 180.000000"
 preserveAspectRatio="xMidYMid meet">
<g transform="translate(0.000000,180.000000) scale(0.100000,-0.100000)"
fill="#000000" stroke="none">
<path d="M0 905 l0 -895 510 0 510 0 0 58 c0 32 4 62 9 68 5 5 11 48 15 95 3 48 10 98
14 110 5 13 13 46 17 74 4 27 13 61 20 75 6 14 15 40 18 58 4 18 27 76 52 128
25 53 45 98 45 101 0 7 28 72 46 105 23 42 17 79 -22 135 -26 38 -37 66 -41
106 -6 61 4 99 54 202 37 78 85 119 152 131 47 8 69 29 81 74 6 21 20 49 31
64 18 23 28 26 66 24 25 -1 51 -7 57 -13 6 -6 25 -21 42 -33 27 -18 64 -83 64
-110 0 -5 -20 -32 -45 -61 -25 -29 -45 -63 -45 -75 0 -12 14 -60 31 -107 26
-69 32 -100 33 -175 l1 -90 -43 -49 c-50 -56 -50 -60 3 -170 18 -38 45 -108
60 -155 15 -47 31 -94 36 -105 19 -44 50 -149 69 -230 11 -48 27 -99 35 -115
8 -16 15 -49 15 -75 l0 -45 655 0 655 0 0 895 0 895 -1600 0 -1600 0 0 -895z"/>
<path d="M1420 632 c-26 -12 -110 -95 -138 -136 -66 -95 -63 -89 -102 -236 -6 -25 -18
-74 -26 -109 -8 -35 -19 -72 -24 -82 -6 -10 -10 -27 -10 -38 0 -21 3 -21 335
-21 l335 0 0 23 c0 13 -4 27 -8 33 -12 13 -66 155 -92 243 -23 76 -50 130 -82
166 -10 11 -39 52 -66 90 -39 58 -52 70 -77 72 -17 1 -37 -1 -45 -5z"/>
</g>
</svg>
