<svg version="1.0" xmlns="http://www.w3.org/2000/svg"
 width="668px" style="transform:scale(1,1.001);" height="375.75px" viewBox="0 0 320.000000 180.000000"
 preserveAspectRatio="xMidYMid meet">
<g transform="translate(0.000000,180.000000) scale(0.100000,-0.100000)"
fill="#000000" stroke="none">
<path d="M0 905 l0 -895 925 0 c911 0 925 0 925 20 0 10 -12 31 -26 45 -24 24 -25 31
-21 98 2 40 9 110 16 157 6 47 16 113 21 147 4 34 15 76 24 95 28 61 56 175
56 226 0 64 -12 96 -54 142 -53 59 -56 146 -7 205 26 31 61 84 61 90 0 12 83
105 94 105 6 0 17 9 23 19 7 11 26 22 44 26 17 4 52 26 77 48 l44 42 -6 81
c-7 87 5 164 30 185 8 6 14 22 14 35 l0 24 -1120 0 -1120 0 0 -895z"/>
<path d="M2400 1776 c0 -17 19 -40 68 -82 37 -32 69 -59 70 -60 13 -9 20 -83 10 -108
-14 -34 1 -102 42 -185 20 -41 29 -78 33 -139 l6 -83 -34 -35 c-28 -27 -42
-34 -74 -34 -22 0 -43 -5 -47 -12 -5 -7 -13 -49 -20 -93 -12 -80 -18 -100 -54
-165 -16 -30 -18 -48 -14 -120 7 -99 -20 -489 -42 -612 l-6 -38 431 0 431 0 0
895 0 895 -400 0 -400 0 0 -24z"/>
<path d="M2051 229 c-51 -129 -69 -155 -112 -164 -22 -5 -29 -12 -29 -31 l0 -24 135 0
c130 0 135 1 135 21 0 11 -5 29 -11 40 -5 11 -14 62 -18 114 -8 96 -20 125
-51 125 -12 0 -26 -23 -49 -81z"/>
</g>
</svg>
